<svg xmlns="http://www.w3.org/2000/svg" width="1580" height="550" viewBox="0 0 1580 550" role="img" aria-labelledby="title desc">
  <title id="title">FIG-06-02. Horizon Bank Customer Onboarding BPMN Collaboration</title>
  <desc id="desc">BPMN collaboration showing black-box external participants and Horizon Bank onboarding flow.</desc>
  <defs>
    <marker id="arrow" viewBox="0 0 10 10" refX="9" refY="5" markerWidth="8" markerHeight="8" orient="auto-start-reverse"><path d="M 0 0 L 10 5 L 0 10 z" fill="#222"/></marker>
    <marker id="msgArrow" viewBox="0 0 10 10" refX="9" refY="5" markerWidth="8" markerHeight="8" orient="auto-start-reverse"><path d="M 0 0 L 10 5 L 0 10 z" fill="#ffffff" stroke="#6941c6" stroke-width="1.5"/></marker>
    <style>
      .pool { fill:#ffffff; stroke:#222; stroke-width:1.5; }
      .lane { fill:#f7f8fa; stroke:#667085; stroke-width:1; }
      .task { fill:#eef4ff; stroke:#175cd3; stroke-width:1.4; }
      .event { fill:#ffffff; stroke:#222; stroke-width:2; }
      .innerEvent { fill:none; stroke:#222; stroke-width:1.2; }
      .end { fill:#ffffff; stroke:#222; stroke-width:4; }
      .gateway { fill:#fff7e6; stroke:#b54708; stroke-width:1.5; }
      .flow { stroke:#222; stroke-width:1.5; fill:none; marker-end:url(#arrow); }
      .message { stroke:#6941c6; stroke-width:1.7; stroke-dasharray:7 5; fill:none; marker-end:url(#msgArrow); }
      .label { font: 15px Arial, sans-serif; fill:#111827; }
      .small { font: 13px Arial, sans-serif; fill:#344054; }
      .title { font: bold 18px Arial, sans-serif; fill:#111827; }
      .poolText { font: bold 14px Arial, sans-serif; fill:#111827; }
      .labelBadge { fill:#ffffff; stroke:#667085; stroke-width:1; }
      .gatewayMarker { font: 16px Arial, sans-serif; fill:#111827; }
      .eventMarker, .eventMarkerCircle { fill:none; stroke:#111827; stroke-width:1.3; }
      .messageIcon { fill:#ffffff; stroke:#111827; stroke-width:1.2; }
      .iconLine, .timerHand, .timerIcon { fill:none; stroke:#111827; stroke-width:1.2; }
    </style>
  </defs>
  <text x="790" y="26" text-anchor="middle" class="title">FIG-06-02. Horizon Bank Customer Onboarding BPMN Collaboration</text>
<rect x="160" y="50" width="1380" height="70" rx="4" class="pool"/>
<rect x="160" y="155" width="1380" height="250" rx="4" class="pool"/>
<rect x="160" y="330" width="1380" height="75" class="lane"/>
<text x="182" y="360" text-anchor="start" class="poolText">Compliance</text>
<rect x="160" y="225" width="1380" height="105" class="lane"/>
<text x="182" y="262" text-anchor="start" class="poolText">Onboarding</text>
<text x="182" y="279" text-anchor="start" class="poolText">Operations</text>
<rect x="160" y="155" width="1380" height="70" class="lane"/>
<text x="182" y="174" text-anchor="start" class="poolText">Digital</text>
<text x="182" y="192" text-anchor="start" class="poolText">Channels</text>
<circle cx="305" cy="190" r="18" class="event"/>
<rect x="295" y="183" width="20" height="14" class="messageIcon"/>
<path d="M295 183 L305 191 L315 183" class="iconLine"/>
<text x="305" y="218" text-anchor="middle" class="small">Application</text>
<text x="305" y="234" text-anchor="middle" class="small">received</text>
<rect x="365" y="168" width="120" height="44" rx="10" class="task"/>
<text x="425" y="187" text-anchor="middle" class="label">Capture</text>
<text x="425" y="203" text-anchor="middle" class="label">application</text>
<rect x="540" y="250" width="120" height="44" rx="10" class="task"/>
<text x="600" y="269" text-anchor="middle" class="label">Validate</text>
<text x="600" y="285" text-anchor="middle" class="label">application</text>
<rect x="705" y="250" width="120" height="44" rx="10" class="task"/>
<text x="765" y="277" text-anchor="middle" class="label">Request screening</text>
<circle cx="900" cy="272" r="18" class="event"/>
<circle cx="900" cy="272" r="13" class="innerEvent"/>
<rect x="890" y="265" width="20" height="14" class="messageIcon"/>
<path d="M890 265 L900 273 L910 265" class="iconLine"/>
<text x="882" y="299" text-anchor="middle" class="small">Receive</text>
<text x="882" y="315" text-anchor="middle" class="small">result</text>
<polygon points="1025,237 1060,272 1025,307 990,272" class="gateway"/>
<text x="1025" y="277" text-anchor="middle" class="gatewayMarker">X</text>
<text x="1026" y="314" text-anchor="middle" class="small">Screening</text>
<text x="1026" y="330" text-anchor="middle" class="small">clear?</text>
<rect x="1120" y="250" width="125" height="44" rx="10" class="task"/>
<text x="1182" y="269" text-anchor="middle" class="label">Open customer</text>
<text x="1182" y="285" text-anchor="middle" class="label">profile</text>
<rect x="1290" y="250" width="120" height="44" rx="10" class="task"/>
<text x="1350" y="269" text-anchor="middle" class="label">Send onboarding</text>
<text x="1350" y="285" text-anchor="middle" class="label">outcome</text>
<circle cx="1480" cy="272" r="18" class="end"/>
<text x="1480" y="299" text-anchor="middle" class="small">Profile</text>
<text x="1480" y="315" text-anchor="middle" class="small">opened</text>
<rect x="1110" y="346" width="150" height="44" rx="10" class="task"/>
<text x="1185" y="365" text-anchor="middle" class="label">Review screening</text>
<text x="1185" y="381" text-anchor="middle" class="label">exception</text>
<polygon points="1345,333 1380,368 1345,403 1310,368" class="gateway"/>
<text x="1345" y="373" text-anchor="middle" class="gatewayMarker">X</text>
<text x="1345" y="409" text-anchor="middle" class="small">Exception</text>
<text x="1345" y="425" text-anchor="middle" class="small">clear?</text>
<circle cx="1480" cy="368" r="18" class="end"/>
<text x="1480" y="398" text-anchor="middle" class="small">Application</text>
<text x="1480" y="414" text-anchor="middle" class="small">rejected</text>
<rect x="160" y="440" width="1380" height="70" rx="4" class="pool"/>
<text x="182" y="78" text-anchor="start" class="poolText">Retail Customer</text>
<rect x="170" y="131" width="116" height="22" rx="3" class="labelBadge"/>
<text x="180" y="147" text-anchor="start" class="poolText">Horizon Bank</text>
<text x="182" y="460" text-anchor="start" class="poolText">Financial Crime</text>
<text x="182" y="476" text-anchor="start" class="poolText">Platform</text>
<path d="M323 190 L365 190" class="flow"/>
<path d="M485 190 L510 190 L510 272 L540 272" class="flow"/>
<path d="M660 272 L705 272" class="flow"/>
<path d="M825 272 L882 272" class="flow"/>
<path d="M918 272 L990 272" class="flow"/>
<path d="M1060 272 L1120 272" class="flow"/>
<text x="1103" y="260" text-anchor="middle" class="small">[clear]</text>
<path d="M1025 307 L1060 368 L1110 368" class="flow"/>
<text x="1085" y="336" text-anchor="middle" class="small">[possible</text>
<text x="1085" y="352" text-anchor="middle" class="small">match]</text>
<path d="M1345 333 L1345 313 L1182 313 L1182 294" class="flow"/>
<text x="1267" y="306" text-anchor="middle" class="small">[clear]</text>
<path d="M1245 272 L1290 272" class="flow"/>
<path d="M1410 272 L1462 272" class="flow"/>
<path d="M1260 368 L1310 368" class="flow"/>
<path d="M1380 368 L1462 368" class="flow"/>
<text x="1432" y="356" text-anchor="middle" class="small">[reject]</text>
<path d="M1350 250 L1350 120" class="message"/>
<text x="1420" y="170" text-anchor="middle" class="small">Onboarding</text>
<text x="1420" y="186" text-anchor="middle" class="small">outcome</text>
<path d="M305 120 L305 172" class="message"/>
<text x="372" y="136" text-anchor="middle" class="small">Submit</text>
<text x="372" y="152" text-anchor="middle" class="small">application</text>
<path d="M765 294 L765 440" class="message"/>
<text x="834" y="368" text-anchor="middle" class="small">Screening</text>
<text x="834" y="384" text-anchor="middle" class="small">request</text>
<path d="M860 440 L860 272 L882 272" class="message"/>
<text x="926" y="368" text-anchor="middle" class="small">Screening</text>
<text x="926" y="384" text-anchor="middle" class="small">result</text>
</svg>
