<?xml version="1.0" encoding="us-ascii" standalone="no"?><svg xmlns="http://www.w3.org/2000/svg" xmlns:xlink="http://www.w3.org/1999/xlink" contentStyleType="text/css" height="756px" preserveAspectRatio="none" style="width:1118px;height:756px;background:#FFFFFF;" version="1.1" viewBox="0 0 1118 756" width="1118px" zoomAndPan="magnify"><defs/><g><text fill="#000000" font-family="Arial" font-size="14" font-weight="bold" lengthAdjust="spacing" textLength="311" x="396.5" y="23.1318">FIG-10-01. Online Store Order Domain Model</text><!--cluster Ordering--><g id="cluster_Ordering"><path d="M8.5,43.0986 L196.5,43.0986 A3.75,3.75 0 0 1 199,45.5986 L206,81.2959 L1108.5,81.2959 A2.5,2.5 0 0 1 1111,83.7959 L1111,391.5986 A2.5,2.5 0 0 1 1108.5,394.0986 L8.5,394.0986 A2.5,2.5 0 0 1 6,391.5986 L6,45.5986 A2.5,2.5 0 0 1 8.5,43.0986 " fill="#F7F9FB" style="stroke:#000000;stroke-width:1.5;"/><line style="stroke:#000000;stroke-width:1.5;" x1="6" x2="206" y1="81.2959" y2="81.2959"/><text fill="#000000" font-family="Arial" font-size="14" font-weight="bold" lengthAdjust="spacing" textLength="187" x="10" y="58.2305">Ordering bounded context</text><text fill="#000000" font-family="Arial" font-size="14" font-weight="bold" lengthAdjust="spacing" textLength="182" x="12.5" y="74.3291">&#171;Owned model boundary&#187;</text></g><!--class Customer--><g id="elem_Customer"><rect codeLine="15" fill="#FFFFFF" height="58.1973" id="Customer" rx="2.5" ry="2.5" style="stroke:#333333;stroke-width:0.5;" width="146" x="22" y="236.0986"/><ellipse cx="36" cy="257.1973" fill="#ADD1B2" rx="10" ry="10" style="stroke:#181818;stroke-width:1.0;"/><path d="M37.4063,253.2598 Q37.5313,253.0879 37.6875,253.0098 Q37.8438,252.916 38.0156,252.916 Q38.3281,252.916 38.5156,253.1348 Q38.7188,253.3379 38.7188,253.8379 L38.7188,255.0254 Q38.7188,255.541 38.5156,255.7598 Q38.3281,255.9629 38.0156,255.9629 Q37.7344,255.9629 37.5625,255.8066 Q37.3906,255.6504 37.3125,255.2285 Q37.2656,254.9316 37.125,254.7754 Q36.8438,254.4629 36.3281,254.291 Q35.8281,254.1035 35.3281,254.1035 Q34.7031,254.1035 34.1719,254.3848 Q33.6406,254.6504 33.2344,255.2754 Q32.8438,255.8848 32.8438,256.7285 L32.8438,257.6348 Q32.8438,258.6504 33.5781,259.3223 Q34.3125,259.9941 35.6094,259.9941 Q36.3906,259.9941 36.9375,259.791 Q37.25,259.666 37.6094,259.3066 Q37.8281,259.0879 37.9375,259.0254 Q38.0625,258.9473 38.2188,258.9473 Q38.5,258.9473 38.7188,259.166 Q38.9375,259.3848 38.9375,259.666 Q38.9375,259.9473 38.6406,260.2754 Q38.2188,260.7598 37.5625,261.0254 Q36.6875,261.4004 35.625,261.4004 Q34.375,261.4004 33.375,260.8848 Q32.5781,260.4785 32,259.6035 Q31.4375,258.7129 31.4375,257.666 L31.4375,256.7129 Q31.4375,255.6191 31.9375,254.6816 Q32.4531,253.7285 33.3594,253.2129 Q34.2656,252.6973 35.2656,252.6973 Q35.875,252.6973 36.4063,252.8379 Q36.9375,252.9785 37.4063,253.2598 Z " fill="#000000"/><text fill="#000000" font-family="Arial" font-size="14" lengthAdjust="spacing" textLength="61" x="76.5" y="254.2305">Customer</text><text fill="#000000" font-family="Arial" font-size="14" lengthAdjust="spacing" textLength="116" x="49" y="270.3291">&#171;Entity reference&#187;</text><line style="stroke:#333333;stroke-width:0.5;" x1="23" x2="167" y1="278.2959" y2="278.2959"/><line style="stroke:#333333;stroke-width:0.5;" x1="23" x2="167" y1="286.2959" y2="286.2959"/></g><!--class Basket--><g id="elem_Basket"><rect codeLine="16" fill="#EAF6E8" height="58.1973" id="Basket" rx="2.5" ry="2.5" style="stroke:#333333;stroke-width:0.5;" width="141" x="213" y="151.0986"/><ellipse cx="227" cy="172.1973" fill="#ADD1B2" rx="10" ry="10" style="stroke:#181818;stroke-width:1.0;"/><path d="M228.4063,168.2598 Q228.5313,168.0879 228.6875,168.0098 Q228.8438,167.916 229.0156,167.916 Q229.3281,167.916 229.5156,168.1348 Q229.7188,168.3379 229.7188,168.8379 L229.7188,170.0254 Q229.7188,170.541 229.5156,170.7598 Q229.3281,170.9629 229.0156,170.9629 Q228.7344,170.9629 228.5625,170.8066 Q228.3906,170.6504 228.3125,170.2285 Q228.2656,169.9316 228.125,169.7754 Q227.8438,169.4629 227.3281,169.291 Q226.8281,169.1035 226.3281,169.1035 Q225.7031,169.1035 225.1719,169.3848 Q224.6406,169.6504 224.2344,170.2754 Q223.8438,170.8848 223.8438,171.7285 L223.8438,172.6348 Q223.8438,173.6504 224.5781,174.3223 Q225.3125,174.9941 226.6094,174.9941 Q227.3906,174.9941 227.9375,174.791 Q228.25,174.666 228.6094,174.3066 Q228.8281,174.0879 228.9375,174.0254 Q229.0625,173.9473 229.2188,173.9473 Q229.5,173.9473 229.7188,174.166 Q229.9375,174.3848 229.9375,174.666 Q229.9375,174.9473 229.6406,175.2754 Q229.2188,175.7598 228.5625,176.0254 Q227.6875,176.4004 226.625,176.4004 Q225.375,176.4004 224.375,175.8848 Q223.5781,175.4785 223,174.6035 Q222.4375,173.7129 222.4375,172.666 L222.4375,171.7129 Q222.4375,170.6191 222.9375,169.6816 Q223.4531,168.7285 224.3594,168.2129 Q225.2656,167.6973 226.2656,167.6973 Q226.875,167.6973 227.4063,167.8379 Q227.9375,167.9785 228.4063,168.2598 Z " fill="#000000"/><text fill="#000000" font-family="Arial" font-size="14" lengthAdjust="spacing" textLength="43" x="274" y="169.2305">Basket</text><text fill="#000000" font-family="Arial" font-size="14" lengthAdjust="spacing" textLength="111" x="240" y="185.3291">&#171;Aggregate root&#187;</text><line style="stroke:#333333;stroke-width:0.5;" x1="214" x2="353" y1="193.2959" y2="193.2959"/><line style="stroke:#333333;stroke-width:0.5;" x1="214" x2="353" y1="201.2959" y2="201.2959"/></g><!--class BasketItem--><g id="elem_BasketItem"><rect codeLine="17" fill="#FFFFFF" height="58.1973" id="BasketItem" rx="2.5" ry="2.5" style="stroke:#333333;stroke-width:0.5;" width="103" x="601.5" y="94.0986"/><ellipse cx="615.5" cy="115.1973" fill="#ADD1B2" rx="10" ry="10" style="stroke:#181818;stroke-width:1.0;"/><path d="M616.9063,111.2598 Q617.0313,111.0879 617.1875,111.0098 Q617.3438,110.916 617.5156,110.916 Q617.8281,110.916 618.0156,111.1348 Q618.2188,111.3379 618.2188,111.8379 L618.2188,113.0254 Q618.2188,113.541 618.0156,113.7598 Q617.8281,113.9629 617.5156,113.9629 Q617.2344,113.9629 617.0625,113.8066 Q616.8906,113.6504 616.8125,113.2285 Q616.7656,112.9316 616.625,112.7754 Q616.3438,112.4629 615.8281,112.291 Q615.3281,112.1035 614.8281,112.1035 Q614.2031,112.1035 613.6719,112.3848 Q613.1406,112.6504 612.7344,113.2754 Q612.3438,113.8848 612.3438,114.7285 L612.3438,115.6348 Q612.3438,116.6504 613.0781,117.3223 Q613.8125,117.9941 615.1094,117.9941 Q615.8906,117.9941 616.4375,117.791 Q616.75,117.666 617.1094,117.3066 Q617.3281,117.0879 617.4375,117.0254 Q617.5625,116.9473 617.7188,116.9473 Q618,116.9473 618.2188,117.166 Q618.4375,117.3848 618.4375,117.666 Q618.4375,117.9473 618.1406,118.2754 Q617.7188,118.7598 617.0625,119.0254 Q616.1875,119.4004 615.125,119.4004 Q613.875,119.4004 612.875,118.8848 Q612.0781,118.4785 611.5,117.6035 Q610.9375,116.7129 610.9375,115.666 L610.9375,114.7129 Q610.9375,113.6191 611.4375,112.6816 Q611.9531,111.7285 612.8594,111.2129 Q613.7656,110.6973 614.7656,110.6973 Q615.375,110.6973 615.9063,110.8379 Q616.4375,110.9785 616.9063,111.2598 Z " fill="#000000"/><text fill="#000000" font-family="Arial" font-size="14" lengthAdjust="spacing" textLength="73" x="628.5" y="112.2305">Basket Item</text><text fill="#000000" font-family="Arial" font-size="14" lengthAdjust="spacing" textLength="51" x="639.5" y="128.3291">&#171;Entity&#187;</text><line style="stroke:#333333;stroke-width:0.5;" x1="602.5" x2="703.5" y1="136.2959" y2="136.2959"/><line style="stroke:#333333;stroke-width:0.5;" x1="602.5" x2="703.5" y1="144.2959" y2="144.2959"/></g><!--class Order--><g id="elem_Order"><rect codeLine="18" fill="#EAF6E8" height="58.1973" id="Order" rx="2.5" ry="2.5" style="stroke:#333333;stroke-width:0.5;" width="141" x="213" y="320.0986"/><ellipse cx="227" cy="341.1973" fill="#ADD1B2" rx="10" ry="10" style="stroke:#181818;stroke-width:1.0;"/><path d="M228.4063,337.2598 Q228.5313,337.0879 228.6875,337.0098 Q228.8438,336.916 229.0156,336.916 Q229.3281,336.916 229.5156,337.1348 Q229.7188,337.3379 229.7188,337.8379 L229.7188,339.0254 Q229.7188,339.541 229.5156,339.7598 Q229.3281,339.9629 229.0156,339.9629 Q228.7344,339.9629 228.5625,339.8066 Q228.3906,339.6504 228.3125,339.2285 Q228.2656,338.9316 228.125,338.7754 Q227.8438,338.4629 227.3281,338.291 Q226.8281,338.1035 226.3281,338.1035 Q225.7031,338.1035 225.1719,338.3848 Q224.6406,338.6504 224.2344,339.2754 Q223.8438,339.8848 223.8438,340.7285 L223.8438,341.6348 Q223.8438,342.6504 224.5781,343.3223 Q225.3125,343.9941 226.6094,343.9941 Q227.3906,343.9941 227.9375,343.791 Q228.25,343.666 228.6094,343.3066 Q228.8281,343.0879 228.9375,343.0254 Q229.0625,342.9473 229.2188,342.9473 Q229.5,342.9473 229.7188,343.166 Q229.9375,343.3848 229.9375,343.666 Q229.9375,343.9473 229.6406,344.2754 Q229.2188,344.7598 228.5625,345.0254 Q227.6875,345.4004 226.625,345.4004 Q225.375,345.4004 224.375,344.8848 Q223.5781,344.4785 223,343.6035 Q222.4375,342.7129 222.4375,341.666 L222.4375,340.7129 Q222.4375,339.6191 222.9375,338.6816 Q223.4531,337.7285 224.3594,337.2129 Q225.2656,336.6973 226.2656,336.6973 Q226.875,336.6973 227.4063,336.8379 Q227.9375,336.9785 228.4063,337.2598 Z " fill="#000000"/><text fill="#000000" font-family="Arial" font-size="14" lengthAdjust="spacing" textLength="37" x="277" y="338.2305">Order</text><text fill="#000000" font-family="Arial" font-size="14" lengthAdjust="spacing" textLength="111" x="240" y="354.3291">&#171;Aggregate root&#187;</text><line style="stroke:#333333;stroke-width:0.5;" x1="214" x2="353" y1="362.2959" y2="362.2959"/><line style="stroke:#333333;stroke-width:0.5;" x1="214" x2="353" y1="370.2959" y2="370.2959"/></g><!--class OrderLine--><g id="elem_OrderLine"><rect codeLine="19" fill="#FFFFFF" height="58.1973" id="OrderLine" rx="2.5" ry="2.5" style="stroke:#333333;stroke-width:0.5;" width="98" x="604" y="320.0986"/><ellipse cx="618" cy="341.1973" fill="#ADD1B2" rx="10" ry="10" style="stroke:#181818;stroke-width:1.0;"/><path d="M619.4063,337.2598 Q619.5313,337.0879 619.6875,337.0098 Q619.8438,336.916 620.0156,336.916 Q620.3281,336.916 620.5156,337.1348 Q620.7188,337.3379 620.7188,337.8379 L620.7188,339.0254 Q620.7188,339.541 620.5156,339.7598 Q620.3281,339.9629 620.0156,339.9629 Q619.7344,339.9629 619.5625,339.8066 Q619.3906,339.6504 619.3125,339.2285 Q619.2656,338.9316 619.125,338.7754 Q618.8438,338.4629 618.3281,338.291 Q617.8281,338.1035 617.3281,338.1035 Q616.7031,338.1035 616.1719,338.3848 Q615.6406,338.6504 615.2344,339.2754 Q614.8438,339.8848 614.8438,340.7285 L614.8438,341.6348 Q614.8438,342.6504 615.5781,343.3223 Q616.3125,343.9941 617.6094,343.9941 Q618.3906,343.9941 618.9375,343.791 Q619.25,343.666 619.6094,343.3066 Q619.8281,343.0879 619.9375,343.0254 Q620.0625,342.9473 620.2188,342.9473 Q620.5,342.9473 620.7188,343.166 Q620.9375,343.3848 620.9375,343.666 Q620.9375,343.9473 620.6406,344.2754 Q620.2188,344.7598 619.5625,345.0254 Q618.6875,345.4004 617.625,345.4004 Q616.375,345.4004 615.375,344.8848 Q614.5781,344.4785 614,343.6035 Q613.4375,342.7129 613.4375,341.666 L613.4375,340.7129 Q613.4375,339.6191 613.9375,338.6816 Q614.4531,337.7285 615.3594,337.2129 Q616.2656,336.6973 617.2656,336.6973 Q617.875,336.6973 618.4063,336.8379 Q618.9375,336.9785 619.4063,337.2598 Z " fill="#000000"/><text fill="#000000" font-family="Arial" font-size="14" lengthAdjust="spacing" textLength="68" x="631" y="338.2305">Order Line</text><text fill="#000000" font-family="Arial" font-size="14" lengthAdjust="spacing" textLength="51" x="639.5" y="354.3291">&#171;Entity&#187;</text><line style="stroke:#333333;stroke-width:0.5;" x1="605" x2="701" y1="362.2959" y2="362.2959"/><line style="stroke:#333333;stroke-width:0.5;" x1="605" x2="701" y1="370.2959" y2="370.2959"/></g><!--class ProductSnapshot--><g id="elem_ProductSnapshot"><rect codeLine="20" fill="#FFF4D6" height="58.1973" id="ProductSnapshot" rx="2.5" ry="2.5" style="stroke:#333333;stroke-width:0.5;" width="143" x="952" y="207.0986"/><ellipse cx="966" cy="228.1973" fill="#ADD1B2" rx="10" ry="10" style="stroke:#181818;stroke-width:1.0;"/><path d="M967.4063,224.2598 Q967.5313,224.0879 967.6875,224.0098 Q967.8438,223.916 968.0156,223.916 Q968.3281,223.916 968.5156,224.1348 Q968.7188,224.3379 968.7188,224.8379 L968.7188,226.0254 Q968.7188,226.541 968.5156,226.7598 Q968.3281,226.9629 968.0156,226.9629 Q967.7344,226.9629 967.5625,226.8066 Q967.3906,226.6504 967.3125,226.2285 Q967.2656,225.9316 967.125,225.7754 Q966.8438,225.4629 966.3281,225.291 Q965.8281,225.1035 965.3281,225.1035 Q964.7031,225.1035 964.1719,225.3848 Q963.6406,225.6504 963.2344,226.2754 Q962.8438,226.8848 962.8438,227.7285 L962.8438,228.6348 Q962.8438,229.6504 963.5781,230.3223 Q964.3125,230.9941 965.6094,230.9941 Q966.3906,230.9941 966.9375,230.791 Q967.25,230.666 967.6094,230.3066 Q967.8281,230.0879 967.9375,230.0254 Q968.0625,229.9473 968.2188,229.9473 Q968.5,229.9473 968.7188,230.166 Q968.9375,230.3848 968.9375,230.666 Q968.9375,230.9473 968.6406,231.2754 Q968.2188,231.7598 967.5625,232.0254 Q966.6875,232.4004 965.625,232.4004 Q964.375,232.4004 963.375,231.8848 Q962.5781,231.4785 962,230.6035 Q961.4375,229.7129 961.4375,228.666 L961.4375,227.7129 Q961.4375,226.6191 961.9375,225.6816 Q962.4531,224.7285 963.3594,224.2129 Q964.2656,223.6973 965.2656,223.6973 Q965.875,223.6973 966.4063,223.8379 Q966.9375,223.9785 967.4063,224.2598 Z " fill="#000000"/><text fill="#000000" font-family="Arial" font-size="14" lengthAdjust="spacing" textLength="113" x="979" y="225.2305">Product Snapshot</text><text fill="#000000" font-family="Arial" font-size="14" lengthAdjust="spacing" textLength="97" x="987" y="241.3291">&#171;Value Object&#187;</text><line style="stroke:#333333;stroke-width:0.5;" x1="953" x2="1094" y1="249.2959" y2="249.2959"/><line style="stroke:#333333;stroke-width:0.5;" x1="953" x2="1094" y1="257.2959" y2="257.2959"/></g><!--class DeliveryAddress--><g id="elem_DeliveryAddress"><rect codeLine="21" fill="#FFF4D6" height="58.1973" id="DeliveryAddress" rx="2.5" ry="2.5" style="stroke:#333333;stroke-width:0.5;" width="137" x="584.5" y="207.0986"/><ellipse cx="598.5" cy="228.1973" fill="#ADD1B2" rx="10" ry="10" style="stroke:#181818;stroke-width:1.0;"/><path d="M599.9063,224.2598 Q600.0313,224.0879 600.1875,224.0098 Q600.3438,223.916 600.5156,223.916 Q600.8281,223.916 601.0156,224.1348 Q601.2188,224.3379 601.2188,224.8379 L601.2188,226.0254 Q601.2188,226.541 601.0156,226.7598 Q600.8281,226.9629 600.5156,226.9629 Q600.2344,226.9629 600.0625,226.8066 Q599.8906,226.6504 599.8125,226.2285 Q599.7656,225.9316 599.625,225.7754 Q599.3438,225.4629 598.8281,225.291 Q598.3281,225.1035 597.8281,225.1035 Q597.2031,225.1035 596.6719,225.3848 Q596.1406,225.6504 595.7344,226.2754 Q595.3438,226.8848 595.3438,227.7285 L595.3438,228.6348 Q595.3438,229.6504 596.0781,230.3223 Q596.8125,230.9941 598.1094,230.9941 Q598.8906,230.9941 599.4375,230.791 Q599.75,230.666 600.1094,230.3066 Q600.3281,230.0879 600.4375,230.0254 Q600.5625,229.9473 600.7188,229.9473 Q601,229.9473 601.2188,230.166 Q601.4375,230.3848 601.4375,230.666 Q601.4375,230.9473 601.1406,231.2754 Q600.7188,231.7598 600.0625,232.0254 Q599.1875,232.4004 598.125,232.4004 Q596.875,232.4004 595.875,231.8848 Q595.0781,231.4785 594.5,230.6035 Q593.9375,229.7129 593.9375,228.666 L593.9375,227.7129 Q593.9375,226.6191 594.4375,225.6816 Q594.9531,224.7285 595.8594,224.2129 Q596.7656,223.6973 597.7656,223.6973 Q598.375,223.6973 598.9063,223.8379 Q599.4375,223.9785 599.9063,224.2598 Z " fill="#000000"/><text fill="#000000" font-family="Arial" font-size="14" lengthAdjust="spacing" textLength="107" x="611.5" y="225.2305">Delivery Address</text><text fill="#000000" font-family="Arial" font-size="14" lengthAdjust="spacing" textLength="97" x="616.5" y="241.3291">&#171;Value Object&#187;</text><line style="stroke:#333333;stroke-width:0.5;" x1="585.5" x2="720.5" y1="249.2959" y2="249.2959"/><line style="stroke:#333333;stroke-width:0.5;" x1="585.5" x2="720.5" y1="257.2959" y2="257.2959"/></g><!--class PaymentAttempt--><g id="elem_PaymentAttempt"><rect codeLine="24" fill="#F2F5F7" height="74.2959" id="PaymentAttempt" rx="2.5" ry="2.5" style="stroke:#333333;stroke-width:0.5;" width="162" x="572" y="675.0986"/><ellipse cx="586" cy="704.2466" fill="#ADD1B2" rx="10" ry="10" style="stroke:#181818;stroke-width:1.0;"/><path d="M587.4063,700.3091 Q587.5313,700.1372 587.6875,700.0591 Q587.8438,699.9653 588.0156,699.9653 Q588.3281,699.9653 588.5156,700.1841 Q588.7188,700.3872 588.7188,700.8872 L588.7188,702.0747 Q588.7188,702.5903 588.5156,702.8091 Q588.3281,703.0122 588.0156,703.0122 Q587.7344,703.0122 587.5625,702.856 Q587.3906,702.6997 587.3125,702.2778 Q587.2656,701.981 587.125,701.8247 Q586.8438,701.5122 586.3281,701.3403 Q585.8281,701.1528 585.3281,701.1528 Q584.7031,701.1528 584.1719,701.4341 Q583.6406,701.6997 583.2344,702.3247 Q582.8438,702.9341 582.8438,703.7778 L582.8438,704.6841 Q582.8438,705.6997 583.5781,706.3716 Q584.3125,707.0435 585.6094,707.0435 Q586.3906,707.0435 586.9375,706.8403 Q587.25,706.7153 587.6094,706.356 Q587.8281,706.1372 587.9375,706.0747 Q588.0625,705.9966 588.2188,705.9966 Q588.5,705.9966 588.7188,706.2153 Q588.9375,706.4341 588.9375,706.7153 Q588.9375,706.9966 588.6406,707.3247 Q588.2188,707.8091 587.5625,708.0747 Q586.6875,708.4497 585.625,708.4497 Q584.375,708.4497 583.375,707.9341 Q582.5781,707.5278 582,706.6528 Q581.4375,705.7622 581.4375,704.7153 L581.4375,703.7622 Q581.4375,702.6685 581.9375,701.731 Q582.4531,700.7778 583.3594,700.2622 Q584.2656,699.7466 585.2656,699.7466 Q585.875,699.7466 586.4063,699.8872 Q586.9375,700.0278 587.4063,700.3091 Z " fill="#000000"/><text fill="#000000" font-family="Arial" font-size="14" lengthAdjust="spacing" textLength="107" x="611.5" y="693.2305">Payment Attempt</text><text fill="#000000" font-family="Arial" font-size="14" lengthAdjust="spacing" textLength="132" x="599" y="709.3291">&#171;External reference&#187;</text><text fill="#000000" font-family="Arial" font-size="14" lengthAdjust="spacing" textLength="119" x="605.5" y="725.4277">owned by Payment</text><line style="stroke:#333333;stroke-width:0.5;" x1="573" x2="733" y1="733.3945" y2="733.3945"/><line style="stroke:#333333;stroke-width:0.5;" x1="573" x2="733" y1="741.3945" y2="741.3945"/></g><!--class Shipment--><g id="elem_Shipment"><rect codeLine="25" fill="#F2F5F7" height="74.2959" id="Shipment" rx="2.5" ry="2.5" style="stroke:#333333;stroke-width:0.5;" width="162" x="572" y="433.0986"/><ellipse cx="586" cy="462.2466" fill="#ADD1B2" rx="10" ry="10" style="stroke:#181818;stroke-width:1.0;"/><path d="M587.4063,458.3091 Q587.5313,458.1372 587.6875,458.0591 Q587.8438,457.9653 588.0156,457.9653 Q588.3281,457.9653 588.5156,458.1841 Q588.7188,458.3872 588.7188,458.8872 L588.7188,460.0747 Q588.7188,460.5903 588.5156,460.8091 Q588.3281,461.0122 588.0156,461.0122 Q587.7344,461.0122 587.5625,460.856 Q587.3906,460.6997 587.3125,460.2778 Q587.2656,459.981 587.125,459.8247 Q586.8438,459.5122 586.3281,459.3403 Q585.8281,459.1528 585.3281,459.1528 Q584.7031,459.1528 584.1719,459.4341 Q583.6406,459.6997 583.2344,460.3247 Q582.8438,460.9341 582.8438,461.7778 L582.8438,462.6841 Q582.8438,463.6997 583.5781,464.3716 Q584.3125,465.0435 585.6094,465.0435 Q586.3906,465.0435 586.9375,464.8403 Q587.25,464.7153 587.6094,464.356 Q587.8281,464.1372 587.9375,464.0747 Q588.0625,463.9966 588.2188,463.9966 Q588.5,463.9966 588.7188,464.2153 Q588.9375,464.4341 588.9375,464.7153 Q588.9375,464.9966 588.6406,465.3247 Q588.2188,465.8091 587.5625,466.0747 Q586.6875,466.4497 585.625,466.4497 Q584.375,466.4497 583.375,465.9341 Q582.5781,465.5278 582,464.6528 Q581.4375,463.7622 581.4375,462.7153 L581.4375,461.7622 Q581.4375,460.6685 581.9375,459.731 Q582.4531,458.7778 583.3594,458.2622 Q584.2656,457.7466 585.2656,457.7466 Q585.875,457.7466 586.4063,457.8872 Q586.9375,458.0278 587.4063,458.3091 Z " fill="#000000"/><text fill="#000000" font-family="Arial" font-size="14" lengthAdjust="spacing" textLength="59" x="635.5" y="451.2305">Shipment</text><text fill="#000000" font-family="Arial" font-size="14" lengthAdjust="spacing" textLength="132" x="599" y="467.3291">&#171;External reference&#187;</text><text fill="#000000" font-family="Arial" font-size="14" lengthAdjust="spacing" textLength="125" x="602.5" y="483.4277">owned by Fulfilment</text><line style="stroke:#333333;stroke-width:0.5;" x1="573" x2="733" y1="491.3945" y2="491.3945"/><line style="stroke:#333333;stroke-width:0.5;" x1="573" x2="733" y1="499.3945" y2="499.3945"/></g><g id="elem_GMN21"><path d="M399,562.0986 L399,620.3945 A0,0 0 0 0 399,620.3945 L907,620.3945 A0,0 0 0 0 907,620.3945 L907,572.0986 L897,562.0986 L657,562.0986 L653,507.3886 L649,562.0986 L399,562.0986 A0,0 0 0 0 399,562.0986 " fill="#FFF8DC" style="stroke:#666666;stroke-width:0.5;"/><path d="M897,562.0986 L897,572.0986 L907,572.0986 L897,562.0986 " fill="#FFF8DC" style="stroke:#666666;stroke-width:0.5;"/><text fill="#000000" font-family="Arial" font-size="14" lengthAdjust="spacing" textLength="279" x="405" y="580.2305">Conceptual domain model for Ordering only.</text><text fill="#000000" font-family="Arial" font-size="14" lengthAdjust="spacing" textLength="487" x="405" y="596.3291">Payment Attempt and Shipment are external references, not owned concepts.</text><text fill="#000000" font-family="Arial" font-size="14" lengthAdjust="spacing" textLength="360" x="405" y="612.4277">It is not a database schema, API contract or process flow.</text></g><!--link Customer to Basket--><g id="link_Customer_Basket"><path codeLine="27" d="M168.33,250.5986 C212.4,250.5986 260,250.5986 260,250.5986 C260,250.5986 260,234.5986 260,215.1786 " fill="none" id="Customer-to-Basket" style="stroke:#333333;stroke-width:1.2;"/><polygon fill="#333333" points="260,209.1786,256,218.1786,260,214.1786,264,218.1786,260,209.1786" style="stroke:#333333;stroke-width:1.2;"/><text fill="#000000" font-family="Arial" font-size="14" lengthAdjust="spacing" textLength="32" x="201.88" y="264.7305">owns</text><text fill="#000000" font-family="Arial" font-size="14" lengthAdjust="spacing" textLength="8" x="175.9422" y="263.0858">1</text><text fill="#000000" font-family="Arial" font-size="14" lengthAdjust="spacing" textLength="21" x="231.5625" y="230.4109">0..*</text></g><!--reverse link Basket to BasketItem--><g id="link_Basket_BasketItem"><path codeLine="28" d="M366.31,179.5986 C473.6,179.5986 653,179.5986 653,179.5986 C653,179.5986 653,166.1286 653,152.3386 " fill="none" id="Basket-backto-BasketItem" style="stroke:#333333;stroke-width:1.2;"/><polygon fill="#333333" points="354.31,179.5986,360.31,183.5986,366.31,179.5986,360.31,175.5986,354.31,179.5986" style="stroke:#333333;stroke-width:1.2;"/><text fill="#000000" font-family="Arial" font-size="14" lengthAdjust="spacing" textLength="53" x="463.28" y="193.7305">contains</text><text fill="#000000" font-family="Arial" font-size="14" lengthAdjust="spacing" textLength="8" x="362.0248" y="193.4988">1</text><text fill="#000000" font-family="Arial" font-size="14" lengthAdjust="spacing" textLength="21" x="629.7031" y="173.6059">1..*</text></g><!--link BasketItem to ProductSnapshot--><g id="link_BasketItem_ProductSnapshot"><path codeLine="29" d="M704.59,123.0986 C806.53,123.0986 1024,123.0986 1024,123.0986 C1024,123.0986 1024,167.5186 1024,200.9986 " fill="none" id="BasketItem-to-ProductSnapshot" style="stroke:#333333;stroke-width:1.2;"/><polygon fill="#333333" points="1024,206.9986,1028,197.9986,1024,201.9986,1020,197.9986,1024,206.9986" style="stroke:#333333;stroke-width:1.2;"/><text fill="#000000" font-family="Arial" font-size="14" lengthAdjust="spacing" textLength="44" x="861.24" y="137.2305">selects</text><text fill="#000000" font-family="Arial" font-size="14" lengthAdjust="spacing" textLength="8" x="712.4073" y="137.3485">1</text><text fill="#000000" font-family="Arial" font-size="14" lengthAdjust="spacing" textLength="8" x="1015.2344" y="196.0041">1</text></g><!--link Customer to Order--><g id="link_Customer_Order"><path codeLine="31" d="M168.26,279.5986 C229.53,279.5986 307,279.5986 307,279.5986 C307,279.5986 307,294.9786 307,314.0286 " fill="none" id="Customer-to-Order" style="stroke:#333333;stroke-width:1.2;"/><polygon fill="#333333" points="307,320.0286,311,311.0286,307,315.0286,303,311.0286,307,320.0286" style="stroke:#333333;stroke-width:1.2;"/><text fill="#000000" font-family="Arial" font-size="14" lengthAdjust="spacing" textLength="41" x="215.84" y="293.7305">places</text><text fill="#000000" font-family="Arial" font-size="14" lengthAdjust="spacing" textLength="8" x="176.2274" y="295.0457">1</text><text fill="#000000" font-family="Arial" font-size="14" lengthAdjust="spacing" textLength="21" x="288.8438" y="309.0406">0..*</text></g><!--reverse link Order to OrderLine--><g id="link_Order_OrderLine"><path codeLine="32" d="M366.31,349.0986 C439.54,349.0986 539.98,349.0986 603.97,349.0986 " fill="none" id="Order-backto-OrderLine" style="stroke:#333333;stroke-width:1.2;"/><polygon fill="#333333" points="354.31,349.0986,360.31,353.0986,366.31,349.0986,360.31,345.0986,354.31,349.0986" style="stroke:#333333;stroke-width:1.2;"/><text fill="#000000" font-family="Arial" font-size="14" lengthAdjust="spacing" textLength="53" x="425.14" y="345.2305">contains</text><text fill="#000000" font-family="Arial" font-size="14" lengthAdjust="spacing" textLength="8" x="362.0248" y="345.4004">1</text><text fill="#000000" font-family="Arial" font-size="14" lengthAdjust="spacing" textLength="21" x="574.9707" y="363.2988">1..*</text></g><!--link OrderLine to ProductSnapshot--><g id="link_OrderLine_ProductSnapshot"><path codeLine="33" d="M702.27,349.0986 C803.19,349.0986 1024,349.0986 1024,349.0986 C1024,349.0986 1024,304.6786 1024,271.1986 " fill="none" id="OrderLine-to-ProductSnapshot" style="stroke:#333333;stroke-width:1.2;"/><polygon fill="#333333" points="1024,265.1986,1020,274.1986,1024,270.1986,1028,274.1986,1024,265.1986" style="stroke:#333333;stroke-width:1.2;"/><text fill="#000000" font-family="Arial" font-size="14" lengthAdjust="spacing" textLength="112" x="792.08" y="363.2305">records sale facts</text><text fill="#000000" font-family="Arial" font-size="14" lengthAdjust="spacing" textLength="8" x="710.094" y="363.3982">1</text><text fill="#000000" font-family="Arial" font-size="14" lengthAdjust="spacing" textLength="8" x="1015.2344" y="286.4353">1</text></g><!--reverse link Order to DeliveryAddress--><g id="link_Order_DeliveryAddress"><path codeLine="34" d="M366.18,334.5986 C458.09,334.5986 595,334.5986 595,334.5986 C595,334.5986 595,294.1786 595,265.1186 " fill="none" id="Order-backto-DeliveryAddress" style="stroke:#333333;stroke-width:1.2;"/><polygon fill="#333333" points="354.18,334.5986,360.18,338.5986,366.18,334.5986,360.18,330.5986,354.18,334.5986" style="stroke:#333333;stroke-width:1.2;"/><text fill="#000000" font-family="Arial" font-size="14" lengthAdjust="spacing" textLength="65" x="510.33" y="348.7305">delivers to</text><text fill="#000000" font-family="Arial" font-size="14" lengthAdjust="spacing" textLength="8" x="361.8814" y="329.4051">1</text><text fill="#000000" font-family="Arial" font-size="14" lengthAdjust="spacing" textLength="8" x="573.4375" y="286.3378">1</text></g><!--link Order to PaymentAttempt--><g id="link_Order_PaymentAttempt"><path codeLine="36" d="M284,378.1886 C284,464.3286 284,712.0986 284,712.0986 C284,712.0986 456.9,712.0986 565.56,712.0986 " fill="none" id="Order-to-PaymentAttempt" style="stroke:#333333;stroke-width:1.2;stroke-dasharray:7.0,7.0;"/><polygon fill="#333333" points="571.56,712.0986,562.56,708.0986,566.56,712.0986,562.56,716.0986,571.56,712.0986" style="stroke:#333333;stroke-width:1.2;"/><text fill="#000000" font-family="Arial" font-size="14" lengthAdjust="spacing" textLength="98" x="185" y="703.0605">references only</text><text fill="#000000" font-family="Arial" font-size="14" lengthAdjust="spacing" textLength="8" x="275.2344" y="399.4231">1</text><text fill="#000000" font-family="Arial" font-size="14" lengthAdjust="spacing" textLength="21" x="542.9462" y="725.8848">0..*</text></g><!--link Order to Shipment--><g id="link_Order_Shipment"><path codeLine="37" d="M354.28,363.5986 C441.7,363.5986 579,363.5986 579,363.5986 C579,363.5986 579,396.1386 579,426.8486 " fill="none" id="Order-to-Shipment" style="stroke:#333333;stroke-width:1.2;stroke-dasharray:7.0,7.0;"/><polygon fill="#333333" points="579,432.8486,583,423.8486,579,427.8486,575,423.8486,579,432.8486" style="stroke:#333333;stroke-width:1.2;"/><text fill="#000000" font-family="Arial" font-size="14" lengthAdjust="spacing" textLength="98" x="402.27" y="377.7305">references only</text><text fill="#000000" font-family="Arial" font-size="14" lengthAdjust="spacing" textLength="8" x="361.9917" y="379.0457">1</text><text fill="#000000" font-family="Arial" font-size="14" lengthAdjust="spacing" textLength="21" x="543.4766" y="422.1862">0..*</text></g><!--SRC=[ZLHDRzim3BtxLt3khQZTT6lQBIWAf6qy1DZG0WLswaMn6SUBB1cIlDOOzjz7IVvQl0mp3DWc7n-VIOhl2f7oEaE8utEwjMauwlEACs7gaaTcXoN65Rq60SUj0ID15VdEG5OeJ4qXHM0Amn6IzUVeOXRDBc9u5BmG2Cz6AeH7bQ621rcoGi1NcI4nwNqXAgPO2HPecWf1AhEJ8uSWfCOAvlEHKJ6njyRBiJ7bJ6lu6G3SIPlhNdAfuEI3kwoLfVjSoLfahIUvJZubTy6l8AZ8nNA4q8aiH0uRYyCCKYaClfaNSNFp-2h8K5hbtirKStiR0jFGXxMSJeNN4zxNsiWIbQLO2QfH0mgtg52as8Pt40ftrn1yn_GUNVPbdYlCcK5GKfesqBlXPBLChbOV3yDWRR0SqluHOrtJTEu_ZcRp7Pmay-OlrC19BkUodccg9oMpEZNmB5YbTzBzupV6QngKpNSQg9QXXNKentFvS3NmF20lVg1gO9bb2hK-mjF1MbJFGytl1B6cH65WQQWqbTEpUZEe1EFZXhq8wUPWqq0RuNNwzpQOwDydy-IwutxU5PLr_mTfKlDjmNlUBh9d3FfX2Iz2YA9R26TnV1fsix00ej91-sKnfr54pn76zNxXHflEOeTrrfwJdeUbNu16JXNLnpNuKLW0hOqKTU0_3pGCCp6IC1Z_hO1M3Prj3PhHfjaoA-OmIJZfzG8oRz6qjO9HG1ptoW_wjnYweq4Atlmzgk_E51y8IQTd8mqLYgRrNfAhCZNrFVChq2-IBIsYVdlOm9Z01wC8J6H3AaQx52SpfCzeKnhmOvJwPDfohGqKslaOPCom3TC8EgLrpivW-RHsFL1KITgyK2cPsefjkNoD0wIqzYz-0m00]--></g></svg>