<?xml version="1.0" encoding="us-ascii" standalone="no"?><svg xmlns="http://www.w3.org/2000/svg" xmlns:xlink="http://www.w3.org/1999/xlink" contentStyleType="text/css" height="660px" preserveAspectRatio="none" style="width:1508px;height:660px;background:#FFFFFF;" version="1.1" viewBox="0 0 1508 660" width="1508px" zoomAndPan="magnify"><defs/><g><text fill="#000000" font-family="Arial" font-size="14" font-weight="bold" lengthAdjust="spacing" textLength="386" x="554.25" y="23.1318">FIG-04-07. Horizon Bank Payments Deployment Diagram</text><!--cluster Production--><g id="cluster_Production"><polygon fill="none" points="548,53.0986,558,43.0986,1491.5,43.0986,1491.5,284.0986,1481.5,294.0986,548,294.0986,548,53.0986" style="stroke:#181818;stroke-width:1.0;"/><line style="stroke:#181818;stroke-width:1.0;" x1="1481.5" x2="1491.5" y1="53.0986" y2="43.0986"/><line style="stroke:#181818;stroke-width:1.0;" x1="548" x2="1481.5" y1="53.0986" y2="53.0986"/><line style="stroke:#181818;stroke-width:1.0;" x1="1481.5" x2="1481.5" y1="53.0986" y2="294.0986"/><text fill="#000000" font-family="Arial" font-size="14" font-weight="bold" lengthAdjust="spacing" textLength="174" x="928.75" y="69.2305">Horizon Bank Production</text></g><!--cluster AppRuntime--><g id="cluster_AppRuntime"><polygon fill="none" points="580,109.0986,590,99.0986,1010,99.0986,1010,252.0986,1000,262.0986,580,262.0986,580,109.0986" style="stroke:#181818;stroke-width:1.0;"/><line style="stroke:#181818;stroke-width:1.0;" x1="1000" x2="1010" y1="109.0986" y2="99.0986"/><line style="stroke:#181818;stroke-width:1.0;" x1="580" x2="1000" y1="109.0986" y2="109.0986"/><line style="stroke:#181818;stroke-width:1.0;" x1="1000" x2="1000" y1="109.0986" y2="262.0986"/><text fill="#000000" font-family="Arial" font-size="14" font-weight="bold" lengthAdjust="spacing" textLength="140" x="721" y="125.2305">Application Runtime</text><text fill="#000000" font-family="Arial" font-size="14" font-weight="bold" lengthAdjust="spacing" textLength="180" x="701" y="141.3291">&#171;execution environment&#187;</text></g><!--cluster DataRuntime--><g id="cluster_DataRuntime"><polygon fill="none" points="1211.5,117.0986,1221.5,107.0986,1467.5,107.0986,1467.5,225.0986,1457.5,235.0986,1211.5,235.0986,1211.5,117.0986" style="stroke:#181818;stroke-width:1.0;"/><line style="stroke:#181818;stroke-width:1.0;" x1="1457.5" x2="1467.5" y1="117.0986" y2="107.0986"/><line style="stroke:#181818;stroke-width:1.0;" x1="1211.5" x2="1457.5" y1="117.0986" y2="117.0986"/><line style="stroke:#181818;stroke-width:1.0;" x1="1457.5" x2="1457.5" y1="117.0986" y2="235.0986"/><text fill="#000000" font-family="Arial" font-size="14" font-weight="bold" lengthAdjust="spacing" textLength="158" x="1256.5" y="133.2305">Managed Data Service</text><text fill="#000000" font-family="Arial" font-size="14" font-weight="bold" lengthAdjust="spacing" textLength="180" x="1245.5" y="149.3291">&#171;execution environment&#187;</text></g><!--entity PaymentsApi--><g id="elem_PaymentsApi"><rect fill="#F1F1F1" height="55.1973" rx="2.5" ry="2.5" style="stroke:#181818;stroke-width:0.5;" width="117" x="604" y="163.5986"/><polygon fill="#F1F1F1" points="704,168.5986,704,182.5986,716,182.5986,716,174.5986,710,168.5986,704,168.5986" style="stroke:#181818;stroke-width:0.5;"/><line style="stroke:#181818;stroke-width:0.5;" x1="710" x2="710" y1="168.5986" y2="174.5986"/><line style="stroke:#181818;stroke-width:0.5;" x1="716" x2="710" y1="174.5986" y2="174.5986"/><text fill="#000000" font-family="Arial" font-size="14" lengthAdjust="spacing" textLength="87" x="614" y="189.7305">Payments API</text><text fill="#000000" font-family="Arial" font-size="14" lengthAdjust="spacing" textLength="48" x="614" y="205.8291">artefact</text></g><!--entity Orchestration--><g id="elem_Orchestration"><rect fill="#F1F1F1" height="55.1973" rx="2.5" ry="2.5" style="stroke:#181818;stroke-width:0.5;" width="175" x="811" y="163.5986"/><polygon fill="#F1F1F1" points="969,168.5986,969,182.5986,981,182.5986,981,174.5986,975,168.5986,969,168.5986" style="stroke:#181818;stroke-width:0.5;"/><line style="stroke:#181818;stroke-width:0.5;" x1="975" x2="975" y1="168.5986" y2="174.5986"/><line style="stroke:#181818;stroke-width:0.5;" x1="981" x2="975" y1="174.5986" y2="174.5986"/><text fill="#000000" font-family="Arial" font-size="14" lengthAdjust="spacing" textLength="145" x="821" y="189.7305">Payment Orchestration</text><text fill="#000000" font-family="Arial" font-size="14" lengthAdjust="spacing" textLength="99" x="821" y="205.8291">Service artefact</text></g><!--entity StatusStore--><g id="elem_StatusStore"><rect fill="#F1F1F1" height="55.1973" rx="2.5" ry="2.5" style="stroke:#181818;stroke-width:0.5;" width="129" x="1274.5" y="163.5986"/><polygon fill="#F1F1F1" points="1386.5,168.5986,1386.5,182.5986,1398.5,182.5986,1398.5,174.5986,1392.5,168.5986,1386.5,168.5986" style="stroke:#181818;stroke-width:0.5;"/><line style="stroke:#181818;stroke-width:0.5;" x1="1392.5" x2="1392.5" y1="168.5986" y2="174.5986"/><line style="stroke:#181818;stroke-width:0.5;" x1="1398.5" x2="1392.5" y1="174.5986" y2="174.5986"/><text fill="#000000" font-family="Arial" font-size="14" lengthAdjust="spacing" textLength="99" x="1284.5" y="189.7305">Payment Status</text><text fill="#000000" font-family="Arial" font-size="14" lengthAdjust="spacing" textLength="86" x="1284.5" y="205.8291">Store artefact</text></g><!--entity Device--><g id="elem_Device"><polygon fill="#F1F1F1" points="16,233.0986,26,223.0986,164,223.0986,164,275.2959,154,285.2959,16,285.2959,16,233.0986" style="stroke:#181818;stroke-width:0.5;"/><line style="stroke:#181818;stroke-width:0.5;" x1="154" x2="164" y1="233.0986" y2="223.0986"/><line style="stroke:#181818;stroke-width:0.5;" x1="16" x2="154" y1="233.0986" y2="233.0986"/><line style="stroke:#181818;stroke-width:0.5;" x1="154" x2="154" y1="233.0986" y2="285.2959"/><text fill="#000000" font-family="Arial" font-size="14" lengthAdjust="spacing" textLength="108" x="31" y="256.2305">Customer Device</text><text fill="#000000" font-family="Arial" font-size="14" lengthAdjust="spacing" textLength="57" x="31" y="272.3291">&#171;device&#187;</text></g><!--entity Edge--><g id="elem_Edge"><polygon fill="#F1F1F1" points="271,233.0986,281,223.0986,396,223.0986,396,275.2959,386,285.2959,271,285.2959,271,233.0986" style="stroke:#181818;stroke-width:0.5;"/><line style="stroke:#181818;stroke-width:0.5;" x1="386" x2="396" y1="233.0986" y2="223.0986"/><line style="stroke:#181818;stroke-width:0.5;" x1="271" x2="386" y1="233.0986" y2="233.0986"/><line style="stroke:#181818;stroke-width:0.5;" x1="386" x2="386" y1="233.0986" y2="285.2959"/><text fill="#000000" font-family="Arial" font-size="14" lengthAdjust="spacing" textLength="85" x="286" y="256.2305">Internet Edge</text><text fill="#000000" font-family="Arial" font-size="14" lengthAdjust="spacing" textLength="57" x="286" y="272.3291">&#171;device&#187;</text></g><!--entity FinancialCrime--><g id="elem_FinancialCrime"><polygon fill="#F1F1F1" points="1242,494.0986,1252,484.0986,1436,484.0986,1436,536.2959,1426,546.2959,1242,546.2959,1242,494.0986" style="stroke:#181818;stroke-width:0.5;"/><line style="stroke:#181818;stroke-width:0.5;" x1="1426" x2="1436" y1="494.0986" y2="484.0986"/><line style="stroke:#181818;stroke-width:0.5;" x1="1242" x2="1426" y1="494.0986" y2="494.0986"/><line style="stroke:#181818;stroke-width:0.5;" x1="1426" x2="1426" y1="494.0986" y2="546.2959"/><text fill="#000000" font-family="Arial" font-size="14" lengthAdjust="spacing" textLength="154" x="1257" y="517.2305">Financial Crime Platform</text><text fill="#000000" font-family="Arial" font-size="14" lengthAdjust="spacing" textLength="114" x="1257" y="533.3291">&#171;external system&#187;</text></g><!--entity Integration--><g id="elem_Integration"><polygon fill="#F1F1F1" points="1223,591.0986,1233,581.0986,1455,581.0986,1455,633.2959,1445,643.2959,1223,643.2959,1223,591.0986" style="stroke:#181818;stroke-width:0.5;"/><line style="stroke:#181818;stroke-width:0.5;" x1="1445" x2="1455" y1="591.0986" y2="581.0986"/><line style="stroke:#181818;stroke-width:0.5;" x1="1223" x2="1445" y1="591.0986" y2="591.0986"/><line style="stroke:#181818;stroke-width:0.5;" x1="1445" x2="1445" y1="591.0986" y2="643.2959"/><text fill="#000000" font-family="Arial" font-size="14" lengthAdjust="spacing" textLength="192" x="1238" y="614.2305">Enterprise Integration Platform</text><text fill="#000000" font-family="Arial" font-size="14" lengthAdjust="spacing" textLength="114" x="1238" y="630.3291">&#171;external system&#187;</text></g><!--entity EventPlatform--><g id="elem_EventPlatform"><polygon fill="#F1F1F1" points="1262,320.0986,1272,310.0986,1416,310.0986,1416,362.2959,1406,372.2959,1262,372.2959,1262,320.0986" style="stroke:#181818;stroke-width:0.5;"/><line style="stroke:#181818;stroke-width:0.5;" x1="1406" x2="1416" y1="320.0986" y2="310.0986"/><line style="stroke:#181818;stroke-width:0.5;" x1="1262" x2="1406" y1="320.0986" y2="320.0986"/><line style="stroke:#181818;stroke-width:0.5;" x1="1406" x2="1406" y1="320.0986" y2="372.2959"/><text fill="#000000" font-family="Arial" font-size="14" lengthAdjust="spacing" textLength="92" x="1277" y="343.2305">Event Platform</text><text fill="#000000" font-family="Arial" font-size="14" lengthAdjust="spacing" textLength="114" x="1277" y="359.3291">&#171;external system&#187;</text></g><g id="elem_GMN20"><path d="M1187,407.0986 L1187,449.2959 A0,0 0 0 0 1187,449.2959 L1491,449.2959 A0,0 0 0 0 1491,449.2959 L1491,417.0986 L1481,407.0986 L1343,407.0986 L1339,372.2586 L1335,407.0986 L1187,407.0986 A0,0 0 0 0 1187,407.0986 " fill="#FFF8DC" style="stroke:#666666;stroke-width:0.5;"/><path d="M1481,407.0986 L1481,417.0986 L1491,417.0986 L1481,407.0986 " fill="#FFF8DC" style="stroke:#666666;stroke-width:0.5;"/><text fill="#000000" font-family="Arial" font-size="14" lengthAdjust="spacing" textLength="228" x="1193" y="425.2305">Nodes are computational resources.</text><text fill="#000000" font-family="Arial" font-size="14" lengthAdjust="spacing" textLength="283" x="1193" y="441.3291">Artefacts are deployed implementation items.</text></g><!--link Device to Edge--><g id="link_Device_Edge"><path d="M164.11,254.0986 C198.13,254.0986 238.14,254.0986 270.63,254.0986 " fill="none" id="Device-Edge" style="stroke:#333333;stroke-width:1.2;"/><text fill="#000000" font-family="Arial" font-size="14" lengthAdjust="spacing" textLength="45" x="195" y="250.2305">HTTPS</text></g><!--link Edge to AppRuntime--><g id="link_Edge_AppRuntime"><path d="M396.01,254.0986 C442.63,254.0986 507.6725,254.0986 561.71,254.0986 C565.0873,254.0986 568.4217,254.0986 571.7059,254.0986 C573.348,254.0986 574.9775,254.0986 576.5936,254.0986 C577.4017,254.0986 578.2064,254.0986 579.0076,254.0986 " fill="none" id="Edge-AppRuntime" style="stroke:#333333;stroke-width:1.2;"/><text fill="#000000" font-family="Arial" font-size="14" lengthAdjust="spacing" textLength="104" x="427" y="250.2305">routes API traffic</text></g><!--link PaymentsApi to Orchestration--><g id="link_PaymentsApi_Orchestration"><path d="M721.04,191.0986 C748.11,191.0986 774.95,191.0986 804.93,191.0986 " fill="none" id="PaymentsApi-to-Orchestration" style="stroke:#333333;stroke-width:1.2;stroke-dasharray:7.0,7.0;"/><polygon fill="#333333" points="810.93,191.0986,801.93,187.0986,805.93,191.0986,801.93,195.0986,810.93,191.0986" style="stroke:#333333;stroke-width:1.2;"/><text fill="#000000" font-family="Arial" font-size="14" lengthAdjust="spacing" textLength="28" x="752" y="187.2305">calls</text></g><!--link Orchestration to StatusStore--><g id="link_Orchestration_StatusStore"><path d="M986.13,191.0986 C1071,191.0986 1192.32,191.0986 1268.28,191.0986 " fill="none" id="Orchestration-to-StatusStore" style="stroke:#333333;stroke-width:1.2;stroke-dasharray:7.0,7.0;"/><polygon fill="#333333" points="1274.28,191.0986,1265.28,187.0986,1269.28,191.0986,1265.28,195.0986,1274.28,191.0986" style="stroke:#333333;stroke-width:1.2;"/><text fill="#000000" font-family="Arial" font-size="14" lengthAdjust="spacing" textLength="90" x="1047" y="187.2305">records status</text></g><!--link Orchestration to FinancialCrime--><g id="link_Orchestration_FinancialCrime"><path d="M920.94,218.8986 C964.92,274.0986 1071.03,398.1486 1187,467.0986 C1203.79,477.0786 1222.88,485.2186 1241.7,491.7686 " fill="none" id="Orchestration-FinancialCrime" style="stroke:#333333;stroke-width:1.2;"/><text fill="#000000" font-family="Arial" font-size="14" lengthAdjust="spacing" textLength="114" x="1035" y="341.2305">screening request</text></g><!--link Orchestration to Integration--><g id="link_Orchestration_Integration"><path d="M907.83,218.9686 C924.65,271.5886 966.88,387.0786 1034,463.0986 C1084.57,520.3786 1162.17,557.9086 1226.31,580.9686 " fill="none" id="Orchestration-Integration" style="stroke:#333333;stroke-width:1.2;"/><text fill="#000000" font-family="Arial" font-size="14" lengthAdjust="spacing" textLength="98" x="1043" y="459.2305">posting request</text></g><!--link Orchestration to EventPlatform--><g id="link_Orchestration_EventPlatform"><path d="M979.93,218.6086 C1060.28,246.0986 1182.9,288.0386 1261.75,315.0186 " fill="none" id="Orchestration-EventPlatform" style="stroke:#333333;stroke-width:1.2;"/><text fill="#000000" font-family="Arial" font-size="14" lengthAdjust="spacing" textLength="84" x="1050" y="236.2305">publish event</text></g><!--SRC=[ZLHDRnen4BtxLqovGtAeL0b5I3Ga3OUsgEJ8nV4EowXUUskFKMcL_zwnTo5iKfLAU_0-l_VcS_STEMDJXJ2PNCaJ-M0nNhLMEqwD7VCE6voqSbJAufQ1FGIgTmmL1JHCtYacjWZtoq_Zw_VZwmyJUF21Vda77xNx3YjzQD1nX0MsrfSpB4ZNGJTAEI-HHxSficym26LF1ZVkvgOgfzbi13hsS4zUEiRWaE6kgjzICtYq7QOHV9LAleNtyWg_5K0dcBUj9QCB-YqvfgO4m9zeKW7HxIbubsleuucaPnOV01sOjjemZ4w5prVBZHCSCzv5xw_cBVrT15-3sM7aK9BPk3M6N2GCN0OSyNbMfqe-QwThh62XMKCllbHAvbwe1TQiEKN9XtrubKrtLIvABi_7CToJqywGjd0RilVAQjxwq7Jvv67ALJn4ngRFvAGeWjxcBi-z3HGHyWhKNTd_uNR6FbhjSosNbOLtf2dLhI6CnsNBO0eFZu-hjIel0fwjmXI2Junbz203scx9gBEXoySs6uvF94PR6zKGpRopncPZD3vK4M91Nz4bYs7lH11DG7JaQf7-IC9zgpdlvnHQ7_cVz45RiY0zMOexm8pdgJF2asVvf6KHlaZ7esmAWl5DcxYuIAC3Hf-2mJWHqhnVf8vObH-5R2yrhSNSiouqoMI4Zgw27ECF]--></g></svg>