<?xml version="1.0" encoding="us-ascii" standalone="no"?><svg xmlns="http://www.w3.org/2000/svg" xmlns:xlink="http://www.w3.org/1999/xlink" contentStyleType="text/css" height="728px" preserveAspectRatio="none" style="width:542px;height:728px;background:#FFFFFF;" version="1.1" viewBox="0 0 542 728" width="542px" zoomAndPan="magnify"><defs/><g><text fill="#000000" font-family="Arial" font-size="14" font-weight="bold" lengthAdjust="spacing" textLength="398" x="65" y="23.1318">FIG-21-01. Choosing the Right Security Architecture View</text><!--entity Start--><g id="elem_Start"><rect fill="#DCEAF7" height="52.1973" rx="5" ry="5" style="stroke:#333333;stroke-width:0.5;" width="127" x="7" y="354.5654"/><text fill="#111111" font-family="Arial" font-size="14" lengthAdjust="spacing" textLength="82" x="17" y="377.6973">Start with the</text><text fill="#111111" font-family="Arial" font-size="14" lengthAdjust="spacing" textLength="107" x="17" y="393.7959">security question</text></g><!--entity Context--><g id="elem_Context"><rect fill="#F5F7FA" height="36.0986" rx="5" ry="5" style="stroke:#333333;stroke-width:0.5;" width="120" x="379" y="65.5654"/><text fill="#111111" font-family="Arial" font-size="14" lengthAdjust="spacing" textLength="100" x="389" y="88.6973">Security context</text></g><!--entity Trust--><g id="elem_Trust"><rect fill="#F5F7FA" height="36.0986" rx="5" ry="5" style="stroke:#333333;stroke-width:0.5;" width="149" x="364.5" y="139.5654"/><text fill="#111111" font-family="Arial" font-size="14" lengthAdjust="spacing" textLength="129" x="374.5" y="162.6973">Trust-boundary view</text></g><!--entity Authn--><g id="elem_Authn"><rect fill="#F5F7FA" height="36.0986" rx="5" ry="5" style="stroke:#333333;stroke-width:0.5;" width="176" x="351" y="212.5654"/><text fill="#111111" font-family="Arial" font-size="14" lengthAdjust="spacing" textLength="156" x="361" y="235.6973">Authentication sequence</text></g><!--entity Authz--><g id="elem_Authz"><rect fill="#F5F7FA" height="36.0986" rx="5" ry="5" style="stroke:#333333;stroke-width:0.5;" width="194" x="342" y="283.5654"/><text fill="#111111" font-family="Arial" font-size="14" lengthAdjust="spacing" textLength="174" x="352" y="306.6973">Access-authorisation model</text></g><!--entity Threat--><g id="elem_Threat"><rect fill="#F5F7FA" height="52.1973" rx="5" ry="5" style="stroke:#333333;stroke-width:0.5;" width="138" x="370" y="354.5654"/><text fill="#111111" font-family="Arial" font-size="14" lengthAdjust="spacing" textLength="118" x="380" y="377.6973">Threat-model DFD</text><text fill="#111111" font-family="Arial" font-size="14" lengthAdjust="spacing" textLength="84" x="380" y="393.7959">or attack tree</text></g><!--entity Control--><g id="elem_Control"><rect fill="#F5F7FA" height="36.0986" rx="5" ry="5" style="stroke:#333333;stroke-width:0.5;" width="150" x="364" y="441.5654"/><text fill="#111111" font-family="Arial" font-size="14" lengthAdjust="spacing" textLength="130" x="374" y="464.6973">Security-control map</text></g><!--entity Privacy--><g id="elem_Privacy"><rect fill="#F5F7FA" height="52.1973" rx="5" ry="5" style="stroke:#333333;stroke-width:0.5;" width="127" x="375.5" y="512.5654"/><text fill="#111111" font-family="Arial" font-size="14" lengthAdjust="spacing" textLength="107" x="385.5" y="535.6973">Privacy data-flow</text><text fill="#111111" font-family="Arial" font-size="14" lengthAdjust="spacing" textLength="98" x="385.5" y="551.7959">or lifecycle view</text></g><!--entity Monitor--><g id="elem_Monitor"><rect fill="#F5F7FA" height="36.0986" rx="5" ry="5" style="stroke:#333333;stroke-width:0.5;" width="181" x="348.5" y="599.5654"/><text fill="#111111" font-family="Arial" font-size="14" lengthAdjust="spacing" textLength="161" x="358.5" y="622.6973">Audit and monitoring view</text></g><!--entity Clarify--><g id="elem_Clarify"><rect fill="#FFF2CC" height="52.1973" rx="5" ry="5" style="stroke:#333333;stroke-width:0.5;" width="168" x="355" y="670.5654"/><text fill="#111111" font-family="Arial" font-size="14" lengthAdjust="spacing" textLength="148" x="365" y="693.6973">Clarify asset, audience,</text><text fill="#111111" font-family="Arial" font-size="14" lengthAdjust="spacing" textLength="144" x="365" y="709.7959">boundary and decision</text></g><!--link Start to Context--><g id="link_Start_Context"><path d="M72.69,354.4854 C76.57,302.2554 93.16,184.8654 164,126.5654 C224.32,76.9154 312.2513,72.5675 372.9613,76.2975 " fill="none" id="Start-to-Context" style="stroke:#333333;stroke-width:1.0;"/><polygon fill="#333333" points="378.95,76.6654,370.2122,72.121,373.9594,76.3588,369.7216,80.106,378.95,76.6654" style="stroke:#333333;stroke-width:1.0;"/><text fill="#000000" font-family="Arial" font-size="14" lengthAdjust="spacing" textLength="104" x="186" y="57.6973">What is in scope</text><text fill="#000000" font-family="Arial" font-size="14" lengthAdjust="spacing" textLength="89" x="193.5" y="73.7959">and valuable?</text></g><!--link Start to Trust--><g id="link_Start_Trust"><path d="M77.13,354.3554 C87.16,314.4454 112.14,239.0954 164,201.5654 C195.22,178.9654 288.4682,167.8927 358.4982,162.4227 " fill="none" id="Start-to-Trust" style="stroke:#333333;stroke-width:1.0;"/><polygon fill="#333333" points="364.48,161.9554,355.1958,158.6684,359.4952,162.3448,355.8188,166.6441,364.48,161.9554" style="stroke:#333333;stroke-width:1.0;"/><text fill="#000000" font-family="Arial" font-size="14" lengthAdjust="spacing" textLength="77" x="199.5" y="148.6973">Where does</text><text fill="#000000" font-family="Arial" font-size="14" lengthAdjust="spacing" textLength="87" x="194.5" y="164.7959">trust change?</text></g><!--link Start to Authn--><g id="link_Start_Authn"><path d="M86.57,354.2854 C102.45,329.2054 129.86,292.5154 164,273.5654 C195.36,256.1554 277.0695,245.0397 344.8795,238.2897 " fill="none" id="Start-to-Authn" style="stroke:#333333;stroke-width:1.0;"/><polygon fill="#333333" points="350.85,237.6954,341.498,234.6066,345.8746,238.1907,342.2905,242.5672,350.85,237.6954" style="stroke:#333333;stroke-width:1.0;"/><text fill="#000000" font-family="Arial" font-size="14" lengthAdjust="spacing" textLength="89" x="193.5" y="223.6973">How is identity</text><text fill="#000000" font-family="Arial" font-size="14" lengthAdjust="spacing" textLength="80" x="198" y="239.7959">established?</text></g><!--link Start to Authz--><g id="link_Start_Authz"><path d="M133.08,354.4854 C143.29,350.7754 153.85,347.3054 164,344.5654 C222.11,328.8954 282.8483,319.0351 335.8883,312.2651 " fill="none" id="Start-to-Authz" style="stroke:#333333;stroke-width:1.0;"/><polygon fill="#333333" points="341.84,311.5054,332.406,308.6771,336.8802,312.1385,333.4189,316.6127,341.84,311.5054" style="stroke:#333333;stroke-width:1.0;"/><text fill="#000000" font-family="Arial" font-size="14" lengthAdjust="spacing" textLength="112" x="182" y="295.6973">Who may perform</text><text fill="#000000" font-family="Arial" font-size="14" lengthAdjust="spacing" textLength="85" x="195.5" y="311.7959">which action?</text></g><!--link Start to Threat--><g id="link_Start_Threat"><path d="M134.19,382.1054 C144.16,382.2954 154.36,382.4654 164,382.5654 C229.77,383.2754 246.22,383.0854 312,382.5654 C330.81,382.4154 345.2108,382.2412 364.0008,381.9412 " fill="none" id="Start-to-Threat" style="stroke:#333333;stroke-width:1.0;"/><polygon fill="#333333" points="370,381.8454,360.9373,377.9896,365.0006,381.9252,361.065,385.9886,370,381.8454" style="stroke:#333333;stroke-width:1.0;"/><text fill="#000000" font-family="Arial" font-size="14" lengthAdjust="spacing" textLength="122" x="177" y="362.6973">How could an asset</text><text fill="#000000" font-family="Arial" font-size="14" lengthAdjust="spacing" textLength="76" x="200" y="378.7959">be harmed?</text></g><!--link Start to Control--><g id="link_Start_Control"><path d="M117.83,406.7954 C132.23,413.9254 148.42,420.9454 164,425.5654 C229.95,445.1154 302.072,453.0463 357.982,456.5863 " fill="none" id="Start-to-Control" style="stroke:#333333;stroke-width:1.0;"/><polygon fill="#333333" points="363.97,456.9654,355.2407,452.4047,358.98,456.6495,354.7352,460.3887,363.97,456.9654" style="stroke:#333333;stroke-width:1.0;"/><text fill="#000000" font-family="Arial" font-size="14" lengthAdjust="spacing" textLength="93" x="191.5" y="405.6973">Which controls</text><text fill="#000000" font-family="Arial" font-size="14" lengthAdjust="spacing" textLength="109" x="183.5" y="421.7959">address the risk?</text></g><!--link Start to Privacy--><g id="link_Start_Privacy"><path d="M84.94,406.7854 C100.23,433.7454 127.85,474.6454 164,495.5654 C229.12,533.2454 310.8201,540.9167 369.2801,541.1967 " fill="none" id="Start-to-Privacy" style="stroke:#333333;stroke-width:1.0;"/><polygon fill="#333333" points="375.28,541.2254,366.2993,537.1824,370.2801,541.2015,366.2609,545.1823,375.28,541.2254" style="stroke:#333333;stroke-width:1.0;"/><text fill="#000000" font-family="Arial" font-size="14" lengthAdjust="spacing" textLength="99" x="188.5" y="475.6973">How is personal</text><text fill="#000000" font-family="Arial" font-size="14" lengthAdjust="spacing" textLength="91" x="192.5" y="491.7959">data handled?</text></g><!--link Start to Monitor--><g id="link_Start_Monitor"><path d="M75.55,406.9154 C83.76,450.5454 106.72,537.2054 164,579.5654 C216.51,618.3954 284.5605,626.7732 342.4405,626.0232 " fill="none" id="Start-to-Monitor" style="stroke:#333333;stroke-width:1.0;"/><polygon fill="#333333" points="348.44,625.9454,339.3889,622.0624,343.4404,626.0102,339.4926,630.0617,348.44,625.9454" style="stroke:#333333;stroke-width:1.0;"/><text fill="#000000" font-family="Arial" font-size="14" lengthAdjust="spacing" textLength="146" x="165" y="559.6973">What must be detected</text><text fill="#000000" font-family="Arial" font-size="14" lengthAdjust="spacing" textLength="107" x="184.5" y="575.7959">and acted upon?</text></g><!--link Start to Clarify--><g id="link_Start_Clarify"><path d="M72.04,406.6154 C74.69,461.2854 89.05,588.1354 164,651.5654 C216.35,695.8654 289.1205,704.9039 348.7905,704.1239 " fill="none" id="Start-to-Clarify" style="stroke:#333333;stroke-width:1.0;"/><polygon fill="#333333" points="354.79,704.0454,345.7385,700.1634,349.7904,704.1108,345.8431,708.1627,354.79,704.0454" style="stroke:#333333;stroke-width:1.0;"/><text fill="#000000" font-family="Arial" font-size="14" lengthAdjust="spacing" textLength="81" x="197.5" y="647.6973">Still unclear?</text></g><!--SRC=[RLJ1RjGm4BtlLupQQuEw1LIf1web9S01X5e4broczkp6gcClOwSXHVmxOsUp9D2S4i-RcJVlZHDDj0JLn_V5nReuNx-0il4-6BU3s13ScbqJuOvKnoOEi67Lc4WgTapmpL2_2W_6xP6nXNjK3plsdTEbjvxXjChF3A5fYvsDbNVnCxOarGpQv-DtvebW_MeM30rgtoTUMxI1Pf4Di-yFFL_cPnPa8Ojk9oF-MW6y_O_Zw-gosgI8Pqsyh0AGg1pErlcHizindHqnhCzNlrUMjX6Y1yvQQPDQ6kzMVrkVt4Na2Bs9JLArTc4Iz4T78O5F00ECgDERyjsckboaJt0bVEXdpEXoV9_Zld8NOd6V228Fy2W6PMW-dmCtdT1mqIXCpI6Gy72ACZZ55kGtIb481SgvPnF6bDPhiaVyqu95muIno0YugMvg9_fXZA8zHAQnomXwRiWY3SdUGelxuw3oFST-OVE8QW2D4OkjzNtkOSsMrA04S9py05pEhaq4T5fcS2RAIB9JnuHFuzayeRJ8PZj8D50y0vJy9DPPxOvAfsgQb0cJbLDEkWGNPRaQhIsADvDjS0NV6unW0XWnGFczh4KgyuYsmtjBrxESx5_E8BbtsbEeHP9qfXeXkS1c-mJxmVUvk4u-nw5sicXIruI6zB_ufrpRY-83x8ctdjlQzOrH3M3UvGMPxDoXW_ATrJB-A8ueGj0WjyiM1mDparJpOB0CWLgpx5R-rSXgFSop9e-FemYpu1tQsYNRfO_JTjdeODwaRPiK4aQQqY-Bz2WmfbVezikf9iEkv1OQQw5piaV8rty0]--></g></svg>