<?xml version="1.0" encoding="us-ascii" standalone="no"?><svg xmlns="http://www.w3.org/2000/svg" xmlns:xlink="http://www.w3.org/1999/xlink" contentStyleType="text/css" height="789px" preserveAspectRatio="none" style="width:1627px;height:789px;background:#FFFFFF;" version="1.1" viewBox="0 0 1627 789" width="1627px" zoomAndPan="magnify"><defs/><g><text fill="#000000" font-family="Arial" font-size="14" font-weight="bold" lengthAdjust="spacing" textLength="451" x="589" y="28.1318">FIG-04-04. Horizon Bank Payment Submission Sequence Diagram</text><rect fill="#FFFFFF" height="513.8247" style="stroke:#181818;stroke-width:1.0;" width="10" x="489.5" y="152.3945"/><rect fill="#FFFFFF" height="442.5781" style="stroke:#181818;stroke-width:1.0;" width="10" x="678.5" y="182.4932"/><rect fill="#FFFFFF" height="412.4795" style="stroke:#181818;stroke-width:1.0;" width="10" x="853.5" y="212.5918"/><rect fill="#FFFFFF" height="30.0986" style="stroke:#181818;stroke-width:1.0;" width="10" x="1001.5" y="242.6904"/><rect fill="#FFFFFF" height="90.2959" style="stroke:#181818;stroke-width:1.0;" width="10" x="1142.5" y="329.085"/><rect fill="#FFFFFF" height="30.0986" style="stroke:#181818;stroke-width:1.0;" width="10" x="1319.5" y="359.1836"/><rect fill="none" height="308.1836" style="stroke:#000000;stroke-width:1.5;" width="997" x="623" y="287.7891"/><line style="stroke:#181818;stroke-width:0.5;stroke-dasharray:5.0,5.0;" x1="331" x2="331" y1="120.2959" y2="695.2686"/><line style="stroke:#181818;stroke-width:0.5;stroke-dasharray:5.0,5.0;" x1="494.5" x2="494.5" y1="120.2959" y2="695.2686"/><line style="stroke:#181818;stroke-width:0.5;stroke-dasharray:5.0,5.0;" x1="683" x2="683" y1="120.2959" y2="695.2686"/><line style="stroke:#181818;stroke-width:0.5;stroke-dasharray:5.0,5.0;" x1="858" x2="858" y1="120.2959" y2="695.2686"/><line style="stroke:#181818;stroke-width:0.5;stroke-dasharray:5.0,5.0;" x1="1006.5" x2="1006.5" y1="120.2959" y2="695.2686"/><line style="stroke:#181818;stroke-width:0.5;stroke-dasharray:5.0,5.0;" x1="1147.5" x2="1147.5" y1="120.2959" y2="695.2686"/><line style="stroke:#181818;stroke-width:0.5;stroke-dasharray:5.0,5.0;" x1="1324" x2="1324" y1="120.2959" y2="695.2686"/><line style="stroke:#181818;stroke-width:0.5;stroke-dasharray:5.0,5.0;" x1="1435" x2="1435" y1="120.2959" y2="695.2686"/><line style="stroke:#181818;stroke-width:0.5;stroke-dasharray:5.0,5.0;" x1="1554" x2="1554" y1="120.2959" y2="695.2686"/><text fill="#000000" font-family="Arial" font-size="14" lengthAdjust="spacing" textLength="101" x="278" y="117.3291">Retail Customer</text><ellipse cx="331.5" cy="52.6973" fill="#FFFFFF" rx="8" ry="8" style="stroke:#333333;stroke-width:0.5;"/><path d="M331.5,60.6973 L331.5,87.6973 M318.5,68.6973 L344.5,68.6973 M331.5,87.6973 L318.5,102.6973 M331.5,87.6973 L344.5,102.6973 " fill="none" style="stroke:#333333;stroke-width:0.5;"/><text fill="#000000" font-family="Arial" font-size="14" lengthAdjust="spacing" textLength="101" x="278" y="707.4004">Retail Customer</text><ellipse cx="331.5" cy="718.8672" fill="#FFFFFF" rx="8" ry="8" style="stroke:#333333;stroke-width:0.5;"/><path d="M331.5,726.8672 L331.5,753.8672 M318.5,734.8672 L344.5,734.8672 M331.5,753.8672 L318.5,768.8672 M331.5,753.8672 L344.5,768.8672 " fill="none" style="stroke:#333333;stroke-width:0.5;"/><rect fill="#E2E2F0" height="46.1973" rx="2.5" ry="2.5" style="stroke:#181818;stroke-width:0.5;" width="104" x="442.5" y="73.0986"/><text fill="#000000" font-family="Arial" font-size="14" lengthAdjust="spacing" textLength="90" x="449.5" y="93.2305">Horizon Digital</text><text fill="#000000" font-family="Arial" font-size="14" lengthAdjust="spacing" textLength="60" x="464.5" y="109.3291">Channels</text><rect fill="#E2E2F0" height="46.1973" rx="2.5" ry="2.5" style="stroke:#181818;stroke-width:0.5;" width="104" x="442.5" y="694.2686"/><text fill="#000000" font-family="Arial" font-size="14" lengthAdjust="spacing" textLength="90" x="449.5" y="714.4004">Horizon Digital</text><text fill="#000000" font-family="Arial" font-size="14" lengthAdjust="spacing" textLength="60" x="464.5" y="730.499">Channels</text><rect fill="#E2E2F0" height="30.0986" rx="2.5" ry="2.5" style="stroke:#181818;stroke-width:0.5;" width="101" x="633" y="89.1973"/><text fill="#000000" font-family="Arial" font-size="14" lengthAdjust="spacing" textLength="87" x="640" y="109.3291">Payments API</text><rect fill="#E2E2F0" height="30.0986" rx="2.5" ry="2.5" style="stroke:#181818;stroke-width:0.5;" width="101" x="633" y="694.2686"/><text fill="#000000" font-family="Arial" font-size="14" lengthAdjust="spacing" textLength="87" x="640" y="714.4004">Payments API</text><rect fill="#E2E2F0" height="46.1973" rx="2.5" ry="2.5" style="stroke:#181818;stroke-width:0.5;" width="159" x="779" y="73.0986"/><text fill="#000000" font-family="Arial" font-size="14" lengthAdjust="spacing" textLength="145" x="786" y="93.2305">Payment Orchestration</text><text fill="#000000" font-family="Arial" font-size="14" lengthAdjust="spacing" textLength="47" x="835" y="109.3291">Service</text><rect fill="#E2E2F0" height="46.1973" rx="2.5" ry="2.5" style="stroke:#181818;stroke-width:0.5;" width="159" x="779" y="694.2686"/><text fill="#000000" font-family="Arial" font-size="14" lengthAdjust="spacing" textLength="145" x="786" y="714.4004">Payment Orchestration</text><text fill="#000000" font-family="Arial" font-size="14" lengthAdjust="spacing" textLength="47" x="835" y="730.499">Service</text><rect fill="#E2E2F0" height="46.1973" rx="2.5" ry="2.5" style="stroke:#181818;stroke-width:0.5;" width="112" x="950.5" y="73.0986"/><text fill="#000000" font-family="Arial" font-size="14" lengthAdjust="spacing" textLength="98" x="957.5" y="93.2305">Financial Crime</text><text fill="#000000" font-family="Arial" font-size="14" lengthAdjust="spacing" textLength="52" x="980.5" y="109.3291">Platform</text><rect fill="#E2E2F0" height="46.1973" rx="2.5" ry="2.5" style="stroke:#181818;stroke-width:0.5;" width="112" x="950.5" y="694.2686"/><text fill="#000000" font-family="Arial" font-size="14" lengthAdjust="spacing" textLength="98" x="957.5" y="714.4004">Financial Crime</text><text fill="#000000" font-family="Arial" font-size="14" lengthAdjust="spacing" textLength="52" x="980.5" y="730.499">Platform</text><rect fill="#E2E2F0" height="46.1973" rx="2.5" ry="2.5" style="stroke:#181818;stroke-width:0.5;" width="150" x="1072.5" y="73.0986"/><text fill="#000000" font-family="Arial" font-size="14" lengthAdjust="spacing" textLength="136" x="1079.5" y="93.2305">Enterprise Integration</text><text fill="#000000" font-family="Arial" font-size="14" lengthAdjust="spacing" textLength="52" x="1121.5" y="109.3291">Platform</text><rect fill="#E2E2F0" height="46.1973" rx="2.5" ry="2.5" style="stroke:#181818;stroke-width:0.5;" width="150" x="1072.5" y="694.2686"/><text fill="#000000" font-family="Arial" font-size="14" lengthAdjust="spacing" textLength="136" x="1079.5" y="714.4004">Enterprise Integration</text><text fill="#000000" font-family="Arial" font-size="14" lengthAdjust="spacing" textLength="52" x="1121.5" y="730.499">Platform</text><rect fill="#E2E2F0" height="46.1973" rx="2.5" ry="2.5" style="stroke:#181818;stroke-width:0.5;" width="97" x="1276" y="73.0986"/><text fill="#000000" font-family="Arial" font-size="14" lengthAdjust="spacing" textLength="83" x="1283" y="93.2305">Core Deposit</text><text fill="#000000" font-family="Arial" font-size="14" lengthAdjust="spacing" textLength="46" x="1301.5" y="109.3291">System</text><rect fill="#E2E2F0" height="46.1973" rx="2.5" ry="2.5" style="stroke:#181818;stroke-width:0.5;" width="97" x="1276" y="694.2686"/><text fill="#000000" font-family="Arial" font-size="14" lengthAdjust="spacing" textLength="83" x="1283" y="714.4004">Core Deposit</text><text fill="#000000" font-family="Arial" font-size="14" lengthAdjust="spacing" textLength="46" x="1301.5" y="730.499">System</text><text fill="#000000" font-family="Arial" font-size="14" lengthAdjust="spacing" textLength="99" x="1383" y="101.2305">Payment Status</text><text fill="#000000" font-family="Arial" font-size="14" lengthAdjust="spacing" textLength="34" x="1415.5" y="117.3291">Store</text><path d="M1417.5,52.0986 C1417.5,42.0986 1435.5,42.0986 1435.5,42.0986 C1435.5,42.0986 1453.5,42.0986 1453.5,52.0986 L1453.5,78.0986 C1453.5,88.0986 1435.5,88.0986 1435.5,88.0986 C1435.5,88.0986 1417.5,88.0986 1417.5,78.0986 L1417.5,52.0986 " fill="#F2F5F7" style="stroke:#333333;stroke-width:1.5;"/><path d="M1417.5,52.0986 C1417.5,62.0986 1435.5,62.0986 1435.5,62.0986 C1435.5,62.0986 1453.5,62.0986 1453.5,52.0986 " fill="none" style="stroke:#333333;stroke-width:1.5;"/><text fill="#000000" font-family="Arial" font-size="14" lengthAdjust="spacing" textLength="99" x="1383" y="707.4004">Payment Status</text><text fill="#000000" font-family="Arial" font-size="14" lengthAdjust="spacing" textLength="34" x="1415.5" y="723.499">Store</text><path d="M1417.5,736.4658 C1417.5,726.4658 1435.5,726.4658 1435.5,726.4658 C1435.5,726.4658 1453.5,726.4658 1453.5,736.4658 L1453.5,762.4658 C1453.5,772.4658 1435.5,772.4658 1435.5,772.4658 C1435.5,772.4658 1417.5,772.4658 1417.5,762.4658 L1417.5,736.4658 " fill="#F2F5F7" style="stroke:#333333;stroke-width:1.5;"/><path d="M1417.5,736.4658 C1417.5,746.4658 1435.5,746.4658 1435.5,746.4658 C1435.5,746.4658 1453.5,746.4658 1453.5,736.4658 " fill="none" style="stroke:#333333;stroke-width:1.5;"/><path d="M1503,94.1973 L1605,94.1973 C1610,94.1973 1610,107.2466 1610,107.2466 C1610,107.2466 1610,120.2959 1605,120.2959 L1503,120.2959 C1498,120.2959 1498,107.2466 1498,107.2466 C1498,107.2466 1498,94.1973 1503,94.1973 " fill="#E2E2F0" style="stroke:#181818;stroke-width:0.5;"/><path d="M1605,94.1973 C1600,94.1973 1600,107.2466 1600,107.2466 C1600,120.2959 1605,120.2959 1605,120.2959 " fill="none" style="stroke:#181818;stroke-width:0.5;"/><text fill="#000000" font-family="Arial" font-size="14" lengthAdjust="spacing" textLength="92" x="1503" y="112.3291">Event Platform</text><path d="M1503,694.2686 L1605,694.2686 C1610,694.2686 1610,707.3179 1610,707.3179 C1610,707.3179 1610,720.3672 1605,720.3672 L1503,720.3672 C1498,720.3672 1498,707.3179 1498,707.3179 C1498,707.3179 1498,694.2686 1503,694.2686 " fill="#E2E2F0" style="stroke:#181818;stroke-width:0.5;"/><path d="M1605,694.2686 C1600,694.2686 1600,707.3179 1600,707.3179 C1600,720.3672 1605,720.3672 1605,720.3672 " fill="none" style="stroke:#181818;stroke-width:0.5;"/><text fill="#000000" font-family="Arial" font-size="14" lengthAdjust="spacing" textLength="92" x="1503" y="712.4004">Event Platform</text><rect fill="#FFFFFF" height="513.8247" style="stroke:#181818;stroke-width:1.0;" width="10" x="489.5" y="152.3945"/><rect fill="#FFFFFF" height="442.5781" style="stroke:#181818;stroke-width:1.0;" width="10" x="678.5" y="182.4932"/><rect fill="#FFFFFF" height="412.4795" style="stroke:#181818;stroke-width:1.0;" width="10" x="853.5" y="212.5918"/><rect fill="#FFFFFF" height="30.0986" style="stroke:#181818;stroke-width:1.0;" width="10" x="1001.5" y="242.6904"/><rect fill="#FFFFFF" height="90.2959" style="stroke:#181818;stroke-width:1.0;" width="10" x="1142.5" y="329.085"/><rect fill="#FFFFFF" height="30.0986" style="stroke:#181818;stroke-width:1.0;" width="10" x="1319.5" y="359.1836"/><polygon fill="#333333" points="477.5,148.3945,487.5,152.3945,477.5,156.3945,481.5,152.3945" style="stroke:#333333;stroke-width:1.0;"/><line style="stroke:#333333;stroke-width:1.2;" x1="331.5" x2="483.5" y1="152.3945" y2="152.3945"/><text fill="#000000" font-family="Arial" font-size="14" lengthAdjust="spacing" textLength="101" x="338.5" y="147.4277">Submit payment</text><polygon fill="#333333" points="666.5,178.4932,676.5,182.4932,666.5,186.4932,670.5,182.4932" style="stroke:#333333;stroke-width:1.0;"/><line style="stroke:#333333;stroke-width:1.2;" x1="499.5" x2="672.5" y1="182.4932" y2="182.4932"/><text fill="#000000" font-family="Arial" font-size="14" lengthAdjust="spacing" textLength="160" x="506.5" y="177.5264">Send payment instruction</text><polygon fill="#333333" points="841.5,208.5918,851.5,212.5918,841.5,216.5918,845.5,212.5918" style="stroke:#333333;stroke-width:1.0;"/><line style="stroke:#333333;stroke-width:1.2;" x1="688.5" x2="847.5" y1="212.5918" y2="212.5918"/><text fill="#000000" font-family="Arial" font-size="14" lengthAdjust="spacing" textLength="101" x="695.5" y="207.625">Create payment</text><polygon fill="#333333" points="989.5,238.6904,999.5,242.6904,989.5,246.6904,993.5,242.6904" style="stroke:#333333;stroke-width:1.0;"/><line style="stroke:#333333;stroke-width:1.2;" x1="863.5" x2="995.5" y1="242.6904" y2="242.6904"/><text fill="#000000" font-family="Arial" font-size="14" lengthAdjust="spacing" textLength="119" x="870.5" y="237.7236">Request screening</text><polygon fill="#333333" points="874.5,268.7891,864.5,272.7891,874.5,276.7891,870.5,272.7891" style="stroke:#333333;stroke-width:1.0;"/><line style="stroke:#333333;stroke-width:1.2;stroke-dasharray:2.0,2.0;" x1="868.5" x2="1005.5" y1="272.7891" y2="272.7891"/><text fill="#000000" font-family="Arial" font-size="14" lengthAdjust="spacing" textLength="103" x="880.5" y="267.8223">Screening result</text><path d="M623,287.7891 L685,287.7891 L685,295.8877 L675,305.8877 L623,305.8877 L623,287.7891 " fill="#EEEEEE" style="stroke:#000000;stroke-width:1.5;"/><rect fill="none" height="308.1836" style="stroke:#000000;stroke-width:1.5;" width="997" x="623" y="287.7891"/><text fill="#000000" font-family="Arial" font-size="14" font-weight="bold" lengthAdjust="spacing" textLength="17" x="638" y="301.9209">alt</text><text fill="#000000" font-family="Arial" font-size="14" font-weight="bold" lengthAdjust="spacing" textLength="136" x="700" y="302.9209">[screening passed]</text><polygon fill="#333333" points="1130.5,325.085,1140.5,329.085,1130.5,333.085,1134.5,329.085" style="stroke:#333333;stroke-width:1.0;"/><line style="stroke:#333333;stroke-width:1.2;" x1="863.5" x2="1136.5" y1="329.085" y2="329.085"/><text fill="#000000" font-family="Arial" font-size="14" lengthAdjust="spacing" textLength="157" x="870.5" y="324.1182">Request account posting</text><polygon fill="#333333" points="1307.5,355.1836,1317.5,359.1836,1307.5,363.1836,1311.5,359.1836" style="stroke:#333333;stroke-width:1.0;"/><line style="stroke:#333333;stroke-width:1.2;" x1="1152.5" x2="1313.5" y1="359.1836" y2="359.1836"/><text fill="#000000" font-family="Arial" font-size="14" lengthAdjust="spacing" textLength="148" x="1159.5" y="354.2168">Post accepted payment</text><polygon fill="#333333" points="1163.5,385.2822,1153.5,389.2822,1163.5,393.2822,1159.5,389.2822" style="stroke:#333333;stroke-width:1.0;"/><line style="stroke:#333333;stroke-width:1.2;stroke-dasharray:2.0,2.0;" x1="1157.5" x2="1323.5" y1="389.2822" y2="389.2822"/><text fill="#000000" font-family="Arial" font-size="14" lengthAdjust="spacing" textLength="86" x="1169.5" y="384.3154">Posting result</text><polygon fill="#333333" points="874.5,415.3809,864.5,419.3809,874.5,423.3809,870.5,419.3809" style="stroke:#333333;stroke-width:1.0;"/><line style="stroke:#333333;stroke-width:1.2;stroke-dasharray:2.0,2.0;" x1="868.5" x2="1146.5" y1="419.3809" y2="419.3809"/><text fill="#000000" font-family="Arial" font-size="14" lengthAdjust="spacing" textLength="109" x="880.5" y="414.4141">Posting accepted</text><polygon fill="#333333" points="1423.5,445.4795,1433.5,449.4795,1423.5,453.4795,1427.5,449.4795" style="stroke:#333333;stroke-width:1.0;"/><line style="stroke:#333333;stroke-width:1.2;" x1="863.5" x2="1429.5" y1="449.4795" y2="449.4795"/><text fill="#000000" font-family="Arial" font-size="14" lengthAdjust="spacing" textLength="150" x="870.5" y="444.5127">Record accepted status</text><line style="stroke:#333333;stroke-width:1.2;" x1="1552" x2="1542" y1="479.5781" y2="475.5781"/><line style="stroke:#333333;stroke-width:1.2;" x1="1552" x2="1542" y1="479.5781" y2="483.5781"/><line style="stroke:#333333;stroke-width:1.2;" x1="863.5" x2="1553" y1="479.5781" y2="479.5781"/><text fill="#000000" font-family="Arial" font-size="14" lengthAdjust="spacing" textLength="164" x="870.5" y="474.6113">Publish PaymentAccepted</text><polygon fill="#333333" points="699.5,505.6768,689.5,509.6768,699.5,513.6768,695.5,509.6768" style="stroke:#333333;stroke-width:1.0;"/><line style="stroke:#333333;stroke-width:1.2;stroke-dasharray:2.0,2.0;" x1="693.5" x2="852.5" y1="509.6768" y2="509.6768"/><text fill="#000000" font-family="Arial" font-size="14" lengthAdjust="spacing" textLength="117" x="705.5" y="504.71">Payment accepted</text><line style="stroke:#000000;stroke-width:1.0;stroke-dasharray:2.0,2.0;" x1="623" x2="1620" y1="518.6768" y2="518.6768"/><text fill="#000000" font-family="Arial" font-size="14" font-weight="bold" lengthAdjust="spacing" textLength="243" x="628" y="531.8086">[screening failed or posting failed]</text><polygon fill="#333333" points="1423.5,553.874,1433.5,557.874,1423.5,561.874,1427.5,557.874" style="stroke:#333333;stroke-width:1.0;"/><line style="stroke:#333333;stroke-width:1.2;" x1="863.5" x2="1429.5" y1="557.874" y2="557.874"/><text fill="#000000" font-family="Arial" font-size="14" lengthAdjust="spacing" textLength="198" x="870.5" y="552.9072">Record rejected or failed status</text><polygon fill="#333333" points="699.5,583.9727,689.5,587.9727,699.5,591.9727,695.5,587.9727" style="stroke:#333333;stroke-width:1.0;"/><line style="stroke:#333333;stroke-width:1.2;stroke-dasharray:2.0,2.0;" x1="693.5" x2="852.5" y1="587.9727" y2="587.9727"/><text fill="#000000" font-family="Arial" font-size="14" lengthAdjust="spacing" textLength="141" x="705.5" y="583.0059">Payment not accepted</text><polygon fill="#333333" points="510.5,621.0713,500.5,625.0713,510.5,629.0713,506.5,625.0713" style="stroke:#333333;stroke-width:1.0;"/><line style="stroke:#333333;stroke-width:1.2;stroke-dasharray:2.0,2.0;" x1="504.5" x2="682.5" y1="625.0713" y2="625.0713"/><text fill="#000000" font-family="Arial" font-size="14" lengthAdjust="spacing" textLength="143" x="516.5" y="620.1045">Return payment status</text><polygon fill="#333333" points="342.5,662.2192,332.5,666.2192,342.5,670.2192,338.5,666.2192" style="stroke:#333333;stroke-width:1.0;"/><line style="stroke:#333333;stroke-width:1.2;stroke-dasharray:2.0,2.0;" x1="336.5" x2="493.5" y1="666.2192" y2="666.2192"/><text fill="#000000" font-family="Arial" font-size="14" lengthAdjust="spacing" textLength="134" x="348.5" y="661.2524">Show payment status</text><path d="M5,638.0713 L5,680.0713 L327,680.0713 L327,648.0713 L317,638.0713 L5,638.0713 " fill="#FFF8DC" style="stroke:#666666;stroke-width:0.5;"/><path d="M317,638.0713 L317,648.0713 L327,648.0713 L317,638.0713 " fill="#FFF8DC" style="stroke:#666666;stroke-width:0.5;"/><text fill="#000000" font-family="Arial" font-size="14" lengthAdjust="spacing" textLength="189" x="11" y="656.2031">One interaction scenario only.</text><text fill="#000000" font-family="Arial" font-size="14" lengthAdjust="spacing" textLength="301" x="11" y="672.3018">Settlement, repair and retry paths are excluded.</text><!--SRC=[ZLLDRzim3BthLt0zB-aEE_LGe4lRhQS5pRKNHcOJRJBbINItxDUFybUi9Yq664WiyJq-yedo1yVMjnN1SdcfJvA3ftJPU6HfQx-GFTMqRFIlCUB44zm_V5ry-gpF4hw5wFu6XY_8Fs6DXvfOODDkQvUIq_KD_Mg9BS6jmrt4sXYq4Y9SF9AWyx1gauIQuWLWcbvCWr6STOqgW8innQtREK7_nAizCfDFFMPuAJ63aWGtwuSkJ7_FHi3tQFUK9AAet2VUK7nnbZfCiLMYxnqZMuTQG7GrFV7Qepo7M7V0QRVRB95tB1IRw1B1W_xTZOaBWjbEYLw5gAsa9YGdAlQGX7f4tZ0L2cvHcQVgDeBI9etKdlT5zIlTkr5hMWs-UycXXO1kQLmnPZG65jTJm-6gzrcWwPDbPzqB2XqzcM8Lfmva274r0i2nThUrNPaJE3kLOnLI6A3WLQGSSPAlDAf4AKrfX_8yvaEP19ADHEnuTwHwPTqhwEACgCr80f5IwyLKz1QRGJzBgdMaH9K1E54yytyc5wqDhRPDtPSi6c1AD3ymKC2pO_dGNC4wz1pK24qUp4cwCmHz-E94nRhFEbO9CAjpG1PvpxHgf1X5b2Hb3ISzcHtShYSsnEfOJkfsp-2koxESLRHRxz9-lArkZc9UOQT3EqxJf5kFDCsCVDQRJ3NejJPOCwpyTncHVf2Ldc8WUwkW4r4SviAuCltqb9EgjsqRUHgyWNpM_7A4PXjv78zZd5d7kq2F_ZxyVeTpkWQCQYJO1b5WheX9Hr-lGUn6Nnj9ZD452EmFImtOaEXd9hD-rDOqw28Wvov9F6W-sIT0RH_zwJvRrJANdVj0_m00]--></g></svg>