<?xml version="1.0" encoding="us-ascii" standalone="no"?><svg xmlns="http://www.w3.org/2000/svg" xmlns:xlink="http://www.w3.org/1999/xlink" contentStyleType="text/css" height="1009px" preserveAspectRatio="none" style="width:1656px;height:1009px;background:#FFFFFF;" version="1.1" viewBox="0 0 1656 1009" width="1656px" zoomAndPan="magnify"><defs/><g><text fill="#000000" font-family="Arial" font-size="14" font-weight="bold" lengthAdjust="spacing" textLength="479" x="581.5" y="23.1318">FIG-31-01: From BIAN reference concepts to implementation choices</text><!--cluster BIAN logical reference--><g id="cluster_BIAN logical reference"><path d="M894.5,43.0986 L1052.5,43.0986 A3.75,3.75 0 0 1 1055,45.5986 L1062,65.1973 L1153.5,65.1973 A2.5,2.5 0 0 1 1156,67.6973 L1156,642.5986 A2.5,2.5 0 0 1 1153.5,645.0986 L894.5,645.0986 A2.5,2.5 0 0 1 892,642.5986 L892,45.5986 A2.5,2.5 0 0 1 894.5,43.0986 " fill="#EAF2F8" style="stroke:#000000;stroke-width:1.5;"/><line style="stroke:#000000;stroke-width:1.5;" x1="892" x2="1062" y1="65.1973" y2="65.1973"/><text fill="#000000" font-family="Arial" font-size="14" font-weight="bold" lengthAdjust="spacing" textLength="157" x="896" y="58.2305">BIAN logical reference</text></g><!--cluster Bank-specific implementation choices--><g id="cluster_Bank-specific implementation choices"><path d="M8.5,420.0986 L275.5,420.0986 A3.75,3.75 0 0 1 278,422.5986 L285,442.1973 L285.5,442.1973 A2.5,2.5 0 0 1 288,444.6973 L288,926.5986 A2.5,2.5 0 0 1 285.5,929.0986 L8.5,929.0986 A2.5,2.5 0 0 1 6,926.5986 L6,422.5986 A2.5,2.5 0 0 1 8.5,420.0986 " fill="#E2F0D9" style="stroke:#000000;stroke-width:1.5;"/><line style="stroke:#000000;stroke-width:1.5;" x1="6" x2="285" y1="442.1973" y2="442.1973"/><text fill="#000000" font-family="Arial" font-size="14" font-weight="bold" lengthAdjust="spacing" textLength="266" x="10" y="435.2305">Bank-specific implementation choices</text></g><!--entity SL--><g id="elem_SL"><rect fill="#F7F9FB" height="52.1973" rx="6" ry="6" style="stroke:#333333;stroke-width:0.5;" width="179" x="960.5" y="78.0986"/><text fill="#000000" font-family="Arial" font-size="14" lengthAdjust="spacing" textLength="121" x="989.5" y="101.2305">Service Landscape</text><text fill="#000000" font-family="Arial" font-size="14" lengthAdjust="spacing" textLength="159" x="970.5" y="117.3291">organises responsibilities</text></g><!--entity BS--><g id="elem_BS"><rect fill="#F7F9FB" height="52.1973" rx="6" ry="6" style="stroke:#333333;stroke-width:0.5;" width="165" x="973.5" y="191.0986"/><text fill="#000000" font-family="Arial" font-size="14" lengthAdjust="spacing" textLength="117" x="997.5" y="214.2305">Business Scenario</text><text fill="#000000" font-family="Arial" font-size="14" lengthAdjust="spacing" textLength="145" x="983.5" y="230.3291">illustrates collaboration</text></g><!--entity SO--><g id="elem_SO"><rect fill="#F7F9FB" height="52.1973" rx="6" ry="6" style="stroke:#333333;stroke-width:0.5;" width="166" x="973" y="304.0986"/><text fill="#000000" font-family="Arial" font-size="14" lengthAdjust="spacing" textLength="114" x="999" y="327.2305">Service Operation</text><text fill="#000000" font-family="Arial" font-size="14" lengthAdjust="spacing" textLength="146" x="983" y="343.3291">describes an exchange</text></g><!--entity BOM--><g id="elem_BOM"><rect fill="#F7F9FB" height="52.1973" rx="6" ry="6" style="stroke:#333333;stroke-width:0.5;" width="172" x="968" y="455.0986"/><text fill="#000000" font-family="Arial" font-size="14" lengthAdjust="spacing" textLength="144" x="982" y="478.2305">Business Object Model</text><text fill="#000000" font-family="Arial" font-size="14" lengthAdjust="spacing" textLength="152" x="978" y="494.3291">defines shared meaning</text></g><!--entity SEM--><g id="elem_SEM"><rect fill="#F7F9FB" height="36.0986" rx="6" ry="6" style="stroke:#333333;stroke-width:0.5;" width="232" x="908" y="593.0986"/><text fill="#000000" font-family="Arial" font-size="14" lengthAdjust="spacing" textLength="212" x="918" y="616.2305">Semantic API and event guidance</text></g><!--entity APP--><g id="elem_APP"><rect fill="#F7F9FB" height="52.1973" rx="6" ry="6" style="stroke:#333333;stroke-width:0.5;" width="165" x="106.5" y="455.0986"/><text fill="#000000" font-family="Arial" font-size="14" lengthAdjust="spacing" textLength="97" x="140.5" y="478.2305">Application and</text><text fill="#000000" font-family="Arial" font-size="14" lengthAdjust="spacing" textLength="145" x="116.5" y="494.3291">component boundaries</text></g><!--entity API--><g id="elem_API"><rect fill="#F7F9FB" height="52.1973" rx="6" ry="6" style="stroke:#333333;stroke-width:0.5;" width="108" x="127" y="585.0986"/><text fill="#000000" font-family="Arial" font-size="14" lengthAdjust="spacing" textLength="88" x="137" y="608.2305">API and event</text><text fill="#000000" font-family="Arial" font-size="14" lengthAdjust="spacing" textLength="58" x="152" y="624.3291">contracts</text></g><!--entity DATA--><g id="elem_DATA"><rect fill="#F7F9FB" height="52.1973" rx="6" ry="6" style="stroke:#333333;stroke-width:0.5;" width="159" x="112.5" y="723.0986"/><text fill="#000000" font-family="Arial" font-size="14" lengthAdjust="spacing" textLength="98" x="143" y="746.2305">Data ownership</text><text fill="#000000" font-family="Arial" font-size="14" lengthAdjust="spacing" textLength="139" x="122.5" y="762.3291">and physical schemas</text></g><!--entity OPS--><g id="elem_OPS"><rect fill="#F7F9FB" height="52.1973" rx="6" ry="6" style="stroke:#333333;stroke-width:0.5;" width="152" x="120" y="861.0986"/><text fill="#000000" font-family="Arial" font-size="14" lengthAdjust="spacing" textLength="132" x="130" y="884.2305">Security, deployment</text><text fill="#000000" font-family="Arial" font-size="14" lengthAdjust="spacing" textLength="95" x="148.5" y="900.3291">and operations</text></g><!--entity MAP--><g id="elem_MAP"><rect fill="#FFF2CC" height="68.2959" rx="6" ry="6" style="stroke:#333333;stroke-width:0.5;" width="281" x="883.5" y="715.0986"/><text fill="#000000" font-family="Arial" font-size="14" lengthAdjust="spacing" textLength="162" x="943" y="738.2305">Horizon Bank assessment</text><text fill="#000000" font-family="Arial" font-size="14" lengthAdjust="spacing" textLength="261" x="893.5" y="754.3291">Map capabilities, processes, applications,</text><text fill="#000000" font-family="Arial" font-size="14" lengthAdjust="spacing" textLength="206" x="921" y="770.4277">data, owners, gaps and overlaps</text></g><!--entity EVID--><g id="elem_EVID"><rect fill="#FCE4D6" height="52.1973" rx="6" ry="6" style="stroke:#333333;stroke-width:0.5;" width="391" x="304.5" y="585.0986"/><text fill="#000000" font-family="Arial" font-size="14" lengthAdjust="spacing" textLength="259" x="370.5" y="608.2305">Implementation and operational evidence</text><text fill="#000000" font-family="Arial" font-size="14" lengthAdjust="spacing" textLength="371" x="314.5" y="624.3291">quality attributes, tests, telemetry and migration constraints</text></g><g id="elem_GMN22"><path d="M1200,720.0986 L1200,745.0986 L1164.66,749.0986 L1200,753.0986 L1200,778.3945 A0,0 0 0 0 1200,778.3945 L1402,778.3945 A0,0 0 0 0 1402,778.3945 L1402,730.0986 L1392,720.0986 L1200,720.0986 A0,0 0 0 0 1200,720.0986 " fill="#FFF8DC" style="stroke:#666666;stroke-width:0.5;"/><path d="M1392,720.0986 L1392,730.0986 L1402,730.0986 L1392,720.0986 " fill="#FFF8DC" style="stroke:#666666;stroke-width:0.5;"/><text fill="#000000" font-family="Arial" font-size="14" lengthAdjust="spacing" textLength="49" x="1272" y="738.2305">Caution</text><text fill="#000000" font-family="Arial" font-size="14" lengthAdjust="spacing" textLength="150" x="1221.5" y="754.3291">A Service Domain is not</text><text fill="#000000" font-family="Arial" font-size="14" lengthAdjust="spacing" textLength="181" x="1206" y="770.4277">automatically a microservice.</text></g><!--link SL to BS--><!--link BS to SO--><!--link SO to BOM--><!--link BOM to SEM--><!--link APP to API--><!--link API to DATA--><!--link DATA to OPS--><!--link SL to MAP--><g id="link_SL_MAP"><path d="M1139.75,104.9286 C1295.89,107.0686 1601,123.1486 1601,216.0986 C1601,216.0986 1601,216.0986 1601,612.0986 C1601,678.6386 1521.36,636.1986 1457,653.0986 C1398.19,668.5386 1383.31,671.7386 1324,685.0986 C1307.65,688.7786 1240.5929,702.8704 1170.7329,717.4804 " fill="none" id="SL-to-MAP" style="stroke:#333333;stroke-width:1.2;"/><polygon fill="#333333" points="1164.86,718.7086,1174.4882,720.7816,1169.7541,717.6851,1172.8506,712.951,1164.86,718.7086" style="stroke:#333333;stroke-width:1.2;"/><text fill="#000000" font-family="Arial" font-size="14" lengthAdjust="spacing" textLength="46" x="1602" y="400.2305">informs</text></g><!--link BS to MAP--><g id="link_BS_MAP"><path d="M1138.76,225.8486 C1249.19,238.5286 1431,268.5886 1431,329.0986 C1431,329.0986 1431,329.0986 1431,612.0986 C1431,641.0586 1286.6441,683.5367 1168.7441,713.5867 " fill="none" id="BS-to-MAP" style="stroke:#333333;stroke-width:1.2;"/><polygon fill="#333333" points="1162.93,715.0686,1172.6391,716.7219,1167.7751,713.8337,1170.6633,708.9697,1162.93,715.0686" style="stroke:#333333;stroke-width:1.2;"/><text fill="#000000" font-family="Arial" font-size="14" lengthAdjust="spacing" textLength="115" x="1432" y="486.2305">tests collaboration</text></g><!--link SO to MAP--><g id="link_SO_MAP"><path d="M1095.25,356.1086 C1175.62,410.4786 1345.26,543.3586 1270,653.0986 C1254.56,675.6086 1205.8433,695.9361 1152.0933,713.1761 " fill="none" id="SO-to-MAP" style="stroke:#333333;stroke-width:1.2;"/><polygon fill="#333333" points="1146.38,715.0086,1156.1716,716.0687,1151.1411,713.4815,1153.7283,708.451,1146.38,715.0086" style="stroke:#333333;stroke-width:1.2;"/><text fill="#000000" font-family="Arial" font-size="14" lengthAdjust="spacing" textLength="120" x="1283" y="551.2305">clarifies exchanges</text></g><!--link BOM to MAP--><g id="link_BOM_MAP"><path d="M1091.58,507.1486 C1115.55,525.5286 1144.55,552.8486 1158,585.0986 C1169.63,612.9886 1166.33,624.0486 1158,653.0986 C1150.3,679.9586 1133.9357,696.9949 1110.4057,711.7249 " fill="none" id="BOM-to-MAP" style="stroke:#333333;stroke-width:1.2;"/><polygon fill="#333333" points="1105.32,714.9086,1115.071,713.5236,1109.5581,712.2556,1110.8261,706.7427,1105.32,714.9086" style="stroke:#333333;stroke-width:1.2;"/><text fill="#000000" font-family="Arial" font-size="14" lengthAdjust="spacing" textLength="95" x="1166" y="616.2305">aligns meaning</text></g><!--link SEM to MAP--><g id="link_SEM_MAP"><path d="M1024,629.3186 C1024,650.7686 1024,681.8586 1024,708.8986 " fill="none" id="SEM-to-MAP" style="stroke:#333333;stroke-width:1.2;"/><polygon fill="#333333" points="1024,714.8986,1028,705.8986,1024,709.8986,1020,705.8986,1024,714.8986" style="stroke:#333333;stroke-width:1.2;"/><text fill="#000000" font-family="Arial" font-size="14" lengthAdjust="spacing" textLength="104" x="1025" y="681.2305">guides contracts</text></g><!--link MAP to APP--><g id="link_MAP_APP"><path d="M916,715.0086 C873.42,699.4986 825.19,678.7186 785,653.0986 C747.89,629.4386 751.91,605.6686 713,585.0986 C570.38,509.7086 385.5525,489.5188 277.9425,484.1288 " fill="none" id="MAP-to-APP" style="stroke:#333333;stroke-width:1.2;"/><polygon fill="#333333" points="271.95,483.8286,280.7386,488.2739,276.9437,484.0788,281.1388,480.2839,271.95,483.8286" style="stroke:#333333;stroke-width:1.2;"/><text fill="#000000" font-family="Arial" font-size="14" lengthAdjust="spacing" textLength="105" x="786" y="616.2305">design decisions</text></g><!--link MAP to API--><g id="link_MAP_API"><path d="M883.45,747.0586 C746.84,743.1986 534.43,729.6386 356,685.0986 C311.76,674.0586 269.5814,656.1902 235.2114,639.7302 " fill="none" id="MAP-to-API" style="stroke:#333333;stroke-width:1.2;"/><polygon fill="#333333" points="229.8,637.1386,236.1895,644.6336,234.3095,639.2983,239.6449,637.4184,229.8,637.1386" style="stroke:#333333;stroke-width:1.2;"/><text fill="#000000" font-family="Arial" font-size="14" lengthAdjust="spacing" textLength="105" x="357" y="681.2305">design decisions</text></g><!--link MAP to DATA--><g id="link_MAP_DATA"><path d="M883.2,749.0986 C707.4,749.0986 418.71,749.0986 277.78,749.0986 " fill="none" id="MAP-to-DATA" style="stroke:#333333;stroke-width:1.2;"/><polygon fill="#333333" points="271.78,749.0986,280.78,753.0986,276.78,749.0986,280.78,745.0986,271.78,749.0986" style="stroke:#333333;stroke-width:1.2;"/><text fill="#000000" font-family="Arial" font-size="14" lengthAdjust="spacing" textLength="105" x="525" y="742.2305">design decisions</text></g><!--link MAP to OPS--><g id="link_MAP_OPS"><path d="M883.07,773.2486 C706.61,802.2286 416.5906,849.866 277.9306,872.646 " fill="none" id="MAP-to-OPS" style="stroke:#333333;stroke-width:1.2;"/><polygon fill="#333333" points="272.01,873.6186,281.5394,876.1067,276.9439,872.8081,280.2425,868.2125,272.01,873.6186" style="stroke:#333333;stroke-width:1.2;"/><text fill="#000000" font-family="Arial" font-size="14" lengthAdjust="spacing" textLength="105" x="635" y="827.2305">design decisions</text></g><!--link APP to EVID--><g id="link_APP_EVID"><path d="M250.07,507.2386 C304.73,529.7286 378.9016,560.2551 433.5216,582.7351 " fill="none" id="APP-to-EVID" style="stroke:#333333;stroke-width:1.2;"/><polygon fill="#333333" points="439.07,585.0186,432.2697,577.8943,434.4463,583.1157,429.2249,585.2922,439.07,585.0186" style="stroke:#333333;stroke-width:1.2;"/><text fill="#000000" font-family="Arial" font-size="14" lengthAdjust="spacing" textLength="120" x="365" y="551.2305">produces evidence</text></g><!--link API to EVID--><g id="link_API_EVID"><path d="M235.21,611.0986 C258.22,611.0986 275.23,611.0986 298.25,611.0986 " fill="none" id="API-to-EVID" style="stroke:#333333;stroke-width:1.2;"/><polygon fill="#333333" points="304.25,611.0986,295.25,607.0986,299.25,611.0986,295.25,615.0986,304.25,611.0986" style="stroke:#333333;stroke-width:1.2;"/></g><!--link DATA to EVID--><g id="link_DATA_EVID"><path d="M260.76,722.9786 C289.79,711.9486 323.79,698.4886 354,685.0986 C387.42,670.2786 418.9001,654.614 447.2001,639.984 " fill="none" id="DATA-to-EVID" style="stroke:#333333;stroke-width:1.2;"/><polygon fill="#333333" points="452.53,637.2286,442.6982,637.8084,448.0884,639.5248,446.372,644.9149,452.53,637.2286" style="stroke:#333333;stroke-width:1.2;"/></g><!--link OPS to EVID--><g id="link_OPS_EVID"><path d="M224.05,860.8186 C282.03,808.5586 410.0131,693.2056 467.7631,641.1556 " fill="none" id="OPS-to-EVID" style="stroke:#333333;stroke-width:1.2;"/><polygon fill="#333333" points="472.22,637.1386,462.8567,640.1929,468.5059,640.4861,468.2127,646.1354,472.22,637.1386" style="stroke:#333333;stroke-width:1.2;"/></g><!--link EVID to MAP--><g id="link_EVID_MAP"><path d="M481.53,637.3586 C472.68,652.7686 466.29,671.9586 478,685.0986 C504.61,714.9486 724.4697,732.3771 877.2397,741.0871 " fill="none" id="EVID-to-MAP" style="stroke:#333333;stroke-width:1.2;stroke-dasharray:7.0,7.0;"/><polygon fill="#333333" points="883.23,741.4286,874.4723,736.9228,878.2381,741.144,874.0169,744.9099,883.23,741.4286" style="stroke:#333333;stroke-width:1.2;"/><text fill="#000000" font-family="Arial" font-size="14" lengthAdjust="spacing" textLength="260" x="479" y="681.2305">revise mapping when evidence disagrees</text></g><rect fill="none" height="42.1973" id="_legend" rx="7.5" ry="7.5" style="stroke:#000000;stroke-width:1.0;" width="383" x="629.5" y="947.0986"/><text fill="#000000" font-family="Arial" font-size="14" lengthAdjust="spacing" textLength="325" x="658.5" y="965.2305">Blue = BIAN reference | Yellow = bank interpretation</text><text fill="#000000" font-family="Arial" font-size="14" lengthAdjust="spacing" textLength="373" x="634.5" y="981.3291">Green = physical choices | Peach = evidence and feedback</text><!--SRC=[VLLjRo8t4Fw-lsAQ-nguIrfLRQHMWX2kICc1ogbILVh1U8TTDrvxQtkJeo__lSzuWG2NdeHsMS_xFC-Clp9Eswva6WxVuXVJrd9ysrhbKjVOGQgvuM6BlqKooJ9DP-y7NryDtbtTq3JuXiQpqGSAlE70JZDfZsUR8YLFfcajh5rIoNX7klP6SooIRqMwzYd1lZI1jSYB8ZuQrwgWSCWRrTdqaJ-baJML4oUayU1mf2M6obL8wk-2w6VVkVBM1yU1hgwBVukYLVfHLKmNEKVhAwELVSdrWjxSZQRNq- -o-OkpYoM79sHAzygLKQkMLyw7IZaJEK8ljjv5ipRM9CFnWbIavVsfXt4NZUC80P9MmVYLCzPsCGMLu4DxQzNQXzoNx62yV3s5USkzrigL77KmQvWhH_n9rr3bFlhyVwBFrt_Wb1vyoLOSREIOOgq2bzGmAd9L7tx-S1w_0G6Cfj5YXdWbyPD0K7McLBbr4lPEZ9RtDFYjDcN9xlVIFxj1NyjuUNwSirpEFzFEeV7yJ1_k0U9HKZ_vOFu2aSRAFI81e16562lte5e2JcgFoIMrmODgKVwgjhK0NfeOBz45bTGb8G8722lLnboVV-9WyP4hUnWjwCrqEhs-lJrc4S8EOilQRD2OryajdBgUlfjyVywfqKiM4c_bj6_08sdgMeWBakouD5eipaoF8H131nhfjDUUdMfFKD-klDgqAoUMRRsDcVjHOvnLRpaPVHoTWwwxODBs4lFNMh_jcvkxiwTXRpfV2CH8z1opFXj9-4om2oQlSv4uEyLvTjhQamHG13-PKkPtvVxi503Vaae9az4bWHkFb5_Y8eLjDczC5NOueGQqpxXT_-v-cKs0zUtTDvDl2-SJKp1LdSXlX0L8-LPrUJkXBDfFvSGty40c4YmWWGfEahJO8Y32wU1Zhpmi60c8vwAGMHdycEbrGyPjV6XY8PDoECpPd-w7GcRceA0jcB81Lmuh01vaU0uQIXPct8ztWJ4w4ie0vmMqur0Xno8MC6-0UuGnNjf4GVj8FFkIEEFw1JamVasS6GHn1k56XhRij9IsGxZ8JDef53rvzb_Yyl2H7Go7-oe374Ic1gEF5j1ppUxW4nTEL5LWzAsmN0au_KqaMyXsJ3-SNsd_qAzihN-6P2sRnyWrr0RkwGcpz_3c83sCsMuPm7B1IjSG7Q8B6pVCvHfRHPZHf_0V]--></g></svg>