<?xml version="1.0" encoding="us-ascii" standalone="no"?><svg xmlns="http://www.w3.org/2000/svg" xmlns:xlink="http://www.w3.org/1999/xlink" contentStyleType="text/css" height="731.6977px" preserveAspectRatio="none" style="width:730px;height:731px;background:#FFFFFF;" version="1.1" viewBox="0 0 730 731" width="730.8488px" zoomAndPan="magnify"><defs/><g><text fill="#000000" font-family="Arial" font-size="11.8837" font-weight="bold" lengthAdjust="spacing" textLength="213.0581" x="252.9535" y="19.6352">Online Store solution design thread</text><!--entity D--><g id="elem_D"><rect fill="#FFF2CC" height="71.6372" rx="2.1221" ry="2.1221" style="stroke:#333333;stroke-width:0.4244186046511628;" width="148.5465" x="5.9419" y="37.4326"/><text fill="#000000" font-family="Arial" font-size="11.8837" lengthAdjust="spacing" textLength="77.2442" x="14.4302" y="57.0677">Design drivers</text><text fill="#000000" font-family="Arial" font-size="11.8837" lengthAdjust="spacing" textLength="131.5698" x="14.4302" y="70.7328">FR-25-01 and QA-25-01</text><text fill="#000000" font-family="Arial" font-size="11.8837" lengthAdjust="spacing" textLength="110.3488" x="14.4302" y="84.398">Duplicate prevention</text><text fill="#000000" font-family="Arial" font-size="11.8837" lengthAdjust="spacing" textLength="101.0116" x="14.4302" y="98.0631">Provider constraint</text></g><!--entity O--><g id="elem_O"><rect fill="#DDEBF7" height="71.6372" rx="2.1221" ry="2.1221" style="stroke:#333333;stroke-width:0.4244186046511628;" width="106.9535" x="157.4593" y="159.6651"/><text fill="#000000" font-family="Arial" font-size="11.8837" lengthAdjust="spacing" textLength="41.593" x="165.9477" y="179.3003">Options</text><text fill="#000000" font-family="Arial" font-size="11.8837" lengthAdjust="spacing" textLength="84.0349" x="165.9477" y="192.9654">1  Synchronous</text><text fill="#000000" font-family="Arial" font-size="11.8837" lengthAdjust="spacing" textLength="89.9767" x="165.9477" y="206.6305">2  Asynchronous</text><text fill="#000000" font-family="Arial" font-size="11.8837" lengthAdjust="spacing" textLength="47.5349" x="165.9477" y="220.2956">3  Hybrid</text></g><!--entity A--><g id="elem_A"><rect fill="#E4DFEC" height="57.9721" rx="2.1221" ry="2.1221" style="stroke:#333333;stroke-width:0.4244186046511628;" width="140.0581" x="282.6628" y="281.8977"/><text fill="#000000" font-family="Arial" font-size="11.8837" lengthAdjust="spacing" textLength="60.2674" x="291.1512" y="301.5328">ADR-26-01</text><text fill="#000000" font-family="Arial" font-size="11.8837" lengthAdjust="spacing" textLength="123.0814" x="291.1512" y="315.198">Select hybrid response</text><text fill="#000000" font-family="Arial" font-size="11.8837" lengthAdjust="spacing" textLength="120.5349" x="291.1512" y="328.8631">Record consequences</text></g><!--entity S--><g id="elem_S"><rect fill="#E2F0D9" height="57.9721" rx="2.1221" ry="2.1221" style="stroke:#333333;stroke-width:0.4244186046511628;" width="101.0116" x="117.9884" y="390.5488"/><text fill="#000000" font-family="Arial" font-size="11.8837" lengthAdjust="spacing" textLength="75.5465" x="126.4767" y="410.184">Structure view</text><text fill="#000000" font-family="Arial" font-size="11.8837" lengthAdjust="spacing" textLength="83.186" x="126.4767" y="423.8491">Responsibilities</text><text fill="#000000" font-family="Arial" font-size="11.8837" lengthAdjust="spacing" textLength="84.0349" x="126.4767" y="437.5142">and boundaries</text></g><!--entity I--><g id="elem_I"><rect fill="#E2F0D9" height="57.9721" rx="2.1221" ry="2.1221" style="stroke:#333333;stroke-width:0.4244186046511628;" width="115.4419" x="234.7035" y="390.5488"/><text fill="#000000" font-family="Arial" font-size="11.8837" lengthAdjust="spacing" textLength="82.3372" x="243.1919" y="410.184">Interaction view</text><text fill="#000000" font-family="Arial" font-size="11.8837" lengthAdjust="spacing" textLength="94.2209" x="243.1919" y="423.8491">Success, timeout,</text><text fill="#000000" font-family="Arial" font-size="11.8837" lengthAdjust="spacing" textLength="98.4651" x="243.1919" y="437.5142">retry and recovery</text></g><!--entity N--><g id="elem_N"><rect fill="#E2F0D9" height="57.9721" rx="2.1221" ry="2.1221" style="stroke:#333333;stroke-width:0.4244186046511628;" width="121.3837" x="439.6977" y="390.5488"/><text fill="#000000" font-family="Arial" font-size="11.8837" lengthAdjust="spacing" textLength="85.7326" x="448.186" y="410.184">Information view</text><text fill="#000000" font-family="Arial" font-size="11.8837" lengthAdjust="spacing" textLength="104.407" x="448.186" y="423.8491">Order and payment</text><text fill="#000000" font-family="Arial" font-size="11.8837" lengthAdjust="spacing" textLength="54.3256" x="448.186" y="437.5142">ownership</text></g><!--entity C--><g id="elem_C"><rect fill="#E2F0D9" height="57.9721" rx="2.1221" ry="2.1221" style="stroke:#333333;stroke-width:0.4244186046511628;" width="108.6512" x="346.75" y="484.7698"/><text fill="#000000" font-family="Arial" font-size="11.8837" lengthAdjust="spacing" textLength="69.6047" x="355.2384" y="504.4049">Security view</text><text fill="#000000" font-family="Arial" font-size="11.8837" lengthAdjust="spacing" textLength="91.6744" x="355.2384" y="518.0701">Trust boundaries</text><text fill="#000000" font-family="Arial" font-size="11.8837" lengthAdjust="spacing" textLength="66.2093" x="355.2384" y="531.7352">and controls</text></g><!--entity P--><g id="elem_P"><rect fill="#E2F0D9" height="57.9721" rx="2.1221" ry="2.1221" style="stroke:#333333;stroke-width:0.4244186046511628;" width="126.4767" x="599.2791" y="484.7698"/><text fill="#000000" font-family="Arial" font-size="11.8837" lengthAdjust="spacing" textLength="89.9767" x="607.7674" y="504.4049">Deployment view</text><text fill="#000000" font-family="Arial" font-size="11.8837" lengthAdjust="spacing" textLength="109.5" x="607.7674" y="518.0701">Failure domains and</text><text fill="#000000" font-family="Arial" font-size="11.8837" lengthAdjust="spacing" textLength="93.3721" x="607.7674" y="531.7352">operational intent</text></g><!--entity E--><g id="elem_E"><rect fill="#FCE4D6" height="71.6372" rx="2.1221" ry="2.1221" style="stroke:#333333;stroke-width:0.4244186046511628;" width="166.3721" x="193.1105" y="593.4209"/><text fill="#000000" font-family="Arial" font-size="11.8837" lengthAdjust="spacing" textLength="95.9186" x="201.5988" y="613.0561">Planned evidence</text><text fill="#000000" font-family="Arial" font-size="11.8837" lengthAdjust="spacing" textLength="149.3953" x="201.5988" y="626.7212">Performance and retry tests</text><text fill="#000000" font-family="Arial" font-size="11.8837" lengthAdjust="spacing" textLength="89.1279" x="201.5988" y="640.3863">Fault experiment</text><text fill="#000000" font-family="Arial" font-size="11.8837" lengthAdjust="spacing" textLength="98.4651" x="201.5988" y="654.0515">Usability validation</text></g><!--link D to O--><g id="link_D_O"><path d="M118.0223,108.7943 C135.2962,124.7185 151.9577,140.0851 169.24,156.0178 " fill="none" id="D-to-O" style="stroke:#333333;stroke-width:1.0186046511627906;"/><polygon fill="#333333" points="172.9845,159.4699,169.6691,151.7953,169.8641,156.5931,165.0663,156.7881,172.9845,159.4699" style="stroke:#333333;stroke-width:1.0186046511627906;"/><text fill="#000000" font-family="Arial" font-size="11.8837" lengthAdjust="spacing" textLength="104.407" x="154.9128" y="138.5561">shapes comparison</text></g><!--link O to A--><g id="link_O_A"><path d="M254.6257,231.2221 C274.879,247.4773 294.6576,263.3372 313.714,278.6332 " fill="none" id="O-to-A" style="stroke:#333333;stroke-width:1.0186046511627906;"/><polygon fill="#333333" points="317.6858,281.8213,313.8535,274.3913,314.376,279.1646,309.6027,279.6871,317.6858,281.8213" style="stroke:#333333;stroke-width:1.0186046511627906;"/><text fill="#000000" font-family="Arial" font-size="11.8837" lengthAdjust="spacing" textLength="112.0465" x="294.9709" y="260.7887">decision recorded by</text></g><!--link A to S--><g id="link_A_S"><path d="M301.6003,339.712 C291.2191,345.518 280.4134,351.6297 270.3547,357.4442 C252.0537,368.0207 236.4424,377.3005 219.0667,387.7751 " fill="none" id="A-to-S" style="stroke:#333333;stroke-width:1.0186046511627906;"/><polygon fill="#333333" points="214.7049,390.4045,223.0005,389.3683,218.3397,388.2134,219.4946,383.5526,214.7049,390.4045" style="stroke:#333333;stroke-width:1.0186046511627906;"/><text fill="#000000" font-family="Arial" font-size="11.8837" lengthAdjust="spacing" textLength="41.593" x="271.2035" y="369.4398">realises</text></g><!--link A to I--><g id="link_A_I"><path d="M335.8594,339.6271 C332.3962,345.4926 328.8141,351.6466 325.5291,357.4442 C319.4599,368.148 315.3902,375.548 309.7794,385.9632 " fill="none" id="A-to-I" style="stroke:#333333;stroke-width:1.0186046511627906;"/><polygon fill="#333333" points="307.364,390.447,313.9764,385.3316,309.3768,386.7105,307.998,382.111,307.364,390.447" style="stroke:#333333;stroke-width:1.0186046511627906;"/><text fill="#000000" font-family="Arial" font-size="11.8837" lengthAdjust="spacing" textLength="41.593" x="326.3779" y="369.4398">realises</text></g><!--link A to N--><g id="link_A_N"><path d="M391.5007,339.712 C413.1206,355.3645 435.8357,371.8159 457.4641,387.477 " fill="none" id="A-to-N" style="stroke:#333333;stroke-width:1.0186046511627906;"/><polygon fill="#333333" points="461.5892,390.464,457.3928,383.2334,458.1516,387.9748,453.4102,388.7335,461.5892,390.464" style="stroke:#333333;stroke-width:1.0186046511627906;"/><text fill="#000000" font-family="Arial" font-size="11.8837" lengthAdjust="spacing" textLength="41.593" x="435.8779" y="369.4398">realises</text></g><!--link S to I--><!--link I to N--><!--link S to C--><!--link N to P--><!--link C to P--><!--link A to C--><g id="link_A_C"><path d="M363.2684,339.7799 C365.2547,345.5774 367.2155,351.6721 368.8198,357.4442 C375.3728,380.9909 387.3864,441.5629 394.7204,479.5653 " fill="none" id="A-to-C" style="stroke:#333333;stroke-width:1.0186046511627906;"/><polygon fill="#333333" points="395.6855,484.566,397.5717,476.4215,394.8812,480.3988,390.904,477.7083,395.6855,484.566" style="stroke:#333333;stroke-width:1.0186046511627906;"/><text fill="#000000" font-family="Arial" font-size="11.8837" lengthAdjust="spacing" textLength="41.593" x="389.1919" y="423.7654">realises</text></g><!--link A to P--><g id="link_A_P"><path d="M422.7719,326.156 C467.8027,338.0313 525.7613,358.2336 569.1453,390.5488 C603.3026,415.9885 628.5623,452.7926 644.6987,480.227 " fill="none" id="A-to-P" style="stroke:#333333;stroke-width:1.0186046511627906;"/><polygon fill="#333333" points="647.2808,484.617,646.3343,476.3107,645.1291,480.9587,640.481,479.7534,647.2808,484.617" style="stroke:#333333;stroke-width:1.0186046511627906;"/><text fill="#000000" font-family="Arial" font-size="11.8837" lengthAdjust="spacing" textLength="41.593" x="623.4709" y="423.7654">realises</text></g><!--link S to E--><g id="link_S_E"><path d="M149.302,448.448 C134.3455,474.2442 118.6929,512.7814 135.3895,542.4907 C148.3003,565.4517 165.7089,580.4498 188.3813,593.4879 " fill="none" id="S-to-E" style="stroke:#333333;stroke-width:1.0186046511627906;"/><polygon fill="#333333" points="192.7964,596.0269,187.8665,589.2751,189.1172,593.9111,184.4812,595.1618,192.7964,596.0269" style="stroke:#333333;stroke-width:1.0186046511627906;"/><text fill="#000000" font-family="Arial" font-size="11.8837" lengthAdjust="spacing" textLength="95.9186" x="136.2384" y="517.9863">assessed through</text></g><!--link I to E--><g id="link_I_E"><path d="M263.4112,448.5499 C254.6172,459.0076 246.0779,471.5619 241.4942,484.7698 C228.9314,520.9642 240.7466,559.1951 254.5487,588.5819 " fill="none" id="I-to-E" style="stroke:#333333;stroke-width:1.0186046511627906;"/><polygon fill="#333333" points="256.7138,593.1917,256.5394,584.8335,254.9096,589.3502,250.3929,587.7203,256.7138,593.1917" style="stroke:#333333;stroke-width:1.0186046511627906;"/><text fill="#000000" font-family="Arial" font-size="11.8837" lengthAdjust="spacing" textLength="95.9186" x="242.343" y="517.9863">assessed through</text></g><!--link N to E--><g id="link_N_E"><path d="M499.3115,448.4395 C496.4085,483.3607 486.1206,542.3294 450.3081,575.5954 C425.624,598.5309 396.2338,610.3377 364.5637,617.6547 " fill="none" id="N-to-E" style="stroke:#333333;stroke-width:1.0186046511627906;"/><polygon fill="#333333" points="359.6014,618.8012,367.8092,620.3897,363.7366,617.8458,366.2805,613.7732,359.6014,618.8012" style="stroke:#333333;stroke-width:1.0186046511627906;"/><text fill="#000000" font-family="Arial" font-size="11.8837" lengthAdjust="spacing" textLength="95.9186" x="494.4477" y="517.9863">assessed through</text></g><!--link C to E--><g id="link_C_E"><path d="M370.2288,542.5926 C353.4134,557.9226 336.2203,573.6083 318.3608,589.8805 " fill="none" id="C-to-E" style="stroke:#333333;stroke-width:1.0186046511627906;"/><polygon fill="#333333" points="314.596,593.3106,322.5299,590.6752,317.7333,590.4521,317.9564,585.6556,314.596,593.3106" style="stroke:#333333;stroke-width:1.0186046511627906;"/><text fill="#000000" font-family="Arial" font-size="11.8837" lengthAdjust="spacing" textLength="95.9186" x="350.1453" y="572.3119">assessed through</text></g><!--link P to E--><g id="link_P_E"><path d="M599.0074,540.114 C568.6785,551.8279 531.6947,565.3329 497.843,575.5954 C452.634,589.2956 406.3273,600.5744 364.4966,609.8777 " fill="none" id="P-to-E" style="stroke:#333333;stroke-width:1.0186046511627906;"/><polygon fill="#333333" points="359.525,610.9834,367.7195,612.6392,363.668,610.062,366.2452,606.0105,359.525,610.9834" style="stroke:#333333;stroke-width:1.0186046511627906;"/><text fill="#000000" font-family="Arial" font-size="11.8837" lengthAdjust="spacing" textLength="95.9186" x="543.6802" y="572.3119">assessed through</text></g><!--reverse link D to E--><g id="link_D_E"><path d="M73.4192,113.9236 C69.7947,137.9202 66.6337,165.5136 66.6337,194.4674 C66.6337,194.4674 66.6337,194.4674 66.6337,514.4791 C66.6337,574.7295 134.3624,603.242 192.8303,616.6197 " fill="none" id="D-backto-E" style="stroke:#333333;stroke-width:1.0186046511627906;stroke-dasharray:7.0,7.0;"/><polygon fill="#333333" points="74.1799,108.8877,69.6817,115.9344,73.546,113.0843,76.3962,116.9486,74.1799,108.8877" style="stroke:#333333;stroke-width:1.0186046511627906;"/><text fill="#000000" font-family="Arial" font-size="11.8837" lengthAdjust="spacing" textLength="89.1279" x="67.4826" y="369.4398">feedback refines</text></g><rect fill="none" height="35.8186" id="_legend" rx="6.3663" ry="6.3663" style="stroke:#000000;stroke-width:0.8488372093023256;" width="209.6628" x="254.6512" y="679.4884"/><text fill="#000000" font-family="Arial" font-size="11.8837" lengthAdjust="spacing" textLength="200.3256" x="258.8953" y="694.8794">Solid arrows show forward trace links.</text><text fill="#000000" font-family="Arial" font-size="11.8837" lengthAdjust="spacing" textLength="201.1744" x="258.8953" y="708.5445">Dotted arrow shows iterative learning.</text><!--SRC=[TLJ1Rjim3BthAxZskgHjshLR3mKoEyPwIR9wEoqxA1OJ4vKbJvAJPLy_IZ4A5sc17E97yV6HVD87CfNk5C9uVC4_7muQ_KMhfGbTeqUXnWR7BVyLWO96M1XD1g4CrY5ugxj0re12Jri3eNOebGYsXM1XRKEm3IXoMCLJmbUI6UwkBs5FAjJ2FvDffPCD6CiCsCBLvm7ef7cEuCra02hSo4w7mffGqZ-4gniX8hyqM-O-ouz2bACTEhyonTDeycbqUGNIAFW-FNwiJDwrcYeP45g7EpHHtieidTsHGWULDJuuIIQSWVIGmtbH59Ci6rPQj369Irm1b0TJrSuQs_7t163gXy0rmBV3sf5AP0iup_FPr-9kI3RDMUTjabQYPXpgb04EVSjLS6MUiB9E9MdufqDJeKzyKpYVtUJ5B7irXpAuhWeTxsX7k8_PYOVMf2aGigeuaBNjZ9AEUggIgIR5PVvboFHe0ZgP5jXpbLt5nVr72DIWxSB7bN4Ot27Dc3CjZ_wG21_V9jnOryW1uSB5eSViLXuQtiRAsBtX_TNK9fxv2y-h7h7g78L3p_B3TJuCMZgsoFCApkfZWzbRUd9ijKrbUw92aewJKxPX2_WeZ0MrF8MeMMfWNs1lZUMRofPyVGmgm6WdtXHR2rtgcZ_wCSM11VGXcZGw6l0lbw1Z-p-zJ9lYtgGcbGgdUZEsOiRxlXKYXv7YCOqUs5Btu6lPekTs6xudvFcsBLxYKuuhhCZ7aRla8nQtFWWnXH77IuxpnTNaqVVGuoaq7q8bZ7xLfBYxtuwsTOWful4Kd8lXqLvF9kOds59afzdBldHsgcOvX68DncQCIS-0v_RuBRBTjewYtWlDtmzbxuUMxuV43CPTEtxW5-CUDeXgBQjdbhdX9vDLQjnYkdNnNHIbvSs2TCxkFQ_Fxe4TifTyn_dfOPlmE_linoBdqzYVIySyK4XUtF4PbCwGsOu54n_f_mC0]--></g></svg>