<?xml version="1.0" encoding="us-ascii" standalone="no"?><svg xmlns="http://www.w3.org/2000/svg" xmlns:xlink="http://www.w3.org/1999/xlink" contentStyleType="text/css" height="410.6331px" preserveAspectRatio="none" style="width:760px;height:410px;background:#FFFFFF;" version="1.1" viewBox="0 0 760 410" width="760.2989px" zoomAndPan="magnify"><defs/><g><text fill="#000000" font-family="Arial" font-size="8.3681" font-weight="bold" lengthAdjust="spacing" textLength="191.2702" x="280.4797" y="13.8263">Online Store implementation evidence thread</text><!--entity I--><g id="elem_I"><rect fill="#FFF2CC" height="40.8218" rx="1.4943" ry="1.4943" style="stroke:#333333;stroke-width:0.29885961462839167;" width="117.7507" x="333.5273" y="26.3586"/><text fill="#000000" font-family="Arial" font-size="8.3681" lengthAdjust="spacing" textLength="68.7377" x="339.5045" y="40.1849">Architecture intent</text><text fill="#000000" font-family="Arial" font-size="8.3681" lengthAdjust="spacing" textLength="92.6465" x="339.5045" y="49.8074">FR-25-01 and QA-25-01</text><text fill="#000000" font-family="Arial" font-size="8.3681" lengthAdjust="spacing" textLength="105.7963" x="339.5045" y="59.4299">ADR-26-01 hybrid response</text></g><!--entity R--><g id="elem_R"><rect fill="#DDEBF7" height="40.8218" rx="1.4943" ry="1.4943" style="stroke:#333333;stroke-width:0.29885961462839167;" width="105.7963" x="93.2442" y="100.4758"/><text fill="#000000" font-family="Arial" font-size="8.3681" lengthAdjust="spacing" textLength="79.4967" x="99.2214" y="114.3021">Responsibility design</text><text fill="#000000" font-family="Arial" font-size="8.3681" lengthAdjust="spacing" textLength="93.8419" x="99.2214" y="123.9246">Checkout, adapter, store</text><text fill="#000000" font-family="Arial" font-size="8.3681" lengthAdjust="spacing" textLength="66.3468" x="99.2214" y="133.5471">and reconciliation</text></g><!--entity C--><g id="elem_C"><rect fill="#DDEBF7" height="40.8218" rx="1.4943" ry="1.4943" style="stroke:#333333;stroke-width:0.29885961462839167;" width="120.1416" x="245.0649" y="100.4758"/><text fill="#000000" font-family="Arial" font-size="8.3681" lengthAdjust="spacing" textLength="69.9331" x="251.0421" y="114.3021">Interface contracts</text><text fill="#000000" font-family="Arial" font-size="8.3681" lengthAdjust="spacing" textLength="108.1872" x="251.0421" y="123.9246">HTTP API and event schema</text><text fill="#000000" font-family="Arial" font-size="8.3681" lengthAdjust="spacing" textLength="88.4624" x="251.0421" y="133.5471">Errors and compatibility</text></g><!--entity D--><g id="elem_D"><rect fill="#DDEBF7" height="40.8218" rx="1.4943" ry="1.4943" style="stroke:#333333;stroke-width:0.29885961462839167;" width="109.9803" x="394.1958" y="100.4758"/><text fill="#000000" font-family="Arial" font-size="8.3681" lengthAdjust="spacing" textLength="77.7035" x="400.173" y="114.3021">Physical data design</text><text fill="#000000" font-family="Arial" font-size="8.3681" lengthAdjust="spacing" textLength="98.026" x="400.173" y="123.9246">Keys, constraints, indexes</text><text fill="#000000" font-family="Arial" font-size="8.3681" lengthAdjust="spacing" textLength="55.5879" x="400.173" y="133.5471">and migrations</text></g><!--entity S--><g id="elem_S"><rect fill="#E2F0D9" height="40.8218" rx="1.4943" ry="1.4943" style="stroke:#333333;stroke-width:0.29885961462839167;" width="115.3598" x="4.184" y="174.593"/><text fill="#000000" font-family="Arial" font-size="8.3681" lengthAdjust="spacing" textLength="62.7605" x="10.1612" y="188.4193">Security controls</text><text fill="#000000" font-family="Arial" font-size="8.3681" lengthAdjust="spacing" textLength="103.4054" x="10.1612" y="198.0418">Enforcement, secrets, audit</text><text fill="#000000" font-family="Arial" font-size="8.3681" lengthAdjust="spacing" textLength="52.0016" x="10.1612" y="207.6642">and redaction</text></g><!--entity O--><g id="elem_O"><rect fill="#E2F0D9" height="40.8218" rx="1.4943" ry="1.4943" style="stroke:#333333;stroke-width:0.29885961462839167;" width="110.5781" x="407.0468" y="174.593"/><text fill="#000000" font-family="Arial" font-size="8.3681" lengthAdjust="spacing" textLength="58.5765" x="413.024" y="188.4193">Runtime design</text><text fill="#000000" font-family="Arial" font-size="8.3681" lengthAdjust="spacing" textLength="98.6237" x="413.024" y="198.0418">Deployment, configuration</text><text fill="#000000" font-family="Arial" font-size="8.3681" lengthAdjust="spacing" textLength="63.956" x="413.024" y="207.6642">and observability</text></g><!--entity E--><g id="elem_E"><rect fill="#E4DFEC" height="40.8218" rx="1.4943" ry="1.4943" style="stroke:#333333;stroke-width:0.29885961462839167;" width="106.9917" x="264.7896" y="248.7102"/><text fill="#000000" font-family="Arial" font-size="8.3681" lengthAdjust="spacing" textLength="77.1058" x="270.7668" y="262.5365">Repository evidence</text><text fill="#000000" font-family="Arial" font-size="8.3681" lengthAdjust="spacing" textLength="95.0374" x="270.7668" y="272.159">Models, ADRs, contracts,</text><text fill="#000000" font-family="Arial" font-size="8.3681" lengthAdjust="spacing" textLength="72.9217" x="270.7668" y="281.7814">manifests and tests</text></g><!--entity V--><g id="elem_V"><rect fill="#FCE4D6" height="40.8218" rx="1.4943" ry="1.4943" style="stroke:#333333;stroke-width:0.29885961462839167;" width="120.1416" x="457.2552" y="322.8273"/><text fill="#000000" font-family="Arial" font-size="8.3681" lengthAdjust="spacing" textLength="78.3012" x="463.2324" y="336.6537">Verification evidence</text><text fill="#000000" font-family="Arial" font-size="8.3681" lengthAdjust="spacing" textLength="108.1872" x="463.2324" y="346.2761">Contract, migration, security,</text><text fill="#000000" font-family="Arial" font-size="8.3681" lengthAdjust="spacing" textLength="103.4054" x="463.2324" y="355.8986">performance and fault tests</text></g><!--link I to R--><g id="link_I_R"><path d="M333.4197,64.7441 C292.5776,76.836 242.12,91.7829 202.6347,103.4743 " fill="none" id="I-to-R" style="stroke:#333333;stroke-width:0.71726307510814;"/><polygon fill="#333333" points="199.1959,104.4925,205.0328,105.2577,202.0615,103.644,203.6752,100.6727,199.1959,104.4925" style="stroke:#333333;stroke-width:0.71726307510814;"/><text fill="#000000" font-family="Arial" font-size="8.3681" lengthAdjust="spacing" textLength="42.4381" x="284.8132" y="86.807">refined into</text></g><!--link I to C--><g id="link_I_C"><path d="M368.7868,67.0095 C356.3722,77.3859 343.9423,87.7762 331.5217,98.1526 " fill="none" id="I-to-C" style="stroke:#333333;stroke-width:0.71726307510814;"/><polygon fill="#333333" points="328.7695,100.4519,334.4307,98.8378,331.063,98.5358,331.365,95.1681,328.7695,100.4519" style="stroke:#333333;stroke-width:0.71726307510814;"/><text fill="#000000" font-family="Arial" font-size="8.3681" lengthAdjust="spacing" textLength="42.4381" x="354.1486" y="86.807">refined into</text></g><!--link I to D--><g id="link_I_D"><path d="M407.77,67.0095 C415.8512,77.3859 423.5219,87.246 431.6031,97.6224 " fill="none" id="I-to-D" style="stroke:#333333;stroke-width:0.71726307510814;"/><polygon fill="#333333" points="433.8067,100.4519,432.3876,94.7386,431.9704,98.094,428.615,97.6767,433.8067,100.4519" style="stroke:#333333;stroke-width:0.71726307510814;"/><text fill="#000000" font-family="Arial" font-size="8.3681" lengthAdjust="spacing" textLength="42.4381" x="424.6795" y="86.807">refined into</text></g><!--link R to C--><!--link C to D--><!--link R to S--><g id="link_R_S"><path d="M107.9182,141.1685 C102.6463,144.6114 97.488,148.4129 92.9453,152.4774 C85.8683,158.8132 81.421,164.0574 76.2148,171.499 " fill="none" id="R-to-S" style="stroke:#333333;stroke-width:0.71726307510814;"/><polygon fill="#333333" points="74.159,174.4376,79.2018,171.4002,75.8722,171.9887,75.2837,168.6591,74.159,174.4376" style="stroke:#333333;stroke-width:0.71726307510814;"/><text fill="#000000" font-family="Arial" font-size="8.3681" lengthAdjust="spacing" textLength="38.8517" x="93.5431" y="160.9242">constrains</text></g><!--link D to O--><g id="link_D_O"><path d="M452.7424,141.1267 C454.6133,151.5031 456.2662,160.6632 458.1371,171.0397 " fill="none" id="D-to-O" style="stroke:#333333;stroke-width:0.71726307510814;"/><polygon fill="#333333" points="458.7734,174.5691,460.1718,168.8507,458.2431,171.6279,455.466,169.6992,458.7734,174.5691" style="stroke:#333333;stroke-width:0.71726307510814;"/><text fill="#000000" font-family="Arial" font-size="8.3681" lengthAdjust="spacing" textLength="38.8517" x="456.9564" y="160.9242">constrains</text></g><!--link S to O--><!--link C to E--><g id="link_C_E"><path d="M295.4407,141.1805 C287.3655,160.3075 278.2443,190.0141 285.4109,215.2379 C288.794,227.1444 293.6296,236.0547 300.2344,245.5345 " fill="none" id="C-to-E" style="stroke:#333333;stroke-width:0.71726307510814;"/><polygon fill="#333333" points="302.2845,248.477,301.171,242.6965,300.5761,246.0249,297.2476,245.43,302.2845,248.477" style="stroke:#333333;stroke-width:0.71726307510814;"/><text fill="#000000" font-family="Arial" font-size="8.3681" lengthAdjust="spacing" textLength="115.3598" x="286.0087" y="197.9828">implemented and versioned as</text></g><!--link R to E--><g id="link_R_E"><path d="M144.5225,141.2701 C143.9308,162.1425 146.3217,194.7361 164.0739,215.2379 C189.1961,244.2452 227.3981,256.8198 261.1154,262.8269 " fill="none" id="R-to-E" style="stroke:#333333;stroke-width:0.71726307510814;"/><polygon fill="#333333" points="264.6462,263.4559,259.7694,260.1585,261.7039,262.9317,258.9307,264.8662,264.6462,263.4559" style="stroke:#333333;stroke-width:0.71726307510814;"/><text fill="#000000" font-family="Arial" font-size="8.3681" lengthAdjust="spacing" textLength="115.3598" x="164.6716" y="197.9828">implemented and versioned as</text></g><!--link D to E--><g id="link_D_E"><path d="M492.2218,141.2223 C504.9114,149.5186 517.063,160.5525 523.3032,174.593 C534.6838,200.1993 538.1864,218.6509 517.326,237.3535 C496.4297,256.086 427.0764,263.3458 375.571,266.3046 " fill="none" id="D-to-E" style="stroke:#333333;stroke-width:0.71726307510814;"/><polygon fill="#333333" points="371.9906,266.5102,377.4983,268.5887,374.9742,266.3388,377.2241,263.8148,371.9906,266.5102" style="stroke:#333333;stroke-width:0.71726307510814;"/><text fill="#000000" font-family="Arial" font-size="8.3681" lengthAdjust="spacing" textLength="115.3598" x="532.8667" y="197.9828">implemented and versioned as</text></g><!--link S to E--><g id="link_S_E"><path d="M22.4623,215.3694 C14.1122,222.0818 9.6113,229.7923 16.4373,237.3535 C32.7251,255.4046 178.9359,263.4499 261.194,266.6058 " fill="none" id="S-to-E" style="stroke:#333333;stroke-width:0.71726307510814;"/><polygon fill="#333333" points="264.7777,266.7433,259.4938,264.148,261.7913,266.6288,259.3105,268.9262,264.7777,266.7433" style="stroke:#333333;stroke-width:0.71726307510814;"/><text fill="#000000" font-family="Arial" font-size="8.3681" lengthAdjust="spacing" textLength="115.3598" x="17.035" y="235.0414">implemented and versioned as</text></g><!--link O to E--><g id="link_O_E"><path d="M423.3526,215.2439 C402.8568,225.6203 381.0002,236.6903 360.4984,247.0667 " fill="none" id="O-to-E" style="stroke:#333333;stroke-width:0.71726307510814;"/><polygon fill="#333333" points="357.2986,248.6862,363.178,248.3902,359.9651,247.3367,361.0187,244.1238,357.2986,248.6862" style="stroke:#333333;stroke-width:0.71726307510814;"/><text fill="#000000" font-family="Arial" font-size="8.3681" lengthAdjust="spacing" textLength="115.3598" x="398.9776" y="235.0414">implemented and versioned as</text></g><!--link E to V--><g id="link_E_V"><path d="M371.889,289.2654 C400.2687,299.6657 431.6646,311.1694 460.0861,321.5817 " fill="none" id="E-to-V" style="stroke:#333333;stroke-width:0.71726307510814;"/><polygon fill="#333333" points="463.4536,322.8154,459.2248,318.7199,460.6474,321.7873,457.5799,323.2098,463.4536,322.8154" style="stroke:#333333;stroke-width:0.71726307510814;"/><text fill="#000000" font-family="Arial" font-size="8.3681" lengthAdjust="spacing" textLength="38.8517" x="430.059" y="309.1586">verified by</text></g><!--reverse link I to V--><g id="link_I_V"><path d="M454.8845,50.7346 C538.3679,56.8971 677.5147,73.9311 677.5147,120.2005 C677.5147,120.2005 677.5147,120.2005 677.5147,269.6303 C677.5147,315.314 622.8832,332.5104 577.4326,338.912 " fill="none" id="I-backto-V" style="stroke:#333333;stroke-width:0.71726307510814;stroke-dasharray:7.0,7.0;"/><polygon fill="#333333" points="451.3079,50.4706,456.4968,53.251,454.2884,50.6906,456.8488,48.4822,451.3079,50.4706" style="stroke:#333333;stroke-width:0.71726307510814;"/><text fill="#000000" font-family="Arial" font-size="8.3681" lengthAdjust="spacing" textLength="77.7035" x="678.1125" y="197.9828">feedback may revise</text></g><rect fill="none" height="25.2221" id="_legend" rx="4.4829" ry="4.4829" style="stroke:#000000;stroke-width:0.5977192292567833;" width="190.6724" x="280.7786" y="373.8103"/><text fill="#000000" font-family="Arial" font-size="8.3681" lengthAdjust="spacing" textLength="184.6952" x="283.7672" y="384.6481">Solid arrows show refinement and evidence links.</text><text fill="#000000" font-family="Arial" font-size="8.3681" lengthAdjust="spacing" textLength="168.5568" x="283.7672" y="394.2705">Dotted arrow shows implementation learning.</text><!--SRC=[ZLHDRzim3BtxLt3jDKa_rhLR3mMosCQ2OKWN5xaiEoWM7GknAKEIqtc_VfISPKaRO0K2EAB9zvuVARvJb5UjH1YDBlXdNLUXlMWgGQwjgw4hiSPHmtyZfro5CADA4KBcj45GTLFnUtB2AKs0MoMHSWHN6XGoShe1fs6bdTCrI6KmztcHpGKZtTrUmhEIhepiHb4ZZAY1j4IB3LnzF0WQGHiVV7yOb5Y8jdAf9fUftmXNDv675xHcwBEnoKlb-DnwbUHOufBI-V3wm_3o2WH9-3xk3qiQnno_zV6oMnabmQ1jD5ay0s5X2kTfcbvF9eVmypv3hLIbNCTQh5hJaYObvXlTkW48AHg7PW3M-xGapyZrcdAk26O5y3cSnt7oERqx19-oN5C8jf7pdH6viqlwylJq2EF7QT2EM_uUi3dtHYmfCKOR6rxakcuOlPSL62Qd61xBpYhk0KZXn5xzL-pim7DQ9cNF-A18uY-qlVvQhKsGRWDoV0evmxmrtf8WNLTScb2XJHwcXEt0tA175grKxgylKkHxIp8uJwxJo_ZJaTyjELNZNcgCJQMx7fAP2hLkUsazebvPD5jnOCFi92essYfkKBUVt2LzumciM21FHUz6tu71acf1ga3hUgkT_nUm4yQ-YTFaQ48MQ5J17X_T2vwG7TxWdvl1b60QSpJSUMsOYRllMSAC7t0jU1edp7ORJM4uVE01kcV_2hwHqe-vteKdfyFno_0SXZzA9LdSJwFMfVEbqUHrCFQP_CmOO3yWDef3S7OSp5wNppmcFnFEtAyCrk2_S8l6iWl-P7Si_qsBtvQMlIrjzhQq9AGjE6qRUilHLHSjODGsemTU4_TG8CgLo3TGYuvztYgBKOLhPAH-1KQPhdY_2BwmpnPigPztxV2Skvkzsw2yP3Ts5CLSXxkAK61VxjmAXI55wr74F3tR7m00]--></g></svg>