<?xml version="1.0" encoding="us-ascii" standalone="no"?><svg xmlns="http://www.w3.org/2000/svg" xmlns:xlink="http://www.w3.org/1999/xlink" contentStyleType="text/css" height="805px" preserveAspectRatio="none" style="width:1429px;height:805px;background:#FFFFFF;" version="1.1" viewBox="0 0 1429 805" width="1429px" zoomAndPan="magnify"><defs/><g><text fill="#000000" font-family="Arial" font-size="14" font-weight="bold" lengthAdjust="spacing" textLength="313" x="551" y="23.1318">FIG-12-05. Horizon Bank Payment Attack Tree</text><!--entity Root--><g id="elem_Root"><rect fill="#F7F9FB" height="68.2959" rx="2.5" ry="2.5" style="stroke:#333333;stroke-width:0.5;" width="252" x="504.5" y="44.0986"/><text fill="#000000" font-family="Arial" font-size="14" lengthAdjust="spacing" textLength="61" x="514.5" y="67.2305">Root goal</text><text fill="#000000" font-family="Arial" font-size="14" lengthAdjust="spacing" textLength="232" x="514.5" y="83.3291">Cause an unauthorised or prohibited</text><text fill="#000000" font-family="Arial" font-size="14" lengthAdjust="spacing" textLength="208" x="514.5" y="99.4277">outgoing payment to be released</text></g><!--entity OrNode--><g id="elem_OrNode"><rect fill="#F7F9FB" height="52.1973" rx="2.5" ry="2.5" style="stroke:#333333;stroke-width:0.5;" width="168" x="546.5" y="173.0986"/><text fill="#000000" font-family="Arial" font-size="14" lengthAdjust="spacing" textLength="148" x="556.5" y="196.2305">Alternative attack paths</text><text fill="#000000" font-family="Arial" font-size="14" lengthAdjust="spacing" textLength="21" x="556.5" y="212.3291">OR</text></g><!--entity T1201--><g id="elem_T1201"><rect fill="#F7F9FB" height="84.3945" rx="2.5" ry="2.5" style="stroke:#333333;stroke-width:0.5;" width="181" x="7" y="303.0986"/><text fill="#000000" font-family="Arial" font-size="14" lengthAdjust="spacing" textLength="46" x="17" y="326.2305">T12-01</text><text fill="#000000" font-family="Arial" font-size="14" lengthAdjust="spacing" textLength="116" x="17" y="342.3291">Stolen or replayed</text><text fill="#000000" font-family="Arial" font-size="14" lengthAdjust="spacing" textLength="161" x="17" y="358.4277">customer session creates</text><text fill="#000000" font-family="Arial" font-size="14" lengthAdjust="spacing" textLength="66" x="17" y="374.5264">a payment</text></g><!--entity T1202--><g id="elem_T1202"><rect fill="#F7F9FB" height="84.3945" rx="2.5" ry="2.5" style="stroke:#333333;stroke-width:0.5;" width="216" x="223.5" y="303.0986"/><text fill="#000000" font-family="Arial" font-size="14" lengthAdjust="spacing" textLength="46" x="233.5" y="326.2305">T12-02</text><text fill="#000000" font-family="Arial" font-size="14" lengthAdjust="spacing" textLength="196" x="233.5" y="342.3291">Payment amount or beneficiary</text><text fill="#000000" font-family="Arial" font-size="14" lengthAdjust="spacing" textLength="159" x="233.5" y="358.4277">is tampered with between</text><text fill="#000000" font-family="Arial" font-size="14" lengthAdjust="spacing" textLength="133" x="233.5" y="374.5264">channel and platform</text></g><!--entity T1203--><g id="elem_T1203"><rect fill="#F7F9FB" height="84.3945" rx="2.5" ry="2.5" style="stroke:#333333;stroke-width:0.5;" width="175" x="475" y="303.0986"/><text fill="#000000" font-family="Arial" font-size="14" lengthAdjust="spacing" textLength="46" x="485" y="326.2305">T12-03</text><text fill="#000000" font-family="Arial" font-size="14" lengthAdjust="spacing" textLength="155" x="485" y="342.3291">Stolen service credential</text><text fill="#000000" font-family="Arial" font-size="14" lengthAdjust="spacing" textLength="106" x="485" y="358.4277">is used to submit</text><text fill="#000000" font-family="Arial" font-size="14" lengthAdjust="spacing" textLength="110" x="485" y="374.5264">a posting request</text></g><!--entity T1205--><g id="elem_T1205"><rect fill="#F7F9FB" height="84.3945" rx="2.5" ry="2.5" style="stroke:#333333;stroke-width:0.5;" width="176" x="685.5" y="303.0986"/><text fill="#000000" font-family="Arial" font-size="14" lengthAdjust="spacing" textLength="46" x="695.5" y="326.2305">T12-05</text><text fill="#000000" font-family="Arial" font-size="14" lengthAdjust="spacing" textLength="141" x="695.5" y="342.3291">Misuse or compromise</text><text fill="#000000" font-family="Arial" font-size="14" lengthAdjust="spacing" textLength="156" x="695.5" y="358.4277">privileged financial-crime</text><text fill="#000000" font-family="Arial" font-size="14" lengthAdjust="spacing" textLength="106" x="695.5" y="374.5264">release authority</text></g><!--entity T1207--><g id="elem_T1207"><rect fill="#F7F9FB" height="84.3945" rx="2.5" ry="2.5" style="stroke:#333333;stroke-width:0.5;" width="214" x="896.5" y="303.0986"/><text fill="#000000" font-family="Arial" font-size="14" lengthAdjust="spacing" textLength="46" x="906.5" y="326.2305">T12-07</text><text fill="#000000" font-family="Arial" font-size="14" lengthAdjust="spacing" textLength="194" x="906.5" y="342.3291">Weak entitlement or ownership</text><text fill="#000000" font-family="Arial" font-size="14" lengthAdjust="spacing" textLength="168" x="906.5" y="358.4277">validation permits payment</text><text fill="#000000" font-family="Arial" font-size="14" lengthAdjust="spacing" textLength="148" x="906.5" y="374.5264">from the wrong account</text></g><!--entity T1208--><g id="elem_T1208"><rect fill="#F7F9FB" height="52.1973" rx="2.5" ry="2.5" style="stroke:#333333;stroke-width:0.5;" width="211" x="1146" y="319.0986"/><text fill="#000000" font-family="Arial" font-size="14" lengthAdjust="spacing" textLength="46" x="1156" y="342.2305">T12-08</text><text fill="#000000" font-family="Arial" font-size="14" lengthAdjust="spacing" textLength="191" x="1156" y="358.3291">Operations repair misuse path</text></g><!--entity And1208--><g id="elem_And1208"><rect fill="#F7F9FB" height="36.0986" rx="2.5" ry="2.5" style="stroke:#333333;stroke-width:0.5;" width="48" x="1172.5" y="489.0986"/><text fill="#000000" font-family="Arial" font-size="14" lengthAdjust="spacing" textLength="28" x="1182.5" y="512.2305">AND</text></g><!--entity T1208a--><g id="elem_T1208a"><rect fill="#F7F9FB" height="52.1973" rx="2.5" ry="2.5" style="stroke:#333333;stroke-width:0.5;" width="214" x="966.5" y="618.0986"/><text fill="#000000" font-family="Arial" font-size="14" lengthAdjust="spacing" textLength="170" x="976.5" y="641.2305">Operations repair authority</text><text fill="#000000" font-family="Arial" font-size="14" lengthAdjust="spacing" textLength="194" x="976.5" y="657.3291">can modify an eligible payment</text></g><!--entity T1208b--><g id="elem_T1208b"><rect fill="#F7F9FB" height="68.2959" rx="2.5" ry="2.5" style="stroke:#333333;stroke-width:0.5;" width="207" x="1216" y="610.0986"/><text fill="#000000" font-family="Arial" font-size="14" lengthAdjust="spacing" textLength="187" x="1226" y="633.2305">Required separation of duties</text><text fill="#000000" font-family="Arial" font-size="14" lengthAdjust="spacing" textLength="126" x="1226" y="649.3291">is absent, bypassed</text><text fill="#000000" font-family="Arial" font-size="14" lengthAdjust="spacing" textLength="142" x="1226" y="665.4277">or incorrectly enforced</text></g><!--entity M1201--><g id="elem_M1201"><rect fill="#FFF8DC" height="84.3945" rx="2.5" ry="2.5" style="stroke:#333333;stroke-width:0.5;" width="157" x="19" y="465.0986"/><text fill="#000000" font-family="Arial" font-size="14" lengthAdjust="spacing" textLength="92" x="29" y="488.2305">Mitigation note</text><text fill="#000000" font-family="Arial" font-size="14" lengthAdjust="spacing" textLength="137" x="29" y="504.3291">strong authentication,</text><text fill="#000000" font-family="Arial" font-size="14" lengthAdjust="spacing" textLength="119" x="29" y="520.4277">session protection,</text><text fill="#000000" font-family="Arial" font-size="14" lengthAdjust="spacing" textLength="100" x="29" y="536.5264">step-up triggers</text></g><!--entity M1202--><g id="elem_M1202"><rect fill="#FFF8DC" height="84.3945" rx="2.5" ry="2.5" style="stroke:#333333;stroke-width:0.5;" width="158" x="252.5" y="465.0986"/><text fill="#000000" font-family="Arial" font-size="14" lengthAdjust="spacing" textLength="92" x="262.5" y="488.2305">Mitigation note</text><text fill="#000000" font-family="Arial" font-size="14" lengthAdjust="spacing" textLength="115" x="262.5" y="504.3291">message integrity,</text><text fill="#000000" font-family="Arial" font-size="14" lengthAdjust="spacing" textLength="116" x="262.5" y="520.4277">request validation,</text><text fill="#000000" font-family="Arial" font-size="14" lengthAdjust="spacing" textLength="138" x="262.5" y="536.5264">immutable audit event</text></g><!--entity M1203--><g id="elem_M1203"><rect fill="#FFF8DC" height="84.3945" rx="2.5" ry="2.5" style="stroke:#333333;stroke-width:0.5;" width="134" x="495.5" y="465.0986"/><text fill="#000000" font-family="Arial" font-size="14" lengthAdjust="spacing" textLength="92" x="505.5" y="488.2305">Mitigation note</text><text fill="#000000" font-family="Arial" font-size="14" lengthAdjust="spacing" textLength="98" x="505.5" y="504.3291">service identity,</text><text fill="#000000" font-family="Arial" font-size="14" lengthAdjust="spacing" textLength="99" x="505.5" y="520.4277">state validation,</text><text fill="#000000" font-family="Arial" font-size="14" lengthAdjust="spacing" textLength="114" x="505.5" y="536.5264">credential rotation</text></g><!--entity M1205--><g id="elem_M1205"><rect fill="#FFF8DC" height="84.3945" rx="2.5" ry="2.5" style="stroke:#333333;stroke-width:0.5;" width="141" x="703" y="465.0986"/><text fill="#000000" font-family="Arial" font-size="14" lengthAdjust="spacing" textLength="92" x="713" y="488.2305">Mitigation note</text><text fill="#000000" font-family="Arial" font-size="14" lengthAdjust="spacing" textLength="110" x="713" y="504.3291">case assignment,</text><text fill="#000000" font-family="Arial" font-size="14" lengthAdjust="spacing" textLength="69" x="713" y="520.4277">role check,</text><text fill="#000000" font-family="Arial" font-size="14" lengthAdjust="spacing" textLength="121" x="713" y="536.5264">exception evidence</text></g><!--entity M1207--><g id="elem_M1207"><rect fill="#FFF8DC" height="84.3945" rx="2.5" ry="2.5" style="stroke:#333333;stroke-width:0.5;" width="157" x="925" y="465.0986"/><text fill="#000000" font-family="Arial" font-size="14" lengthAdjust="spacing" textLength="92" x="935" y="488.2305">Mitigation note</text><text fill="#000000" font-family="Arial" font-size="14" lengthAdjust="spacing" textLength="109" x="935" y="504.3291">ownership check,</text><text fill="#000000" font-family="Arial" font-size="14" lengthAdjust="spacing" textLength="137" x="935" y="520.4277">entitlement validation,</text><text fill="#000000" font-family="Arial" font-size="14" lengthAdjust="spacing" textLength="97" x="935" y="536.5264">deny by default</text></g><!--entity M1208--><g id="elem_M1208"><rect fill="#FFF8DC" height="84.3945" rx="2.5" ry="2.5" style="stroke:#333333;stroke-width:0.5;" width="161" x="1256" y="465.0986"/><text fill="#000000" font-family="Arial" font-size="14" lengthAdjust="spacing" textLength="92" x="1266" y="488.2305">Mitigation note</text><text fill="#000000" font-family="Arial" font-size="14" lengthAdjust="spacing" textLength="126" x="1266" y="504.3291">maker-checker rule,</text><text fill="#000000" font-family="Arial" font-size="14" lengthAdjust="spacing" textLength="141" x="1266" y="520.4277">repair-state validation,</text><text fill="#000000" font-family="Arial" font-size="14" lengthAdjust="spacing" textLength="82" x="1266" y="536.5264">release audit</text></g><!--link Root to OrNode--><g id="link_Root_OrNode"><path d="M630.5,112.2486 C630.5,131.4986 630.5,149.3686 630.5,167.0486 " fill="none" id="Root-to-OrNode" style="stroke:#333333;stroke-width:1.2;"/><polygon fill="#333333" points="630.5,173.0486,634.5,164.0486,630.5,168.0486,626.5,164.0486,630.5,173.0486" style="stroke:#333333;stroke-width:1.2;"/></g><!--link OrNode to T1201--><g id="link_OrNode_T1201"><path d="M546.19,217.2686 C459.83,235.6186 322.08,266.9986 205.5,303.0986 C199.85,304.8486 199.7493,304.8032 193.9393,306.7832 " fill="none" id="OrNode-to-T1201" style="stroke:#333333;stroke-width:1.2;"/><polygon fill="#333333" points="188.26,308.7186,198.0692,309.6016,192.9927,307.1058,195.4886,302.0293,188.26,308.7186" style="stroke:#333333;stroke-width:1.2;"/><text fill="#000000" font-family="Arial" font-size="14" lengthAdjust="spacing" textLength="21" x="380.5" y="269.2305">OR</text></g><!--link OrNode to T1202--><g id="link_OrNode_T1202"><path d="M578.42,225.1786 C533.91,246.6186 474.4056,275.2749 422.3156,300.3649 " fill="none" id="OrNode-to-T1202" style="stroke:#333333;stroke-width:1.2;"/><polygon fill="#333333" points="416.91,302.9686,426.7542,302.6668,421.4147,300.7989,423.2826,295.4593,416.91,302.9686" style="stroke:#333333;stroke-width:1.2;"/><text fill="#000000" font-family="Arial" font-size="14" lengthAdjust="spacing" textLength="21" x="509.5" y="269.2305">OR</text></g><!--link OrNode to T1203--><g id="link_OrNode_T1203"><path d="M618.66,225.1786 C608.53,246.6186 596.3324,272.4533 584.4824,297.5433 " fill="none" id="OrNode-to-T1203" style="stroke:#333333;stroke-width:1.2;"/><polygon fill="#333333" points="581.92,302.9686,589.3805,296.5389,584.0553,298.4475,582.1467,293.1224,581.92,302.9686" style="stroke:#333333;stroke-width:1.2;"/><text fill="#000000" font-family="Arial" font-size="14" lengthAdjust="spacing" textLength="21" x="604.5" y="269.2305">OR</text></g><!--link OrNode to T1205--><g id="link_OrNode_T1205"><path d="M655.41,225.1786 C676.69,246.6186 703.5127,273.6207 728.4227,298.7107 " fill="none" id="OrNode-to-T1205" style="stroke:#333333;stroke-width:1.2;"/><polygon fill="#333333" points="732.65,302.9686,729.1476,293.7636,729.1272,299.4204,723.4704,299.4,732.65,302.9686" style="stroke:#333333;stroke-width:1.2;"/><text fill="#000000" font-family="Arial" font-size="14" lengthAdjust="spacing" textLength="21" x="703.5" y="269.2305">OR</text></g><!--link OrNode to T1207--><g id="link_OrNode_T1207"><path d="M695.47,225.1786 C750.99,246.6186 826.3625,275.718 891.3625,300.808 " fill="none" id="OrNode-to-T1207" style="stroke:#333333;stroke-width:1.2;"/><polygon fill="#333333" points="896.96,302.9686,890.0042,295.996,892.2954,301.1681,887.1234,303.4593,896.96,302.9686" style="stroke:#333333;stroke-width:1.2;"/><text fill="#000000" font-family="Arial" font-size="14" lengthAdjust="spacing" textLength="21" x="818.5" y="269.2305">OR</text></g><!--link OrNode to T1208--><g id="link_OrNode_T1208"><path d="M714.73,214.4986 C814.14,232.1986 984.08,264.6586 1127.5,303.0986 C1144.8,307.7386 1157.5271,311.5541 1174.7471,317.1841 " fill="none" id="OrNode-to-T1208" style="stroke:#333333;stroke-width:1.2;"/><polygon fill="#333333" points="1180.45,319.0486,1173.1386,312.4499,1175.6976,317.4948,1170.6526,320.0538,1180.45,319.0486" style="stroke:#333333;stroke-width:1.2;"/><text fill="#000000" font-family="Arial" font-size="14" lengthAdjust="spacing" textLength="21" x="1007.5" y="269.2305">OR</text></g><!--link T1208 to And1208--><g id="link_T1208_And1208"><path d="M1242.79,371.4486 C1231.52,404.2286 1214.1408,454.7846 1204.4108,483.0846 " fill="none" id="T1208-to-And1208" style="stroke:#333333;stroke-width:1.2;"/><polygon fill="#333333" points="1202.46,488.7586,1209.1689,481.5482,1204.0857,484.0303,1201.6036,478.9471,1202.46,488.7586" style="stroke:#333333;stroke-width:1.2;"/></g><!--link And1208 to T1208a--><g id="link_And1208_T1208a"><path d="M1180.92,525.1986 C1159.59,548.6086 1125.1713,586.3838 1100.5213,613.4338 " fill="none" id="And1208-to-T1208a" style="stroke:#333333;stroke-width:1.2;"/><polygon fill="#333333" points="1096.48,617.8686,1105.4986,613.9106,1099.8478,614.173,1099.5855,608.5222,1096.48,617.8686" style="stroke:#333333;stroke-width:1.2;"/></g><!--link And1208 to T1208b--><g id="link_And1208_T1208b"><path d="M1212.08,525.1986 C1231.41,546.4086 1260.7487,578.6238 1285.1887,605.4438 " fill="none" id="And1208-to-T1208b" style="stroke:#333333;stroke-width:1.2;"/><polygon fill="#333333" points="1289.23,609.8786,1286.1246,600.5322,1285.8622,606.1829,1280.2115,605.9206,1289.23,609.8786" style="stroke:#333333;stroke-width:1.2;"/></g><!--link T1201 to M1201--><g id="link_T1201_M1201"><path d="M97.5,387.2986 C97.5,411.1886 97.5,435.1686 97.5,459.0386 " fill="none" id="T1201-to-M1201" style="stroke:#333333;stroke-width:1.2;stroke-dasharray:7.0,7.0;"/><polygon fill="#333333" points="97.5,465.0386,101.5,456.0386,97.5,460.0386,93.5,456.0386,97.5,465.0386" style="stroke:#333333;stroke-width:1.2;"/><text fill="#000000" font-family="Arial" font-size="14" lengthAdjust="spacing" textLength="60" x="98.5" y="431.2305">mitigation</text></g><!--link T1202 to M1202--><g id="link_T1202_M1202"><path d="M331.5,387.2986 C331.5,411.1886 331.5,435.1686 331.5,459.0386 " fill="none" id="T1202-to-M1202" style="stroke:#333333;stroke-width:1.2;stroke-dasharray:7.0,7.0;"/><polygon fill="#333333" points="331.5,465.0386,335.5,456.0386,331.5,460.0386,327.5,456.0386,331.5,465.0386" style="stroke:#333333;stroke-width:1.2;"/><text fill="#000000" font-family="Arial" font-size="14" lengthAdjust="spacing" textLength="60" x="332.5" y="431.2305">mitigation</text></g><!--link T1203 to M1203--><g id="link_T1203_M1203"><path d="M562.5,387.2986 C562.5,411.1886 562.5,435.1686 562.5,459.0386 " fill="none" id="T1203-to-M1203" style="stroke:#333333;stroke-width:1.2;stroke-dasharray:7.0,7.0;"/><polygon fill="#333333" points="562.5,465.0386,566.5,456.0386,562.5,460.0386,558.5,456.0386,562.5,465.0386" style="stroke:#333333;stroke-width:1.2;"/><text fill="#000000" font-family="Arial" font-size="14" lengthAdjust="spacing" textLength="60" x="563.5" y="431.2305">mitigation</text></g><!--link T1205 to M1205--><g id="link_T1205_M1205"><path d="M773.5,387.2986 C773.5,411.1886 773.5,435.1686 773.5,459.0386 " fill="none" id="T1205-to-M1205" style="stroke:#333333;stroke-width:1.2;stroke-dasharray:7.0,7.0;"/><polygon fill="#333333" points="773.5,465.0386,777.5,456.0386,773.5,460.0386,769.5,456.0386,773.5,465.0386" style="stroke:#333333;stroke-width:1.2;"/><text fill="#000000" font-family="Arial" font-size="14" lengthAdjust="spacing" textLength="60" x="774.5" y="431.2305">mitigation</text></g><!--link T1207 to M1207--><g id="link_T1207_M1207"><path d="M1003.5,387.2986 C1003.5,411.1886 1003.5,435.1686 1003.5,459.0386 " fill="none" id="T1207-to-M1207" style="stroke:#333333;stroke-width:1.2;stroke-dasharray:7.0,7.0;"/><polygon fill="#333333" points="1003.5,465.0386,1007.5,456.0386,1003.5,460.0386,999.5,456.0386,1003.5,465.0386" style="stroke:#333333;stroke-width:1.2;"/><text fill="#000000" font-family="Arial" font-size="14" lengthAdjust="spacing" textLength="60" x="1004.5" y="431.2305">mitigation</text></g><!--link T1208 to M1208--><g id="link_T1208_M1208"><path d="M1264.97,371.4486 C1278.31,396.5686 1296.1455,430.1397 1311.8355,459.6797 " fill="none" id="T1208-to-M1208" style="stroke:#333333;stroke-width:1.2;stroke-dasharray:7.0,7.0;"/><polygon fill="#333333" points="1314.65,464.9786,1313.9609,455.1539,1312.3046,460.5629,1306.8956,458.9066,1314.65,464.9786" style="stroke:#333333;stroke-width:1.2;"/><text fill="#000000" font-family="Arial" font-size="14" lengthAdjust="spacing" textLength="60" x="1298.5" y="431.2305">mitigation</text></g><rect fill="none" height="90.4932" id="_legend" rx="7.5" ry="7.5" style="stroke:#000000;stroke-width:1.0;" width="706" x="354.5" y="695.3945"/><text fill="#000000" font-family="Arial" font-size="14" lengthAdjust="spacing" textLength="467" x="359.5" y="713.5264">Solid arrows are attack-tree paths. Dotted arrows point to mitigation notes.</text><text fill="#000000" font-family="Arial" font-size="14" lengthAdjust="spacing" textLength="406" x="359.5" y="729.625">OR means any listed attack path may contribute to the root goal.</text><text fill="#000000" font-family="Arial" font-size="14" lengthAdjust="spacing" textLength="489" x="359.5" y="745.7236">The T12-08 AND node means both child conditions are required for that path.</text><text fill="#000000" font-family="Arial" font-size="14" lengthAdjust="spacing" textLength="696" x="359.5" y="761.8223">Excluded threats: T12-04 concerns attribution and evidence. T12-06 concerns excessive event-data exposure.</text><text fill="#000000" font-family="Arial" font-size="14" lengthAdjust="spacing" textLength="325" x="359.5" y="777.9209">Neither directly achieves this attack tree's root goal.</text><!--SRC=[bLPDR-Cs4BthLqotXruYxSQkrsuE2-IZQNj8KcG3xCKNMXhBX2LI9IbdlKN_UzzGbXolWY8r0iIU8TzylPdX3zhaLLimPTbx_FcmhzY_RofbGbjNQTXmpLc3hqaIR4F1qig6O6igjECyQ6kIe4F5TFl7R-dv9Fqmo-Xtw_GtQ-XAcItzgVOrcq2N8QXyIq-EEKdyLfj6ELMJW2XJ0k3lXEZAkeBTjQsien-dyIDIN2oTRKrnqDpERt-vlKh-UO6JsxgnHWpz7vpu0KvoTEFTexM1IgkgfRbMhMTIXbgZsh11M9uBmit6sOrUwS35qjWsb5QRaff3f98ZHc0LAnn_HygJOBwqSLa5TaO5lGDybvX6XOrVceV7UE71tTk2J_nwakoUBytdO2isueLZr6alFkIjHqtOaMVlKHFA7Ql0m5EzMn4M61_EHw2JfUchf6ga9mZuYWslTQwLso-DzXHKtR13-CywRA0Dpym6bZVA6AwGf8BWJLXRLm-c9YDJqy5_pswdSnPF2rZMac-OQIN3oA1lLxKEqN_hWwJNyLyj-sCSqn7uR6dkj9UImNyXXBCrAhOqZTCxNN49wBKsoY2gAisThg4xr8aE1GxxmS1iP62-D5zORKdy1UTZnc3AFXjsVgERfTcfIXTAseAGBKJW-_mlpHhk41gAdfr5F2hF9TU3kVd8t09q04g4yr9jfHtLNOH2b-7gueHRzpTHSMcAxrLZj25gL18yhssXrtjXF5UwrAkAH_HPg9DcGL6qiCApz64CtAwfQ8CMzg6WQkLn_OnM-qPv7nl64OQETG9JxP5CS2O_D4gqi3hX_PqEkkoGZGsec0zT_k2w52AFkZF83zn7sKCtcaGOk4bR32wdon9LYbRkf0rY-ozkhl_JLWrCLJ8S3bnAdiw4CP68TAmrXBgksw0aOQejT23UzKaJOvCt6UjRGiU6YBPyG1kVMZes327GA1tiJDza9uzyHx9A8wMLaD2Ib6yut-87VysvYSTv9wxaFE3FteG_zCCHyaN3d0G3-3seGGMlLLiT4pP_MtNKbbqQZM3skRRYM1vXTlfAvewjZWeDfXQ3gIIE_ZJzr8_Vxb-KnCb95_Jm-Brqygfq-gfqzgfq_gfqqKcxhoBi6_hm_tXGZKLeeSxZBFjqeFi5HaUVlwHpl5TEnihfe9oEbRD1EHihvuDoFbOk1kNYL9d8UCOEwLuNoMUBkf5opZvZXBX-IwO1puTkLMPqWwCy76gmW-FkhKzPuhFauP5gLXXw2cIhj8-tZbkNQhN7kZ0O4QiMd066J6dNlmEov0a_kubCcAw0HPawHBYx0SjrLGW2Q1M7gpZi-ic8wGOy5QAjBFdrQtnlOSbjP4VxYmxvPxcVur7WnRNeYKGWQxNlmgmx-V5uKZeLROn7H1mtAPYk8CJ6R1rdoJrZLQCnkgSQHgs2fpY9PRxHla-1fFGd_p9SrA6hnhy0]--></g></svg>