<?xml version="1.0" encoding="us-ascii" standalone="no"?><svg xmlns="http://www.w3.org/2000/svg" xmlns:xlink="http://www.w3.org/1999/xlink" contentStyleType="text/css" height="688px" preserveAspectRatio="none" style="width:1365px;height:688px;background:#FFFFFF;" version="1.1" viewBox="0 0 1365 688" width="1365px" zoomAndPan="magnify"><defs/><g><text fill="#000000" font-family="Arial" font-size="14" font-weight="bold" lengthAdjust="spacing" textLength="350" x="500.5" y="23.1318">FIG-07-02. Horizon Bank layered architecture view</text><!--entity cap_customer--><g id="elem_cap_customer"><rect fill="#E8F1FA" height="68.2959" rx="4" ry="4" style="stroke:#333333;stroke-width:0.5;" width="167" x="976.5" y="44.0986"/><text fill="#000000" font-family="Arial" font-size="14" lengthAdjust="spacing" textLength="147" x="986.5" y="67.2305">Customer Management</text><text fill="#000000" font-family="Arial" font-size="14" lengthAdjust="spacing" textLength="78" x="986.5" y="83.3291">&#171;Capability&#187;</text><text fill="#000000" font-family="Arial" font-size="14" lengthAdjust="spacing" textLength="103" x="986.5" y="99.4277">Strategy domain</text></g><!--entity cap_onboarding--><g id="elem_cap_onboarding"><rect fill="#E8F1FA" height="68.2959" rx="4" ry="4" style="stroke:#333333;stroke-width:0.5;" width="160" x="980" y="172.0986"/><text fill="#000000" font-family="Arial" font-size="14" lengthAdjust="spacing" textLength="140" x="990" y="195.2305">Customer Onboarding</text><text fill="#000000" font-family="Arial" font-size="14" lengthAdjust="spacing" textLength="78" x="990" y="211.3291">&#171;Capability&#187;</text><text fill="#000000" font-family="Arial" font-size="14" lengthAdjust="spacing" textLength="103" x="990" y="227.4277">Strategy domain</text></g><!--entity actor_bank--><g id="elem_actor_bank"><rect fill="#FFF4D6" height="68.2959" rx="4" ry="4" style="stroke:#333333;stroke-width:0.5;" width="127" x="399.5" y="44.0986"/><text fill="#000000" font-family="Arial" font-size="14" lengthAdjust="spacing" textLength="83" x="409.5" y="67.2305">Horizon Bank</text><text fill="#000000" font-family="Arial" font-size="14" lengthAdjust="spacing" textLength="49" x="409.5" y="83.3291">&#171;Actor&#187;</text><text fill="#000000" font-family="Arial" font-size="14" lengthAdjust="spacing" textLength="107" x="409.5" y="99.4277">Business domain</text></g><!--entity role_provider--><g id="elem_role_provider"><rect fill="#FFF4D6" height="68.2959" rx="4" ry="4" style="stroke:#333333;stroke-width:0.5;" width="128" x="399" y="172.0986"/><text fill="#000000" font-family="Arial" font-size="14" lengthAdjust="spacing" textLength="108" x="409" y="195.2305">Account Provider</text><text fill="#000000" font-family="Arial" font-size="14" lengthAdjust="spacing" textLength="45" x="409" y="211.3291">&#171;Role&#187;</text><text fill="#000000" font-family="Arial" font-size="14" lengthAdjust="spacing" textLength="107" x="409" y="227.4277">Business domain</text></g><!--entity bp_onboarding--><g id="elem_bp_onboarding"><rect fill="#FFF4D6" height="84.3945" rx="4" ry="4" style="stroke:#333333;stroke-width:0.5;" width="160" x="383" y="300.0986"/><text fill="#000000" font-family="Arial" font-size="14" lengthAdjust="spacing" textLength="140" x="393" y="323.2305">Customer Onboarding</text><text fill="#000000" font-family="Arial" font-size="14" lengthAdjust="spacing" textLength="51" x="393" y="339.3291">Process</text><text fill="#000000" font-family="Arial" font-size="14" lengthAdjust="spacing" textLength="67" x="393" y="355.4277">&#171;Process&#187;</text><text fill="#000000" font-family="Arial" font-size="14" lengthAdjust="spacing" textLength="107" x="393" y="371.5264">Business domain</text></g><!--entity bs_open_profile--><g id="elem_bs_open_profile"><rect fill="#FFF4D6" height="84.3945" rx="4" ry="4" style="stroke:#333333;stroke-width:0.5;" width="164" x="978" y="300.0986"/><text fill="#000000" font-family="Arial" font-size="14" lengthAdjust="spacing" textLength="144" x="988" y="323.2305">Open Customer Profile</text><text fill="#000000" font-family="Arial" font-size="14" lengthAdjust="spacing" textLength="47" x="988" y="339.3291">Service</text><text fill="#000000" font-family="Arial" font-size="14" lengthAdjust="spacing" textLength="63" x="988" y="355.4277">&#171;Service&#187;</text><text fill="#000000" font-family="Arial" font-size="14" lengthAdjust="spacing" textLength="107" x="988" y="371.5264">Business domain</text></g><!--entity bo_customer--><g id="elem_bo_customer"><rect fill="#F7F9FB" height="68.2959" rx="4" ry="4" style="stroke:#333333;stroke-width:0.5;" width="138" x="7" y="452.0986"/><text fill="#000000" font-family="Arial" font-size="14" lengthAdjust="spacing" textLength="111" x="17" y="475.2305">Customer Record</text><text fill="#000000" font-family="Arial" font-size="14" lengthAdjust="spacing" textLength="118" x="17" y="491.3291">&#171;Business Object&#187;</text><text fill="#000000" font-family="Arial" font-size="14" lengthAdjust="spacing" textLength="107" x="17" y="507.4277">Business domain</text></g><!--entity app_party--><g id="elem_app_party"><rect fill="#EAF6E8" height="84.3945" rx="4" ry="4" style="stroke:#333333;stroke-width:0.5;" width="182" x="166" y="300.0986"/><text fill="#000000" font-family="Arial" font-size="14" lengthAdjust="spacing" textLength="126" x="176" y="323.2305">Party and Customer</text><text fill="#000000" font-family="Arial" font-size="14" lengthAdjust="spacing" textLength="52" x="176" y="339.3291">Platform</text><text fill="#000000" font-family="Arial" font-size="14" lengthAdjust="spacing" textLength="162" x="176" y="355.4277">&#171;Application Component&#187;</text><text fill="#000000" font-family="Arial" font-size="14" lengthAdjust="spacing" textLength="119" x="176" y="371.5264">Application domain</text></g><!--entity app_func--><g id="elem_app_func"><rect fill="#EAF6E8" height="84.3945" rx="4" ry="4" style="stroke:#333333;stroke-width:0.5;" width="161" x="180.5" y="444.0986"/><text fill="#000000" font-family="Arial" font-size="14" lengthAdjust="spacing" textLength="105" x="190.5" y="467.2305">Customer Profile</text><text fill="#000000" font-family="Arial" font-size="14" lengthAdjust="spacing" textLength="141" x="190.5" y="483.3291">Management Function</text><text fill="#000000" font-family="Arial" font-size="14" lengthAdjust="spacing" textLength="71" x="190.5" y="499.4277">&#171;Function&#187;</text><text fill="#000000" font-family="Arial" font-size="14" lengthAdjust="spacing" textLength="119" x="190.5" y="515.5264">Application domain</text></g><!--entity app_service--><g id="elem_app_service"><rect fill="#EAF6E8" height="84.3945" rx="4" ry="4" style="stroke:#333333;stroke-width:0.5;" width="153" x="383.5" y="444.0986"/><text fill="#000000" font-family="Arial" font-size="14" lengthAdjust="spacing" textLength="105" x="393.5" y="467.2305">Customer Profile</text><text fill="#000000" font-family="Arial" font-size="14" lengthAdjust="spacing" textLength="133" x="393.5" y="483.3291">Management Service</text><text fill="#000000" font-family="Arial" font-size="14" lengthAdjust="spacing" textLength="63" x="393.5" y="499.4277">&#171;Service&#187;</text><text fill="#000000" font-family="Arial" font-size="14" lengthAdjust="spacing" textLength="119" x="393.5" y="515.5264">Application domain</text></g><!--entity app_onboarding--><g id="elem_app_onboarding"><rect fill="#EAF6E8" height="84.3945" rx="4" ry="4" style="stroke:#333333;stroke-width:0.5;" width="182" x="761" y="300.0986"/><text fill="#000000" font-family="Arial" font-size="14" lengthAdjust="spacing" textLength="140" x="771" y="323.2305">Customer Onboarding</text><text fill="#000000" font-family="Arial" font-size="14" lengthAdjust="spacing" textLength="52" x="771" y="339.3291">Platform</text><text fill="#000000" font-family="Arial" font-size="14" lengthAdjust="spacing" textLength="162" x="771" y="355.4277">&#171;Application Component&#187;</text><text fill="#000000" font-family="Arial" font-size="14" lengthAdjust="spacing" textLength="119" x="771" y="371.5264">Application domain</text></g><!--entity app_fincrime--><g id="elem_app_fincrime"><rect fill="#EAF6E8" height="84.3945" rx="4" ry="4" style="stroke:#333333;stroke-width:0.5;" width="182" x="1177" y="300.0986"/><text fill="#000000" font-family="Arial" font-size="14" lengthAdjust="spacing" textLength="98" x="1187" y="323.2305">Financial Crime</text><text fill="#000000" font-family="Arial" font-size="14" lengthAdjust="spacing" textLength="52" x="1187" y="339.3291">Platform</text><text fill="#000000" font-family="Arial" font-size="14" lengthAdjust="spacing" textLength="162" x="1187" y="355.4277">&#171;Application Component&#187;</text><text fill="#000000" font-family="Arial" font-size="14" lengthAdjust="spacing" textLength="119" x="1187" y="371.5264">Application domain</text></g><!--entity tech_node--><g id="elem_tech_node"><rect fill="#F1E8FA" height="84.3945" rx="4" ry="4" style="stroke:#333333;stroke-width:0.5;" width="147" x="578.5" y="300.0986"/><text fill="#000000" font-family="Arial" font-size="14" lengthAdjust="spacing" textLength="125" x="588.5" y="323.2305">Application Runtime</text><text fill="#000000" font-family="Arial" font-size="14" lengthAdjust="spacing" textLength="33" x="588.5" y="339.3291">Node</text><text fill="#000000" font-family="Arial" font-size="14" lengthAdjust="spacing" textLength="127" x="588.5" y="355.4277">&#171;Technology Node&#187;</text><text fill="#000000" font-family="Arial" font-size="14" lengthAdjust="spacing" textLength="124" x="588.5" y="371.5264">Technology domain</text></g><!--entity tech_func--><g id="elem_tech_func"><rect fill="#F1E8FA" height="84.3945" rx="4" ry="4" style="stroke:#333333;stroke-width:0.5;" width="144" x="580" y="444.0986"/><text fill="#000000" font-family="Arial" font-size="14" lengthAdjust="spacing" textLength="103" x="590" y="467.2305">Runtime Hosting</text><text fill="#000000" font-family="Arial" font-size="14" lengthAdjust="spacing" textLength="55" x="590" y="483.3291">Function</text><text fill="#000000" font-family="Arial" font-size="14" lengthAdjust="spacing" textLength="71" x="590" y="499.4277">&#171;Function&#187;</text><text fill="#000000" font-family="Arial" font-size="14" lengthAdjust="spacing" textLength="124" x="590" y="515.5264">Technology domain</text></g><!--entity tech_service--><g id="elem_tech_service"><rect fill="#F1E8FA" height="84.3945" rx="4" ry="4" style="stroke:#333333;stroke-width:0.5;" width="144" x="759" y="444.0986"/><text fill="#000000" font-family="Arial" font-size="14" lengthAdjust="spacing" textLength="103" x="769" y="467.2305">Runtime Hosting</text><text fill="#000000" font-family="Arial" font-size="14" lengthAdjust="spacing" textLength="47" x="769" y="483.3291">Service</text><text fill="#000000" font-family="Arial" font-size="14" lengthAdjust="spacing" textLength="63" x="769" y="499.4277">&#171;Service&#187;</text><text fill="#000000" font-family="Arial" font-size="14" lengthAdjust="spacing" textLength="124" x="769" y="515.5264">Technology domain</text></g><!--link cap_customer to cap_onboarding--><g id="link_cap_customer_cap_onboarding"><path d="M1060,112.3986 C1060,130.7686 1060,147.3186 1060,165.6986 " fill="none" id="cap_customer-to-cap_onboarding" style="stroke:#333333;stroke-width:1.2;"/><polygon fill="#333333" points="1060,171.6986,1064,162.6986,1060,166.6986,1056,162.6986,1060,171.6986" style="stroke:#333333;stroke-width:1.2;"/><text fill="#000000" font-family="Arial" font-size="14" lengthAdjust="spacing" textLength="10" x="1049" y="138.1805">C</text></g><!--link actor_bank to role_provider--><g id="link_actor_bank_role_provider"><path d="M463,112.3986 C463,130.7686 463,147.3186 463,165.6986 " fill="none" id="actor_bank-to-role_provider" style="stroke:#333333;stroke-width:1.2;"/><polygon fill="#333333" points="463,171.6986,467,162.6986,463,166.6986,459,162.6986,463,171.6986" style="stroke:#333333;stroke-width:1.2;"/><text fill="#000000" font-family="Arial" font-size="14" lengthAdjust="spacing" textLength="9" x="453" y="138.1805">A</text></g><!--link role_provider to bp_onboarding--><g id="link_role_provider_bp_onboarding"><path d="M463,240.4186 C463,258.5186 463,274.8686 463,294.0086 " fill="none" id="role_provider-to-bp_onboarding" style="stroke:#333333;stroke-width:1.2;"/><polygon fill="#333333" points="463,300.0086,467,291.0086,463,295.0086,459,291.0086,463,300.0086" style="stroke:#333333;stroke-width:1.2;"/><text fill="#000000" font-family="Arial" font-size="14" lengthAdjust="spacing" textLength="9" x="453" y="266.3505">A</text></g><!--link bp_onboarding to bs_open_profile--><g id="link_bp_onboarding_bs_open_profile"><path d="M535,299.7986 C535,284.1286 535,270.0986 535,270.0986 C535,270.0986 1033.33,270.0986 1033.33,270.0986 C1033.33,270.0986 1033.33,278.1286 1033.33,293.7986 " fill="none" id="bp_onboarding-to-bs_open_profile" style="stroke:#333333;stroke-width:1.2;"/><polygon fill="#333333" points="1033.33,299.7986,1037.33,290.7986,1033.33,294.7986,1029.33,290.7986,1033.33,299.7986" style="stroke:#333333;stroke-width:1.2;"/><text fill="#000000" font-family="Arial" font-size="14" lengthAdjust="spacing" textLength="10" x="773.17" y="266.2305">R</text></g><!--reverse link cap_onboarding to bs_open_profile--><g id="link_cap_onboarding_bs_open_profile"><path d="M1086.67,246.4186 C1086.67,264.5186 1086.67,280.8686 1086.67,300.0086 " fill="none" id="cap_onboarding-backto-bs_open_profile" style="stroke:#333333;stroke-width:1.2;"/><polygon fill="#333333" points="1086.67,240.4186,1082.67,249.4186,1086.67,245.4186,1090.67,249.4186,1086.67,240.4186" style="stroke:#333333;stroke-width:1.2;"/><text fill="#000000" font-family="Arial" font-size="14" lengthAdjust="spacing" textLength="9" x="1076.67" y="266.3505">S</text></g><!--link app_party to app_func--><g id="link_app_party_app_func"><path d="M234.17,384.1386 C234.17,402.8986 234.17,418.9586 234.17,437.7586 " fill="none" id="app_party-to-app_func" style="stroke:#333333;stroke-width:1.2;"/><polygon fill="#333333" points="234.17,443.7586,238.17,434.7586,234.17,438.7586,230.17,434.7586,234.17,443.7586" style="stroke:#333333;stroke-width:1.2;"/><text fill="#000000" font-family="Arial" font-size="14" lengthAdjust="spacing" textLength="9" x="224.17" y="410.0805">A</text></g><!--link app_func to app_service--><g id="link_app_func_app_service"><path d="M341.65,486.0986 C355.44,486.0986 363.74,486.0986 377.42,486.0986 " fill="none" id="app_func-to-app_service" style="stroke:#333333;stroke-width:1.2;"/><polygon fill="#333333" points="383.42,486.0986,374.42,482.0986,378.42,486.0986,374.42,490.0986,383.42,486.0986" style="stroke:#333333;stroke-width:1.2;"/><text fill="#000000" font-family="Arial" font-size="14" lengthAdjust="spacing" textLength="10" x="351.54" y="482.2305">R</text></g><!--reverse link bp_onboarding to app_service--><g id="link_bp_onboarding_app_service"><path d="M460,390.1386 C460,408.8986 460,424.9586 460,443.7586 " fill="none" id="bp_onboarding-backto-app_service" style="stroke:#333333;stroke-width:1.2;"/><polygon fill="#333333" points="460,384.1386,456,393.1386,460,389.1386,464,393.1386,460,384.1386" style="stroke:#333333;stroke-width:1.2;"/><text fill="#000000" font-family="Arial" font-size="14" lengthAdjust="spacing" textLength="9" x="450" y="410.0805">S</text></g><!--reverse link bo_customer to app_func--><g id="link_bo_customer_app_func"><path d="M151.15,486.0986 C162.64,486.0986 168.65,486.0986 180.4,486.0986 " fill="none" id="bo_customer-backto-app_func" style="stroke:#333333;stroke-width:1.2;"/><polygon fill="#333333" points="145.15,486.0986,154.15,490.0986,150.15,486.0986,154.15,482.0986,145.15,486.0986" style="stroke:#333333;stroke-width:1.2;"/><text fill="#000000" font-family="Arial" font-size="14" lengthAdjust="spacing" textLength="16" x="145.78" y="482.2305">Ac</text></g><!--link app_onboarding to app_fincrime--><g id="link_app_onboarding_app_fincrime"><path d="M923,384.5386 C923,404.5486 923,424.0986 923,424.0986 C923,424.0986 1268,424.0986 1268,424.0986 C1268,424.0986 1268,410.5486 1268,390.5386 " fill="none" id="app_onboarding-to-app_fincrime" style="stroke:#333333;stroke-width:1.2;"/><polygon fill="#333333" points="1268,384.5386,1264,393.5386,1268,389.5386,1272,393.5386,1268,384.5386" style="stroke:#333333;stroke-width:1.2;"/><text fill="#000000" font-family="Arial" font-size="14" lengthAdjust="spacing" textLength="9" x="1085.5" y="420.2305">F</text></g><!--link tech_node to tech_func--><g id="link_tech_node_tech_func"><path d="M652,384.1386 C652,402.8986 652,418.9586 652,437.7586 " fill="none" id="tech_node-to-tech_func" style="stroke:#333333;stroke-width:1.2;"/><polygon fill="#333333" points="652,443.7586,656,434.7586,652,438.7586,648,434.7586,652,443.7586" style="stroke:#333333;stroke-width:1.2;"/><text fill="#000000" font-family="Arial" font-size="14" lengthAdjust="spacing" textLength="9" x="642" y="410.0805">A</text></g><!--link tech_func to tech_service--><g id="link_tech_func_tech_service"><path d="M724.03,486.0986 C735.5,486.0986 741.36,486.0986 752.82,486.0986 " fill="none" id="tech_func-to-tech_service" style="stroke:#333333;stroke-width:1.2;"/><polygon fill="#333333" points="758.82,486.0986,749.82,482.0986,753.82,486.0986,749.82,490.0986,758.82,486.0986" style="stroke:#333333;stroke-width:1.2;"/><text fill="#000000" font-family="Arial" font-size="14" lengthAdjust="spacing" textLength="10" x="730.43" y="482.2305">R</text></g><!--reverse link app_party to tech_service--><g id="link_app_party_tech_service"><path d="M287.83,390.1386 C287.83,401.1986 287.83,404.0986 287.83,404.0986 C287.83,404.0986 808.33,404.0986 808.33,404.0986 C808.33,404.0986 808.33,423.6486 808.33,443.6586 " fill="none" id="app_party-backto-tech_service" style="stroke:#333333;stroke-width:1.2;"/><polygon fill="#333333" points="287.83,384.1386,283.83,393.1386,287.83,389.1386,291.83,393.1386,287.83,384.1386" style="stroke:#333333;stroke-width:1.2;"/><text fill="#000000" font-family="Arial" font-size="14" lengthAdjust="spacing" textLength="9" x="547.88" y="400.2305">S</text></g><!--reverse link app_onboarding to tech_service--><g id="link_app_onboarding_tech_service"><path d="M855.67,390.1386 C855.67,408.8986 855.67,424.9586 855.67,443.7586 " fill="none" id="app_onboarding-backto-tech_service" style="stroke:#333333;stroke-width:1.2;"/><polygon fill="#333333" points="855.67,384.1386,851.67,393.1386,855.67,389.1386,859.67,393.1386,855.67,384.1386" style="stroke:#333333;stroke-width:1.2;"/><text fill="#000000" font-family="Arial" font-size="14" lengthAdjust="spacing" textLength="9" x="845.67" y="410.0805">S</text></g><rect fill="none" height="122.6904" id="_legend" rx="7.5" ry="7.5" style="stroke:#000000;stroke-width:1.0;" width="342" x="997" y="545.4932"/><text fill="#000000" font-family="Arial" font-size="14" lengthAdjust="spacing" textLength="238" x="1002" y="563.625">Domains are shown in element labels.</text><text fill="#000000" font-family="Arial" font-size="14" lengthAdjust="spacing" textLength="318" x="1002" y="579.7236">C = Composition. A = Assignment. R = Realisation.</text><text fill="#000000" font-family="Arial" font-size="14" lengthAdjust="spacing" textLength="224" x="1002" y="595.8223">S = Serving. Ac = Access. F = Flow.</text><text fill="#000000" font-family="Arial" font-size="14" lengthAdjust="spacing" textLength="309" x="1002" y="611.9209">Assignment: active structure performs behaviour.</text><text fill="#000000" font-family="Arial" font-size="14" lengthAdjust="spacing" textLength="242" x="1002" y="628.0195">Realisation: behaviour fulfils a service.</text><text fill="#000000" font-family="Arial" font-size="14" lengthAdjust="spacing" textLength="314" x="1002" y="644.1182">Serving: service supports a consumer or concern.</text><text fill="#000000" font-family="Arial" font-size="14" lengthAdjust="spacing" textLength="332" x="1002" y="660.2168">Access: behaviour uses a passive structure element.</text><!--SRC=[fLPDRziu4BthLqoJivLsiMXJemtWk56xXsqAfyS01aMDRMvfaY0f1swn_trd95kY7Dljee0Ev73clU5yKI-KaRgk4FByYhuGjnh3bTF2n7gjHt65QymTBRCiggWHYhy-Zbw-6Rty8uTFrgllri2jCDz0Yorwh41ukL8HPQmzmaRXKvQ5RyeuuSKQj38Ojmx1-hYooO4d0s6MXFyZ0vZPsbHJwmrwkCx-9Mhh85eeROns3PLYTMLDblLs5zCwq25P_2sCM9BR9ZwQT- -cmebIQHMtDpUFvY5w4N6vXSgkXJ8N8098uUPoRtnvTrsyAYP7WUzDQOMlb5d-Eh3jR3he53iD8ODEPBIUyMxhGB4A8SKJV3WlETgNHL7y-U5r2ZMHai8MuOkt6rMXPxYPrNWApTFPtEsKZm4UlJUXIm9YyDto57uvlFnp_7k71ZeIGbieZHH9z1ibaHbsovCCOMu9Wo_1fcVlC4DfVSMW7T9z-GyfdWItIL4KRugtnUqWSr-4ZriGfkgkGC7H8YwiNpUPT4uhARXCOMhNpXegI2PB3zBaEZTt3URbtQHuVNTzz1fTbFeYXw8sJJSmwtxz4w85gVrldkE9ESCIMgspH8FQ-itm3Nhj6MMXZ31I2GrJhzRu-tGB6fsCr94DkZ6ncr5RDeoVRTM4xolAbR7QqhXW4VCaeeI6vkXgRaY5Il0LZO_1NDh1qXWEiOdVgK8uWzqMmYzW7q_-6UGk-JlmR31cHvLzCgERmn4vXccMJBczrd1KZO5S7KZsUkK1s2GRIaPUBLUH5GycnnXcsQ5iLBjZ3ZvaMT-gU-AkfvYpstHqQJCmLRflQSfdB3sAnaNZSpAGY4Pc1oK_OEjgSmm5FPzT6UqTxfFF7lUx3cIGG_Pv86YTxkF03fzGE0oUnYNIq6nuwAd_q9GDDHJzBOGLEGVA0EfsucXHeWuvgKtXVTkNGN5Lvp0XmIG4jJIicSECzZCKMeMcvzZcWKHDhPebwKisaFnWvL3Gkj3sYRLwa34_i6f3VaHVj_yl3ZrF27eDS2KsojQUJHAUSNy2YrfJuT1LO1U5nedMWV5U1g5sZlv-M4rQ4sfEf_MybkWRlrilK-Gw8EixGRuE_Di5Aiyef6rW_mC0]--></g></svg>