<?xml version="1.0" encoding="us-ascii" standalone="no"?><svg xmlns="http://www.w3.org/2000/svg" xmlns:xlink="http://www.w3.org/1999/xlink" contentStyleType="text/css" height="722.25px" preserveAspectRatio="none" style="width:441px;height:722px;background:#FFFFFF;" version="1.1" viewBox="0 0 441 722" width="441.75px" zoomAndPan="magnify"><defs/><g><text fill="#000000" font-family="Arial" font-size="10.5" font-weight="bold" lengthAdjust="spacing" textLength="200.25" x="115.5" y="17.3489">Horizon Bank migration control thread</text><!--entity Intake--><g id="elem_Intake"><rect fill="#DDEBF7" height="37.4231" rx="1.875" ry="1.875" style="stroke:#333333;stroke-width:0.375;" width="130.5" x="69.75" y="33.074"/><text fill="#000000" font-family="Arial" font-size="9.75" lengthAdjust="spacing" textLength="77.25" x="77.25" y="49.7194">Trigger and intake</text><text fill="#000000" font-family="Arial" font-size="9.75" lengthAdjust="spacing" textLength="115.5" x="77.25" y="60.9309">Outcome, scope, evidence</text></g><!--entity Impact--><g id="elem_Impact"><rect fill="#DDEBF7" height="37.4231" rx="1.875" ry="1.875" style="stroke:#333333;stroke-width:0.375;" width="148.5" x="78.75" y="96.074"/><text fill="#000000" font-family="Arial" font-size="9.75" lengthAdjust="spacing" textLength="111" x="86.25" y="112.7194">Impact and dependencies</text><text fill="#000000" font-family="Arial" font-size="9.75" lengthAdjust="spacing" textLength="133.5" x="86.25" y="123.9309">Service, data, controls, owners</text></g><!--entity States--><g id="elem_States"><rect fill="#E4DFEC" height="37.4231" rx="1.875" ry="1.875" style="stroke:#333333;stroke-width:0.375;" width="127.5" x="71.25" y="159.074"/><text fill="#000000" font-family="Arial" font-size="9.75" lengthAdjust="spacing" textLength="82.5" x="78.75" y="175.7194">Architecture states</text><text fill="#000000" font-family="Arial" font-size="9.75" lengthAdjust="spacing" textLength="112.5" x="78.75" y="186.9309">Current | transition | target</text></g><!--entity Wave--><g id="elem_Wave"><rect fill="#E2F0D9" height="37.4231" rx="1.875" ry="1.875" style="stroke:#333333;stroke-width:0.375;" width="137.25" x="59.625" y="222.074"/><text fill="#000000" font-family="Arial" font-size="9.75" lengthAdjust="spacing" textLength="105" x="67.125" y="238.7194">Bounded migration wave</text><text fill="#000000" font-family="Arial" font-size="9.75" lengthAdjust="spacing" textLength="122.25" x="67.125" y="249.9309">Entry, exit, support, fallback</text></g><!--entity Ready--><g id="elem_Ready"><rect fill="#FFF2CC" height="37.4231" rx="1.875" ry="1.875" style="stroke:#333333;stroke-width:0.375;" width="142.5" x="78.75" y="285.074"/><text fill="#000000" font-family="Arial" font-size="9.75" lengthAdjust="spacing" textLength="107.25" x="86.25" y="301.7194">Rehearsal and readiness</text><text fill="#000000" font-family="Arial" font-size="9.75" lengthAdjust="spacing" textLength="127.5" x="86.25" y="312.9309">Data, operations, people, risk</text></g><!--entity Gate--><g id="elem_Gate"><polygon fill="#FFF2CC" points="159,357.449,138.375,348.074,97.125,348.074,76.5,357.449,97.125,366.824,138.375,366.824,159,357.449" style="stroke:#181818;stroke-width:0.375;"/><text fill="#000000" font-family="Arial" font-size="9.75" lengthAdjust="spacing" textLength="41.25" x="97.125" y="360.9694">Proceed?</text></g><!--entity Cutover--><g id="elem_Cutover"><rect fill="#FCE4D6" height="37.4231" rx="1.875" ry="1.875" style="stroke:#333333;stroke-width:0.375;" width="119.25" x="44.625" y="392.324"/><text fill="#000000" font-family="Arial" font-size="9.75" lengthAdjust="spacing" textLength="32.25" x="52.125" y="408.9694">Cutover</text><text fill="#000000" font-family="Arial" font-size="9.75" lengthAdjust="spacing" textLength="104.25" x="52.125" y="420.1809">Transfer bounded cohort</text></g><!--entity Verify--><g id="elem_Verify"><rect fill="#E2F0D9" height="37.4231" rx="1.875" ry="1.875" style="stroke:#333333;stroke-width:0.375;" width="147" x="48.75" y="455.324"/><text fill="#000000" font-family="Arial" font-size="9.75" lengthAdjust="spacing" textLength="85.5" x="56.25" y="471.9694">Verify and reconcile</text><text fill="#000000" font-family="Arial" font-size="9.75" lengthAdjust="spacing" textLength="132" x="56.25" y="483.1809">Service, records, control totals</text></g><!--entity Check--><g id="elem_Check"><polygon fill="#FFF2CC" points="234.75,527.699,187.5,518.324,93,518.324,45.75,527.699,93,537.074,187.5,537.074,234.75,527.699" style="stroke:#181818;stroke-width:0.375;"/><text fill="#000000" font-family="Arial" font-size="9.75" lengthAdjust="spacing" textLength="94.5" x="93" y="531.2194">Evidence acceptable?</text></g><!--entity Fallback--><g id="elem_Fallback"><rect fill="#F4CCCC" height="37.4231" rx="1.875" ry="1.875" style="stroke:#333333;stroke-width:0.375;" width="172.5" x="162.75" y="562.574"/><text fill="#000000" font-family="Arial" font-size="9.75" lengthAdjust="spacing" textLength="142.5" x="170.25" y="579.2194">Fallback to recoverable boundary</text><text fill="#000000" font-family="Arial" font-size="9.75" lengthAdjust="spacing" textLength="157.5" x="170.25" y="590.4309">Restore service, reconcile, reassess</text></g><!--entity Close--><g id="elem_Close"><rect fill="#D9EAD3" height="37.4231" rx="1.875" ry="1.875" style="stroke:#333333;stroke-width:0.375;" width="137.25" x="16.125" y="562.574"/><text fill="#000000" font-family="Arial" font-size="9.75" lengthAdjust="spacing" textLength="122.25" x="23.625" y="579.2194">Stabilise and decommission</text><text fill="#000000" font-family="Arial" font-size="9.75" lengthAdjust="spacing" textLength="111" x="23.625" y="590.4309">Close residual obligations</text></g><!--entity Learn--><g id="elem_Learn"><rect fill="#D9EAD3" height="37.4231" rx="1.875" ry="1.875" style="stroke:#333333;stroke-width:0.375;" width="171.75" x="163.125" y="625.574"/><text fill="#000000" font-family="Arial" font-size="9.75" lengthAdjust="spacing" textLength="96" x="170.625" y="642.2194">Benefits and feedback</text><text fill="#000000" font-family="Arial" font-size="9.75" lengthAdjust="spacing" textLength="156.75" x="170.625" y="653.4309">Update models, risks and next wave</text></g><!--link Intake to Impact--><g id="link_Intake_Impact"><path d="M140.3025,70.694 C142.6275,78.629 144.0745,83.6113 146.407,91.5538 " fill="none" id="Intake-to-Impact" style="stroke:#333333;stroke-width:0.8999999999999999;"/><polygon fill="#333333" points="147.675,95.8715,148.6515,88.5497,146.6183,92.2734,142.8946,90.2403,147.675,95.8715" style="stroke:#333333;stroke-width:0.8999999999999999;"/><text fill="#000000" font-family="Arial" font-size="9.75" lengthAdjust="spacing" textLength="66" x="147" y="87.2194">assess change</text></g><!--link Intake to Impact--><!--link Impact to States--><g id="link_Impact_States"><path d="M147.6975,133.694 C145.3725,141.629 143.9142,146.6102 141.5892,154.5527 " fill="none" id="Impact-to-States" style="stroke:#333333;stroke-width:0.8999999999999999;"/><polygon fill="#333333" points="140.325,158.8715,145.1005,153.2361,141.3785,155.2725,139.3422,151.5505,140.325,158.8715" style="stroke:#333333;stroke-width:0.8999999999999999;"/><text fill="#000000" font-family="Arial" font-size="9.75" lengthAdjust="spacing" textLength="78" x="147" y="150.2194">establish baseline</text></g><!--link Impact to States--><!--link States to Wave--><g id="link_States_Wave"><path d="M130.8,196.6265 C130.3875,198.8765 130.02,201.1415 129.75,203.324 C128.9925,209.3465 128.754,211.4568 128.544,217.3968 " fill="none" id="States-to-Wave" style="stroke:#333333;stroke-width:0.8999999999999999;"/><polygon fill="#333333" points="128.385,221.894,131.6216,215.2542,128.5175,218.1463,125.6254,215.0422,128.385,221.894" style="stroke:#333333;stroke-width:0.8999999999999999;"/><text fill="#000000" font-family="Arial" font-size="9.75" lengthAdjust="spacing" textLength="110.25" x="130.5" y="213.2194">define operable sequence</text></g><!--link Wave to Ready--><g id="link_Wave_Ready"><path d="M91.695,259.649 C85.485,265.124 82.3575,271.5065 87,278.324 C88.65,280.754 87.2779,279.8922 89.4154,281.8647 " fill="none" id="Wave-to-Ready" style="stroke:#333333;stroke-width:0.8999999999999999;"/><polygon fill="#333333" points="92.7225,284.9165,89.7964,278.1341,89.9666,282.3733,85.7274,282.5435,92.7225,284.9165" style="stroke:#333333;stroke-width:0.8999999999999999;"/><text fill="#000000" font-family="Arial" font-size="9.75" lengthAdjust="spacing" textLength="91.5" x="87.75" y="276.2194">prepare and rehearse</text></g><!--link Ready to Wave--><!--link Ready to Gate--><g id="link_Ready_Gate"><path d="M78.57,310.6115 C54.0525,314.279 30.84,320.1065 23.25,329.324 C6.36,349.829 40.3611,355.3417 73.1886,356.6542 " fill="none" id="Ready-to-Gate" style="stroke:#333333;stroke-width:0.8999999999999999;"/><polygon fill="#333333" points="77.685,356.834,71.0602,353.5667,73.938,356.6842,70.8205,359.5619,77.685,356.834" style="stroke:#333333;stroke-width:0.8999999999999999;"/><text fill="#000000" font-family="Arial" font-size="9.75" lengthAdjust="spacing" textLength="114.75" x="24" y="339.2194">submit readiness evidence</text></g><!--link Gate to Ready--><g id="link_Gate_Ready"><path d="M142.6575,349.859 C146.46,347.7365 149.895,344.954 152.25,341.324 C155.7675,335.909 156.7345,333.5093 155.917,327.1868 " fill="none" id="Gate-to-Ready" style="stroke:#333333;stroke-width:0.8999999999999999;"/><polygon fill="#333333" points="155.34,322.724,153.2303,329.8029,155.8209,326.443,159.1808,329.0335,155.34,322.724" style="stroke:#333333;stroke-width:0.8999999999999999;"/><text fill="#000000" font-family="Arial" font-size="9.75" lengthAdjust="spacing" textLength="70.5" x="156" y="339.2194">stop and correct</text></g><!--link Gate to Ready--><!--link Gate to Cutover--><g id="link_Gate_Cutover"><path d="M86.1075,362.0165 C71.97,364.439 57.5325,368.1515 53.25,373.574 C47.7,380.594 47.3609,384.1663 54.3284,389.4763 " fill="none" id="Gate-to-Cutover" style="stroke:#333333;stroke-width:0.8999999999999999;"/><polygon fill="#333333" points="57.9075,392.204,54.3573,385.7264,54.9249,389.9309,50.7204,390.4985,57.9075,392.204" style="stroke:#333333;stroke-width:0.8999999999999999;"/><text fill="#000000" font-family="Arial" font-size="9.75" lengthAdjust="spacing" textLength="75" x="54" y="383.4694">proceed authority</text></g><!--link Gate to Cutover--><!--link Cutover to Verify--><g id="link_Cutover_Verify"><path d="M109.5525,429.944 C111.8775,437.879 113.3245,442.8613 115.657,450.8038 " fill="none" id="Cutover-to-Verify" style="stroke:#333333;stroke-width:0.8999999999999999;"/><polygon fill="#333333" points="116.925,455.1215,117.9015,447.7997,115.8683,451.5234,112.1446,449.4903,116.925,455.1215" style="stroke:#333333;stroke-width:0.8999999999999999;"/><text fill="#000000" font-family="Arial" font-size="9.75" lengthAdjust="spacing" textLength="87" x="116.25" y="446.4694">migrate and observe</text></g><!--link Cutover to Verify--><!--link Verify to Check--><g id="link_Verify_Check"><path d="M128.5425,493.0565 C131.505,501.629 133.4246,507.1935 135.7946,514.0485 " fill="none" id="Verify-to-Check" style="stroke:#333333;stroke-width:0.8999999999999999;"/><polygon fill="#333333" points="137.265,518.3015,137.8947,510.9417,136.0397,514.7573,132.2241,512.9023,137.265,518.3015" style="stroke:#333333;stroke-width:0.8999999999999999;"/><text fill="#000000" font-family="Arial" font-size="9.75" lengthAdjust="spacing" textLength="72.75" x="135.75" y="509.4694">present evidence</text></g><!--link Verify to Check--><!--link Check to Close--><g id="link_Check_Close"><path d="M125.04,537.239 C122.01,539.249 118.935,541.484 116.25,543.824 C109.9125,549.3365 106.5934,552.6929 101.3959,558.9479 " fill="none" id="Check-to-Close" style="stroke:#333333;stroke-width:0.8999999999999999;"/><polygon fill="#333333" points="98.52,562.409,105.1413,559.1346,100.9166,559.5247,100.5265,555.3001,98.52,562.409" style="stroke:#333333;stroke-width:0.8999999999999999;"/><text fill="#000000" font-family="Arial" font-size="9.75" lengthAdjust="spacing" textLength="47.25" x="117" y="553.7194">acceptable</text></g><!--link Check to Fallback--><g id="link_Check_Fallback"><path d="M154.2675,537.0965 C163.7025,542.7515 176.5125,550.1165 188.25,555.824 C192.96,558.1115 193.8132,558.5897 198.8157,560.7647 " fill="none" id="Check-to-Fallback" style="stroke:#333333;stroke-width:0.8999999999999999;"/><polygon fill="#333333" points="202.9425,562.559,197.9485,557.1164,199.5035,561.0638,195.5561,562.6188,202.9425,562.559" style="stroke:#333333;stroke-width:0.8999999999999999;"/><text fill="#000000" font-family="Arial" font-size="9.75" lengthAdjust="spacing" textLength="51.75" x="189" y="553.7194">failed check</text></g><!--link Fallback to Impact--><g id="link_Fallback_Impact"><path d="M249,562.484 C249,552.4565 249,539.759 249,528.449 C249,177.074 249,177.074 249,177.074 C249,158.264 242.565,152.2265 228,140.324 C225.03,137.894 225.6826,137.9874 222.3076,135.9999 " fill="none" id="Fallback-to-Impact" style="stroke:#333333;stroke-width:0.8999999999999999;"/><polygon fill="#333333" points="218.43,133.7165,222.7241,139.7267,221.6613,135.6194,225.7687,134.5566,218.43,133.7165" style="stroke:#333333;stroke-width:0.8999999999999999;"/><text fill="#000000" font-family="Arial" font-size="9.75" lengthAdjust="spacing" textLength="98.25" x="249.75" y="361.3444">reassess assumptions</text></g><!--link Close to Learn--><g id="link_Close_Learn"><path d="M119.595,600.1715 C132.6825,606.5615 147.825,613.4765 162,618.824 C168.2475,621.179 170.5252,622.0616 177.1402,624.1841 " fill="none" id="Close-to-Learn" style="stroke:#333333;stroke-width:0.8999999999999999;"/><polygon fill="#333333" points="181.425,625.559,175.9143,620.6402,177.8543,624.4133,174.0812,626.3533,181.425,625.559" style="stroke:#333333;stroke-width:0.8999999999999999;"/><text fill="#000000" font-family="Arial" font-size="9.75" lengthAdjust="spacing" textLength="83.25" x="162.75" y="616.7194">measure outcomes</text></g><!--link Learn to Impact--><g id="link_Learn_Impact"><path d="M329.7225,625.514 C348.435,616.3715 363,602.654 363,582.074 C363,177.074 363,177.074 363,177.074 C363,147.9665 292.2022,132.2882 231.7897,123.8957 " fill="none" id="Learn-to-Impact" style="stroke:#333333;stroke-width:0.8999999999999999;"/><polygon fill="#333333" points="227.3325,123.2765,233.6055,127.1767,231.0468,123.7925,234.4311,121.2338,227.3325,123.2765" style="stroke:#333333;stroke-width:0.8999999999999999;"/><text fill="#000000" font-family="Arial" font-size="9.75" lengthAdjust="spacing" textLength="72" x="363.75" y="383.4694">inform later wave</text></g><!--link Close to Fallback--><!--link Fallback to Learn--><!--link Intake to Gate--><!--link Cutover to Close--><rect fill="none" height="31.6479" id="_legend" rx="5.625" ry="5.625" style="stroke:#000000;stroke-width:0.75;" width="357.75" x="36.75" y="675.7471"/><text fill="#000000" font-family="Arial" font-size="10.5" lengthAdjust="spacing" textLength="316.5" x="40.5" y="689.3459">Every decision arrow is labelled. A failed check returns to a defined</text><text fill="#000000" font-family="Arial" font-size="10.5" lengthAdjust="spacing" textLength="350.25" x="40.5" y="701.4199">recoverable boundary; the roadmap and target remain assumption-based.</text><!--SRC=[RLNVRzis47xdNy75hudRPjtQUi26HBQs0WLM9DtsCE-18iyMOOhKI2g9Y_tnkoCfHNO318Z5Etxtu_lk-9ssqWmA-7Bv2lz2F1e8hteZR1mwSnLRw63PuqyMTJJ0VtDUVtMMtmfxu9tUUn4rVafdetU6nzQ3K2owdaV76nUZwxZI7YIviI05OhnUllk1XOEslV2YuzOf2D3pDzUpGu_uwV3zx531JWmcrXZiNdy5_kPxHiZ2xX7ruelN-pruBgpYsaPnWAtzVOZITN39WtGz_eC7hS1AkE0Yy8_9YI_Mwyrj_MuEzR7hXOm9IK4Fbkve25jx3_v1ImHI8ehBiUnmoTsZ1HyoRBxy0koDbwsE-3ruu26AI93Lu3tOoF_Z4OiEElKJFuJVGqo0zycJBpPlr_MccWFUkW5pKpCY7iK3bht1j8vOxPEEMFhGzyxZZvqmfX7oa43_GaU4lAvVhp_C8U-W1U63CAbwObDR29ZdEbMCNSoHiEOUN6-m5rw7Z7c7taU-gElwkgfO2qzYZobTVFPE0gXVai-lMClaCejR3T4zWD_QBzI57VBObEAaQp7zTBauuVqAc_7Z_FwVuFNkM996NgGsCEEBphmAbyzATL6OJ5YvEZPZodjJnCA5bD17qHZ8DLGjoCDBHTIbmoH-YeYvqgrSYl37hRs341snFqyi9Ki_HGZOwnHZWbhKRwlgD0mAej561oWAHObtEWHa1ULa79vx25eDIA9hZDvdmdBgoRnOVzZSh4-cvnOix7GC2NA7T57mhVsZLqHOXpDACYUgiuk5fvZKbc0_eMRi15i6w-hgvt4OLZoNncMByO2LO_8ewbvnx0msIuUMDoA0GTcnOYEtfDSLhG0qP1bIPmFyEn17BDd9COjmnNiFk3MWA2A96bWsablIuGg7e-bqVDRvj25OSY3FKNG4cOJCnH1HaZeUdvt6g85M7uL4kL5tsNYRd8hGLcLUSswk8Iq0AyOKCUahbH1eDKmvPKDoIJokPjAS6IVjh73cKLgO3TdOT7x2p2WxecZe-gGLbl79BrEBEQCRxIsNLsfWsN02fUtE-OuRhCqdSKnI-BlL2clu1tTq6wShamxEpPduqjvpO-hrIEMvaNJmtFHpQsxorEjpSshXMFkvSUpUh8tdBgabtzIiy74eYZkhg5XAkj-cFTef8MPWZozHULJP1XsFDFkQvfuBxzqZrm5xtu11ofVyveHyf1cV7HjeDOaoHegzjAH-mbSSDuWJgXDPo_ajGeHEQ3kJoHKDgbeoJ2idzpy0]--></g></svg>