<?xml version="1.0" encoding="us-ascii" standalone="no"?><svg xmlns="http://www.w3.org/2000/svg" xmlns:xlink="http://www.w3.org/1999/xlink" contentStyleType="text/css" height="701px" preserveAspectRatio="none" style="width:2461px;height:701px;background:#FFFFFF;" version="1.1" viewBox="0 0 2461 701" width="2461px" zoomAndPan="magnify"><defs/><g><text fill="#000000" font-family="Arial" font-size="14" font-weight="bold" lengthAdjust="spacing" textLength="364" x="1041.5" y="23.1318">FIG-11-06. Horizon Bank Payment Observability View</text><!--cluster Systems--><g id="cluster_Systems"><rect fill="#F7F9FB" height="562" rx="2.5" ry="2.5" style="stroke:#333333;stroke-width:1.0;" width="234" x="7" y="44.0986"/><text fill="#000000" font-family="Arial" font-size="14" font-weight="bold" lengthAdjust="spacing" textLength="218" x="15" y="59.2305">Horizon Bank Payment Systems</text></g><!--cluster Signals--><g id="cluster_Signals"><rect fill="#F7F9FB" height="259" rx="2.5" ry="2.5" style="stroke:#333333;stroke-width:1.0;" width="140" x="452" y="168.0986"/><text fill="#000000" font-family="Arial" font-size="14" font-weight="bold" lengthAdjust="spacing" textLength="124" x="460" y="183.2305">Telemetry Signals</text></g><!--entity Channels--><g id="elem_Channels"><rect fill="#FFFFFF" height="62.1973" rx="2.5" ry="2.5" style="stroke:#333333;stroke-width:0.5;" width="130" x="59" y="79.0986"/><rect fill="#FFFFFF" height="10" style="stroke:#333333;stroke-width:0.5;" width="15" x="169" y="84.0986"/><rect fill="#FFFFFF" height="2" style="stroke:#333333;stroke-width:0.5;" width="4" x="167" y="86.0986"/><rect fill="#FFFFFF" height="2" style="stroke:#333333;stroke-width:0.5;" width="4" x="167" y="90.0986"/><text fill="#000000" font-family="Arial" font-size="14" lengthAdjust="spacing" textLength="90" x="74" y="112.2305">Horizon Digital</text><text fill="#000000" font-family="Arial" font-size="14" lengthAdjust="spacing" textLength="60" x="74" y="128.3291">Channels</text></g><!--entity Payments--><g id="elem_Payments"><rect fill="#FFFFFF" height="62.1973" rx="2.5" ry="2.5" style="stroke:#333333;stroke-width:0.5;" width="102" x="73" y="176.0986"/><rect fill="#FFFFFF" height="10" style="stroke:#333333;stroke-width:0.5;" width="15" x="155" y="181.0986"/><rect fill="#FFFFFF" height="2" style="stroke:#333333;stroke-width:0.5;" width="4" x="153" y="183.0986"/><rect fill="#FFFFFF" height="2" style="stroke:#333333;stroke-width:0.5;" width="4" x="153" y="187.0986"/><text fill="#000000" font-family="Arial" font-size="14" lengthAdjust="spacing" textLength="62" x="88" y="209.2305">Payments</text><text fill="#000000" font-family="Arial" font-size="14" lengthAdjust="spacing" textLength="52" x="88" y="225.3291">Platform</text></g><!--entity FinancialCrime--><g id="elem_FinancialCrime"><rect fill="#FFFFFF" height="62.1973" rx="2.5" ry="2.5" style="stroke:#333333;stroke-width:0.5;" width="138" x="55" y="334.0986"/><rect fill="#FFFFFF" height="10" style="stroke:#333333;stroke-width:0.5;" width="15" x="173" y="339.0986"/><rect fill="#FFFFFF" height="2" style="stroke:#333333;stroke-width:0.5;" width="4" x="171" y="341.0986"/><rect fill="#FFFFFF" height="2" style="stroke:#333333;stroke-width:0.5;" width="4" x="171" y="345.0986"/><text fill="#000000" font-family="Arial" font-size="14" lengthAdjust="spacing" textLength="98" x="70" y="367.2305">Financial Crime</text><text fill="#000000" font-family="Arial" font-size="14" lengthAdjust="spacing" textLength="52" x="70" y="383.3291">Platform</text></g><!--entity Integration--><g id="elem_Integration"><rect fill="#FFFFFF" height="62.1973" rx="2.5" ry="2.5" style="stroke:#333333;stroke-width:0.5;" width="176" x="36" y="431.0986"/><rect fill="#FFFFFF" height="10" style="stroke:#333333;stroke-width:0.5;" width="15" x="192" y="436.0986"/><rect fill="#FFFFFF" height="2" style="stroke:#333333;stroke-width:0.5;" width="4" x="190" y="438.0986"/><rect fill="#FFFFFF" height="2" style="stroke:#333333;stroke-width:0.5;" width="4" x="190" y="442.0986"/><text fill="#000000" font-family="Arial" font-size="14" lengthAdjust="spacing" textLength="136" x="51" y="464.2305">Enterprise Integration</text><text fill="#000000" font-family="Arial" font-size="14" lengthAdjust="spacing" textLength="52" x="51" y="480.3291">Platform</text></g><!--entity EventPlatform--><g id="elem_EventPlatform"><path d="M73,273.0986 L175,273.0986 C180,273.0986 180,286.1479 180,286.1479 C180,286.1479 180,299.1973 175,299.1973 L73,299.1973 C68,299.1973 68,286.1479 68,286.1479 C68,286.1479 68,273.0986 73,273.0986 " fill="#F1F1F1" style="stroke:#181818;stroke-width:0.5;"/><path d="M175,273.0986 C170,273.0986 170,286.1479 170,286.1479 C170,299.1973 175,299.1973 175,299.1973 " fill="none" style="stroke:#181818;stroke-width:0.5;"/><text fill="#000000" font-family="Arial" font-size="14" lengthAdjust="spacing" textLength="92" x="73" y="291.2305">Event Platform</text></g><!--entity CoreDeposit--><g id="elem_CoreDeposit"><path d="M72.5,538.5986 C72.5,528.5986 124,528.5986 124,528.5986 C124,528.5986 175.5,528.5986 175.5,538.5986 L175.5,579.7959 C175.5,589.7959 124,589.7959 124,589.7959 C124,589.7959 72.5,589.7959 72.5,579.7959 L72.5,538.5986 " fill="#F2F5F7" style="stroke:#333333;stroke-width:0.5;"/><path d="M72.5,538.5986 C72.5,548.5986 124,548.5986 124,548.5986 C124,548.5986 175.5,548.5986 175.5,538.5986 " fill="none" style="stroke:#333333;stroke-width:0.5;"/><text fill="#000000" font-family="Arial" font-size="14" lengthAdjust="spacing" textLength="83" x="82.5" y="565.7305">Core Deposit</text><text fill="#000000" font-family="Arial" font-size="14" lengthAdjust="spacing" textLength="46" x="82.5" y="581.8291">System</text></g><!--entity Traces--><g id="elem_Traces"><rect fill="#FFFFFF" height="46.0986" rx="2.5" ry="2.5" style="stroke:#333333;stroke-width:0.5;" width="84" x="479.5" y="203.0986"/><rect fill="#FFFFFF" height="10" style="stroke:#333333;stroke-width:0.5;" width="15" x="543.5" y="208.0986"/><rect fill="#FFFFFF" height="2" style="stroke:#333333;stroke-width:0.5;" width="4" x="541.5" y="210.0986"/><rect fill="#FFFFFF" height="2" style="stroke:#333333;stroke-width:0.5;" width="4" x="541.5" y="214.0986"/><text fill="#000000" font-family="Arial" font-size="14" lengthAdjust="spacing" textLength="44" x="494.5" y="236.2305">Traces</text></g><!--entity Metrics--><g id="elem_Metrics"><rect fill="#FFFFFF" height="46.0986" rx="2.5" ry="2.5" style="stroke:#333333;stroke-width:0.5;" width="85" x="479" y="284.0986"/><rect fill="#FFFFFF" height="10" style="stroke:#333333;stroke-width:0.5;" width="15" x="544" y="289.0986"/><rect fill="#FFFFFF" height="2" style="stroke:#333333;stroke-width:0.5;" width="4" x="542" y="291.0986"/><rect fill="#FFFFFF" height="2" style="stroke:#333333;stroke-width:0.5;" width="4" x="542" y="295.0986"/><text fill="#000000" font-family="Arial" font-size="14" lengthAdjust="spacing" textLength="45" x="494" y="317.2305">Metrics</text></g><!--entity Logs--><g id="elem_Logs"><rect fill="#FFFFFF" height="46.0986" rx="2.5" ry="2.5" style="stroke:#333333;stroke-width:0.5;" width="71" x="486" y="365.0986"/><rect fill="#FFFFFF" height="10" style="stroke:#333333;stroke-width:0.5;" width="15" x="537" y="370.0986"/><rect fill="#FFFFFF" height="2" style="stroke:#333333;stroke-width:0.5;" width="4" x="535" y="372.0986"/><rect fill="#FFFFFF" height="2" style="stroke:#333333;stroke-width:0.5;" width="4" x="535" y="376.0986"/><text fill="#000000" font-family="Arial" font-size="14" lengthAdjust="spacing" textLength="31" x="501" y="398.2305">Logs</text></g><!--entity Collector--><g id="elem_Collector"><rect fill="#FFFFFF" height="62.1973" rx="2.5" ry="2.5" style="stroke:#333333;stroke-width:0.5;" width="138" x="698" y="276.0986"/><rect fill="#FFFFFF" height="10" style="stroke:#333333;stroke-width:0.5;" width="15" x="816" y="281.0986"/><rect fill="#FFFFFF" height="2" style="stroke:#333333;stroke-width:0.5;" width="4" x="814" y="283.0986"/><rect fill="#FFFFFF" height="2" style="stroke:#333333;stroke-width:0.5;" width="4" x="814" y="287.0986"/><text fill="#000000" font-family="Arial" font-size="14" lengthAdjust="spacing" textLength="98" x="713" y="309.2305">OpenTelemetry</text><text fill="#000000" font-family="Arial" font-size="14" lengthAdjust="spacing" textLength="56" x="713" y="325.3291">Collector</text></g><!--entity Redaction--><g id="elem_Redaction"><rect fill="#FFFFFF" height="62.1973" rx="2.5" ry="2.5" style="stroke:#333333;stroke-width:0.5;" width="200" x="1007" y="276.0986"/><rect fill="#FFFFFF" height="10" style="stroke:#333333;stroke-width:0.5;" width="15" x="1187" y="281.0986"/><rect fill="#FFFFFF" height="2" style="stroke:#333333;stroke-width:0.5;" width="4" x="1185" y="283.0986"/><rect fill="#FFFFFF" height="2" style="stroke:#333333;stroke-width:0.5;" width="4" x="1185" y="287.0986"/><text fill="#000000" font-family="Arial" font-size="14" lengthAdjust="spacing" textLength="79" x="1022" y="309.2305">Filtering and</text><text fill="#000000" font-family="Arial" font-size="14" lengthAdjust="spacing" textLength="160" x="1022" y="325.3291">Sensitive-Data Redaction</text></g><!--entity Backends--><g id="elem_Backends"><path d="M1386,286.5986 C1386,276.5986 1437,276.5986 1437,276.5986 C1437,276.5986 1488,276.5986 1488,286.5986 L1488,327.7959 C1488,337.7959 1437,337.7959 1437,337.7959 C1437,337.7959 1386,337.7959 1386,327.7959 L1386,286.5986 " fill="#F2F5F7" style="stroke:#333333;stroke-width:0.5;"/><path d="M1386,286.5986 C1386,296.5986 1437,296.5986 1437,296.5986 C1437,296.5986 1488,296.5986 1488,286.5986 " fill="none" style="stroke:#333333;stroke-width:0.5;"/><text fill="#000000" font-family="Arial" font-size="14" lengthAdjust="spacing" textLength="82" x="1396" y="313.7305">Observability</text><text fill="#000000" font-family="Arial" font-size="14" lengthAdjust="spacing" textLength="62" x="1396" y="329.8291">Backends</text></g><!--entity Indicators--><g id="elem_Indicators"><rect fill="#F7F9FB" height="148.7891" rx="2.5" ry="2.5" style="stroke:#333333;stroke-width:0.5;" width="192" x="1703" y="232.5986"/><text fill="#000000" font-family="Arial" font-size="14" lengthAdjust="spacing" textLength="171" x="1713" y="255.7305">Payment Service Indicators</text><text fill="#000000" font-family="Arial" font-size="14" lengthAdjust="spacing" textLength="4" x="1713" y="271.8291">&#160;</text><text fill="#000000" font-family="Arial" font-size="14" lengthAdjust="spacing" textLength="157" x="1713" y="287.9277">payment submission rate</text><text fill="#000000" font-family="Arial" font-size="14" lengthAdjust="spacing" textLength="111" x="1713" y="304.0264">screening latency</text><text fill="#000000" font-family="Arial" font-size="14" lengthAdjust="spacing" textLength="166" x="1713" y="320.125">posting-confirmation delay</text><text fill="#000000" font-family="Arial" font-size="14" lengthAdjust="spacing" textLength="122" x="1713" y="336.2236">failed-payment rate</text><text fill="#000000" font-family="Arial" font-size="14" lengthAdjust="spacing" textLength="88" x="1713" y="352.3223">event backlog</text><text fill="#000000" font-family="Arial" font-size="14" lengthAdjust="spacing" textLength="172" x="1713" y="368.4209">customer-status update lag</text></g><!--entity Dashboards--><g id="elem_Dashboards"><rect fill="#FFFFFF" height="62.1973" rx="2.5" ry="2.5" style="stroke:#333333;stroke-width:0.5;" width="169" x="2023" y="231.0986"/><rect fill="#FFFFFF" height="10" style="stroke:#333333;stroke-width:0.5;" width="15" x="2172" y="236.0986"/><rect fill="#FFFFFF" height="2" style="stroke:#333333;stroke-width:0.5;" width="4" x="2170" y="238.0986"/><rect fill="#FFFFFF" height="2" style="stroke:#333333;stroke-width:0.5;" width="4" x="2170" y="242.0986"/><text fill="#000000" font-family="Arial" font-size="14" lengthAdjust="spacing" textLength="129" x="2038" y="264.2305">Payment Operations</text><text fill="#000000" font-family="Arial" font-size="14" lengthAdjust="spacing" textLength="77" x="2038" y="280.3291">Dashboards</text></g><!--entity Alerts--><g id="elem_Alerts"><rect fill="#FFFFFF" height="46.0986" rx="2.5" ry="2.5" style="stroke:#333333;stroke-width:0.5;" width="122" x="2046.5" y="328.0986"/><rect fill="#FFFFFF" height="10" style="stroke:#333333;stroke-width:0.5;" width="15" x="2148.5" y="333.0986"/><rect fill="#FFFFFF" height="2" style="stroke:#333333;stroke-width:0.5;" width="4" x="2146.5" y="335.0986"/><rect fill="#FFFFFF" height="2" style="stroke:#333333;stroke-width:0.5;" width="4" x="2146.5" y="339.0986"/><text fill="#000000" font-family="Arial" font-size="14" lengthAdjust="spacing" textLength="82" x="2061.5" y="361.2305">Alert Routing</text></g><!--entity Ops--><g id="elem_Ops"><ellipse cx="2419" cy="193.5986" fill="#FFFFFF" rx="8" ry="8" style="stroke:#333333;stroke-width:0.5;"/><path d="M2419,201.5986 L2419,228.5986 M2406,209.5986 L2432,209.5986 M2419,228.5986 L2406,243.5986 M2419,228.5986 L2432,243.5986 " fill="none" style="stroke:#333333;stroke-width:0.5;"/><text fill="#000000" font-family="Arial" font-size="14" lengthAdjust="spacing" textLength="70" x="2384" y="258.2305">Operations</text><text fill="#000000" font-family="Arial" font-size="14" lengthAdjust="spacing" textLength="36" x="2384" y="274.3291">Team</text></g><!--entity Owner--><g id="elem_Owner"><ellipse cx="2419" cy="332.5986" fill="#FFFFFF" rx="8" ry="8" style="stroke:#333333;stroke-width:0.5;"/><path d="M2419,340.5986 L2419,367.5986 M2406,348.5986 L2432,348.5986 M2419,367.5986 L2406,382.5986 M2419,367.5986 L2432,382.5986 " fill="none" style="stroke:#333333;stroke-width:0.5;"/><text fill="#000000" font-family="Arial" font-size="14" lengthAdjust="spacing" textLength="47" x="2395.5" y="397.2305">Service</text><text fill="#000000" font-family="Arial" font-size="14" lengthAdjust="spacing" textLength="41" x="2395.5" y="413.3291">Owner</text></g><!--link Channels to Traces--><g id="link_Channels_Traces"><path d="M189.1,122.7086 C252.67,136.0086 352.39,159.0686 436,188.0986 C450.44,193.1086 460.3329,197.1446 473.9429,203.3646 " fill="none" id="Channels-to-Traces" style="stroke:#2D6A4F;stroke-width:1.3;stroke-dasharray:1.0,3.0;"/><polygon fill="#2D6A4F" points="479.4,205.8586,472.877,198.4796,474.8524,203.7803,469.5517,205.7557,479.4,205.8586" style="stroke:#2D6A4F;stroke-width:1.3;"/><text fill="#000000" font-family="Arial" font-size="14" lengthAdjust="spacing" textLength="76" x="308.5" y="135.2305">request flow</text></g><!--link Payments to Traces--><g id="link_Payments_Traces"><path d="M175.09,209.5086 C254.08,213.2986 400.0869,220.3102 473.2169,223.8302 " fill="none" id="Payments-to-Traces" style="stroke:#2D6A4F;stroke-width:1.3;stroke-dasharray:1.0,3.0;"/><polygon fill="#2D6A4F" points="479.21,224.1186,470.4127,219.6906,474.2158,223.8782,470.0281,227.6813,479.21,224.1186" style="stroke:#2D6A4F;stroke-width:1.3;"/><text fill="#000000" font-family="Arial" font-size="14" lengthAdjust="spacing" textLength="90" x="301.5" y="210.2305">payment trace</text></g><!--link Payments to Metrics--><g id="link_Payments_Metrics"><path d="M175.18,223.7386 C199.71,231.5986 229.76,240.8386 257,248.0986 C335.77,269.0986 356.46,270.2686 436,288.0986 C449.94,291.2186 459.3155,293.3352 472.9555,296.3952 " fill="none" id="Payments-to-Metrics" style="stroke:#2D6A4F;stroke-width:1.3;stroke-dasharray:1.0,3.0;"/><polygon fill="#2D6A4F" points="478.81,297.7086,470.9039,291.8355,473.9313,296.6141,469.1527,299.6415,478.81,297.7086" style="stroke:#2D6A4F;stroke-width:1.3;"/><text fill="#000000" font-family="Arial" font-size="14" lengthAdjust="spacing" textLength="177" x="258" y="244.2305">submission and failure rates</text></g><!--link FinancialCrime to Metrics--><g id="link_FinancialCrime_Metrics"><path d="M193.21,365.2986 C256.8,364.1586 353.92,358.9986 436,340.0986 C450.27,336.8086 459.7603,333.7898 473.1403,328.4298 " fill="none" id="FinancialCrime-to-Metrics" style="stroke:#2D6A4F;stroke-width:1.3;stroke-dasharray:1.0,3.0;"/><polygon fill="#2D6A4F" points="478.71,326.1986,468.868,325.8323,474.0686,328.058,471.8429,333.2586,478.71,326.1986" style="stroke:#2D6A4F;stroke-width:1.3;"/><text fill="#000000" font-family="Arial" font-size="14" lengthAdjust="spacing" textLength="103" x="295" y="336.2305">screening timing</text></g><!--link Integration to Logs--><g id="link_Integration_Logs"><path d="M212.28,445.7686 C298.27,429.6786 419.3922,407.0113 479.9922,395.6813 " fill="none" id="Integration-to-Logs" style="stroke:#2D6A4F;stroke-width:1.3;stroke-dasharray:1.0,3.0;"/><polygon fill="#2D6A4F" points="485.89,394.5786,476.3082,392.3008,480.9752,395.4975,477.7784,400.1645,485.89,394.5786" style="stroke:#2D6A4F;stroke-width:1.3;"/><text fill="#000000" font-family="Arial" font-size="14" lengthAdjust="spacing" textLength="147" x="273" y="400.2305">posting integration logs</text></g><!--link EventPlatform to Metrics--><g id="link_EventPlatform_Metrics"><path d="M180.25,298.4286 C203.78,303.0886 231.6,307.8086 257,310.0986 C336.23,317.2386 356.46,311.5086 436,310.0986 C449.94,309.8486 459.1742,309.6027 472.8242,309.0927 " fill="none" id="EventPlatform-to-Metrics" style="stroke:#2D6A4F;stroke-width:1.3;stroke-dasharray:1.0,3.0;"/><polygon fill="#2D6A4F" points="478.82,308.8686,469.6769,305.2075,473.8235,309.0553,469.9756,313.2019,478.82,308.8686" style="stroke:#2D6A4F;stroke-width:1.3;"/><text fill="#000000" font-family="Arial" font-size="14" lengthAdjust="spacing" textLength="100" x="296.5" y="306.2305">backlog and lag</text></g><!--link CoreDeposit to Logs--><g id="link_CoreDeposit_Logs"><path d="M175.62,550.6686 C239.49,538.4986 351.22,512.0186 436,464.0986 C460.56,450.2186 479.9176,432.4787 495.8676,415.6887 " fill="none" id="CoreDeposit-to-Logs" style="stroke:#2D6A4F;stroke-width:1.3;stroke-dasharray:1.0,3.0;"/><polygon fill="#2D6A4F" points="500,411.3386,490.9013,415.1088,496.5563,414.9637,496.7014,420.6187,500,411.3386" style="stroke:#2D6A4F;stroke-width:1.3;"/><text fill="#000000" font-family="Arial" font-size="14" lengthAdjust="spacing" textLength="134" x="279.5" y="460.2305">posting confirmations</text></g><!--link Traces to Collector--><g id="link_Traces_Collector"><path d="M563.53,239.7486 C600.13,251.9186 648.7365,268.0956 691.8965,282.4456 " fill="none" id="Traces-to-Collector" style="stroke:#333333;stroke-width:1.3;"/><polygon fill="#333333" points="697.59,284.3386,690.3117,277.7034,692.8454,282.7611,687.7877,285.2948,697.59,284.3386" style="stroke:#333333;stroke-width:1.3;"/><text fill="#000000" font-family="Arial" font-size="14" lengthAdjust="spacing" textLength="58" x="609" y="251.2305">telemetry</text></g><!--link Metrics to Collector--><g id="link_Metrics_Collector"><path d="M564.08,307.0986 C600.76,307.0986 648.9,307.0986 691.89,307.0986 " fill="none" id="Metrics-to-Collector" style="stroke:#333333;stroke-width:1.3;"/><polygon fill="#333333" points="697.89,307.0986,688.89,303.0986,692.89,307.0986,688.89,311.0986,697.89,307.0986" style="stroke:#333333;stroke-width:1.3;"/><text fill="#000000" font-family="Arial" font-size="14" lengthAdjust="spacing" textLength="58" x="609" y="303.2305">telemetry</text></g><!--link Logs to Collector--><g id="link_Logs_Collector"><path d="M557.13,376.5786 C593.63,364.4386 646.3769,346.893 692.1769,331.653 " fill="none" id="Logs-to-Collector" style="stroke:#333333;stroke-width:1.3;"/><polygon fill="#333333" points="697.87,329.7586,688.0674,328.8048,693.1258,331.3373,690.5933,336.3956,697.87,329.7586" style="stroke:#333333;stroke-width:1.3;"/><text fill="#000000" font-family="Arial" font-size="14" lengthAdjust="spacing" textLength="58" x="609" y="337.2305">telemetry</text></g><!--link Collector to Redaction--><g id="link_Collector_Redaction"><path d="M836.4,307.0986 C885.4,307.0986 946.13,307.0986 1000.94,307.0986 " fill="none" id="Collector-to-Redaction" style="stroke:#333333;stroke-width:1.3;"/><polygon fill="#333333" points="1006.94,307.0986,997.94,303.0986,1001.94,307.0986,997.94,311.0986,1006.94,307.0986" style="stroke:#333333;stroke-width:1.3;"/><text fill="#000000" font-family="Arial" font-size="14" lengthAdjust="spacing" textLength="109" x="867" y="303.2305">process and filter</text></g><!--link Redaction to Backends--><g id="link_Redaction_Backends"><path d="M1207.3,307.0986 C1266.32,307.0986 1332.65,307.0986 1379.96,307.0986 " fill="none" id="Redaction-to-Backends" style="stroke:#333333;stroke-width:1.3;"/><polygon fill="#333333" points="1385.96,307.0986,1376.96,303.0986,1380.96,307.0986,1376.96,311.0986,1385.96,307.0986" style="stroke:#333333;stroke-width:1.3;"/><text fill="#000000" font-family="Arial" font-size="14" lengthAdjust="spacing" textLength="117" x="1238" y="303.2305">exported telemetry</text></g><!--link Backends to Indicators--><g id="link_Backends_Indicators"><path d="M1488.06,307.0986 C1543.41,307.0986 1627.86,307.0986 1696.8,307.0986 " fill="none" id="Backends-to-Indicators" style="stroke:#333333;stroke-width:1.3;"/><polygon fill="#333333" points="1702.8,307.0986,1693.8,303.0986,1697.8,307.0986,1693.8,311.0986,1702.8,307.0986" style="stroke:#333333;stroke-width:1.3;"/><text fill="#000000" font-family="Arial" font-size="14" lengthAdjust="spacing" textLength="153" x="1519" y="303.2305">derive service indicators</text></g><!--link Indicators to Dashboards--><g id="link_Indicators_Dashboards"><path d="M1895.3,293.1086 C1936.16,287.1086 1977.5235,281.0295 2016.9935,275.2395 " fill="none" id="Indicators-to-Dashboards" style="stroke:#333333;stroke-width:1.3;"/><polygon fill="#333333" points="2022.93,274.3686,2013.4447,271.7173,2017.9829,275.0943,2014.6059,279.6325,2022.93,274.3686" style="stroke:#333333;stroke-width:1.3;"/><text fill="#000000" font-family="Arial" font-size="14" lengthAdjust="spacing" textLength="60" x="1929" y="276.2305">displayed</text></g><!--link Indicators to Alerts--><g id="link_Indicators_Alerts"><path d="M1895.07,326.1686 C1905.16,327.9486 1915.28,329.6286 1925,331.0986 C1965.28,337.1786 2004.8789,341.6001 2040.2889,345.0901 " fill="none" id="Indicators-to-Alerts" style="stroke:#333333;stroke-width:1.3;"/><polygon fill="#333333" points="2046.26,345.6786,2037.6957,340.8152,2041.2841,345.1882,2036.9111,348.7766,2046.26,345.6786" style="stroke:#333333;stroke-width:1.3;"/><text fill="#000000" font-family="Arial" font-size="14" lengthAdjust="spacing" textLength="66" x="1926" y="327.2305">thresholds</text></g><!--link Dashboards to Ops--><g id="link_Dashboards_Ops"><path d="M2192.26,253.7086 C2255.09,247.4186 2331.9,239.7277 2377.74,235.1277 " fill="none" id="Dashboards-to-Ops" style="stroke:#333333;stroke-width:1.3;"/><polygon fill="#333333" points="2383.71,234.5286,2374.3556,231.4472,2378.735,235.0279,2375.1544,239.4073,2383.71,234.5286" style="stroke:#333333;stroke-width:1.3;"/><text fill="#000000" font-family="Arial" font-size="14" lengthAdjust="spacing" textLength="96" x="2240" y="234.2305">monitor service</text></g><!--link Dashboards to Owner--><g id="link_Dashboards_Owner"><path d="M2166.64,293.2086 C2175.35,298.5286 2184.07,304.2386 2192,310.0986 C2206.67,320.9386 2205.63,330.0586 2222,338.0986 C2279.72,366.4386 2351.36,370.4528 2389.27,370.5528 " fill="none" id="Dashboards-to-Owner" style="stroke:#333333;stroke-width:1.3;"/><polygon fill="#333333" points="2395.27,370.5686,2386.2806,366.5449,2390.27,370.5554,2386.2595,374.5449,2395.27,370.5686" style="stroke:#333333;stroke-width:1.3;"/><text fill="#000000" font-family="Arial" font-size="14" lengthAdjust="spacing" textLength="119" x="2228.5" y="334.2305">service health view</text></g><!--link Alerts to Ops--><g id="link_Alerts_Ops"><path d="M2168.54,332.4386 C2185.79,327.1186 2204.63,321.3386 2222,316.0986 C2280.56,298.4186 2299.06,303.9986 2354,277.0986 C2364.2,272.1086 2369.6262,269.0041 2378.9162,262.3741 " fill="none" id="Alerts-to-Ops" style="stroke:#333333;stroke-width:1.3;"/><polygon fill="#333333" points="2383.8,258.8886,2374.1506,260.8609,2379.7301,261.7932,2378.7979,267.3727,2383.8,258.8886" style="stroke:#333333;stroke-width:1.3;"/><text fill="#000000" font-family="Arial" font-size="14" lengthAdjust="spacing" textLength="104" x="2236" y="273.2305">actionable alerts</text></g><!--link Alerts to Owner--><g id="link_Alerts_Owner"><path d="M2155.07,374.1686 C2175.14,382.8786 2199.2,391.7486 2222,396.0986 C2279.62,407.1086 2296.42,407.3486 2354,396.0986 C2368.24,393.3186 2377.8738,389.8765 2389.8138,384.3565 " fill="none" id="Alerts-to-Owner" style="stroke:#333333;stroke-width:1.3;"/><polygon fill="#333333" points="2395.26,381.8386,2385.4122,381.9846,2390.7215,383.9368,2388.7693,389.2461,2395.26,381.8386" style="stroke:#333333;stroke-width:1.3;"/><text fill="#000000" font-family="Arial" font-size="14" lengthAdjust="spacing" textLength="130" x="2223" y="392.2305">service-impact alerts</text></g><rect fill="none" height="58.2959" id="_legend" rx="7.5" ry="7.5" style="stroke:#000000;stroke-width:1.0;" width="575" x="936" y="623.0986"/><text fill="#000000" font-family="Arial" font-size="14" lengthAdjust="spacing" textLength="394" x="941" y="641.2305">Dotted arrows show telemetry emission from payment systems.</text><text fill="#000000" font-family="Arial" font-size="14" lengthAdjust="spacing" textLength="565" x="941" y="657.3291">Filtering and sensitive-data redaction happen before telemetry reaches shared backends.</text><text fill="#000000" font-family="Arial" font-size="14" lengthAdjust="spacing" textLength="401" x="941" y="673.4277">Dashboards support investigation; alert routing supports action.</text><!--SRC=[bLRRRjms47tdLqoTrsfJDqMAj401svjj0xHma1XvwVQ1AyrAX2bI9QbrDqN_lJEywEBSMiE0ASwPuLpE8VsLChKU6uJDvYdz-d3Mw9yEMfemzheA7VQu6MWfXCPZW631gROBq2Y7TL3MYA22HjYz-hcwlAo-URw1NwnJxws1QsdkuRKyzsW2t1uykfCyAAt26TufV132toipI2Txu5ZIj1JdRm5mRLs3xiPgw-39i_Z3kxA-RvqTJPCjk-ztBtRNufz5dDhsWpLytl-94tzMSQwSimztdQhl3NeFbvjdGimvNdoqmhTd7x3t5o1zMSSivfmclwrgLP1wRsuwQGpgv5G-rZuvlD-Rrrg6etLz19VjDNYdZ3IraXfkdEhnaSzaZSQrvqiJq0rEUOHNj6oTvE4-2h2maFUV8uxKZ9Sd3h32nQsoGyX61dcG5FhYnZg4BGxMgx0tgKsfU3BaVPh4ijbtg8c4mPtXhMgDpCtAwySTldEoneH8oxNvDugZwcJFwpNWLzicAoyuaONjTa0p9KEpirfJbjRb_FENM8r3KrULQK6QXif5G-Mf4rPRQWYymKP62SK0qvUOkxKIpTumSz4qAS7oiMpLH4NoKZLFib6rfAI8FNkYThBwyT0hx-aee5aIINpj40sdIID3KzDHD8X06rLjpL6vFeuS6jIIR4UfD3PL2PTYO6J1WPBIjjsRUlJ1zkWg7sGOFOm3LOKKlyr4Aec93waErEX4CafxAtrtiDBbgkVFfUELHXVWZHqvvuYBEru8oIE9eviYtg5CbBiTVB7dXktDxOF1DD2u4gA84ghVdtoxVNxrtUxhneQ0pH_LJvbYy0FTNoG67-2exOCeqloyIsbVu8tF-sIcajDYTCGeu4cC92WUWHThUNyfqZJpe7hw8nRQ_gWh2uBJJiG0jO1hrifAyryuFDCara2K40ln_vUpbwIa6UUMLWISL4ZeKAGgoi6VHiG3FcsUTnapAPLJShRc5o9E8wfTp6O65vaI5lyQhAEA5e4dAqDdKH2O7YwwAC1d9QjPC0iOUysAO2_bwUq-O_CObVJ0HNKEVMSr2MZXoH2I0zbxQnGNcW_-0CIgOFhal3gKEdHmulSydp77IcsG1xgQPDBZ4hAELAb-87m1qdyRBJK63iG1sujjf098VfOzKFuFSnC1YoIEplQJhdnwWZTYTGdJSUKEvckMX5k6rSc1xdSuu96Vg3cwGrbto8TA0aVgyiGsoyxuSU3HqfHET0keDZBpnrGBk7Gj5P3FRTa82fEg_1S0]--></g></svg>