<?xml version="1.0" encoding="us-ascii" standalone="no"?><svg xmlns="http://www.w3.org/2000/svg" xmlns:xlink="http://www.w3.org/1999/xlink" contentStyleType="text/css" height="818px" preserveAspectRatio="none" style="width:1149px;height:818px;background:#FFFFFF;" version="1.1" viewBox="0 0 1149 818" width="1149px" zoomAndPan="magnify"><defs/><g><text fill="#000000" font-family="Arial" font-size="14" font-weight="bold" lengthAdjust="spacing" textLength="416" x="359.5" y="23.1318">FIG-07-06. Horizon Bank implementation and migration view</text><!--cluster current--><g id="cluster_current"><path d="M8.5,239.0986 L103.5,239.0986 A3.75,3.75 0 0 1 106,241.5986 L113,277.2959 L233.5,277.2959 A2.5,2.5 0 0 1 236,279.7959 L236,612.5986 A2.5,2.5 0 0 1 233.5,615.0986 L8.5,615.0986 A2.5,2.5 0 0 1 6,612.5986 L6,241.5986 A2.5,2.5 0 0 1 8.5,239.0986 " fill="#F7F9FB" style="stroke:#000000;stroke-width:1.5;"/><line style="stroke:#000000;stroke-width:1.5;" x1="6" x2="113" y1="277.2959" y2="277.2959"/><text fill="#000000" font-family="Arial" font-size="14" font-weight="bold" lengthAdjust="spacing" textLength="94" x="10" y="254.2305">Current State</text><text fill="#000000" font-family="Arial" font-size="14" font-weight="bold" lengthAdjust="spacing" textLength="68" x="23" y="270.3291">&#171;Plateau&#187;</text></g><!--cluster transition--><g id="cluster_transition"><path d="M278.5,239.0986 L389.5,239.0986 A3.75,3.75 0 0 1 392,241.5986 L399,277.2959 L503.5,277.2959 A2.5,2.5 0 0 1 506,279.7959 L506,612.5986 A2.5,2.5 0 0 1 503.5,615.0986 L278.5,615.0986 A2.5,2.5 0 0 1 276,612.5986 L276,241.5986 A2.5,2.5 0 0 1 278.5,239.0986 " fill="#F7F9FB" style="stroke:#000000;stroke-width:1.5;"/><line style="stroke:#000000;stroke-width:1.5;" x1="276" x2="399" y1="277.2959" y2="277.2959"/><text fill="#000000" font-family="Arial" font-size="14" font-weight="bold" lengthAdjust="spacing" textLength="110" x="280" y="254.2305">Transition State</text><text fill="#000000" font-family="Arial" font-size="14" font-weight="bold" lengthAdjust="spacing" textLength="68" x="301" y="270.3291">&#171;Plateau&#187;</text></g><!--cluster target--><g id="cluster_target"><path d="M548.5,239.0986 L634.5,239.0986 A3.75,3.75 0 0 1 637,241.5986 L644,277.2959 L1139.5,277.2959 A2.5,2.5 0 0 1 1142,279.7959 L1142,406.5986 A2.5,2.5 0 0 1 1139.5,409.0986 L548.5,409.0986 A2.5,2.5 0 0 1 546,406.5986 L546,241.5986 A2.5,2.5 0 0 1 548.5,239.0986 " fill="#F7F9FB" style="stroke:#000000;stroke-width:1.5;"/><line style="stroke:#000000;stroke-width:1.5;" x1="546" x2="644" y1="277.2959" y2="277.2959"/><text fill="#000000" font-family="Arial" font-size="14" font-weight="bold" lengthAdjust="spacing" textLength="85" x="550" y="254.2305">Target State</text><text fill="#000000" font-family="Arial" font-size="14" font-weight="bold" lengthAdjust="spacing" textLength="68" x="558.5" y="270.3291">&#171;Plateau&#187;</text></g><!--entity current_onboarding--><g id="elem_current_onboarding"><rect fill="#FFF4D6" height="68.2959" rx="4" ry="4" style="stroke:#333333;stroke-width:0.5;" width="121" x="60.5" y="298.0986"/><text fill="#000000" font-family="Arial" font-size="14" lengthAdjust="spacing" textLength="101" x="70.5" y="321.2305">Product-specific</text><text fill="#000000" font-family="Arial" font-size="14" lengthAdjust="spacing" textLength="72" x="70.5" y="337.3291">onboarding</text><text fill="#000000" font-family="Arial" font-size="14" lengthAdjust="spacing" textLength="67" x="70.5" y="353.4277">&#171;Process&#187;</text></g><!--entity duplicate_stores--><g id="elem_duplicate_stores"><rect fill="#FFFFFF" height="68.2959" rx="4" ry="4" style="stroke:#333333;stroke-width:0.5;" width="141" x="50.5" y="401.0986"/><text fill="#000000" font-family="Arial" font-size="14" lengthAdjust="spacing" textLength="121" x="60.5" y="424.2305">Duplicate customer</text><text fill="#000000" font-family="Arial" font-size="14" lengthAdjust="spacing" textLength="39" x="60.5" y="440.3291">stores</text><text fill="#000000" font-family="Arial" font-size="14" lengthAdjust="spacing" textLength="91" x="60.5" y="456.4277">&#171;Data Object&#187;</text></g><!--entity current_core--><g id="elem_current_core"><rect fill="#EAF6E8" height="68.2959" rx="4" ry="4" style="stroke:#333333;stroke-width:0.5;" width="182" x="30" y="504.0986"/><text fill="#000000" font-family="Arial" font-size="14" lengthAdjust="spacing" textLength="83" x="40" y="527.2305">Core Deposit</text><text fill="#000000" font-family="Arial" font-size="14" lengthAdjust="spacing" textLength="46" x="40" y="543.3291">System</text><text fill="#000000" font-family="Arial" font-size="14" lengthAdjust="spacing" textLength="162" x="40" y="559.4277">&#171;Application Component&#187;</text></g><!--entity transition_onboarding--><g id="elem_transition_onboarding"><rect fill="#EAF6E8" height="68.2959" rx="4" ry="4" style="stroke:#333333;stroke-width:0.5;" width="182" x="300" y="298.0986"/><text fill="#000000" font-family="Arial" font-size="14" lengthAdjust="spacing" textLength="140" x="310" y="321.2305">Customer Onboarding</text><text fill="#000000" font-family="Arial" font-size="14" lengthAdjust="spacing" textLength="52" x="310" y="337.3291">Platform</text><text fill="#000000" font-family="Arial" font-size="14" lengthAdjust="spacing" textLength="162" x="310" y="353.4277">&#171;Application Component&#187;</text></g><!--entity transition_party--><g id="elem_transition_party"><rect fill="#EAF6E8" height="68.2959" rx="4" ry="4" style="stroke:#333333;stroke-width:0.5;" width="182" x="300" y="401.0986"/><text fill="#000000" font-family="Arial" font-size="14" lengthAdjust="spacing" textLength="126" x="310" y="424.2305">Party and Customer</text><text fill="#000000" font-family="Arial" font-size="14" lengthAdjust="spacing" textLength="52" x="310" y="440.3291">Platform</text><text fill="#000000" font-family="Arial" font-size="14" lengthAdjust="spacing" textLength="162" x="310" y="456.4277">&#171;Application Component&#187;</text></g><!--entity transition_core--><g id="elem_transition_core"><rect fill="#EAF6E8" height="68.2959" rx="4" ry="4" style="stroke:#333333;stroke-width:0.5;" width="182" x="300" y="504.0986"/><text fill="#000000" font-family="Arial" font-size="14" lengthAdjust="spacing" textLength="83" x="310" y="527.2305">Core Deposit</text><text fill="#000000" font-family="Arial" font-size="14" lengthAdjust="spacing" textLength="102" x="310" y="543.3291">System retained</text><text fill="#000000" font-family="Arial" font-size="14" lengthAdjust="spacing" textLength="162" x="310" y="559.4277">&#171;Application Component&#187;</text></g><!--entity target_onboarding--><g id="elem_target_onboarding"><rect fill="#E8F1FA" height="68.2959" rx="4" ry="4" style="stroke:#333333;stroke-width:0.5;" width="156" x="570" y="298.0986"/><text fill="#000000" font-family="Arial" font-size="14" lengthAdjust="spacing" textLength="136" x="580" y="321.2305">Reusable onboarding</text><text fill="#000000" font-family="Arial" font-size="14" lengthAdjust="spacing" textLength="45" x="580" y="337.3291">service</text><text fill="#000000" font-family="Arial" font-size="14" lengthAdjust="spacing" textLength="87" x="580" y="353.4277">&#171;Deliverable&#187;</text></g><!--entity target_profile--><g id="elem_target_profile"><rect fill="#E8F1FA" height="68.2959" rx="4" ry="4" style="stroke:#333333;stroke-width:0.5;" width="124" x="994" y="298.0986"/><text fill="#000000" font-family="Arial" font-size="14" lengthAdjust="spacing" textLength="104" x="1004" y="321.2305">Customer profile</text><text fill="#000000" font-family="Arial" font-size="14" lengthAdjust="spacing" textLength="45" x="1004" y="337.3291">service</text><text fill="#000000" font-family="Arial" font-size="14" lengthAdjust="spacing" textLength="87" x="1004" y="353.4277">&#171;Deliverable&#187;</text></g><!--entity target_outcome--><g id="elem_target_outcome"><rect fill="#EAF6E8" height="68.2959" rx="4" ry="4" style="stroke:#333333;stroke-width:0.5;" width="138" x="786" y="298.0986"/><text fill="#000000" font-family="Arial" font-size="14" lengthAdjust="spacing" textLength="118" x="796" y="321.2305">Reduced duplicate</text><text fill="#000000" font-family="Arial" font-size="14" lengthAdjust="spacing" textLength="110" x="796" y="337.3291">customer capture</text><text fill="#000000" font-family="Arial" font-size="14" lengthAdjust="spacing" textLength="73" x="796" y="353.4277">&#171;Outcome&#187;</text></g><!--entity wp_onboarding--><g id="elem_wp_onboarding"><rect fill="#F7E8D0" height="68.2959" rx="4" ry="4" style="stroke:#333333;stroke-width:0.5;" width="151" x="572.5" y="436.0986"/><text fill="#000000" font-family="Arial" font-size="14" lengthAdjust="spacing" textLength="124" x="582.5" y="459.2305">Introduce Customer</text><text fill="#000000" font-family="Arial" font-size="14" lengthAdjust="spacing" textLength="131" x="582.5" y="475.3291">Onboarding Platform</text><text fill="#000000" font-family="Arial" font-size="14" lengthAdjust="spacing" textLength="108" x="582.5" y="491.4277">&#171;Work Package&#187;</text></g><!--entity wp_party--><g id="elem_wp_party"><rect fill="#F7E8D0" height="68.2959" rx="4" ry="4" style="stroke:#333333;stroke-width:0.5;" width="144" x="984" y="147.0986"/><text fill="#000000" font-family="Arial" font-size="14" lengthAdjust="spacing" textLength="124" x="994" y="170.2305">Introduce Party and</text><text fill="#000000" font-family="Arial" font-size="14" lengthAdjust="spacing" textLength="117" x="994" y="186.3291">Customer Platform</text><text fill="#000000" font-family="Arial" font-size="14" lengthAdjust="spacing" textLength="108" x="994" y="202.4277">&#171;Work Package&#187;</text></g><!--entity wp_core--><g id="elem_wp_core"><rect fill="#F7E8D0" height="68.2959" rx="4" ry="4" style="stroke:#333333;stroke-width:0.5;" width="153" x="44.5" y="44.0986"/><text fill="#000000" font-family="Arial" font-size="14" lengthAdjust="spacing" textLength="112" x="54.5" y="67.2305">Integrate retained</text><text fill="#000000" font-family="Arial" font-size="14" lengthAdjust="spacing" textLength="133" x="54.5" y="83.3291">Core Deposit System</text><text fill="#000000" font-family="Arial" font-size="14" lengthAdjust="spacing" textLength="108" x="54.5" y="99.4277">&#171;Work Package&#187;</text></g><!--entity event_transition--><g id="elem_event_transition"><rect fill="#FFF4D6" height="68.2959" rx="4" ry="4" style="stroke:#333333;stroke-width:0.5;" width="134" x="54" y="147.0986"/><text fill="#000000" font-family="Arial" font-size="14" lengthAdjust="spacing" textLength="114" x="64" y="170.2305">Transition release</text><text fill="#000000" font-family="Arial" font-size="14" lengthAdjust="spacing" textLength="65" x="64" y="186.3291">completed</text><text fill="#000000" font-family="Arial" font-size="14" lengthAdjust="spacing" textLength="52" x="64" y="202.4277">&#171;Event&#187;</text></g><!--link current to transition--><g id="link_current_transition"><path d="M236.5584,607.0986 C237.0567,607.0986 237.5553,607.0986 238.0542,607.0986 C240.0499,607.0986 242.051,607.0986 244.0555,607.0986 C248.0647,607.0986 252.088,607.0986 256.1113,607.0986 C260.1345,607.0986 264.1575,607.0986 268.1662,607.0986 C270.1705,607.0986 272.1712,607.0986 274.1665,607.0986 C274.6654,607.0986 275.1639,607.0986 275.662,607.0986 " fill="none" id="current-transition" style="stroke:#333333;stroke-width:1.2;stroke-dasharray:7.0,7.0;"/><text fill="#000000" font-family="Arial" font-size="14" lengthAdjust="spacing" textLength="17" x="238.01" y="621.2305">A1</text></g><!--link transition to target--><g id="link_transition_target"><path d="M506.0809,607.0986 C518.0819,607.0986 526,607.0986 526,607.0986 C526,607.0986 526,401.5986 526,401.5986 C526,401.5986 533.3888,401.5986 544.5295,401.5986 C544.8777,401.5986 545.2295,401.5986 545.5849,401.5986 " fill="none" id="transition-target" style="stroke:#333333;stroke-width:1.2;stroke-dasharray:7.0,7.0;"/><text fill="#000000" font-family="Arial" font-size="14" lengthAdjust="spacing" textLength="17" x="508" y="524.8305">A2</text></g><!--link wp_onboarding to target_onboarding--><g id="link_wp_onboarding_target_onboarding"><path d="M687,435.9886 C687,414.7586 687,393.5486 687,372.2986 " fill="none" id="wp_onboarding-to-target_onboarding" style="stroke:#333333;stroke-width:1.2;"/><polygon fill="#333333" points="687,366.2986,683,375.2986,687,371.2986,691,375.2986,687,366.2986" style="stroke:#333333;stroke-width:1.2;"/><text fill="#000000" font-family="Arial" font-size="14" lengthAdjust="spacing" textLength="10" x="676" y="415.2705">R</text></g><!--link wp_party to target_profile--><g id="link_wp_party_target_profile"><path d="M1056,215.3586 C1056,240.0786 1056,267.2886 1056,291.9686 " fill="none" id="wp_party-to-target_profile" style="stroke:#333333;stroke-width:1.2;"/><polygon fill="#333333" points="1056,297.9686,1060,288.9686,1056,292.9686,1052,288.9686,1056,297.9686" style="stroke:#333333;stroke-width:1.2;"/><text fill="#000000" font-family="Arial" font-size="14" lengthAdjust="spacing" textLength="10" x="1045" y="270.8005">R</text></g><!--link wp_core to transition_core--><g id="link_wp_core_transition_core"><path d="M197.76,78.0986 C234.66,78.0986 271,78.0986 271,78.0986 C271,78.0986 271,526.7686 271,526.7686 C271,526.7686 283.16,526.7686 299.74,526.7686 " fill="none" id="wp_core-transition_core" style="stroke:#333333;stroke-width:1.2;stroke-dasharray:7.0,7.0;"/><text fill="#000000" font-family="Arial" font-size="14" lengthAdjust="spacing" textLength="17" x="253" y="294.3105">A3</text></g><!--link target_onboarding to target_outcome--><g id="link_target_onboarding_target_outcome"><path d="M726.26,332.0986 C745.84,332.0986 760.7,332.0986 779.8,332.0986 " fill="none" id="target_onboarding-to-target_outcome" style="stroke:#333333;stroke-width:1.2;"/><polygon fill="#333333" points="785.8,332.0986,776.8,328.0986,780.8,332.0986,776.8,336.0986,785.8,332.0986" style="stroke:#333333;stroke-width:1.2;"/><text fill="#000000" font-family="Arial" font-size="14" lengthAdjust="spacing" textLength="3" x="752.03" y="346.2305">I</text></g><!--reverse link target_outcome to target_profile--><g id="link_target_outcome_target_profile"><path d="M930.17,332.0986 C952.77,332.0986 971.72,332.0986 993.77,332.0986 " fill="none" id="target_outcome-backto-target_profile" style="stroke:#333333;stroke-width:1.2;"/><polygon fill="#333333" points="924.17,332.0986,933.17,336.0986,929.17,332.0986,933.17,328.0986,924.17,332.0986" style="stroke:#333333;stroke-width:1.2;"/><text fill="#000000" font-family="Arial" font-size="14" lengthAdjust="spacing" textLength="3" x="954.97" y="346.2305">I</text></g><!--link event_transition to transition--><g id="link_event_transition_transition"><path d="M188.22,181.0986 C216.07,181.0986 242,181.0986 242,181.0986 C242,181.0986 242,589.0986 242,589.0986 C242,589.0986 251.3125,589.0986 265.2813,589.0986 C267.0273,589.0986 268.8462,589.0986 270.7287,589.0986 C271.67,589.0986 272.6271,589.0986 273.5991,589.0986 C274.085,589.0986 274.5747,589.0986 275.0679,589.0986 C275.3145,589.0986 275.562,589.0986 275.8104,589.0986 " fill="none" id="event_transition-transition" style="stroke:#333333;stroke-width:1.2;stroke-dasharray:7.0,7.0;"/><text fill="#000000" font-family="Arial" font-size="14" lengthAdjust="spacing" textLength="17" x="224" y="455.6205">A4</text></g><!--link transition_onboarding to target_onboarding--><g id="link_transition_onboarding_target_onboarding"><path d="M482.33,332.0986 C510.9,332.0986 542.15,332.0986 569.73,332.0986 " fill="none" id="transition_onboarding-target_onboarding" style="stroke:#333333;stroke-width:1.2;stroke-dasharray:7.0,7.0;"/><text fill="#000000" font-family="Arial" font-size="14" lengthAdjust="spacing" textLength="17" x="508.03" y="346.2305">A5</text></g><!--link transition_party to target_profile--><g id="link_transition_party_target_profile"><path d="M482.07,419.0986 C664.2,419.0986 1056,419.0986 1056,419.0986 C1056,419.0986 1056,390.7986 1056,366.4786 " fill="none" id="transition_party-target_profile" style="stroke:#333333;stroke-width:1.2;stroke-dasharray:7.0,7.0;"/><text fill="#000000" font-family="Arial" font-size="14" lengthAdjust="spacing" textLength="17" x="777.34" y="433.2305">A5</text></g><!--link current_core to transition_core--><g id="link_current_core_transition_core"><path d="M212.03,549.4286 C240.36,549.4286 271.58,549.4286 299.9,549.4286 " fill="none" id="current_core-transition_core" style="stroke:#333333;stroke-width:1.2;stroke-dasharray:7.0,7.0;"/><text fill="#000000" font-family="Arial" font-size="14" lengthAdjust="spacing" textLength="17" x="237.97" y="563.5605">A6</text></g><rect fill="none" height="154.8877" id="_legend" rx="7.5" ry="7.5" style="stroke:#000000;stroke-width:1.0;" width="422" x="356.5" y="643.1973"/><text fill="#000000" font-family="Arial" font-size="14" lengthAdjust="spacing" textLength="184" x="361.5" y="661.3291">R = Realisation. I = Influence.</text><text fill="#000000" font-family="Arial" font-size="14" lengthAdjust="spacing" textLength="287" x="361.5" y="677.4277">A1 = planned transition. A2 = target adoption.</text><text fill="#000000" font-family="Arial" font-size="14" lengthAdjust="spacing" textLength="362" x="361.5" y="693.5264">A3 = retained integration. A4 = release event association.</text><text fill="#000000" font-family="Arial" font-size="14" lengthAdjust="spacing" textLength="412" x="361.5" y="709.625">A5 = concept reused in target deliverables. A6 = retained system.</text><text fill="#000000" font-family="Arial" font-size="14" lengthAdjust="spacing" textLength="296" x="361.5" y="725.7236">Plateaus are ordered by layout, not Triggering.</text><text fill="#000000" font-family="Arial" font-size="14" lengthAdjust="spacing" textLength="231" x="361.5" y="741.8223">Work Packages realise Deliverables.</text><text fill="#000000" font-family="Arial" font-size="14" lengthAdjust="spacing" textLength="228" x="361.5" y="757.9209">Deliverables influence the Outcome.</text><text fill="#000000" font-family="Arial" font-size="14" lengthAdjust="spacing" textLength="339" x="361.5" y="774.0195">Associations explain movement and retained systems.</text><text fill="#000000" font-family="Arial" font-size="14" lengthAdjust="spacing" textLength="246" x="361.5" y="790.1182">The removed Gap element is not used.</text><!--SRC=[dLPDRziw4BppLspJQwqcRUgaGHl0jQFMfmHkW5uC1BIqTjX8945IJlqU-j-xf6IBicNq8p0GYHpEBeUpIxqGCYkg7259NjFFkas1zhKkk7HLMGpS8vQOQ7fap0bN8AJJpuFJYy7fC84loeZ_b8HFN3w1A7L1MEcu4pJ6PGwbM9dwRItmcJ7x9AJcXfTG28bken6KSOygcZ2OEIvN5ET_1Z1JbSp7oaWqSCb-CbRWqe5JOCJgqK4kF9pu6TCyU-8hX9DnPGmb0Lyf3vpB3n_k2dhWrVNr2N0BMJFzChr8twUVGfGsvicTKNcLkO7Lc8cboEPIoONY9XTo5SYCoj3QBjb3Yo7UD3sV3BkiaqeN8gCqQ8LrgaGpb_JVeFMS4-uut2w-4xxXpRVuXneLMEcloqgw84nGAolSN7xTM8UbvnlfUhNNVQnAhIJbk9TnvjU-l1cbmvkWwqw-UyCbyVcrHnHqBUA8YEDcat0RQUT9bihyDiEMlYDhashtiBXncs2qyKxMVmYZ0qrlX3w9QTvnic_-5o6EoytD2e-QrTMpHsIUOMNvWfvYYreqQv45hWaMOet6GpfyNLqlqxDqTEJyj55BKU2ViJRWViePKbbXtZfxBhUb01dNhZA1_BPo6OtjfLiFnlf5p5FfGirYP8BMTn3xuPioJt1NIz-4UDRTuhsukPoSzjFlt3QNEu5-pzwOgvSOVNV4o4-ntQ0jw7xcsbE7n5456ooGMw-ryitPrPwzMRSUHV_yq2dfkd-nRQDCahZYhs1qng9tFrkRb6RUCDRLSn3QzE2wntXNC6CxUVPnMoireB3JJXxr48LyIxVI0VSWLyyoYjhuvmgcR2_0eDBzk0DT3cGuPwo_LUqawMvtz8uTz9mMskwOS9qctR_leRyALqYjRw4SUT7VbV0HPiWBOKCxIc1A0rEvB2gK6IQ469tHYB_PoMmHQK8dHnFDEV9SwJ3g5xobyQqzGJIEhPUSXwdWhzf5P2UhCi5tYzyH8bCKMpj2LZPGRCFaRHknn3QC0zdWVC_Hj4CBtFXFXHmDJIysKF0DdTOhaCh1FPbdXOPKzYlYMh54wVNmDHL58rJyJaar6W5zx43JWi8EsWrHfVmWvIZ_Kgt3LqwuT_PI3jptZxwaFIo7prm3rbz586n8r-kGC3gv-ln-0G00]--></g></svg>