<?xml version="1.0" encoding="us-ascii" standalone="no"?><svg xmlns="http://www.w3.org/2000/svg" xmlns:xlink="http://www.w3.org/1999/xlink" contentStyleType="text/css" height="1488px" preserveAspectRatio="none" style="width:976px;height:1488px;background:#FFFFFF;" version="1.1" viewBox="0 0 976 1488" width="976px" zoomAndPan="magnify"><defs/><g><text fill="#000000" font-family="Arial" font-size="14" font-weight="bold" lengthAdjust="spacing" textLength="350" x="306.0105" y="23.1318">FIG-07-02. Horizon Bank layered architecture view</text><!--cluster panel_business--><g id="cluster_panel_business"><path d="M17.521,651.0986 L222.521,651.0986 A3.75,3.75 0 0 1 225.021,653.5986 L232.021,673.1973 L966.521,673.1973 A2.5,2.5 0 0 1 969.021,675.6973 L969.021,1373.5986 A2.5,2.5 0 0 1 966.521,1376.0986 L17.521,1376.0986 A2.5,2.5 0 0 1 15.021,1373.5986 L15.021,653.5986 A2.5,2.5 0 0 1 17.521,651.0986 " fill="#FFFFFF" style="stroke:#000000;stroke-width:1.5;"/><line style="stroke:#000000;stroke-width:1.5;" x1="15.021" x2="232.021" y1="673.1973" y2="673.1973"/><text fill="#000000" font-family="Arial" font-size="14" font-weight="bold" lengthAdjust="spacing" textLength="204" x="19.021" y="666.2305">Business to application trace</text></g><!--cluster panel_technology--><g id="cluster_panel_technology"><path d="M27.521,43.0986 L246.521,43.0986 A3.75,3.75 0 0 1 249.021,45.5986 L256.021,65.1973 L723.521,65.1973 A2.5,2.5 0 0 1 726.021,67.6973 L726.021,603.5986 A2.5,2.5 0 0 1 723.521,606.0986 L27.521,606.0986 A2.5,2.5 0 0 1 25.021,603.5986 L25.021,45.5986 A2.5,2.5 0 0 1 27.521,43.0986 " fill="#FFFFFF" style="stroke:#000000;stroke-width:1.5;"/><line style="stroke:#000000;stroke-width:1.5;" x1="25.021" x2="256.021" y1="65.1973" y2="65.1973"/><text fill="#000000" font-family="Arial" font-size="14" font-weight="bold" lengthAdjust="spacing" textLength="218" x="29.021" y="58.2305">Application to technology trace</text></g><!--entity cap_customer--><g id="elem_cap_customer"><rect fill="#E8F1FA" height="68.2959" rx="4" ry="4" style="stroke:#333333;stroke-width:0.5;" width="167" x="39.021" y="708.0986"/><text fill="#000000" font-family="Arial" font-size="14" lengthAdjust="spacing" textLength="147" x="49.021" y="731.2305">Customer Management</text><text fill="#000000" font-family="Arial" font-size="14" lengthAdjust="spacing" textLength="78" x="49.021" y="747.3291">&#171;Capability&#187;</text><text fill="#000000" font-family="Arial" font-size="14" lengthAdjust="spacing" textLength="103" x="49.021" y="763.4277">Strategy domain</text></g><!--entity cap_onboarding--><g id="elem_cap_onboarding"><rect fill="#E8F1FA" height="68.2959" rx="4" ry="4" style="stroke:#333333;stroke-width:0.5;" width="160" x="297.021" y="705.0986"/><text fill="#000000" font-family="Arial" font-size="14" lengthAdjust="spacing" textLength="140" x="307.021" y="728.2305">Customer Onboarding</text><text fill="#000000" font-family="Arial" font-size="14" lengthAdjust="spacing" textLength="78" x="307.021" y="744.3291">&#171;Capability&#187;</text><text fill="#000000" font-family="Arial" font-size="14" lengthAdjust="spacing" textLength="103" x="307.021" y="760.4277">Strategy domain</text></g><!--entity actor_bank--><g id="elem_actor_bank"><rect fill="#FFF4D6" height="68.2959" rx="4" ry="4" style="stroke:#333333;stroke-width:0.5;" width="127" x="59.021" y="896.0986"/><text fill="#000000" font-family="Arial" font-size="14" lengthAdjust="spacing" textLength="83" x="69.021" y="919.2305">Horizon Bank</text><text fill="#000000" font-family="Arial" font-size="14" lengthAdjust="spacing" textLength="49" x="69.021" y="935.3291">&#171;Actor&#187;</text><text fill="#000000" font-family="Arial" font-size="14" lengthAdjust="spacing" textLength="107" x="69.021" y="951.4277">Business domain</text></g><!--entity role_provider--><g id="elem_role_provider"><rect fill="#FFF4D6" height="68.2959" rx="4" ry="4" style="stroke:#333333;stroke-width:0.5;" width="128" x="313.021" y="896.0986"/><text fill="#000000" font-family="Arial" font-size="14" lengthAdjust="spacing" textLength="108" x="323.021" y="919.2305">Account Provider</text><text fill="#000000" font-family="Arial" font-size="14" lengthAdjust="spacing" textLength="45" x="323.021" y="935.3291">&#171;Role&#187;</text><text fill="#000000" font-family="Arial" font-size="14" lengthAdjust="spacing" textLength="107" x="323.021" y="951.4277">Business domain</text></g><!--entity bp_onboarding--><g id="elem_bp_onboarding"><rect fill="#FFF4D6" height="84.3945" rx="4" ry="4" style="stroke:#333333;stroke-width:0.5;" width="160" x="550.021" y="888.0986"/><text fill="#000000" font-family="Arial" font-size="14" lengthAdjust="spacing" textLength="140" x="560.021" y="911.2305">Customer Onboarding</text><text fill="#000000" font-family="Arial" font-size="14" lengthAdjust="spacing" textLength="51" x="560.021" y="927.3291">Process</text><text fill="#000000" font-family="Arial" font-size="14" lengthAdjust="spacing" textLength="67" x="560.021" y="943.4277">&#171;Process&#187;</text><text fill="#000000" font-family="Arial" font-size="14" lengthAdjust="spacing" textLength="107" x="560.021" y="959.5264">Business domain</text></g><!--entity bs_open_profile--><g id="elem_bs_open_profile"><rect fill="#FFF4D6" height="84.3945" rx="4" ry="4" style="stroke:#333333;stroke-width:0.5;" width="164" x="548.021" y="694.0986"/><text fill="#000000" font-family="Arial" font-size="14" lengthAdjust="spacing" textLength="144" x="558.021" y="717.2305">Open Customer Profile</text><text fill="#000000" font-family="Arial" font-size="14" lengthAdjust="spacing" textLength="47" x="558.021" y="733.3291">Service</text><text fill="#000000" font-family="Arial" font-size="14" lengthAdjust="spacing" textLength="63" x="558.021" y="749.4277">&#171;Service&#187;</text><text fill="#000000" font-family="Arial" font-size="14" lengthAdjust="spacing" textLength="107" x="558.021" y="765.5264">Business domain</text></g><!--entity app_party--><g id="elem_app_party"><rect fill="#EAF6E8" height="84.3945" rx="4" ry="4" style="stroke:#333333;stroke-width:0.5;" width="182" x="286.021" y="1260.0986"/><text fill="#000000" font-family="Arial" font-size="14" lengthAdjust="spacing" textLength="126" x="296.021" y="1283.2305">Party and Customer</text><text fill="#000000" font-family="Arial" font-size="14" lengthAdjust="spacing" textLength="52" x="296.021" y="1299.3291">Platform</text><text fill="#000000" font-family="Arial" font-size="14" lengthAdjust="spacing" textLength="162" x="296.021" y="1315.4277">&#171;Application Component&#187;</text><text fill="#000000" font-family="Arial" font-size="14" lengthAdjust="spacing" textLength="119" x="296.021" y="1331.5264">Application domain</text></g><!--entity app_func--><g id="elem_app_func"><rect fill="#EAF6E8" height="84.3945" rx="4" ry="4" style="stroke:#333333;stroke-width:0.5;" width="161" x="549.521" y="1260.0986"/><text fill="#000000" font-family="Arial" font-size="14" lengthAdjust="spacing" textLength="105" x="559.521" y="1283.2305">Customer Profile</text><text fill="#000000" font-family="Arial" font-size="14" lengthAdjust="spacing" textLength="141" x="559.521" y="1299.3291">Management Function</text><text fill="#000000" font-family="Arial" font-size="14" lengthAdjust="spacing" textLength="71" x="559.521" y="1315.4277">&#171;Function&#187;</text><text fill="#000000" font-family="Arial" font-size="14" lengthAdjust="spacing" textLength="119" x="559.521" y="1331.5264">Application domain</text></g><!--entity app_service--><g id="elem_app_service"><rect fill="#EAF6E8" height="84.3945" rx="4" ry="4" style="stroke:#333333;stroke-width:0.5;" width="153" x="792.021" y="1074.0986"/><text fill="#000000" font-family="Arial" font-size="14" lengthAdjust="spacing" textLength="105" x="802.021" y="1097.2305">Customer Profile</text><text fill="#000000" font-family="Arial" font-size="14" lengthAdjust="spacing" textLength="133" x="802.021" y="1113.3291">Management Service</text><text fill="#000000" font-family="Arial" font-size="14" lengthAdjust="spacing" textLength="63" x="802.021" y="1129.4277">&#171;Service&#187;</text><text fill="#000000" font-family="Arial" font-size="14" lengthAdjust="spacing" textLength="119" x="802.021" y="1145.5264">Application domain</text></g><!--entity bo_customer--><g id="elem_bo_customer"><rect fill="#F7F9FB" height="68.2959" rx="4" ry="4" style="stroke:#333333;stroke-width:0.5;" width="138" x="561.021" y="1082.0986"/><text fill="#000000" font-family="Arial" font-size="14" lengthAdjust="spacing" textLength="111" x="571.021" y="1105.2305">Customer Record</text><text fill="#000000" font-family="Arial" font-size="14" lengthAdjust="spacing" textLength="118" x="571.021" y="1121.3291">&#171;Business Object&#187;</text><text fill="#000000" font-family="Arial" font-size="14" lengthAdjust="spacing" textLength="107" x="571.021" y="1137.4277">Business domain</text></g><!--entity app_party_tech--><g id="elem_app_party_tech"><rect fill="#EAF6E8" height="100.4932" rx="4" ry="4" style="stroke:#333333;stroke-width:0.5;" width="182" x="286.021" y="280.0986"/><text fill="#000000" font-family="Arial" font-size="14" lengthAdjust="spacing" textLength="126" x="296.021" y="303.2305">Party and Customer</text><text fill="#000000" font-family="Arial" font-size="14" lengthAdjust="spacing" textLength="52" x="296.021" y="319.3291">Platform</text><text fill="#000000" font-family="Arial" font-size="14" lengthAdjust="spacing" textLength="54" x="296.021" y="335.4277">(reused)</text><text fill="#000000" font-family="Arial" font-size="14" lengthAdjust="spacing" textLength="162" x="296.021" y="351.5264">&#171;Application Component&#187;</text><text fill="#000000" font-family="Arial" font-size="14" lengthAdjust="spacing" textLength="119" x="296.021" y="367.625">Application domain</text></g><!--entity app_onboarding--><g id="elem_app_onboarding"><rect fill="#EAF6E8" height="84.3945" rx="4" ry="4" style="stroke:#333333;stroke-width:0.5;" width="182" x="286.021" y="86.0986"/><text fill="#000000" font-family="Arial" font-size="14" lengthAdjust="spacing" textLength="140" x="296.021" y="109.2305">Customer Onboarding</text><text fill="#000000" font-family="Arial" font-size="14" lengthAdjust="spacing" textLength="52" x="296.021" y="125.3291">Platform</text><text fill="#000000" font-family="Arial" font-size="14" lengthAdjust="spacing" textLength="162" x="296.021" y="141.4277">&#171;Application Component&#187;</text><text fill="#000000" font-family="Arial" font-size="14" lengthAdjust="spacing" textLength="119" x="296.021" y="157.5264">Application domain</text></g><!--entity tech_node--><g id="elem_tech_node"><rect fill="#F1E8FA" height="84.3945" rx="4" ry="4" style="stroke:#333333;stroke-width:0.5;" width="147" x="49.021" y="404.0986"/><text fill="#000000" font-family="Arial" font-size="14" lengthAdjust="spacing" textLength="125" x="59.021" y="427.2305">Application Runtime</text><text fill="#000000" font-family="Arial" font-size="14" lengthAdjust="spacing" textLength="33" x="59.021" y="443.3291">Node</text><text fill="#000000" font-family="Arial" font-size="14" lengthAdjust="spacing" textLength="127" x="59.021" y="459.4277">&#171;Technology Node&#187;</text><text fill="#000000" font-family="Arial" font-size="14" lengthAdjust="spacing" textLength="124" x="59.021" y="475.5264">Technology domain</text></g><!--entity tech_func--><g id="elem_tech_func"><rect fill="#F1E8FA" height="84.3945" rx="4" ry="4" style="stroke:#333333;stroke-width:0.5;" width="144" x="305.021" y="490.0986"/><text fill="#000000" font-family="Arial" font-size="14" lengthAdjust="spacing" textLength="103" x="315.021" y="513.2305">Runtime Hosting</text><text fill="#000000" font-family="Arial" font-size="14" lengthAdjust="spacing" textLength="55" x="315.021" y="529.3291">Function</text><text fill="#000000" font-family="Arial" font-size="14" lengthAdjust="spacing" textLength="71" x="315.021" y="545.4277">&#171;Function&#187;</text><text fill="#000000" font-family="Arial" font-size="14" lengthAdjust="spacing" textLength="124" x="315.021" y="561.5264">Technology domain</text></g><!--entity tech_service--><g id="elem_tech_service"><rect fill="#F1E8FA" height="84.3945" rx="4" ry="4" style="stroke:#333333;stroke-width:0.5;" width="144" x="558.021" y="288.0986"/><text fill="#000000" font-family="Arial" font-size="14" lengthAdjust="spacing" textLength="103" x="568.021" y="311.2305">Runtime Hosting</text><text fill="#000000" font-family="Arial" font-size="14" lengthAdjust="spacing" textLength="47" x="568.021" y="327.3291">Service</text><text fill="#000000" font-family="Arial" font-size="14" lengthAdjust="spacing" textLength="63" x="568.021" y="343.4277">&#171;Service&#187;</text><text fill="#000000" font-family="Arial" font-size="14" lengthAdjust="spacing" textLength="124" x="568.021" y="359.5264">Technology domain</text></g><!--link cap_customer to cap_onboarding--><g id="link_cap_customer_cap_onboarding"><path d="M206.211,740.5986 C235.331,740.5986 261.911,740.5986 290.751,740.5986 " fill="none" id="cap_customer-to-cap_onboarding" style="stroke:#333333;stroke-width:1.2;"/><polygon fill="#333333" points="296.751,740.5986,287.751,736.5986,291.751,740.5986,287.751,744.5986,296.751,740.5986" style="stroke:#333333;stroke-width:1.2;"/><text fill="#000000" font-family="Arial" font-size="14" lengthAdjust="spacing" textLength="75" x="175.481" y="754.7305">composition</text></g><!--link actor_bank to role_provider--><g id="link_actor_bank_role_provider"><path d="M186.081,930.0986 C224.811,930.0986 268.131,930.0986 306.941,930.0986 " fill="none" id="actor_bank-to-role_provider" style="stroke:#333333;stroke-width:1.2;"/><polygon fill="#333333" points="312.941,930.0986,303.941,926.0986,307.941,930.0986,303.941,934.0986,312.941,930.0986" style="stroke:#333333;stroke-width:1.2;"/><text fill="#000000" font-family="Arial" font-size="14" lengthAdjust="spacing" textLength="72" x="176.511" y="944.2305">assignment</text></g><!--link role_provider to bp_onboarding--><g id="link_role_provider_bp_onboarding"><path d="M441.191,930.0986 C474.131,930.0986 508.581,930.0986 543.591,930.0986 " fill="none" id="role_provider-to-bp_onboarding" style="stroke:#333333;stroke-width:1.2;"/><polygon fill="#333333" points="549.591,930.0986,540.591,926.0986,544.591,930.0986,540.591,934.0986,549.591,930.0986" style="stroke:#333333;stroke-width:1.2;"/><text fill="#000000" font-family="Arial" font-size="14" lengthAdjust="spacing" textLength="72" x="422.391" y="944.2305">assignment</text></g><!--link bp_onboarding to bs_open_profile--><g id="link_bp_onboarding_bs_open_profile"><path d="M630.021,887.9986 C630.021,855.4586 630.021,816.6286 630.021,784.1086 " fill="none" id="bp_onboarding-to-bs_open_profile" style="stroke:#333333;stroke-width:1.2;"/><polygon fill="#333333" points="630.021,778.1086,626.021,787.1086,630.021,783.1086,634.021,787.1086,630.021,778.1086" style="stroke:#333333;stroke-width:1.2;"/><text fill="#000000" font-family="Arial" font-size="14" lengthAdjust="spacing" textLength="65" x="564.021" y="847.1905">realisation</text></g><!--reverse link cap_onboarding to bs_open_profile--><g id="link_cap_onboarding_bs_open_profile"><path d="M463.071,739.0986 C492.021,739.0986 518.751,739.0986 547.881,739.0986 " fill="none" id="cap_onboarding-backto-bs_open_profile" style="stroke:#333333;stroke-width:1.2;"/><polygon fill="#333333" points="457.071,739.0986,466.071,743.0986,462.071,739.0986,466.071,735.0986,457.071,739.0986" style="stroke:#333333;stroke-width:1.2;"/><text fill="#000000" font-family="Arial" font-size="14" lengthAdjust="spacing" textLength="46" x="455.471" y="753.2305">serving</text></g><!--link app_party to app_func--><g id="link_app_party_app_func"><path d="M468.361,1302.0986 C494.831,1302.0986 517.531,1302.0986 543.301,1302.0986 " fill="none" id="app_party-to-app_func" style="stroke:#333333;stroke-width:1.2;"/><polygon fill="#333333" points="549.301,1302.0986,540.301,1298.0986,544.301,1302.0986,540.301,1306.0986,549.301,1302.0986" style="stroke:#333333;stroke-width:1.2;"/><text fill="#000000" font-family="Arial" font-size="14" lengthAdjust="spacing" textLength="72" x="435.831" y="1316.2305">assignment</text></g><!--link app_func to bo_customer--><g id="link_app_func_bo_customer"><path d="M630.021,1259.8886 C630.021,1226.7686 630.021,1187.2586 630.021,1156.3686 " fill="none" id="app_func-to-bo_customer" style="stroke:#333333;stroke-width:1.2;"/><polygon fill="#333333" points="630.021,1150.3686,626.021,1159.3686,630.021,1155.3686,634.021,1159.3686,630.021,1150.3686" style="stroke:#333333;stroke-width:1.2;"/><text fill="#000000" font-family="Arial" font-size="14" lengthAdjust="spacing" textLength="44" x="585.021" y="1219.2605">access</text></g><!--link app_func to app_service--><g id="link_app_func_app_service"><path d="M703.021,1260.0886 C703.021,1216.3286 703.021,1154.0986 703.021,1154.0986 C703.021,1154.0986 742.361,1154.0986 785.581,1154.0986 " fill="none" id="app_func-to-app_service" style="stroke:#333333;stroke-width:1.2;"/><polygon fill="#333333" points="791.581,1154.0986,782.581,1150.0986,786.581,1154.0986,782.581,1158.0986,791.581,1154.0986" style="stroke:#333333;stroke-width:1.2;"/><text fill="#000000" font-family="Arial" font-size="14" lengthAdjust="spacing" textLength="65" x="637.021" y="1176.9405">realisation</text></g><!--reverse link bp_onboarding to app_service--><g id="link_bp_onboarding_app_service"><path d="M707.021,978.1086 C707.021,1021.8686 707.021,1078.0986 707.021,1078.0986 C707.021,1078.0986 749.961,1078.0986 791.551,1078.0986 " fill="none" id="bp_onboarding-backto-app_service" style="stroke:#333333;stroke-width:1.2;"/><polygon fill="#333333" points="707.021,972.1086,703.021,981.1086,707.021,977.1086,711.021,981.1086,707.021,972.1086" style="stroke:#333333;stroke-width:1.2;"/><text fill="#000000" font-family="Arial" font-size="14" lengthAdjust="spacing" textLength="46" x="708.021" y="1081.5005">serving</text></g><!--link tech_node to tech_func--><g id="link_tech_node_tech_func"><path d="M160.021,488.3386 C160.021,510.0886 160.021,532.0986 160.021,532.0986 C160.021,532.0986 235.641,532.0986 298.761,532.0986 " fill="none" id="tech_node-to-tech_func" style="stroke:#333333;stroke-width:1.2;"/><polygon fill="#333333" points="304.761,532.0986,295.761,528.0986,299.761,532.0986,295.761,536.0986,304.761,532.0986" style="stroke:#333333;stroke-width:1.2;"/><text fill="#000000" font-family="Arial" font-size="14" lengthAdjust="spacing" textLength="72" x="137.511" y="546.2305">assignment</text></g><!--link tech_func to tech_service--><g id="link_tech_func_tech_service"><path d="M449.181,532.0986 C523.961,532.0986 630.021,532.0986 630.021,532.0986 C630.021,532.0986 630.021,437.6786 630.021,378.4486 " fill="none" id="tech_func-to-tech_service" style="stroke:#333333;stroke-width:1.2;"/><polygon fill="#333333" points="630.021,372.4486,626.021,381.4486,630.021,377.4486,634.021,381.4486,630.021,372.4486" style="stroke:#333333;stroke-width:1.2;"/><text fill="#000000" font-family="Arial" font-size="14" lengthAdjust="spacing" textLength="65" x="553.431" y="546.2305">realisation</text></g><!--reverse link app_party_tech to tech_service--><g id="link_app_party_tech_tech_service"><path d="M474.361,330.0986 C503.801,330.0986 530.001,330.0986 557.861,330.0986 " fill="none" id="app_party_tech-backto-tech_service" style="stroke:#333333;stroke-width:1.2;"/><polygon fill="#333333" points="468.361,330.0986,477.361,334.0986,473.361,330.0986,477.361,326.0986,468.361,330.0986" style="stroke:#333333;stroke-width:1.2;"/><text fill="#000000" font-family="Arial" font-size="14" lengthAdjust="spacing" textLength="46" x="466.111" y="344.2305">serving</text></g><!--reverse link app_onboarding to tech_service--><g id="link_app_onboarding_tech_service"><path d="M474.361,128.0986 C546.831,128.0986 630.021,128.0986 630.021,128.0986 C630.021,128.0986 630.021,228.5186 630.021,287.7486 " fill="none" id="app_onboarding-backto-tech_service" style="stroke:#333333;stroke-width:1.2;"/><polygon fill="#333333" points="468.361,128.0986,477.361,132.0986,473.361,128.0986,477.361,124.0986,468.361,128.0986" style="stroke:#333333;stroke-width:1.2;"/><text fill="#000000" font-family="Arial" font-size="14" lengthAdjust="spacing" textLength="46" x="582.021" y="142.2305">serving</text></g><!--link panel_business to panel_technology--><rect fill="none" height="74.3945" id="_legend" rx="7.5" ry="7.5" style="stroke:#000000;stroke-width:1.0;" width="679" x="141.5105" y="1394.0986"/><text fill="#000000" font-family="Arial" font-size="14" lengthAdjust="spacing" textLength="304" x="146.5105" y="1412.2305">Full relationship labels are shown on the arrows.</text><text fill="#000000" font-family="Arial" font-size="14" lengthAdjust="spacing" textLength="669" x="146.5105" y="1428.3291">The repeated Party and Customer Platform label is the same reusable model concept in the second panel.</text><text fill="#000000" font-family="Arial" font-size="14" lengthAdjust="spacing" textLength="511" x="146.5105" y="1444.4277">Blue = Strategy capability. Tan = Business element. Green = Application element.</text><text fill="#000000" font-family="Arial" font-size="14" lengthAdjust="spacing" textLength="412" x="146.5105" y="1460.5264">Purple = Technology element. White = Passive structure element.</text><!--SRC=[fLR1Rjms4BthAwRsfJtinYwAn3LI0xPhfJqaDbm3FIJ5WgB6AzOKIP2KZKtHV- -CTYLHoieE6iC7BMVclU7Cy97VAIDrKo8ibw_eFyIDnl3AQM5YK-j5hB36fQFFB8igQeJyztUBepUBen-Ny9lrwhCrS27C0sYnGOyb22yh5L76nYCyAdpAil2WZ1DUrA2LmRXn2DR7oYO6OqiCwE3u-2XPzGJCgoUZHS8MPasf_9C1tDh6b9VM6_HmalsRPHhl8qGBNgsh2ALYTsLDbZaX7yGQuU2Y2PH62EmbdDDA2lQ0w8N40n01d32eLqNdTvYtVotVm7vmsOHeQ-9zBmm1rsZY9_FsxQLmeb1QnStPsIVp1w56N6-WjBLGfeMNmgra5tnuTP8Vv-SpqDUciCANogo_7jhsCJtu63tj6yEUosWz8_QLIH056rS5jvZhyDElhyTWvr9I2oBSUFkeIlGCU6irpk5vigtSpda_vDxT4xuaA8RVVSun5ECIx6EuTcYWfo6yUwMHAeh-KKbaZjtdB4TOMSBWZN1eppAckH4-Ra2OikUYVMWHxwslsy8dqtTfQsSDpH1JfeQq5ywjN8jvU7MUlxuwcQbRlw5XCY5lJ7iGcBVxVe7gdjp-1zF-AZx34xPUBr3TehI-PDI-8TV5t-GusoERdBByJVvpVi42qUj0cX590MbMPQosTA2cIf2OPhJW-Kv_xx49MFxmJJrlitYXHgC3yus3DfAHBUdav2UnjoG1ggQUVo0XPyQxeMIyn5p9KaB5krgn_5DfZqck9agu0wQx9iHsMtDp_0pwTew_2dt_x3w3tS_k3fu6R2JlYz8-cSNPL9XFGN8RWchlfaHZE_-nJ9uINr1hm-Sh6vkwW6A2dmICJOlsPkI8YOQTKcM4Lg7jQ3QrBXgtRnlj_iqwomPjwZBg9MIKJBywv96SKtALhEs9MuBM5NkSQMhPPbdC9JaCMmSx3CWeos5vvBW_WP5fcy7ar0ufpFZkJtVo3bbyh5HPelchgznKdVZriqOIeS96gYVDUjveJRdgDj5GAKVlj08rdN1wdOMAjWQiVXNIWhTFOKanT_JBeqDwN9JmfR119onRA52XZG-Yvh0cY8AcfQOQQvfn8z55K5kAG0fEG6tMJ7IX6uHVe7_7oFvviuGxOSZKophgzcvPmZkFo9PKV3eZGTuqtca6JOvi7_idFqp9TiEDVgHyec-sxzGUWOgtBU5_]--></g></svg>