<?xml version="1.0" encoding="us-ascii" standalone="no"?><svg xmlns="http://www.w3.org/2000/svg" xmlns:xlink="http://www.w3.org/1999/xlink" contentStyleType="text/css" height="968.5045px" preserveAspectRatio="none" style="width:750px;height:968px;background:#FFFFFF;" version="1.1" viewBox="0 0 750 968" width="750.2097px" zoomAndPan="magnify"><defs/><g><text fill="#000000" font-family="Arial" font-size="13.3455" font-weight="bold" lengthAdjust="spacing" textLength="263.0977" x="237.255" y="22.0505">Online Store operational feedback loop</text><!--entity Customer--><g id="elem_Customer"><ellipse cx="208.5526" cy="48.7099" fill="#FFFFFF" rx="7.626" ry="7.626" style="stroke:#333333;stroke-width:0.47662624876077175;"/><path d="M208.5526,56.3359 L208.5526,82.0737 M196.1603,63.9619 L220.9449,63.9619 M208.5526,82.0737 L196.1603,96.3725 M208.5526,82.0737 L220.9449,96.3725 " fill="none" style="stroke:#333333;stroke-width:0.47662624876077175;"/><text fill="#000000" font-family="Arial" font-size="13.3455" lengthAdjust="spacing" textLength="58.1484" x="179.4784" y="110.3204">Customer</text></g><!--entity Service--><g id="elem_Service"><rect fill="#DDEBF7" height="65.1032" rx="2.3831" ry="2.3831" style="stroke:#333333;stroke-width:0.47662624876077175;" width="203.0428" x="296.7284" y="153.091"/><text fill="#000000" font-family="Arial" font-size="13.3455" lengthAdjust="spacing" textLength="103.9045" x="306.261" y="175.1415">Checkout service</text><text fill="#000000" font-family="Arial" font-size="13.3455" lengthAdjust="spacing" textLength="120.1098" x="306.261" y="190.4876">API, order state and</text><text fill="#000000" font-family="Arial" font-size="13.3455" lengthAdjust="spacing" textLength="183.9777" x="306.261" y="205.8337">payment-provider dependency</text></g><!--entity Signals--><g id="elem_Signals"><rect fill="#E2F0D9" height="49.7572" rx="2.3831" ry="2.3831" style="stroke:#333333;stroke-width:0.47662624876077175;" width="209.7155" x="119.9001" y="290.3594"/><text fill="#000000" font-family="Arial" font-size="13.3455" lengthAdjust="spacing" textLength="150.6139" x="129.4326" y="312.4099">Telemetry and objectives</text><text fill="#000000" font-family="Arial" font-size="13.3455" lengthAdjust="spacing" textLength="190.6505" x="129.4326" y="327.7559">Traces | metrics | logs | SLI/SLO</text></g><!--entity Alert--><g id="elem_Alert"><rect fill="#FFF2CC" height="49.7572" rx="2.3831" ry="2.3831" style="stroke:#333333;stroke-width:0.47662624876077175;" width="181.118" x="92.2558" y="379.9651"/><text fill="#000000" font-family="Arial" font-size="13.3455" lengthAdjust="spacing" textLength="93.4187" x="101.7883" y="402.0156">Actionable alert</text><text fill="#000000" font-family="Arial" font-size="13.3455" lengthAdjust="spacing" textLength="162.0529" x="101.7883" y="417.3617">Named owner and runbook</text></g><!--entity Support--><g id="elem_Support"><rect fill="#FFF2CC" height="49.7572" rx="2.3831" ry="2.3831" style="stroke:#333333;stroke-width:0.47662624876077175;" width="142.0346" x="23.145" y="229.3512"/><text fill="#000000" font-family="Arial" font-size="13.3455" lengthAdjust="spacing" textLength="107.7175" x="32.6775" y="251.4017">Customer support</text><text fill="#000000" font-family="Arial" font-size="13.3455" lengthAdjust="spacing" textLength="122.9696" x="32.6775" y="266.7478">Case and escalation</text></g><!--entity Response--><g id="elem_Response"><rect fill="#FCE4D6" height="49.7572" rx="2.3831" ry="2.3831" style="stroke:#333333;stroke-width:0.47662624876077175;" width="227.8273" x="51.7425" y="469.5709"/><text fill="#000000" font-family="Arial" font-size="13.3455" lengthAdjust="spacing" textLength="152.5204" x="61.2751" y="491.6214">Owned incident response</text><text fill="#000000" font-family="Arial" font-size="13.3455" lengthAdjust="spacing" textLength="208.7623" x="61.2751" y="506.9674">Diagnose, limit harm, communicate</text></g><!--entity Restore--><g id="elem_Restore"><rect fill="#E2F0D9" height="49.7572" rx="2.3831" ry="2.3831" style="stroke:#333333;stroke-width:0.47662624876077175;" width="154.4269" x="338.1949" y="559.1766"/><text fill="#000000" font-family="Arial" font-size="13.3455" lengthAdjust="spacing" textLength="124.8761" x="347.7274" y="581.2271">Restore and validate</text><text fill="#000000" font-family="Arial" font-size="13.3455" lengthAdjust="spacing" textLength="135.3619" x="347.7274" y="596.5732">Service and data state</text></g><!--entity Learn--><g id="elem_Learn"><rect fill="#E4DFEC" height="49.7572" rx="2.3831" ry="2.3831" style="stroke:#333333;stroke-width:0.47662624876077175;" width="242.1261" x="288.6258" y="648.7823"/><text fill="#000000" font-family="Arial" font-size="13.3455" lengthAdjust="spacing" textLength="178.2582" x="298.1583" y="670.8328">Incident and problem learning</text><text fill="#000000" font-family="Arial" font-size="13.3455" lengthAdjust="spacing" textLength="223.0611" x="298.1583" y="686.1789">Evidence, cause hypotheses, actions</text></g><!--entity Architecture--><g id="elem_Architecture"><rect fill="#D9EAD3" height="49.7572" rx="2.3831" ry="2.3831" style="stroke:#333333;stroke-width:0.47662624876077175;" width="162.0529" x="335.3352" y="738.3881"/><text fill="#000000" font-family="Arial" font-size="13.3455" lengthAdjust="spacing" textLength="122.0163" x="344.8677" y="760.4386">Architecture records</text><text fill="#000000" font-family="Arial" font-size="13.3455" lengthAdjust="spacing" textLength="142.9879" x="344.8677" y="775.7846">Models, risks and ADRs</text></g><!--entity Change--><g id="elem_Change"><rect fill="#D9EAD3" height="49.7572" rx="2.3831" ry="2.3831" style="stroke:#333333;stroke-width:0.47662624876077175;" width="176.3517" x="425.4175" y="827.9938"/><text fill="#000000" font-family="Arial" font-size="13.3455" lengthAdjust="spacing" textLength="108.6708" x="434.95" y="850.0443">Governed change</text><text fill="#000000" font-family="Arial" font-size="13.3455" lengthAdjust="spacing" textLength="157.2867" x="434.95" y="865.3904">Test, deploy and measure</text></g><!--link Customer to Service--><g id="link_Customer_Service"><path d="M237.7793,94.2277 C265.5285,109.8515 302.9828,130.9351 337.2522,150.2194 " fill="none" id="Customer-to-Service" style="stroke:#333333;stroke-width:1.143902997025852;"/><polygon fill="#333333" points="342.2367,153.0243,336.6299,145.4939,338.083,150.6869,332.89,152.14,342.2367,153.0243" style="stroke:#333333;stroke-width:1.143902997025852;"/><text fill="#000000" font-family="Arial" font-size="13.3455" lengthAdjust="spacing" textLength="86.746" x="321.9896" y="137.9647">uses checkout</text></g><!--link Service to Signals--><g id="link_Service_Signals"><path d="M296.3757,201.5067 C279.4078,207.8363 263.2216,216.7683 250.4957,229.3512 C234.2904,245.3659 228.8893,265.5381 226.6491,284.4983 " fill="none" id="Service-to-Signals" style="stroke:#333333;stroke-width:1.143902997025852;"/><polygon fill="#333333" points="225.978,290.1783,230.7713,282.1057,226.5373,285.4449,223.198,281.2109,225.978,290.1783" style="stroke:#333333;stroke-width:1.143902997025852;"/><text fill="#000000" font-family="Arial" font-size="13.3455" lengthAdjust="spacing" textLength="147.7541" x="251.4489" y="259.0277">emits redacted telemetry</text></g><!--link Signals to Alert--><g id="link_Signals_Alert"><path d="M213.2902,340.062 C207.3801,352.4352 202.6387,362.3261 196.7285,374.6993 " fill="none" id="Signals-to-Alert" style="stroke:#333333;stroke-width:1.143902997025852;"/><polygon fill="#333333" points="194.2633,379.8603,201.4018,373.7623,196.3176,375.5595,194.5204,370.4754,194.2633,379.8603" style="stroke:#333333;stroke-width:1.143902997025852;"/><text fill="#000000" font-family="Arial" font-size="13.3455" lengthAdjust="spacing" textLength="182.0712" x="208.5526" y="364.8388">evaluates actionable condition</text></g><!--link Alert to Response--><g id="link_Alert_Response"><path d="M178.1248,429.6677 C175.7035,442.0409 173.8563,451.4797 171.4351,463.853 " fill="none" id="Alert-to-Response" style="stroke:#333333;stroke-width:1.143902997025852;"/><polygon fill="#333333" points="170.3367,469.466,175.7263,461.7787,171.252,464.7885,168.2422,460.3142,170.3367,469.466" style="stroke:#333333;stroke-width:1.143902997025852;"/><text fill="#000000" font-family="Arial" font-size="13.3455" lengthAdjust="spacing" textLength="140.1281" x="177.0952" y="454.4445">routes to service owner</text></g><!--link Customer to Support--><g id="link_Customer_Support"><path d="M179.2305,96.4393 C168.8115,104.1511 157.6394,113.798 149.4509,124.4935 C124.6759,156.8183 110.281,196.4532 102.1593,223.7829 " fill="none" id="Customer-to-Support" style="stroke:#333333;stroke-width:1.143902997025852;"/><polygon fill="#333333" points="100.53,229.2655,106.629,222.1278,101.8877,224.6967,99.3189,219.9555,100.53,229.2655" style="stroke:#333333;stroke-width:1.143902997025852;"/><text fill="#000000" font-family="Arial" font-size="13.3455" lengthAdjust="spacing" textLength="136.3151" x="150.4042" y="137.9647">reports visible problem</text></g><!--link Support to Response--><g id="link_Support_Response"><path d="M61.1702,279.0729 C35.2608,301.0835 5.7195,335.2385 19.8086,368.5261 C38.969,413.8056 79.5685,445.4095 114.6959,466.5718 " fill="none" id="Support-to-Response" style="stroke:#333333;stroke-width:1.143902997025852;"/><polygon fill="#333333" points="119.5951,469.5232,114.214,461.8299,115.5124,467.0637,110.2787,468.3621,119.5951,469.5232" style="stroke:#333333;stroke-width:1.143902997025852;"/><text fill="#000000" font-family="Arial" font-size="13.3455" lengthAdjust="spacing" textLength="174.4452" x="20.7618" y="364.8388">escalates with case evidence</text></g><!--link Response to Restore--><g id="link_Response_Restore"><path d="M204.4727,519.2639 C222.2985,529.3493 244.0422,540.4261 264.7945,547.7376 C290.0271,556.6314 297.8056,553.2569 323.8961,559.1766 C328.5385,560.2252 327.7439,560.0123 332.5387,561.1658 " fill="none" id="Response-to-Restore" style="stroke:#333333;stroke-width:1.143902997025852;"/><polygon fill="#333333" points="338.0996,562.5035,330.6501,556.7896,333.4655,561.3887,328.8665,564.2042,338.0996,562.5035" style="stroke:#333333;stroke-width:1.143902997025852;"/><text fill="#000000" font-family="Arial" font-size="13.3455" lengthAdjust="spacing" textLength="133.4553" x="265.7477" y="544.0502">mitigates and restores</text></g><!--link Restore to Service--><g id="link_Restore_Service"><path d="M415.4084,558.8144 C415.4084,541.1983 415.4084,516.7759 415.4084,495.3087 C415.4084,314.1907 415.4084,314.1907 415.4084,314.1907 C415.4084,281.1891 410.7607,249.4339 405.9373,223.677 " fill="none" id="Restore-to-Service" style="stroke:#333333;stroke-width:1.143902997025852;"/><polygon fill="#333333" points="404.8845,218.0552,402.7158,227.1897,405.7618,222.74,410.2115,225.786,404.8845,218.0552" style="stroke:#333333;stroke-width:1.143902997025852;"/><text fill="#000000" font-family="Arial" font-size="13.3455" lengthAdjust="spacing" textLength="159.1932" x="416.3616" y="409.6416">returns acceptable service</text></g><!--link Response to Learn--><g id="link_Response_Learn"><path d="M155.5422,519.2925 C146.7628,544.3059 138.2693,583.3511 158.0302,608.7457 C174.8742,630.4036 226.9974,644.8671 282.9247,655.1718 " fill="none" id="Response-to-Learn" style="stroke:#333333;stroke-width:1.143902997025852;"/><polygon fill="#333333" points="288.5495,656.2082,280.8032,650.9037,283.8622,655.3445,279.4214,658.4035,288.5495,656.2082" style="stroke:#333333;stroke-width:1.143902997025852;"/><text fill="#000000" font-family="Arial" font-size="13.3455" lengthAdjust="spacing" textLength="168.7257" x="158.9835" y="588.8531">preserves incident evidence</text></g><!--link Restore to Learn--><g id="link_Restore_Learn"><path d="M413.845,608.8792 C413.0348,621.2524 412.4223,630.5967 411.6216,642.9699 " fill="none" id="Restore-to-Learn" style="stroke:#333333;stroke-width:1.143902997025852;"/><polygon fill="#333333" points="411.2522,648.6775,415.6113,640.3624,411.56,643.9212,408.0012,639.8699,411.2522,648.6775" style="stroke:#333333;stroke-width:1.143902997025852;"/><text fill="#000000" font-family="Arial" font-size="13.3455" lengthAdjust="spacing" textLength="150.6139" x="413.5019" y="633.656">records validation results</text></g><!--link Learn to Architecture--><g id="link_Learn_Architecture"><path d="M408.7451,698.5803 C408.6403,707.5027 408.8214,717.7025 409.6889,726.9491 C410.0225,730.5523 409.5994,728.6867 410.219,732.3758 " fill="none" id="Learn-to-Architecture" style="stroke:#333333;stroke-width:1.143902997025852;"/><polygon fill="#333333" points="411.1664,738.0163,413.5057,728.924,410.3769,733.3159,405.985,730.1871,411.1664,738.0163" style="stroke:#333333;stroke-width:1.143902997025852;"/><text fill="#000000" font-family="Arial" font-size="13.3455" lengthAdjust="spacing" textLength="179.2115" x="410.6421" y="723.2617">updates material assumptions</text></g><!--link Architecture to Change--><g id="link_Architecture_Change"><path d="M420.8228,788.2146 C423.6445,797.9664 428.182,808.7476 435.4267,816.5548 C439.3731,820.8158 439.2064,821.3653 444.1061,824.7112 " fill="none" id="Architecture-to-Change" style="stroke:#333333;stroke-width:1.143902997025852;"/><polygon fill="#333333" points="448.8294,827.9366,443.8948,819.9496,444.8933,825.2488,439.5942,826.2473,448.8294,827.9366" style="stroke:#333333;stroke-width:1.143902997025852;"/><text fill="#000000" font-family="Arial" font-size="13.3455" lengthAdjust="spacing" textLength="153.4737" x="436.3799" y="812.8674">informs approved change</text></g><!--link Change to Service--><g id="link_Change_Service"><path d="M579.4822,827.746 C584.0101,824.4572 588.1854,820.7491 591.7601,816.5548 C607.4411,798.1856 606.0589,788.2813 606.0589,764.1259 C606.0589,314.1907 606.0589,314.1907 606.0589,314.1907 C606.0589,259.2452 558.0807,229.0512 505.4231,210.7964 " fill="none" id="Change-to-Service" style="stroke:#333333;stroke-width:1.143902997025852;"/><polygon fill="#333333" points="500.0191,208.923,506.8761,215.3358,504.5224,210.4842,509.374,208.1305,500.0191,208.923" style="stroke:#333333;stroke-width:1.143902997025852;"/><text fill="#000000" font-family="Arial" font-size="13.3455" lengthAdjust="spacing" textLength="136.3151" x="607.0121" y="544.0502">deploys and measures</text></g><rect fill="none" height="55.5707" id="_legend" rx="7.1494" ry="7.1494" style="stroke:#000000;stroke-width:0.9532524975215435;" width="400.366" x="168.6208" y="893.9563"/><text fill="#000000" font-family="Arial" font-size="13.3455" lengthAdjust="spacing" textLength="390.8335" x="173.3871" y="911.2405">Solid arrows show operational evidence, response and feedback.</text><text fill="#000000" font-family="Arial" font-size="13.3455" lengthAdjust="spacing" textLength="350.7969" x="173.3871" y="926.5866">SLI = service-level indicator; SLO = service-level objective.</text><text fill="#000000" font-family="Arial" font-size="13.3455" lengthAdjust="spacing" textLength="222.1078" x="173.3871" y="941.9326">ADR = Architecture Decision Record.</text><!--SRC=[RLLTRoet47tthvZUl099qxHNbwgLA0jLfBIfGXvvCTu9k7ZjbUq5KVN7zzZxeTtRAo5OnZDdPiuSptwdhJ9DoRHOtECJuirmkA-DjB6fp3oUkE95ZKSHTJHChzPeoxIBpZEvchsCsbbfw8EvF4Xr9kDSBQAhAJewk1XTHQNsh9AV24e2vFEF3tJLPJo9SDQsbbvMP5t9WMjwV1WPlRJdR7mQ6Kl-a8s9MsVZJl_3zFsJa0hrqBe9oCPUf6pI7f7fq_h4wkoQI87zHIlUszLVppDolcHF8Sh896sv1_IjOXldjNSNdSvAhjcMRDNj4yb0kpQSxefYyzlsypZ5EnkG5Fqj8P4x_9rwlN3OstSl5GVwbzAnLkd9k6FwsRqyt-zUNbjeVGI1WUusZzk7uiiOUfLPamSyWpSVz_PFMJ6IN2rAJEbyOm_EdJFGAhdGtNQxVLol9oHqn51ewjebcBKCkN7YD94ymxQMrk5R8A_8MHBa0dfi9C-XTZQ0q4BBetM1PsHqfIETfAzcf5nLDLOhC9oHtpf_GAytJyLFOsYSPJsbWYxIw191UzjJdgomo7PSFLWE-0Pbpts1AGpJ17SL6PRUQdlSsqsQhbKeLia6rPnkjOF80uSPoSnso1bUKWJmduhjPaB3ogkJZlZV83_iK18c_GVKQm3XTJY7d7fLlBL8au2xuijcLVmm1lpTNTWdQjK95lJzZkPcIN_6jPAgM0O4PxHrTXfmXidEvxyE6bqIEWl0QwKlUdlswSIs9CQi0ZeeqJQonrx5edT9xgsau8onD60_T2HbIIfdIvslTUkM0eOnByaZDmAm1hgxryhsgvexmS6TqqEWYmuweNUp4xt7L-YTS97WgkC9quILk-6AmQyBoc9P4ZhMnxQBT7LQUn2zmvH3pvYOJGqhhcDkkEjZ2jygPObwEPq3VBWZutg63Br_fvrUyA0nLOJ55aJhalaVYmTphSjSVeLlhx5rPGXDLMVPYebl2kwqiaH17yvNQALEwssGckWSfdstmWjZvGLX-8XjsErpiNCecQJtxXeedDnryYRWuOhrEo9ZzI-8XS3oerzwCkU6BsnGOfbsXVC_OpU-_kzusAeBWOk5uqcp1Ik81WI-PKuN0hMs5Vy7]--></g></svg>