<?xml version="1.0" encoding="us-ascii" standalone="no"?><svg xmlns="http://www.w3.org/2000/svg" xmlns:xlink="http://www.w3.org/1999/xlink" contentStyleType="text/css" height="851px" preserveAspectRatio="none" style="width:1342px;height:851px;background:#FFFFFF;" version="1.1" viewBox="0 0 1342 851" width="1342px" zoomAndPan="magnify"><defs/><g><text fill="#000000" font-family="Arial" font-size="14" font-weight="bold" lengthAdjust="spacing" textLength="323" x="502.5" y="23.1318">FIG-09-03. Horizon Bank Payment Routing DRD</text><!--entity PaymentInstruction--><g id="elem_PaymentInstruction"><rect fill="#FFFFFF" height="52.1973" rx="2.5" ry="2.5" style="stroke:#333333;stroke-width:0.5;" width="144" x="7" y="372.5654"/><text fill="#000000" font-family="Arial" font-size="14" lengthAdjust="spacing" textLength="124" x="17" y="395.6973">Payment Instruction</text><text fill="#000000" font-family="Arial" font-size="14" lengthAdjust="spacing" textLength="81" x="17" y="411.7959">&#171;Input Data&#187;</text></g><!--entity AccountStatus--><g id="elem_AccountStatus"><rect fill="#FFFFFF" height="52.1973" rx="2.5" ry="2.5" style="stroke:#333333;stroke-width:0.5;" width="115" x="228" y="466.5654"/><text fill="#000000" font-family="Arial" font-size="14" lengthAdjust="spacing" textLength="95" x="238" y="489.6973">Account Status</text><text fill="#000000" font-family="Arial" font-size="14" lengthAdjust="spacing" textLength="81" x="238" y="505.7959">&#171;Input Data&#187;</text></g><!--entity ScreeningResult--><g id="elem_ScreeningResult"><rect fill="#FFFFFF" height="52.1973" rx="2.5" ry="2.5" style="stroke:#333333;stroke-width:0.5;" width="128" x="454.5" y="606.5654"/><text fill="#000000" font-family="Arial" font-size="14" lengthAdjust="spacing" textLength="108" x="464.5" y="629.6973">Screening Result</text><text fill="#000000" font-family="Arial" font-size="14" lengthAdjust="spacing" textLength="81" x="464.5" y="645.7959">&#171;Input Data&#187;</text></g><!--entity CutoffStatus--><g id="elem_CutoffStatus"><rect fill="#FFFFFF" height="52.1973" rx="2.5" ry="2.5" style="stroke:#333333;stroke-width:0.5;" width="169" x="772" y="606.5654"/><text fill="#000000" font-family="Arial" font-size="14" lengthAdjust="spacing" textLength="149" x="782" y="629.6973">Payment Cut-Off Status</text><text fill="#000000" font-family="Arial" font-size="14" lengthAdjust="spacing" textLength="81" x="782" y="645.7959">&#171;Input Data&#187;</text></g><!--entity RoutingRules--><g id="elem_RoutingRules"><rect fill="#EAF6E8" height="52.1973" rx="2.5" ry="2.5" style="stroke:#333333;stroke-width:0.5;" width="208" x="1128" y="99.5654"/><text fill="#000000" font-family="Arial" font-size="14" lengthAdjust="spacing" textLength="148" x="1138" y="122.6973">Payment Routing Rules</text><text fill="#000000" font-family="Arial" font-size="14" lengthAdjust="spacing" textLength="188" x="1138" y="138.7959">&#171;Business Knowledge Model&#187;</text></g><!--entity PaymentsPolicy--><g id="elem_PaymentsPolicy"><rect fill="#FFF4D6" height="52.1973" rx="2.5" ry="2.5" style="stroke:#333333;stroke-width:0.5;" width="197" x="420" y="51.5654"/><text fill="#000000" font-family="Arial" font-size="14" lengthAdjust="spacing" textLength="177" x="430" y="74.6973">Payments Operations Policy</text><text fill="#000000" font-family="Arial" font-size="14" lengthAdjust="spacing" textLength="134" x="430" y="90.7959">&#171;Knowledge Source&#187;</text></g><!--entity ScreeningPolicy--><g id="elem_ScreeningPolicy"><rect fill="#FFF4D6" height="52.1973" rx="2.5" ry="2.5" style="stroke:#333333;stroke-width:0.5;" width="227" x="743" y="139.5654"/><text fill="#000000" font-family="Arial" font-size="14" lengthAdjust="spacing" textLength="207" x="753" y="162.6973">Financial Crime Screening Policy</text><text fill="#000000" font-family="Arial" font-size="14" lengthAdjust="spacing" textLength="134" x="753" y="178.7959">&#171;Knowledge Source&#187;</text></g><!--entity PaymentRoute--><g id="elem_PaymentRoute"><rect fill="#DDEEFF" height="100.4932" rx="2.5" ry="2.5" style="stroke:#333333;stroke-width:0.5;" width="186" x="1139" y="441.5654"/><text fill="#000000" font-family="Arial" font-size="14" lengthAdjust="spacing" textLength="166" x="1149" y="464.6973">Determine Payment Route</text><text fill="#000000" font-family="Arial" font-size="14" lengthAdjust="spacing" textLength="70" x="1149" y="480.7959">&#171;Decision&#187;</text><text fill="#000000" font-family="Arial" font-size="14" lengthAdjust="spacing" textLength="4" x="1149" y="496.8945">&#160;</text><text fill="#000000" font-family="Arial" font-size="14" lengthAdjust="spacing" textLength="155" x="1149" y="512.9932">Result: Proceed, Repair,</text><text fill="#000000" font-family="Arial" font-size="14" lengthAdjust="spacing" textLength="156" x="1149" y="529.0918">Manual Review or Reject</text></g><!--link PaymentInstruction to AccountStatus--><!--link AccountStatus to ScreeningResult--><!--link ScreeningResult to CutoffStatus--><!--link CutoffStatus to PaymentRoute--><!--link CutoffStatus to PaymentRoute--><g id="link_CutoffStatus_PaymentRoute"><path d="M941.14,637.1054 C986.76,636.6454 1043.29,631.1854 1090,611.5654 C1126.9,596.0654 1157.0132,571.5039 1182.5732,545.9939 " fill="none" id="CutoffStatus-to-PaymentRoute-1" style="stroke:#333333;stroke-width:1.2;"/><polygon fill="#333333" points="1186.82,541.7554,1177.6242,545.282,1183.281,545.2875,1183.2755,550.9444,1186.82,541.7554" style="stroke:#333333;stroke-width:1.2;"/><text fill="#000000" font-family="Arial" font-size="14" lengthAdjust="spacing" textLength="48" x="1025" y="607.6973">info req</text></g><!--link PaymentsPolicy to ScreeningPolicy--><!--link ScreeningPolicy to RoutingRules--><!--link PaymentInstruction to PaymentRoute--><g id="link_PaymentInstruction_PaymentRoute"><path d="M113.3,372.3854 C152.1,344.5654 219.25,304.5654 284.5,304.5654 C284.5,304.5654 284.5,304.5654 857.5,304.5654 C980.05,304.5654 1098.87,382.3358 1168.67,437.7258 " fill="none" id="PaymentInstruction-to-PaymentRoute" style="stroke:#333333;stroke-width:1.2;"/><polygon fill="#333333" points="1173.37,441.4554,1168.8065,432.7276,1169.4534,438.3474,1163.8336,438.9942,1173.37,441.4554" style="stroke:#333333;stroke-width:1.2;"/><text fill="#000000" font-family="Arial" font-size="14" lengthAdjust="spacing" textLength="48" x="494.5" y="300.6973">info req</text></g><!--link AccountStatus to PaymentRoute--><g id="link_AccountStatus_PaymentRoute"><path d="M343.1,492.5054 C500.61,492.3354 939.1,491.8716 1132.83,491.6716 " fill="none" id="AccountStatus-to-PaymentRoute" style="stroke:#333333;stroke-width:1.2;"/><polygon fill="#333333" points="1138.83,491.6654,1129.8259,487.6747,1133.83,491.6706,1129.8341,495.6747,1138.83,491.6654" style="stroke:#333333;stroke-width:1.2;"/><text fill="#000000" font-family="Arial" font-size="14" lengthAdjust="spacing" textLength="48" x="656" y="488.6973">info req</text></g><!--link ScreeningResult to PaymentRoute--><g id="link_ScreeningResult_PaymentRoute"><path d="M574.02,658.7254 C618.37,678.4754 683.18,703.9354 743,714.5654 C842.33,732.2154 872.12,739.0354 970,714.5654 C1068.44,689.9554 1147.7215,604.211 1192.2415,546.341 " fill="none" id="ScreeningResult-to-PaymentRoute" style="stroke:#333333;stroke-width:1.2;"/><polygon fill="#333333" points="1195.9,541.5854,1187.2419,546.2798,1192.8512,545.5484,1193.5826,551.1578,1195.9,541.5854" style="stroke:#333333;stroke-width:1.2;"/><text fill="#000000" font-family="Arial" font-size="14" lengthAdjust="spacing" textLength="48" x="832.5" y="710.6973">info req</text></g><!--link RoutingRules to PaymentRoute--><g id="link_RoutingRules_PaymentRoute"><path d="M1232,151.6954 C1232,212.1454 1232,356.5454 1232,435.4454 " fill="none" id="RoutingRules-to-PaymentRoute" style="stroke:#333333;stroke-width:1.2;"/><polygon fill="#333333" points="1232,441.4454,1236,432.4454,1232,436.4454,1228,432.4454,1232,441.4454" style="stroke:#333333;stroke-width:1.2;"/><text fill="#000000" font-family="Arial" font-size="14" lengthAdjust="spacing" textLength="92" x="1174" y="301.6973">knowledge req</text></g><!--link PaymentsPolicy to RoutingRules--><g id="link_PaymentsPolicy_RoutingRules"><path d="M617.1,66.2654 C629.84,65.1554 642.72,64.1954 655,63.5654 C804.83,55.8454 943.72,66.1554 1090,89.5654 C1105.97,92.1254 1116.9232,94.2555 1133.1332,98.1155 " fill="none" id="PaymentsPolicy-to-RoutingRules" style="stroke:#333333;stroke-width:1.2;"/><polygon fill="#333333" points="1138.97,99.5054,1131.1414,93.5294,1134.106,98.3472,1129.2882,101.3118,1138.97,99.5054" style="stroke:#333333;stroke-width:1.2;"/><text fill="#000000" font-family="Arial" font-size="14" lengthAdjust="spacing" textLength="80" x="816.5" y="57.6973">authority req</text></g><!--link ScreeningPolicy to PaymentRoute--><g id="link_ScreeningPolicy_PaymentRoute"><path d="M952.2,191.6654 C997.53,207.5954 1050.42,231.5654 1090,265.5654 C1146.48,314.0754 1185.2153,385.4896 1208.0253,435.8696 " fill="none" id="ScreeningPolicy-to-PaymentRoute" style="stroke:#333333;stroke-width:1.2;"/><polygon fill="#333333" points="1210.5,441.3354,1210.4318,431.4868,1208.4377,436.7805,1203.144,434.7864,1210.5,441.3354" style="stroke:#333333;stroke-width:1.2;"/><text fill="#000000" font-family="Arial" font-size="14" lengthAdjust="spacing" textLength="80" x="1009" y="210.6973">authority req</text></g><rect fill="none" height="74.3945" id="_legend" rx="7.5" ry="7.5" style="stroke:#000000;stroke-width:1.0;" width="730" x="299" y="757.0354"/><text fill="#000000" font-family="Arial" font-size="14" lengthAdjust="spacing" textLength="300" x="304" y="775.1673">DMN-style decision requirements teaching view.</text><text fill="#000000" font-family="Arial" font-size="14" lengthAdjust="spacing" textLength="720" x="304" y="791.2659">info req = information requirement; knowledge req = knowledge requirement; authority req = authority requirement.</text><text fill="#000000" font-family="Arial" font-size="14" lengthAdjust="spacing" textLength="627" x="304" y="807.3645">Arrows point from required information, knowledge or authority to the decision or governed element.</text><text fill="#000000" font-family="Arial" font-size="14" lengthAdjust="spacing" textLength="367" x="304" y="823.4632">This is not process sequence and not semantic .dmn XML.</text><!--SRC=[XLLDRvj04BtlhvWcrq0YzJjDBIN1RgFMJUJqKAdfOGk3lGtCqls8vVxw3c1Ybb0NSG3spPkPjs-MPuhImcS8SNpCjtMR0krnLKXolYmYjy8IuueVXIWmT-0q6BLSESYKmTGfJS8fLo3ChZv49s-Za-SnVDH6_T445vBkuKPkIYG72-sTeYKaYqG8Uw-eaaQMG3f3YnMyVjdxQ3Xm-r7KMIGjESD1HtL5rXdV9B-ZixChgho3H3evcHo0j5tA7WmEPytLPpjFK-sPxTP9v-qeqHRI8iOuRbE3I7LR2xI-SACiZw0MCyRJTNRfNNITv_jgOeZEyq59OroTu0lFErfJNNYh2As5JwJN1MPBX3chNso9j_W63eVJyzchwPiHNWlN5HfPgyfAwqAbcvfyntchlKant0hR0fjwNoIl-hGpHP9I9GkuDAh4dLh_9t-43jZxz0awD2Nt7HWHQzO4KsMvZSdaZdtKRiuft1YT8cP7lAELLEReZkQIF9Utm0U5Qz26dtvnWdv_3ISS9ibqMk_6Y06ZJA_f-qfb6TAFQ19QIuH66s871X93GmtnVOk8m2zHCxizQBz-CTYiVvRHhekX_4Dytr3ZcWmAW5DGbFC1Wx-7Ykn1Fb5Z3pOKOmym68PMjQVe-qTRrY53zRgWWEeKf7ShFX_T9Yn-63L85KRnKRn4ok2dTawN8fb_YPg36xAjfMkKvmEw7LY7CbtL4rKRE1PTa_2-wTUKpJ3tGzw5hJ4mUD_1Wh8O5hnti5YS6wFN5YgjUFvoeyjkEUjNSDJBmbEsu-9_3l-7Titnub8_e26EnsARu-jAMU2Rj8Egdc4-w2ndGKeH98jLBrWi-SUcKeYpak3R_7CiMCTMpRy0]--></g></svg>