<?xml version="1.0" encoding="us-ascii" standalone="no"?><svg xmlns="http://www.w3.org/2000/svg" xmlns:xlink="http://www.w3.org/1999/xlink" contentStyleType="text/css" height="1013px" preserveAspectRatio="none" style="width:599px;height:1013px;background:#FFFFFF;" version="1.1" viewBox="0 0 599 1013" width="599px" zoomAndPan="magnify"><defs/><g><text fill="#000000" font-family="Arial" font-size="14" font-weight="bold" lengthAdjust="spacing" textLength="406" x="89.5" y="23.1318">FIG-08-06. Horizon Bank payment instruction data lifecycle</text><!--entity Captured--><g id="elem_Captured"><rect fill="#EAF6E8" height="68.2959" rx="2.5" ry="2.5" style="stroke:#333333;stroke-width:0.5;" width="274" x="162" y="44.0986"/><text fill="#000000" font-family="Arial" font-size="14" lengthAdjust="spacing" textLength="59" x="172" y="67.2305">Captured</text><text fill="#000000" font-family="Arial" font-size="14" lengthAdjust="spacing" textLength="208" x="172" y="83.3291">System: Horizon Digital Channels</text><text fill="#000000" font-family="Arial" font-size="14" lengthAdjust="spacing" textLength="254" x="172" y="99.4277">Authoritative input: customer submission</text></g><!--entity Validated--><g id="elem_Validated"><rect fill="#EAF6E8" height="68.2959" rx="2.5" ry="2.5" style="stroke:#333333;stroke-width:0.5;" width="248" x="175" y="157.0986"/><text fill="#000000" font-family="Arial" font-size="14" lengthAdjust="spacing" textLength="59" x="185" y="180.2305">Validated</text><text fill="#000000" font-family="Arial" font-size="14" lengthAdjust="spacing" textLength="172" x="185" y="196.3291">System: Payments Platform</text><text fill="#000000" font-family="Arial" font-size="14" lengthAdjust="spacing" textLength="228" x="185" y="212.4277">Authoritative status: validation result</text></g><!--entity Screened--><g id="elem_Screened"><rect fill="#FFF4D6" height="68.2959" rx="2.5" ry="2.5" style="stroke:#333333;stroke-width:0.5;" width="243" x="177.5" y="270.0986"/><text fill="#000000" font-family="Arial" font-size="14" lengthAdjust="spacing" textLength="61" x="187.5" y="293.2305">Screened</text><text fill="#000000" font-family="Arial" font-size="14" lengthAdjust="spacing" textLength="208" x="187.5" y="309.3291">System: Financial Crime Platform</text><text fill="#000000" font-family="Arial" font-size="14" lengthAdjust="spacing" textLength="223" x="187.5" y="325.4277">Authoritative input: screening result</text></g><!--entity Posted--><g id="elem_Posted"><rect fill="#FFF4D6" height="68.2959" rx="2.5" ry="2.5" style="stroke:#333333;stroke-width:0.5;" width="227" x="185.5" y="383.0986"/><text fill="#000000" font-family="Arial" font-size="14" lengthAdjust="spacing" textLength="44" x="195.5" y="406.2305">Posted</text><text fill="#000000" font-family="Arial" font-size="14" lengthAdjust="spacing" textLength="187" x="195.5" y="422.3291">System: Core Deposit System</text><text fill="#000000" font-family="Arial" font-size="14" lengthAdjust="spacing" textLength="207" x="195.5" y="438.4277">Authoritative input: posting result</text></g><!--entity Distributed--><g id="elem_Distributed"><rect fill="#F1E8FA" height="68.2959" rx="2.5" ry="2.5" style="stroke:#333333;stroke-width:0.5;" width="326" x="136" y="496.0986"/><text fill="#000000" font-family="Arial" font-size="14" lengthAdjust="spacing" textLength="68" x="146" y="519.2305">Distributed</text><text fill="#000000" font-family="Arial" font-size="14" lengthAdjust="spacing" textLength="146" x="146" y="535.3291">System: Event Platform</text><text fill="#000000" font-family="Arial" font-size="14" lengthAdjust="spacing" textLength="306" x="146" y="551.4277">Authoritative event: consolidated payment status</text></g><!--entity Curated--><g id="elem_Curated"><rect fill="#F2F5F7" height="68.2959" rx="2.5" ry="2.5" style="stroke:#333333;stroke-width:0.5;" width="229" x="184.5" y="609.0986"/><text fill="#000000" font-family="Arial" font-size="14" lengthAdjust="spacing" textLength="51" x="194.5" y="632.2305">Curated</text><text fill="#000000" font-family="Arial" font-size="14" lengthAdjust="spacing" textLength="209" x="194.5" y="648.3291">System: Enterprise Data Platform</text><text fill="#000000" font-family="Arial" font-size="14" lengthAdjust="spacing" textLength="164" x="194.5" y="664.4277">Owner: data product team</text></g><!--entity Retained--><g id="elem_Retained"><rect fill="#FFFFFF" height="68.2959" rx="2.5" ry="2.5" style="stroke:#333333;stroke-width:0.5;" width="216" x="191" y="722.0986"/><text fill="#000000" font-family="Arial" font-size="14" lengthAdjust="spacing" textLength="57" x="201" y="745.2305">Retained</text><text fill="#000000" font-family="Arial" font-size="14" lengthAdjust="spacing" textLength="137" x="201" y="761.3291">Owner: records policy</text><text fill="#000000" font-family="Arial" font-size="14" lengthAdjust="spacing" textLength="196" x="201" y="777.4277">Retention and audit obligations</text></g><!--entity Archived--><g id="elem_Archived"><rect fill="#FFFFFF" height="68.2959" rx="2.5" ry="2.5" style="stroke:#333333;stroke-width:0.5;" width="209" x="194.5" y="835.0986"/><text fill="#000000" font-family="Arial" font-size="14" lengthAdjust="spacing" textLength="135" x="204.5" y="858.2305">Archived or Disposed</text><text fill="#000000" font-family="Arial" font-size="14" lengthAdjust="spacing" textLength="137" x="204.5" y="874.3291">Owner: records policy</text><text fill="#000000" font-family="Arial" font-size="14" lengthAdjust="spacing" textLength="189" x="204.5" y="890.4277">Archive or defensible disposal</text></g><g id="elem_GMN17"><path d="M6,948.0986 L6,1006.3945 A0,0 0 0 0 6,1006.3945 L592,1006.3945 A0,0 0 0 0 592,1006.3945 L592,958.0986 L582,948.0986 L303,948.0986 L299,903.2686 L295,948.0986 L6,948.0986 A0,0 0 0 0 6,948.0986 " fill="#FFF8DC" style="stroke:#666666;stroke-width:0.5;"/><path d="M582,948.0986 L582,958.0986 L592,958.0986 L582,948.0986 " fill="#FFF8DC" style="stroke:#666666;stroke-width:0.5;"/><text fill="#000000" font-family="Arial" font-size="14" lengthAdjust="spacing" textLength="119" x="12" y="966.2305">Data lifecycle view.</text><text fill="#000000" font-family="Arial" font-size="14" lengthAdjust="spacing" textLength="565" x="12" y="982.3291">It shows state, responsible system or owner, and where authoritative status is established.</text><text fill="#000000" font-family="Arial" font-size="14" lengthAdjust="spacing" textLength="551" x="12" y="998.4277">It excludes detailed repair workflow, payment scheme rules and physical archive design.</text></g><!--link Captured to Validated--><g id="link_Captured_Validated"><path d="M299,112.3086 C299,126.4686 299,136.8586 299,151.0086 " fill="none" id="Captured-to-Validated" style="stroke:#333333;stroke-width:1.2;"/><polygon fill="#333333" points="299,157.0086,303,148.0086,299,152.0086,295,148.0086,299,157.0086" style="stroke:#333333;stroke-width:1.2;"/></g><!--link Validated to Screened--><g id="link_Validated_Screened"><path d="M299,225.3086 C299,239.4686 299,249.8586 299,264.0086 " fill="none" id="Validated-to-Screened" style="stroke:#333333;stroke-width:1.2;"/><polygon fill="#333333" points="299,270.0086,303,261.0086,299,265.0086,295,261.0086,299,270.0086" style="stroke:#333333;stroke-width:1.2;"/></g><!--link Screened to Posted--><g id="link_Screened_Posted"><path d="M299,338.3086 C299,352.4686 299,362.8586 299,377.0086 " fill="none" id="Screened-to-Posted" style="stroke:#333333;stroke-width:1.2;"/><polygon fill="#333333" points="299,383.0086,303,374.0086,299,378.0086,295,374.0086,299,383.0086" style="stroke:#333333;stroke-width:1.2;"/></g><!--link Posted to Distributed--><g id="link_Posted_Distributed"><path d="M299,451.3086 C299,465.4686 299,475.8586 299,490.0086 " fill="none" id="Posted-to-Distributed" style="stroke:#333333;stroke-width:1.2;"/><polygon fill="#333333" points="299,496.0086,303,487.0086,299,491.0086,295,487.0086,299,496.0086" style="stroke:#333333;stroke-width:1.2;"/></g><!--link Distributed to Curated--><g id="link_Distributed_Curated"><path d="M299,564.3086 C299,578.4686 299,588.8586 299,603.0086 " fill="none" id="Distributed-to-Curated" style="stroke:#333333;stroke-width:1.2;"/><polygon fill="#333333" points="299,609.0086,303,600.0086,299,604.0086,295,600.0086,299,609.0086" style="stroke:#333333;stroke-width:1.2;"/></g><!--link Curated to Retained--><g id="link_Curated_Retained"><path d="M299,677.3086 C299,691.4686 299,701.8586 299,716.0086 " fill="none" id="Curated-to-Retained" style="stroke:#333333;stroke-width:1.2;"/><polygon fill="#333333" points="299,722.0086,303,713.0086,299,717.0086,295,713.0086,299,722.0086" style="stroke:#333333;stroke-width:1.2;"/></g><!--link Retained to Archived--><g id="link_Retained_Archived"><path d="M299,790.3086 C299,804.4686 299,814.8586 299,829.0086 " fill="none" id="Retained-to-Archived" style="stroke:#333333;stroke-width:1.2;"/><polygon fill="#333333" points="299,835.0086,303,826.0086,299,830.0086,295,826.0086,299,835.0086" style="stroke:#333333;stroke-width:1.2;"/></g><!--SRC=[VLJBRjim4BppAxR9DNRI8aa37mguiTNcrA01Sig5bjRM8XH9S2cxwjTtgPVb8AaXmCAIcjcP7V8JsTpK1S9yVYaFnyOWNtgZRQmhCuibLZZtygfKT1wYWusBqLLGKC0yahCgKZG8sSEFsTNTxEfs3ZzTeB_EmdTjNy7hfa8RWIp7KBTVGA6Z1aDRp9lSe5ByIjRhe2ifMeoDHt0XbcwoO5s1Z1wkRoR580HzKQLkjDr99sVtsiSwOF5YdngEM2t6ZbQqewWDt9VQMZJyOfUry0GfHjgZDEdhk82yPf680RZULCGiFP-1PXY0uNozp6xNTrFIPsr8T4rP7plf38z6nwqBrLiwbl-Q5x3llatM1EJQn9PjH7oFxYaFY7RAbf7LDgUaBb257vBs6ha58BkRKWweS9vbsVNgTihuwFX4tRqB22lqZYb2L_o0IhR4DqGTs7iqAvASqAO-uLhlKuG-KeHfLQRcBBl1iY5sdSKjvmHPY3-lxxBbIMhgS3g-jOqOV20McIcmH_fV1ujXqSNO1rT8h26YhhgGT3X2yIMxoRvEANvZrDGEhKUGDHSA5eSCvSsBbGtITCg1jWNekX1htSRGhWr79sC0QSsJtvHW6V9I72da-2IvOln_oFhDQM-1MxHC6y4esi-qQRb6l85BZKTWDljsJAWwPZNLXnYfCK-fsirSzQDFbSb4r7GwQQstKGrsfjeWNOqUfEhGf5BMHUpl9mNTqCPR1lQ4XxcK7oGKfJjm6msyIAdqhXVFxUYJ8ovvTj6EuL2Y95s_StA1651UPK9SOj6Zuv_sHcLnLReqqcL0hod0mONNhN67YsCwytI_GgZbqcsvVDamvNA6TJySmQ6TdIkKnIJl7m00]--></g></svg>