<?xml version="1.0" encoding="us-ascii" standalone="no"?><svg xmlns="http://www.w3.org/2000/svg" xmlns:xlink="http://www.w3.org/1999/xlink" contentStyleType="text/css" height="665px" preserveAspectRatio="none" style="width:578px;height:665px;background:#FFFFFF;" version="1.1" viewBox="0 0 578 665" width="578px" zoomAndPan="magnify"><defs/><g><text fill="#000000" font-family="Arial" font-size="14" font-weight="bold" lengthAdjust="spacing" textLength="469" x="47.5" y="23.1318">FIG-23-01. Choosing the Right Decision and Business-Rule Artefact</text><!--entity Start--><g id="elem_Start"><rect fill="#DCEAF7" height="52.1973" rx="5" ry="5" style="stroke:#333333;stroke-width:0.5;" width="130" x="7" y="331.5654"/><text fill="#111111" font-family="Arial" font-size="14" lengthAdjust="spacing" textLength="82" x="17" y="354.6973">Start with the</text><text fill="#111111" font-family="Arial" font-size="14" lengthAdjust="spacing" textLength="110" x="17" y="370.7959">decision question</text></g><!--entity Policy--><g id="elem_Policy"><rect fill="#F5F7FA" height="52.1973" rx="5" ry="5" style="stroke:#333333;stroke-width:0.5;" width="140" x="418.5" y="62.5654"/><text fill="#111111" font-family="Arial" font-size="14" lengthAdjust="spacing" textLength="120" x="428.5" y="85.6973">Policy statement or</text><text fill="#111111" font-family="Arial" font-size="14" lengthAdjust="spacing" textLength="118" x="428.5" y="101.7959">Knowledge Source</text></g><!--entity Table--><g id="elem_Table"><rect fill="#F5F7FA" height="36.0986" rx="5" ry="5" style="stroke:#333333;stroke-width:0.5;" width="109" x="434" y="149.5654"/><text fill="#111111" font-family="Arial" font-size="14" lengthAdjust="spacing" textLength="89" x="444" y="172.6973">Decision table</text></g><!--entity Tree--><g id="elem_Tree"><rect fill="#F5F7FA" height="36.0986" rx="5" ry="5" style="stroke:#333333;stroke-width:0.5;" width="103" x="437" y="220.5654"/><text fill="#111111" font-family="Arial" font-size="14" lengthAdjust="spacing" textLength="83" x="447" y="243.6973">Decision tree</text></g><!--entity DRD--><g id="elem_DRD"><rect fill="#F5F7FA" height="52.1973" rx="5" ry="5" style="stroke:#333333;stroke-width:0.5;" width="165" x="406" y="291.5654"/><text fill="#111111" font-family="Arial" font-size="14" lengthAdjust="spacing" textLength="88" x="416" y="314.6973">DMN Decision</text><text fill="#111111" font-family="Arial" font-size="14" lengthAdjust="spacing" textLength="145" x="416" y="330.7959">Requirements Diagram</text></g><!--entity BPMN--><g id="elem_BPMN"><rect fill="#F5F7FA" height="36.0986" rx="5" ry="5" style="stroke:#333333;stroke-width:0.5;" width="143" x="417" y="378.5654"/><text fill="#111111" font-family="Arial" font-size="14" lengthAdjust="spacing" textLength="123" x="427" y="401.6973">BPMN process view</text></g><!--entity ADR--><g id="elem_ADR"><rect fill="#F5F7FA" height="52.1973" rx="5" ry="5" style="stroke:#333333;stroke-width:0.5;" width="124" x="426.5" y="449.5654"/><text fill="#111111" font-family="Arial" font-size="14" lengthAdjust="spacing" textLength="76" x="436.5" y="472.6973">Architecture</text><text fill="#111111" font-family="Arial" font-size="14" lengthAdjust="spacing" textLength="104" x="436.5" y="488.7959">Decision Record</text></g><!--entity Matrix--><g id="elem_Matrix"><rect fill="#F5F7FA" height="36.0986" rx="5" ry="5" style="stroke:#333333;stroke-width:0.5;" width="120" x="428.5" y="536.5654"/><text fill="#111111" font-family="Arial" font-size="14" lengthAdjust="spacing" textLength="100" x="438.5" y="559.6973">Trade-off matrix</text></g><!--entity Clarify--><g id="elem_Clarify"><rect fill="#FFF2CC" height="52.1973" rx="5" ry="5" style="stroke:#333333;stroke-width:0.5;" width="167" x="405" y="607.5654"/><text fill="#111111" font-family="Arial" font-size="14" lengthAdjust="spacing" textLength="100" x="415" y="630.6973">Clarify decision,</text><text fill="#111111" font-family="Arial" font-size="14" lengthAdjust="spacing" textLength="147" x="415" y="646.7959">audience and evidence</text></g><!--link Start to Policy--><g id="link_Start_Policy"><path d="M75.6,331.1954 C81.88,283.0054 102.46,181.1354 167,131.5654 C239.01,76.2454 341.9989,73.1901 412.4689,78.7901 " fill="none" id="Start-to-Policy" style="stroke:#333333;stroke-width:1.0;"/><polygon fill="#333333" points="418.45,79.2654,409.7952,74.565,413.4657,78.8693,409.1614,82.5399,418.45,79.2654" style="stroke:#333333;stroke-width:1.0;"/><text fill="#000000" font-family="Arial" font-size="14" lengthAdjust="spacing" textLength="92" x="225" y="57.6973">What authority</text><text fill="#000000" font-family="Arial" font-size="14" lengthAdjust="spacing" textLength="140" x="201" y="73.7959">constrains behaviour?</text></g><!--link Start to Table--><g id="link_Start_Table"><path d="M81.68,331.3854 C94.49,297.1854 121.96,238.2854 167,209.5654 C210.12,182.0754 348.2851,172.6821 427.7651,169.4121 " fill="none" id="Start-to-Table" style="stroke:#333333;stroke-width:1.0;"/><polygon fill="#333333" points="433.76,169.1654,424.6032,165.5388,428.7642,169.371,424.932,173.532,433.76,169.1654" style="stroke:#333333;stroke-width:1.0;"/><text fill="#000000" font-family="Arial" font-size="14" lengthAdjust="spacing" textLength="187" x="177.5" y="153.6973">Which condition combinations</text><text fill="#000000" font-family="Arial" font-size="14" lengthAdjust="spacing" textLength="138" x="202" y="169.7959">produce which result?</text></g><!--link Start to Tree--><g id="link_Start_Tree"><path d="M100.36,331.4954 C118,316.2054 142.22,297.9254 167,287.5654 C214.72,267.6254 353.0797,251.6618 430.7597,243.9018 " fill="none" id="Start-to-Tree" style="stroke:#333333;stroke-width:1.0;"/><polygon fill="#333333" points="436.73,243.3054,427.377,240.2199,431.7548,243.8024,428.1722,248.1802,436.73,243.3054" style="stroke:#333333;stroke-width:1.0;"/><text fill="#000000" font-family="Arial" font-size="14" lengthAdjust="spacing" textLength="158" x="192" y="231.6973">Which ordered questions</text><text fill="#000000" font-family="Arial" font-size="14" lengthAdjust="spacing" textLength="102" x="220" y="247.7959">lead to a result?</text></g><!--link Start to DRD--><g id="link_Start_DRD"><path d="M137.31,351.3554 C209.62,344.3854 321.2278,333.612 399.9478,326.012 " fill="none" id="Start-to-DRD" style="stroke:#333333;stroke-width:1.0;"/><polygon fill="#333333" points="405.92,325.4354,396.5773,322.3188,400.9431,325.9159,397.346,330.2818,405.92,325.4354" style="stroke:#333333;stroke-width:1.0;"/><text fill="#000000" font-family="Arial" font-size="14" lengthAdjust="spacing" textLength="206" x="168" y="309.6973">What information and knowledge</text><text fill="#000000" font-family="Arial" font-size="14" lengthAdjust="spacing" textLength="168" x="187" y="325.7959">does the decision require?</text></g><!--link Start to BPMN--><g id="link_Start_BPMN"><path d="M129.41,383.6254 C141.56,388.1454 154.52,392.1554 167,394.5654 C251.69,410.9054 345.3254,408.6243 410.7654,403.9343 " fill="none" id="Start-to-BPMN" style="stroke:#333333;stroke-width:1.0;"/><polygon fill="#333333" points="416.75,403.5054,407.4871,400.159,411.7628,403.8629,408.059,408.1386,416.75,403.5054" style="stroke:#333333;stroke-width:1.0;"/><text fill="#000000" font-family="Arial" font-size="14" lengthAdjust="spacing" textLength="170" x="186" y="374.6973">What work happens before</text><text fill="#000000" font-family="Arial" font-size="14" lengthAdjust="spacing" textLength="117" x="212.5" y="390.7959">or after the result?</text></g><!--link Start to ADR--><g id="link_Start_ADR"><path d="M91.3,383.6454 C108.2,405.4354 135.42,435.1654 167,449.5654 C250.68,487.7254 353.4166,487.9811 420.2766,483.0011 " fill="none" id="Start-to-ADR" style="stroke:#333333;stroke-width:1.0;"/><polygon fill="#333333" points="426.26,482.5554,416.9877,479.235,421.2738,482.9268,417.582,487.2129,426.26,482.5554" style="stroke:#333333;stroke-width:1.0;"/><text fill="#000000" font-family="Arial" font-size="14" lengthAdjust="spacing" textLength="155" x="193.5" y="429.6973">Why was an architecture</text><text fill="#000000" font-family="Arial" font-size="14" lengthAdjust="spacing" textLength="97" x="222.5" y="445.7959">option chosen?</text></g><!--link Start to Matrix--><g id="link_Start_Matrix"><path d="M79.11,383.6054 C89.71,422.3454 115.49,494.1954 167,527.5654 C245.97,578.7254 353.8815,575.0201 422.4915,565.9701 " fill="none" id="Start-to-Matrix" style="stroke:#333333;stroke-width:1.0;"/><polygon fill="#333333" points="428.44,565.1854,418.9942,562.3967,423.4829,565.8393,420.0404,570.328,428.44,565.1854" style="stroke:#333333;stroke-width:1.0;"/><text fill="#000000" font-family="Arial" font-size="14" lengthAdjust="spacing" textLength="182" x="180" y="507.6973">How do alternatives compare</text><text fill="#000000" font-family="Arial" font-size="14" lengthAdjust="spacing" textLength="147" x="197.5" y="523.7959">against explicit criteria?</text></g><!--link Start to Clarify--><g id="link_Start_Clarify"><path d="M74.75,383.6754 C79.66,434.1354 98.14,544.7054 167,597.5654 C234.4,649.3054 328.5324,652.8737 398.8924,646.7737 " fill="none" id="Start-to-Clarify" style="stroke:#333333;stroke-width:1.0;"/><polygon fill="#333333" points="404.87,646.2554,395.5581,643.0477,399.8887,646.6873,396.2491,651.0178,404.87,646.2554" style="stroke:#333333;stroke-width:1.0;"/><text fill="#000000" font-family="Arial" font-size="14" lengthAdjust="spacing" textLength="81" x="230.5" y="593.6973">Still unclear?</text></g><!--SRC=[RLJ1RXen4Btp5QFaMggGj8gKGoC2fQsgHD4cKYzS1dkMjJ0s6NlPqAh_th4Ng57YazVptdZytin64ot1xCUtuUNLy6Bq4IQDzy6u9SI6e3BB9iAKb0d6Eq2duQwLA8Kmh5eXZZbIZIeEmigu3JAkOO5gjMJVEZtnrZESp_8g45eehOqpx-83hbCIW_Rz-9FvJJ3wL0H3WzftgS0QRQ0YCcRstVxEgxoA89EAw9PIyfy1mDsR6Z_FhcVZ5F6iYK-p0AHIzcUZlEIiwkdiY65qCVWxi5H7Y1uuYwPDkb9K6_o_-kmf8aVeJ6oIl7Ed3yg-j1GI-0mmG8ywdqw-ZcVN9VtHMwDs4296MfEBu7dkVZhVMT9BWYVVigASeaUMtAE94HUs1psdtViOfZr4DYU8-uTZEynTHI-jF3EL4c1gS2bAPzgqcfQikqUXRTWhwHlO6keoA9sMg36hnaJvRbcaETPIaH9FCcCyhKh2CwEceQzhM6DayvenztbRmYOMsTGxE8ZzOUwmrOQSejpHj3KwVMJw0Powzd8o6VHU38TVzfB23VngC0AsiV5iucxkb7SXCXeNO44DRetOS5iGiyoPPrG3WjOcMIsxzS8uJFimToAFRgMYBgEOWap0IHPnufWaDodfOzi8tnBgr7tu3bViEDHjNErvdI_DZryTkaUQqLF8Kt_iIkxzBLDbA_UvEiyhQ72peVnqIInPP4QmZZ8JATFRKiJ2JDz19sgZ577Ykj_qqZG-a2jvlQr2_UuxqF9CAtSayRPIj2WfKovqN2OR8j3hHimo4PHOHF9xALCTBBwHGJFMGkkKYCUt_m00]--></g></svg>