<?xml version="1.0" encoding="us-ascii" standalone="no"?><svg xmlns="http://www.w3.org/2000/svg" xmlns:xlink="http://www.w3.org/1999/xlink" contentStyleType="text/css" height="1232px" preserveAspectRatio="none" style="width:544px;height:1232px;background:#FFFFFF;" version="1.1" viewBox="0 0 544 1232" width="544px" zoomAndPan="magnify"><defs/><g><text fill="#000000" font-family="Arial" font-size="14" font-weight="bold" lengthAdjust="spacing" textLength="383" x="73.75" y="23.1318">FIG-04-06. Payment Instruction Lifecycle State Machine</text><g id="ScreeningPending"><rect fill="#F1F1F1" height="50" rx="12.5" ry="12.5" style="stroke:#181818;stroke-width:0.5;" width="140" x="239.5" y="397.0986"/><line style="stroke:#181818;stroke-width:0.5;" x1="239.5" x2="379.5" y1="423.1973" y2="423.1973"/><text fill="#000000" font-family="Arial" font-size="14" lengthAdjust="spacing" textLength="120" x="249.5" y="415.2305">Screening Pending</text></g><g id="PostingPending"><rect fill="#F1F1F1" height="50" rx="12.5" ry="12.5" style="stroke:#181818;stroke-width:0.5;" width="123" x="147" y="541.0986"/><line style="stroke:#181818;stroke-width:0.5;" x1="147" x2="270" y1="567.1973" y2="567.1973"/><text fill="#000000" font-family="Arial" font-size="14" lengthAdjust="spacing" textLength="103" x="157" y="559.2305">Posting Pending</text></g><g id="SentToScheme"><rect fill="#F1F1F1" height="50" rx="12.5" ry="12.5" style="stroke:#181818;stroke-width:0.5;" width="120" x="49.5" y="861.0986"/><line style="stroke:#181818;stroke-width:0.5;" x1="49.5" x2="169.5" y1="887.1973" y2="887.1973"/><text fill="#000000" font-family="Arial" font-size="14" lengthAdjust="spacing" textLength="100" x="59.5" y="879.2305">Sent to Scheme</text></g><ellipse cx="309.5" cy="53.0986" fill="#222222" rx="10" ry="10" style="stroke:#222222;stroke-width:1.0;"/><g id="Received"><rect fill="#F1F1F1" height="50" rx="12.5" ry="12.5" style="stroke:#181818;stroke-width:0.5;" width="79" x="270" y="141.0986"/><line style="stroke:#181818;stroke-width:0.5;" x1="270" x2="349" y1="167.1973" y2="167.1973"/><text fill="#000000" font-family="Arial" font-size="14" lengthAdjust="spacing" textLength="59" x="280" y="159.2305">Received</text></g><g id="Validated"><rect fill="#F1F1F1" height="50" rx="12.5" ry="12.5" style="stroke:#181818;stroke-width:0.5;" width="79" x="270" y="269.0986"/><line style="stroke:#181818;stroke-width:0.5;" x1="270" x2="349" y1="295.1973" y2="295.1973"/><text fill="#000000" font-family="Arial" font-size="14" lengthAdjust="spacing" textLength="59" x="280" y="287.2305">Validated</text></g><g id="Rejected"><rect fill="#F1F1F1" height="50" rx="12.5" ry="12.5" style="stroke:#181818;stroke-width:0.5;" width="76" x="372.5" y="621.0986"/><line style="stroke:#181818;stroke-width:0.5;" x1="372.5" x2="448.5" y1="647.1973" y2="647.1973"/><text fill="#000000" font-family="Arial" font-size="14" lengthAdjust="spacing" textLength="56" x="382.5" y="639.2305">Rejected</text></g><g id="Accepted"><rect fill="#F1F1F1" height="50" rx="12.5" ry="12.5" style="stroke:#181818;stroke-width:0.5;" width="79" x="7" y="701.0986"/><line style="stroke:#181818;stroke-width:0.5;" x1="7" x2="86" y1="727.1973" y2="727.1973"/><text fill="#000000" font-family="Arial" font-size="14" lengthAdjust="spacing" textLength="59" x="17" y="719.2305">Accepted</text></g><g id="Failed"><rect fill="#F1F1F1" height="50" rx="12.5" ry="12.5" style="stroke:#181818;stroke-width:0.5;" width="59" x="204" y="781.0986"/><line style="stroke:#181818;stroke-width:0.5;" x1="204" x2="263" y1="807.1973" y2="807.1973"/><text fill="#000000" font-family="Arial" font-size="14" lengthAdjust="spacing" textLength="39" x="214" y="799.2305">Failed</text></g><g id="Settled"><rect fill="#F1F1F1" height="50" rx="12.5" ry="12.5" style="stroke:#181818;stroke-width:0.5;" width="64" x="109.5" y="989.0986"/><line style="stroke:#181818;stroke-width:0.5;" x1="109.5" x2="173.5" y1="1015.1973" y2="1015.1973"/><text fill="#000000" font-family="Arial" font-size="14" lengthAdjust="spacing" textLength="44" x="119.5" y="1007.2305">Settled</text></g><ellipse cx="233.5" cy="1111.0986" fill="none" rx="11" ry="11" style="stroke:#222222;stroke-width:1.0;"/><ellipse cx="233.5" cy="1111.0986" fill="#222222" rx="6" ry="6" style="stroke:#222222;stroke-width:1.0;"/><g id="elem_GMN25"><path d="M58.5,1183.0986 L58.5,1225.2959 A0,0 0 0 0 58.5,1225.2959 L408.5,1225.2959 A0,0 0 0 0 408.5,1225.2959 L408.5,1193.0986 L398.5,1183.0986 L237.5,1183.0986 L233.5,1122.1886 L229.5,1183.0986 L58.5,1183.0986 A0,0 0 0 0 58.5,1183.0986 " fill="#FFF8DC" style="stroke:#666666;stroke-width:0.5;"/><path d="M398.5,1183.0986 L398.5,1193.0986 L408.5,1193.0986 L398.5,1183.0986 " fill="#FFF8DC" style="stroke:#666666;stroke-width:0.5;"/><text fill="#000000" font-family="Arial" font-size="14" lengthAdjust="spacing" textLength="270" x="64.5" y="1201.2305">Transition labels use event [guard] / effect.</text><text fill="#000000" font-family="Arial" font-size="14" lengthAdjust="spacing" textLength="329" x="64.5" y="1217.3291">Repair, cancellation and resubmission are excluded.</text></g><!--link *start* to Received--><g id="link_*start*_Received"><path d="M309.5,63.1786 C309.5,79.9586 309.5,110.3186 309.5,134.7486 " fill="none" id="*start*-to-Received" style="stroke:#333333;stroke-width:1.2;"/><polygon fill="#333333" points="309.5,140.7486,313.5,131.7486,309.5,135.7486,305.5,131.7486,309.5,140.7486" style="stroke:#333333;stroke-width:1.2;"/><text fill="#000000" font-family="Arial" font-size="14" lengthAdjust="spacing" textLength="113" x="310.5" y="107.2305">submitted / create</text></g><!--link Received to Validated--><g id="link_Received_Validated"><path d="M309.5,191.3886 C309.5,213.7086 309.5,240.5886 309.5,262.8786 " fill="none" id="Received-to-Validated" style="stroke:#333333;stroke-width:1.2;"/><polygon fill="#333333" points="309.5,268.8786,313.5,259.8786,309.5,263.8786,305.5,259.8786,309.5,268.8786" style="stroke:#333333;stroke-width:1.2;"/><text fill="#000000" font-family="Arial" font-size="14" lengthAdjust="spacing" textLength="91" x="310.5" y="235.2305">checksPassed</text></g><!--link Validated to ScreeningPending--><g id="link_Validated_ScreeningPending"><path d="M309.5,319.3886 C309.5,341.7086 309.5,368.5886 309.5,390.8786 " fill="none" id="Validated-to-ScreeningPending" style="stroke:#333333;stroke-width:1.2;"/><polygon fill="#333333" points="309.5,396.8786,313.5,387.8786,309.5,391.8786,305.5,387.8786,309.5,396.8786" style="stroke:#333333;stroke-width:1.2;"/><text fill="#000000" font-family="Arial" font-size="14" lengthAdjust="spacing" textLength="112" x="310.5" y="363.2305">requestScreening</text></g><!--link ScreeningPending to Rejected--><g id="link_ScreeningPending_Rejected"><path d="M344.9,447.3286 C354.82,455.6986 364.73,465.8386 371.5,477.0986 C399.03,522.9086 406.7149,580.523 409.0949,614.843 " fill="none" id="ScreeningPending-to-Rejected" style="stroke:#333333;stroke-width:1.2;"/><polygon fill="#333333" points="409.51,620.8286,412.8778,611.5735,409.1641,615.8406,404.897,612.1269,409.51,620.8286" style="stroke:#333333;stroke-width:1.2;"/><text fill="#000000" font-family="Arial" font-size="14" lengthAdjust="spacing" textLength="148" x="388.5" y="491.2305">screeningResult [failed]</text><text fill="#000000" font-family="Arial" font-size="14" lengthAdjust="spacing" textLength="108" x="408.5" y="507.3291">/ recordRejection</text></g><!--link ScreeningPending to PostingPending--><g id="link_ScreeningPending_PostingPending"><path d="M239.46,446.0486 C225.96,453.7586 213.53,463.8886 205.5,477.0986 C193.91,496.1686 195.1572,516.2654 199.5372,535.0454 " fill="none" id="ScreeningPending-to-PostingPending" style="stroke:#333333;stroke-width:1.2;"/><polygon fill="#333333" points="200.9,540.8886,202.7513,531.2153,199.7643,536.0193,194.9604,533.0324,200.9,540.8886" style="stroke:#333333;stroke-width:1.2;"/><text fill="#000000" font-family="Arial" font-size="14" lengthAdjust="spacing" textLength="160" x="206.5" y="491.2305">screeningResult [passed]</text><text fill="#000000" font-family="Arial" font-size="14" lengthAdjust="spacing" textLength="103" x="235" y="507.3291">/ requestPosting</text></g><!--link PostingPending to Accepted--><g id="link_PostingPending_Accepted"><path d="M146.64,568.4286 C107.1,572.8986 58.53,585.8886 32.5,621.0986 C15.5,644.0986 22.292,672.4787 31.882,695.2587 " fill="none" id="PostingPending-to-Accepted" style="stroke:#333333;stroke-width:1.2;"/><polygon fill="#333333" points="34.21,700.7886,34.4046,690.9417,32.27,696.1803,27.0313,694.0457,34.21,700.7886" style="stroke:#333333;stroke-width:1.2;"/><text fill="#000000" font-family="Arial" font-size="14" lengthAdjust="spacing" textLength="156" x="33.5" y="643.2305">postingResult [accepted]</text><text fill="#000000" font-family="Arial" font-size="14" lengthAdjust="spacing" textLength="108" x="57.5" y="659.3291">/ recordAccepted</text></g><!--link PostingPending to Failed--><g id="link_PostingPending_Failed"><path d="M211.03,591.2286 C215.83,636.8486 225.5328,729.2715 230.3328,774.9415 " fill="none" id="PostingPending-to-Failed" style="stroke:#333333;stroke-width:1.2;"/><polygon fill="#333333" points="230.96,780.9086,233.9974,771.5398,230.4374,775.936,226.0412,772.376,230.96,780.9086" style="stroke:#333333;stroke-width:1.2;"/><text fill="#000000" font-family="Arial" font-size="14" lengthAdjust="spacing" textLength="132" x="220.5" y="643.2305">postingResult [failed]</text><text fill="#000000" font-family="Arial" font-size="14" lengthAdjust="spacing" textLength="93" x="240" y="659.3291">/ recordFailure</text></g><!--link Accepted to SentToScheme--><g id="link_Accepted_SentToScheme"><path d="M56.21,751.4386 C68.08,781.2186 85.8378,825.7453 97.6678,855.4153 " fill="none" id="Accepted-to-SentToScheme" style="stroke:#333333;stroke-width:1.2;"/><polygon fill="#333333" points="99.89,860.9886,100.2723,851.1472,98.0382,856.3442,92.8412,854.1101,99.89,860.9886" style="stroke:#333333;stroke-width:1.2;"/><text fill="#000000" font-family="Arial" font-size="14" lengthAdjust="spacing" textLength="27" x="88.5" y="811.2305">sent</text></g><!--link SentToScheme to Settled--><g id="link_SentToScheme_Settled"><path d="M115.67,911.3886 C121.34,933.7086 128.2133,960.7732 133.8733,983.0632 " fill="none" id="SentToScheme-to-Settled" style="stroke:#333333;stroke-width:1.2;"/><polygon fill="#333333" points="135.35,988.8786,137.0119,979.171,134.1194,984.0324,129.258,981.1399,135.35,988.8786" style="stroke:#333333;stroke-width:1.2;"/><text fill="#000000" font-family="Arial" font-size="14" lengthAdjust="spacing" textLength="42" x="128.5" y="955.2305">settled</text></g><!--link Rejected to *end*--><g id="link_Rejected_*end*"><path d="M396.99,671.1586 C381.29,701.4286 357.5,755.4786 357.5,805.0986 C357.5,805.0986 357.5,805.0986 357.5,1015.0986 C357.5,1072.0486 279.8558,1097.9368 249.8658,1105.9668 " fill="none" id="Rejected-to-*end*" style="stroke:#333333;stroke-width:1.2;"/><polygon fill="#333333" points="244.07,1107.5186,253.7983,1109.0547,248.8999,1106.2254,251.7292,1101.3269,244.07,1107.5186" style="stroke:#333333;stroke-width:1.2;"/></g><!--link Settled to *end*--><g id="link_Settled_*end*"><path d="M165.19,1039.5586 C185.42,1060.4586 209.0769,1084.8775 222.0769,1098.3075 " fill="none" id="Settled-to-*end*" style="stroke:#333333;stroke-width:1.2;"/><polygon fill="#333333" points="226.25,1102.6186,222.8645,1093.3699,222.7724,1099.0261,217.1163,1098.934,226.25,1102.6186" style="stroke:#333333;stroke-width:1.2;"/></g><!--link Failed to *end*--><g id="link_Failed_*end*"><path d="M233.5,831.1286 C233.5,893.2786 233.5,1051.4286 233.5,1093.9286 " fill="none" id="Failed-to-*end*" style="stroke:#333333;stroke-width:1.2;"/><polygon fill="#333333" points="233.5,1099.9286,237.5,1090.9286,233.5,1094.9286,229.5,1090.9286,233.5,1099.9286" style="stroke:#333333;stroke-width:1.2;"/></g><!--SRC=[RPF1Rjim38RlV0gkns5sUXXss670BYqAR42G5BjaEIWIqsgJPS-aYkNjHqcsroO10aGaF_twHT7lVBGXESAsNUcFvHI8LqCmKL8N6dccZjf1bm3Y9H3UFTmtjn-RsqyjhisfeoZu45d6PCNt4R_v8zcJLN0hHWY_6_li8m5m2M-sTYIAFZxXcgBJ_niqZ4jsIixqkcSvPwVS6RdDHgHNfUouYchgiQy9WDtxFJRD5zoG9Vz23ZyZfqFdHNIzGZMWEh1KC_h31E-C55PLx6zU6sPoyB-GiNFpIe_q9n7BKW6uWAgNNsIhFi_r3N4AWhkZyO7S_cTSgPhjHrTXxV5rhRTjkQOu5FEJOl4txG4usvprlbfBG_KsrEgiOwRAAsypV4tehbpaKkRYWXbCepxLSdJfxgjNpBVI4DxaAYHI3-6w0bXwc-lw-30pSppvcaE8lSxHeHVfEq1y74raNqOwc0C5niI4z9B7RFUKpEZsEZLqr6cNLlaD3SQF7z2QQ2a4KtQQwFHkPSoOIs9KZR_bWtCjQ9Cmd_eF]--></g></svg>