<?xml version="1.0" encoding="us-ascii" standalone="no"?><svg xmlns="http://www.w3.org/2000/svg" xmlns:xlink="http://www.w3.org/1999/xlink" contentStyleType="text/css" height="660px" preserveAspectRatio="none" style="width:1127px;height:660px;background:#FFFFFF;" version="1.1" viewBox="0 0 1127 660" width="1127px" zoomAndPan="magnify"><defs/><g><text fill="#000000" font-family="Arial" font-size="14" font-weight="bold" lengthAdjust="spacing" textLength="272" x="420.75" y="23.1318">FIG-08-04. Online Store order data flow</text><!--entity Customer--><g id="elem_Customer"><rect fill="#FFFFFF" height="52.1973" rx="2.5" ry="2.5" style="stroke:#333333;stroke-width:0.5;" width="125" x="39" y="44.0986"/><text fill="#000000" font-family="Arial" font-size="14" lengthAdjust="spacing" textLength="61" x="49" y="67.2305">Customer</text><text fill="#000000" font-family="Arial" font-size="14" lengthAdjust="spacing" textLength="105" x="49" y="83.3291">&#171;External entity&#187;</text></g><!--entity Capture--><g id="elem_Capture"><rect fill="#EAF6E8" height="52.1973" rx="2.5" ry="2.5" style="stroke:#333333;stroke-width:0.5;" width="109" x="47" y="151.0986"/><text fill="#000000" font-family="Arial" font-size="14" lengthAdjust="spacing" textLength="89" x="57" y="174.2305">Capture order</text><text fill="#000000" font-family="Arial" font-size="14" lengthAdjust="spacing" textLength="67" x="57" y="190.3291">&#171;Process&#187;</text></g><!--entity PaymentProcess--><g id="elem_PaymentProcess"><rect fill="#EAF6E8" height="52.1973" rx="2.5" ry="2.5" style="stroke:#333333;stroke-width:0.5;" width="138" x="181.5" y="258.0986"/><text fill="#000000" font-family="Arial" font-size="14" lengthAdjust="spacing" textLength="118" x="191.5" y="281.2305">Authorise payment</text><text fill="#000000" font-family="Arial" font-size="14" lengthAdjust="spacing" textLength="67" x="191.5" y="297.3291">&#171;Process&#187;</text></g><!--entity ShipmentProcess--><g id="elem_ShipmentProcess"><rect fill="#EAF6E8" height="52.1973" rx="2.5" ry="2.5" style="stroke:#333333;stroke-width:0.5;" width="176" x="216.5" y="365.0986"/><text fill="#000000" font-family="Arial" font-size="14" lengthAdjust="spacing" textLength="156" x="226.5" y="388.2305">Create shipment request</text><text fill="#000000" font-family="Arial" font-size="14" lengthAdjust="spacing" textLength="67" x="226.5" y="404.3291">&#171;Process&#187;</text></g><!--entity OrderStore--><g id="elem_OrderStore"><path d="M52.5,485.5986 C52.5,475.5986 103.5,475.5986 103.5,475.5986 C103.5,475.5986 154.5,475.5986 154.5,485.5986 L154.5,526.7959 C154.5,536.7959 103.5,536.7959 103.5,536.7959 C103.5,536.7959 52.5,536.7959 52.5,526.7959 L52.5,485.5986 " fill="#F2F5F7" style="stroke:#333333;stroke-width:0.5;"/><path d="M52.5,485.5986 C52.5,495.5986 103.5,495.5986 103.5,495.5986 C103.5,495.5986 154.5,495.5986 154.5,485.5986 " fill="none" style="stroke:#333333;stroke-width:0.5;"/><text fill="#000000" font-family="Arial" font-size="14" lengthAdjust="spacing" textLength="69" x="62.5" y="512.7305">Order data</text><text fill="#000000" font-family="Arial" font-size="14" lengthAdjust="spacing" textLength="82" x="62.5" y="528.8291">&#171;Data store&#187;</text></g><!--entity PaymentProvider--><g id="elem_PaymentProvider"><rect fill="#FFF4D6" height="52.1973" rx="2.5" ry="2.5" style="stroke:#333333;stroke-width:0.5;" width="182" x="683.5" y="258.0986"/><text fill="#000000" font-family="Arial" font-size="14" lengthAdjust="spacing" textLength="162" x="693.5" y="281.2305">Payment Provider System</text><text fill="#000000" font-family="Arial" font-size="14" lengthAdjust="spacing" textLength="115" x="693.5" y="297.3291">&#171;External system&#187;</text></g><!--entity DeliveryPartner--><g id="elem_DeliveryPartner"><rect fill="#FFF4D6" height="52.1973" rx="2.5" ry="2.5" style="stroke:#333333;stroke-width:0.5;" width="172" x="949.5" y="365.0986"/><text fill="#000000" font-family="Arial" font-size="14" lengthAdjust="spacing" textLength="152" x="959.5" y="388.2305">Delivery Partner System</text><text fill="#000000" font-family="Arial" font-size="14" lengthAdjust="spacing" textLength="115" x="959.5" y="404.3291">&#171;External system&#187;</text></g><!--entity PaymentRequest--><g id="elem_PaymentRequest"><rect fill="#FFFFFF" height="52.1973" rx="2.5" ry="2.5" style="stroke:#333333;stroke-width:0.5;" width="213" x="395" y="258.0986"/><text fill="#000000" font-family="Arial" font-size="14" lengthAdjust="spacing" textLength="193" x="405" y="281.2305">Payment authorisation request</text><text fill="#000000" font-family="Arial" font-size="14" lengthAdjust="spacing" textLength="74" x="405" y="297.3291">&#171;Data flow&#187;</text></g><!--entity PaymentResult--><g id="elem_PaymentResult"><rect fill="#FFFFFF" height="52.1973" rx="2.5" ry="2.5" style="stroke:#333333;stroke-width:0.5;" width="200" x="674.5" y="365.0986"/><text fill="#000000" font-family="Arial" font-size="14" lengthAdjust="spacing" textLength="180" x="684.5" y="388.2305">Payment authorisation result</text><text fill="#000000" font-family="Arial" font-size="14" lengthAdjust="spacing" textLength="74" x="684.5" y="404.3291">&#171;Data flow&#187;</text></g><!--entity ShipmentRequest--><g id="elem_ShipmentRequest"><rect fill="#FFFFFF" height="52.1973" rx="2.5" ry="2.5" style="stroke:#333333;stroke-width:0.5;" width="131" x="468" y="365.0986"/><text fill="#000000" font-family="Arial" font-size="14" lengthAdjust="spacing" textLength="111" x="478" y="388.2305">Shipment request</text><text fill="#000000" font-family="Arial" font-size="14" lengthAdjust="spacing" textLength="74" x="478" y="404.3291">&#171;Data flow&#187;</text></g><!--entity ShipmentConfirmation--><g id="elem_ShipmentConfirmation"><rect fill="#FFFFFF" height="68.2959" rx="2.5" ry="2.5" style="stroke:#333333;stroke-width:0.5;" width="160" x="592.5" y="472.0986"/><text fill="#000000" font-family="Arial" font-size="14" lengthAdjust="spacing" textLength="140" x="602.5" y="495.2305">Shipment confirmation</text><text fill="#000000" font-family="Arial" font-size="14" lengthAdjust="spacing" textLength="110" x="602.5" y="511.3291">and tracking data</text><text fill="#000000" font-family="Arial" font-size="14" lengthAdjust="spacing" textLength="74" x="602.5" y="527.4277">&#171;Data flow&#187;</text></g><g id="elem_GMN29"><path d="M400.5,595.0986 L400.5,653.3945 A0,0 0 0 0 400.5,653.3945 L944.5,653.3945 A0,0 0 0 0 944.5,653.3945 L944.5,605.0986 L934.5,595.0986 L676.5,595.0986 L672.5,540.2286 L668.5,595.0986 L400.5,595.0986 A0,0 0 0 0 400.5,595.0986 " fill="#FFF8DC" style="stroke:#666666;stroke-width:0.5;"/><path d="M934.5,595.0986 L934.5,605.0986 L944.5,605.0986 L934.5,595.0986 " fill="#FFF8DC" style="stroke:#666666;stroke-width:0.5;"/><text fill="#000000" font-family="Arial" font-size="14" lengthAdjust="spacing" textLength="64" x="406.5" y="613.2305">DFD view.</text><text fill="#000000" font-family="Arial" font-size="14" lengthAdjust="spacing" textLength="523" x="406.5" y="629.3291">Arrows show data movement and transformation, not process sequence ownership,</text><text fill="#000000" font-family="Arial" font-size="14" lengthAdjust="spacing" textLength="267" x="406.5" y="645.4277">database schema or software deployment.</text></g><!--link Customer to Capture--><g id="link_Customer_Capture"><path d="M101.5,96.2786 C101.5,112.8586 101.5,128.2186 101.5,144.8186 " fill="none" id="Customer-to-Capture" style="stroke:#333333;stroke-width:1.2;"/><polygon fill="#333333" points="101.5,150.8186,105.5,141.8186,101.5,145.8186,97.5,141.8186,101.5,150.8186" style="stroke:#333333;stroke-width:1.2;"/><text fill="#000000" font-family="Arial" font-size="14" lengthAdjust="spacing" textLength="82" x="18.5" y="119.6805">Order details</text></g><!--link Capture to PaymentProcess--><g id="link_Capture_PaymentProcess"><path d="M129,203.2786 C129,234.9486 129,284.0986 129,284.0986 C129,284.0986 147.95,284.0986 175.23,284.0986 " fill="none" id="Capture-to-PaymentProcess" style="stroke:#333333;stroke-width:1.2;"/><polygon fill="#333333" points="181.23,284.0986,172.23,280.0986,176.23,284.0986,172.23,288.0986,181.23,284.0986" style="stroke:#333333;stroke-width:1.2;"/><text fill="#000000" font-family="Arial" font-size="14" lengthAdjust="spacing" textLength="68" x="60" y="265.9305">Order total</text></g><!--link PaymentProcess to ShipmentProcess--><g id="link_PaymentProcess_ShipmentProcess"><path d="M250.83,310.2786 C250.83,326.8586 250.83,342.2186 250.83,358.8186 " fill="none" id="PaymentProcess-to-ShipmentProcess" style="stroke:#333333;stroke-width:1.2;"/><polygon fill="#333333" points="250.83,364.8186,254.83,355.8186,250.83,359.8186,246.83,355.8186,250.83,364.8186" style="stroke:#333333;stroke-width:1.2;"/><text fill="#000000" font-family="Arial" font-size="14" lengthAdjust="spacing" textLength="66" x="183.83" y="333.6805">Paid order</text></g><!--link PaymentProcess to PaymentRequest--><g id="link_PaymentProcess_PaymentRequest"><path d="M319.75,284.0986 C342.97,284.0986 363.42,284.0986 388.83,284.0986 " fill="none" id="PaymentProcess-to-PaymentRequest" style="stroke:#333333;stroke-width:1.2;"/><polygon fill="#333333" points="394.83,284.0986,385.83,280.0986,389.83,284.0986,385.83,288.0986,394.83,284.0986" style="stroke:#333333;stroke-width:1.2;"/></g><!--link PaymentRequest to PaymentProvider--><g id="link_PaymentRequest_PaymentProvider"><path d="M608.22,284.0986 C633.05,284.0986 653.25,284.0986 677.34,284.0986 " fill="none" id="PaymentRequest-to-PaymentProvider" style="stroke:#333333;stroke-width:1.2;"/><polygon fill="#333333" points="683.34,284.0986,674.34,280.0986,678.34,284.0986,674.34,288.0986,683.34,284.0986" style="stroke:#333333;stroke-width:1.2;"/></g><!--link PaymentProvider to PaymentResult--><g id="link_PaymentProvider_PaymentResult"><path d="M774.5,310.2786 C774.5,326.8586 774.5,342.2186 774.5,358.8186 " fill="none" id="PaymentProvider-to-PaymentResult" style="stroke:#333333;stroke-width:1.2;"/><polygon fill="#333333" points="774.5,364.8186,778.5,355.8186,774.5,359.8186,770.5,355.8186,774.5,364.8186" style="stroke:#333333;stroke-width:1.2;"/></g><!--reverse link PaymentProcess to PaymentResult--><g id="link_PaymentProcess_PaymentResult"><path d="M285.17,316.2786 C285.17,326.1786 285.17,329.0986 285.17,329.0986 C285.17,329.0986 679,329.0986 679,329.0986 C679,329.0986 679,347.9086 679,364.8086 " fill="none" id="PaymentProcess-backto-PaymentResult" style="stroke:#333333;stroke-width:1.2;"/><polygon fill="#333333" points="285.17,310.2786,281.17,319.2786,285.17,315.2786,289.17,319.2786,285.17,310.2786" style="stroke:#333333;stroke-width:1.2;"/></g><!--link ShipmentProcess to ShipmentRequest--><g id="link_ShipmentProcess_ShipmentRequest"><path d="M392.71,391.0986 C417.66,391.0986 438.36,391.0986 461.74,391.0986 " fill="none" id="ShipmentProcess-to-ShipmentRequest" style="stroke:#333333;stroke-width:1.2;"/><polygon fill="#333333" points="467.74,391.0986,458.74,387.0986,462.74,391.0986,458.74,395.0986,467.74,391.0986" style="stroke:#333333;stroke-width:1.2;"/></g><!--link ShipmentRequest to DeliveryPartner--><g id="link_ShipmentRequest_DeliveryPartner"><path d="M533.5,364.9986 C533.5,355.5186 533.5,347.0986 533.5,347.0986 C533.5,347.0986 1035.5,347.0986 1035.5,347.0986 C1035.5,347.0986 1035.5,349.5186 1035.5,358.9986 " fill="none" id="ShipmentRequest-to-DeliveryPartner" style="stroke:#333333;stroke-width:1.2;"/><polygon fill="#333333" points="1035.5,364.9986,1039.5,355.9986,1035.5,359.9986,1031.5,355.9986,1035.5,364.9986" style="stroke:#333333;stroke-width:1.2;"/></g><!--link DeliveryPartner to ShipmentConfirmation--><g id="link_DeliveryPartner_ShipmentConfirmation"><path d="M1035.5,417.1986 C1035.5,451.1286 1035.5,506.0986 1035.5,506.0986 C1035.5,506.0986 865.51,506.0986 758.61,506.0986 " fill="none" id="DeliveryPartner-to-ShipmentConfirmation" style="stroke:#333333;stroke-width:1.2;"/><polygon fill="#333333" points="752.61,506.0986,761.61,510.0986,757.61,506.0986,761.61,502.0986,752.61,506.0986" style="stroke:#333333;stroke-width:1.2;"/></g><!--reverse link ShipmentProcess to ShipmentConfirmation--><g id="link_ShipmentProcess_ShipmentConfirmation"><path d="M304.5,423.3286 C304.5,454.4286 304.5,496.0986 304.5,496.0986 C304.5,496.0986 483.92,496.0986 592.2,496.0986 " fill="none" id="ShipmentProcess-backto-ShipmentConfirmation" style="stroke:#333333;stroke-width:1.2;"/><polygon fill="#333333" points="304.5,417.3286,300.5,426.3286,304.5,422.3286,308.5,426.3286,304.5,417.3286" style="stroke:#333333;stroke-width:1.2;"/></g><!--link Capture to OrderStore--><g id="link_Capture_OrderStore"><path d="M78,203.1886 C78,263.2186 78,404.9186 78,469.2786 " fill="none" id="Capture-to-OrderStore" style="stroke:#333333;stroke-width:1.2;"/><polygon fill="#333333" points="78,475.2786,82,466.2786,78,470.2786,74,466.2786,78,475.2786" style="stroke:#333333;stroke-width:1.2;"/><text fill="#000000" font-family="Arial" font-size="14" lengthAdjust="spacing" textLength="70" x="7" y="335.3705">Order draft</text></g><!--link PaymentProcess to OrderStore--><g id="link_PaymentProcess_OrderStore"><path d="M199,310.3786 C199,371.3086 199,517.0986 199,517.0986 C199,517.0986 183.31,517.0986 160.6,517.0986 " fill="none" id="PaymentProcess-to-OrderStore" style="stroke:#333333;stroke-width:1.2;"/><polygon fill="#333333" points="154.6,517.0986,163.6,521.0986,159.6,517.0986,163.6,513.0986,154.6,517.0986" style="stroke:#333333;stroke-width:1.2;"/><text fill="#000000" font-family="Arial" font-size="14" lengthAdjust="spacing" textLength="97" x="101" y="432.0705">Payment status</text></g><!--link ShipmentProcess to OrderStore--><g id="link_ShipmentProcess_OrderStore"><path d="M216.34,391.0986 C162.33,391.0986 103.5,391.0986 103.5,391.0986 C103.5,391.0986 103.5,435.5086 103.5,469.5786 " fill="none" id="ShipmentProcess-to-OrderStore" style="stroke:#333333;stroke-width:1.2;"/><polygon fill="#333333" points="103.5,475.5786,107.5,466.5786,103.5,470.5786,99.5,466.5786,103.5,475.5786" style="stroke:#333333;stroke-width:1.2;"/><text fill="#000000" font-family="Arial" font-size="14" lengthAdjust="spacing" textLength="101" x="15.68" y="387.2305">Shipment status</text></g><!--SRC=[ZLN1RgCm4BtxAsRJQqchLTDMLHKfIi9gJwqsrrvS61AhncRj8Mp-Vks0AJXijL4Eo7xp_9ZtF7mJAfDrZZ2VtxY_fPD4UrD9hgWkPK87B75UkKV6I5T06juraIuX5mOp4ben4YGHqfy_ajl7vFPk3YzA2eMm8sqGjCdHGCw9Go5rmvZz4AhYXfVWKNIgF8OEUh2XT8uMAtXO31ODLnz-SR5Wp1_DrTuTErlNrib1ywQUdxT_28tY4b0vKQVbSWRSGa30LNh-ZQfvHNLGwIbUZSxGsb3QRLzjL-dzzd5OkQgTPYCiGiLFfJlmilgrtUWMfqZM1ZaXs8EeF18C_gxHJb3jEaJCvVlwpfs8sKlVPr-zyVsste2EuBpTEdALVayNwSDGHwSK7FrHU9xToHAMevxQyzB5gxLutzgxpVsGSuDI7D6S7DQG-W_EK13m4vn19- -Qptq0XrtRX9oDTVvg4LC9-1UbhUNNZ1umHRYRC3Cc2PWlTFKqcLQ5CELPrvlYAWSoF7FNOZzsUu9-FIZjps3zVKYIPP_m9-W2XCI5j2oiUqoKum0bJLooQDFZux0-EGQHjtUCNHGOiJ_GvobTIrZaN0mBoMDn4fDSDsf8vtrYOzSIYGLTl1XZiV3-qCWl5llN0wCCipZJGTsKGspIjg0rqiP63WrkTs-auGLDkJF2XlHRubJRomR4-3wLNG5JsislzfF003Rf1eu2cxbxNXcZ6-jccsxQyL_g8xPNhSsmieNktlBQZNo2gZlL-gwgp4tbnlNC3yThnzUFEfkvZn9tSGAh2sgu4vPZ9VNvJUOC7RjNzHS0]--></g></svg>