<?xml version="1.0" encoding="us-ascii" standalone="no"?><svg xmlns="http://www.w3.org/2000/svg" xmlns:xlink="http://www.w3.org/1999/xlink" contentStyleType="text/css" height="726px" preserveAspectRatio="none" style="width:894px;height:726px;background:#FFFFFF;" version="1.1" viewBox="0 0 894 726" width="894px" zoomAndPan="magnify"><defs/><g><text fill="#000000" font-family="Arial" font-size="14" font-weight="bold" lengthAdjust="spacing" textLength="251" x="314.5" y="23.1318">Online Store solution design thread</text><!--cluster Coherent design views--><g id="cluster_Coherent design views"><path d="M8.5,43.0986 L153.5,43.0986 A3.75,3.75 0 0 1 156,45.5986 L163,64.0474 L771.5,64.0474 A2.5,2.5 0 0 1 774,66.5474 L774,154.5986 A2.5,2.5 0 0 1 771.5,157.0986 L8.5,157.0986 A2.5,2.5 0 0 1 6,154.5986 L6,45.5986 A2.5,2.5 0 0 1 8.5,43.0986 " fill="#E2F0D9" style="stroke:#000000;stroke-width:1.5;"/><line style="stroke:#000000;stroke-width:1.5;" x1="6" x2="163" y1="64.0474" y2="64.0474"/><text fill="#000000" font-family="Arial" font-size="13" font-weight="bold" lengthAdjust="spacing" textLength="144" x="10" y="57.2925">Coherent design views</text></g><!--entity S--><g id="elem_S"><rect fill="#F7F9FB" height="64.8462" rx="2.5" ry="2.5" style="stroke:#333333;stroke-width:0.5;" width="136" x="176" y="76.0986"/><text fill="#000000" font-family="Arial" font-size="13" lengthAdjust="spacing" textLength="53" x="186" y="98.2925">Structure</text><text fill="#000000" font-family="Arial" font-size="13" lengthAdjust="spacing" textLength="116" x="186" y="113.2412">Responsibilities and</text><text fill="#000000" font-family="Arial" font-size="13" lengthAdjust="spacing" textLength="63" x="186" y="128.1899">boundaries</text></g><!--entity I--><g id="elem_I"><rect fill="#F7F9FB" height="64.8462" rx="2.5" ry="2.5" style="stroke:#333333;stroke-width:0.5;" width="126" x="334" y="76.0986"/><text fill="#000000" font-family="Arial" font-size="13" lengthAdjust="spacing" textLength="60" x="344" y="98.2925">Interaction</text><text fill="#000000" font-family="Arial" font-size="13" lengthAdjust="spacing" textLength="106" x="344" y="113.2412">Success, timeout,</text><text fill="#000000" font-family="Arial" font-size="13" lengthAdjust="spacing" textLength="103" x="344" y="128.1899">retry and recovery</text></g><!--entity N--><g id="elem_N"><rect fill="#F7F9FB" height="64.8462" rx="2.5" ry="2.5" style="stroke:#333333;stroke-width:0.5;" width="131" x="22.5" y="76.0986"/><text fill="#000000" font-family="Arial" font-size="13" lengthAdjust="spacing" textLength="63" x="32.5" y="98.2925">Information</text><text fill="#000000" font-family="Arial" font-size="13" lengthAdjust="spacing" textLength="111" x="32.5" y="113.2412">Order and payment</text><text fill="#000000" font-family="Arial" font-size="13" lengthAdjust="spacing" textLength="58" x="32.5" y="128.1899">ownership</text></g><!--entity C--><g id="elem_C"><rect fill="#F7F9FB" height="64.8462" rx="2.5" ry="2.5" style="stroke:#333333;stroke-width:0.5;" width="116" x="482" y="76.0986"/><text fill="#000000" font-family="Arial" font-size="13" lengthAdjust="spacing" textLength="48" x="492" y="98.2925">Security</text><text fill="#000000" font-family="Arial" font-size="13" lengthAdjust="spacing" textLength="96" x="492" y="113.2412">Trust boundaries</text><text fill="#000000" font-family="Arial" font-size="13" lengthAdjust="spacing" textLength="71" x="492" y="128.1899">and controls</text></g><!--entity P--><g id="elem_P"><rect fill="#F7F9FB" height="64.8462" rx="2.5" ry="2.5" style="stroke:#333333;stroke-width:0.5;" width="137" x="620.5" y="76.0986"/><text fill="#000000" font-family="Arial" font-size="13" lengthAdjust="spacing" textLength="69" x="630.5" y="98.2925">Deployment</text><text fill="#000000" font-family="Arial" font-size="13" lengthAdjust="spacing" textLength="117" x="630.5" y="113.2412">Failure domains and</text><text fill="#000000" font-family="Arial" font-size="13" lengthAdjust="spacing" textLength="99" x="630.5" y="128.1899">operational intent</text></g><!--entity D--><g id="elem_D"><rect fill="#FFF2CC" height="79.7949" rx="2.5" ry="2.5" style="stroke:#333333;stroke-width:0.5;" width="136" x="455" y="330.0986"/><text fill="#000000" font-family="Arial" font-size="13" lengthAdjust="spacing" textLength="81" x="465" y="352.2925">Design drivers</text><text fill="#000000" font-family="Arial" font-size="13" lengthAdjust="spacing" textLength="116" x="465" y="367.2412">FR-25-01, QA-25-01</text><text fill="#000000" font-family="Arial" font-size="13" lengthAdjust="spacing" textLength="114" x="465" y="382.1899">duplicate prevention</text><text fill="#000000" font-family="Arial" font-size="13" lengthAdjust="spacing" textLength="105" x="465" y="397.1387">provider constraint</text></g><!--entity O--><g id="elem_O"><rect fill="#DDEBF7" height="79.7949" rx="2.5" ry="2.5" style="stroke:#333333;stroke-width:0.5;" width="114" x="434" y="456.0986"/><text fill="#000000" font-family="Arial" font-size="13" lengthAdjust="spacing" textLength="45" x="444" y="478.2925">Options</text><text fill="#000000" font-family="Arial" font-size="13" lengthAdjust="spacing" textLength="87" x="444" y="493.2412">1 Synchronous</text><text fill="#000000" font-family="Arial" font-size="13" lengthAdjust="spacing" textLength="94" x="444" y="508.1899">2 Asynchronous</text><text fill="#000000" font-family="Arial" font-size="13" lengthAdjust="spacing" textLength="48" x="444" y="523.1387">3 Hybrid</text></g><!--entity A--><g id="elem_A"><rect fill="#E4DFEC" height="64.8462" rx="2.5" ry="2.5" style="stroke:#333333;stroke-width:0.5;" width="153" x="368.5" y="582.0986"/><text fill="#000000" font-family="Arial" font-size="13" lengthAdjust="spacing" textLength="63" x="378.5" y="604.2925">ADR-26-01</text><text fill="#000000" font-family="Arial" font-size="13" lengthAdjust="spacing" textLength="133" x="378.5" y="619.2412">Select hybrid response</text><text fill="#000000" font-family="Arial" font-size="13" lengthAdjust="spacing" textLength="129" x="378.5" y="634.1899">Record consequences</text></g><!--entity E--><g id="elem_E"><rect fill="#FCE4D6" height="79.7949" rx="2.5" ry="2.5" style="stroke:#333333;stroke-width:0.5;" width="179" x="417.5" y="204.0986"/><text fill="#000000" font-family="Arial" font-size="13" lengthAdjust="spacing" textLength="101" x="427.5" y="226.2925">Planned evidence</text><text fill="#000000" font-family="Arial" font-size="13" lengthAdjust="spacing" textLength="159" x="427.5" y="241.2412">performance and retry tests</text><text fill="#000000" font-family="Arial" font-size="13" lengthAdjust="spacing" textLength="92" x="427.5" y="256.1899">fault experiment</text><text fill="#000000" font-family="Arial" font-size="13" lengthAdjust="spacing" textLength="105" x="427.5" y="271.1387">usability validation</text></g><!--link D to O--><g id="link_D_O"><path d="M512.88,410.3286 C509.14,424.8086 506.4095,435.399 502.6695,449.889 " fill="none" id="D-to-O" style="stroke:#333333;stroke-width:1.2;"/><polygon fill="#333333" points="501.17,455.6986,507.2923,447.9839,502.4196,450.8573,499.5462,445.9846,501.17,455.6986" style="stroke:#333333;stroke-width:1.2;"/><text fill="#000000" font-family="Arial" font-size="13" lengthAdjust="spacing" textLength="113" x="509" y="438.2925">shapes comparison</text></g><!--link O to A--><g id="link_O_A"><path d="M475.55,536.2186 C469.71,551.0186 465.333,562.1077 459.783,576.1677 " fill="none" id="O-to-A" style="stroke:#333333;stroke-width:1.2;"/><polygon fill="#333333" points="457.58,581.7486,464.6051,574.8459,459.4158,577.0979,457.1639,571.9086,457.58,581.7486" style="stroke:#333333;stroke-width:1.2;"/><text fill="#000000" font-family="Arial" font-size="13" lengthAdjust="spacing" textLength="120" x="470" y="564.2925">decision recorded by</text></g><!--link A to S--><g id="link_A_S"><path d="M368.39,607.5986 C298.81,597.4686 207,570.2486 207,497.0986 C207,243.0986 207,243.0986 207,243.0986 C207,207.2586 217.3328,173.5018 227.8128,146.8718 " fill="none" id="A-to-S" style="stroke:#333333;stroke-width:1.2;"/><polygon fill="#333333" points="230.01,141.2886,222.992,148.1986,228.179,145.9413,230.4363,151.1283,230.01,141.2886" style="stroke:#333333;stroke-width:1.2;"/><text fill="#000000" font-family="Arial" font-size="13" lengthAdjust="spacing" textLength="63" x="208" y="375.2925">realised by</text></g><!--link A to I--><g id="link_A_I"><path d="M409.66,582.0586 C389.41,560.4386 368,529.8286 368,497.0986 C368,243.0986 368,243.0986 368,243.0986 C368,207.6386 376.128,173.8041 384.358,147.0141 " fill="none" id="A-to-I" style="stroke:#333333;stroke-width:1.2;"/><polygon fill="#333333" points="386.12,141.2786,379.6534,148.7072,384.6517,146.0582,387.3007,151.0565,386.12,141.2786" style="stroke:#333333;stroke-width:1.2;"/><text fill="#000000" font-family="Arial" font-size="13" lengthAdjust="spacing" textLength="63" x="369" y="375.2925">realised by</text></g><!--link A to N--><g id="link_A_N"><path d="M368.07,606.8886 C252.12,594.6286 46,563.4886 46,497.0986 C46,243.0986 46,243.0986 46,243.0986 C46,207.0186 57.6788,173.3551 69.5488,146.8351 " fill="none" id="A-to-N" style="stroke:#333333;stroke-width:1.2;"/><polygon fill="#333333" points="72,141.3586,64.6722,147.9392,69.9573,145.9224,71.9742,151.2075,72,141.3586" style="stroke:#333333;stroke-width:1.2;"/><text fill="#000000" font-family="Arial" font-size="13" lengthAdjust="spacing" textLength="63" x="47" y="375.2925">realised by</text></g><!--link A to C--><g id="link_A_C"><path d="M521.76,603.8586 C583.85,591.1686 661,562.2886 661,497.0986 C661,243.0986 661,243.0986 661,243.0986 C661,209.5886 657.23,196.2486 633,173.0986 C625.17,165.6186 619.48,170.3086 610,165.0986 C597.9,158.4486 590.4431,153.4695 579.7431,144.8995 " fill="none" id="A-to-C" style="stroke:#333333;stroke-width:1.2;"/><polygon fill="#333333" points="575.06,141.1486,579.5841,149.8969,578.9626,144.2743,584.5852,143.6528,575.06,141.1486" style="stroke:#333333;stroke-width:1.2;"/><text fill="#000000" font-family="Arial" font-size="13" lengthAdjust="spacing" textLength="63" x="662" y="375.2925">realised by</text></g><!--link A to P--><g id="link_A_P"><path d="M521.75,605.5986 C631.98,591.9286 822,559.3486 822,497.0986 C822,243.0986 822,243.0986 822,243.0986 C822,198.9286 790.0265,167.5103 755.0665,144.5703 " fill="none" id="A-to-P" style="stroke:#333333;stroke-width:1.2;"/><polygon fill="#333333" points="750.05,141.2786,755.3802,149.5605,754.2304,144.0217,759.7691,142.8719,750.05,141.2786" style="stroke:#333333;stroke-width:1.2;"/><text fill="#000000" font-family="Arial" font-size="13" lengthAdjust="spacing" textLength="63" x="823" y="375.2925">realised by</text></g><!--link S to E--><g id="link_S_E"><path d="M256.12,141.3286 C263.97,157.8786 275.8,177.1186 292,189.0986 C328.12,215.8186 370.1009,228.4166 411.5109,235.2866 " fill="none" id="S-to-E" style="stroke:#333333;stroke-width:1.2;"/><polygon fill="#333333" points="417.43,236.2686,409.206,230.8496,412.4974,235.4503,407.8967,238.7417,417.43,236.2686" style="stroke:#333333;stroke-width:1.2;"/><text fill="#000000" font-family="Arial" font-size="13" lengthAdjust="spacing" textLength="103" x="293" y="186.2925">assessed through</text></g><!--link I to E--><g id="link_I_E"><path d="M395.94,141.4486 C396.89,157.0386 400.35,175.3686 410,189.0986 C413.77,194.4586 413.782,195.3329 418.722,199.7829 " fill="none" id="I-to-E" style="stroke:#333333;stroke-width:1.2;"/><polygon fill="#333333" points="423.18,203.7986,419.1702,194.803,419.465,200.4521,413.8159,200.7469,423.18,203.7986" style="stroke:#333333;stroke-width:1.2;"/><text fill="#000000" font-family="Arial" font-size="13" lengthAdjust="spacing" textLength="103" x="411" y="186.2925">assessed through</text></g><!--link N to E--><g id="link_N_E"><path d="M110.83,141.2386 C124.81,158.1886 144.17,177.8486 166,189.0986 C208.69,211.1086 325.5798,226.1212 411.5198,234.7212 " fill="none" id="N-to-E" style="stroke:#333333;stroke-width:1.2;"/><polygon fill="#333333" points="417.49,235.3186,408.933,230.4424,412.5148,234.8208,408.1364,238.4026,417.49,235.3186" style="stroke:#333333;stroke-width:1.2;"/><text fill="#000000" font-family="Arial" font-size="13" lengthAdjust="spacing" textLength="103" x="167" y="186.2925">assessed through</text></g><!--link C to E--><g id="link_C_E"><path d="M532.18,141.2386 C527.53,160.0486 523.0301,178.244 518.0901,198.224 " fill="none" id="C-to-E" style="stroke:#333333;stroke-width:1.2;"/><polygon fill="#333333" points="516.65,204.0486,522.6932,196.2718,517.8501,199.1948,514.9271,194.3516,516.65,204.0486" style="stroke:#333333;stroke-width:1.2;"/><text fill="#000000" font-family="Arial" font-size="13" lengthAdjust="spacing" textLength="103" x="524" y="186.2925">assessed through</text></g><!--link P to E--><g id="link_P_E"><path d="M672.19,141.4786 C662.47,157.4686 649,176.1286 633,189.0986 C622.09,197.9386 614.874,202.8605 601.984,209.3805 " fill="none" id="P-to-E" style="stroke:#333333;stroke-width:1.2;"/><polygon fill="#333333" points="596.63,212.0886,606.4665,211.5957,601.0917,209.8318,602.8556,204.457,596.63,212.0886" style="stroke:#333333;stroke-width:1.2;"/><text fill="#000000" font-family="Arial" font-size="13" lengthAdjust="spacing" textLength="103" x="649" y="186.2925">assessed through</text></g><!--link E to D--><g id="link_E_D"><path d="M512.06,284.3286 C513.93,298.8086 515.282,309.258 517.152,323.748 " fill="none" id="E-to-D" style="stroke:#333333;stroke-width:1.2;stroke-dasharray:7.0,7.0;"/><polygon fill="#333333" points="517.92,329.6986,520.7352,320.2607,517.28,324.7398,512.801,321.2846,517.92,329.6986" style="stroke:#333333;stroke-width:1.2;"/><text fill="#000000" font-family="Arial" font-size="13" lengthAdjust="spacing" textLength="94" x="516" y="312.2925">feedback refines</text></g><rect fill="none" height="42.1973" id="_legend" rx="7.5" ry="7.5" style="stroke:#000000;stroke-width:1.0;" width="247" x="316.5" y="663.9448"/><text fill="#000000" font-family="Arial" font-size="14" lengthAdjust="spacing" textLength="236" x="321.5" y="682.0767">Solid arrows show forward trace links.</text><text fill="#000000" font-family="Arial" font-size="14" lengthAdjust="spacing" textLength="237" x="321.5" y="698.1753">Dotted arrow shows iterative learning.</text><!--SRC=[TLHBSzem4BxhLsp3DP24jEaqXyvGZATSGXhtw8km5gn1NgcI37Kx_UzTotGAcJ3ZWxMFRxzzljDKcLOXJ2Ot_8NO6GmtpaYARMF6iSO69uv_HTJH8Ap8Q48eelK8mPesQakWCEWjGQmzIYMYTH0jh6sCjW6bFLQzbGWxJKvwsG1Pza07q-c9q4lQzSBxsnEXmeriJSmjnKB_GhYx5wB7axHbDbVP45XvlKSVIifVnjCFuzkxQ_Ws6_vAKgqpkf8HmNdS8_LSIdBUxhL23vMb4BtK5Az01iXWbEVvT3u_3RDolHFZtq7HKLLxIxRbvnHcuVHz3r-xjTSg8QrWb6MBB_d7KwHPnWmV4gy23SkXJXxWCJWEWIMzO6MzIhpmHujKOKXuCnWjtcVvOYw4azLERXbkRclqdDA_3kmr7jXwj9Zcjzad-2tW97OHVLl5rgSOAPfUQwEZnW2IL4bhsvAINXy35cVUIuhePJLKhsWhfXMk8Ue6RHklI_8OVTVZz4wMsz4baEKha8trZHn0LhwlV-_XPDTm5YNP0t4VQ-sIxzCvVQnQhsDNqdVVXWZ_sPRKWt31ehTcu3u_SytG6NiCaKjjk0QWRCDDFsPk7UVMiv86U1BmE0pFui_Pk3tpNX0gm7vqk34yHkXJHlmuvjvN8MA8p2gDBk1FDj93y3R8LF8Ezj9ebKAcI0iUkpctzq683CRZppmzZn1gwRWtbMru6NJW5LebtOnr2YiT-jtpQLoOrBeJiwGkMCsBQ7GubIxVb3wzAPs_ANr-9IsITC5I6G9F0qlv0jXsMulbPTNJPTNyikhvich1j-ipx-qZR13LcbU3MMxuIWKX36wHkpAS8b5OhZb8x-qXS77j0RXt1ydBnWU06yYdRHSc8cDhFDebim0wfldOimrAJvgs4y700_nV]--></g></svg>