<?xml version="1.0" encoding="us-ascii" standalone="no"?><svg xmlns="http://www.w3.org/2000/svg" xmlns:xlink="http://www.w3.org/1999/xlink" contentStyleType="text/css" height="1215px" preserveAspectRatio="none" style="width:544px;height:1215px;background:#FFFFFF;" version="1.1" viewBox="0 0 544 1215" width="544px" zoomAndPan="magnify"><defs/><g><text fill="#000000" font-family="Arial" font-size="14" font-weight="bold" lengthAdjust="spacing" textLength="383" x="73.75" y="23.1318">FIG-04-06. Payment Instruction Lifecycle State Machine</text><g id="ScreeningPending"><rect fill="#F1F1F1" height="50" rx="12.5" ry="12.5" style="stroke:#181818;stroke-width:0.5;" width="140" x="239.5" y="380.0986"/><line style="stroke:#181818;stroke-width:0.5;" x1="239.5" x2="379.5" y1="406.1973" y2="406.1973"/><text fill="#000000" font-family="Arial" font-size="14" lengthAdjust="spacing" textLength="120" x="249.5" y="398.2305">Screening Pending</text></g><g id="PostingPending"><rect fill="#F1F1F1" height="50" rx="12.5" ry="12.5" style="stroke:#181818;stroke-width:0.5;" width="123" x="147" y="524.0986"/><line style="stroke:#181818;stroke-width:0.5;" x1="147" x2="270" y1="550.1973" y2="550.1973"/><text fill="#000000" font-family="Arial" font-size="14" lengthAdjust="spacing" textLength="103" x="157" y="542.2305">Posting Pending</text></g><g id="SentToScheme"><rect fill="#F1F1F1" height="50" rx="12.5" ry="12.5" style="stroke:#181818;stroke-width:0.5;" width="120" x="49.5" y="844.0986"/><line style="stroke:#181818;stroke-width:0.5;" x1="49.5" x2="169.5" y1="870.1973" y2="870.1973"/><text fill="#000000" font-family="Arial" font-size="14" lengthAdjust="spacing" textLength="100" x="59.5" y="862.2305">Sent to Scheme</text></g><ellipse cx="309.5" cy="53.0986" fill="#222222" rx="10" ry="10" style="stroke:#222222;stroke-width:1.0;"/><g id="Received"><rect fill="#F1F1F1" height="50" rx="12.5" ry="12.5" style="stroke:#181818;stroke-width:0.5;" width="79" x="270" y="124.0986"/><line style="stroke:#181818;stroke-width:0.5;" x1="270" x2="349" y1="150.1973" y2="150.1973"/><text fill="#000000" font-family="Arial" font-size="14" lengthAdjust="spacing" textLength="59" x="280" y="142.2305">Received</text></g><g id="Validated"><rect fill="#F1F1F1" height="50" rx="12.5" ry="12.5" style="stroke:#181818;stroke-width:0.5;" width="79" x="270" y="252.0986"/><line style="stroke:#181818;stroke-width:0.5;" x1="270" x2="349" y1="278.1973" y2="278.1973"/><text fill="#000000" font-family="Arial" font-size="14" lengthAdjust="spacing" textLength="59" x="280" y="270.2305">Validated</text></g><g id="Rejected"><rect fill="#F1F1F1" height="50" rx="12.5" ry="12.5" style="stroke:#181818;stroke-width:0.5;" width="76" x="372.5" y="604.0986"/><line style="stroke:#181818;stroke-width:0.5;" x1="372.5" x2="448.5" y1="630.1973" y2="630.1973"/><text fill="#000000" font-family="Arial" font-size="14" lengthAdjust="spacing" textLength="56" x="382.5" y="622.2305">Rejected</text></g><g id="Accepted"><rect fill="#F1F1F1" height="50" rx="12.5" ry="12.5" style="stroke:#181818;stroke-width:0.5;" width="79" x="7" y="684.0986"/><line style="stroke:#181818;stroke-width:0.5;" x1="7" x2="86" y1="710.1973" y2="710.1973"/><text fill="#000000" font-family="Arial" font-size="14" lengthAdjust="spacing" textLength="59" x="17" y="702.2305">Accepted</text></g><g id="Failed"><rect fill="#F1F1F1" height="50" rx="12.5" ry="12.5" style="stroke:#181818;stroke-width:0.5;" width="59" x="204" y="764.0986"/><line style="stroke:#181818;stroke-width:0.5;" x1="204" x2="263" y1="790.1973" y2="790.1973"/><text fill="#000000" font-family="Arial" font-size="14" lengthAdjust="spacing" textLength="39" x="214" y="782.2305">Failed</text></g><g id="Settled"><rect fill="#F1F1F1" height="50" rx="12.5" ry="12.5" style="stroke:#181818;stroke-width:0.5;" width="64" x="109.5" y="972.0986"/><line style="stroke:#181818;stroke-width:0.5;" x1="109.5" x2="173.5" y1="998.1973" y2="998.1973"/><text fill="#000000" font-family="Arial" font-size="14" lengthAdjust="spacing" textLength="44" x="119.5" y="990.2305">Settled</text></g><ellipse cx="233.5" cy="1094.0986" fill="none" rx="11" ry="11" style="stroke:#222222;stroke-width:1.0;"/><ellipse cx="233.5" cy="1094.0986" fill="#222222" rx="6" ry="6" style="stroke:#222222;stroke-width:1.0;"/><g id="elem_GMN25"><path d="M58.5,1166.0986 L58.5,1208.2959 A0,0 0 0 0 58.5,1208.2959 L408.5,1208.2959 A0,0 0 0 0 408.5,1208.2959 L408.5,1176.0986 L398.5,1166.0986 L237.5,1166.0986 L233.5,1105.1886 L229.5,1166.0986 L58.5,1166.0986 A0,0 0 0 0 58.5,1166.0986 " fill="#FFF8DC" style="stroke:#666666;stroke-width:0.5;"/><path d="M398.5,1166.0986 L398.5,1176.0986 L408.5,1176.0986 L398.5,1166.0986 " fill="#FFF8DC" style="stroke:#666666;stroke-width:0.5;"/><text fill="#000000" font-family="Arial" font-size="14" lengthAdjust="spacing" textLength="270" x="64.5" y="1184.2305">Transition labels use event [guard] / effect.</text><text fill="#000000" font-family="Arial" font-size="14" lengthAdjust="spacing" textLength="329" x="64.5" y="1200.3291">Repair, cancellation and resubmission are excluded.</text></g><!--link *start* to Received--><g id="link_*start*_Received"><path d="M309.5,63.1086 C309.5,76.9886 309.5,98.0686 309.5,117.9386 " fill="none" id="*start*-to-Received" style="stroke:#333333;stroke-width:1.2;"/><polygon fill="#333333" points="309.5,123.9386,313.5,114.9386,309.5,118.9386,305.5,114.9386,309.5,123.9386" style="stroke:#333333;stroke-width:1.2;"/></g><!--link Received to Validated--><g id="link_Received_Validated"><path d="M309.5,174.3886 C309.5,196.7086 309.5,223.5886 309.5,245.8786 " fill="none" id="Received-to-Validated" style="stroke:#333333;stroke-width:1.2;"/><polygon fill="#333333" points="309.5,251.8786,313.5,242.8786,309.5,246.8786,305.5,242.8786,309.5,251.8786" style="stroke:#333333;stroke-width:1.2;"/><text fill="#000000" font-family="Arial" font-size="14" lengthAdjust="spacing" textLength="91" x="310.5" y="218.2305">checksPassed</text></g><!--link Validated to ScreeningPending--><g id="link_Validated_ScreeningPending"><path d="M309.5,302.3886 C309.5,324.7086 309.5,351.5886 309.5,373.8786 " fill="none" id="Validated-to-ScreeningPending" style="stroke:#333333;stroke-width:1.2;"/><polygon fill="#333333" points="309.5,379.8786,313.5,370.8786,309.5,374.8786,305.5,370.8786,309.5,379.8786" style="stroke:#333333;stroke-width:1.2;"/><text fill="#000000" font-family="Arial" font-size="14" lengthAdjust="spacing" textLength="112" x="310.5" y="346.2305">requestScreening</text></g><!--link ScreeningPending to Rejected--><g id="link_ScreeningPending_Rejected"><path d="M344.9,430.3286 C354.82,438.6986 364.73,448.8386 371.5,460.0986 C399.03,505.9086 406.7149,563.523 409.0949,597.843 " fill="none" id="ScreeningPending-to-Rejected" style="stroke:#333333;stroke-width:1.2;"/><polygon fill="#333333" points="409.51,603.8286,412.8778,594.5735,409.1641,598.8406,404.897,595.1269,409.51,603.8286" style="stroke:#333333;stroke-width:1.2;"/><text fill="#000000" font-family="Arial" font-size="14" lengthAdjust="spacing" textLength="148" x="388.5" y="474.2305">screeningResult [failed]</text><text fill="#000000" font-family="Arial" font-size="14" lengthAdjust="spacing" textLength="108" x="408.5" y="490.3291">/ recordRejection</text></g><!--link ScreeningPending to PostingPending--><g id="link_ScreeningPending_PostingPending"><path d="M239.46,429.0486 C225.96,436.7586 213.53,446.8886 205.5,460.0986 C193.91,479.1686 195.1572,499.2654 199.5372,518.0454 " fill="none" id="ScreeningPending-to-PostingPending" style="stroke:#333333;stroke-width:1.2;"/><polygon fill="#333333" points="200.9,523.8886,202.7513,514.2153,199.7643,519.0193,194.9604,516.0324,200.9,523.8886" style="stroke:#333333;stroke-width:1.2;"/><text fill="#000000" font-family="Arial" font-size="14" lengthAdjust="spacing" textLength="160" x="206.5" y="474.2305">screeningResult [passed]</text><text fill="#000000" font-family="Arial" font-size="14" lengthAdjust="spacing" textLength="103" x="235" y="490.3291">/ requestPosting</text></g><!--link PostingPending to Accepted--><g id="link_PostingPending_Accepted"><path d="M146.64,551.4286 C107.1,555.8986 58.53,568.8886 32.5,604.0986 C15.5,627.0986 22.292,655.4787 31.882,678.2587 " fill="none" id="PostingPending-to-Accepted" style="stroke:#333333;stroke-width:1.2;"/><polygon fill="#333333" points="34.21,683.7886,34.4046,673.9417,32.27,679.1803,27.0313,677.0457,34.21,683.7886" style="stroke:#333333;stroke-width:1.2;"/><text fill="#000000" font-family="Arial" font-size="14" lengthAdjust="spacing" textLength="156" x="33.5" y="626.2305">postingResult [accepted]</text><text fill="#000000" font-family="Arial" font-size="14" lengthAdjust="spacing" textLength="108" x="57.5" y="642.3291">/ recordAccepted</text></g><!--link PostingPending to Failed--><g id="link_PostingPending_Failed"><path d="M211.03,574.2286 C215.83,619.8486 225.5328,712.2715 230.3328,757.9415 " fill="none" id="PostingPending-to-Failed" style="stroke:#333333;stroke-width:1.2;"/><polygon fill="#333333" points="230.96,763.9086,233.9974,754.5398,230.4374,758.936,226.0412,755.376,230.96,763.9086" style="stroke:#333333;stroke-width:1.2;"/><text fill="#000000" font-family="Arial" font-size="14" lengthAdjust="spacing" textLength="132" x="220.5" y="626.2305">postingResult [failed]</text><text fill="#000000" font-family="Arial" font-size="14" lengthAdjust="spacing" textLength="93" x="240" y="642.3291">/ recordFailure</text></g><!--link Accepted to SentToScheme--><g id="link_Accepted_SentToScheme"><path d="M56.21,734.4386 C68.08,764.2186 85.8378,808.7453 97.6678,838.4153 " fill="none" id="Accepted-to-SentToScheme" style="stroke:#333333;stroke-width:1.2;"/><polygon fill="#333333" points="99.89,843.9886,100.2723,834.1472,98.0382,839.3442,92.8412,837.1101,99.89,843.9886" style="stroke:#333333;stroke-width:1.2;"/><text fill="#000000" font-family="Arial" font-size="14" lengthAdjust="spacing" textLength="27" x="88.5" y="794.2305">sent</text></g><!--link SentToScheme to Settled--><g id="link_SentToScheme_Settled"><path d="M115.67,894.3886 C121.34,916.7086 128.2133,943.7732 133.8733,966.0632 " fill="none" id="SentToScheme-to-Settled" style="stroke:#333333;stroke-width:1.2;"/><polygon fill="#333333" points="135.35,971.8786,137.0119,962.171,134.1194,967.0324,129.258,964.1399,135.35,971.8786" style="stroke:#333333;stroke-width:1.2;"/><text fill="#000000" font-family="Arial" font-size="14" lengthAdjust="spacing" textLength="42" x="128.5" y="938.2305">settled</text></g><!--link Rejected to *end*--><g id="link_Rejected_*end*"><path d="M396.99,654.1586 C381.29,684.4286 357.5,738.4786 357.5,788.0986 C357.5,788.0986 357.5,788.0986 357.5,998.0986 C357.5,1055.0486 279.8558,1080.9368 249.8658,1088.9668 " fill="none" id="Rejected-to-*end*" style="stroke:#333333;stroke-width:1.2;"/><polygon fill="#333333" points="244.07,1090.5186,253.7983,1092.0547,248.8999,1089.2254,251.7292,1084.3269,244.07,1090.5186" style="stroke:#333333;stroke-width:1.2;"/></g><!--link Settled to *end*--><g id="link_Settled_*end*"><path d="M165.19,1022.5586 C185.42,1043.4586 209.0769,1067.8775 222.0769,1081.3075 " fill="none" id="Settled-to-*end*" style="stroke:#333333;stroke-width:1.2;"/><polygon fill="#333333" points="226.25,1085.6186,222.8645,1076.3699,222.7724,1082.0261,217.1163,1081.934,226.25,1085.6186" style="stroke:#333333;stroke-width:1.2;"/></g><!--link Failed to *end*--><g id="link_Failed_*end*"><path d="M233.5,814.1286 C233.5,876.2786 233.5,1034.4286 233.5,1076.9286 " fill="none" id="Failed-to-*end*" style="stroke:#333333;stroke-width:1.2;"/><polygon fill="#333333" points="233.5,1082.9286,237.5,1073.9286,233.5,1077.9286,229.5,1073.9286,233.5,1082.9286" style="stroke:#333333;stroke-width:1.2;"/></g><!--SRC=[RLF1Rjim3BtpAxWUYzdfOTXXXm6xj2Ym0K5Ix9Bbe4XCgrQMFPCgchyV9TbPcmG84F7nyV69eZ_vQ4DoX6sxq1_B8H0lXc2Yf2uqyaGTjOCU0SHB8BozlsjklZGtNrjScaD7KV0-iep9YkyZ_lHxiWUhnBKO8Vnbx9EF1C0bl5hRaIZw-8XBYax_hz0m7j49dDdBdkMKEs4dp7Ks8hqgPSTLLA67lW80c-ijDirtN94b_qeEvaD1VvlWdGev_8PQO5zuQPYLzJ-HQQS-bJtItqGinmp06QcsVIPRzNdEhuXJ4DpiZG_ajd_YGjLiFxfArd5UrleuWKkAGp4_AHP_Kmt0IN7M-s4j3TNRKBEpZfaoxxpDv4j2j-KYvp9d5yp4DEgh75kNwRvxi7mh3U43LaaYjGdN4y1njZclxmmpPuudNtC8iTULsVKYVGU83wE9xCls1hEZm9YOa5xpHcqUandT5XT8UrriQPM_ei7uyJDQ4os5O4gbYKxlncdNUUO2ZAhnLhujru8E2NFNVm00]--></g></svg>