<?xml version="1.0" encoding="us-ascii" standalone="no"?><svg xmlns="http://www.w3.org/2000/svg" xmlns:xlink="http://www.w3.org/1999/xlink" contentStyleType="text/css" height="545px" preserveAspectRatio="none" style="width:885px;height:545px;background:#FFFFFF;" version="1.1" viewBox="0 0 885 545" width="885px" zoomAndPan="magnify"><defs/><g><text fill="#000000" font-family="Arial" font-size="14" font-weight="bold" lengthAdjust="spacing" textLength="373" x="249" y="23.1318">FIG-04-02. Online Store Order Concept Class Diagram</text><!--class Customer--><g id="elem_Customer"><rect codeLine="8" fill="#F1F1F1" height="78.1973" id="Customer" rx="2.5" ry="2.5" style="stroke:#181818;stroke-width:0.5;" width="97" x="7" y="216.0986"/><ellipse cx="23.7" cy="231.0986" fill="#ADD1B2" rx="10" ry="10" style="stroke:#181818;stroke-width:1.0;"/><path d="M25.1063,227.1611 Q25.2313,226.9893 25.3875,226.9111 Q25.5438,226.8174 25.7156,226.8174 Q26.0281,226.8174 26.2156,227.0361 Q26.4188,227.2393 26.4188,227.7393 L26.4188,228.9268 Q26.4188,229.4424 26.2156,229.6611 Q26.0281,229.8643 25.7156,229.8643 Q25.4344,229.8643 25.2625,229.708 Q25.0906,229.5518 25.0125,229.1299 Q24.9656,228.833 24.825,228.6768 Q24.5438,228.3643 24.0281,228.1924 Q23.5281,228.0049 23.0281,228.0049 Q22.4031,228.0049 21.8719,228.2861 Q21.3406,228.5518 20.9344,229.1768 Q20.5438,229.7861 20.5438,230.6299 L20.5438,231.5361 Q20.5438,232.5518 21.2781,233.2236 Q22.0125,233.8955 23.3094,233.8955 Q24.0906,233.8955 24.6375,233.6924 Q24.95,233.5674 25.3094,233.208 Q25.5281,232.9893 25.6375,232.9268 Q25.7625,232.8486 25.9188,232.8486 Q26.2,232.8486 26.4188,233.0674 Q26.6375,233.2861 26.6375,233.5674 Q26.6375,233.8486 26.3406,234.1768 Q25.9188,234.6611 25.2625,234.9268 Q24.3875,235.3018 23.325,235.3018 Q22.075,235.3018 21.075,234.7861 Q20.2781,234.3799 19.7,233.5049 Q19.1375,232.6143 19.1375,231.5674 L19.1375,230.6143 Q19.1375,229.5205 19.6375,228.583 Q20.1531,227.6299 21.0594,227.1143 Q21.9656,226.5986 22.9656,226.5986 Q23.575,226.5986 24.1063,226.7393 Q24.6375,226.8799 25.1063,227.1611 Z " fill="#000000"/><text fill="#000000" font-family="Arial" font-size="14" lengthAdjust="spacing" textLength="61" x="37.3" y="236.1812">Customer</text><line style="stroke:#181818;stroke-width:0.5;" x1="8" x2="103" y1="246.0986" y2="246.0986"/><text fill="#000000" font-family="Arial" font-size="14" lengthAdjust="spacing" textLength="69" x="13" y="263.2305">customerId</text><text fill="#000000" font-family="Arial" font-size="14" lengthAdjust="spacing" textLength="85" x="13" y="279.3291">emailAddress</text><line style="stroke:#181818;stroke-width:0.5;" x1="8" x2="103" y1="286.2959" y2="286.2959"/></g><!--class Basket--><g id="elem_Basket"><rect codeLine="13" fill="#F1F1F1" height="62.0986" id="Basket" rx="2.5" ry="2.5" style="stroke:#181818;stroke-width:0.5;" width="73" x="212.5" y="166.0986"/><ellipse cx="226.5" cy="181.0986" fill="#ADD1B2" rx="10" ry="10" style="stroke:#181818;stroke-width:1.0;"/><path d="M227.9063,177.1611 Q228.0313,176.9893 228.1875,176.9111 Q228.3438,176.8174 228.5156,176.8174 Q228.8281,176.8174 229.0156,177.0361 Q229.2188,177.2393 229.2188,177.7393 L229.2188,178.9268 Q229.2188,179.4424 229.0156,179.6611 Q228.8281,179.8643 228.5156,179.8643 Q228.2344,179.8643 228.0625,179.708 Q227.8906,179.5518 227.8125,179.1299 Q227.7656,178.833 227.625,178.6768 Q227.3438,178.3643 226.8281,178.1924 Q226.3281,178.0049 225.8281,178.0049 Q225.2031,178.0049 224.6719,178.2861 Q224.1406,178.5518 223.7344,179.1768 Q223.3438,179.7861 223.3438,180.6299 L223.3438,181.5361 Q223.3438,182.5518 224.0781,183.2236 Q224.8125,183.8955 226.1094,183.8955 Q226.8906,183.8955 227.4375,183.6924 Q227.75,183.5674 228.1094,183.208 Q228.3281,182.9893 228.4375,182.9268 Q228.5625,182.8486 228.7188,182.8486 Q229,182.8486 229.2188,183.0674 Q229.4375,183.2861 229.4375,183.5674 Q229.4375,183.8486 229.1406,184.1768 Q228.7188,184.6611 228.0625,184.9268 Q227.1875,185.3018 226.125,185.3018 Q224.875,185.3018 223.875,184.7861 Q223.0781,184.3799 222.5,183.5049 Q221.9375,182.6143 221.9375,181.5674 L221.9375,180.6143 Q221.9375,179.5205 222.4375,178.583 Q222.9531,177.6299 223.8594,177.1143 Q224.7656,176.5986 225.7656,176.5986 Q226.375,176.5986 226.9063,176.7393 Q227.4375,176.8799 227.9063,177.1611 Z " fill="#000000"/><text fill="#000000" font-family="Arial" font-size="14" lengthAdjust="spacing" textLength="43" x="239.5" y="186.1812">Basket</text><line style="stroke:#181818;stroke-width:0.5;" x1="213.5" x2="284.5" y1="196.0986" y2="196.0986"/><text fill="#000000" font-family="Arial" font-size="14" lengthAdjust="spacing" textLength="53" x="218.5" y="213.2305">basketId</text><line style="stroke:#181818;stroke-width:0.5;" x1="213.5" x2="284.5" y1="220.1973" y2="220.1973"/></g><!--class BasketLine--><g id="elem_BasketLine"><rect codeLine="17" fill="#F1F1F1" height="62.0986" id="BasketLine" rx="2.5" ry="2.5" style="stroke:#181818;stroke-width:0.5;" width="104" x="490" y="44.0986"/><ellipse cx="504" cy="59.0986" fill="#ADD1B2" rx="10" ry="10" style="stroke:#181818;stroke-width:1.0;"/><path d="M505.4063,55.1611 Q505.5313,54.9893 505.6875,54.9111 Q505.8438,54.8174 506.0156,54.8174 Q506.3281,54.8174 506.5156,55.0361 Q506.7188,55.2393 506.7188,55.7393 L506.7188,56.9268 Q506.7188,57.4424 506.5156,57.6611 Q506.3281,57.8643 506.0156,57.8643 Q505.7344,57.8643 505.5625,57.708 Q505.3906,57.5518 505.3125,57.1299 Q505.2656,56.833 505.125,56.6768 Q504.8438,56.3643 504.3281,56.1924 Q503.8281,56.0049 503.3281,56.0049 Q502.7031,56.0049 502.1719,56.2861 Q501.6406,56.5518 501.2344,57.1768 Q500.8438,57.7861 500.8438,58.6299 L500.8438,59.5361 Q500.8438,60.5518 501.5781,61.2236 Q502.3125,61.8955 503.6094,61.8955 Q504.3906,61.8955 504.9375,61.6924 Q505.25,61.5674 505.6094,61.208 Q505.8281,60.9893 505.9375,60.9268 Q506.0625,60.8486 506.2188,60.8486 Q506.5,60.8486 506.7188,61.0674 Q506.9375,61.2861 506.9375,61.5674 Q506.9375,61.8486 506.6406,62.1768 Q506.2188,62.6611 505.5625,62.9268 Q504.6875,63.3018 503.625,63.3018 Q502.375,63.3018 501.375,62.7861 Q500.5781,62.3799 500,61.5049 Q499.4375,60.6143 499.4375,59.5674 L499.4375,58.6143 Q499.4375,57.5205 499.9375,56.583 Q500.4531,55.6299 501.3594,55.1143 Q502.2656,54.5986 503.2656,54.5986 Q503.875,54.5986 504.4063,54.7393 Q504.9375,54.8799 505.4063,55.1611 Z " fill="#000000"/><text fill="#000000" font-family="Arial" font-size="14" lengthAdjust="spacing" textLength="74" x="517" y="64.1812">Basket Line</text><line style="stroke:#181818;stroke-width:0.5;" x1="491" x2="593" y1="74.0986" y2="74.0986"/><text fill="#000000" font-family="Arial" font-size="14" lengthAdjust="spacing" textLength="50" x="496" y="91.2305">quantity</text><line style="stroke:#181818;stroke-width:0.5;" x1="491" x2="593" y1="98.1973" y2="98.1973"/></g><!--class Product--><g id="elem_Product"><rect codeLine="21" fill="#F1F1F1" height="94.2959" id="Product" rx="2.5" ry="2.5" style="stroke:#181818;stroke-width:0.5;" width="79" x="799" y="184.0986"/><ellipse cx="813" cy="199.0986" fill="#ADD1B2" rx="10" ry="10" style="stroke:#181818;stroke-width:1.0;"/><path d="M814.4063,195.1611 Q814.5313,194.9893 814.6875,194.9111 Q814.8438,194.8174 815.0156,194.8174 Q815.3281,194.8174 815.5156,195.0361 Q815.7188,195.2393 815.7188,195.7393 L815.7188,196.9268 Q815.7188,197.4424 815.5156,197.6611 Q815.3281,197.8643 815.0156,197.8643 Q814.7344,197.8643 814.5625,197.708 Q814.3906,197.5518 814.3125,197.1299 Q814.2656,196.833 814.125,196.6768 Q813.8438,196.3643 813.3281,196.1924 Q812.8281,196.0049 812.3281,196.0049 Q811.7031,196.0049 811.1719,196.2861 Q810.6406,196.5518 810.2344,197.1768 Q809.8438,197.7861 809.8438,198.6299 L809.8438,199.5361 Q809.8438,200.5518 810.5781,201.2236 Q811.3125,201.8955 812.6094,201.8955 Q813.3906,201.8955 813.9375,201.6924 Q814.25,201.5674 814.6094,201.208 Q814.8281,200.9893 814.9375,200.9268 Q815.0625,200.8486 815.2188,200.8486 Q815.5,200.8486 815.7188,201.0674 Q815.9375,201.2861 815.9375,201.5674 Q815.9375,201.8486 815.6406,202.1768 Q815.2188,202.6611 814.5625,202.9268 Q813.6875,203.3018 812.625,203.3018 Q811.375,203.3018 810.375,202.7861 Q809.5781,202.3799 809,201.5049 Q808.4375,200.6143 808.4375,199.5674 L808.4375,198.6143 Q808.4375,197.5205 808.9375,196.583 Q809.4531,195.6299 810.3594,195.1143 Q811.2656,194.5986 812.2656,194.5986 Q812.875,194.5986 813.4063,194.7393 Q813.9375,194.8799 814.4063,195.1611 Z " fill="#000000"/><text fill="#000000" font-family="Arial" font-size="14" lengthAdjust="spacing" textLength="49" x="826" y="204.1812">Product</text><line style="stroke:#181818;stroke-width:0.5;" x1="800" x2="877" y1="214.0986" y2="214.0986"/><text fill="#000000" font-family="Arial" font-size="14" lengthAdjust="spacing" textLength="59" x="805" y="231.2305">productId</text><text fill="#000000" font-family="Arial" font-size="14" lengthAdjust="spacing" textLength="35" x="805" y="247.3291">name</text><text fill="#000000" font-family="Arial" font-size="14" lengthAdjust="spacing" textLength="31" x="805" y="263.4277">price</text><line style="stroke:#181818;stroke-width:0.5;" x1="800" x2="877" y1="270.3945" y2="270.3945"/></g><!--class Order--><g id="elem_Order"><rect codeLine="27" fill="#F1F1F1" height="94.2959" id="Order" rx="2.5" ry="2.5" style="stroke:#181818;stroke-width:0.5;" width="84" x="207" y="264.0986"/><ellipse cx="228.65" cy="279.0986" fill="#ADD1B2" rx="10" ry="10" style="stroke:#181818;stroke-width:1.0;"/><path d="M230.0563,275.1611 Q230.1813,274.9893 230.3375,274.9111 Q230.4938,274.8174 230.6656,274.8174 Q230.9781,274.8174 231.1656,275.0361 Q231.3688,275.2393 231.3688,275.7393 L231.3688,276.9268 Q231.3688,277.4424 231.1656,277.6611 Q230.9781,277.8643 230.6656,277.8643 Q230.3844,277.8643 230.2125,277.708 Q230.0406,277.5518 229.9625,277.1299 Q229.9156,276.833 229.775,276.6768 Q229.4938,276.3643 228.9781,276.1924 Q228.4781,276.0049 227.9781,276.0049 Q227.3531,276.0049 226.8219,276.2861 Q226.2906,276.5518 225.8844,277.1768 Q225.4938,277.7861 225.4938,278.6299 L225.4938,279.5361 Q225.4938,280.5518 226.2281,281.2236 Q226.9625,281.8955 228.2594,281.8955 Q229.0406,281.8955 229.5875,281.6924 Q229.9,281.5674 230.2594,281.208 Q230.4781,280.9893 230.5875,280.9268 Q230.7125,280.8486 230.8688,280.8486 Q231.15,280.8486 231.3688,281.0674 Q231.5875,281.2861 231.5875,281.5674 Q231.5875,281.8486 231.2906,282.1768 Q230.8688,282.6611 230.2125,282.9268 Q229.3375,283.3018 228.275,283.3018 Q227.025,283.3018 226.025,282.7861 Q225.2281,282.3799 224.65,281.5049 Q224.0875,280.6143 224.0875,279.5674 L224.0875,278.6143 Q224.0875,277.5205 224.5875,276.583 Q225.1031,275.6299 226.0094,275.1143 Q226.9156,274.5986 227.9156,274.5986 Q228.525,274.5986 229.0563,274.7393 Q229.5875,274.8799 230.0563,275.1611 Z " fill="#000000"/><text fill="#000000" font-family="Arial" font-size="14" lengthAdjust="spacing" textLength="37" x="243.35" y="284.1812">Order</text><line style="stroke:#181818;stroke-width:0.5;" x1="208" x2="290" y1="294.0986" y2="294.0986"/><text fill="#000000" font-family="Arial" font-size="14" lengthAdjust="spacing" textLength="45" x="213" y="311.2305">orderId</text><text fill="#000000" font-family="Arial" font-size="14" lengthAdjust="spacing" textLength="38" x="213" y="327.3291">status</text><text fill="#000000" font-family="Arial" font-size="14" lengthAdjust="spacing" textLength="72" x="213" y="343.4277">placedDate</text><line style="stroke:#181818;stroke-width:0.5;" x1="208" x2="290" y1="350.3945" y2="350.3945"/></g><!--class OrderLine--><g id="elem_OrderLine"><rect codeLine="33" fill="#F1F1F1" height="78.1973" id="OrderLine" rx="2.5" ry="2.5" style="stroke:#181818;stroke-width:0.5;" width="98" x="493" y="347.0986"/><ellipse cx="507" cy="362.0986" fill="#ADD1B2" rx="10" ry="10" style="stroke:#181818;stroke-width:1.0;"/><path d="M508.4063,358.1611 Q508.5313,357.9893 508.6875,357.9111 Q508.8438,357.8174 509.0156,357.8174 Q509.3281,357.8174 509.5156,358.0361 Q509.7188,358.2393 509.7188,358.7393 L509.7188,359.9268 Q509.7188,360.4424 509.5156,360.6611 Q509.3281,360.8643 509.0156,360.8643 Q508.7344,360.8643 508.5625,360.708 Q508.3906,360.5518 508.3125,360.1299 Q508.2656,359.833 508.125,359.6768 Q507.8438,359.3643 507.3281,359.1924 Q506.8281,359.0049 506.3281,359.0049 Q505.7031,359.0049 505.1719,359.2861 Q504.6406,359.5518 504.2344,360.1768 Q503.8438,360.7861 503.8438,361.6299 L503.8438,362.5361 Q503.8438,363.5518 504.5781,364.2236 Q505.3125,364.8955 506.6094,364.8955 Q507.3906,364.8955 507.9375,364.6924 Q508.25,364.5674 508.6094,364.208 Q508.8281,363.9893 508.9375,363.9268 Q509.0625,363.8486 509.2188,363.8486 Q509.5,363.8486 509.7188,364.0674 Q509.9375,364.2861 509.9375,364.5674 Q509.9375,364.8486 509.6406,365.1768 Q509.2188,365.6611 508.5625,365.9268 Q507.6875,366.3018 506.625,366.3018 Q505.375,366.3018 504.375,365.7861 Q503.5781,365.3799 503,364.5049 Q502.4375,363.6143 502.4375,362.5674 L502.4375,361.6143 Q502.4375,360.5205 502.9375,359.583 Q503.4531,358.6299 504.3594,358.1143 Q505.2656,357.5986 506.2656,357.5986 Q506.875,357.5986 507.4063,357.7393 Q507.9375,357.8799 508.4063,358.1611 Z " fill="#000000"/><text fill="#000000" font-family="Arial" font-size="14" lengthAdjust="spacing" textLength="68" x="520" y="367.1812">Order Line</text><line style="stroke:#181818;stroke-width:0.5;" x1="494" x2="590" y1="377.0986" y2="377.0986"/><text fill="#000000" font-family="Arial" font-size="14" lengthAdjust="spacing" textLength="50" x="499" y="394.2305">quantity</text><text fill="#000000" font-family="Arial" font-size="14" lengthAdjust="spacing" textLength="54" x="499" y="410.3291">lineTotal</text><line style="stroke:#181818;stroke-width:0.5;" x1="494" x2="590" y1="417.2959" y2="417.2959"/></g><!--class Payment--><g id="elem_Payment"><rect codeLine="38" fill="#F1F1F1" height="78.1973" id="Payment" rx="2.5" ry="2.5" style="stroke:#181818;stroke-width:0.5;" width="85" x="499.5" y="460.0986"/><ellipse cx="513.5" cy="475.0986" fill="#ADD1B2" rx="10" ry="10" style="stroke:#181818;stroke-width:1.0;"/><path d="M514.9063,471.1611 Q515.0313,470.9893 515.1875,470.9111 Q515.3438,470.8174 515.5156,470.8174 Q515.8281,470.8174 516.0156,471.0361 Q516.2188,471.2393 516.2188,471.7393 L516.2188,472.9268 Q516.2188,473.4424 516.0156,473.6611 Q515.8281,473.8643 515.5156,473.8643 Q515.2344,473.8643 515.0625,473.708 Q514.8906,473.5518 514.8125,473.1299 Q514.7656,472.833 514.625,472.6768 Q514.3438,472.3643 513.8281,472.1924 Q513.3281,472.0049 512.8281,472.0049 Q512.2031,472.0049 511.6719,472.2861 Q511.1406,472.5518 510.7344,473.1768 Q510.3438,473.7861 510.3438,474.6299 L510.3438,475.5361 Q510.3438,476.5518 511.0781,477.2236 Q511.8125,477.8955 513.1094,477.8955 Q513.8906,477.8955 514.4375,477.6924 Q514.75,477.5674 515.1094,477.208 Q515.3281,476.9893 515.4375,476.9268 Q515.5625,476.8486 515.7188,476.8486 Q516,476.8486 516.2188,477.0674 Q516.4375,477.2861 516.4375,477.5674 Q516.4375,477.8486 516.1406,478.1768 Q515.7188,478.6611 515.0625,478.9268 Q514.1875,479.3018 513.125,479.3018 Q511.875,479.3018 510.875,478.7861 Q510.0781,478.3799 509.5,477.5049 Q508.9375,476.6143 508.9375,475.5674 L508.9375,474.6143 Q508.9375,473.5205 509.4375,472.583 Q509.9531,471.6299 510.8594,471.1143 Q511.7656,470.5986 512.7656,470.5986 Q513.375,470.5986 513.9063,470.7393 Q514.4375,470.8799 514.9063,471.1611 Z " fill="#000000"/><text fill="#000000" font-family="Arial" font-size="14" lengthAdjust="spacing" textLength="55" x="526.5" y="480.1812">Payment</text><line style="stroke:#181818;stroke-width:0.5;" x1="500.5" x2="583.5" y1="490.0986" y2="490.0986"/><text fill="#000000" font-family="Arial" font-size="14" lengthAdjust="spacing" textLength="65" x="505.5" y="507.2305">paymentId</text><text fill="#000000" font-family="Arial" font-size="14" lengthAdjust="spacing" textLength="38" x="505.5" y="523.3291">status</text><line style="stroke:#181818;stroke-width:0.5;" x1="500.5" x2="583.5" y1="530.2959" y2="530.2959"/></g><!--class Shipment--><g id="elem_Shipment"><rect codeLine="43" fill="#F1F1F1" height="78.1973" id="Shipment" rx="2.5" ry="2.5" style="stroke:#181818;stroke-width:0.5;" width="128" x="478" y="141.0986"/><ellipse cx="509.55" cy="156.0986" fill="#ADD1B2" rx="10" ry="10" style="stroke:#181818;stroke-width:1.0;"/><path d="M510.9563,152.1611 Q511.0813,151.9893 511.2375,151.9111 Q511.3938,151.8174 511.5656,151.8174 Q511.8781,151.8174 512.0656,152.0361 Q512.2688,152.2393 512.2688,152.7393 L512.2688,153.9268 Q512.2688,154.4424 512.0656,154.6611 Q511.8781,154.8643 511.5656,154.8643 Q511.2844,154.8643 511.1125,154.708 Q510.9406,154.5518 510.8625,154.1299 Q510.8156,153.833 510.675,153.6768 Q510.3938,153.3643 509.8781,153.1924 Q509.3781,153.0049 508.8781,153.0049 Q508.2531,153.0049 507.7219,153.2861 Q507.1906,153.5518 506.7844,154.1768 Q506.3938,154.7861 506.3938,155.6299 L506.3938,156.5361 Q506.3938,157.5518 507.1281,158.2236 Q507.8625,158.8955 509.1594,158.8955 Q509.9406,158.8955 510.4875,158.6924 Q510.8,158.5674 511.1594,158.208 Q511.3781,157.9893 511.4875,157.9268 Q511.6125,157.8486 511.7688,157.8486 Q512.05,157.8486 512.2688,158.0674 Q512.4875,158.2861 512.4875,158.5674 Q512.4875,158.8486 512.1906,159.1768 Q511.7688,159.6611 511.1125,159.9268 Q510.2375,160.3018 509.175,160.3018 Q507.925,160.3018 506.925,159.7861 Q506.1281,159.3799 505.55,158.5049 Q504.9875,157.6143 504.9875,156.5674 L504.9875,155.6143 Q504.9875,154.5205 505.4875,153.583 Q506.0031,152.6299 506.9094,152.1143 Q507.8156,151.5986 508.8156,151.5986 Q509.425,151.5986 509.9563,151.7393 Q510.4875,151.8799 510.9563,152.1611 Z " fill="#000000"/><text fill="#000000" font-family="Arial" font-size="14" lengthAdjust="spacing" textLength="59" x="526.45" y="161.1812">Shipment</text><line style="stroke:#181818;stroke-width:0.5;" x1="479" x2="605" y1="171.0986" y2="171.0986"/><text fill="#000000" font-family="Arial" font-size="14" lengthAdjust="spacing" textLength="68" x="484" y="188.2305">shipmentId</text><text fill="#000000" font-family="Arial" font-size="14" lengthAdjust="spacing" textLength="116" x="484" y="204.3291">trackingReference</text><line style="stroke:#181818;stroke-width:0.5;" x1="479" x2="605" y1="211.2959" y2="211.2959"/></g><g id="elem_GMN18"><path d="M416,254.0986 L416,312.3945 A0,0 0 0 0 416,312.3945 L668,312.3945 A0,0 0 0 0 668,312.3945 L668,264.0986 L658,254.0986 L546,254.0986 L542,219.2186 L538,254.0986 L416,254.0986 A0,0 0 0 0 416,254.0986 " fill="#FFF8DC" style="stroke:#666666;stroke-width:0.5;"/><path d="M658,254.0986 L658,264.0986 L668,264.0986 L658,254.0986 " fill="#FFF8DC" style="stroke:#666666;stroke-width:0.5;"/><text fill="#000000" font-family="Arial" font-size="14" lengthAdjust="spacing" textLength="181" x="422" y="272.2305">Analysis-level concepts only.</text><text fill="#000000" font-family="Arial" font-size="14" lengthAdjust="spacing" textLength="197" x="422" y="288.3291">This is not a database schema.</text><text fill="#000000" font-family="Arial" font-size="14" lengthAdjust="spacing" textLength="231" x="422" y="304.4277">Shared aggregation is avoided here.</text></g><!--link Customer to Basket--><g id="link_Customer_Basket"><path codeLine="48" d="M104.33,240.6086 C137.79,230.4786 181.76,217.1586 212.2,207.9386 " fill="none" id="Customer-Basket" style="stroke:#333333;stroke-width:1.2;"/><text fill="#000000" font-family="Arial" font-size="14" lengthAdjust="spacing" textLength="32" x="139.5" y="216.2305">owns</text><text fill="#000000" font-family="Arial" font-size="14" lengthAdjust="spacing" textLength="8" x="112.0894" y="252.78">1</text><text fill="#000000" font-family="Arial" font-size="14" lengthAdjust="spacing" textLength="24" x="180.4225" y="224.0731">0..1</text></g><!--link Customer to Order--><g id="link_Customer_Order"><path codeLine="49" d="M104.33,269.0886 C135.9,278.3186 176.84,290.2886 206.94,299.0886 " fill="none" id="Customer-Order" style="stroke:#333333;stroke-width:1.2;"/><text fill="#000000" font-family="Arial" font-size="14" lengthAdjust="spacing" textLength="41" x="135" y="274.2305">places</text><text fill="#000000" font-family="Arial" font-size="14" lengthAdjust="spacing" textLength="8" x="112.0894" y="285.443">1</text><text fill="#000000" font-family="Arial" font-size="14" lengthAdjust="spacing" textLength="21" x="177.8918" y="311.5913">0..*</text></g><!--reverse link Basket to BasketLine--><g id="link_Basket_BasketLine"><path codeLine="50" d="M296.6146,175.5196 C330.0746,160.1496 370.67,141.8886 416,123.0986 C440.16,113.0786 467.22,102.5986 489.98,93.9986 " fill="none" id="Basket-backto-BasketLine" style="stroke:#333333;stroke-width:1.2;"/><polygon fill="#333333" points="285.71,180.5286,292.832,181.659,296.6146,175.5196,289.4926,174.3893,285.71,180.5286" style="stroke:#333333;stroke-width:1.2;"/><text fill="#000000" font-family="Arial" font-size="14" lengthAdjust="spacing" textLength="53" x="327" y="133.2305">contains</text><text fill="#000000" font-family="Arial" font-size="14" lengthAdjust="spacing" textLength="8" x="293.4703" y="192.0268">1</text><text fill="#000000" font-family="Arial" font-size="14" lengthAdjust="spacing" textLength="21" x="460.9696" y="110.577">0..*</text></g><!--link BasketLine to Product--><g id="link_BasketLine_Product"><path codeLine="51" d="M594.17,92.1186 C617.2,100.4386 644.44,111.2186 668,123.0986 C714.89,146.7386 760.3049,176.4818 793.8349,199.8118 " fill="none" id="BasketLine-to-Product" style="stroke:#333333;stroke-width:1.2;"/><polygon fill="#333333" points="798.76,203.2386,793.6569,194.8149,794.6557,200.3829,789.0878,201.3817,798.76,203.2386" style="stroke:#333333;stroke-width:1.2;"/><text fill="#000000" font-family="Arial" font-size="14" lengthAdjust="spacing" textLength="69" x="699" y="138.2305">for product</text><text fill="#000000" font-family="Arial" font-size="14" lengthAdjust="spacing" textLength="5" x="601.858" y="108.7689">*</text><text fill="#000000" font-family="Arial" font-size="14" lengthAdjust="spacing" textLength="8" x="782.9688" y="212.8153">1</text></g><!--reverse link Order to OrderLine--><g id="link_Order_OrderLine"><path codeLine="52" d="M302.7007,324.6819 C355.8107,338.3619 436.53,359.1786 492.87,373.6986 " fill="none" id="Order-backto-OrderLine" style="stroke:#333333;stroke-width:1.2;"/><polygon fill="#333333" points="291.08,321.6886,295.8926,327.0588,302.7007,324.6819,297.8881,319.3117,291.08,321.6886" style="stroke:#333333;stroke-width:1.2;"/><text fill="#000000" font-family="Arial" font-size="14" lengthAdjust="spacing" textLength="53" x="327" y="328.2305">contains</text><text fill="#000000" font-family="Arial" font-size="14" lengthAdjust="spacing" textLength="8" x="299" y="337.9987">1</text><text fill="#000000" font-family="Arial" font-size="14" lengthAdjust="spacing" textLength="21" x="463.8572" y="386.2326">1..*</text></g><!--link OrderLine to Product--><g id="link_OrderLine_Product"><path codeLine="53" d="M591,365.5086 C614.47,355.1186 642.98,341.9986 668,329.0986 C713.77,305.4986 759.5959,278.6136 793.5759,258.0636 " fill="none" id="OrderLine-to-Product" style="stroke:#333333;stroke-width:1.2;"/><polygon fill="#333333" points="798.71,254.9586,788.9388,256.1933,794.4316,257.5461,793.0788,263.0388,798.71,254.9586" style="stroke:#333333;stroke-width:1.2;"/><text fill="#000000" font-family="Arial" font-size="14" lengthAdjust="spacing" textLength="69" x="699" y="271.2305">for product</text><text fill="#000000" font-family="Arial" font-size="14" lengthAdjust="spacing" textLength="5" x="598.8859" y="376.7051">*</text><text fill="#000000" font-family="Arial" font-size="14" lengthAdjust="spacing" textLength="8" x="782.9099" y="273.748">1</text></g><!--link Order to Payment--><g id="link_Order_Payment"><path codeLine="54" d="M291.37,346.6886 C301.01,354.8086 311.3,363.3286 321,371.0986 C362.36,404.2086 370.42,416.0986 416,443.0986 C442.6,458.8586 474.41,473.0486 499.29,483.2086 " fill="none" id="Order-Payment" style="stroke:#333333;stroke-width:1.2;"/><text fill="#000000" font-family="Arial" font-size="14" lengthAdjust="spacing" textLength="23" x="342" y="367.2305">has</text><text fill="#000000" font-family="Arial" font-size="14" lengthAdjust="spacing" textLength="8" x="299.05" y="367.0237">1</text><text fill="#000000" font-family="Arial" font-size="14" lengthAdjust="spacing" textLength="21" x="470.4748" y="495.1744">0..*</text></g><!--link Order to Shipment--><g id="link_Order_Shipment"><path codeLine="55" d="M291.26,292.4186 C324.83,277.2186 373.46,255.2386 416,236.0986 C436.06,227.0786 457.94,217.2586 477.71,208.4086 " fill="none" id="Order-Shipment" style="stroke:#333333;stroke-width:1.2;"/><text fill="#000000" font-family="Arial" font-size="14" lengthAdjust="spacing" textLength="63" x="322" y="247.2305">fulfilled by</text><text fill="#000000" font-family="Arial" font-size="14" lengthAdjust="spacing" textLength="8" x="298.9218" y="303.7653">1</text><text fill="#000000" font-family="Arial" font-size="14" lengthAdjust="spacing" textLength="21" x="448.9973" y="225.2799">0..*</text></g><!--SRC=[bPFDRjim3CVlUWhEnm1sqs4d7mPaAJO46D1XwGim4cCBbILFeZjumzvzalmLhBqCy84KV_ppGzOxRQKP545LtSKly6WetFK6BG-TARcbZge-ca8OkZAm0w-Rba5fJvAriu8r6uBFfo_b_aEvVr_1epNQ4fpPUO97hyZ3qLb9FSFHO0ZmeB7ns0aHdhNjCPeWK-30xFLbO3f9Py_w5y5UY1o1un3OTL7fjm2GitDIqQ4EjJaevIa4yMVXFs5u9ixq9PkHNOF57FqQsom05pgvEUF74CVNF6uPtxnJWvpq-idEnIrsb8-qf8sUPawiIrOc0oCF8R469Qa7v9k4OifO-ydkwtO0qcAV7AEvQGt7ZkpSscJV5bovSwlx5GopaqdsAED5DD_fIfxiDCcwyEA-WBA4ObzLqPetLuFxQSERqAwOvw-dKOEOSnApsw2RdTSGxvjHsuNDfyKkQNxCUSl-QxWwlzo0cEgiklTRyNzbjyF_KTsQNPPSGulXJM9TRnGRp5KRGmeken3MCS75SLnKtFN1eXc33gMX5pAfmVGk0ZXhnYh6dreT87un2n0KCiRVbo38-10n0USMVLJ6fl7KO7g02SSNfrKyRkC5LeAiIWBq5m00]--></g></svg>