<?xml version="1.0" encoding="us-ascii" standalone="no"?><svg xmlns="http://www.w3.org/2000/svg" xmlns:xlink="http://www.w3.org/1999/xlink" contentStyleType="text/css" height="980px" preserveAspectRatio="none" style="width:780px;height:980px;background:#FFFFFF;" version="1.1" viewBox="0 0 780 980" width="780px" zoomAndPan="magnify"><defs/><g><text fill="#000000" font-family="Arial" font-size="14" font-weight="bold" lengthAdjust="spacing" textLength="272" x="247" y="23.1318">FIG-08-04. Online Store order data flow</text><!--entity Customer--><g id="elem_Customer"><rect fill="#FFFFFF" height="52.1973" rx="2.5" ry="2.5" style="stroke:#333333;stroke-width:0.5;" width="125" x="7" y="44.0986"/><text fill="#000000" font-family="Arial" font-size="14" lengthAdjust="spacing" textLength="61" x="17" y="67.2305">Customer</text><text fill="#000000" font-family="Arial" font-size="14" lengthAdjust="spacing" textLength="105" x="17" y="83.3291">&#171;External entity&#187;</text></g><!--entity Capture--><g id="elem_Capture"><rect fill="#EAF6E8" height="52.1973" rx="2.5" ry="2.5" style="stroke:#333333;stroke-width:0.5;" width="109" x="419.5" y="44.0986"/><text fill="#000000" font-family="Arial" font-size="14" lengthAdjust="spacing" textLength="89" x="429.5" y="67.2305">Capture order</text><text fill="#000000" font-family="Arial" font-size="14" lengthAdjust="spacing" textLength="67" x="429.5" y="83.3291">&#171;Process&#187;</text></g><!--entity PaymentProcess--><g id="elem_PaymentProcess"><rect fill="#EAF6E8" height="52.1973" rx="2.5" ry="2.5" style="stroke:#333333;stroke-width:0.5;" width="138" x="405" y="186.0986"/><text fill="#000000" font-family="Arial" font-size="14" lengthAdjust="spacing" textLength="118" x="415" y="209.2305">Authorise payment</text><text fill="#000000" font-family="Arial" font-size="14" lengthAdjust="spacing" textLength="67" x="415" y="225.3291">&#171;Process&#187;</text></g><!--entity ShipmentProcess--><g id="elem_ShipmentProcess"><rect fill="#EAF6E8" height="52.1973" rx="2.5" ry="2.5" style="stroke:#333333;stroke-width:0.5;" width="176" x="386" y="470.0986"/><text fill="#000000" font-family="Arial" font-size="14" lengthAdjust="spacing" textLength="156" x="396" y="493.2305">Create shipment request</text><text fill="#000000" font-family="Arial" font-size="14" lengthAdjust="spacing" textLength="67" x="396" y="509.3291">&#171;Process&#187;</text></g><!--entity OrderStore--><g id="elem_OrderStore"><path d="M423,912.5986 C423,902.5986 474,902.5986 474,902.5986 C474,902.5986 525,902.5986 525,912.5986 L525,953.7959 C525,963.7959 474,963.7959 474,963.7959 C474,963.7959 423,963.7959 423,953.7959 L423,912.5986 " fill="#F2F5F7" style="stroke:#333333;stroke-width:0.5;"/><path d="M423,912.5986 C423,922.5986 474,922.5986 474,922.5986 C474,922.5986 525,922.5986 525,912.5986 " fill="none" style="stroke:#333333;stroke-width:0.5;"/><text fill="#000000" font-family="Arial" font-size="14" lengthAdjust="spacing" textLength="69" x="433" y="939.7305">Order data</text><text fill="#000000" font-family="Arial" font-size="14" lengthAdjust="spacing" textLength="82" x="433" y="955.8291">&#171;Data store&#187;</text></g><!--entity PaymentProvider--><g id="elem_PaymentProvider"><rect fill="#FFF4D6" height="52.1973" rx="2.5" ry="2.5" style="stroke:#333333;stroke-width:0.5;" width="182" x="383" y="328.0986"/><text fill="#000000" font-family="Arial" font-size="14" lengthAdjust="spacing" textLength="162" x="393" y="351.2305">Payment Provider System</text><text fill="#000000" font-family="Arial" font-size="14" lengthAdjust="spacing" textLength="115" x="393" y="367.3291">&#171;External system&#187;</text></g><!--entity DeliveryPartner--><g id="elem_DeliveryPartner"><rect fill="#FFF4D6" height="52.1973" rx="2.5" ry="2.5" style="stroke:#333333;stroke-width:0.5;" width="172" x="388" y="612.0986"/><text fill="#000000" font-family="Arial" font-size="14" lengthAdjust="spacing" textLength="152" x="398" y="635.2305">Delivery Partner System</text><text fill="#000000" font-family="Arial" font-size="14" lengthAdjust="spacing" textLength="115" x="398" y="651.3291">&#171;External system&#187;</text></g><g id="elem_GMN17"><path d="M202,754.0986 L202,812.3945 A0,0 0 0 0 202,812.3945 L746,812.3945 A0,0 0 0 0 746,812.3945 L746,764.0986 L736,754.0986 L478,754.0986 L474,664.3586 L470,754.0986 L202,754.0986 A0,0 0 0 0 202,754.0986 " fill="#FFF8DC" style="stroke:#666666;stroke-width:0.5;"/><path d="M736,754.0986 L736,764.0986 L746,764.0986 L736,754.0986 " fill="#FFF8DC" style="stroke:#666666;stroke-width:0.5;"/><text fill="#000000" font-family="Arial" font-size="14" lengthAdjust="spacing" textLength="64" x="208" y="772.2305">DFD view.</text><text fill="#000000" font-family="Arial" font-size="14" lengthAdjust="spacing" textLength="523" x="208" y="788.3291">Arrows show data movement and transformation, not process sequence ownership,</text><text fill="#000000" font-family="Arial" font-size="14" lengthAdjust="spacing" textLength="267" x="208" y="804.4277">database schema or software deployment.</text></g><!--link Customer to Capture--><g id="link_Customer_Capture"><path d="M132.26,70.0986 C210.93,70.0986 338.49,70.0986 413.21,70.0986 " fill="none" id="Customer-to-Capture" style="stroke:#333333;stroke-width:1.2;"/><polygon fill="#333333" points="419.21,70.0986,410.21,66.0986,414.21,70.0986,410.21,74.0986,419.21,70.0986" style="stroke:#333333;stroke-width:1.2;"/><text fill="#000000" font-family="Arial" font-size="14" lengthAdjust="spacing" textLength="82" x="192.74" y="84.2305">Order details</text></g><!--link Capture to PaymentProcess--><g id="link_Capture_PaymentProcess"><path d="M474,96.1386 C474,121.6086 474,154.1686 474,179.7386 " fill="none" id="Capture-to-PaymentProcess" style="stroke:#333333;stroke-width:1.2;"/><polygon fill="#333333" points="474,185.7386,478,176.7386,474,180.7386,470,176.7386,474,185.7386" style="stroke:#333333;stroke-width:1.2;"/><text fill="#000000" font-family="Arial" font-size="14" lengthAdjust="spacing" textLength="68" x="405" y="155.0705">Order total</text></g><!--link PaymentProcess to ShipmentProcess--><g id="link_PaymentProcess_ShipmentProcess"><path d="M404.8,212.0986 C353.7,212.0986 293,212.0986 293,212.0986 C293,212.0986 293,496.0986 293,496.0986 C293,496.0986 333.85,496.0986 379.89,496.0986 " fill="none" id="PaymentProcess-to-ShipmentProcess" style="stroke:#333333;stroke-width:1.2;"/><polygon fill="#333333" points="385.89,496.0986,376.89,492.0986,380.89,496.0986,376.89,500.0986,385.89,496.0986" style="stroke:#333333;stroke-width:1.2;"/><text fill="#000000" font-family="Arial" font-size="14" lengthAdjust="spacing" textLength="66" x="226" y="358.7705">Paid order</text></g><!--link Capture to OrderStore--><g id="link_Capture_OrderStore"><path d="M528.84,70.0986 C615.16,70.0986 773,70.0986 773,70.0986 C773,70.0986 773,948.3486 773,948.3486 C773,948.3486 616.46,948.3486 531.06,948.3486 " fill="none" id="Capture-to-OrderStore" style="stroke:#333333;stroke-width:1.2;"/><polygon fill="#333333" points="525.06,948.3486,534.06,952.3486,530.06,948.3486,534.06,944.3486,525.06,948.3486" style="stroke:#333333;stroke-width:1.2;"/><text fill="#000000" font-family="Arial" font-size="14" lengthAdjust="spacing" textLength="70" x="702" y="525.2505">Order draft</text></g><!--link PaymentProcess to PaymentProvider--><g id="link_PaymentProcess_PaymentProvider"><path d="M474,238.1386 C474,263.6086 474,296.1686 474,321.7386 " fill="none" id="PaymentProcess-to-PaymentProvider" style="stroke:#333333;stroke-width:1.2;"/><polygon fill="#333333" points="474,327.7386,478,318.7386,474,322.7386,470,318.7386,474,327.7386" style="stroke:#333333;stroke-width:1.2;"/><text fill="#000000" font-family="Arial" font-size="14" lengthAdjust="spacing" textLength="120" x="353" y="297.0705">Payment exchange</text></g><!--link PaymentProcess to OrderStore--><g id="link_PaymentProcess_OrderStore"><path d="M543.09,212.0986 C628.87,212.0986 764,212.0986 764,212.0986 C764,212.0986 764,933.0986 764,933.0986 C764,933.0986 614.43,933.0986 531.18,933.0986 " fill="none" id="PaymentProcess-to-OrderStore" style="stroke:#333333;stroke-width:1.2;"/><polygon fill="#333333" points="525.18,933.0986,534.18,937.0986,530.18,933.0986,534.18,929.0986,525.18,933.0986" style="stroke:#333333;stroke-width:1.2;"/><text fill="#000000" font-family="Arial" font-size="14" lengthAdjust="spacing" textLength="97" x="666" y="595.6905">Payment status</text></g><!--link ShipmentProcess to DeliveryPartner--><g id="link_ShipmentProcess_DeliveryPartner"><path d="M474,522.1386 C474,547.6086 474,580.1686 474,605.7386 " fill="none" id="ShipmentProcess-to-DeliveryPartner" style="stroke:#333333;stroke-width:1.2;"/><polygon fill="#333333" points="474,611.7386,478,602.7386,474,606.7386,470,602.7386,474,611.7386" style="stroke:#333333;stroke-width:1.2;"/><text fill="#000000" font-family="Arial" font-size="14" lengthAdjust="spacing" textLength="124" x="349" y="581.0705">Shipment exchange</text></g><!--link ShipmentProcess to OrderStore--><g id="link_ShipmentProcess_OrderStore"><path d="M562.14,496.0986 C644.55,496.0986 755,496.0986 755,496.0986 C755,496.0986 755,917.8486 755,917.8486 C755,917.8486 612.26,917.8486 531.21,917.8486 " fill="none" id="ShipmentProcess-to-OrderStore" style="stroke:#333333;stroke-width:1.2;"/><polygon fill="#333333" points="525.21,917.8486,534.21,921.8486,530.21,917.8486,534.21,913.8486,525.21,917.8486" style="stroke:#333333;stroke-width:1.2;"/><text fill="#000000" font-family="Arial" font-size="14" lengthAdjust="spacing" textLength="101" x="653" y="739.5705">Shipment status</text></g><!--SRC=[ZLJ1RgCm4BtxAsQJQw5HrMsxKHKfQi9gJwsKwrvS61ghngRs4ChVxvW09QIH5d50C_FUFByPyqEPL5SPGXnVy-kfqUYlIoqDLOMEQ8y5nYL_2g4n9o0BJhtj2JBbC2LbZI156Y7vypjQF4IBsnYUZLO6OKVM8LYNeODCaeHSsre8_wvCAPqi85HHKuOQsjjHmjWCFPRmQp4AEcdUG_1-8KHeBSqRjvqzLPviWUwlUNpSVX8w8pMWOL7DQZK3wQ6lW7dIFYTeMLBLgmmKBywcw7qFxTBpxJgvspwCaUkADJlb4KhP5Dpm7FroJ7J1xqYU74f2y7jLXafm-56X_uPgrrLCkOAlhv95p9u7dmDw4_psOG0TGPi-JcIUt2G_a_knZaufCFr11PvTumcB4qzz6pexsh4-M7kxkHjpRb2h0xg6QnsP_-3i0Nrzpoc60KRHQXZ94heJ8qcblUZZKRkUN3XnlwydIrABIN80JNrUCetAZkiXpdkCN1tqE9dJHVwfRyi-0lYPxjavl0WzwTMZF4cgl9ZA7a1JJvV32RyQNWIVT1nmNKjXB6_kgoKUZG3O91iuAAnZ_buxPslFMsthuyKlx05Rh3GP45zadrjNoF3tkEBBJb1shNtOVvFoVQnPRRWMLymtBBbF-NSaUHhWRKwrP64PbjgsNiG2cJse-WS0]--></g></svg>