<?xml version="1.0" encoding="us-ascii" standalone="no"?><svg xmlns="http://www.w3.org/2000/svg" xmlns:xlink="http://www.w3.org/1999/xlink" contentStyleType="text/css" height="753px" preserveAspectRatio="none" style="width:1065px;height:753px;background:#FFFFFF;" version="1.1" viewBox="0 0 1065 753" width="1065px" zoomAndPan="magnify"><defs/><g><text fill="#000000" font-family="Arial" font-size="14" font-weight="bold" lengthAdjust="spacing" textLength="425" x="313" y="23.1318">FIG-02-01. From Stakeholder Concerns to Architecture Views</text><!--cluster viewA--><g id="cluster_viewA"><path d="M8.5,575.0986 L120.5,575.0986 A3.75,3.75 0 0 1 123,577.5986 L130,596.0474 L513.86,596.0474 A2.5,2.5 0 0 1 516.36,598.5474 L516.36,733.5986 A2.5,2.5 0 0 1 513.86,736.0986 L8.5,736.0986 A2.5,2.5 0 0 1 6,733.5986 L6,577.5986 A2.5,2.5 0 0 1 8.5,575.0986 " fill="#FFFFFF" style="stroke:#5B6B7A;stroke-width:1.5;"/><line style="stroke:#5B6B7A;stroke-width:1.5;" x1="6" x2="130" y1="596.0474" y2="596.0474"/><text fill="#111111" font-family="Arial" font-size="13" font-weight="bold" lengthAdjust="spacing" textLength="111" x="10" y="589.2925">Architecture view</text></g><!--cluster viewB--><g id="cluster_viewB"><path d="M878.5,556.0986 L1042.5,556.0986 A3.75,3.75 0 0 1 1045,558.5986 L1052,577.0474 L1055.5,577.0474 A2.5,2.5 0 0 1 1058,579.5474 L1058,733.5986 A2.5,2.5 0 0 1 1055.5,736.0986 L878.5,736.0986 A2.5,2.5 0 0 1 876,733.5986 L876,558.5986 A2.5,2.5 0 0 1 878.5,556.0986 " fill="#FFFFFF" style="stroke:#5B6B7A;stroke-width:1.5;"/><line style="stroke:#5B6B7A;stroke-width:1.5;" x1="876" x2="1052" y1="577.0474" y2="577.0474"/><text fill="#111111" font-family="Arial" font-size="13" font-weight="bold" lengthAdjust="spacing" textLength="163" x="880" y="570.2925">Related architecture view</text></g><!--entity modelsA--><g id="elem_modelsA"><rect fill="#F4F8FB" height="94.7437" rx="4" ry="4" style="stroke:#2B4D66;stroke-width:0.5;" width="136" x="30" y="616.5986"/><text fill="#111111" font-family="Arial" font-size="13" lengthAdjust="spacing" textLength="116" x="40" y="638.7925">Architecture models</text><text fill="#111111" font-family="Arial" font-size="13" lengthAdjust="spacing" textLength="4" x="40" y="653.7412">&#160;</text><text fill="#111111" font-family="Arial" font-size="13" lengthAdjust="spacing" textLength="112" x="40" y="668.6899">Selected elements,</text><text fill="#111111" font-family="Arial" font-size="13" lengthAdjust="spacing" textLength="98" x="40" y="683.6387">relationships and</text><text fill="#111111" font-family="Arial" font-size="13" lengthAdjust="spacing" textLength="99" x="40" y="698.5874">supporting tables</text></g><!--entity modelsB--><g id="elem_modelsB"><rect fill="#F4F8FB" height="94.7437" rx="4" ry="4" style="stroke:#2B4D66;stroke-width:0.5;" width="134" x="900" y="597.5986"/><text fill="#111111" font-family="Arial" font-size="13" lengthAdjust="spacing" textLength="90" x="910" y="619.7925">Related models</text><text fill="#111111" font-family="Arial" font-size="13" lengthAdjust="spacing" textLength="4" x="910" y="634.7412">&#160;</text><text fill="#111111" font-family="Arial" font-size="13" lengthAdjust="spacing" textLength="114" x="910" y="649.6899">Overlapping names,</text><text fill="#111111" font-family="Arial" font-size="13" lengthAdjust="spacing" textLength="78" x="910" y="664.6387">boundaries or</text><text fill="#111111" font-family="Arial" font-size="13" lengthAdjust="spacing" textLength="73" x="910" y="679.5874">relationships</text></g><!--entity stakeholders--><g id="elem_stakeholders"><rect fill="#F4F8FB" height="109.6924" rx="4" ry="4" style="stroke:#2B4D66;stroke-width:0.5;" width="136" x="440" y="44.0986"/><text fill="#111111" font-family="Arial" font-size="13" lengthAdjust="spacing" textLength="76" x="450" y="66.2925">Stakeholders</text><text fill="#111111" font-family="Arial" font-size="13" lengthAdjust="spacing" textLength="4" x="450" y="81.2412">&#160;</text><text fill="#111111" font-family="Arial" font-size="13" lengthAdjust="spacing" textLength="48" x="450" y="96.1899">Sponsor</text><text fill="#111111" font-family="Arial" font-size="13" lengthAdjust="spacing" textLength="56" x="450" y="111.1387">Developer</text><text fill="#111111" font-family="Arial" font-size="13" lengthAdjust="spacing" textLength="98" x="450" y="126.0874">Security reviewer</text><text fill="#111111" font-family="Arial" font-size="13" lengthAdjust="spacing" textLength="116" x="450" y="141.0361">Operations engineer</text></g><!--entity concerns--><g id="elem_concerns"><rect fill="#F4F8FB" height="94.7437" rx="4" ry="4" style="stroke:#2B4D66;stroke-width:0.5;" width="168" x="424" y="204.5986"/><text fill="#111111" font-family="Arial" font-size="13" lengthAdjust="spacing" textLength="55" x="434" y="226.7925">Concerns</text><text fill="#111111" font-family="Arial" font-size="13" lengthAdjust="spacing" textLength="4" x="434" y="241.7412">&#160;</text><text fill="#111111" font-family="Arial" font-size="13" lengthAdjust="spacing" textLength="95" x="434" y="256.6899">Questions about</text><text fill="#111111" font-family="Arial" font-size="13" lengthAdjust="spacing" textLength="101" x="434" y="271.6387">scope, risk, data,</text><text fill="#111111" font-family="Arial" font-size="13" lengthAdjust="spacing" textLength="148" x="434" y="286.5874">responsibility and support</text></g><!--entity viewpoint--><g id="elem_viewpoint"><rect fill="#F4F8FB" height="109.6924" rx="4" ry="4" style="stroke:#2B4D66;stroke-width:0.5;" width="168" x="424" y="350.0986"/><text fill="#111111" font-family="Arial" font-size="13" lengthAdjust="spacing" textLength="126" x="434" y="372.2925">Architecture viewpoint</text><text fill="#111111" font-family="Arial" font-size="13" lengthAdjust="spacing" textLength="4" x="434" y="387.2412">&#160;</text><text fill="#111111" font-family="Arial" font-size="13" lengthAdjust="spacing" textLength="148" x="434" y="402.1899">Reusable specification for</text><text fill="#111111" font-family="Arial" font-size="13" lengthAdjust="spacing" textLength="147" x="434" y="417.1387">constructing, interpreting,</text><text fill="#111111" font-family="Arial" font-size="13" lengthAdjust="spacing" textLength="136" x="434" y="432.0874">analysing and reviewing</text><text fill="#111111" font-family="Arial" font-size="13" lengthAdjust="spacing" textLength="78" x="434" y="447.0361">a type of view</text></g><!--entity kinds--><g id="elem_kinds"><rect fill="#F4F8FB" height="79.7949" rx="4" ry="4" style="stroke:#2B4D66;stroke-width:0.5;" width="163" x="885.5" y="409.0986"/><text fill="#111111" font-family="Arial" font-size="13" lengthAdjust="spacing" textLength="137" x="895.5" y="431.2925">Notation or model kinds</text><text fill="#111111" font-family="Arial" font-size="13" lengthAdjust="spacing" textLength="4" x="895.5" y="446.2412">&#160;</text><text fill="#111111" font-family="Arial" font-size="13" lengthAdjust="spacing" textLength="126" x="895.5" y="461.1899">Symbols, model rules</text><text fill="#111111" font-family="Arial" font-size="13" lengthAdjust="spacing" textLength="143" x="895.5" y="476.1387">and representation forms</text></g><g id="elem_GMN19"><path d="M408,495.5986 L408,550.4448 A0,0 0 0 0 408,550.4448 L608,550.4448 A0,0 0 0 0 608,550.4448 L608,505.5986 L598,495.5986 L512,495.5986 L508,460.1486 L504,495.5986 L408,495.5986 A0,0 0 0 0 408,495.5986 " fill="#FEFFDD" style="stroke:#181818;stroke-width:0.5;"/><path d="M598,495.5986 L598,505.5986 L608,505.5986 L598,495.5986 " fill="#FEFFDD" style="stroke:#181818;stroke-width:0.5;"/><text fill="#000000" font-family="Arial" font-size="13" lengthAdjust="spacing" textLength="136" x="414" y="512.7925">A viewpoint is reusable.</text><text fill="#000000" font-family="Arial" font-size="13" lengthAdjust="spacing" textLength="141" x="414" y="527.7412">A view is created for one</text><text fill="#000000" font-family="Arial" font-size="13" lengthAdjust="spacing" textLength="179" x="414" y="542.6899">system, enterprise or decision.</text></g><!--link stakeholders to concerns--><g id="link_stakeholders_concerns"><path d="M508,154.1386 C508,170.6286 508,182.5586 508,198.5286 " fill="none" id="stakeholders-to-concerns" style="stroke:#555555;stroke-width:1.0;"/><polygon fill="#555555" points="508,204.5286,512,195.5286,508,199.5286,504,195.5286,508,204.5286" style="stroke:#555555;stroke-width:1.0;"/><text fill="#333333" font-family="Arial" font-size="13" lengthAdjust="spacing" textLength="28" x="483" y="184.5425">raise</text></g><!--link concerns to viewpoint--><g id="link_concerns_viewpoint"><path d="M508,299.6686 C508,315.5686 508,327.4286 508,343.8586 " fill="none" id="concerns-to-viewpoint" style="stroke:#555555;stroke-width:1.0;"/><polygon fill="#555555" points="508,349.8586,512,340.8586,508,344.8586,504,340.8586,508,349.8586" style="stroke:#555555;stroke-width:1.0;"/><text fill="#333333" font-family="Arial" font-size="13" lengthAdjust="spacing" textLength="78" x="458" y="330.0425">addressed by</text></g><!--link viewpoint to viewA--><g id="link_viewpoint_viewA"><path d="M423.72,412.8786 C359.35,423.7386 274.69,449.7686 232,512.0986 C222.22,526.3786 218.9405,539.5564 220.7201,551.6884 C221.6099,557.7543 223.7645,563.5588 227.0037,569.1089 C227.8136,570.4964 228.6912,571.868 229.6337,573.2239 C229.8694,573.5628 226.5929,569.0391 226.8366,569.376 " fill="none" id="viewpoint-to-viewA" style="stroke:#555555;stroke-width:1.0;"/><polygon fill="#555555" points="230.3528,574.2378,228.3196,564.6011,227.4226,570.1863,221.8373,569.2893,230.3528,574.2378" style="stroke:#555555;stroke-width:1.0;"/><text fill="#333333" font-family="Arial" font-size="13" lengthAdjust="spacing" textLength="180" x="197" y="525.2925">guides view creation and review</text></g><!--reverse link modelsA to kinds--><g id="link_modelsA_kinds"><path d="M171.8815,631.3484 C181.7015,627.7384 186.19,626.5386 196,624.0986 C374.52,579.6586 428.82,625.8086 608,584.0986 C706.34,561.2086 814.11,517.9086 885.44,486.5086 " fill="none" id="modelsA-backto-kinds" style="stroke:#555555;stroke-width:1.0;"/><polygon fill="#555555" points="166.25,633.4186,176.0775,634.0676,170.9429,631.6934,173.3171,626.5589,166.25,633.4186" style="stroke:#555555;stroke-width:1.0;"/><text fill="#333333" font-family="Arial" font-size="13" lengthAdjust="spacing" textLength="121" x="447.5" y="581.2925">shape model content</text></g><!--link modelsA to viewA--><!--link viewpoint to kinds--><g id="link_viewpoint_kinds"><path d="M592.02,413.0886 C675.4,421.1186 797.0376,432.8337 879.5176,440.7737 " fill="none" id="viewpoint-to-kinds" style="stroke:#555555;stroke-width:1.0;"/><polygon fill="#555555" points="885.49,441.3486,876.9147,436.5046,880.513,440.8695,876.1481,444.4678,885.49,441.3486" style="stroke:#555555;stroke-width:1.0;"/><text fill="#333333" font-family="Arial" font-size="13" lengthAdjust="spacing" textLength="121" x="684.5" y="416.2925">selects or constrains</text></g><!--link viewA to viewB--><g id="link_viewA_viewB"><path d="M516.515,676.9548 C517.9946,677.8862 519.6739,678.9311 521.5358,680.0714 C528.9834,684.633 539.3531,690.7224 551.5538,697.1811 C575.955,710.0986 607.68,724.4936 638,731.0986 C708.11,746.3686 788.6625,745.8811 852.3938,741.4474 C868.3266,740.3389 883.208,738.9839 896.6122,737.5667 C899.9632,737.2124 903.222,736.8542 906.3817,736.4951 C907.1716,736.4053 901.995,737.0044 902.7725,736.9145 " fill="none" id="viewA-to-viewB" style="stroke:#555555;stroke-width:1.0;"/><polygon fill="#555555" points="908.7328,736.2255,899.333,733.2855,903.7659,736.7997,900.2517,741.2326,908.7328,736.2255" style="stroke:#555555;stroke-width:1.0;"/><text fill="#333333" font-family="Arial" font-size="13" lengthAdjust="spacing" textLength="89" x="700.5" y="728.2925">related concern</text></g><!--link viewA to viewB--><g id="link_viewA_viewB"><path d="M522.7501,673.4824 C523.4204,673.5503 518.6552,673.0679 519.4016,673.1437 C525.3725,673.7501 533.7512,674.6065 544.11,675.6794 C564.8275,677.8252 593.465,680.8368 626.6,684.4449 C692.87,691.6611 777.13,701.2636 852,711.0986 C858.25,711.9199 864.688,712.7964 871.173,713.7023 C871.9836,713.8155 872.795,713.9292 873.6068,714.0433 C874.0127,714.1003 874.4188,714.1575 874.8249,714.2147 C875.0279,714.2433 869.2899,713.4333 869.493,713.462 " fill="none" id="viewA-viewB" style="stroke:#555555;stroke-width:1.0;stroke-dasharray:7.0,7.0;"/><polygon fill="#555555" points="516.7807,672.878,525.3319,677.7643,521.7552,673.3817,526.1379,669.805,516.7807,672.878" style="stroke:#555555;stroke-width:1.0;"/><polygon fill="#555555" points="875.4341,714.3006,867.0815,709.0819,870.4832,713.6018,865.9634,717.0034,875.4341,714.3006" style="stroke:#555555;stroke-width:1.0;"/><text fill="#333333" font-family="Arial" font-size="13" lengthAdjust="spacing" textLength="212" x="639" y="683.2925">correspondence checks consistency</text></g><!--SRC=[TLHDRzim3BthLn3RDIdwjQuOXW5nYmoxj5W3xDBqe5XCBCIM355kaGtxxoCbnt6wLfV4fCZt-4WgsbWZp7zydvwUJq_FJc0UV0EBgBTO-TfWW1llIWoE87gOXRAo4SlO1OHV5bz8ATfQr-gW6w1A6_zYtGRMkYOSUGokTLV7kNVnJZV8UQokt_Olx6-4iukHCp2UTXkc-KS15BhSReBldBdnjG_mSNuvlvuNul61-VRMy-BozkgAhPApjvsbmxQ771uSbtUj_ewmMiwkD-yXfVCQwLDnLNoUlOaqpgn3y2yfxpukdUEuYtGuJjMuZg9ui9igWh4YWlLEgOCQ7qPTegLRkaNh7VcmTBVuZBLlaVykiEo2ZJjMyPdx9QPxTcX9He1kOnrY-02QW4RfnZ3x0H28dnrI3jKhtyMbev9n9aoJjXCmEkh9qWKaOM9NjXPaxGnGrxO-n8HJzlcEQZcQB67QUkkYG3vWHth5TwZ5qgvjcRZ3MWhbL1H3nzAupGGu04CRC7qjdNQwtf6Cep38zVCNEo3kMWI_Ja29qu1uHEhEnmp6lMcymHgudIPhlMjMlgP9RmzTZIIG0iGK25qSU3QKC5AiKliH-x_aWSaipSbxwYJ4J09hjg41_cqOaPBuTMvkPLkIohb7MNnH8egIcKvECvDX6oWzI33dq-zIArvJsuSSMDq_OwXrsmgUusqNLYjP8nqi4aZVZaYEs1J2PZo7C4qBCFqsJ0ryWQ0jlow3ORWoD97lQ6Eu2yJ4LZjrS1pTdV6zJMSDvjAW39XxTfWNbPe6qwxbc5unZkANhkqR8SGYQw_stkbZPOr1zxH76SFp- -ZOdhDodjH0qGJoA6lBUv6v7L4jfEnUwRxm_jhNwQFHLA5v6bqjVSXBo3nAXBB2SfiMZomnsNAdbFCHOULZvEU-tuIy002paPAM63SluCdW4ciIYzdmV8Dto3xQSUvcmezAMaFkaTHbU6c9HJrHoAeAgle7]--></g></svg>