<?xml version="1.0" encoding="us-ascii" standalone="no"?><svg xmlns="http://www.w3.org/2000/svg" xmlns:xlink="http://www.w3.org/1999/xlink" contentStyleType="text/css" height="461px" preserveAspectRatio="none" style="width:398px;height:461px;background:#FFFFFF;" version="1.1" viewBox="0 0 398 461" width="398px" zoomAndPan="magnify"><defs/><g><text fill="#000000" font-family="Arial" font-size="14" font-weight="bold" lengthAdjust="spacing" textLength="325" x="29.5" y="23.1318">FIG-08-01. Online Store conceptual data model</text><!--entity Customer--><g id="elem_Customer"><rect fill="#FFFFFF" height="52.1973" rx="2.5" ry="2.5" style="stroke:#333333;stroke-width:0.5;" width="89" x="92" y="44.0986"/><text fill="#000000" font-family="Arial" font-size="14" lengthAdjust="spacing" textLength="61" x="102" y="67.2305">Customer</text><text fill="#000000" font-family="Arial" font-size="14" lengthAdjust="spacing" textLength="69" x="102" y="83.3291">&#171;Concept&#187;</text></g><!--entity Basket--><g id="elem_Basket"><rect fill="#F7F9FB" height="52.1973" rx="2.5" ry="2.5" style="stroke:#333333;stroke-width:0.5;" width="89" x="216" y="44.0986"/><text fill="#000000" font-family="Arial" font-size="14" lengthAdjust="spacing" textLength="43" x="226" y="67.2305">Basket</text><text fill="#000000" font-family="Arial" font-size="14" lengthAdjust="spacing" textLength="69" x="226" y="83.3291">&#171;Concept&#187;</text></g><!--entity Product--><g id="elem_Product"><rect fill="#F7F9FB" height="52.1973" rx="2.5" ry="2.5" style="stroke:#333333;stroke-width:0.5;" width="89" x="216" y="156.0986"/><text fill="#000000" font-family="Arial" font-size="14" lengthAdjust="spacing" textLength="49" x="226" y="179.2305">Product</text><text fill="#000000" font-family="Arial" font-size="14" lengthAdjust="spacing" textLength="69" x="226" y="195.3291">&#171;Concept&#187;</text></g><!--entity Order--><g id="elem_Order"><rect fill="#F7F9FB" height="52.1973" rx="2.5" ry="2.5" style="stroke:#333333;stroke-width:0.5;" width="89" x="92" y="156.0986"/><text fill="#000000" font-family="Arial" font-size="14" lengthAdjust="spacing" textLength="37" x="102" y="179.2305">Order</text><text fill="#000000" font-family="Arial" font-size="14" lengthAdjust="spacing" textLength="69" x="102" y="195.3291">&#171;Concept&#187;</text></g><!--entity Payment--><g id="elem_Payment"><rect fill="#F7F9FB" height="52.1973" rx="2.5" ry="2.5" style="stroke:#333333;stroke-width:0.5;" width="89" x="30" y="268.0986"/><text fill="#000000" font-family="Arial" font-size="14" lengthAdjust="spacing" textLength="55" x="40" y="291.2305">Payment</text><text fill="#000000" font-family="Arial" font-size="14" lengthAdjust="spacing" textLength="69" x="40" y="307.3291">&#171;Concept&#187;</text></g><!--entity Shipment--><g id="elem_Shipment"><rect fill="#F7F9FB" height="52.1973" rx="2.5" ry="2.5" style="stroke:#333333;stroke-width:0.5;" width="89" x="154" y="268.0986"/><text fill="#000000" font-family="Arial" font-size="14" lengthAdjust="spacing" textLength="59" x="164" y="291.2305">Shipment</text><text fill="#000000" font-family="Arial" font-size="14" lengthAdjust="spacing" textLength="69" x="164" y="307.3291">&#171;Concept&#187;</text></g><g id="elem_GMN14"><path d="M6,380.0986 L6,454.4932 A0,0 0 0 0 6,454.4932 L391,454.4932 A0,0 0 0 0 391,454.4932 L391,390.0986 L381,380.0986 L202.5,380.0986 L198.5,320.1886 L194.5,380.0986 L6,380.0986 A0,0 0 0 0 6,380.0986 " fill="#FFF8DC" style="stroke:#666666;stroke-width:0.5;"/><path d="M381,380.0986 L381,390.0986 L391,390.0986 L381,380.0986 " fill="#FFF8DC" style="stroke:#666666;stroke-width:0.5;"/><text fill="#000000" font-family="Arial" font-size="14" lengthAdjust="spacing" textLength="148" x="12" y="398.2305">Conceptual model only.</text><text fill="#000000" font-family="Arial" font-size="14" lengthAdjust="spacing" textLength="364" x="12" y="414.3291">It names business information concepts and relationships.</text><text fill="#000000" font-family="Arial" font-size="14" lengthAdjust="spacing" textLength="360" x="12" y="430.4277">It is not a database schema, API contract or process flow.</text><text fill="#000000" font-family="Arial" font-size="14" lengthAdjust="spacing" textLength="334" x="12" y="446.5264">Returns and support cases are outside this first view.</text></g><!--link Customer to Basket--><g id="link_Customer_Basket"><path d="M181.27,70.0986 C192.51,70.0986 198.56,70.0986 209.8,70.0986 " fill="none" id="Customer-to-Basket" style="stroke:#333333;stroke-width:1.2;"/><polygon fill="#333333" points="215.8,70.0986,206.8,66.0986,210.8,70.0986,206.8,74.0986,215.8,70.0986" style="stroke:#333333;stroke-width:1.2;"/><text fill="#000000" font-family="Arial" font-size="14" lengthAdjust="spacing" textLength="32" x="182.53" y="84.2305">owns</text></g><!--link Customer to Order--><g id="link_Customer_Order"><path d="M136.5,96.3586 C136.5,114.3286 136.5,132.0686 136.5,150.0086 " fill="none" id="Customer-to-Order" style="stroke:#333333;stroke-width:1.2;"/><polygon fill="#333333" points="136.5,156.0086,140.5,147.0086,136.5,151.0086,132.5,147.0086,136.5,156.0086" style="stroke:#333333;stroke-width:1.2;"/><text fill="#000000" font-family="Arial" font-size="14" lengthAdjust="spacing" textLength="41" x="94.5" y="122.3105">places</text></g><!--link Basket to Product--><g id="link_Basket_Product"><path d="M260.5,96.3586 C260.5,114.3286 260.5,132.0686 260.5,150.0086 " fill="none" id="Basket-to-Product" style="stroke:#333333;stroke-width:1.2;"/><polygon fill="#333333" points="260.5,156.0086,264.5,147.0086,260.5,151.0086,256.5,147.0086,260.5,156.0086" style="stroke:#333333;stroke-width:1.2;"/><text fill="#000000" font-family="Arial" font-size="14" lengthAdjust="spacing" textLength="53" x="206.5" y="122.3105">contains</text></g><!--link Order to Product--><g id="link_Order_Product"><path d="M181.27,182.0986 C192.51,182.0986 198.56,182.0986 209.8,182.0986 " fill="none" id="Order-to-Product" style="stroke:#333333;stroke-width:1.2;"/><polygon fill="#333333" points="215.8,182.0986,206.8,178.0986,210.8,182.0986,206.8,186.0986,215.8,182.0986" style="stroke:#333333;stroke-width:1.2;"/><text fill="#000000" font-family="Arial" font-size="14" lengthAdjust="spacing" textLength="53" x="172.03" y="196.2305">contains</text></g><!--link Order to Payment--><g id="link_Order_Payment"><path d="M105.5,208.3586 C105.5,226.3286 105.5,244.0686 105.5,262.0086 " fill="none" id="Order-to-Payment" style="stroke:#333333;stroke-width:1.2;"/><polygon fill="#333333" points="105.5,268.0086,109.5,259.0086,105.5,263.0086,101.5,259.0086,105.5,268.0086" style="stroke:#333333;stroke-width:1.2;"/><text fill="#000000" font-family="Arial" font-size="14" lengthAdjust="spacing" textLength="46" x="58.5" y="234.3105">paid by</text></g><!--link Order to Shipment--><g id="link_Order_Shipment"><path d="M167.5,208.3586 C167.5,226.3286 167.5,244.0686 167.5,262.0086 " fill="none" id="Order-to-Shipment" style="stroke:#333333;stroke-width:1.2;"/><polygon fill="#333333" points="167.5,268.0086,171.5,259.0086,167.5,263.0086,163.5,259.0086,167.5,268.0086" style="stroke:#333333;stroke-width:1.2;"/><text fill="#000000" font-family="Arial" font-size="14" lengthAdjust="spacing" textLength="77" x="89.5" y="252.3105">delivered by</text></g><!--SRC=[ZLFBRjim4BphAxRfjLBIKreZC90OSE5JWkJQorfSHqGeBi5T9T3VT_LoZLQ723f8d9qPZZZwucCTEaTGLTTsY_Q1v3e5ZDgreTI6MggIFHQ5SW9bEB8gj-1yfbeznqAz1eBzuLTvywEy-Lx1Omm-4hmePuAQOqr9EmpWK15QTcHYykPZmemj3BFQ9mBEsd1H3B8ONqtoQjU9ML7-7U_kTfFETdi5AB0Wy7K_NfUi1vGtqlyvqxenRlS_zm-NZAVChgjNA3EmnddCRcrZu_Ag1_OjnJMF2LZZl3G-hPCMvCmgpb-apFwrqNAxvDq0VqIvm9sz6ppjT0DsrZL9CK-VsKlqpN22Yjua9iOd9cQ79Pbve7TmxF_1po4sO9tmxvHfd2eYAyqzAm1sVniqbWSuXhuouA0GiIM1OoTM8X7mySIvnQ6MI_44C3h85CPLCKkPkLx0Z037NXvH2AIskkCtk7ywZ9aoMZpEa3BNW_mfyCT0VYRjSfoKfKl9cWkr2TYADPux5Mz_b3RcSF9P5Duz6P5iV8Zs1m00]--></g></svg>