<svg xmlns="http://www.w3.org/2000/svg" width="1320" height="560" viewBox="0 0 1320 560" role="img" aria-labelledby="ttl dsc">
  <title id="ttl">FIG-13-02. Horizon Bank Customer Onboarding Value Stream</title>
  <desc id="dsc">FIG-13-02. Horizon Bank Customer Onboarding Value Stream</desc>
  <rect x="0" y="0" width="1320" height="560" fill="#FFFFFF"/>
  <text x="590.0" y="32.6" text-anchor="middle" font-family="Arial, sans-serif" font-size="16" font-weight="bold" fill="#111827">FIG-13-02. Horizon Bank Customer Onboarding Value Stream</text>
  <text x="590.0" y="58.2" text-anchor="middle" font-family="Arial, sans-serif" font-size="12" font-style="italic" fill="#111827">Value stream teaching view. Stages show stakeholder value, not BPMN tasks. Value progresses left to right.</text>
  <rect x="20.0" y="150.0" width="130.0" height="70.0" rx="0" ry="0" fill="#FFFFFF" stroke="#333333" stroke-width="1"/>
  <text x="85.0" y="173.6" text-anchor="middle" font-family="Arial, sans-serif" font-size="12" font-weight="bold" fill="#111827">Retail Customer</text>
  <text x="85.0" y="189.2" text-anchor="middle" font-family="Arial, sans-serif" font-size="12" font-weight="bold" fill="#111827">(triggering</text>
  <text x="85.0" y="204.8" text-anchor="middle" font-family="Arial, sans-serif" font-size="12" font-weight="bold" fill="#111827">stakeholder)</text>
  <rect x="180.0" y="90.0" width="168.0" height="46.0" rx="8" ry="8" fill="#EAF2FB" stroke="#175CD3" stroke-width="1"/>
  <text x="264.0" y="117.5" text-anchor="middle" font-family="Arial, sans-serif" font-size="13" font-weight="bold" fill="#111827">1. Need understood</text>
  <rect x="180.0" y="140.0" width="168.0" height="92.0" rx="8" ry="8" fill="#F7F9FB" stroke="#175CD3" stroke-width="1"/>
  <text x="264.0" y="175.6" text-anchor="middle" font-family="Arial, sans-serif" font-size="11" fill="#111827">The prospective customer has</text>
  <text x="264.0" y="189.9" text-anchor="middle" font-family="Arial, sans-serif" font-size="11" fill="#111827">made the banking need clear</text>
  <text x="264.0" y="204.2" text-anchor="middle" font-family="Arial, sans-serif" font-size="11" fill="#111827">enough for the bank to respond.</text>
  <text x="264.0" y="273.9" text-anchor="middle" font-family="Arial, sans-serif" font-size="11" font-weight="bold" fill="#111827">Enabling capabilities</text>
  <rect x="188.0" y="290.0" width="152.0" height="34.0" rx="8" ry="8" fill="#ECFDF3" stroke="#027A48" stroke-width="1"/>
  <text x="264.0" y="310.9" text-anchor="middle" font-family="Arial, sans-serif" font-size="11" fill="#111827">Digital Servicing</text>
  <rect x="188.0" y="332.0" width="152.0" height="34.0" rx="8" ry="8" fill="#ECFDF3" stroke="#027A48" stroke-width="1"/>
  <text x="264.0" y="352.9" text-anchor="middle" font-family="Arial, sans-serif" font-size="11" fill="#111827">Relationship Management</text>
  <rect x="374.0" y="90.0" width="168.0" height="46.0" rx="8" ry="8" fill="#EAF2FB" stroke="#175CD3" stroke-width="1"/>
  <text x="458.0" y="109.1" text-anchor="middle" font-family="Arial, sans-serif" font-size="13" font-weight="bold" fill="#111827">2. Application</text>
  <text x="458.0" y="126.0" text-anchor="middle" font-family="Arial, sans-serif" font-size="13" font-weight="bold" fill="#111827">established</text>
  <rect x="374.0" y="140.0" width="168.0" height="92.0" rx="8" ry="8" fill="#F7F9FB" stroke="#175CD3" stroke-width="1"/>
  <text x="458.0" y="175.6" text-anchor="middle" font-family="Arial, sans-serif" font-size="11" fill="#111827">The bank has enough</text>
  <text x="458.0" y="189.9" text-anchor="middle" font-family="Arial, sans-serif" font-size="11" fill="#111827">structured application</text>
  <text x="458.0" y="204.2" text-anchor="middle" font-family="Arial, sans-serif" font-size="11" fill="#111827">information to proceed.</text>
  <text x="458.0" y="273.9" text-anchor="middle" font-family="Arial, sans-serif" font-size="11" font-weight="bold" fill="#111827">Enabling capabilities</text>
  <rect x="382.0" y="290.0" width="152.0" height="34.0" rx="8" ry="8" fill="#ECFDF3" stroke="#027A48" stroke-width="1"/>
  <text x="458.0" y="310.9" text-anchor="middle" font-family="Arial, sans-serif" font-size="11" fill="#111827">Customer Onboarding</text>
  <rect x="382.0" y="332.0" width="152.0" height="34.0" rx="8" ry="8" fill="#ECFDF3" stroke="#027A48" stroke-width="1"/>
  <text x="458.0" y="352.9" text-anchor="middle" font-family="Arial, sans-serif" font-size="11" fill="#111827">Document Capture</text>
  <rect x="568.0" y="90.0" width="168.0" height="46.0" rx="8" ry="8" fill="#EAF2FB" stroke="#175CD3" stroke-width="1"/>
  <text x="652.0" y="109.1" text-anchor="middle" font-family="Arial, sans-serif" font-size="13" font-weight="bold" fill="#111827">3. Identity and eligibility</text>
  <text x="652.0" y="126.0" text-anchor="middle" font-family="Arial, sans-serif" font-size="13" font-weight="bold" fill="#111827">confirmed</text>
  <rect x="568.0" y="140.0" width="168.0" height="92.0" rx="8" ry="8" fill="#F7F9FB" stroke="#175CD3" stroke-width="1"/>
  <text x="652.0" y="175.6" text-anchor="middle" font-family="Arial, sans-serif" font-size="11" fill="#111827">The customer can be assessed</text>
  <text x="652.0" y="189.9" text-anchor="middle" font-family="Arial, sans-serif" font-size="11" fill="#111827">against identity, eligibility and</text>
  <text x="652.0" y="204.2" text-anchor="middle" font-family="Arial, sans-serif" font-size="11" fill="#111827">financial-crime expectations.</text>
  <text x="652.0" y="273.9" text-anchor="middle" font-family="Arial, sans-serif" font-size="11" font-weight="bold" fill="#111827">Enabling capabilities</text>
  <rect x="576.0" y="290.0" width="152.0" height="34.0" rx="8" ry="8" fill="#ECFDF3" stroke="#027A48" stroke-width="1"/>
  <text x="652.0" y="310.9" text-anchor="middle" font-family="Arial, sans-serif" font-size="11" fill="#111827">Identity Verification</text>
  <rect x="576.0" y="332.0" width="152.0" height="34.0" rx="8" ry="8" fill="#ECFDF3" stroke="#027A48" stroke-width="1"/>
  <text x="652.0" y="352.9" text-anchor="middle" font-family="Arial, sans-serif" font-size="11" fill="#111827">Financial Crime Screening</text>
  <rect x="576.0" y="374.0" width="152.0" height="34.0" rx="8" ry="8" fill="#ECFDF3" stroke="#027A48" stroke-width="1"/>
  <text x="652.0" y="394.9" text-anchor="middle" font-family="Arial, sans-serif" font-size="11" fill="#111827">Risk Assessment</text>
  <rect x="762.0" y="90.0" width="168.0" height="46.0" rx="8" ry="8" fill="#EAF2FB" stroke="#175CD3" stroke-width="1"/>
  <text x="846.0" y="109.1" text-anchor="middle" font-family="Arial, sans-serif" font-size="13" font-weight="bold" fill="#111827">4. Banking relationship</text>
  <text x="846.0" y="126.0" text-anchor="middle" font-family="Arial, sans-serif" font-size="13" font-weight="bold" fill="#111827">established</text>
  <rect x="762.0" y="140.0" width="168.0" height="92.0" rx="8" ry="8" fill="#F7F9FB" stroke="#175CD3" stroke-width="1"/>
  <text x="846.0" y="175.6" text-anchor="middle" font-family="Arial, sans-serif" font-size="11" fill="#111827">Customer and product records</text>
  <text x="846.0" y="189.9" text-anchor="middle" font-family="Arial, sans-serif" font-size="11" fill="#111827">exist in the bank&#x27;s authoritative</text>
  <text x="846.0" y="204.2" text-anchor="middle" font-family="Arial, sans-serif" font-size="11" fill="#111827">systems.</text>
  <text x="846.0" y="273.9" text-anchor="middle" font-family="Arial, sans-serif" font-size="11" font-weight="bold" fill="#111827">Enabling capabilities</text>
  <rect x="770.0" y="290.0" width="152.0" height="34.0" rx="8" ry="8" fill="#ECFDF3" stroke="#027A48" stroke-width="1"/>
  <text x="846.0" y="310.9" text-anchor="middle" font-family="Arial, sans-serif" font-size="11" fill="#111827">Party Management</text>
  <rect x="770.0" y="332.0" width="152.0" height="34.0" rx="8" ry="8" fill="#ECFDF3" stroke="#027A48" stroke-width="1"/>
  <text x="846.0" y="352.9" text-anchor="middle" font-family="Arial, sans-serif" font-size="11" fill="#111827">Account Opening</text>
  <rect x="770.0" y="374.0" width="152.0" height="34.0" rx="8" ry="8" fill="#ECFDF3" stroke="#027A48" stroke-width="1"/>
  <text x="846.0" y="394.9" text-anchor="middle" font-family="Arial, sans-serif" font-size="11" fill="#111827">Product Management</text>
  <rect x="956.0" y="90.0" width="168.0" height="46.0" rx="8" ry="8" fill="#EAF2FB" stroke="#175CD3" stroke-width="1"/>
  <text x="1040.0" y="117.5" text-anchor="middle" font-family="Arial, sans-serif" font-size="13" font-weight="bold" fill="#111827">5. Services ready to use</text>
  <rect x="956.0" y="140.0" width="168.0" height="92.0" rx="8" ry="8" fill="#F7F9FB" stroke="#175CD3" stroke-width="1"/>
  <text x="1040.0" y="175.6" text-anchor="middle" font-family="Arial, sans-serif" font-size="11" fill="#111827">The customer can use the</text>
  <text x="1040.0" y="189.9" text-anchor="middle" font-family="Arial, sans-serif" font-size="11" fill="#111827">selected channels and</text>
  <text x="1040.0" y="204.2" text-anchor="middle" font-family="Arial, sans-serif" font-size="11" fill="#111827">products.</text>
  <text x="1040.0" y="273.9" text-anchor="middle" font-family="Arial, sans-serif" font-size="11" font-weight="bold" fill="#111827">Enabling capabilities</text>
  <rect x="964.0" y="290.0" width="152.0" height="34.0" rx="8" ry="8" fill="#ECFDF3" stroke="#027A48" stroke-width="1"/>
  <text x="1040.0" y="310.9" text-anchor="middle" font-family="Arial, sans-serif" font-size="11" fill="#111827">Digital Servicing</text>
  <rect x="964.0" y="332.0" width="152.0" height="34.0" rx="8" ry="8" fill="#ECFDF3" stroke="#027A48" stroke-width="1"/>
  <text x="1040.0" y="352.9" text-anchor="middle" font-family="Arial, sans-serif" font-size="11" fill="#111827">Notification Management</text>
  <rect x="964.0" y="374.0" width="152.0" height="34.0" rx="8" ry="8" fill="#ECFDF3" stroke="#027A48" stroke-width="1"/>
  <text x="1040.0" y="394.9" text-anchor="middle" font-family="Arial, sans-serif" font-size="11" fill="#111827">Account Servicing</text>
  <rect x="1150.0" y="140.0" width="150.0" height="92.0" rx="8" ry="8" fill="#ECFDF3" stroke="#027A48" stroke-width="1"/>
  <text x="1225.0" y="161.2" text-anchor="middle" font-family="Arial, sans-serif" font-size="11" font-weight="bold" fill="#111827">Customer outcome:</text>
  <text x="1225.0" y="175.6" text-anchor="middle" font-family="Arial, sans-serif" font-size="11" font-weight="bold" fill="#111827">the new customer can</text>
  <text x="1225.0" y="189.8" text-anchor="middle" font-family="Arial, sans-serif" font-size="11" font-weight="bold" fill="#111827">use the selected Horizon</text>
  <text x="1225.0" y="204.2" text-anchor="middle" font-family="Arial, sans-serif" font-size="11" font-weight="bold" fill="#111827">Bank channels and</text>
  <text x="1225.0" y="218.4" text-anchor="middle" font-family="Arial, sans-serif" font-size="11" font-weight="bold" fill="#111827">products.</text>
  <rect x="20.0" y="470.0" width="1140.0" height="70.0" rx="8" ry="8" fill="#FFF8DC" stroke="#8A6D3B" stroke-width="1"/>
  <text x="26.0" y="487.0" text-anchor="start" font-family="Arial, sans-serif" font-size="11" fill="#111827">Note: Each stage is a stakeholder-value outcome, not an internal activity. Capabilities beneath each stage enable it; capability names are controlled (examples/horizon-bank/capabilities.md). Use BPMN for detailed onboarding</text>
  <text x="26.0" y="501.3" text-anchor="start" font-family="Arial, sans-serif" font-size="11" fill="#111827">exceptions, roles, sequence and hand-offs. This is not a customer journey or Lean value stream map.</text>
  <path d="M150.0 158.9 L206.8 136.0" fill="none" stroke="#475467" stroke-width="1.2"/>
  <polygon points="206.8,136.0 200.1,143.4 196.8,135.3" fill="#475467"/>
  <rect x="128.0" y="125.5" width="44.0" height="17.0" rx="3" ry="3" fill="#FFFFFF" stroke="#B0B7C3" stroke-width="0.8"/>
  <text x="150.0" y="136.5" text-anchor="middle" font-family="Arial, sans-serif" font-size="10" fill="#1D2939">triggers</text>
  <path d="M348.0 113.0 L374.0 113.0" fill="none" stroke="#475467" stroke-width="1.2"/>
  <polygon points="374.0,113.0 365.0,117.3 365.0,108.7" fill="#475467"/>
  <path d="M542.0 113.0 L568.0 113.0" fill="none" stroke="#475467" stroke-width="1.2"/>
  <polygon points="568.0,113.0 559.0,117.3 559.0,108.7" fill="#475467"/>
  <path d="M736.0 113.0 L762.0 113.0" fill="none" stroke="#475467" stroke-width="1.2"/>
  <polygon points="762.0,113.0 753.0,117.3 753.0,108.7" fill="#475467"/>
  <path d="M930.0 113.0 L956.0 113.0" fill="none" stroke="#475467" stroke-width="1.2"/>
  <polygon points="956.0,113.0 947.0,117.3 947.0,108.7" fill="#475467"/>
  <path d="M1098.3 136.0 L1150.0 156.4" fill="none" stroke="#475467" stroke-width="1.2"/>
  <polygon points="1150.0,156.4 1140.0,157.1 1143.2,149.1" fill="#475467"/>
  <rect x="1098.6" y="137.7" width="51.0" height="17.0" rx="3" ry="3" fill="#FFFFFF" stroke="#B0B7C3" stroke-width="0.8"/>
  <text x="1124.1" y="148.7" text-anchor="middle" font-family="Arial, sans-serif" font-size="10" fill="#1D2939">achieves</text>
</svg>
