<?xml version="1.0" encoding="us-ascii" standalone="no"?><svg xmlns="http://www.w3.org/2000/svg" xmlns:xlink="http://www.w3.org/1999/xlink" contentStyleType="text/css" height="400px" preserveAspectRatio="none" style="width:524px;height:400px;background:#FFFFFF;" version="1.1" viewBox="0 0 524 400" width="524px" zoomAndPan="magnify"><defs/><g><text fill="#000000" font-family="Arial" font-size="14" font-weight="bold" lengthAdjust="spacing" textLength="389" x="66" y="33.1318">FIG-09-02. Online Store Product Eligibility Decision Tree</text><ellipse cx="290" cy="57.0986" fill="#222222" rx="10" ry="10" style="stroke:#222222;stroke-width:1.0;"/><polygon fill="#F1F1F1" points="226,87.0986,354,87.0986,366,99.0986,354,111.0986,226,111.0986,214,99.0986,226,87.0986" style="stroke:#181818;stroke-width:0.5;"/><text fill="#000000" font-family="Arial" font-size="15" lengthAdjust="spacing" textLength="128" x="226" y="104.5442">Restricted product?</text><text fill="#000000" font-family="Arial" font-size="15" lengthAdjust="spacing" textLength="23" x="191" y="95.9199">yes</text><text fill="#000000" font-family="Arial" font-size="15" lengthAdjust="spacing" textLength="16" x="366" y="95.9199">no</text><polygon fill="#F1F1F1" points="100,121.0986,226,121.0986,238,138.3472,226,155.5957,100,155.5957,88,138.3472,100,121.0986" style="stroke:#181818;stroke-width:0.5;"/><text fill="#000000" font-family="Arial" font-size="15" lengthAdjust="spacing" textLength="126" x="100" y="135.1685">Destination allowed</text><text fill="#000000" font-family="Arial" font-size="15" lengthAdjust="spacing" textLength="122" x="100" y="152.417">for restricted item?</text><text fill="#000000" font-family="Arial" font-size="15" lengthAdjust="spacing" textLength="23" x="65" y="135.1685">yes</text><text fill="#000000" font-family="Arial" font-size="15" lengthAdjust="spacing" textLength="16" x="238" y="135.1685">no</text><rect fill="#F1F1F1" height="54.4971" rx="12.5" ry="12.5" style="stroke:#181818;stroke-width:0.5;" width="134" x="11" y="165.5957"/><text fill="#000000" font-family="Arial" font-size="15" lengthAdjust="spacing" textLength="76" x="21" y="189.6655">Eligible with</text><text fill="#000000" font-family="Arial" font-size="15" lengthAdjust="spacing" textLength="114" x="21" y="206.9141">restricted delivery</text><rect fill="#F1F1F1" height="37.2485" rx="12.5" ry="12.5" style="stroke:#181818;stroke-width:0.5;" width="90" x="203" y="165.5957"/><text fill="#000000" font-family="Arial" font-size="15" lengthAdjust="spacing" textLength="70" x="213" y="189.6655">Not eligible</text><polygon fill="#F1F1F1" points="163,226.0928,175,238.0928,163,250.0928,151,238.0928,163,226.0928" style="stroke:#181818;stroke-width:0.5;"/><polygon fill="#F1F1F1" points="388,121.0986,446,121.0986,458,133.0986,446,145.0986,388,145.0986,376,133.0986,388,121.0986" style="stroke:#181818;stroke-width:0.5;"/><text fill="#000000" font-family="Arial" font-size="15" lengthAdjust="spacing" textLength="58" x="388" y="138.5442">In stock?</text><text fill="#000000" font-family="Arial" font-size="15" lengthAdjust="spacing" textLength="23" x="353" y="129.9199">yes</text><text fill="#000000" font-family="Arial" font-size="15" lengthAdjust="spacing" textLength="16" x="458" y="129.9199">no</text><rect fill="#F1F1F1" height="37.2485" rx="12.5" ry="12.5" style="stroke:#181818;stroke-width:0.5;" width="66" x="333" y="155.0986"/><text fill="#000000" font-family="Arial" font-size="15" lengthAdjust="spacing" textLength="46" x="343" y="179.1685">Eligible</text><rect fill="#F1F1F1" height="37.2485" rx="12.5" ry="12.5" style="stroke:#181818;stroke-width:0.5;" width="90" x="423" y="155.0986"/><text fill="#000000" font-family="Arial" font-size="15" lengthAdjust="spacing" textLength="70" x="433" y="179.1685">Not eligible</text><polygon fill="#F1F1F1" points="417,198.3472,429,210.3472,417,222.3472,405,210.3472,417,198.3472" style="stroke:#181818;stroke-width:0.5;"/><polygon fill="#F1F1F1" points="290,256.0928,302,268.0928,290,280.0928,278,268.0928,290,256.0928" style="stroke:#181818;stroke-width:0.5;"/><ellipse cx="290" cy="311.0928" fill="none" rx="11" ry="11" style="stroke:#222222;stroke-width:1.0;"/><ellipse cx="290" cy="311.0928" fill="#222222" rx="6" ry="6" style="stroke:#222222;stroke-width:1.0;"/><line style="stroke:#333333;stroke-width:1.2;" x1="88" x2="78" y1="138.3472" y2="138.3472"/><line style="stroke:#333333;stroke-width:1.2;" x1="78" x2="78" y1="138.3472" y2="165.5957"/><polygon fill="#333333" points="74,155.5957,78,165.5957,82,155.5957,78,159.5957" style="stroke:#333333;stroke-width:1.0;"/><line style="stroke:#333333;stroke-width:1.2;" x1="238" x2="248" y1="138.3472" y2="138.3472"/><line style="stroke:#333333;stroke-width:1.2;" x1="248" x2="248" y1="138.3472" y2="165.5957"/><polygon fill="#333333" points="244,155.5957,248,165.5957,252,155.5957,248,159.5957" style="stroke:#333333;stroke-width:1.0;"/><line style="stroke:#333333;stroke-width:1.2;" x1="78" x2="78" y1="220.0928" y2="238.0928"/><line style="stroke:#333333;stroke-width:1.2;" x1="78" x2="151" y1="238.0928" y2="238.0928"/><polygon fill="#333333" points="141,234.0928,151,238.0928,141,242.0928,145,238.0928" style="stroke:#333333;stroke-width:1.0;"/><line style="stroke:#333333;stroke-width:1.2;" x1="248" x2="248" y1="202.8442" y2="238.0928"/><line style="stroke:#333333;stroke-width:1.2;" x1="248" x2="175" y1="238.0928" y2="238.0928"/><polygon fill="#333333" points="185,234.0928,175,238.0928,185,242.0928,181,238.0928" style="stroke:#333333;stroke-width:1.0;"/><line style="stroke:#333333;stroke-width:1.2;" x1="376" x2="366" y1="133.0986" y2="133.0986"/><line style="stroke:#333333;stroke-width:1.2;" x1="366" x2="366" y1="133.0986" y2="155.0986"/><polygon fill="#333333" points="362,145.0986,366,155.0986,370,145.0986,366,149.0986" style="stroke:#333333;stroke-width:1.0;"/><line style="stroke:#333333;stroke-width:1.2;" x1="458" x2="468" y1="133.0986" y2="133.0986"/><line style="stroke:#333333;stroke-width:1.2;" x1="468" x2="468" y1="133.0986" y2="155.0986"/><polygon fill="#333333" points="464,145.0986,468,155.0986,472,145.0986,468,149.0986" style="stroke:#333333;stroke-width:1.0;"/><line style="stroke:#333333;stroke-width:1.2;" x1="366" x2="366" y1="192.3472" y2="210.3472"/><line style="stroke:#333333;stroke-width:1.2;" x1="366" x2="405" y1="210.3472" y2="210.3472"/><polygon fill="#333333" points="395,206.3472,405,210.3472,395,214.3472,399,210.3472" style="stroke:#333333;stroke-width:1.0;"/><line style="stroke:#333333;stroke-width:1.2;" x1="468" x2="468" y1="192.3472" y2="210.3472"/><line style="stroke:#333333;stroke-width:1.2;" x1="468" x2="429" y1="210.3472" y2="210.3472"/><polygon fill="#333333" points="439,206.3472,429,210.3472,439,214.3472,435,210.3472" style="stroke:#333333;stroke-width:1.0;"/><line style="stroke:#333333;stroke-width:1.2;" x1="214" x2="163" y1="99.0986" y2="99.0986"/><line style="stroke:#333333;stroke-width:1.2;" x1="163" x2="163" y1="99.0986" y2="121.0986"/><polygon fill="#333333" points="159,111.0986,163,121.0986,167,111.0986,163,115.0986" style="stroke:#333333;stroke-width:1.0;"/><line style="stroke:#333333;stroke-width:1.2;" x1="366" x2="417" y1="99.0986" y2="99.0986"/><line style="stroke:#333333;stroke-width:1.2;" x1="417" x2="417" y1="99.0986" y2="121.0986"/><polygon fill="#333333" points="413,111.0986,417,121.0986,421,111.0986,417,115.0986" style="stroke:#333333;stroke-width:1.0;"/><line style="stroke:#333333;stroke-width:1.2;" x1="163" x2="163" y1="250.0928" y2="268.0928"/><line style="stroke:#333333;stroke-width:1.2;" x1="163" x2="278" y1="268.0928" y2="268.0928"/><polygon fill="#333333" points="268,264.0928,278,268.0928,268,272.0928,272,268.0928" style="stroke:#333333;stroke-width:1.0;"/><line style="stroke:#333333;stroke-width:1.2;" x1="417" x2="417" y1="222.3472" y2="268.0928"/><line style="stroke:#333333;stroke-width:1.2;" x1="417" x2="302" y1="268.0928" y2="268.0928"/><polygon fill="#333333" points="312,264.0928,302,268.0928,312,272.0928,308,268.0928" style="stroke:#333333;stroke-width:1.0;"/><line style="stroke:#333333;stroke-width:1.2;" x1="290" x2="290" y1="67.0986" y2="87.0986"/><polygon fill="#333333" points="286,77.0986,290,87.0986,294,77.0986,290,81.0986" style="stroke:#333333;stroke-width:1.0;"/><line style="stroke:#333333;stroke-width:1.2;" x1="290" x2="290" y1="280.0928" y2="300.0928"/><polygon fill="#333333" points="286,290.0928,290,300.0928,294,290.0928,290,294.0928" style="stroke:#333333;stroke-width:1.0;"/><rect fill="none" height="42.1973" id="_legend" rx="7.5" ry="7.5" style="stroke:#000000;stroke-width:1.0;" width="429" x="46" y="333.0928"/><text fill="#000000" font-family="Arial" font-size="14" lengthAdjust="spacing" textLength="205" x="51" y="351.2246">General decision-modelling tree.</text><text fill="#000000" font-family="Arial" font-size="14" lengthAdjust="spacing" textLength="419" x="51" y="367.3232">This is not a formal DMN Decision Requirements Diagram element.</text><!--SRC=[ZL6nRi903DtlAzmD1WAjrA7jq8M264ehO6Gv4XCi75zwvnIbNr-7L09rg2fPfplxlUTtzWr9pas1a6LZYwGjOnhNx4MRYaTwm0gpsgxEAIaZp1RpqUHXDBdBu4sO166j8IAynr0qkS8BKqaxOj8MffXJeY2mYOZEfID9xQEleC2zRrXdGNHDNmYtzrPL7zNH7WOhJ1efLooWxbMVXs1E10Ojfg43w51JGv5uxVGzSpXXiPLzY10lT5AiVdC17dkFzfaJwM4hLuG2cJunjay6H4u80ma_f6LGI_N4SraAshjhKETg8P0qvCS_klvV-toQNEqSOsbFs0NLK1bYZeBHindkHpogWdctVPIWDkpC89i39R0G4_TWawaCFtrTNjQome-6ecrODC6KVDdj1lcSoBhsVTTl]--></g></svg>