<?xml version="1.0" encoding="us-ascii" standalone="no"?><svg xmlns="http://www.w3.org/2000/svg" xmlns:xlink="http://www.w3.org/1999/xlink" contentStyleType="text/css" height="917px" preserveAspectRatio="none" style="width:1293px;height:917px;background:#FFFFFF;" version="1.1" viewBox="0 0 1293 917" width="1293px" zoomAndPan="magnify"><defs/><g><text fill="#000000" font-family="Arial" font-size="14" font-weight="bold" lengthAdjust="spacing" textLength="323" x="478" y="23.1318">FIG-09-03. Horizon Bank Payment Routing DRD</text><!--entity PaymentInstruction--><g id="elem_PaymentInstruction"><rect fill="#FFFFFF" height="52.1973" rx="2.5" ry="2.5" style="stroke:#333333;stroke-width:0.5;" width="144" x="7" y="93.0986"/><text fill="#000000" font-family="Arial" font-size="14" lengthAdjust="spacing" textLength="124" x="17" y="116.2305">Payment Instruction</text><text fill="#000000" font-family="Arial" font-size="14" lengthAdjust="spacing" textLength="81" x="17" y="132.3291">&#171;Input Data&#187;</text></g><!--entity AccountStatus--><g id="elem_AccountStatus"><rect fill="#FFFFFF" height="52.1973" rx="2.5" ry="2.5" style="stroke:#333333;stroke-width:0.5;" width="115" x="228" y="168.0986"/><text fill="#000000" font-family="Arial" font-size="14" lengthAdjust="spacing" textLength="95" x="238" y="191.2305">Account Status</text><text fill="#000000" font-family="Arial" font-size="14" lengthAdjust="spacing" textLength="81" x="238" y="207.3291">&#171;Input Data&#187;</text></g><!--entity ScreeningResult--><g id="elem_ScreeningResult"><rect fill="#FFFFFF" height="52.1973" rx="2.5" ry="2.5" style="stroke:#333333;stroke-width:0.5;" width="128" x="454.5" y="307.0986"/><text fill="#000000" font-family="Arial" font-size="14" lengthAdjust="spacing" textLength="108" x="464.5" y="330.2305">Screening Result</text><text fill="#000000" font-family="Arial" font-size="14" lengthAdjust="spacing" textLength="81" x="464.5" y="346.3291">&#171;Input Data&#187;</text></g><!--entity CutoffStatus--><g id="elem_CutoffStatus"><rect fill="#FFFFFF" height="52.1973" rx="2.5" ry="2.5" style="stroke:#333333;stroke-width:0.5;" width="169" x="723" y="307.0986"/><text fill="#000000" font-family="Arial" font-size="14" lengthAdjust="spacing" textLength="149" x="733" y="330.2305">Payment Cut-Off Status</text><text fill="#000000" font-family="Arial" font-size="14" lengthAdjust="spacing" textLength="81" x="733" y="346.3291">&#171;Input Data&#187;</text></g><!--entity InfoReq--><g id="elem_InfoReq"><rect fill="#FFFFFF" height="52.1973" rx="2.5" ry="2.5" style="stroke:#333333;stroke-width:0.5;" width="103" x="1131.5" y="434.0986"/><text fill="#000000" font-family="Arial" font-size="14" lengthAdjust="spacing" textLength="70" x="1141.5" y="457.2305">Information</text><text fill="#000000" font-family="Arial" font-size="14" lengthAdjust="spacing" textLength="83" x="1141.5" y="473.3291">requirements</text></g><!--entity RoutingRules--><g id="elem_RoutingRules"><rect fill="#EAF6E8" height="52.1973" rx="2.5" ry="2.5" style="stroke:#333333;stroke-width:0.5;" width="208" x="1079" y="561.0986"/><text fill="#000000" font-family="Arial" font-size="14" lengthAdjust="spacing" textLength="148" x="1089" y="584.2305">Payment Routing Rules</text><text fill="#000000" font-family="Arial" font-size="14" lengthAdjust="spacing" textLength="188" x="1089" y="600.3291">&#171;Business Knowledge Model&#187;</text></g><!--entity PaymentsPolicy--><g id="elem_PaymentsPolicy"><rect fill="#FFF4D6" height="52.1973" rx="2.5" ry="2.5" style="stroke:#333333;stroke-width:0.5;" width="197" x="420" y="673.0986"/><text fill="#000000" font-family="Arial" font-size="14" lengthAdjust="spacing" textLength="177" x="430" y="696.2305">Payments Operations Policy</text><text fill="#000000" font-family="Arial" font-size="14" lengthAdjust="spacing" textLength="134" x="430" y="712.3291">&#171;Knowledge Source&#187;</text></g><!--entity ScreeningPolicy--><g id="elem_ScreeningPolicy"><rect fill="#FFF4D6" height="52.1973" rx="2.5" ry="2.5" style="stroke:#333333;stroke-width:0.5;" width="227" x="694" y="604.0986"/><text fill="#000000" font-family="Arial" font-size="14" lengthAdjust="spacing" textLength="207" x="704" y="627.2305">Financial Crime Screening Policy</text><text fill="#000000" font-family="Arial" font-size="14" lengthAdjust="spacing" textLength="134" x="704" y="643.3291">&#171;Knowledge Source&#187;</text></g><!--entity PaymentRoute--><g id="elem_PaymentRoute"><rect fill="#DDEEFF" height="100.4932" rx="2.5" ry="2.5" style="stroke:#333333;stroke-width:0.5;" width="186" x="1090" y="706.0986"/><text fill="#000000" font-family="Arial" font-size="14" lengthAdjust="spacing" textLength="166" x="1100" y="729.2305">Determine Payment Route</text><text fill="#000000" font-family="Arial" font-size="14" lengthAdjust="spacing" textLength="70" x="1100" y="745.3291">&#171;Decision&#187;</text><text fill="#000000" font-family="Arial" font-size="14" lengthAdjust="spacing" textLength="4" x="1100" y="761.4277">&#160;</text><text fill="#000000" font-family="Arial" font-size="14" lengthAdjust="spacing" textLength="155" x="1100" y="777.5264">Result: Proceed, Repair,</text><text fill="#000000" font-family="Arial" font-size="14" lengthAdjust="spacing" textLength="156" x="1100" y="793.625">Manual Review or Reject</text></g><!--link PaymentInstruction to AccountStatus--><!--link AccountStatus to ScreeningResult--><!--link ScreeningResult to CutoffStatus--><!--link CutoffStatus to InfoReq--><!--link CutoffStatus to InfoReq--><g id="link_CutoffStatus_InfoReq"><path d="M892.32,337.3586 C975.13,357.8586 1091.9871,399.0403 1147.4571,430.9003 " fill="none" id="CutoffStatus-to-InfoReq-1" style="stroke:#333333;stroke-width:1.2;"/><polygon fill="#333333" points="1152.66,433.8886,1146.8479,425.9375,1148.3243,431.3983,1142.8635,432.8747,1152.66,433.8886" style="stroke:#333333;stroke-width:1.2;"/></g><!--link InfoReq to PaymentRoute--><!--link InfoReq to PaymentRoute--><g id="link_InfoReq_PaymentRoute"><path d="M1131.39,483.2486 C1113.05,493.4286 1093.4,506.8086 1079,523.0986 C938.9,681.5886 985.98,680.9986 1005,706.0986 C1024.97,732.4486 1051.7974,744.5077 1083.7774,750.9277 " fill="none" id="InfoReq-to-PaymentRoute-1" style="stroke:#333333;stroke-width:1.2;"/><polygon fill="#333333" points="1089.66,752.1086,1081.6233,746.4155,1084.7578,751.1245,1080.0488,754.259,1089.66,752.1086" style="stroke:#333333;stroke-width:1.2;"/><text fill="#000000" font-family="Arial" font-size="14" lengthAdjust="spacing" textLength="48" x="976" y="702.2305">info req</text></g><!--link PaymentsPolicy to ScreeningPolicy--><!--link ScreeningPolicy to RoutingRules--><!--link ScreeningPolicy to RoutingRules--><g id="link_ScreeningPolicy_RoutingRules"><path d="M921.37,611.1886 C934.05,609.3286 946.79,607.5886 959,606.0986 C998.05,601.3286 1035.1196,597.8431 1072.8896,594.7831 " fill="none" id="ScreeningPolicy-to-RoutingRules-1" style="stroke:#333333;stroke-width:1.2;"/><polygon fill="#333333" points="1078.87,594.2986,1069.5764,591.0385,1073.8863,594.7024,1070.2224,599.0123,1078.87,594.2986" style="stroke:#333333;stroke-width:1.2;"/><text fill="#000000" font-family="Arial" font-size="14" lengthAdjust="spacing" textLength="80" x="960" y="594.2305">authority req</text></g><!--link PaymentInstruction to InfoReq--><g id="link_PaymentInstruction_InfoReq"><path d="M122.96,92.9486 C163.21,70.9586 225.79,43.0986 284.5,43.0986 C284.5,43.0986 284.5,43.0986 808.5,43.0986 C1019.4,43.0986 1139.1347,337.0601 1171.3247,428.3501 " fill="none" id="PaymentInstruction-to-InfoReq" style="stroke:#333333;stroke-width:1.2;"/><polygon fill="#333333" points="1173.32,434.0086,1174.0994,424.1907,1171.6573,429.2932,1166.5547,426.851,1173.32,434.0086" style="stroke:#333333;stroke-width:1.2;"/></g><!--link AccountStatus to InfoReq--><g id="link_AccountStatus_InfoReq"><path d="M343.37,187.8086 C476.72,175.9786 815.25,163.2186 1041,306.0986 C1094.76,340.1186 1137.6422,394.9442 1161.4622,429.1642 " fill="none" id="AccountStatus-to-InfoReq" style="stroke:#333333;stroke-width:1.2;"/><polygon fill="#333333" points="1164.89,434.0886,1163.0312,424.4168,1162.0335,429.9849,1156.4653,428.9872,1164.89,434.0886" style="stroke:#333333;stroke-width:1.2;"/></g><!--link ScreeningResult to InfoReq--><g id="link_ScreeningResult_InfoReq"><path d="M581.5,359.1786 C614.4,372.0786 655.82,386.8186 694,396.0986 C850.93,434.2386 1036.1441,450.5379 1125.4741,456.6679 " fill="none" id="ScreeningResult-to-InfoReq" style="stroke:#333333;stroke-width:1.2;"/><polygon fill="#333333" points="1131.46,457.0786,1122.755,452.4719,1126.4717,456.7363,1122.2073,460.4531,1131.46,457.0786" style="stroke:#333333;stroke-width:1.2;"/></g><!--link RoutingRules to PaymentRoute--><g id="link_RoutingRules_PaymentRoute"><path d="M1183,613.4086 C1183,638.0386 1183,669.4986 1183,699.8486 " fill="none" id="RoutingRules-to-PaymentRoute" style="stroke:#333333;stroke-width:1.2;"/><polygon fill="#333333" points="1183,705.8486,1187,696.8486,1183,700.8486,1179,696.8486,1183,705.8486" style="stroke:#333333;stroke-width:1.2;"/><text fill="#000000" font-family="Arial" font-size="14" lengthAdjust="spacing" textLength="92" x="1125" y="664.7305">knowledge req</text></g><!--link PaymentsPolicy to RoutingRules--><g id="link_PaymentsPolicy_RoutingRules"><path d="M617.15,724.1986 C725.76,746.8986 903.96,768.2986 1041,707.0986 C1063.1,697.2286 1061,684.2786 1079,668.0986 C1100.48,648.7786 1121.2165,632.3205 1141.4765,616.9805 " fill="none" id="PaymentsPolicy-to-RoutingRules" style="stroke:#333333;stroke-width:1.2;"/><polygon fill="#333333" points="1146.26,613.3586,1136.6701,615.6024,1142.2737,616.3769,1141.4993,621.9805,1146.26,613.3586" style="stroke:#333333;stroke-width:1.2;"/><text fill="#000000" font-family="Arial" font-size="14" lengthAdjust="spacing" textLength="80" x="767.5" y="733.2305">authority req</text></g><rect fill="none" height="74.3945" id="_legend" rx="7.5" ry="7.5" style="stroke:#000000;stroke-width:1.0;" width="730" x="274.5" y="823.5918"/><text fill="#000000" font-family="Arial" font-size="14" lengthAdjust="spacing" textLength="300" x="279.5" y="841.7236">DMN-style decision requirements teaching view.</text><text fill="#000000" font-family="Arial" font-size="14" lengthAdjust="spacing" textLength="720" x="279.5" y="857.8223">info req = information requirement; knowledge req = knowledge requirement; authority req = authority requirement.</text><text fill="#000000" font-family="Arial" font-size="14" lengthAdjust="spacing" textLength="627" x="279.5" y="873.9209">Arrows point from required information, knowledge or authority to the decision or governed element.</text><text fill="#000000" font-family="Arial" font-size="14" lengthAdjust="spacing" textLength="367" x="279.5" y="890.0195">This is not process sequence and not semantic .dmn XML.</text><!--SRC=[ZLLDRzD04BtlhnZQQ-rM0WgK4gcj4uWWj4ev854EYpr9bjgpxduq2h-UiMCtQzSjM3xOdZTlljwiNoXASvyXnF4XtzPjShI7PIx9-IAFt0eBZ4j-52B7XGEdmQZboa6c3APEQH9EkHnXClqO7RsBZbx6y4aRzKSJd4kwXIkvAP0SpBLtYfQGp1CXxAsYKXfP0EaCBPRmvdNmqR1Zyr5KKIGjES9UIpKbwuolWz_GwUcKIkyWaKwEHdiWRHioWC7-fBv2jhCqrPxPhfrqtWuIDP0jOeZZEZM8L9KrH-jpDyZo0DfYXdZQoYwyYouNY-ToOeXUB7efXLnJMcXJo6rt3Dvv7bH5RcltoZh7k-UIQ2Srzoo5AeTpRnMXjV2Pz3h7R8amux7bJKODleR3_lXiSZn-Ey1huR94K-V58zAvIZSL-OxpMdkJOdU6TWkiqtsL78Uq4qMIKYLpk32gm5sR_qt-0EsnX_G9EZG5rzrHC5Qi2QRASXcZqGstU3lL4xWoEaNC3bWAfLJcu8PcaZodDyTxXMlGXfz-Su2mlfeJzfDaFAx6EA3SADDh-h5IMORqCnfrDIcw2krZUyeJVINsyQ6sH4TeKRtq0RJHaMZrz0WG5YXwqtmopwrTzEVJnuUA6svQa66lHO7bKJi2MxVw9mlk5GedeDWEl7QYinPFeMyV15gvzDlKEdMeJa1wj-8ZrcrgfqVD-YylFisNI1dyqixfGYIphr5zzaFMY1l2emCSodHLxLObvLYqHSA7kjxck0bTtdTBOs3dVGVhfCMmpdiBYyMPCNfjeTIADt5XTD6Qip23Wo0AxzkEYtzR_2lR5SV6fRv7G-oFUHFZsqfPu9kqWxBQPZxoB4T1IX4aDwioM2putwXIYBE2uFliIoouZzjk_WK0]--></g></svg>