<?xml version="1.0" encoding="us-ascii" standalone="no"?><svg xmlns="http://www.w3.org/2000/svg" xmlns:xlink="http://www.w3.org/1999/xlink" contentStyleType="text/css" height="466px" preserveAspectRatio="none" style="width:1373px;height:466px;background:#FFFFFF;" version="1.1" viewBox="0 0 1373 466" width="1373px" zoomAndPan="magnify"><defs/><g><text fill="#000000" font-family="Arial" font-size="14" font-weight="bold" lengthAdjust="spacing" textLength="340" x="509.5" y="23.1318">FIG-11-04. Horizon Bank Hybrid Deployment View</text><!--cluster ChannelBoundary--><g id="cluster_ChannelBoundary"><rect fill="#F7F9FB" height="113" rx="2.5" ry="2.5" style="stroke:#333333;stroke-width:1.0;" width="216" x="7" y="117.0986"/><text fill="#000000" font-family="Arial" font-size="14" font-weight="bold" lengthAdjust="spacing" textLength="200" x="15" y="132.2305">Customer and Channel Edge</text></g><!--cluster CloudBoundary--><g id="cluster_CloudBoundary"><rect fill="#F7F9FB" height="190" rx="2.5" ry="2.5" style="stroke:#333333;stroke-width:1.0;" width="956" x="361" y="44.0986"/><text fill="#000000" font-family="Arial" font-size="14" font-weight="bold" lengthAdjust="spacing" textLength="174" x="752" y="59.2305">Cloud Platform Boundary</text><text fill="#000000" font-family="Arial" font-size="14" font-weight="bold" lengthAdjust="spacing" textLength="178" x="750" y="75.3291">Target payment platforms</text></g><!--cluster IntegrationBoundary--><g id="cluster_IntegrationBoundary"><rect fill="#F7F9FB" height="129" rx="2.5" ry="2.5" style="stroke:#333333;stroke-width:1.0;" width="282" x="676" y="258.0986"/><text fill="#000000" font-family="Arial" font-size="14" font-weight="bold" lengthAdjust="spacing" textLength="226" x="704" y="273.2305">Controlled Integration Boundary</text><text fill="#000000" font-family="Arial" font-size="14" font-weight="bold" lengthAdjust="spacing" textLength="266" x="684" y="289.3291">Policy, routing and protocol mediation</text></g><!--cluster CoreBoundary--><g id="cluster_CoreBoundary"><rect fill="#F7F9FB" height="129" rx="2.5" ry="2.5" style="stroke:#333333;stroke-width:1.0;" width="250" x="1117" y="258.0986"/><text fill="#000000" font-family="Arial" font-size="14" font-weight="bold" lengthAdjust="spacing" textLength="234" x="1125" y="273.2305">Retained Core-Banking Boundary</text><text fill="#000000" font-family="Arial" font-size="14" font-weight="bold" lengthAdjust="spacing" textLength="186" x="1149" y="289.3291">Not shown as cloud-native</text></g><!--entity Channels--><g id="elem_Channels"><rect fill="#FFFFFF" height="62.1973" rx="2.5" ry="2.5" style="stroke:#333333;stroke-width:0.5;" width="130" x="50" y="152.0986"/><rect fill="#FFFFFF" height="10" style="stroke:#333333;stroke-width:0.5;" width="15" x="160" y="157.0986"/><rect fill="#FFFFFF" height="2" style="stroke:#333333;stroke-width:0.5;" width="4" x="158" y="159.0986"/><rect fill="#FFFFFF" height="2" style="stroke:#333333;stroke-width:0.5;" width="4" x="158" y="163.0986"/><text fill="#000000" font-family="Arial" font-size="14" lengthAdjust="spacing" textLength="90" x="65" y="185.2305">Horizon Digital</text><text fill="#000000" font-family="Arial" font-size="14" lengthAdjust="spacing" textLength="60" x="65" y="201.3291">Channels</text></g><!--entity Payments--><g id="elem_Payments"><rect fill="#FFFFFF" height="62.1973" rx="2.5" ry="2.5" style="stroke:#333333;stroke-width:0.5;" width="102" x="377" y="152.0986"/><rect fill="#FFFFFF" height="10" style="stroke:#333333;stroke-width:0.5;" width="15" x="459" y="157.0986"/><rect fill="#FFFFFF" height="2" style="stroke:#333333;stroke-width:0.5;" width="4" x="457" y="159.0986"/><rect fill="#FFFFFF" height="2" style="stroke:#333333;stroke-width:0.5;" width="4" x="457" y="163.0986"/><text fill="#000000" font-family="Arial" font-size="14" lengthAdjust="spacing" textLength="62" x="392" y="185.2305">Payments</text><text fill="#000000" font-family="Arial" font-size="14" lengthAdjust="spacing" textLength="52" x="392" y="201.3291">Platform</text></g><!--entity FinancialCrime--><g id="elem_FinancialCrime"><rect fill="#FFFFFF" height="62.1973" rx="2.5" ry="2.5" style="stroke:#333333;stroke-width:0.5;" width="138" x="748" y="156.0986"/><rect fill="#FFFFFF" height="10" style="stroke:#333333;stroke-width:0.5;" width="15" x="866" y="161.0986"/><rect fill="#FFFFFF" height="2" style="stroke:#333333;stroke-width:0.5;" width="4" x="864" y="163.0986"/><rect fill="#FFFFFF" height="2" style="stroke:#333333;stroke-width:0.5;" width="4" x="864" y="167.0986"/><text fill="#000000" font-family="Arial" font-size="14" lengthAdjust="spacing" textLength="98" x="763" y="189.2305">Financial Crime</text><text fill="#000000" font-family="Arial" font-size="14" lengthAdjust="spacing" textLength="52" x="763" y="205.3291">Platform</text></g><!--entity EventPlatform--><g id="elem_EventPlatform"><path d="M766,95.0986 L868,95.0986 C873,95.0986 873,108.1479 873,108.1479 C873,108.1479 873,121.1973 868,121.1973 L766,121.1973 C761,121.1973 761,108.1479 761,108.1479 C761,108.1479 761,95.0986 766,95.0986 " fill="#F1F1F1" style="stroke:#181818;stroke-width:0.5;"/><path d="M868,95.0986 C863,95.0986 863,108.1479 863,108.1479 C863,121.1973 868,121.1973 868,121.1973 " fill="none" style="stroke:#181818;stroke-width:0.5;"/><text fill="#000000" font-family="Arial" font-size="14" lengthAdjust="spacing" textLength="92" x="766" y="113.2305">Event Platform</text></g><!--entity DataPlatform--><g id="elem_DataPlatform"><path d="M1182,105.5986 C1182,95.5986 1241.5,95.5986 1241.5,95.5986 C1241.5,95.5986 1301,95.5986 1301,105.5986 L1301,146.7959 C1301,156.7959 1241.5,156.7959 1241.5,156.7959 C1241.5,156.7959 1182,156.7959 1182,146.7959 L1182,105.5986 " fill="#F2F5F7" style="stroke:#333333;stroke-width:0.5;"/><path d="M1182,105.5986 C1182,115.5986 1241.5,115.5986 1241.5,115.5986 C1241.5,115.5986 1301,115.5986 1301,105.5986 " fill="none" style="stroke:#333333;stroke-width:0.5;"/><text fill="#000000" font-family="Arial" font-size="14" lengthAdjust="spacing" textLength="99" x="1192" y="132.7305">Enterprise Data</text><text fill="#000000" font-family="Arial" font-size="14" lengthAdjust="spacing" textLength="52" x="1192" y="148.8291">Platform</text></g><!--entity Integration--><g id="elem_Integration"><rect fill="#FFFFFF" height="62.1973" rx="2.5" ry="2.5" style="stroke:#333333;stroke-width:0.5;" width="176" x="729" y="309.0986"/><rect fill="#FFFFFF" height="10" style="stroke:#333333;stroke-width:0.5;" width="15" x="885" y="314.0986"/><rect fill="#FFFFFF" height="2" style="stroke:#333333;stroke-width:0.5;" width="4" x="883" y="316.0986"/><rect fill="#FFFFFF" height="2" style="stroke:#333333;stroke-width:0.5;" width="4" x="883" y="320.0986"/><text fill="#000000" font-family="Arial" font-size="14" lengthAdjust="spacing" textLength="136" x="744" y="342.2305">Enterprise Integration</text><text fill="#000000" font-family="Arial" font-size="14" lengthAdjust="spacing" textLength="52" x="744" y="358.3291">Platform</text></g><!--entity CoreDeposit--><g id="elem_CoreDeposit"><path d="M1190,319.5986 C1190,309.5986 1241.5,309.5986 1241.5,309.5986 C1241.5,309.5986 1293,309.5986 1293,319.5986 L1293,360.7959 C1293,370.7959 1241.5,370.7959 1241.5,370.7959 C1241.5,370.7959 1190,370.7959 1190,360.7959 L1190,319.5986 " fill="#F2F5F7" style="stroke:#333333;stroke-width:0.5;"/><path d="M1190,319.5986 C1190,329.5986 1241.5,329.5986 1241.5,329.5986 C1241.5,329.5986 1293,329.5986 1293,319.5986 " fill="none" style="stroke:#333333;stroke-width:0.5;"/><text fill="#000000" font-family="Arial" font-size="14" lengthAdjust="spacing" textLength="83" x="1200" y="346.7305">Core Deposit</text><text fill="#000000" font-family="Arial" font-size="14" lengthAdjust="spacing" textLength="46" x="1200" y="362.8291">System</text></g><!--link Channels to Payments--><g id="link_Channels_Payments"><path d="M180.06,183.0986 C238.39,183.0986 317.33,183.0986 370.84,183.0986 " fill="none" id="Channels-to-Payments" style="stroke:#333333;stroke-width:1.2;"/><polygon fill="#333333" points="376.84,183.0986,367.84,179.0986,371.84,183.0986,367.84,187.0986,376.84,183.0986" style="stroke:#333333;stroke-width:1.2;"/><text fill="#000000" font-family="Arial" font-size="14" lengthAdjust="spacing" textLength="104" x="240" y="179.2305">payment API call</text></g><!--link Payments to FinancialCrime--><g id="link_Payments_FinancialCrime"><path d="M479.2,183.6186 C547.81,184.3286 665.1203,185.5362 741.9803,186.3362 " fill="none" id="Payments-to-FinancialCrime" style="stroke:#333333;stroke-width:1.2;"/><polygon fill="#333333" points="747.98,186.3986,739.0221,182.3052,742.9803,186.3466,738.9389,190.3047,747.98,186.3986" style="stroke:#333333;stroke-width:1.2;"/><text fill="#000000" font-family="Arial" font-size="14" lengthAdjust="spacing" textLength="114" x="527.5" y="180.2305">screening request</text></g><!--link Payments to Integration--><g id="link_Payments_Integration"><path d="M479.2,203.4586 C545.36,230.2986 656.8102,275.5127 734.0002,306.8327 " fill="none" id="Payments-to-Integration" style="stroke:#333333;stroke-width:1.2;"/><polygon fill="#333333" points="739.56,309.0886,732.7243,301.9983,734.9269,307.2087,729.7164,309.4113,739.56,309.0886" style="stroke:#333333;stroke-width:1.2;"/><text fill="#000000" font-family="Arial" font-size="14" lengthAdjust="spacing" textLength="98" x="535.5" y="212.2305">posting request</text></g><!--link Integration to CoreDeposit--><g id="link_Integration_CoreDeposit"><path d="M905.03,340.0986 C991.03,340.0986 1113.62,340.0986 1184,340.0986 " fill="none" id="Integration-to-CoreDeposit" style="stroke:#333333;stroke-width:1.2;"/><polygon fill="#333333" points="1190,340.0986,1181,336.0986,1185,340.0986,1181,344.0986,1190,340.0986" style="stroke:#333333;stroke-width:1.2;"/><text fill="#000000" font-family="Arial" font-size="14" lengthAdjust="spacing" textLength="119" x="975" y="336.2305">controlled core call</text></g><!--link Payments to EventPlatform--><g id="link_Payments_EventPlatform"><path d="M479.06,166.2686 C488.91,163.2886 499.23,160.4086 509,158.0986 C596.1,137.5086 693.1589,123.3832 754.9589,115.4432 " fill="none" id="Payments-to-EventPlatform" style="stroke:#333333;stroke-width:1.2;"/><polygon fill="#333333" points="760.91,114.6786,751.4736,111.8581,755.9508,115.3158,752.4931,119.7929,760.91,114.6786" style="stroke:#333333;stroke-width:1.2;"/><text fill="#000000" font-family="Arial" font-size="14" lengthAdjust="spacing" textLength="149" x="510" y="126.2305">publish payment events</text></g><!--link EventPlatform to DataPlatform--><g id="link_EventPlatform_DataPlatform"><path d="M873.23,110.4486 C953.09,113.8586 1094.1454,119.8634 1175.8654,123.3434 " fill="none" id="EventPlatform-to-DataPlatform" style="stroke:#333333;stroke-width:1.2;"/><polygon fill="#333333" points="1181.86,123.5986,1173.0383,119.2193,1176.8645,123.3859,1172.698,127.2121,1181.86,123.5986" style="stroke:#333333;stroke-width:1.2;"/><text fill="#000000" font-family="Arial" font-size="14" lengthAdjust="spacing" textLength="99" x="985" y="111.2305">selected events</text></g><rect fill="none" height="42.1973" id="_legend" rx="7.5" ry="7.5" style="stroke:#000000;stroke-width:1.0;" width="612" x="373.5" y="404.0986"/><text fill="#000000" font-family="Arial" font-size="14" lengthAdjust="spacing" textLength="298" x="378.5" y="422.2305">Boundaries show placement and control points.</text><text fill="#000000" font-family="Arial" font-size="14" lengthAdjust="spacing" textLength="602" x="378.5" y="438.3291">This view does not show detailed payment-process sequence or BIAN Service Domain mapping.</text><!--SRC=[bLJ1Rjim3BtxAxZkEgShDc3O3WEQf5bpAOArs2aNHMOTeJBfINAARDY_ZtHjnyxGmumS7FAznoUIyXj7rZS5mcnsAR-OZXxZPUqDfQRoUTfZXRDQNhFCusE2n11SkKzGk80sEQOikUGHLkjl-TLL_lxZ36uvk5zCC3Vq1BV7NN05BB7sVAoG4lnm-9nbySbHROAfG7KCbQBnEmEOSoWmBDXpWBSVsaUZnZwLWHigkipgq-hpQfxz6UbOhcechV0_EkqZEjd9niMYYOah362eWCNU4A67cwB42p2n3ynLnOHZM-rK-w8__TALBXc_fGuVn-HuNj5pKy36c_J8eO9UUqiF9fIOe3OllQixH2UchDTyR5ueSKkzRClfmrFmof4Xwuo7HN0Ldd66R9iKviy66t5zSr3o1Dg6-eWW2vFCpaG5Ky9G1oVlImcUbT3GG3lh3LCAx3qMi1QDCXXTkr6FDkoTFRu3cMjoLBPJgmCdjkoXmiArXBRCIE2rleryZj1dTaUPCxVVCHb7udN10NEz0chfPFQE4yGzFvFAM1rWJg9pw7PBI1DZf_vfIgyHHvUsT7-C2Qk1qyNLIxzXaETVXsd3bs65hZThiCRxRCWfS3fYWKSR44cz1vHnnpJ5ZoSXsXpJ63hEAdfaKT3sD52hX_hNpMIBLB_PUHVtmndmqAxm5AR4yHhf8T3BPAHEHv1lM8co7JjESi6phjCEOpiIlLqMsmAwGfrDEPmJxYnxsBi81_buGS72e6wGKEZ4zJ2Tkrnsps8KJUq6MGJvqCpNrtTmZ-7WvF-IAzaHg4nTIzTccLXwCVON]--></g></svg>