<?xml version="1.0" encoding="us-ascii" standalone="no"?><svg xmlns="http://www.w3.org/2000/svg" xmlns:xlink="http://www.w3.org/1999/xlink" contentStyleType="text/css" height="631px" preserveAspectRatio="none" style="width:1071px;height:631px;background:#FFFFFF;" version="1.1" viewBox="0 0 1071 631" width="1071px" zoomAndPan="magnify"><defs/><g><text fill="#000000" font-family="Arial" font-size="14" font-weight="bold" lengthAdjust="spacing" textLength="324" x="366.5" y="23.1318">FIG-08-03. Online Store physical order schema</text><!--class customers--><g id="elem_customers"><rect codeLine="9" fill="#F1F1F1" height="122.5918" id="customers" rx="2.5" ry="2.5" style="stroke:#181818;stroke-width:0.5;" width="244" x="7" y="234.0986"/><ellipse cx="92.5" cy="255.1973" fill="#ADD1B2" rx="10" ry="10" style="stroke:#181818;stroke-width:1.0;"/><path d="M93.9063,251.2598 Q94.0313,251.0879 94.1875,251.0098 Q94.3438,250.916 94.5156,250.916 Q94.8281,250.916 95.0156,251.1348 Q95.2188,251.3379 95.2188,251.8379 L95.2188,253.0254 Q95.2188,253.541 95.0156,253.7598 Q94.8281,253.9629 94.5156,253.9629 Q94.2344,253.9629 94.0625,253.8066 Q93.8906,253.6504 93.8125,253.2285 Q93.7656,252.9316 93.625,252.7754 Q93.3438,252.4629 92.8281,252.291 Q92.3281,252.1035 91.8281,252.1035 Q91.2031,252.1035 90.6719,252.3848 Q90.1406,252.6504 89.7344,253.2754 Q89.3438,253.8848 89.3438,254.7285 L89.3438,255.6348 Q89.3438,256.6504 90.0781,257.3223 Q90.8125,257.9941 92.1094,257.9941 Q92.8906,257.9941 93.4375,257.791 Q93.75,257.666 94.1094,257.3066 Q94.3281,257.0879 94.4375,257.0254 Q94.5625,256.9473 94.7188,256.9473 Q95,256.9473 95.2188,257.166 Q95.4375,257.3848 95.4375,257.666 Q95.4375,257.9473 95.1406,258.2754 Q94.7188,258.7598 94.0625,259.0254 Q93.1875,259.4004 92.125,259.4004 Q90.875,259.4004 89.875,258.8848 Q89.0781,258.4785 88.5,257.6035 Q87.9375,256.7129 87.9375,255.666 L87.9375,254.7129 Q87.9375,253.6191 88.4375,252.6816 Q88.9531,251.7285 89.8594,251.2129 Q90.7656,250.6973 91.7656,250.6973 Q92.375,250.6973 92.9063,250.8379 Q93.4375,250.9785 93.9063,251.2598 Z " fill="#000000"/><text fill="#000000" font-family="Arial" font-size="14" font-style="italic" lengthAdjust="spacing" textLength="47" x="120.5" y="252.2305">&#171;table&#187;</text><text fill="#000000" font-family="Arial" font-size="14" lengthAdjust="spacing" textLength="65" x="111.5" y="268.3291">customers</text><line style="stroke:#181818;stroke-width:0.5;" x1="8" x2="250" y1="276.2959" y2="276.2959"/><text fill="#000000" font-family="Arial" font-size="14" lengthAdjust="spacing" textLength="130" x="13" y="293.4277">customer_id uuid PK</text><text fill="#000000" font-family="Arial" font-size="14" lengthAdjust="spacing" textLength="136" x="13" y="309.5264">created_at timestamp</text><line style="stroke:#181818;stroke-width:0.5;" x1="8" x2="250" y1="316.4932" y2="316.4932"/><text fill="#000000" font-family="Arial" font-size="14" lengthAdjust="spacing" textLength="232" x="13" y="333.625">email_address varchar(320) UNIQUE</text><text fill="#000000" font-family="Arial" font-size="14" lengthAdjust="spacing" textLength="182" x="13" y="349.7236">customer_status varchar(30)</text></g><!--class orders--><g id="elem_orders"><rect codeLine="16" fill="#F1F1F1" height="138.6904" id="orders" rx="2.5" ry="2.5" style="stroke:#181818;stroke-width:0.5;" width="184" x="313.5" y="226.0986"/><ellipse cx="380" cy="247.1973" fill="#ADD1B2" rx="10" ry="10" style="stroke:#181818;stroke-width:1.0;"/><path d="M381.4063,243.2598 Q381.5313,243.0879 381.6875,243.0098 Q381.8438,242.916 382.0156,242.916 Q382.3281,242.916 382.5156,243.1348 Q382.7188,243.3379 382.7188,243.8379 L382.7188,245.0254 Q382.7188,245.541 382.5156,245.7598 Q382.3281,245.9629 382.0156,245.9629 Q381.7344,245.9629 381.5625,245.8066 Q381.3906,245.6504 381.3125,245.2285 Q381.2656,244.9316 381.125,244.7754 Q380.8438,244.4629 380.3281,244.291 Q379.8281,244.1035 379.3281,244.1035 Q378.7031,244.1035 378.1719,244.3848 Q377.6406,244.6504 377.2344,245.2754 Q376.8438,245.8848 376.8438,246.7285 L376.8438,247.6348 Q376.8438,248.6504 377.5781,249.3223 Q378.3125,249.9941 379.6094,249.9941 Q380.3906,249.9941 380.9375,249.791 Q381.25,249.666 381.6094,249.3066 Q381.8281,249.0879 381.9375,249.0254 Q382.0625,248.9473 382.2188,248.9473 Q382.5,248.9473 382.7188,249.166 Q382.9375,249.3848 382.9375,249.666 Q382.9375,249.9473 382.6406,250.2754 Q382.2188,250.7598 381.5625,251.0254 Q380.6875,251.4004 379.625,251.4004 Q378.375,251.4004 377.375,250.8848 Q376.5781,250.4785 376,249.6035 Q375.4375,248.7129 375.4375,247.666 L375.4375,246.7129 Q375.4375,245.6191 375.9375,244.6816 Q376.4531,243.7285 377.3594,243.2129 Q378.2656,242.6973 379.2656,242.6973 Q379.875,242.6973 380.4063,242.8379 Q380.9375,242.9785 381.4063,243.2598 Z " fill="#000000"/><text fill="#000000" font-family="Arial" font-size="14" font-style="italic" lengthAdjust="spacing" textLength="47" x="397" y="244.2305">&#171;table&#187;</text><text fill="#000000" font-family="Arial" font-size="14" lengthAdjust="spacing" textLength="41" x="400" y="260.3291">orders</text><line style="stroke:#181818;stroke-width:0.5;" x1="314.5" x2="496.5" y1="268.2959" y2="268.2959"/><text fill="#000000" font-family="Arial" font-size="14" lengthAdjust="spacing" textLength="106" x="319.5" y="285.4277">order_id uuid PK</text><text fill="#000000" font-family="Arial" font-size="14" lengthAdjust="spacing" textLength="130" x="319.5" y="301.5264">customer_id uuid FK</text><text fill="#000000" font-family="Arial" font-size="14" lengthAdjust="spacing" textLength="130" x="319.5" y="317.625">placed_at timestamp</text><line style="stroke:#181818;stroke-width:0.5;" x1="314.5" x2="496.5" y1="324.5918" y2="324.5918"/><text fill="#000000" font-family="Arial" font-size="14" lengthAdjust="spacing" textLength="158" x="319.5" y="341.7236">order_status varchar(30)</text><text fill="#000000" font-family="Arial" font-size="14" lengthAdjust="spacing" textLength="172" x="319.5" y="357.8223">total_amount decimal(12,2)</text></g><!--class order_lines--><g id="elem_order_lines"><rect codeLine="24" fill="#F1F1F1" height="154.7891" id="order_lines" rx="2.5" ry="2.5" style="stroke:#181818;stroke-width:0.5;" width="164" x="730" y="44.0986"/><ellipse cx="772.5" cy="65.1973" fill="#ADD1B2" rx="10" ry="10" style="stroke:#181818;stroke-width:1.0;"/><path d="M773.9063,61.2598 Q774.0313,61.0879 774.1875,61.0098 Q774.3438,60.916 774.5156,60.916 Q774.8281,60.916 775.0156,61.1348 Q775.2188,61.3379 775.2188,61.8379 L775.2188,63.0254 Q775.2188,63.541 775.0156,63.7598 Q774.8281,63.9629 774.5156,63.9629 Q774.2344,63.9629 774.0625,63.8066 Q773.8906,63.6504 773.8125,63.2285 Q773.7656,62.9316 773.625,62.7754 Q773.3438,62.4629 772.8281,62.291 Q772.3281,62.1035 771.8281,62.1035 Q771.2031,62.1035 770.6719,62.3848 Q770.1406,62.6504 769.7344,63.2754 Q769.3438,63.8848 769.3438,64.7285 L769.3438,65.6348 Q769.3438,66.6504 770.0781,67.3223 Q770.8125,67.9941 772.1094,67.9941 Q772.8906,67.9941 773.4375,67.791 Q773.75,67.666 774.1094,67.3066 Q774.3281,67.0879 774.4375,67.0254 Q774.5625,66.9473 774.7188,66.9473 Q775,66.9473 775.2188,67.166 Q775.4375,67.3848 775.4375,67.666 Q775.4375,67.9473 775.1406,68.2754 Q774.7188,68.7598 774.0625,69.0254 Q773.1875,69.4004 772.125,69.4004 Q770.875,69.4004 769.875,68.8848 Q769.0781,68.4785 768.5,67.6035 Q767.9375,66.7129 767.9375,65.666 L767.9375,64.7129 Q767.9375,63.6191 768.4375,62.6816 Q768.9531,61.7285 769.8594,61.2129 Q770.7656,60.6973 771.7656,60.6973 Q772.375,60.6973 772.9063,60.8379 Q773.4375,60.9785 773.9063,61.2598 Z " fill="#000000"/><text fill="#000000" font-family="Arial" font-size="14" font-style="italic" lengthAdjust="spacing" textLength="47" x="803.5" y="62.2305">&#171;table&#187;</text><text fill="#000000" font-family="Arial" font-size="14" lengthAdjust="spacing" textLength="71" x="791.5" y="78.3291">order_lines</text><line style="stroke:#181818;stroke-width:0.5;" x1="731" x2="893" y1="86.2959" y2="86.2959"/><text fill="#000000" font-family="Arial" font-size="14" lengthAdjust="spacing" textLength="136" x="736" y="103.4277">order_line_id uuid PK</text><text fill="#000000" font-family="Arial" font-size="14" lengthAdjust="spacing" textLength="106" x="736" y="119.5264">order_id uuid FK</text><text fill="#000000" font-family="Arial" font-size="14" lengthAdjust="spacing" textLength="120" x="736" y="135.625">product_id uuid FK</text><text fill="#000000" font-family="Arial" font-size="14" lengthAdjust="spacing" textLength="98" x="736" y="151.7236">quantity integer</text><line style="stroke:#181818;stroke-width:0.5;" x1="731" x2="893" y1="158.6904" y2="158.6904"/><text fill="#000000" font-family="Arial" font-size="14" lengthAdjust="spacing" textLength="152" x="736" y="175.8223">unit_price decimal(12,2)</text><text fill="#000000" font-family="Arial" font-size="14" lengthAdjust="spacing" textLength="147" x="736" y="191.9209">line_total decimal(12,2)</text></g><!--class products--><g id="elem_products"><rect codeLine="33" fill="#F1F1F1" height="106.4932" id="products" rx="2.5" ry="2.5" style="stroke:#181818;stroke-width:0.5;" width="189" x="311" y="68.5986"/><ellipse cx="374" cy="89.6973" fill="#ADD1B2" rx="10" ry="10" style="stroke:#181818;stroke-width:1.0;"/><path d="M375.4063,85.7598 Q375.5313,85.5879 375.6875,85.5098 Q375.8438,85.416 376.0156,85.416 Q376.3281,85.416 376.5156,85.6348 Q376.7188,85.8379 376.7188,86.3379 L376.7188,87.5254 Q376.7188,88.041 376.5156,88.2598 Q376.3281,88.4629 376.0156,88.4629 Q375.7344,88.4629 375.5625,88.3066 Q375.3906,88.1504 375.3125,87.7285 Q375.2656,87.4316 375.125,87.2754 Q374.8438,86.9629 374.3281,86.791 Q373.8281,86.6035 373.3281,86.6035 Q372.7031,86.6035 372.1719,86.8848 Q371.6406,87.1504 371.2344,87.7754 Q370.8438,88.3848 370.8438,89.2285 L370.8438,90.1348 Q370.8438,91.1504 371.5781,91.8223 Q372.3125,92.4941 373.6094,92.4941 Q374.3906,92.4941 374.9375,92.291 Q375.25,92.166 375.6094,91.8066 Q375.8281,91.5879 375.9375,91.5254 Q376.0625,91.4473 376.2188,91.4473 Q376.5,91.4473 376.7188,91.666 Q376.9375,91.8848 376.9375,92.166 Q376.9375,92.4473 376.6406,92.7754 Q376.2188,93.2598 375.5625,93.5254 Q374.6875,93.9004 373.625,93.9004 Q372.375,93.9004 371.375,93.3848 Q370.5781,92.9785 370,92.1035 Q369.4375,91.2129 369.4375,90.166 L369.4375,89.2129 Q369.4375,88.1191 369.9375,87.1816 Q370.4531,86.2285 371.3594,85.7129 Q372.2656,85.1973 373.2656,85.1973 Q373.875,85.1973 374.4063,85.3379 Q374.9375,85.4785 375.4063,85.7598 Z " fill="#000000"/><text fill="#000000" font-family="Arial" font-size="14" font-style="italic" lengthAdjust="spacing" textLength="47" x="397" y="86.7305">&#171;table&#187;</text><text fill="#000000" font-family="Arial" font-size="14" lengthAdjust="spacing" textLength="55" x="393" y="102.8291">products</text><line style="stroke:#181818;stroke-width:0.5;" x1="312" x2="499" y1="110.7959" y2="110.7959"/><text fill="#000000" font-family="Arial" font-size="14" lengthAdjust="spacing" textLength="120" x="317" y="127.9277">product_id uuid PK</text><line style="stroke:#181818;stroke-width:0.5;" x1="312" x2="499" y1="134.8945" y2="134.8945"/><text fill="#000000" font-family="Arial" font-size="14" lengthAdjust="spacing" textLength="177" x="317" y="152.0264">product_name varchar(200)</text><text fill="#000000" font-family="Arial" font-size="14" lengthAdjust="spacing" textLength="174" x="317" y="168.125">current_price decimal(12,2)</text></g><!--class payments--><g id="elem_payments"><rect codeLine="39" fill="#F1F1F1" height="138.6904" id="payments" rx="2.5" ry="2.5" style="stroke:#181818;stroke-width:0.5;" width="224" x="700" y="486.0986"/><ellipse cx="777.5" cy="507.1973" fill="#ADD1B2" rx="10" ry="10" style="stroke:#181818;stroke-width:1.0;"/><path d="M778.9063,503.2598 Q779.0313,503.0879 779.1875,503.0098 Q779.3438,502.916 779.5156,502.916 Q779.8281,502.916 780.0156,503.1348 Q780.2188,503.3379 780.2188,503.8379 L780.2188,505.0254 Q780.2188,505.541 780.0156,505.7598 Q779.8281,505.9629 779.5156,505.9629 Q779.2344,505.9629 779.0625,505.8066 Q778.8906,505.6504 778.8125,505.2285 Q778.7656,504.9316 778.625,504.7754 Q778.3438,504.4629 777.8281,504.291 Q777.3281,504.1035 776.8281,504.1035 Q776.2031,504.1035 775.6719,504.3848 Q775.1406,504.6504 774.7344,505.2754 Q774.3438,505.8848 774.3438,506.7285 L774.3438,507.6348 Q774.3438,508.6504 775.0781,509.3223 Q775.8125,509.9941 777.1094,509.9941 Q777.8906,509.9941 778.4375,509.791 Q778.75,509.666 779.1094,509.3066 Q779.3281,509.0879 779.4375,509.0254 Q779.5625,508.9473 779.7188,508.9473 Q780,508.9473 780.2188,509.166 Q780.4375,509.3848 780.4375,509.666 Q780.4375,509.9473 780.1406,510.2754 Q779.7188,510.7598 779.0625,511.0254 Q778.1875,511.4004 777.125,511.4004 Q775.875,511.4004 774.875,510.8848 Q774.0781,510.4785 773.5,509.6035 Q772.9375,508.7129 772.9375,507.666 L772.9375,506.7129 Q772.9375,505.6191 773.4375,504.6816 Q773.9531,503.7285 774.8594,503.2129 Q775.7656,502.6973 776.7656,502.6973 Q777.375,502.6973 777.9063,502.8379 Q778.4375,502.9785 778.9063,503.2598 Z " fill="#000000"/><text fill="#000000" font-family="Arial" font-size="14" font-style="italic" lengthAdjust="spacing" textLength="47" x="803.5" y="504.2305">&#171;table&#187;</text><text fill="#000000" font-family="Arial" font-size="14" lengthAdjust="spacing" textLength="61" x="796.5" y="520.3291">payments</text><line style="stroke:#181818;stroke-width:0.5;" x1="701" x2="923" y1="528.2959" y2="528.2959"/><text fill="#000000" font-family="Arial" font-size="14" lengthAdjust="spacing" textLength="126" x="706" y="545.4277">payment_id uuid PK</text><text fill="#000000" font-family="Arial" font-size="14" lengthAdjust="spacing" textLength="106" x="706" y="561.5264">order_id uuid FK</text><line style="stroke:#181818;stroke-width:0.5;" x1="701" x2="923" y1="568.4932" y2="568.4932"/><text fill="#000000" font-family="Arial" font-size="14" lengthAdjust="spacing" textLength="178" x="706" y="585.625">payment_status varchar(30)</text><text fill="#000000" font-family="Arial" font-size="14" lengthAdjust="spacing" textLength="212" x="706" y="601.7236">authorised_amount decimal(12,2)</text><text fill="#000000" font-family="Arial" font-size="14" lengthAdjust="spacing" textLength="207" x="706" y="617.8223">provider_reference varchar(100)</text></g><!--class shipments--><g id="elem_shipments"><rect codeLine="47" fill="#F1F1F1" height="122.5918" id="shipments" rx="2.5" ry="2.5" style="stroke:#181818;stroke-width:0.5;" width="217" x="703.5" y="234.0986"/><ellipse cx="776" cy="255.1973" fill="#ADD1B2" rx="10" ry="10" style="stroke:#181818;stroke-width:1.0;"/><path d="M777.4063,251.2598 Q777.5313,251.0879 777.6875,251.0098 Q777.8438,250.916 778.0156,250.916 Q778.3281,250.916 778.5156,251.1348 Q778.7188,251.3379 778.7188,251.8379 L778.7188,253.0254 Q778.7188,253.541 778.5156,253.7598 Q778.3281,253.9629 778.0156,253.9629 Q777.7344,253.9629 777.5625,253.8066 Q777.3906,253.6504 777.3125,253.2285 Q777.2656,252.9316 777.125,252.7754 Q776.8438,252.4629 776.3281,252.291 Q775.8281,252.1035 775.3281,252.1035 Q774.7031,252.1035 774.1719,252.3848 Q773.6406,252.6504 773.2344,253.2754 Q772.8438,253.8848 772.8438,254.7285 L772.8438,255.6348 Q772.8438,256.6504 773.5781,257.3223 Q774.3125,257.9941 775.6094,257.9941 Q776.3906,257.9941 776.9375,257.791 Q777.25,257.666 777.6094,257.3066 Q777.8281,257.0879 777.9375,257.0254 Q778.0625,256.9473 778.2188,256.9473 Q778.5,256.9473 778.7188,257.166 Q778.9375,257.3848 778.9375,257.666 Q778.9375,257.9473 778.6406,258.2754 Q778.2188,258.7598 777.5625,259.0254 Q776.6875,259.4004 775.625,259.4004 Q774.375,259.4004 773.375,258.8848 Q772.5781,258.4785 772,257.6035 Q771.4375,256.7129 771.4375,255.666 L771.4375,254.7129 Q771.4375,253.6191 771.9375,252.6816 Q772.4531,251.7285 773.3594,251.2129 Q774.2656,250.6973 775.2656,250.6973 Q775.875,250.6973 776.4063,250.8379 Q776.9375,250.9785 777.4063,251.2598 Z " fill="#000000"/><text fill="#000000" font-family="Arial" font-size="14" font-style="italic" lengthAdjust="spacing" textLength="47" x="803.5" y="252.2305">&#171;table&#187;</text><text fill="#000000" font-family="Arial" font-size="14" lengthAdjust="spacing" textLength="64" x="795" y="268.3291">shipments</text><line style="stroke:#181818;stroke-width:0.5;" x1="704.5" x2="919.5" y1="276.2959" y2="276.2959"/><text fill="#000000" font-family="Arial" font-size="14" lengthAdjust="spacing" textLength="129" x="709.5" y="293.4277">shipment_id uuid PK</text><text fill="#000000" font-family="Arial" font-size="14" lengthAdjust="spacing" textLength="106" x="709.5" y="309.5264">order_id uuid FK</text><line style="stroke:#181818;stroke-width:0.5;" x1="704.5" x2="919.5" y1="316.4932" y2="316.4932"/><text fill="#000000" font-family="Arial" font-size="14" lengthAdjust="spacing" textLength="181" x="709.5" y="333.625">shipment_status varchar(30)</text><text fill="#000000" font-family="Arial" font-size="14" lengthAdjust="spacing" textLength="205" x="709.5" y="349.7236">tracking_reference varchar(100)</text></g><g id="elem_GMN13"><path d="M560,392.5986 L560,450.8945 A0,0 0 0 0 560,450.8945 L1064,450.8945 A0,0 0 0 0 1064,450.8945 L1064,402.5986 L1054,392.5986 L816,392.5986 L812,357.1186 L808,392.5986 L560,392.5986 A0,0 0 0 0 560,392.5986 " fill="#FFF8DC" style="stroke:#666666;stroke-width:0.5;"/><path d="M1054,392.5986 L1054,402.5986 L1064,402.5986 L1054,392.5986 " fill="#FFF8DC" style="stroke:#666666;stroke-width:0.5;"/><text fill="#000000" font-family="Arial" font-size="14" lengthAdjust="spacing" textLength="112" x="566" y="410.7305">Physical example.</text><text fill="#000000" font-family="Arial" font-size="14" lengthAdjust="spacing" textLength="483" x="566" y="426.8291">It adds table names, column names, data types, key choices and constraints.</text><text fill="#000000" font-family="Arial" font-size="14" lengthAdjust="spacing" textLength="414" x="566" y="442.9277">It is still a teaching schema, not a full production database design.</text></g><!--link customers to orders--><g id="link_customers_orders"><path codeLine="54" d="M251.08,295.5986 C271.91,295.5986 293.24,295.5986 313.14,295.5986 " fill="none" id="customers-orders" style="stroke:#333333;stroke-width:1.2;"/><text fill="#000000" font-family="Arial" font-size="14" lengthAdjust="spacing" textLength="77" x="204.11" y="291.7305">customer_id</text><text fill="#000000" font-family="Arial" font-size="14" lengthAdjust="spacing" textLength="8" x="259.157" y="309.2592">1</text><text fill="#000000" font-family="Arial" font-size="14" lengthAdjust="spacing" textLength="21" x="284.5862" y="309.333">0..*</text></g><!--reverse link orders to order_lines--><g id="link_orders_order_lines"><path codeLine="55" d="M509.74,230.0986 C629.68,230.0986 812,230.0986 812,230.0986 C812,230.0986 812,216.6886 812,199.2986 " fill="none" id="orders-backto-order_lines" style="stroke:#333333;stroke-width:1.2;"/><polygon fill="#333333" points="497.74,230.0986,503.74,234.0986,509.74,230.0986,503.74,226.0986,497.74,230.0986" style="stroke:#333333;stroke-width:1.2;"/><text fill="#000000" font-family="Arial" font-size="14" lengthAdjust="spacing" textLength="53" x="616.27" y="244.2305">order_id</text><text fill="#000000" font-family="Arial" font-size="14" lengthAdjust="spacing" textLength="8" x="505.4091" y="238.6647">1</text><text fill="#000000" font-family="Arial" font-size="14" lengthAdjust="spacing" textLength="21" x="790.0648" y="220.0769">1..*</text></g><!--link products to order_lines--><g id="link_products_order_lines"><path codeLine="56" d="M500.04,121.5986 C569.59,121.5986 663.2,121.5986 729.69,121.5986 " fill="none" id="products-order_lines" style="stroke:#333333;stroke-width:1.2;"/><text fill="#000000" font-family="Arial" font-size="14" lengthAdjust="spacing" textLength="67" x="546.86" y="135.7305">product_id</text><text fill="#000000" font-family="Arial" font-size="14" lengthAdjust="spacing" textLength="8" x="507.8924" y="135.3522">1</text><text fill="#000000" font-family="Arial" font-size="14" lengthAdjust="spacing" textLength="21" x="701.0042" y="135.4058">0..*</text></g><!--link orders to payments--><g id="link_orders_payments"><path codeLine="57" d="M406,365.2786 C406,442.2886 406,555.5986 406,555.5986 C406,555.5986 579.81,555.5986 699.98,555.5986 " fill="none" id="orders-payments" style="stroke:#333333;stroke-width:1.2;"/><text fill="#000000" font-family="Arial" font-size="14" lengthAdjust="spacing" textLength="53" x="403.83" y="569.7305">order_id</text><text fill="#000000" font-family="Arial" font-size="14" lengthAdjust="spacing" textLength="8" x="397.6664" y="385.8338">1</text><text fill="#000000" font-family="Arial" font-size="14" lengthAdjust="spacing" textLength="21" x="671.1311" y="569.256">0..*</text></g><!--link orders to shipments--><g id="link_orders_shipments"><path codeLine="58" d="M497.74,295.5986 C558.76,295.5986 639.04,295.5986 703.18,295.5986 " fill="none" id="orders-shipments" style="stroke:#333333;stroke-width:1.2;"/><text fill="#000000" font-family="Arial" font-size="14" lengthAdjust="spacing" textLength="53" x="546.46" y="309.7305">order_id</text><text fill="#000000" font-family="Arial" font-size="14" lengthAdjust="spacing" textLength="8" x="505.4091" y="309.3842">1</text><text fill="#000000" font-family="Arial" font-size="14" lengthAdjust="spacing" textLength="21" x="674.5361" y="309.2592">0..*</text></g><!--SRC=[XPHHQzim4CVVzIbkUMfAuZhfooYbi8TrXCAMKVeS5FaIYygI9vtAih7llfFhs4xghH22VVxhxgVxd_H1MsLYWP1bL_mBT30OhceZBSNApAd42hEQ7uKmk2CW1rxlIu92UrIadHMaoI3ShxxCyu_p_3g3RzPeY_18pYFKvI5e9GquNw27e3YZ528yQrjBBojGHeRmYSZhRIHSAMSVzI-4V219wUXG8-UWqWdHB04L0xaAVO3RMv9RWtTty5j05z_e0cBal_K3HxcgDXjP51vvxOlqgfJ-udgPJ-7fw-hxq-VXoa2Iua2LJzDNZvAms4ZkWgwGDLKj_XnfcksTepJ1KuutTFSFdN2qB7kXpgi2-q2IjrEvQDaBLBgIvcAnd2sdPqYRrBnnhlJb5EwKjo6hlIkYejFWZyZpeUa0sXBkqNCeMasRsck5PpZGsBTfWFz5sXOvnpollHu2MLbXrwfb_cfHz1xjE4TVJ1ug5hqfzXf-lo6jRjGi6Nb0lGx9i35l6lmNdP9wt273gduJYxI93ZEKkXxZFCRV1Us4ewJafU83jlyVHtV09ei9pESmoRFiSd8SzPlXB8isc9INIRhefUq8tdIGelDx976dxjqV9k_LdO-3nAF2lfC3fR2E4BQEU0VSZlNnciAVVC0CPXnR4V1z4Q3fFgHv2pDGpiJA7jyAIHBIrSJFptW0LJgUl03I5goqWRlCHoIqsJIxIjeOu3KeLSdjRo_46J0EXtUHlxORvxkroR-L8Sroq7kR2UJ4YVml]--></g></svg>