<svg xmlns="http://www.w3.org/2000/svg" width="1460" height="525" viewBox="0 0 1460 525" role="img" aria-labelledby="title desc">
  <title id="title">FIG-06-03. Horizon Bank Payment Repair BPMN Exception Collaboration</title>
  <desc id="desc">BPMN collaboration showing payment repair, correction waiting and timeout handling.</desc>
  <defs>
    <marker id="arrow" viewBox="0 0 10 10" refX="9" refY="5" markerWidth="8" markerHeight="8" orient="auto-start-reverse"><path d="M 0 0 L 10 5 L 0 10 z" fill="#222"/></marker>
    <marker id="msgArrow" viewBox="0 0 10 10" refX="9" refY="5" markerWidth="8" markerHeight="8" orient="auto-start-reverse"><path d="M 0 0 L 10 5 L 0 10 z" fill="#ffffff" stroke="#6941c6" stroke-width="1.5"/></marker>
    <style>
      .pool { fill:#ffffff; stroke:#222; stroke-width:1.5; }
      .lane { fill:#f7f8fa; stroke:#667085; stroke-width:1; }
      .task { fill:#eef4ff; stroke:#175cd3; stroke-width:1.4; }
      .event { fill:#ffffff; stroke:#222; stroke-width:2; }
      .innerEvent { fill:none; stroke:#222; stroke-width:1.2; }
      .end { fill:#ffffff; stroke:#222; stroke-width:4; }
      .gateway { fill:#fff7e6; stroke:#b54708; stroke-width:1.5; }
      .flow { stroke:#222; stroke-width:1.5; fill:none; marker-end:url(#arrow); }
      .message { stroke:#6941c6; stroke-width:1.7; stroke-dasharray:7 5; fill:none; marker-end:url(#msgArrow); }
      .label { font: 15px Arial, sans-serif; fill:#111827; }
      .small { font: 13px Arial, sans-serif; fill:#344054; }
      .title { font: bold 18px Arial, sans-serif; fill:#111827; }
      .poolText { font: bold 14px Arial, sans-serif; fill:#111827; }
      .labelBadge { fill:#ffffff; stroke:#667085; stroke-width:1; }
      .gatewayMarker { font: 16px Arial, sans-serif; fill:#111827; }
      .eventMarker, .eventMarkerCircle { fill:none; stroke:#111827; stroke-width:1.3; }
      .messageIcon { fill:#ffffff; stroke:#111827; stroke-width:1.2; }
      .iconLine, .timerHand, .timerIcon { fill:none; stroke:#111827; stroke-width:1.2; }
    </style>
  </defs>
  <text x="730" y="26" text-anchor="middle" class="title">FIG-06-03. Horizon Bank Payment Repair BPMN Exception Collaboration</text>
<rect x="160" y="60" width="1260" height="70" rx="4" class="pool"/>
<rect x="160" y="165" width="1260" height="320" rx="4" class="pool"/>
<rect x="160" y="260" width="1260" height="225" class="lane"/>
<text x="182" y="357" text-anchor="start" class="poolText">Operations</text>
<text x="182" y="374" text-anchor="start" class="poolText">Analyst</text>
<rect x="160" y="165" width="1260" height="95" class="lane"/>
<text x="182" y="197" text-anchor="start" class="poolText">Payments</text>
<text x="182" y="214" text-anchor="start" class="poolText">Platform</text>
<circle cx="300" cy="210" r="18" class="event"/>
<text x="300" y="236" text-anchor="middle" class="small">Posting</text>
<text x="300" y="252" text-anchor="middle" class="small">failed</text>
<rect x="370" y="183" width="130" height="54" rx="10" class="task"/>
<text x="435" y="215" text-anchor="middle" class="label">Create repair case</text>
<rect x="575" y="303" width="130" height="54" rx="10" class="task"/>
<text x="640" y="335" text-anchor="middle" class="label">Review exception</text>
<rect x="770" y="303" width="130" height="54" rx="10" class="task"/>
<text x="835" y="335" text-anchor="middle" class="label">Request correction</text>
<polygon points="990,290 1025,325 990,360 955,325" class="gateway"/>
<polygon points="990,309 1005,320 999,338 981,338 975,320" class="eventMarker"/>
<circle cx="990" cy="325" r="9" class="eventMarkerCircle"/>
<text x="990" y="366" text-anchor="middle" class="small">Wait for</text>
<text x="990" y="382" text-anchor="middle" class="small">correction</text>
<circle cx="1088" cy="290" r="18" class="event"/>
<circle cx="1088" cy="290" r="13" class="innerEvent"/>
<rect x="1078" y="283" width="20" height="14" class="messageIcon"/>
<path d="M1078 283 L1088 291 L1098 283" class="iconLine"/>
<text x="1088" y="242" text-anchor="middle" class="small">Correction</text>
<text x="1088" y="258" text-anchor="middle" class="small">received</text>
<circle cx="1088" cy="418" r="18" class="event"/>
<circle cx="1088" cy="418" r="13" class="innerEvent"/>
<circle cx="1088" cy="418" r="11" class="timerIcon"/>
<path d="M1088 418 L1088 409 M1088 418 L1096 422" class="timerHand"/>
<text x="1088" y="436" text-anchor="middle" class="small">Correction</text>
<text x="1088" y="452" text-anchor="middle" class="small">deadline</text>
<text x="1088" y="468" text-anchor="middle" class="small">reached</text>
<rect x="1165" y="263" width="120" height="54" rx="10" class="task"/>
<text x="1225" y="287" text-anchor="middle" class="label">Validate</text>
<text x="1225" y="303" text-anchor="middle" class="label">correction</text>
<rect x="1165" y="183" width="120" height="54" rx="10" class="task"/>
<text x="1225" y="215" text-anchor="middle" class="label">Resubmit payment</text>
<circle cx="1360" cy="210" r="18" class="end"/>
<text x="1360" y="238" text-anchor="middle" class="small">Payment</text>
<text x="1360" y="254" text-anchor="middle" class="small">resubmitted</text>
<rect x="1195" y="391" width="90" height="54" rx="10" class="task"/>
<text x="1240" y="423" text-anchor="middle" class="label">Close case</text>
<circle cx="1360" cy="418" r="18" class="end"/>
<text x="1360" y="442" text-anchor="middle" class="small">Case timed</text>
<text x="1360" y="458" text-anchor="middle" class="small">out</text>
<text x="182" y="88" text-anchor="start" class="poolText">Retail Customer</text>
<rect x="170" y="141" width="116" height="22" rx="3" class="labelBadge"/>
<text x="180" y="157" text-anchor="start" class="poolText">Horizon Bank</text>
<path d="M318 210 L370 210" class="flow"/>
<path d="M500 210 L540 210 L540 330 L575 330" class="flow"/>
<path d="M705 330 L770 330" class="flow"/>
<path d="M900 330 L955 325" class="flow"/>
<path d="M1025 325 L1050 290 L1070 290" class="flow"/>
<path d="M1025 325 L1050 418 L1070 418" class="flow"/>
<path d="M1106 290 L1165 290" class="flow"/>
<path d="M1225 263 L1225 237" class="flow"/>
<path d="M1285 210 L1342 210" class="flow"/>
<path d="M1106 418 L1195 418" class="flow"/>
<path d="M1285 418 L1342 418" class="flow"/>
<path d="M835 303 L835 130" class="message"/>
<text x="904" y="140" text-anchor="middle" class="small">Correction</text>
<text x="904" y="156" text-anchor="middle" class="small">request</text>
<path d="M1088 130 L1088 272" class="message"/>
<text x="1164" y="140" text-anchor="middle" class="small">Corrected</text>
<text x="1164" y="156" text-anchor="middle" class="small">information</text>
</svg>
