<?xml version="1.0" encoding="us-ascii" standalone="no"?><svg xmlns="http://www.w3.org/2000/svg" xmlns:xlink="http://www.w3.org/1999/xlink" contentStyleType="text/css" height="950px" preserveAspectRatio="none" style="width:686px;height:950px;background:#FFFFFF;" version="1.1" viewBox="0 0 686 950" width="686px" zoomAndPan="magnify"><defs/><g><text fill="#000000" font-family="Arial" font-size="14" font-weight="bold" lengthAdjust="spacing" textLength="297" x="187.75" y="23.1318">Online Store requirements analysis thread</text><!--entity N--><g id="elem_N"><rect fill="#FFF2CC" height="79.7949" rx="2.5" ry="2.5" style="stroke:#333333;stroke-width:0.5;" width="155" x="406" y="44.0986"/><text fill="#000000" font-family="Arial" font-size="13" lengthAdjust="spacing" textLength="101" x="416" y="66.2925">Stakeholder need</text><text fill="#000000" font-family="Arial" font-size="13" lengthAdjust="spacing" textLength="72" x="416" y="81.2412">NEED-25-01</text><text fill="#000000" font-family="Arial" font-size="13" lengthAdjust="spacing" textLength="135" x="416" y="96.1899">Know promptly whether</text><text fill="#000000" font-family="Arial" font-size="13" lengthAdjust="spacing" textLength="131" x="416" y="111.1387">an order was accepted</text></g><!--entity FR--><g id="elem_FR"><rect fill="#DDEBF7" height="79.7949" rx="2.5" ry="2.5" style="stroke:#333333;stroke-width:0.5;" width="152" x="288.5" y="176.0986"/><text fill="#000000" font-family="Arial" font-size="13" lengthAdjust="spacing" textLength="132" x="298.5" y="198.2925">Functional requirement</text><text fill="#000000" font-family="Arial" font-size="13" lengthAdjust="spacing" textLength="53" x="298.5" y="213.2412">FR-25-01</text><text fill="#000000" font-family="Arial" font-size="13" lengthAdjust="spacing" textLength="121" x="298.5" y="228.1899">Create one order and</text><text fill="#000000" font-family="Arial" font-size="13" lengthAdjust="spacing" textLength="108" x="298.5" y="243.1387">return its reference</text></g><!--entity QA--><g id="elem_QA"><rect fill="#DDEBF7" height="79.7949" rx="2.5" ry="2.5" style="stroke:#333333;stroke-width:0.5;" width="147" x="294" y="791.0986"/><text fill="#000000" font-family="Arial" font-size="13" lengthAdjust="spacing" textLength="94" x="304" y="813.2925">Quality scenario</text><text fill="#000000" font-family="Arial" font-size="13" lengthAdjust="spacing" textLength="55" x="304" y="828.2412">QA-25-01</text><text fill="#000000" font-family="Arial" font-size="13" lengthAdjust="spacing" textLength="127" x="304" y="843.1899">95% within 2 seconds</text><text fill="#000000" font-family="Arial" font-size="13" lengthAdjust="spacing" textLength="93" x="304" y="858.1387">at forecast peak</text></g><!--entity UC--><g id="elem_UC"><rect fill="#E2F0D9" height="79.7949" rx="2.5" ry="2.5" style="stroke:#333333;stroke-width:0.5;" width="155" x="7" y="308.0986"/><text fill="#000000" font-family="Arial" font-size="13" lengthAdjust="spacing" textLength="55" x="17" y="330.2925">Use case</text><text fill="#000000" font-family="Arial" font-size="13" lengthAdjust="spacing" textLength="54" x="17" y="345.2412">UC-25-01</text><text fill="#000000" font-family="Arial" font-size="13" lengthAdjust="spacing" textLength="104" x="17" y="360.1899">Checkout, decline</text><text fill="#000000" font-family="Arial" font-size="13" lengthAdjust="spacing" textLength="135" x="17" y="375.1387">and uncertain response</text></g><!--entity CM--><g id="elem_CM"><rect fill="#E2F0D9" height="64.8462" rx="2.5" ry="2.5" style="stroke:#333333;stroke-width:0.5;" width="124" x="186.5" y="315.5986"/><text fill="#000000" font-family="Arial" font-size="13" lengthAdjust="spacing" textLength="104" x="196.5" y="337.7925">Conceptual model</text><text fill="#000000" font-family="Arial" font-size="13" lengthAdjust="spacing" textLength="85" x="196.5" y="352.7412">Basket, Order,</text><text fill="#000000" font-family="Arial" font-size="13" lengthAdjust="spacing" textLength="102" x="196.5" y="367.6899">Payment Attempt</text></g><!--entity DR--><g id="elem_DR"><rect fill="#E4DFEC" height="64.8462" rx="2.5" ry="2.5" style="stroke:#333333;stroke-width:0.5;" width="167" x="126" y="440.0986"/><text fill="#000000" font-family="Arial" font-size="13" lengthAdjust="spacing" textLength="97" x="136" y="462.2925">Design response</text><text fill="#000000" font-family="Arial" font-size="13" lengthAdjust="spacing" textLength="147" x="136" y="477.2412">Idempotent order creation</text><text fill="#000000" font-family="Arial" font-size="13" lengthAdjust="spacing" textLength="113" x="136" y="492.1899">and status handling</text></g><!--entity VT--><g id="elem_VT"><rect fill="#FCE4D6" height="64.8462" rx="2.5" ry="2.5" style="stroke:#333333;stroke-width:0.5;" width="138" x="267.5" y="557.0986"/><text fill="#000000" font-family="Arial" font-size="13" lengthAdjust="spacing" textLength="96" x="277.5" y="579.2925">Verification case</text><text fill="#000000" font-family="Arial" font-size="13" lengthAdjust="spacing" textLength="52" x="277.5" y="594.2412">VT-25-01</text><text fill="#000000" font-family="Arial" font-size="13" lengthAdjust="spacing" textLength="118" x="277.5" y="609.1899">Peak and retry tests</text></g><!--entity EV--><g id="elem_EV"><rect fill="#FCE4D6" height="64.8462" rx="2.5" ry="2.5" style="stroke:#333333;stroke-width:0.5;" width="160" x="378.5" y="674.0986"/><text fill="#000000" font-family="Arial" font-size="13" lengthAdjust="spacing" textLength="52" x="388.5" y="696.2925">Evidence</text><text fill="#000000" font-family="Arial" font-size="13" lengthAdjust="spacing" textLength="140" x="388.5" y="711.2412">Results and stakeholder</text><text fill="#000000" font-family="Arial" font-size="13" lengthAdjust="spacing" textLength="53" x="388.5" y="726.1899">validation</text></g><!--link N to FR--><g id="link_N_FR"><path d="M447.8,124.0986 C432.87,140.4086 419.6131,154.9046 404.6431,171.2446 " fill="none" id="N-to-FR" style="stroke:#333333;stroke-width:1.2;"/><polygon fill="#333333" points="400.59,175.6686,409.619,171.7346,403.9676,171.9819,403.7203,166.3305,400.59,175.6686" style="stroke:#333333;stroke-width:1.2;"/><text fill="#000000" font-family="Arial" font-size="13" lengthAdjust="spacing" textLength="56" x="431.5" y="155.2925">refined by</text></g><!--link N to QA--><g id="link_N_QA"><path d="M547.53,124.2586 C575.69,146.7486 602.5,177.9186 602.5,215.0986 C602.5,215.0986 602.5,215.0986 602.5,707.5986 C602.5,781.4386 516.0459,809.8478 447.1259,821.5078 " fill="none" id="N-to-QA" style="stroke:#333333;stroke-width:1.2;"/><polygon fill="#333333" points="441.21,822.5086,450.7511,824.9513,446.1399,821.6746,449.4167,817.0634,441.21,822.5086" style="stroke:#333333;stroke-width:1.2;"/><text fill="#000000" font-family="Arial" font-size="13" lengthAdjust="spacing" textLength="75" x="603.5" y="477.7925">measured by</text></g><!--link FR to UC--><g id="link_FR_UC"><path d="M288.21,227.5686 C246.53,235.7286 195.27,249.8986 154.5,274.0986 C139.7,282.8786 130.0233,291.2056 118.7133,303.6056 " fill="none" id="FR-to-UC" style="stroke:#333333;stroke-width:1.2;"/><polygon fill="#333333" points="114.67,308.0386,123.6903,304.0847,118.0394,304.3445,117.7797,298.6936,114.67,308.0386" style="stroke:#333333;stroke-width:1.2;"/><text fill="#000000" font-family="Arial" font-size="13" lengthAdjust="spacing" textLength="62" x="155.5" y="287.2925">clarified by</text></g><!--link FR to CM--><g id="link_FR_CM"><path d="M288.39,232.0786 C265.59,240.5086 243.07,253.6386 229.5,274.0986 C221.39,286.3186 221.7627,296.2594 227.2727,309.8294 " fill="none" id="FR-to-CM" style="stroke:#333333;stroke-width:1.2;"/><polygon fill="#333333" points="229.53,315.3886,229.8502,305.545,227.6489,310.756,222.438,308.5547,229.53,315.3886" style="stroke:#333333;stroke-width:1.2;"/><text fill="#000000" font-family="Arial" font-size="13" lengthAdjust="spacing" textLength="114" x="230.5" y="287.2925">uses concepts from</text></g><!--link QA to DR--><g id="link_QA_DR"><path d="M309.58,790.7786 C303.4,785.2586 297.54,779.3286 292.5,773.0986 C227.33,692.5686 213.5323,570.361 210.5523,511.291 " fill="none" id="QA-to-DR" style="stroke:#333333;stroke-width:1.2;"/><polygon fill="#333333" points="210.25,505.2986,206.7085,514.4887,210.5019,510.2923,214.6984,514.0857,210.25,505.2986" style="stroke:#333333;stroke-width:1.2;"/><text fill="#000000" font-family="Arial" font-size="13" lengthAdjust="spacing" textLength="33" x="234.5" y="653.2925">drives</text></g><!--link UC to DR--><g id="link_UC_DR"><path d="M119.75,388.4686 C130.07,399.5786 141.54,411.5086 152.5,422.0986 C158.63,428.0186 160.8288,430.1401 167.3988,435.9601 " fill="none" id="UC-to-DR" style="stroke:#333333;stroke-width:1.2;"/><polygon fill="#333333" points="171.89,439.9386,167.8055,430.9767,168.1473,436.6232,162.5008,436.965,171.89,439.9386" style="stroke:#333333;stroke-width:1.2;"/><text fill="#000000" font-family="Arial" font-size="13" lengthAdjust="spacing" textLength="42" x="153.5" y="419.2925">informs</text></g><!--link CM to DR--><g id="link_CM_DR"><path d="M219.06,380.7586 C213.5,388.5086 208.49,397.1686 205.5,406.0986 C201.92,416.7886 201.1221,423.0375 202.2021,434.0075 " fill="none" id="CM-to-DR" style="stroke:#333333;stroke-width:1.2;"/><polygon fill="#333333" points="202.79,439.9786,205.889,430.63,202.3001,435.0027,197.9275,431.4138,202.79,439.9786" style="stroke:#333333;stroke-width:1.2;"/><text fill="#000000" font-family="Arial" font-size="13" lengthAdjust="spacing" textLength="127" x="206.5" y="419.2925">constrains meaning of</text></g><!--link DR to VT--><g id="link_DR_VT"><path d="M244.54,505.3286 C262.31,521.4186 279.3721,536.8717 297.1221,552.9417 " fill="none" id="DR-to-VT" style="stroke:#333333;stroke-width:1.2;"/><polygon fill="#333333" points="301.57,556.9686,297.5828,547.963,297.8634,553.6129,292.2135,553.8935,301.57,556.9686" style="stroke:#333333;stroke-width:1.2;"/><text fill="#000000" font-family="Arial" font-size="13" lengthAdjust="spacing" textLength="57" x="281.5" y="536.2925">verified by</text></g><!--link FR to VT--><g id="link_FR_VT"><path d="M363.71,256.3886 C362.15,317.1886 357.67,437.6286 345.5,539.0986 C344.8,544.9086 344.8671,545.1555 343.8471,551.0855 " fill="none" id="FR-to-VT" style="stroke:#333333;stroke-width:1.2;"/><polygon fill="#333333" points="342.83,556.9986,348.2978,548.807,343.6776,552.071,340.4135,547.4508,342.83,556.9986" style="stroke:#333333;stroke-width:1.2;"/><text fill="#000000" font-family="Arial" font-size="13" lengthAdjust="spacing" textLength="74" x="357.5" y="419.2925">assessed by</text></g><!--link QA to VT--><g id="link_QA_VT"><path d="M323.13,790.7486 C309.66,776.0386 296.57,758.2286 289.5,739.0986 C279.48,712.0086 282.18,702.0386 289.5,674.0986 C294.31,655.7586 300.9441,642.2604 310.3941,627.3104 " fill="none" id="QA-to-VT" style="stroke:#333333;stroke-width:1.2;"/><polygon fill="#333333" points="313.6,622.2386,305.41,627.709,310.9284,626.4651,312.1723,631.9835,313.6,622.2386" style="stroke:#333333;stroke-width:1.2;"/><text fill="#000000" font-family="Arial" font-size="13" lengthAdjust="spacing" textLength="75" x="290.5" y="711.7925">measured by</text></g><!--link VT to EV--><g id="link_VT_EV"><path d="M356.44,622.3886 C364.39,633.7286 374.12,646.1486 384.5,656.0986 C391.09,662.4086 393.7192,664.9073 401.3292,670.4473 " fill="none" id="VT-to-EV" style="stroke:#333333;stroke-width:1.2;"/><polygon fill="#333333" points="406.18,673.9786,401.2581,665.4478,402.1377,671.0359,396.5497,671.9155,406.18,673.9786" style="stroke:#333333;stroke-width:1.2;"/><text fill="#000000" font-family="Arial" font-size="13" lengthAdjust="spacing" textLength="53" x="385.5" y="653.2925">produces</text></g><!--link EV to FR--><g id="link_EV_FR"><path d="M458.5,673.8686 C458.5,650.7786 458.5,618.7486 458.5,590.5986 C458.5,347.0986 458.5,347.0986 458.5,347.0986 C458.5,311.8686 439.7662,283.9775 416.5462,260.4675 " fill="none" id="EV-to-FR" style="stroke:#333333;stroke-width:1.2;stroke-dasharray:7.0,7.0;"/><polygon fill="#333333" points="412.33,256.1986,415.8084,265.4128,415.8435,259.756,421.5003,259.7911,412.33,256.1986" style="stroke:#333333;stroke-width:1.2;"/><text fill="#000000" font-family="Arial" font-size="13" lengthAdjust="spacing" textLength="94" x="459.5" y="477.7925">feedback refines</text></g><!--link EV to QA--><g id="link_EV_QA"><path d="M435.07,739.1486 C423.37,754.8786 412.6983,769.2524 400.2983,785.9424 " fill="none" id="EV-to-QA" style="stroke:#333333;stroke-width:1.2;stroke-dasharray:7.0,7.0;"/><polygon fill="#333333" points="396.72,790.7586,405.2982,785.9198,399.7019,786.7451,398.8766,781.1488,396.72,790.7586" style="stroke:#333333;stroke-width:1.2;"/><text fill="#000000" font-family="Arial" font-size="13" lengthAdjust="spacing" textLength="94" x="421.5" y="770.2925">feedback refines</text></g><rect fill="none" height="42.1973" id="_legend" rx="7.5" ry="7.5" style="stroke:#000000;stroke-width:1.0;" width="247" x="212.75" y="887.8936"/><text fill="#000000" font-family="Arial" font-size="14" lengthAdjust="spacing" textLength="236" x="217.75" y="906.0254">Solid arrows show forward trace links.</text><text fill="#000000" font-family="Arial" font-size="14" lengthAdjust="spacing" textLength="237" x="217.75" y="922.124">Dotted arrows show iterative learning.</text><!--SRC=[RLDDJzj04BtxLqn1lP400LgHGoM8OwcgoZUSV5bs9sGLPzRT6ITAVtrdxIGr0ia7UsRtlJVlZRzuibNZ48R3OtrODXNoSLqPacPP3MIEInpM-fg9bmhXbYfF28yI8aB4FusFUeA4mP2fDkmPP1xHk8mNdceJpH8eE6IiONJUAqP3YrGyk-WL7SvCKqaHI1xzNuJJiooBQCNGct8VF8fPu3nK3YCGeYlfPZhD1wEBmSbfIRyehA6EOLbBjO7r75LyBCaGX9Xkh8sAj1PhGNS0-d43XqLHZ2QJFaVHa1KVT9Z-U2KL3pkUYOud245jw80DgPA8qaG2hqv4d654ijYo50zmcEVJw-9xd-Q-CPMN3R15Cj67akwlTWIN5rzXxMNk2KR0Q0CvrZa4PcgwDInGercquFTNdu4_CuAUmvAU9tlLSxIBqCYHccnJXiaP1pejHZ5A5P7hGDo9Vfx0uNHKdEINVTn9e6IVIeUbPbgLT6ruWOfvcumuAkdER99TS2M2caEBDVdz6LQExD_-ivRqq-cD8EbsPwjDFciIdL0M8mt3NDzL_LkBdAkrq_EycBvBy0MZdtdRtjtQyFAqi-5EdKk1AR743GYoS8lrygJRC56qRtsiwSgxb6H93yYwcGnRBRizB6cbGRgMhCMPlknniXiOkB2cmO-q1EEq5-gxWzTDhwC9Zc69XflOjVJeGEkQm1XiPT8ixnfgvnWQHWRRnS4mqwNF52YryyJaebyXPugnBtdIxLbofjVtDGLWYHe-9mMajaAOPNd7euQCOOKV-DkwOHN0NNrBtDRxWsWXrTMGSVejNMDLaduDXri_PleBlngxs1gpRxQMV6Xc5RwXclyQH7JSnw2sWuanh1buhh- -phSsqO5EP15qIHOyp78zZU_FUS6eUQtq39gOfXvc2jp1_mC0]--></g></svg>