<?xml version="1.0" encoding="us-ascii" standalone="no"?><svg xmlns="http://www.w3.org/2000/svg" xmlns:xlink="http://www.w3.org/1999/xlink" contentStyleType="text/css" height="867px" preserveAspectRatio="none" style="width:1345px;height:867px;background:#FFFFFF;" version="1.1" viewBox="0 0 1345 867" width="1345px" zoomAndPan="magnify"><defs/><g><text fill="#000000" font-family="Arial" font-size="14" font-weight="bold" lengthAdjust="spacing" textLength="373" x="479.0046" y="23.1318">FIG-11-03. Online Store Kubernetes Deployment View</text><!--cluster Cluster--><g id="cluster_Cluster"><polygon fill="none" points="180.5921,53.0986,190.5921,43.0986,1024.5921,43.0986,1024.5921,680.0986,1014.5921,690.0986,180.5921,690.0986,180.5921,53.0986" style="stroke:#181818;stroke-width:1.0;"/><line style="stroke:#181818;stroke-width:1.0;" x1="1014.5921" x2="1024.5921" y1="53.0986" y2="43.0986"/><line style="stroke:#181818;stroke-width:1.0;" x1="180.5921" x2="1014.5921" y1="53.0986" y2="53.0986"/><line style="stroke:#181818;stroke-width:1.0;" x1="1014.5921" x2="1014.5921" y1="53.0986" y2="690.0986"/><text fill="#000000" font-family="Arial" font-size="14" font-weight="bold" lengthAdjust="spacing" textLength="138" x="529.5921" y="69.2305">Kubernetes Cluster</text><text fill="#000000" font-family="Arial" font-size="14" font-weight="bold" lengthAdjust="spacing" textLength="65" x="566.0921" y="85.3291">&#171;cluster&#187;</text></g><!--cluster Namespace--><g id="cluster_Namespace"><rect fill="#F7F9FB" height="559" rx="2.5" ry="2.5" style="stroke:#333333;stroke-width:1.0;" width="796" x="204.5921" y="107.0986"/><text fill="#000000" font-family="Arial" font-size="14" font-weight="bold" lengthAdjust="spacing" textLength="213" x="496.0921" y="122.2305">Namespace: online-store-prod</text><text fill="#000000" font-family="Arial" font-size="14" font-weight="bold" lengthAdjust="spacing" textLength="97" x="554.0921" y="138.3291">&#171;Namespace&#187;</text></g><!--cluster WebDeployment--><g id="cluster_WebDeployment"><rect fill="#F7F9FB" height="226" rx="2.5" ry="2.5" style="stroke:#333333;stroke-width:1.0;" width="138" x="838.5921" y="416.0986"/><text fill="#000000" font-family="Arial" font-size="14" font-weight="bold" lengthAdjust="spacing" textLength="118" x="848.5921" y="431.2305">Web Deployment</text><text fill="#000000" font-family="Arial" font-size="14" font-weight="bold" lengthAdjust="spacing" textLength="99" x="858.0921" y="447.3291">&#171;Deployment&#187;</text></g><!--cluster ApiDeployment--><g id="cluster_ApiDeployment"><rect fill="#F7F9FB" height="226" rx="2.5" ry="2.5" style="stroke:#333333;stroke-width:1.0;" width="132" x="841.5921" y="166.0986"/><text fill="#000000" font-family="Arial" font-size="14" font-weight="bold" lengthAdjust="spacing" textLength="109" x="853.0921" y="181.2305">API Deployment</text><text fill="#000000" font-family="Arial" font-size="14" font-weight="bold" lengthAdjust="spacing" textLength="99" x="858.0921" y="197.3291">&#171;Deployment&#187;</text></g><!--cluster WorkerDeployment--><g id="cluster_WorkerDeployment"><rect fill="#F7F9FB" height="261" rx="2.5" ry="2.5" style="stroke:#333333;stroke-width:1.0;" width="171" x="236.5921" y="373.0986"/><text fill="#000000" font-family="Arial" font-size="14" font-weight="bold" lengthAdjust="spacing" textLength="138" x="253.0921" y="388.2305">Worker Deployment</text><text fill="#000000" font-family="Arial" font-size="14" font-weight="bold" lengthAdjust="spacing" textLength="99" x="272.5921" y="404.3291">&#171;Deployment&#187;</text></g><!--entity Ingress--><g id="elem_Ingress"><rect fill="#F7F9FB" height="52.1973" rx="2.5" ry="2.5" style="stroke:#333333;stroke-width:0.5;" width="104" x="270.0921" y="297.0986"/><text fill="#000000" font-family="Arial" font-size="14" lengthAdjust="spacing" textLength="84" x="280.0921" y="320.2305">Store Ingress</text><text fill="#000000" font-family="Arial" font-size="14" lengthAdjust="spacing" textLength="62" x="280.0921" y="336.3291">&#171;Ingress&#187;</text></g><!--entity WebService--><g id="elem_WebService"><rect fill="#F7F9FB" height="52.1973" rx="2.5" ry="2.5" style="stroke:#333333;stroke-width:0.5;" width="100" x="594.5921" y="472.0986"/><text fill="#000000" font-family="Arial" font-size="14" lengthAdjust="spacing" textLength="80" x="604.5921" y="495.2305">Web Service</text><text fill="#000000" font-family="Arial" font-size="14" lengthAdjust="spacing" textLength="63" x="604.5921" y="511.3291">&#171;Service&#187;</text></g><!--entity ApiService--><g id="elem_ApiService"><rect fill="#F7F9FB" height="52.1973" rx="2.5" ry="2.5" style="stroke:#333333;stroke-width:0.5;" width="92" x="598.5921" y="297.0986"/><text fill="#000000" font-family="Arial" font-size="14" lengthAdjust="spacing" textLength="72" x="608.5921" y="320.2305">API Service</text><text fill="#000000" font-family="Arial" font-size="14" lengthAdjust="spacing" textLength="63" x="608.5921" y="336.3291">&#171;Service&#187;</text></g><!--entity WebPod1--><g id="elem_WebPod1"><rect fill="#FFFFFF" height="62.1973" rx="2.5" ry="2.5" style="stroke:#333333;stroke-width:0.5;" width="106" x="854.5921" y="564.0986"/><rect fill="#FFFFFF" height="10" style="stroke:#333333;stroke-width:0.5;" width="15" x="940.5921" y="569.0986"/><rect fill="#FFFFFF" height="2" style="stroke:#333333;stroke-width:0.5;" width="4" x="938.5921" y="571.0986"/><rect fill="#FFFFFF" height="2" style="stroke:#333333;stroke-width:0.5;" width="4" x="938.5921" y="575.0986"/><text fill="#000000" font-family="Arial" font-size="14" lengthAdjust="spacing" textLength="66" x="869.5921" y="597.2305">web Pod 1</text><text fill="#000000" font-family="Arial" font-size="14" lengthAdjust="spacing" textLength="41" x="869.5921" y="613.3291">&#171;Pod&#187;</text></g><!--entity WebPod2--><g id="elem_WebPod2"><rect fill="#FFFFFF" height="62.1973" rx="2.5" ry="2.5" style="stroke:#333333;stroke-width:0.5;" width="106" x="854.5921" y="467.0986"/><rect fill="#FFFFFF" height="10" style="stroke:#333333;stroke-width:0.5;" width="15" x="940.5921" y="472.0986"/><rect fill="#FFFFFF" height="2" style="stroke:#333333;stroke-width:0.5;" width="4" x="938.5921" y="474.0986"/><rect fill="#FFFFFF" height="2" style="stroke:#333333;stroke-width:0.5;" width="4" x="938.5921" y="478.0986"/><text fill="#000000" font-family="Arial" font-size="14" lengthAdjust="spacing" textLength="66" x="869.5921" y="500.2305">web Pod 2</text><text fill="#000000" font-family="Arial" font-size="14" lengthAdjust="spacing" textLength="41" x="869.5921" y="516.3291">&#171;Pod&#187;</text></g><!--entity ApiPod1--><g id="elem_ApiPod1"><rect fill="#FFFFFF" height="62.1973" rx="2.5" ry="2.5" style="stroke:#333333;stroke-width:0.5;" width="100" x="857.5921" y="314.0986"/><rect fill="#FFFFFF" height="10" style="stroke:#333333;stroke-width:0.5;" width="15" x="937.5921" y="319.0986"/><rect fill="#FFFFFF" height="2" style="stroke:#333333;stroke-width:0.5;" width="4" x="935.5921" y="321.0986"/><rect fill="#FFFFFF" height="2" style="stroke:#333333;stroke-width:0.5;" width="4" x="935.5921" y="325.0986"/><text fill="#000000" font-family="Arial" font-size="14" lengthAdjust="spacing" textLength="60" x="872.5921" y="347.2305">api Pod 1</text><text fill="#000000" font-family="Arial" font-size="14" lengthAdjust="spacing" textLength="41" x="872.5921" y="363.3291">&#171;Pod&#187;</text></g><!--entity ApiPod2--><g id="elem_ApiPod2"><rect fill="#FFFFFF" height="62.1973" rx="2.5" ry="2.5" style="stroke:#333333;stroke-width:0.5;" width="100" x="857.5921" y="217.0986"/><rect fill="#FFFFFF" height="10" style="stroke:#333333;stroke-width:0.5;" width="15" x="937.5921" y="222.0986"/><rect fill="#FFFFFF" height="2" style="stroke:#333333;stroke-width:0.5;" width="4" x="935.5921" y="224.0986"/><rect fill="#FFFFFF" height="2" style="stroke:#333333;stroke-width:0.5;" width="4" x="935.5921" y="228.0986"/><text fill="#000000" font-family="Arial" font-size="14" lengthAdjust="spacing" textLength="60" x="872.5921" y="250.2305">api Pod 2</text><text fill="#000000" font-family="Arial" font-size="14" lengthAdjust="spacing" textLength="41" x="872.5921" y="266.3291">&#171;Pod&#187;</text></g><!--entity WorkerPod1--><g id="elem_WorkerPod1"><rect fill="#FFFFFF" height="62.1973" rx="2.5" ry="2.5" style="stroke:#333333;stroke-width:0.5;" width="123" x="260.5921" y="432.0986"/><rect fill="#FFFFFF" height="10" style="stroke:#333333;stroke-width:0.5;" width="15" x="363.5921" y="437.0986"/><rect fill="#FFFFFF" height="2" style="stroke:#333333;stroke-width:0.5;" width="4" x="361.5921" y="439.0986"/><rect fill="#FFFFFF" height="2" style="stroke:#333333;stroke-width:0.5;" width="4" x="361.5921" y="443.0986"/><text fill="#000000" font-family="Arial" font-size="14" lengthAdjust="spacing" textLength="83" x="275.5921" y="465.2305">worker Pod 1</text><text fill="#000000" font-family="Arial" font-size="14" lengthAdjust="spacing" textLength="41" x="275.5921" y="481.3291">&#171;Pod&#187;</text></g><!--entity WorkerPod2--><g id="elem_WorkerPod2"><rect fill="#FFFFFF" height="62.1973" rx="2.5" ry="2.5" style="stroke:#333333;stroke-width:0.5;" width="123" x="260.5921" y="529.0986"/><rect fill="#FFFFFF" height="10" style="stroke:#333333;stroke-width:0.5;" width="15" x="363.5921" y="534.0986"/><rect fill="#FFFFFF" height="2" style="stroke:#333333;stroke-width:0.5;" width="4" x="361.5921" y="536.0986"/><rect fill="#FFFFFF" height="2" style="stroke:#333333;stroke-width:0.5;" width="4" x="361.5921" y="540.0986"/><text fill="#000000" font-family="Arial" font-size="14" lengthAdjust="spacing" textLength="83" x="275.5921" y="562.2305">worker Pod 2</text><text fill="#000000" font-family="Arial" font-size="14" lengthAdjust="spacing" textLength="41" x="275.5921" y="578.3291">&#171;Pod&#187;</text></g><!--entity Internet--><g id="elem_Internet"><path d="M18.2449,309.6153 C21.8818,302.8598 27.7799,301.4188 33.2932,307.3979 C37.3053,299.7411 44.6831,298.4006 49.5698,306.494 C54.0037,298.6139 61.1042,298.9887 64.5323,307.4168 C70.4461,301.223 76.924,300.7503 81.0221,309.4298 C87.7313,313.5639 88.8712,320.4406 81.2293,324.7686 C88.708,330.0505 88.5643,334.9749 81.3693,340.3884 C77.4849,349.298 71.913,348.5604 65.8032,342.7401 C64.3116,351.5313 57.0163,354.5219 50.1445,348.3827 C43.2552,356.0714 34.8758,353.4351 33.1469,343.4264 C26.3789,350.081 21.5092,347.3367 18.2042,339.7841 C9.4583,338.4575 6,331.7964 11.9608,324.473 C7.5339,316.5511 9.3073,311.8846 18.2449,309.6153 " fill="#F1F1F1" style="stroke:#181818;stroke-width:0.5;"/><text fill="#000000" font-family="Arial" font-size="14" lengthAdjust="spacing" textLength="48" x="24.5921" y="328.2305">Internet</text></g><!--entity OrderDatabase--><g id="elem_OrderDatabase"><path d="M1200.5921,213.5986 C1200.5921,203.5986 1260.5921,203.5986 1260.5921,203.5986 C1260.5921,203.5986 1320.5921,203.5986 1320.5921,213.5986 L1320.5921,270.8945 C1320.5921,280.8945 1260.5921,280.8945 1260.5921,280.8945 C1260.5921,280.8945 1200.5921,280.8945 1200.5921,270.8945 L1200.5921,213.5986 " fill="#F2F5F7" style="stroke:#333333;stroke-width:0.5;"/><path d="M1200.5921,213.5986 C1200.5921,223.5986 1260.5921,223.5986 1260.5921,223.5986 C1260.5921,223.5986 1320.5921,223.5986 1320.5921,213.5986 " fill="none" style="stroke:#333333;stroke-width:0.5;"/><text fill="#000000" font-family="Arial" font-size="14" lengthAdjust="spacing" textLength="100" x="1210.5921" y="240.7305">Managed Order</text><text fill="#000000" font-family="Arial" font-size="14" lengthAdjust="spacing" textLength="61" x="1210.5921" y="256.8291">Database</text><text fill="#000000" font-family="Arial" font-size="14" lengthAdjust="spacing" textLength="92" x="1210.5921" y="272.9277">outside cluster</text></g><!--entity PaymentProvider--><g id="elem_PaymentProvider"><path d="M1198.7541,331.2369 C1201.681,325.366 1206.8853,325.2639 1210.6437,330.3333 C1214.2125,323.0738 1219.2184,323.4882 1224.3385,328.6186 C1228.0251,322.5007 1234.2524,323.9398 1237.0345,329.594 C1239.5349,323.1252 1245.2739,323.6104 1248.6731,328.6881 C1252.9077,323.5241 1258.4781,323.3714 1261.8663,329.663 C1264.8156,324.2043 1269.4672,323.9117 1273.4243,328.5041 C1278.9329,321.1096 1283.181,323.3373 1287.694,329.5482 C1291.178,325.3449 1295.9404,324.6881 1298.6638,330.3905 C1302.6861,323.4647 1306.9765,324.2476 1311.6854,329.6662 C1315.8889,324.7117 1321.1895,324.7264 1324.6854,330.522 C1331.3004,331.9038 1331.6603,335.9887 1328.4109,340.9088 C1336.2395,341.7636 1336.8624,347.839 1332.9112,353.0575 C1338.0091,358.3096 1336.0725,364.1398 1328.7265,365.0495 C1333.1563,370.2039 1330.7673,375.6557 1324.6555,377.3098 C1320.9004,382.763 1315.8775,382.6509 1312.0945,377.3423 C1309.4979,384.8436 1304.0082,385.5087 1299.3862,379.2071 C1296.1793,385.4159 1292.3849,386.8903 1287.4177,380.9398 C1284.3325,386.9557 1280.045,388.0312 1275.2792,382.7448 C1271.3883,388.4689 1265.2047,390.5098 1261.1981,382.8667 C1257.5741,388.4272 1253.1014,388.04 1249.839,382.4968 C1245.1931,388.8412 1239.5046,386.5586 1237.1587,380.2007 C1232.4324,385.7869 1225.5969,385.3758 1222.9102,377.9648 C1219.9194,384.0758 1214.801,384.2368 1211.2815,378.483 C1206.3336,383.7462 1201.277,382.5376 1198.1262,376.4079 C1192.4098,374.9762 1190.6345,369.934 1194.8238,365.5026 C1187.1337,364.2555 1185.5923,359.4141 1190.0038,353.3624 C1186.2877,347.9417 1187.0421,342.0557 1194.8797,341.3086 C1191.4198,336.2825 1192.4609,332.5113 1198.7541,331.2369 " fill="#F1F1F1" style="stroke:#181818;stroke-width:0.5;"/><text fill="#000000" font-family="Arial" font-size="14" lengthAdjust="spacing" textLength="112" x="1204.5921" y="349.2305">Payment Provider</text><text fill="#000000" font-family="Arial" font-size="14" lengthAdjust="spacing" textLength="46" x="1204.5921" y="365.3291">System</text></g><!--entity DeliveryPartner--><g id="elem_DeliveryPartner"><path d="M587.868,714.6207 C591.3837,708.6035 595.2832,710.16 598.822,714.5965 C602.7029,708.6606 607.6416,707.7442 611.5853,714.5335 C615.4827,708.8179 620.1358,708.5766 623.4535,715.0958 C626.3941,710.5573 629.7535,710.1223 633.5081,714.1393 C637.3136,708.1475 641.697,707.7937 645.7236,713.9164 C649.7106,707.336 654.115,708.3423 657.9608,714.0569 C661.8135,708.6322 665.2664,709.07 668.6136,714.5506 C672.0172,707.9473 677.0781,708.7344 680.9152,714.1054 C684.1188,708.8966 689.5483,709.0363 692.878,713.9564 C696.4516,710.1487 701.1885,710.8379 702.9332,716.0053 C708.2722,718.7753 709.8662,721.8636 705.4929,726.9128 C711.7305,728.4007 713.2564,731.6131 709.9007,737.2082 C714.9599,743.4004 712.9739,747.2832 706.4608,750.4748 C711.5679,754.3811 709.8368,759.0555 704.3645,760.8177 C700.9408,766.8441 696.7477,766.3634 692.8003,761.3671 C689.8786,768.8854 684.5939,769.5422 679.6083,763.3535 C677.3286,767.5538 672.4626,768.1749 669.7392,763.8683 C665.6269,769.529 660.7301,770.0401 657.0657,763.4067 C654.9453,769.2947 649.6958,769.5631 646.5475,764.3835 C642.7294,770.3117 637.2699,771.148 633.6689,764.1669 C629.262,769.6823 625.2412,768.8117 621.8659,763.0841 C618.8916,768.1167 613.8243,769.2601 610.5335,763.4138 C606.2419,768.9144 602.643,767.7582 599.0458,762.6611 C594.0924,768.6138 590.086,767.4501 587.102,760.7954 C581.9892,757.8841 582.3378,752.5645 587.1007,749.6521 C580.7317,746.3784 580.8123,741.4645 586.0878,737.2404 C581.0568,734.3283 580.265,729.237 585.5357,725.8266 C580.9374,720.9882 582.5275,717.3905 587.868,714.6207 " fill="#F1F1F1" style="stroke:#181818;stroke-width:0.5;"/><text fill="#000000" font-family="Arial" font-size="14" lengthAdjust="spacing" textLength="102" x="593.5921" y="734.2305">Delivery Partner</text><text fill="#000000" font-family="Arial" font-size="14" lengthAdjust="spacing" textLength="46" x="593.5921" y="750.3291">System</text></g><!--link Internet to Ingress--><g id="link_Internet_Ingress"><path d="M87.6321,323.0986 C135.2021,323.0986 210.8421,323.0986 263.8821,323.0986 " fill="none" id="Internet-to-Ingress" style="stroke:#333333;stroke-width:1.2;"/><polygon fill="#333333" points="269.8821,323.0986,260.8821,319.0986,264.8821,323.0986,260.8821,327.0986,269.8821,323.0986" style="stroke:#333333;stroke-width:1.2;"/><text fill="#000000" font-family="Arial" font-size="14" lengthAdjust="spacing" textLength="45" x="118.5921" y="319.2305">HTTPS</text></g><!--link Ingress to WebService--><g id="link_Ingress_WebService"><path d="M370.7321,349.1086 C431.3221,382.1986 530.0962,436.1228 590.6862,469.2128 " fill="none" id="Ingress-to-WebService" style="stroke:#333333;stroke-width:1.2;"/><polygon fill="#333333" points="595.9521,472.0886,589.9705,464.2643,591.5639,469.6921,586.1361,471.2854,595.9521,472.0886" style="stroke:#333333;stroke-width:1.2;"/><text fill="#000000" font-family="Arial" font-size="14" lengthAdjust="spacing" textLength="101" x="439.5921" y="381.2305">route web traffic</text></g><!--link Ingress to ApiService--><g id="link_Ingress_ApiService"><path d="M374.2321,323.0986 C436.1721,323.0986 533.5421,323.0986 592.5921,323.0986 " fill="none" id="Ingress-to-ApiService" style="stroke:#333333;stroke-width:1.2;"/><polygon fill="#333333" points="598.5921,323.0986,589.5921,319.0986,593.5921,323.0986,589.5921,327.0986,598.5921,323.0986" style="stroke:#333333;stroke-width:1.2;"/><text fill="#000000" font-family="Arial" font-size="14" lengthAdjust="spacing" textLength="97" x="441.5921" y="319.2305">route API traffic</text></g><!--link WebService to WebPod1--><g id="link_WebService_WebPod1"><path d="M694.6821,516.3386 C740.3121,533.2986 802.4277,556.3891 848.9677,573.6791 " fill="none" id="WebService-to-WebPod1" style="stroke:#333333;stroke-width:1.2;"/><polygon fill="#333333" points="854.5921,575.7686,847.5485,568.8848,849.9051,574.0274,844.7625,576.384,854.5921,575.7686" style="stroke:#333333;stroke-width:1.2;"/><text fill="#000000" font-family="Arial" font-size="14" lengthAdjust="spacing" textLength="80" x="741.5921" y="531.2305">selects Pods</text></g><!--link WebService to WebPod2--><g id="link_WebService_WebPod2"><path d="M694.6821,498.0986 C740.3121,498.0986 802.0521,498.0986 848.5921,498.0986 " fill="none" id="WebService-to-WebPod2" style="stroke:#333333;stroke-width:1.2;"/><polygon fill="#333333" points="854.5921,498.0986,845.5921,494.0986,849.5921,498.0986,845.5921,502.0986,854.5921,498.0986" style="stroke:#333333;stroke-width:1.2;"/><text fill="#000000" font-family="Arial" font-size="14" lengthAdjust="spacing" textLength="80" x="741.5921" y="494.2305">selects Pods</text></g><!--link ApiService to ApiPod1--><g id="link_ApiService_ApiPod1"><path d="M690.7521,326.9086 C737.3021,330.8286 803.6533,336.4246 851.5733,340.4646 " fill="none" id="ApiService-to-ApiPod1" style="stroke:#333333;stroke-width:1.2;"/><polygon fill="#333333" points="857.5521,340.9686,848.92,336.2267,852.5698,340.5486,848.2479,344.1984,857.5521,340.9686" style="stroke:#333333;stroke-width:1.2;"/><text fill="#000000" font-family="Arial" font-size="14" lengthAdjust="spacing" textLength="80" x="741.5921" y="328.2305">selects Pods</text></g><!--link ApiService to ApiPod2--><g id="link_ApiService_ApiPod2"><path d="M690.7521,310.1186 C737.3021,296.7486 803.8655,277.6157 851.7855,263.8457 " fill="none" id="ApiService-to-ApiPod2" style="stroke:#333333;stroke-width:1.2;"/><polygon fill="#333333" points="857.5521,262.1886,847.7975,260.8298,852.7466,263.5695,850.0069,268.5187,857.5521,262.1886" style="stroke:#333333;stroke-width:1.2;"/><text fill="#000000" font-family="Arial" font-size="14" lengthAdjust="spacing" textLength="80" x="741.5921" y="269.2305">selects Pods</text></g><!--link ApiPod1 to OrderDatabase--><g id="link_ApiPod1_OrderDatabase"><path d="M957.6821,330.9486 C1008.3121,316.3386 1089.5221,292.7986 1159.5921,272.0986 C1172.8021,268.1986 1181.2348,265.6915 1194.6448,261.6715 " fill="none" id="ApiPod1-to-OrderDatabase" style="stroke:#333333;stroke-width:1.2;"/><polygon fill="#333333" points="1200.3921,259.9486,1190.6226,258.7015,1195.6027,261.3844,1192.9198,266.3645,1200.3921,259.9486" style="stroke:#333333;stroke-width:1.2;"/><text fill="#000000" font-family="Arial" font-size="14" lengthAdjust="spacing" textLength="107" x="1046.5921" y="268.2305">read/write orders</text></g><!--link ApiPod2 to OrderDatabase--><g id="link_ApiPod2_OrderDatabase"><path d="M957.7621,247.2586 C1021.4421,246.1686 1126.323,244.3816 1194.503,243.2116 " fill="none" id="ApiPod2-to-OrderDatabase" style="stroke:#333333;stroke-width:1.2;"/><polygon fill="#333333" points="1200.5021,243.1086,1191.4348,239.2636,1195.5029,243.1944,1191.5721,247.2625,1200.5021,243.1086" style="stroke:#333333;stroke-width:1.2;"/><text fill="#000000" font-family="Arial" font-size="14" lengthAdjust="spacing" textLength="107" x="1046.5921" y="240.2305">read/write orders</text></g><!--link ApiPod1 to PaymentProvider--><g id="link_ApiPod1_PaymentProvider"><path d="M957.8621,364.7586 C982.3121,373.4786 1012.5521,382.7486 1040.5921,387.0986 C1092.8521,395.2086 1107.4521,395.9586 1159.5921,387.0986 C1169.3821,385.4386 1173.7423,384.6331 1183.6023,381.6931 " fill="none" id="ApiPod1-to-PaymentProvider" style="stroke:#333333;stroke-width:1.2;"/><polygon fill="#333333" points="1189.3521,379.9786,1179.5844,378.7171,1184.5606,381.4073,1181.8703,386.3835,1189.3521,379.9786" style="stroke:#333333;stroke-width:1.2;"/><text fill="#000000" font-family="Arial" font-size="14" lengthAdjust="spacing" textLength="117" x="1041.5921" y="383.2305">authorise payment</text></g><!--link ApiPod2 to PaymentProvider--><g id="link_ApiPod2_PaymentProvider"><path d="M957.7321,255.6286 C983.6021,262.1086 1013.7721,274.0786 1032.5921,296.0986 C1043.5221,308.8886 1027.9721,321.9786 1040.5921,333.0986 C1062.1021,352.0486 1127.8024,355.358 1183.3724,354.808 " fill="none" id="ApiPod2-to-PaymentProvider" style="stroke:#333333;stroke-width:1.2;"/><polygon fill="#333333" points="1189.3721,354.7486,1180.333,350.8379,1184.3724,354.7981,1180.4122,358.8375,1189.3721,354.7486" style="stroke:#333333;stroke-width:1.2;"/><text fill="#000000" font-family="Arial" font-size="14" lengthAdjust="spacing" textLength="117" x="1041.5921" y="329.2305">authorise payment</text></g><!--link WorkerDeployment to DeliveryPartner--><g id="link_WorkerDeployment_DeliveryPartner"><path d="M335.6034,634.1103 C335.7077,634.1754 335.8125,634.2409 335.9179,634.3066 C336.3394,634.5697 336.7699,634.8378 337.209,635.1106 C338.0874,635.6564 339.0006,636.2214 339.947,636.8042 C341.8396,637.9696 343.8647,639.2058 346.008,640.5 C350.2947,643.0885 355.0543,645.9093 360.1734,648.8611 C380.6496,660.6686 406.8771,674.5736 431.5921,684.0986 C479.3821,702.5186 529.8482,715.0253 572.4382,723.8953 " fill="none" id="WorkerDeployment-to-DeliveryPartner" style="stroke:#333333;stroke-width:1.2;"/><polygon fill="#333333" points="578.3121,725.1186,570.3167,719.3676,573.4172,724.0992,568.6856,727.1996,578.3121,725.1186" style="stroke:#333333;stroke-width:1.2;"/><text fill="#000000" font-family="Arial" font-size="14" lengthAdjust="spacing" textLength="115" x="432.5921" y="680.2305">fulfilment requests</text></g><rect fill="none" height="58.2959" id="_legend" rx="7.5" ry="7.5" style="stroke:#000000;stroke-width:1.0;" width="449" x="441.0046" y="789.148"/><text fill="#000000" font-family="Arial" font-size="14" lengthAdjust="spacing" textLength="274" x="446.0046" y="807.2799">Deployment manages desired Pod replicas.</text><text fill="#000000" font-family="Arial" font-size="14" lengthAdjust="spacing" textLength="306" x="446.0046" y="823.3785">Service exposes stable access to selected Pods.</text><text fill="#000000" font-family="Arial" font-size="14" lengthAdjust="spacing" textLength="439" x="446.0046" y="839.4771">The managed database and provider systems are outside the cluster.</text><!--SRC=[bLNTRzem47_tNt5Zpz117wPLLQL-Y0rDMv6erfU-cFW0guwTsKuxDFL_tzcnIM1XNIEGxFm-V7VsnU-aBbGj44QZ4_evlrNeJYh5jQzBDVGRB75KqP0nXIiFte2Lwuq78IqMNXhDlFGAOJhxF1oFXnzEHt2hbTG82syimjTwYLQZHmStM2cpBL5x-27ncJ7tA7N5BIyXU76z9f_V3E3AM87ssYXZuVrfVC9RNZokhQcrICZqu_JJz8gzT7mAKrP6XnNUuXCVyc65ChM0mKpx6FC0k8CyOKmRgjEWaz2rgXs13_hyl6Y65nTHau0OH9lQu3ilqLMym3CmiKP35seqhAmHmMI79vlTF1hjMJN5dUcrHUU2DWsJCitOeUmUbx10-oGB3A8qJ282quj3sULyTbnsMSaiwrkktVKWRMVjefrpqUG9dNqSF9F7t0WO1paDMXrDniVvapx-9F9VM5-2hmHAQVuxK5x9la19rnzeva_w-CS2lJVsaGxMQqMDh5VgsZZrbJOYHwhRgYP7L3dqyAS41FTyoHt5_erhlaO1jw4h7_HD0XwqgRsJr5kfYQ9T96LARimvRzAPM_CaeybYIueoAXAOiQovGIMVq6u9jruVQ3AOCCPojyDmU96x2CxWoztTVC7oF61jin1CNnEF44wUjtoraiKUjMsG7JMSjqpjE2NZK7gYEbIqyIuKs_Mp9eUipb9fvJwlNbQVLnG7ojvkX2oGYvDdAocL-8tDxCcRs8ttmRuHdzT-OwmaRTLWU-x_m_-h0OBmOBD9kAhLIgf8iFYpHkTTkEVMg0KiZVUcP1sFCfvV1m8TNNuYDe4bM1RSZLYkAFwgZ2EMe_IfOtbHX7D0zsPJt4P7_BiD9aS1knxXj72L4tFnd3hWzANFBK8NScwJ4QCmcs3_0000]--></g></svg>