<?xml version="1.0" encoding="us-ascii" standalone="no"?><svg xmlns="http://www.w3.org/2000/svg" xmlns:xlink="http://www.w3.org/1999/xlink" contentStyleType="text/css" height="853px" preserveAspectRatio="none" style="width:822px;height:853px;background:#FFFFFF;" version="1.1" viewBox="0 0 822 853" width="822px" zoomAndPan="magnify"><defs/><g><text fill="#000000" font-family="Arial" font-size="14" font-weight="bold" lengthAdjust="spacing" textLength="447" x="186" y="33.1318">FIG-17-01. Choosing the Right User and System Interaction View</text><rect fill="#F1F1F1" height="52.1973" rx="12.5" ry="12.5" style="stroke:#181818;stroke-width:1.5;" width="144" x="10" y="418.085"/><text fill="#000000" font-family="Arial" font-size="14" lengthAdjust="spacing" textLength="82" x="20" y="441.2168">Start with the</text><text fill="#000000" font-family="Arial" font-size="14" lengthAdjust="spacing" textLength="124" x="20" y="457.3154">interaction question</text><rect fill="#F1F1F1" height="36.0986" rx="12.5" ry="12.5" style="stroke:#181818;stroke-width:1.5;" width="123" x="204" y="65.1479"/><text fill="#000000" font-family="Arial" font-size="14" lengthAdjust="spacing" textLength="103" x="214" y="88.2798">Actor and scope</text><rect fill="#F1F1F1" height="52.1973" rx="12.5" ry="12.5" style="stroke:#181818;stroke-width:1.5;" width="136" x="377" y="57.0986"/><text fill="#000000" font-family="Arial" font-size="14" lengthAdjust="spacing" textLength="99" x="387" y="80.2305">Actor goals and</text><text fill="#000000" font-family="Arial" font-size="14" lengthAdjust="spacing" textLength="116" x="387" y="96.3291">system boundary?</text><rect fill="#F1F1F1" height="36.0986" rx="12.5" ry="12.5" style="stroke:#181818;stroke-width:1.5;" width="133" x="563" y="65.1479"/><text fill="#000000" font-family="Arial" font-size="14" lengthAdjust="spacing" textLength="113" x="573" y="88.2798">Use case diagram</text><path d="M513,83.1973 L523,83.1973 C538,83.1973 538,83.1973 553,83.1973 L563,83.1973 " fill="none" style="stroke:#333333;stroke-width:1.0;"/><path d="M327,83.1973 L337,83.1973 C352,83.1973 352,83.1973 367,83.1973 L377,83.1973 " fill="none" style="stroke:#333333;stroke-width:1.0;"/><path d="M154,444.1836 L164,444.1836 C179,444.1836 179,83.1973 194,83.1973 L204,83.1973 " fill="none" style="stroke:#333333;stroke-width:1.0;"/><rect fill="#F1F1F1" height="36.0986" rx="12.5" ry="12.5" style="stroke:#181818;stroke-width:1.5;" width="167" x="204" y="173.4438"/><text fill="#000000" font-family="Arial" font-size="14" lengthAdjust="spacing" textLength="147" x="214" y="196.5757">Experience and service</text><rect fill="#F1F1F1" height="52.1973" rx="12.5" ry="12.5" style="stroke:#181818;stroke-width:1.5;" width="168" x="421" y="129.2959"/><text fill="#000000" font-family="Arial" font-size="14" lengthAdjust="spacing" textLength="148" x="431" y="152.4277">User experience across</text><text fill="#000000" font-family="Arial" font-size="14" lengthAdjust="spacing" textLength="131" x="431" y="168.5264">steps and channels?</text><rect fill="#F1F1F1" height="36.0986" rx="12.5" ry="12.5" style="stroke:#181818;stroke-width:1.5;" width="100" x="639" y="137.3452"/><text fill="#000000" font-family="Arial" font-size="14" lengthAdjust="spacing" textLength="80" x="649" y="160.4771">User journey</text><path d="M589,155.3945 L599,155.3945 C614,155.3945 614,155.3945 629,155.3945 L639,155.3945 " fill="none" style="stroke:#333333;stroke-width:1.0;"/><path d="M371,191.4932 L381,191.4932 C396,191.4932 396,155.3945 411,155.3945 L421,155.3945 " fill="none" style="stroke:#333333;stroke-width:1.0;"/><rect fill="#F1F1F1" height="52.1973" rx="12.5" ry="12.5" style="stroke:#181818;stroke-width:1.5;" width="158" x="421" y="201.4932"/><text fill="#000000" font-family="Arial" font-size="14" lengthAdjust="spacing" textLength="138" x="431" y="224.625">Visible and backstage</text><text fill="#000000" font-family="Arial" font-size="14" lengthAdjust="spacing" textLength="86" x="431" y="240.7236">service work?</text><rect fill="#F1F1F1" height="36.0986" rx="12.5" ry="12.5" style="stroke:#181818;stroke-width:1.5;" width="126" x="629" y="209.5425"/><text fill="#000000" font-family="Arial" font-size="14" lengthAdjust="spacing" textLength="106" x="639" y="232.6743">Service blueprint</text><path d="M579,227.5918 L589,227.5918 C604,227.5918 604,227.5918 619,227.5918 L629,227.5918 " fill="none" style="stroke:#333333;stroke-width:1.0;"/><path d="M371,191.4932 L381,191.4932 C396,191.4932 396,227.5918 411,227.5918 L421,227.5918 " fill="none" style="stroke:#333333;stroke-width:1.0;"/><path d="M154,444.1836 L164,444.1836 C179,444.1836 179,191.4932 194,191.4932 L204,191.4932 " fill="none" style="stroke:#333333;stroke-width:1.0;"/><rect fill="#F1F1F1" height="36.0986" rx="12.5" ry="12.5" style="stroke:#181818;stroke-width:1.5;" width="144" x="204" y="281.7397"/><text fill="#000000" font-family="Arial" font-size="14" lengthAdjust="spacing" textLength="124" x="214" y="304.8716">Interface movement</text><rect fill="#F1F1F1" height="52.1973" rx="12.5" ry="12.5" style="stroke:#181818;stroke-width:1.5;" width="151" x="398" y="273.6904"/><text fill="#000000" font-family="Arial" font-size="14" lengthAdjust="spacing" textLength="131" x="408" y="296.8223">Screen navigation or</text><text fill="#000000" font-family="Arial" font-size="14" lengthAdjust="spacing" textLength="105" x="408" y="312.9209">interface layout?</text><rect fill="#F1F1F1" height="52.1973" rx="12.5" ry="12.5" style="stroke:#181818;stroke-width:1.5;" width="102" x="599" y="273.6904"/><text fill="#000000" font-family="Arial" font-size="14" lengthAdjust="spacing" textLength="82" x="609" y="296.8223">Wireframe or</text><text fill="#000000" font-family="Arial" font-size="14" lengthAdjust="spacing" textLength="71" x="609" y="312.9209">screen flow</text><path d="M549,299.7891 L559,299.7891 C574,299.7891 574,299.7891 589,299.7891 L599,299.7891 " fill="none" style="stroke:#333333;stroke-width:1.0;"/><path d="M348,299.7891 L358,299.7891 C373,299.7891 373,299.7891 388,299.7891 L398,299.7891 " fill="none" style="stroke:#333333;stroke-width:1.0;"/><path d="M154,444.1836 L164,444.1836 C179,444.1836 179,299.7891 194,299.7891 L204,299.7891 " fill="none" style="stroke:#333333;stroke-width:1.0;"/><rect fill="#F1F1F1" height="36.0986" rx="12.5" ry="12.5" style="stroke:#181818;stroke-width:1.5;" width="171" x="204" y="390.0356"/><text fill="#000000" font-family="Arial" font-size="14" lengthAdjust="spacing" textLength="151" x="214" y="413.1675">Runtime message order</text><rect fill="#F1F1F1" height="52.1973" rx="12.5" ry="12.5" style="stroke:#181818;stroke-width:1.5;" width="166" x="425" y="345.8877"/><text fill="#000000" font-family="Arial" font-size="14" lengthAdjust="spacing" textLength="146" x="435" y="369.0195">Precise message order</text><text fill="#000000" font-family="Arial" font-size="14" lengthAdjust="spacing" textLength="105" x="435" y="385.1182">in one scenario?</text><rect fill="#F1F1F1" height="36.0986" rx="12.5" ry="12.5" style="stroke:#181818;stroke-width:1.5;" width="169" x="641" y="353.937"/><text fill="#000000" font-family="Arial" font-size="14" lengthAdjust="spacing" textLength="149" x="651" y="377.0688">UML sequence diagram</text><path d="M591,371.9863 L601,371.9863 C616,371.9863 616,371.9863 631,371.9863 L641,371.9863 " fill="none" style="stroke:#333333;stroke-width:1.0;"/><path d="M375,408.085 L385,408.085 C400,408.085 400,371.9863 415,371.9863 L425,371.9863 " fill="none" style="stroke:#333333;stroke-width:1.0;"/><rect fill="#F1F1F1" height="52.1973" rx="12.5" ry="12.5" style="stroke:#181818;stroke-width:1.5;" width="151" x="425" y="418.085"/><text fill="#000000" font-family="Arial" font-size="14" lengthAdjust="spacing" textLength="130" x="435" y="441.2168">Collaboration across</text><text fill="#000000" font-family="Arial" font-size="14" lengthAdjust="spacing" textLength="131" x="435" y="457.3154">known C4 elements?</text><rect fill="#F1F1F1" height="36.0986" rx="12.5" ry="12.5" style="stroke:#181818;stroke-width:1.5;" width="125" x="626" y="426.1343"/><text fill="#000000" font-family="Arial" font-size="14" lengthAdjust="spacing" textLength="105" x="636" y="449.2661">C4 dynamic view</text><path d="M576,444.1836 L586,444.1836 C601,444.1836 601,444.1836 616,444.1836 L626,444.1836 " fill="none" style="stroke:#333333;stroke-width:1.0;"/><path d="M375,408.085 L385,408.085 C400,408.085 400,444.1836 415,444.1836 L425,444.1836 " fill="none" style="stroke:#333333;stroke-width:1.0;"/><path d="M154,444.1836 L164,444.1836 C179,444.1836 179,408.085 194,408.085 L204,408.085 " fill="none" style="stroke:#333333;stroke-width:1.0;"/><rect fill="#F1F1F1" height="36.0986" rx="12.5" ry="12.5" style="stroke:#181818;stroke-width:1.5;" width="157" x="204" y="534.4302"/><text fill="#000000" font-family="Arial" font-size="14" lengthAdjust="spacing" textLength="137" x="214" y="557.562">Process responsibility</text><rect fill="#F1F1F1" height="52.1973" rx="12.5" ry="12.5" style="stroke:#181818;stroke-width:1.5;" width="147" x="411" y="490.2822"/><text fill="#000000" font-family="Arial" font-size="14" lengthAdjust="spacing" textLength="125" x="421" y="513.4141">Business hand-offs,</text><text fill="#000000" font-family="Arial" font-size="14" lengthAdjust="spacing" textLength="127" x="421" y="529.5127">waits or exceptions?</text><rect fill="#F1F1F1" height="36.0986" rx="12.5" ry="12.5" style="stroke:#181818;stroke-width:1.5;" width="143" x="608" y="498.3315"/><text fill="#000000" font-family="Arial" font-size="14" lengthAdjust="spacing" textLength="123" x="618" y="521.4634">BPMN collaboration</text><path d="M558,516.3809 L568,516.3809 C583,516.3809 583,516.3809 598,516.3809 L608,516.3809 " fill="none" style="stroke:#333333;stroke-width:1.0;"/><path d="M361,552.4795 L371,552.4795 C386,552.4795 386,516.3809 401,516.3809 L411,516.3809 " fill="none" style="stroke:#333333;stroke-width:1.0;"/><rect fill="#F1F1F1" height="52.1973" rx="12.5" ry="12.5" style="stroke:#181818;stroke-width:1.5;" width="171" x="411" y="562.4795"/><text fill="#000000" font-family="Arial" font-size="14" lengthAdjust="spacing" textLength="151" x="421" y="585.6113">Action and decision flow</text><text fill="#000000" font-family="Arial" font-size="14" lengthAdjust="spacing" textLength="137" x="421" y="601.71">inside one boundary?</text><rect fill="#F1F1F1" height="36.0986" rx="12.5" ry="12.5" style="stroke:#181818;stroke-width:1.5;" width="119" x="632" y="570.5288"/><text fill="#000000" font-family="Arial" font-size="14" lengthAdjust="spacing" textLength="99" x="642" y="593.6606">Activity diagram</text><path d="M582,588.5781 L592,588.5781 C607,588.5781 607,588.5781 622,588.5781 L632,588.5781 " fill="none" style="stroke:#333333;stroke-width:1.0;"/><path d="M361,552.4795 L371,552.4795 C386,552.4795 386,588.5781 401,588.5781 L411,588.5781 " fill="none" style="stroke:#333333;stroke-width:1.0;"/><path d="M154,444.1836 L164,444.1836 C179,444.1836 179,552.4795 194,552.4795 L204,552.4795 " fill="none" style="stroke:#333333;stroke-width:1.0;"/><rect fill="#F1F1F1" height="36.0986" rx="12.5" ry="12.5" style="stroke:#181818;stroke-width:1.5;" width="128" x="204" y="678.8247"/><text fill="#000000" font-family="Arial" font-size="14" lengthAdjust="spacing" textLength="108" x="214" y="701.9565">Lifecycle and API</text><rect fill="#F1F1F1" height="52.1973" rx="12.5" ry="12.5" style="stroke:#181818;stroke-width:1.5;" width="183" x="382" y="634.6768"/><text fill="#000000" font-family="Arial" font-size="14" lengthAdjust="spacing" textLength="125" x="392" y="657.8086">Lifecycle states and</text><text fill="#000000" font-family="Arial" font-size="14" lengthAdjust="spacing" textLength="163" x="392" y="673.9072">event-triggered changes?</text><rect fill="#F1F1F1" height="36.0986" rx="12.5" ry="12.5" style="stroke:#181818;stroke-width:1.5;" width="110" x="615" y="642.7261"/><text fill="#000000" font-family="Arial" font-size="14" lengthAdjust="spacing" textLength="90" x="625" y="665.8579">State machine</text><path d="M565,660.7754 L575,660.7754 C590,660.7754 590,660.7754 605,660.7754 L615,660.7754 " fill="none" style="stroke:#333333;stroke-width:1.0;"/><path d="M332,696.874 L342,696.874 C357,696.874 357,660.7754 372,660.7754 L382,660.7754 " fill="none" style="stroke:#333333;stroke-width:1.0;"/><rect fill="#F1F1F1" height="52.1973" rx="12.5" ry="12.5" style="stroke:#181818;stroke-width:1.5;" width="232" x="382" y="706.874"/><text fill="#000000" font-family="Arial" font-size="14" lengthAdjust="spacing" textLength="137" x="392" y="730.0059">Channel-to-service or</text><text fill="#000000" font-family="Arial" font-size="14" lengthAdjust="spacing" textLength="212" x="392" y="746.1045">service-to-service API behaviour?</text><rect fill="#F1F1F1" height="36.0986" rx="12.5" ry="12.5" style="stroke:#181818;stroke-width:1.5;" width="142" x="664" y="714.9233"/><text fill="#000000" font-family="Arial" font-size="14" lengthAdjust="spacing" textLength="122" x="674" y="738.0552">API interaction view</text><path d="M614,732.9727 L624,732.9727 C639,732.9727 639,732.9727 654,732.9727 L664,732.9727 " fill="none" style="stroke:#333333;stroke-width:1.0;"/><path d="M332,696.874 L342,696.874 C357,696.874 357,732.9727 372,732.9727 L382,732.9727 " fill="none" style="stroke:#333333;stroke-width:1.0;"/><path d="M154,444.1836 L164,444.1836 C179,444.1836 179,696.874 194,696.874 L204,696.874 " fill="none" style="stroke:#333333;stroke-width:1.0;"/><rect fill="#F1F1F1" height="36.0986" rx="12.5" ry="12.5" style="stroke:#181818;stroke-width:1.5;" width="101" x="204" y="787.1206"/><text fill="#000000" font-family="Arial" font-size="14" lengthAdjust="spacing" textLength="81" x="214" y="810.2524">Still unclear?</text><rect fill="#F1F1F1" height="52.1973" rx="12.5" ry="12.5" style="stroke:#181818;stroke-width:1.5;" width="164" x="355" y="779.0713"/><text fill="#000000" font-family="Arial" font-size="14" lengthAdjust="spacing" textLength="80" x="365" y="802.2031">Clarify actor,</text><text fill="#000000" font-family="Arial" font-size="14" lengthAdjust="spacing" textLength="144" x="365" y="818.3018">boundary and decision</text><rect fill="#F1F1F1" height="52.1973" rx="12.5" ry="12.5" style="stroke:#181818;stroke-width:1.5;" width="193" x="569" y="779.0713"/><text fill="#000000" font-family="Arial" font-size="14" lengthAdjust="spacing" textLength="147" x="579" y="802.2031">Do not choose notation</text><text fill="#000000" font-family="Arial" font-size="14" lengthAdjust="spacing" textLength="173" x="579" y="818.3018">until the question is specific</text><path d="M519,805.1699 L529,805.1699 C544,805.1699 544,805.1699 559,805.1699 L569,805.1699 " fill="none" style="stroke:#333333;stroke-width:1.0;"/><path d="M305,805.1699 L315,805.1699 C330,805.1699 330,805.1699 345,805.1699 L355,805.1699 " fill="none" style="stroke:#333333;stroke-width:1.0;"/><path d="M154,444.1836 L164,444.1836 C179,444.1836 179,805.1699 194,805.1699 L204,805.1699 " fill="none" style="stroke:#333333;stroke-width:1.0;"/><!--SRC=[xLR1SXCv4BtxAxfg3mkfs1M705M-B8aX56p2fZ1aBxd8cfwnY4QQbJGsvkltjJH33CKNx2Q7b2rrl-v-_RhbLp6fa5hZgbPrasIIPRfyztOwVpazcSzekV4-6jTGsZ1zDCqcqUV8WPIhQBMFYLjwvn87fPFnZcuDxoRnthXE1TNIMkdx9lZULKjlVQ3VBlFVWKN5jUfjklGkVL0jqtamolxwVcM-CStF3YxZHbL-9zdLoaO-k3aFmU-6cC_ot-HtMh7bacReBI_aH6gddKcRN9_kGs2No1nKz4_FKJxCO7vZz7qsh4s8YTP1EIsUAb6hajvmB33UQGxP0roLeutgW4b9hS5lZRHKNnc6tJ4bqqe9mgZsROkOhK5JxZaAmYTuHzy7pMHYpin9EihQFTrOvTBdwwjZ85fRc91eoo7Q_2KbxsqkTyIgJTE7ZAKS-M0Q0onAhFH6t9lULCZ9-KGAwNI6Aq8ohbAXYbGPrO3UsUJe9-hktAyucnmTqRbEliWb0evnD9ur7asJcpiNYvBMeXGLzd-8rL4cJoly6y8At9kl7OTCNC7ai3Mwe6PTyi6z3Zv6W2VkOg5tevnZ6n_m0tq1juxt6U7MH2Fz4LkHBWflKDeGX7O-t0-kg-5eRNlk0cgNtF8Wr0h7hTzoo_aKjZemEt9gQngL-V5Xu2iRMxNtVHg0_pQ1wo2J84QnkDRehGJusAFtk6evHcG6auf3Zd4JM9luquq48U-W7yrE1UF7kg-lG1oQ92mzS7j461YhrZwKB4V-xftVELgU4SP7YXhfmqcrTwerchOozZaDhv411OwTTo3JM9CAjnSzreZSeGVLrDTrFBvpEsLIHB9ec-PEeexW5pVN7w2_Wtn6vUJKqA1AAfOlmewK6g7SNEvFCXAVBT8ubD6LgLdlzT3hyvjt6VtX59rFF8YJjoXwcZ0g3GSkAcfuJ7GbbXX_6P-YmsLHsJJvwQYStClo-V0OSMdD6mW38XopnTdXB8tKhfAnbdg7x5InfQL5K-iz6eLn0fjZtJ_GKr1V-ppIMhOvoyTCwPqJGTcyCyQPbSqGEpZNHcDbd6jfwD18SUGeYtDArwoSB0oOQnM2x8dr7dlaQohR0xr3KRDiAtj7NXZGr96y1vr8n8AuQboMCI_5g44TK1_SXfxbVJMitTfOq3FkgC2TnHI9C3F4bxvgyhU2yGQD6HSreWlAzqgJBzFHex5HSYdumdXnFWSwbcDfEDptq8LqmR5iHUWYu5RCuvYmi9iFy3RvtbO0Q1McCBAyIwd8hUj31yEfvMesUSLuUOVNT_Bg__8OFxuVZ-_7u_lndty_VbXkuwzLmjxCnCzdfoUdPxDdJow3eKjUq_m5dJnRd9qiJfxJwkqdakkdaoTlRwwsf-EFu0g_ZODPznBhwUIzsgfHrWlwgsFt_lMVttN-ncrDy2vFqllRwmU35sVJ2vFo56A4RwydhyjcWuVs5NROWfRT_FJvwUGAlUen4GjYDrc2e1Js2_gy-XS0]--></g></svg>