<?xml version="1.0" encoding="us-ascii" standalone="no"?><svg xmlns="http://www.w3.org/2000/svg" xmlns:xlink="http://www.w3.org/1999/xlink" contentStyleType="text/css" height="657px" preserveAspectRatio="none" style="width:735px;height:657px;background:#FFFFFF;" version="1.1" viewBox="0 0 735 657" width="735.75px" zoomAndPan="magnify"><defs/><g><text fill="#000000" font-family="Arial" font-size="10.5" font-weight="bold" lengthAdjust="spacing" textLength="321" x="202.125" y="17.3489">FIG-24-01. Discovery Evidence and Recommended Model Set</text><!--entity Start--><g id="elem_Start"><rect fill="#DCEAF7" height="39.1479" rx="3.75" ry="3.75" style="stroke:#333333;stroke-width:0.375;" width="138.75" x="347.625" y="33.074"/><text fill="#111111" font-family="Arial" font-size="10.5" lengthAdjust="spacing" textLength="123.75" x="355.125" y="50.4229">Problem, desired outcome</text><text fill="#111111" font-family="Arial" font-size="10.5" lengthAdjust="spacing" textLength="108.75" x="355.125" y="62.4968">and available evidence</text></g><!--entity Stake--><g id="elem_Stake"><rect fill="#F5F7FA" height="39.1479" rx="3.75" ry="3.75" style="stroke:#333333;stroke-width:0.375;" width="144.75" x="216.375" y="106.574"/><text fill="#111111" font-family="Arial" font-size="10.5" lengthAdjust="spacing" textLength="66" x="223.875" y="123.9229">Who matters?</text><text fill="#111111" font-family="Arial" font-size="10.5" lengthAdjust="spacing" textLength="129.75" x="223.875" y="135.9968">Stakeholders and concerns</text></g><!--entity Context--><g id="elem_Context"><rect fill="#F5F7FA" height="39.1479" rx="3.75" ry="3.75" style="stroke:#333333;stroke-width:0.375;" width="128.25" x="295.875" y="180.074"/><text fill="#111111" font-family="Arial" font-size="10.5" lengthAdjust="spacing" textLength="113.25" x="303.375" y="197.4229">What surrounds scope?</text><text fill="#111111" font-family="Arial" font-size="10.5" lengthAdjust="spacing" textLength="99.75" x="303.375" y="209.4968">Current-state context</text></g><!--entity Cap--><g id="elem_Cap"><rect fill="#F5F7FA" height="39.1479" rx="3.75" ry="3.75" style="stroke:#333333;stroke-width:0.375;" width="121.5" x="360.75" y="253.574"/><text fill="#111111" font-family="Arial" font-size="10.5" lengthAdjust="spacing" textLength="106.5" x="368.25" y="270.9229">Which abilities matter?</text><text fill="#111111" font-family="Arial" font-size="10.5" lengthAdjust="spacing" textLength="105.75" x="368.25" y="282.9968">Capability assessment</text></g><!--entity Process--><g id="elem_Process"><rect fill="#F5F7FA" height="39.1479" rx="3.75" ry="3.75" style="stroke:#333333;stroke-width:0.375;" width="130.5" x="436.5" y="327.074"/><text fill="#111111" font-family="Arial" font-size="10.5" lengthAdjust="spacing" textLength="115.5" x="444" y="344.4229">How does work happen?</text><text fill="#111111" font-family="Arial" font-size="10.5" lengthAdjust="spacing" textLength="86.25" x="444" y="356.4968">Process discovery</text></g><!--entity Limits--><g id="elem_Limits"><rect fill="#F5F7FA" height="39.1479" rx="3.75" ry="3.75" style="stroke:#333333;stroke-width:0.375;" width="225" x="506.25" y="400.574"/><text fill="#111111" font-family="Arial" font-size="10.5" lengthAdjust="spacing" textLength="158.25" x="513.75" y="417.9229">What limits confidence or choice?</text><text fill="#111111" font-family="Arial" font-size="10.5" lengthAdjust="spacing" textLength="210" x="513.75" y="429.9968">Constraints, assumptions and dependencies</text></g><!--entity Synth--><g id="elem_Synth"><rect fill="#E2F0D9" height="39.1479" rx="3.75" ry="3.75" style="stroke:#333333;stroke-width:0.375;" width="132.75" x="298.125" y="474.074"/><text fill="#111111" font-family="Arial" font-size="10.5" lengthAdjust="spacing" textLength="117.75" x="305.625" y="491.4229">Synthesis: findings, gaps</text><text fill="#111111" font-family="Arial" font-size="10.5" lengthAdjust="spacing" textLength="116.25" x="305.625" y="503.4968">and candidate directions</text></g><!--entity Gate--><g id="elem_Gate"><rect fill="#FFF2CC" height="51.2219" rx="3.75" ry="3.75" style="stroke:#333333;stroke-width:0.375;" width="121.5" x="31.5" y="547.574"/><text fill="#111111" font-family="Arial" font-size="10.5" lengthAdjust="spacing" textLength="95.25" x="39" y="564.9229">Readiness decision:</text><text fill="#111111" font-family="Arial" font-size="10.5" lengthAdjust="spacing" textLength="106.5" x="39" y="576.9968">proceed, loop, narrow,</text><text fill="#111111" font-family="Arial" font-size="10.5" lengthAdjust="spacing" textLength="65.25" x="39" y="589.0708">pause or stop</text></g><g id="elem_GMN27"><path d="M4.5,620.324 L4.5,651.9719 A0,0 0 0 0 4.5,651.9719 L180,651.9719 A0,0 0 0 0 180,651.9719 L180,627.824 L172.5,620.324 L95.25,620.324 L92.25,598.8365 L89.25,620.324 L4.5,620.324 A0,0 0 0 0 4.5,620.324 " fill="#FEFFDD" style="stroke:#181818;stroke-width:0.375;"/><path d="M172.5,620.324 L172.5,627.824 L180,627.824 L172.5,620.324 " fill="#FEFFDD" style="stroke:#181818;stroke-width:0.375;"/><text fill="#000000" font-family="Arial" font-size="10.5" lengthAdjust="spacing" textLength="153.75" x="9" y="633.9229">This is an iterative learning loop,</text><text fill="#000000" font-family="Arial" font-size="10.5" lengthAdjust="spacing" textLength="159.75" x="9" y="645.9968">not one mandatory linear method.</text></g><!--link Start to Stake--><g id="link_Start_Stake"><path d="M363.0075,72.074 C355.7775,75.2465 348.5925,78.764 342,82.574 C330.405,89.279 322.0912,95.4712 312.6037,103.5637 " fill="none" id="Start-to-Stake" style="stroke:#333333;stroke-width:0.75;"/><polygon fill="#333333" points="309.18,106.484,316.2624,104.386,312.0331,104.0504,312.3687,99.821,309.18,106.484" style="stroke:#333333;stroke-width:0.75;"/><text fill="#000000" font-family="Arial" font-size="10.5" lengthAdjust="spacing" textLength="34.5" x="342.75" y="93.1729">informs</text></g><!--link Start to Context--><g id="link_Start_Context"><path d="M409.545,72.344 C398.595,100.304 379.9116,148.0066 369.0066,175.8391 " fill="none" id="Start-to-Context" style="stroke:#333333;stroke-width:0.75;"/><polygon fill="#333333" points="367.365,180.029,372.6207,174.8386,368.733,176.5374,367.0342,172.6497,367.365,180.029" style="stroke:#333333;stroke-width:0.75;"/><text fill="#000000" font-family="Arial" font-size="10.5" lengthAdjust="spacing" textLength="34.5" x="396.75" y="129.9229">informs</text></g><!--link Start to Cap--><g id="link_Start_Cap"><path d="M425.0475,72.164 C428.8875,82.184 433.065,94.829 435,106.574 C443.6925,159.419 433.6543,218.3144 426.9418,249.1619 " fill="none" id="Start-to-Cap" style="stroke:#333333;stroke-width:0.75;"/><polygon fill="#333333" points="425.985,253.559,430.3516,247.6012,426.7824,249.8947,424.4888,246.3254,425.985,253.559" style="stroke:#333333;stroke-width:0.75;"/><text fill="#000000" font-family="Arial" font-size="10.5" lengthAdjust="spacing" textLength="34.5" x="438.75" y="166.6729">informs</text></g><!--link Start to Process--><g id="link_Start_Process"><path d="M462.9,72.149 C483.5025,83.9165 503.25,101.429 503.25,125.324 C503.25,125.324 503.25,125.324 503.25,273.824 C503.25,291.8315 502.9076,307.8609 502.4876,322.3809 " fill="none" id="Start-to-Process" style="stroke:#333333;stroke-width:0.75;"/><polygon fill="#333333" points="502.3575,326.879,505.5514,320.2185,502.4659,323.1305,499.5539,320.0451,502.3575,326.879" style="stroke:#333333;stroke-width:0.75;"/><text fill="#000000" font-family="Arial" font-size="10.5" lengthAdjust="spacing" textLength="34.5" x="504" y="203.4229">informs</text></g><!--link Start to Limits--><g id="link_Start_Limits"><path d="M486.585,66.089 C541.2675,78.164 608.25,98.4515 608.25,125.324 C608.25,125.324 608.25,125.324 608.25,347.324 C608.25,365.5115 610.6847,381.6124 613.5947,396.0724 " fill="none" id="Start-to-Limits" style="stroke:#333333;stroke-width:0.75;"/><polygon fill="#333333" points="614.4825,400.484,616.0918,393.2748,613.7427,396.8077,610.2098,394.4585,614.4825,400.484" style="stroke:#333333;stroke-width:0.75;"/><text fill="#000000" font-family="Arial" font-size="10.5" lengthAdjust="spacing" textLength="34.5" x="609" y="240.1729">informs</text></g><!--link Stake to Context--><!--link Context to Cap--><!--link Cap to Process--><!--link Process to Limits--><!--link Stake to Synth--><g id="link_Stake_Synth"><path d="M282.87,145.874 C278.9475,160.274 274.5,180.599 274.5,198.824 C274.5,198.824 274.5,198.824 274.5,420.824 C274.5,445.034 290.6623,460.277 311.8648,471.9095 " fill="none" id="Stake-to-Synth" style="stroke:#333333;stroke-width:0.75;"/><polygon fill="#333333" points="315.81,474.074,311.3351,468.1971,312.5223,472.2702,308.4491,473.4574,315.81,474.074" style="stroke:#333333;stroke-width:0.75;"/><text fill="#000000" font-family="Arial" font-size="10.5" lengthAdjust="spacing" textLength="52.5" x="275.25" y="313.6729">contributes</text></g><!--link Context to Synth--><g id="link_Context_Synth"><path d="M351.645,219.1715 C346.065,233.4665 339.75,253.754 339.75,272.324 C339.75,272.324 339.75,272.324 339.75,420.824 C339.75,439.5965 345.4191,455.6378 352.2066,469.8128 " fill="none" id="Context-to-Synth" style="stroke:#333333;stroke-width:0.75;"/><polygon fill="#333333" points="354.15,473.8715,353.9406,466.4878,352.5305,470.4892,348.529,469.0791,354.15,473.8715" style="stroke:#333333;stroke-width:0.75;"/><text fill="#000000" font-family="Arial" font-size="10.5" lengthAdjust="spacing" textLength="52.5" x="340.5" y="350.4229">contributes</text></g><!--link Cap to Synth--><g id="link_Cap_Synth"><path d="M416.5875,292.6865 C405.8175,334.079 381.3304,428.1464 370.5529,469.5764 " fill="none" id="Cap-to-Synth" style="stroke:#333333;stroke-width:0.75;"/><polygon fill="#333333" points="369.42,473.9315,374.0227,468.1542,370.3641,470.3023,368.216,466.6436,369.42,473.9315" style="stroke:#333333;stroke-width:0.75;"/><text fill="#000000" font-family="Arial" font-size="10.5" lengthAdjust="spacing" textLength="52.5" x="394.5" y="387.1729">contributes</text></g><!--link Process to Synth--><g id="link_Process_Synth"><path d="M480.0075,366.1715 C469.17,375.989 456.1425,388.4465 445.5,400.574 C422.67,426.5765 423.42,438.329 399.75,463.574 C396.4875,467.054 396.207,467.5487 392.4945,470.7962 " fill="none" id="Process-to-Synth" style="stroke:#333333;stroke-width:0.75;"/><polygon fill="#333333" points="389.1075,473.759,396.1632,471.5728,391.93,471.29,392.2128,467.0568,389.1075,473.759" style="stroke:#333333;stroke-width:0.75;"/><text fill="#000000" font-family="Arial" font-size="10.5" lengthAdjust="spacing" textLength="52.5" x="446.25" y="423.9229">contributes</text></g><!--link Limits to Synth--><g id="link_Limits_Synth"><path d="M552.2775,439.649 C514.8375,450.254 472.5472,462.2277 435.1297,472.8252 " fill="none" id="Limits-to-Synth" style="stroke:#333333;stroke-width:0.75;"/><polygon fill="#333333" points="430.8,474.0515,438.1121,475.0985,434.4081,473.0296,436.477,469.3256,430.8,474.0515" style="stroke:#333333;stroke-width:0.75;"/><text fill="#000000" font-family="Arial" font-size="10.5" lengthAdjust="spacing" textLength="52.5" x="514.5" y="460.6729">contributes</text></g><!--link Synth to Gate--><g id="link_Synth_Gate"><path d="M298.9425,513.104 C254.5725,525.8165 200.7058,541.2492 157.3708,553.6692 " fill="none" id="Synth-to-Gate" style="stroke:#333333;stroke-width:0.75;"/><polygon fill="#333333" points="153.045,554.909,160.3603,555.9332,156.6499,553.8758,158.7072,550.1654,153.045,554.909" style="stroke:#333333;stroke-width:0.75;"/><text fill="#000000" font-family="Arial" font-size="10.5" lengthAdjust="spacing" textLength="75.75" x="261.75" y="534.1729">review evidence</text></g><!--reverse link Start to Gate--><g id="link_Start_Gate"><path d="M342.9325,54.4573 C244.3225,57.7648 80.25,71.1815 80.25,125.324 C80.25,125.324 80.25,125.324 80.25,494.324 C80.25,512.2715 83.3925,532.274 86.46,547.529 " fill="none" id="Start-backto-Gate" style="stroke:#333333;stroke-width:0.75;"/><polygon fill="#333333" points="347.43,54.3065,340.5832,51.5344,343.6821,54.4322,340.7844,57.5311,347.43,54.3065" style="stroke:#333333;stroke-width:0.75;"/><text fill="#000000" font-family="Arial" font-size="10.5" lengthAdjust="spacing" textLength="175.5" x="81" y="313.6729">uncertainty remains; gather evidence</text></g><!--SRC=[VLLDRzD04BtxLupQQr8beLLBa40XRGeI8DGWSQ0S9jv9lCfwnzfT9mJ4VsTsxRHEI-D3PCt7spVptZe-HqCmEBkyo88EyZhxUDiVdVS7mpEurZxd3RaTt6oq8fiJe5LmHpcN9Lb52Zwp8WDp2fbVQrkXmn8McAzNZckhfcpOmUaiFPqAHKkiJPYn3L-m99WuZUR_-Rd-JJ0yxoHzWOgtsgvWYSPJ9pDnZhVjcQ_IqqawoWFQbKpu9mDu_upZnUnoDeaPTehS8Gf0fDB6XkcHs5tJxYmv60wolrdW2WB3WaDW6KB78pNR3Wahw_9KmV2gompjEWP7LzaZoPElZXU6ofuimmkI0gw3x9tkRTG0DwWDIW5GAyq9e8TvG1VWz7fwCvbTTj6-5mmbXa3ElxktKhQcWeqCwfEaEGk2ituFigR3PWpWQvVsvK5CKP6WJ2L2DlHzm40H8j2la12cpViXXiuBm8KsEcZoBPc8WbKJtKcd9-_5MIqALbs43xm5nTAwPRU60gkAhFJBddBfadMtPaszRVJP54QNElX8TjawMYJD2zPvceYj3mwr3RuNsTHb5GLiTgIeYfwtkT1FPtnAMDqZvZiR2f7BZs6fhHAF2iuAAz-8bikFLd5P3zveDnxxuFHcD1jSl-u2tX4AIXgFSksbONnlgpWRgHuOvge75gFjUnB7sgTvl1WnuTx6i-Br6qsdMUEDljmTst_RY0nZq7R9hlHFigs0B-UnUZ6t5-IbVBEsmxHGwVyej9Br_ZoaaEsfFCkBEoADf_6zydiQJ_EjQksX-sqa0SR9n4ulwa3-yU1ZDP70aVm3YICrxJwEbJInVKLITImVj8scxSFzprAuRsWP6dbTbA-Ezpf4H- -aePGN_qOSAIvrZvsMfRFzQl4ouSldxLkXFUZeVT1oLJ7e3O4XT3P-UvFtf4fwWIt9VRRYR9R_2YE6HGSbXOBLMIPt9XRHFm00]--></g></svg>