<?xml version="1.0" encoding="us-ascii" standalone="no"?><svg xmlns="http://www.w3.org/2000/svg" xmlns:xlink="http://www.w3.org/1999/xlink" contentStyleType="text/css" height="503px" preserveAspectRatio="none" style="width:1452px;height:503px;background:#FFFFFF;" version="1.1" viewBox="0 0 1452 503" width="1452px" zoomAndPan="magnify"><defs/><g><text fill="#000000" font-family="Arial" font-size="14" font-weight="bold" lengthAdjust="spacing" textLength="419" x="509.5" y="23.1318">FIG-04-03. Online Store Order Handling Component Diagram</text><!--entity Web--><g id="elem_Web"><ellipse cx="57" cy="303.0986" fill="#FFFFFF" rx="8" ry="8" style="stroke:#333333;stroke-width:0.5;"/><path d="M57,311.0986 L57,338.0986 M44,319.0986 L70,319.0986 M57,338.0986 L44,353.0986 M57,338.0986 L70,353.0986 " fill="none" style="stroke:#333333;stroke-width:0.5;"/><text fill="#000000" font-family="Arial" font-size="14" lengthAdjust="spacing" textLength="102" x="6" y="367.7305">Web Application</text></g><!--entity OrderDb--><g id="elem_OrderDb"><path d="M1007,53.0986 C1007,43.0986 1068,43.0986 1068,43.0986 C1068,43.0986 1129,43.0986 1129,53.0986 L1129,78.1973 C1129,88.1973 1068,88.1973 1068,88.1973 C1068,88.1973 1007,88.1973 1007,78.1973 L1007,53.0986 " fill="#F2F5F7" style="stroke:#333333;stroke-width:0.5;"/><path d="M1007,53.0986 C1007,63.0986 1068,63.0986 1068,63.0986 C1068,63.0986 1129,63.0986 1129,53.0986 " fill="none" style="stroke:#333333;stroke-width:0.5;"/><text fill="#000000" font-family="Arial" font-size="14" lengthAdjust="spacing" textLength="102" x="1017" y="80.2305">Order Database</text></g><!--entity OrderApi--><g id="elem_OrderApi"><rect fill="#F7F9FB" height="46.0986" rx="2.5" ry="2.5" style="stroke:#333333;stroke-width:0.5;" width="102" x="342" y="165.5986"/><rect fill="#F7F9FB" height="10" style="stroke:#333333;stroke-width:0.5;" width="15" x="424" y="170.5986"/><rect fill="#F7F9FB" height="2" style="stroke:#333333;stroke-width:0.5;" width="4" x="422" y="172.5986"/><rect fill="#F7F9FB" height="2" style="stroke:#333333;stroke-width:0.5;" width="4" x="422" y="176.5986"/><text fill="#000000" font-family="Arial" font-size="14" lengthAdjust="spacing" textLength="62" x="357" y="198.7305">Order API</text></g><!--entity OrderService--><g id="elem_OrderService"><rect fill="#F7F9FB" height="46.0986" rx="2.5" ry="2.5" style="stroke:#333333;stroke-width:0.5;" width="128" x="686" y="165.5986"/><rect fill="#F7F9FB" height="10" style="stroke:#333333;stroke-width:0.5;" width="15" x="794" y="170.5986"/><rect fill="#F7F9FB" height="2" style="stroke:#333333;stroke-width:0.5;" width="4" x="792" y="172.5986"/><rect fill="#F7F9FB" height="2" style="stroke:#333333;stroke-width:0.5;" width="4" x="792" y="176.5986"/><text fill="#000000" font-family="Arial" font-size="14" lengthAdjust="spacing" textLength="88" x="701" y="198.7305">Order Service</text></g><!--entity PaymentAdapter--><g id="elem_PaymentAdapter"><rect fill="#F7F9FB" height="46.0986" rx="2.5" ry="2.5" style="stroke:#333333;stroke-width:0.5;" width="149" x="993.5" y="204.5986"/><rect fill="#F7F9FB" height="10" style="stroke:#333333;stroke-width:0.5;" width="15" x="1122.5" y="209.5986"/><rect fill="#F7F9FB" height="2" style="stroke:#333333;stroke-width:0.5;" width="4" x="1120.5" y="211.5986"/><rect fill="#F7F9FB" height="2" style="stroke:#333333;stroke-width:0.5;" width="4" x="1120.5" y="215.5986"/><text fill="#000000" font-family="Arial" font-size="14" lengthAdjust="spacing" textLength="109" x="1008.5" y="237.7305">Payment Adapter</text></g><!--entity FulfilmentAdapter--><g id="elem_FulfilmentAdapter"><rect fill="#F7F9FB" height="46.0986" rx="2.5" ry="2.5" style="stroke:#333333;stroke-width:0.5;" width="155" x="990.5" y="356.5986"/><rect fill="#F7F9FB" height="10" style="stroke:#333333;stroke-width:0.5;" width="15" x="1125.5" y="361.5986"/><rect fill="#F7F9FB" height="2" style="stroke:#333333;stroke-width:0.5;" width="4" x="1123.5" y="363.5986"/><rect fill="#F7F9FB" height="2" style="stroke:#333333;stroke-width:0.5;" width="4" x="1123.5" y="367.5986"/><text fill="#000000" font-family="Arial" font-size="14" lengthAdjust="spacing" textLength="115" x="1005.5" y="389.7305">Fulfilment Adapter</text></g><!--entity NotificationPublisher--><g id="elem_NotificationPublisher"><rect fill="#F7F9FB" height="46.0986" rx="2.5" ry="2.5" style="stroke:#333333;stroke-width:0.5;" width="172" x="982" y="123.5986"/><rect fill="#F7F9FB" height="10" style="stroke:#333333;stroke-width:0.5;" width="15" x="1134" y="128.5986"/><rect fill="#F7F9FB" height="2" style="stroke:#333333;stroke-width:0.5;" width="4" x="1132" y="130.5986"/><rect fill="#F7F9FB" height="2" style="stroke:#333333;stroke-width:0.5;" width="4" x="1132" y="134.5986"/><text fill="#000000" font-family="Arial" font-size="14" lengthAdjust="spacing" textLength="132" x="997" y="156.7305">Notification Publisher</text></g><!--entity PaymentProvider--><g id="elem_PaymentProvider"><rect fill="#F7F9FB" height="62.1973" rx="2.5" ry="2.5" style="stroke:#333333;stroke-width:0.5;" width="202" x="1244" y="196.5986"/><rect fill="#F7F9FB" height="10" style="stroke:#333333;stroke-width:0.5;" width="15" x="1426" y="201.5986"/><rect fill="#F7F9FB" height="2" style="stroke:#333333;stroke-width:0.5;" width="4" x="1424" y="203.5986"/><rect fill="#F7F9FB" height="2" style="stroke:#333333;stroke-width:0.5;" width="4" x="1424" y="207.5986"/><text fill="#000000" font-family="Arial" font-size="14" font-style="italic" lengthAdjust="spacing" textLength="66" x="1307" y="229.7305">&#171;external&#187;</text><text fill="#000000" font-family="Arial" font-size="14" lengthAdjust="spacing" textLength="162" x="1259" y="245.8291">Payment Provider System</text></g><!--entity DeliveryPartner--><g id="elem_DeliveryPartner"><rect fill="#F7F9FB" height="62.1973" rx="2.5" ry="2.5" style="stroke:#333333;stroke-width:0.5;" width="192" x="1249" y="348.5986"/><rect fill="#F7F9FB" height="10" style="stroke:#333333;stroke-width:0.5;" width="15" x="1421" y="353.5986"/><rect fill="#F7F9FB" height="2" style="stroke:#333333;stroke-width:0.5;" width="4" x="1419" y="355.5986"/><rect fill="#F7F9FB" height="2" style="stroke:#333333;stroke-width:0.5;" width="4" x="1419" y="359.5986"/><text fill="#000000" font-family="Arial" font-size="14" font-style="italic" lengthAdjust="spacing" textLength="66" x="1307" y="381.7305">&#171;external&#187;</text><text fill="#000000" font-family="Arial" font-size="14" lengthAdjust="spacing" textLength="152" x="1264" y="397.8291">Delivery Partner System</text></g><!--entity IOrder--><g id="elem_IOrder"><ellipse cx="393" cy="332.5986" fill="#F1F1F1" rx="8" ry="8" style="stroke:#181818;stroke-width:0.5;"/><text fill="#000000" font-family="Arial" font-size="14" lengthAdjust="spacing" textLength="113" x="336.5" y="362.7305">Order Submission</text></g><!--entity IPayment--><g id="elem_IPayment"><ellipse cx="1068" cy="312.5986" fill="#F1F1F1" rx="8" ry="8" style="stroke:#181818;stroke-width:0.5;"/><text fill="#000000" font-family="Arial" font-size="14" lengthAdjust="spacing" textLength="142" x="997" y="342.7305">Payment Authorisation</text></g><!--entity IFulfilment--><g id="elem_IFulfilment"><ellipse cx="1068" cy="464.5986" fill="#F1F1F1" rx="8" ry="8" style="stroke:#181818;stroke-width:0.5;"/><text fill="#000000" font-family="Arial" font-size="14" lengthAdjust="spacing" textLength="118" x="1009" y="494.7305">Fulfilment Request</text></g><g id="elem_GMN25"><path d="M224,246.5986 L224,288.7959 A0,0 0 0 0 224,288.7959 L562,288.7959 A0,0 0 0 0 562,288.7959 L562,256.5986 L552,246.5986 L397,246.5986 L393,212.0386 L389,246.5986 L224,246.5986 A0,0 0 0 0 224,246.5986 " fill="#FFF8DC" style="stroke:#666666;stroke-width:0.5;"/><path d="M552,246.5986 L552,256.5986 L562,256.5986 L552,246.5986 " fill="#FFF8DC" style="stroke:#666666;stroke-width:0.5;"/><text fill="#000000" font-family="Arial" font-size="14" lengthAdjust="spacing" textLength="217" x="230" y="264.7305">Component = logical modular part.</text><text fill="#000000" font-family="Arial" font-size="14" lengthAdjust="spacing" textLength="317" x="230" y="280.8291">Artefact and deployment node are separate views.</text></g><!--link Web to IOrder--><g id="link_Web_IOrder"><path d="M108,332.5986 C189.53,332.5986 339.82,332.5986 377.62,332.5986 " fill="none" id="Web-to-IOrder" style="stroke:#333333;stroke-width:1.2;stroke-dasharray:7.0,7.0;"/><polygon fill="#333333" points="383.62,332.5986,374.62,328.5986,378.62,332.5986,374.62,336.5986,383.62,332.5986" style="stroke:#333333;stroke-width:1.2;"/><text fill="#000000" font-family="Arial" font-size="14" lengthAdjust="spacing" textLength="52" x="140" y="328.7305">requires</text></g><!--link OrderApi to IOrder--><g id="link_OrderApi_IOrder"><path d="M341.9,188.4686 C267.61,190.4886 142.06,203.4586 175,269.5986 C213.63,347.1786 346.86,337.9486 383.57,333.8186 " fill="none" id="OrderApi-IOrder" style="stroke:#333333;stroke-width:1.2;"/><text fill="#000000" font-family="Arial" font-size="14" lengthAdjust="spacing" textLength="54" x="139" y="265.7305">provides</text></g><!--link OrderApi to OrderService--><g id="link_OrderApi_OrderService"><path d="M444.11,188.5986 C507.56,188.5986 610.92,188.5986 679.97,188.5986 " fill="none" id="OrderApi-to-OrderService" style="stroke:#333333;stroke-width:1.2;"/><polygon fill="#333333" points="685.97,188.5986,676.97,184.5986,680.97,188.5986,676.97,192.5986,685.97,188.5986" style="stroke:#333333;stroke-width:1.2;"/><text fill="#000000" font-family="Arial" font-size="14" lengthAdjust="spacing" textLength="62" x="593" y="184.7305">delegates</text></g><!--link OrderService to OrderDb--><g id="link_OrderService_OrderDb"><path d="M788.13,165.5686 C804.81,155.8186 824.99,144.8386 844,136.5986 C897.49,113.4086 955.309,95.515 1000.869,82.855 " fill="none" id="OrderService-to-OrderDb" style="stroke:#333333;stroke-width:1.2;"/><polygon fill="#333333" points="1006.65,81.2486,996.9076,79.8042,1001.8325,82.5873,999.0495,87.5122,1006.65,81.2486" style="stroke:#333333;stroke-width:1.2;"/><text fill="#000000" font-family="Arial" font-size="14" lengthAdjust="spacing" textLength="104" x="846" y="94.7305">reads and writes</text></g><!--link OrderService to IPayment--><g id="link_OrderService_IPayment"><path d="M809.7,211.6286 C888.94,242.7286 1018.655,293.626 1053.195,307.186 " fill="none" id="OrderService-to-IPayment" style="stroke:#333333;stroke-width:1.2;stroke-dasharray:7.0,7.0;"/><polygon fill="#333333" points="1058.78,309.3786,1051.8642,302.3664,1054.1258,307.5515,1048.9407,309.8131,1058.78,309.3786" style="stroke:#333333;stroke-width:1.2;"/><text fill="#000000" font-family="Arial" font-size="14" lengthAdjust="spacing" textLength="52" x="872" y="220.7305">requires</text></g><!--link PaymentAdapter to IPayment--><g id="link_PaymentAdapter_IPayment"><path d="M1068,250.6686 C1068,268.0686 1068,290.9986 1068,303.4986 " fill="none" id="PaymentAdapter-IPayment" style="stroke:#333333;stroke-width:1.2;"/><text fill="#000000" font-family="Arial" font-size="14" lengthAdjust="spacing" textLength="54" x="1029" y="282.2305">provides</text></g><!--link PaymentAdapter to PaymentProvider--><g id="link_PaymentAdapter_PaymentProvider"><path d="M1142.69,227.5986 C1173.8,227.5986 1204.5,227.5986 1237.99,227.5986 " fill="none" id="PaymentAdapter-to-PaymentProvider" style="stroke:#333333;stroke-width:1.2;"/><polygon fill="#333333" points="1243.99,227.5986,1234.99,223.5986,1238.99,227.5986,1234.99,231.5986,1243.99,227.5986" style="stroke:#333333;stroke-width:1.2;"/><text fill="#000000" font-family="Arial" font-size="14" lengthAdjust="spacing" textLength="28" x="1185" y="223.7305">calls</text></g><!--link OrderService to IFulfilment--><g id="link_OrderService_IFulfilment"><path d="M769.25,211.6086 C805.77,256.4786 892.04,356.8386 982,420.5986 C1008.03,439.0486 1037.2964,452.2492 1053.0664,458.8592 " fill="none" id="OrderService-to-IFulfilment" style="stroke:#333333;stroke-width:1.2;stroke-dasharray:7.0,7.0;"/><polygon fill="#333333" points="1058.6,461.1786,1051.8459,454.0105,1053.9887,459.2458,1048.7534,461.3886,1058.6,461.1786" style="stroke:#333333;stroke-width:1.2;"/><text fill="#000000" font-family="Arial" font-size="14" lengthAdjust="spacing" textLength="52" x="872" y="297.7305">requires</text></g><!--link FulfilmentAdapter to IFulfilment--><g id="link_FulfilmentAdapter_IFulfilment"><path d="M1068,402.6686 C1068,420.0686 1068,442.9986 1068,455.4986 " fill="none" id="FulfilmentAdapter-IFulfilment" style="stroke:#333333;stroke-width:1.2;"/><text fill="#000000" font-family="Arial" font-size="14" lengthAdjust="spacing" textLength="54" x="1029" y="434.2305">provides</text></g><!--link FulfilmentAdapter to DeliveryPartner--><g id="link_FulfilmentAdapter_DeliveryPartner"><path d="M1145.6,379.5986 C1177.63,379.5986 1209.17,379.5986 1242.93,379.5986 " fill="none" id="FulfilmentAdapter-to-DeliveryPartner" style="stroke:#333333;stroke-width:1.2;"/><polygon fill="#333333" points="1248.93,379.5986,1239.93,375.5986,1243.93,379.5986,1239.93,383.5986,1248.93,379.5986" style="stroke:#333333;stroke-width:1.2;"/><text fill="#000000" font-family="Arial" font-size="14" lengthAdjust="spacing" textLength="28" x="1185" y="375.7305">calls</text></g><!--link OrderService to NotificationPublisher--><g id="link_OrderService_NotificationPublisher"><path d="M814.19,180.1986 C862.28,173.8086 923.0123,165.7393 975.8223,158.7193 " fill="none" id="OrderService-to-NotificationPublisher" style="stroke:#333333;stroke-width:1.2;"/><polygon fill="#333333" points="981.77,157.9286,972.3214,155.1494,976.8136,158.5875,973.3756,163.0797,981.77,157.9286" style="stroke:#333333;stroke-width:1.2;"/><text fill="#000000" font-family="Arial" font-size="14" lengthAdjust="spacing" textLength="106" x="845" y="158.7305">publishes events</text></g><!--SRC=[RPHHZvim3CVVyocyliETj3sTRfMgGxVrPLUj3tiEO6YaaB34SEktdw41GelKXzJ-sN_7DlcYJA6x4Y5Dd_ZdwQhHFxLQ6keQdT056qnRFWgXiI8W2qxL5u9IEIn8MID8aKPuF_v8dhybprzJ-31Q6OGpMOVmuKfqy5EQaeqrlDccjGODGQPaxMGZX2mOXDqVpE7GjbeLSaYx0-c1RQAK97Ff4NQtL5duFmAZASj5CQSDrE5qN813gnw9CxfU5L6QO8Z9axmsm-5GofRGZMom1LDCltUwKleXO35lnFoofAfmPJXrkLR-4k9Yr-pPgkxaRA_6ArqzOHDNERjUN_4VInkfz_iuHuPQzUYk7E38h7DClicroY6KuNCbYtamvovlbFVJx8wZDSRcRdPqiKxvPSx7u8hfg9k_yM-7dcxeOXTYs9aqtGSjU07792-c5zFS8LcSxQqPiJFPhsRFK8aQQqaJDJbcCij76Lbwu9s6JwS6TWsF9KstZOfQhyvGsWBDnTr3B7m_p1SefDQRgb7N8k675HoqL-Wilu5o1VUhi5t1G6vkxI0GpXwmv-GSQYmXv9R8Dc2hvKk5w97u3jhMd4r3OyjEImSjLv0oSt24l2WqJg74LjjR9utbnqpom-EHKHuaz0e_VIgGkK7oFm00]--></g></svg>