<?xml version="1.0" encoding="us-ascii" standalone="no"?><svg xmlns="http://www.w3.org/2000/svg" xmlns:xlink="http://www.w3.org/1999/xlink" contentStyleType="text/css" height="899px" preserveAspectRatio="none" style="width:695px;height:899px;background:#FFFFFF;" version="1.1" viewBox="0 0 695 899" width="695px" zoomAndPan="magnify"><defs/><g><text fill="#000000" font-family="Arial" font-size="14" font-weight="bold" lengthAdjust="spacing" textLength="504" x="88.75" y="23.1318">Horizon Bank operating-model traceability (selected onboarding thread)</text><!--entity outcome--><g id="elem_outcome"><rect fill="#E8F1FA" height="47.5977" rx="4" ry="4" style="stroke:#333333;stroke-width:0.5;" width="175" x="303" y="44.0986"/><text fill="#000000" font-family="Arial" font-size="12" lengthAdjust="spacing" textLength="131" x="313" y="65.3545">CUSTOMER OUTCOME</text><text fill="#000000" font-family="Arial" font-size="12" lengthAdjust="spacing" textLength="155" x="313" y="79.1533">Usable banking relationship</text></g><!--entity value--><g id="elem_value"><rect fill="#E8F1FA" height="47.5977" rx="4" ry="4" style="stroke:#333333;stroke-width:0.5;" width="190" x="295.5" y="125.0986"/><text fill="#000000" font-family="Arial" font-size="12" lengthAdjust="spacing" textLength="80" x="305.5" y="146.3545">VALUE STAGE</text><text fill="#000000" font-family="Arial" font-size="12" lengthAdjust="spacing" textLength="170" x="305.5" y="160.1533">Identity and eligibility confirmed</text></g><!--entity capability--><g id="elem_capability"><rect fill="#EAF4E2" height="75.1953" rx="4" ry="4" style="stroke:#333333;stroke-width:0.5;" width="198" x="291.5" y="206.0986"/><text fill="#000000" font-family="Arial" font-size="12" lengthAdjust="spacing" textLength="78" x="301.5" y="227.3545">CAPABILITIES</text><text fill="#000000" font-family="Arial" font-size="12" lengthAdjust="spacing" textLength="123" x="301.5" y="241.1533">Customer Onboarding</text><text fill="#000000" font-family="Arial" font-size="12" lengthAdjust="spacing" textLength="178" x="301.5" y="254.9521">Contributors: Identity Verification;</text><text fill="#000000" font-family="Arial" font-size="12" lengthAdjust="spacing" textLength="146" x="301.5" y="268.751">Financial Crime Screening</text></g><!--entity process--><g id="elem_process"><rect fill="#FFF2CC" height="47.5977" rx="4" ry="4" style="stroke:#333333;stroke-width:0.5;" width="197" x="292" y="314.0986"/><text fill="#000000" font-family="Arial" font-size="12" lengthAdjust="spacing" textLength="59" x="302" y="335.3545">PROCESS</text><text fill="#000000" font-family="Arial" font-size="12" lengthAdjust="spacing" textLength="177" x="302" y="349.1533">Establish customer and account</text></g><!--entity bian--><g id="elem_bian"><rect fill="#F3E8F7" height="61.3965" rx="4" ry="4" style="stroke:#333333;stroke-width:0.5;" width="207" x="7" y="409.0986"/><text fill="#000000" font-family="Arial" font-size="12" lengthAdjust="spacing" textLength="187" x="17" y="430.3545">REFERENCE RESPONSIBILITIES</text><text fill="#000000" font-family="Arial" font-size="12" lengthAdjust="spacing" textLength="175" x="17" y="444.1533">Candidate BIAN responsibilities</text><text fill="#000000" font-family="Arial" font-size="12" lengthAdjust="spacing" textLength="148" x="17" y="457.9521">BIAN 14.0 logical reference</text></g><!--entity roles--><g id="elem_roles"><rect fill="#FCE8E6" height="61.3965" rx="4" ry="4" style="stroke:#333333;stroke-width:0.5;" width="173" x="224" y="409.0986"/><text fill="#000000" font-family="Arial" font-size="12" lengthAdjust="spacing" textLength="41" x="234" y="430.3545">ROLES</text><text fill="#000000" font-family="Arial" font-size="12" lengthAdjust="spacing" textLength="153" x="234" y="444.1533">Process owner; Operations;</text><text fill="#000000" font-family="Arial" font-size="12" lengthAdjust="spacing" textLength="77" x="234" y="457.9521">Control owner</text></g><!--entity info--><g id="elem_info"><rect fill="#E5F5F9" height="61.3965" rx="4" ry="4" style="stroke:#333333;stroke-width:0.5;" width="164" x="407.5" y="409.0986"/><text fill="#000000" font-family="Arial" font-size="12" lengthAdjust="spacing" textLength="81" x="417.5" y="430.3545">INFORMATION</text><text fill="#000000" font-family="Arial" font-size="12" lengthAdjust="spacing" textLength="127" x="417.5" y="444.1533">Party; Identity Evidence;</text><text fill="#000000" font-family="Arial" font-size="12" lengthAdjust="spacing" textLength="144" x="417.5" y="457.9521">Screening Result; Account</text></g><!--entity apps--><g id="elem_apps"><rect fill="#E8EEF7" height="75.1953" rx="4" ry="4" style="stroke:#333333;stroke-width:0.5;" width="279" x="288" y="517.0986"/><text fill="#000000" font-family="Arial" font-size="12" lengthAdjust="spacing" textLength="85" x="298" y="538.3545">APPLICATIONS</text><text fill="#000000" font-family="Arial" font-size="12" lengthAdjust="spacing" textLength="172" x="298" y="552.1533">Customer Onboarding Platform</text><text fill="#000000" font-family="Arial" font-size="12" lengthAdjust="spacing" textLength="158" x="298" y="565.9521">Party and Customer Platform</text><text fill="#000000" font-family="Arial" font-size="12" lengthAdjust="spacing" textLength="259" x="298" y="579.751">Financial Crime Platform; Core Deposit System</text></g><!--entity tech--><g id="elem_tech"><rect fill="#ECECEC" height="61.3965" rx="4" ry="4" style="stroke:#333333;stroke-width:0.5;" width="155" x="400" y="625.0986"/><text fill="#000000" font-family="Arial" font-size="12" lengthAdjust="spacing" textLength="83" x="410" y="646.3545">TECHNOLOGY</text><text fill="#000000" font-family="Arial" font-size="12" lengthAdjust="spacing" textLength="135" x="410" y="660.1533">Runtime, integration and</text><text fill="#000000" font-family="Arial" font-size="12" lengthAdjust="spacing" textLength="96" x="410" y="673.9521">operational views</text></g><!--entity evidence--><g id="elem_evidence"><rect fill="#FFF0E1" height="75.1953" rx="4" ry="4" style="stroke:#333333;stroke-width:0.5;" width="272" x="404.5" y="733.0986"/><text fill="#000000" font-family="Arial" font-size="12" lengthAdjust="spacing" textLength="164" x="414.5" y="754.3545">CONTROLS AND MEASURES</text><text fill="#000000" font-family="Arial" font-size="12" lengthAdjust="spacing" textLength="172" x="414.5" y="768.1533">Identity and screening evidence</text><text fill="#000000" font-family="Arial" font-size="12" lengthAdjust="spacing" textLength="252" x="414.5" y="781.9521">Completion time; straight-through processing;</text><text fill="#000000" font-family="Arial" font-size="12" lengthAdjust="spacing" textLength="81" x="414.5" y="795.751">control failures</text></g><g id="elem_GMN23"><path d="M392.5,827.0986 L392.5,892.2939 A0,0 0 0 0 392.5,892.2939 L688.5,892.2939 A0,0 0 0 0 688.5,892.2939 L688.5,837.0986 L678.5,827.0986 L544.5,827.0986 L540.5,808.2386 L536.5,827.0986 L392.5,827.0986 A0,0 0 0 0 392.5,827.0986 " fill="#FFF8DC" style="stroke:#666666;stroke-width:0.5;"/><path d="M678.5,827.0986 L678.5,837.0986 L688.5,837.0986 L678.5,827.0986 " fill="#FFF8DC" style="stroke:#666666;stroke-width:0.5;"/><text fill="#000000" font-family="Arial" font-size="12" lengthAdjust="spacing" textLength="216" x="398.5" y="843.3545">Selected thread, not the complete bank.</text><text fill="#000000" font-family="Arial" font-size="12" lengthAdjust="spacing" textLength="239" x="398.5" y="857.1533">Mappings can be partial and many-to-many.</text><text fill="#000000" font-family="Arial" font-size="12" lengthAdjust="spacing" textLength="275" x="398.5" y="870.9521">A Service Domain is not a capability, process step,</text><text fill="#000000" font-family="Arial" font-size="12" lengthAdjust="spacing" textLength="184" x="398.5" y="884.751">team, application or microservice.</text></g><!--link outcome to value--><g id="link_outcome_value"><path d="M390.5,92.3786 C390.5,102.6586 390.5,108.7186 390.5,118.9886 " fill="none" id="outcome-to-value" style="stroke:#333333;stroke-width:1.2;"/><polygon fill="#333333" points="390.5,124.9886,394.5,115.9886,390.5,119.9886,386.5,115.9886,390.5,124.9886" style="stroke:#333333;stroke-width:1.2;"/><text fill="#000000" font-family="Arial" font-size="12" lengthAdjust="spacing" textLength="103" x="391.5" y="113.3545">is realised through</text></g><!--link value to capability--><g id="link_value_capability"><path d="M390.5,173.4386 C390.5,183.2886 390.5,188.9886 390.5,199.9386 " fill="none" id="value-to-capability" style="stroke:#333333;stroke-width:1.2;"/><polygon fill="#333333" points="390.5,205.9386,394.5,196.9386,390.5,200.9386,386.5,196.9386,390.5,205.9386" style="stroke:#333333;stroke-width:1.2;"/><text fill="#000000" font-family="Arial" font-size="12" lengthAdjust="spacing" textLength="73" x="391.5" y="194.3545">is enabled by</text></g><!--link capability to process--><g id="link_capability_process"><path d="M390.5,281.1586 C390.5,292.1686 390.5,297.9386 390.5,307.8386 " fill="none" id="capability-to-process" style="stroke:#333333;stroke-width:1.2;"/><polygon fill="#333333" points="390.5,313.8386,394.5,304.8386,390.5,308.8386,386.5,304.8386,390.5,313.8386" style="stroke:#333333;stroke-width:1.2;"/><text fill="#000000" font-family="Arial" font-size="12" lengthAdjust="spacing" textLength="81" x="391.5" y="302.3545">is exercised by</text></g><!--link process to bian--><g id="link_process_bian"><path d="M291.77,357.1986 C275.78,361.1386 259.54,365.7586 244.5,371.0986 C216.15,381.1686 191.3855,393.0491 166.9455,406.1791 " fill="none" id="process-to-bian" style="stroke:#333333;stroke-width:1.2;"/><polygon fill="#333333" points="161.66,409.0186,171.4813,408.283,166.0646,406.6523,167.6953,401.2356,161.66,409.0186" style="stroke:#333333;stroke-width:1.2;"/><text fill="#000000" font-family="Arial" font-size="12" lengthAdjust="spacing" textLength="77" x="245.5" y="390.3545">is informed by</text></g><!--link process to roles--><g id="link_process_roles"><path d="M351.72,362.1286 C348.39,364.9186 345.25,367.9186 342.5,371.0986 C333,382.0886 327.9849,390.8349 322.7649,403.4449 " fill="none" id="process-to-roles" style="stroke:#333333;stroke-width:1.2;"/><polygon fill="#333333" points="320.47,408.9886,327.6082,402.2029,322.3824,404.3688,320.2165,399.143,320.47,408.9886" style="stroke:#333333;stroke-width:1.2;"/><text fill="#000000" font-family="Arial" font-size="12" lengthAdjust="spacing" textLength="45" x="364.5" y="383.3545">assigns</text><text fill="#000000" font-family="Arial" font-size="12" lengthAdjust="spacing" textLength="87" x="343.5" y="397.1533">accountability to</text></g><!--link process to info--><g id="link_process_info"><path d="M419.9,362.3786 C423.2,365.2386 426.47,368.1886 429.5,371.0986 C441.71,382.8286 450.36,392.1449 460.84,404.2349 " fill="none" id="process-to-info" style="stroke:#333333;stroke-width:1.2;"/><polygon fill="#333333" points="464.77,408.7686,461.8975,399.348,461.495,404.9905,455.8525,404.588,464.77,408.7686" style="stroke:#333333;stroke-width:1.2;"/><text fill="#000000" font-family="Arial" font-size="12" lengthAdjust="spacing" textLength="103" x="457.5" y="390.3545">uses and changes</text></g><!--link bian to apps--><g id="link_bian_apps"><path d="M193.37,470.1386 C233.64,484.4986 276.7583,499.8642 319.3483,515.0442 " fill="none" id="bian-to-apps" style="stroke:#333333;stroke-width:1.2;"/><polygon fill="#333333" points="325,517.0586,317.8653,510.2692,320.2902,515.38,315.1795,517.8049,325,517.0586" style="stroke:#333333;stroke-width:1.2;"/><text fill="#000000" font-family="Arial" font-size="12" lengthAdjust="spacing" textLength="56" x="298.5" y="491.3545">supported</text><text fill="#000000" font-family="Arial" font-size="12" lengthAdjust="spacing" textLength="49" x="302" y="505.1533">in part by</text></g><!--link info to apps--><g id="link_info_apps"><path d="M473.21,470.2886 C465.39,484.5386 458.8251,496.4978 450.5551,511.5778 " fill="none" id="info-to-apps" style="stroke:#333333;stroke-width:1.2;"/><polygon fill="#333333" points="447.67,516.8386,455.5048,510.8708,450.0742,512.4546,448.4904,507.024,447.67,516.8386" style="stroke:#333333;stroke-width:1.2;"/><text fill="#000000" font-family="Arial" font-size="12" lengthAdjust="spacing" textLength="77" x="468.5" y="491.3545">managed and</text><text fill="#000000" font-family="Arial" font-size="12" lengthAdjust="spacing" textLength="43" x="485.5" y="505.1533">used by</text></g><!--link apps to tech--><g id="link_apps_tech"><path d="M445.98,592.1786 C451.43,602.9786 454.6259,609.3025 459.8259,619.6025 " fill="none" id="apps-to-tech" style="stroke:#333333;stroke-width:1.2;"/><polygon fill="#333333" points="462.53,624.9586,462.0447,615.1217,460.2766,620.4952,454.9032,618.7272,462.53,624.9586" style="stroke:#333333;stroke-width:1.2;"/><text fill="#000000" font-family="Arial" font-size="12" lengthAdjust="spacing" textLength="42" x="457.5" y="613.3545">runs on</text></g><!--link process to evidence--><g id="link_process_evidence"><path d="M489.19,348.7886 C521.19,353.7186 551.53,360.8886 563.5,371.0986 C587.73,391.7586 587.5,406.7586 587.5,438.5986 C587.5,438.5986 587.5,438.5986 587.5,656.5986 C587.5,686.9286 589.73,696.3486 577.5,724.0986 C576.19,727.0786 577.7175,724.89 575.9875,727.76 " fill="none" id="process-to-evidence" style="stroke:#333333;stroke-width:1.2;"/><polygon fill="#333333" points="572.89,732.8986,580.962,727.2557,575.4713,728.6164,574.1105,723.1257,572.89,732.8986" style="stroke:#333333;stroke-width:1.2;"/><text fill="#000000" font-family="Arial" font-size="12" lengthAdjust="spacing" textLength="89" x="588.5" y="552.3545">constrained and</text><text fill="#000000" font-family="Arial" font-size="12" lengthAdjust="spacing" textLength="72" x="597" y="566.1533">measured by</text></g><!--link tech to evidence--><g id="link_tech_evidence"><path d="M494.05,686.2886 C502,700.5386 508.6802,712.517 517.0802,727.597 " fill="none" id="tech-to-evidence" style="stroke:#333333;stroke-width:1.2;"/><polygon fill="#333333" points="520,732.8386,519.1148,723.0296,517.5669,728.4706,512.1259,726.9226,520,732.8386" style="stroke:#333333;stroke-width:1.2;"/><text fill="#000000" font-family="Arial" font-size="12" lengthAdjust="spacing" textLength="48" x="522.5" y="707.3545">supplies</text><text fill="#000000" font-family="Arial" font-size="12" lengthAdjust="spacing" textLength="62" x="515.5" y="721.1533">evidence to</text></g><!--SRC=[RLLXRzis4FskNt5hlcn0xCPPssKsC41HgDQ0OncMNM20lz3IsIPAaG99fNM7_VSUASbHsY01ef2dT-_UlJlz9bGXcn9XF7vBlzQT9TgtjUJADPKSkHDMEAxfCNB2IOHFseZlMi4zLrz0rsYu4-eugdI94fpX1VAzaCATuNUB4Wk79MYrrzoK50VkP92NVqHEr-0qxBLpke9I68eKMaNsYr0rDxm2HOWMQvZS30uDPGs7TuF34W-yaIxLokNYEyBaTlW60NDr9ER_HG1htQWoqKQXWRle_oXwldwJRFDDziZMa6qt2JtirDRoFTtiAQddRb1oJzAUHFq6k0NTk49N25ViBfsayH3iSxpOCiWtyKV2cPUed9U4gn9GYgFe92gqEWXJOHdWdhXiNWLBubLyFr_CDtEMxrJIMDAC2iWkij8X5M_4ld7Qs2bS4dv68mwY2BHdEvKAnLKXk8J422AU5mPH4K38N_2wxzqLYzDtx7P8OhNE4fPJVcOToIBi2OgUYQ-B5mM9wm9IRNI1ri9LcgQtIJA4MREKhTaoOR1c-IfRvlD1POGZIkuGxkVnalIsDQdTYYNGxbGudhmRtu3KHofBKim13Qe2Gzwzu8gI_aaI_lKYQRRm-AkEblvA_Pz1rhgNKimw0RLixm8O_OU-X8JTiGz3jFaopTQFyMQUBGcJ6tUUFIlEdaJf-H3aHLrOeoM3pY0UQ2JKGPFExzFtwTz3z7YrMioJWFvwis55DZneKtN9W_gNkEVBdvlTtyo01W3X0MjjXOFyR1rMWHAlQ-lznzXB-JOi-RJC5jd7VtTgJVm9xPhuEpos-da6EwLxEIdZay2lDc0wB4w4cVYV5vxEbXjgImxnyW4UMPnlrxv5BqR5NWJ4JbNVfwgM6B9w7ZEmj7J4yUHeLHdT74-z-UWrwa7HjVN0XMp8K85JZnRyUSCcKTHFygYa_e_-wKPn2e9iW9pCJbkimu_QkpvoC3GX79NV6INipz7Wge_k1wCD_OQc2D0KtD_qaS7A8SmRnU-8rw9QZqwfA2kEYYQacy8-hzE_l19yDuN6qejUvE947K4RXOHzK73256nJrzhG2jzH5u0MglCa0i9FaHLN_4WSWnEQhgPmrmS68qp1D8e6KFr2wzAJgT-AeQcgnwkGMsfUm0mmhxpagSgm92w7L7oaD6sJzYiJvVttgFq8NTCdnj4pKiBWgNRJZwD7uatkyGjHmHv3tNwCl5fKvtdazCZ_7KSnv6YU1ELwq1KHzktoe7nWY-jBqsdEwcigW5VNNZRPxMNG1YfH66rRh764bCWJ_m40]--></g></svg>