<?xml version="1.0" encoding="us-ascii" standalone="no"?><svg xmlns="http://www.w3.org/2000/svg" xmlns:xlink="http://www.w3.org/1999/xlink" contentStyleType="text/css" height="728px" preserveAspectRatio="none" style="width:784px;height:728px;background:#FFFFFF;" version="1.1" viewBox="0 0 784 728" width="784px" zoomAndPan="magnify"><defs/><g><text fill="#000000" font-family="Arial" font-size="14" font-weight="bold" lengthAdjust="spacing" textLength="272" x="249" y="23.1318">FIG-08-04. Online Store order data flow</text><!--entity Customer--><g id="elem_Customer"><rect fill="#FFFFFF" height="52.1973" rx="2.5" ry="2.5" style="stroke:#333333;stroke-width:0.5;" width="125" x="644.5" y="44.0986"/><text fill="#000000" font-family="Arial" font-size="14" lengthAdjust="spacing" textLength="61" x="654.5" y="67.2305">Customer</text><text fill="#000000" font-family="Arial" font-size="14" lengthAdjust="spacing" textLength="105" x="654.5" y="83.3291">&#171;External entity&#187;</text></g><!--entity Capture--><g id="elem_Capture"><rect fill="#EAF6E8" height="52.1973" rx="2.5" ry="2.5" style="stroke:#333333;stroke-width:0.5;" width="109" x="652.5" y="166.0986"/><text fill="#000000" font-family="Arial" font-size="14" lengthAdjust="spacing" textLength="89" x="662.5" y="189.2305">Capture order</text><text fill="#000000" font-family="Arial" font-size="14" lengthAdjust="spacing" textLength="67" x="662.5" y="205.3291">&#171;Process&#187;</text></g><!--entity PaymentProcess--><g id="elem_PaymentProcess"><rect fill="#EAF6E8" height="52.1973" rx="2.5" ry="2.5" style="stroke:#333333;stroke-width:0.5;" width="138" x="348" y="288.0986"/><text fill="#000000" font-family="Arial" font-size="14" lengthAdjust="spacing" textLength="118" x="358" y="311.2305">Authorise payment</text><text fill="#000000" font-family="Arial" font-size="14" lengthAdjust="spacing" textLength="67" x="358" y="327.3291">&#171;Process&#187;</text></g><!--entity ShipmentProcess--><g id="elem_ShipmentProcess"><rect fill="#EAF6E8" height="52.1973" rx="2.5" ry="2.5" style="stroke:#333333;stroke-width:0.5;" width="176" x="329" y="410.0986"/><text fill="#000000" font-family="Arial" font-size="14" lengthAdjust="spacing" textLength="156" x="339" y="433.2305">Create shipment request</text><text fill="#000000" font-family="Arial" font-size="14" lengthAdjust="spacing" textLength="67" x="339" y="449.3291">&#171;Process&#187;</text></g><!--entity OrderStore--><g id="elem_OrderStore"><path d="M665,542.0986 C665,532.0986 716,532.0986 716,532.0986 C716,532.0986 767,532.0986 767,542.0986 L767,583.2959 C767,593.2959 716,593.2959 716,593.2959 C716,593.2959 665,593.2959 665,583.2959 L665,542.0986 " fill="#F2F5F7" style="stroke:#333333;stroke-width:0.5;"/><path d="M665,542.0986 C665,552.0986 716,552.0986 716,552.0986 C716,552.0986 767,552.0986 767,542.0986 " fill="none" style="stroke:#333333;stroke-width:0.5;"/><text fill="#000000" font-family="Arial" font-size="14" lengthAdjust="spacing" textLength="69" x="675" y="569.2305">Order data</text><text fill="#000000" font-family="Arial" font-size="14" lengthAdjust="spacing" textLength="82" x="675" y="585.3291">&#171;Data store&#187;</text></g><!--entity PaymentProvider--><g id="elem_PaymentProvider"><rect fill="#FFF4D6" height="52.1973" rx="2.5" ry="2.5" style="stroke:#333333;stroke-width:0.5;" width="182" x="7" y="410.0986"/><text fill="#000000" font-family="Arial" font-size="14" lengthAdjust="spacing" textLength="162" x="17" y="433.2305">Payment Provider System</text><text fill="#000000" font-family="Arial" font-size="14" lengthAdjust="spacing" textLength="105" x="17" y="449.3291">&#171;External entity&#187;</text></g><!--entity DeliveryPartner--><g id="elem_DeliveryPartner"><rect fill="#FFF4D6" height="52.1973" rx="2.5" ry="2.5" style="stroke:#333333;stroke-width:0.5;" width="172" x="331" y="536.5986"/><text fill="#000000" font-family="Arial" font-size="14" lengthAdjust="spacing" textLength="152" x="341" y="559.7305">Delivery Partner System</text><text fill="#000000" font-family="Arial" font-size="14" lengthAdjust="spacing" textLength="105" x="341" y="575.8291">&#171;External entity&#187;</text></g><g id="elem_GMN19"><path d="M98.5,663.0986 L98.5,721.3945 A0,0 0 0 0 98.5,721.3945 L735.5,721.3945 A0,0 0 0 0 735.5,721.3945 L735.5,673.0986 L725.5,663.0986 L421,663.0986 L417,588.8086 L413,663.0986 L98.5,663.0986 A0,0 0 0 0 98.5,663.0986 " fill="#FFF8DC" style="stroke:#666666;stroke-width:0.5;"/><path d="M725.5,663.0986 L725.5,673.0986 L735.5,673.0986 L725.5,663.0986 " fill="#FFF8DC" style="stroke:#666666;stroke-width:0.5;"/><text fill="#000000" font-family="Arial" font-size="14" lengthAdjust="spacing" textLength="64" x="104.5" y="681.2305">DFD view.</text><text fill="#000000" font-family="Arial" font-size="14" lengthAdjust="spacing" textLength="616" x="104.5" y="697.3291">Direct labelled arrows show data movement and transformation, not process sequence ownership,</text><text fill="#000000" font-family="Arial" font-size="14" lengthAdjust="spacing" textLength="267" x="104.5" y="713.4277">database schema or software deployment.</text></g><!--link Customer to Capture--><g id="link_Customer_Capture"><path d="M707,96.2686 C707,116.8586 707,139.3986 707,159.9686 " fill="none" id="Customer-to-Capture" style="stroke:#333333;stroke-width:1.2;"/><polygon fill="#333333" points="707,165.9686,711,156.9686,707,160.9686,703,156.9686,707,165.9686" style="stroke:#333333;stroke-width:1.2;"/><text fill="#000000" font-family="Arial" font-size="14" lengthAdjust="spacing" textLength="169" x="537" y="127.2505">Basket and delivery details</text></g><!--link Capture to PaymentProcess--><g id="link_Capture_PaymentProcess"><path d="M658.75,218.2486 C658.75,251.9086 658.75,306.0986 658.75,306.0986 C658.75,306.0986 563.71,306.0986 492.28,306.0986 " fill="none" id="Capture-to-PaymentProcess" style="stroke:#333333;stroke-width:1.2;"/><polygon fill="#333333" points="486.28,306.0986,495.28,310.0986,491.28,306.0986,495.28,302.0986,486.28,306.0986" style="stroke:#333333;stroke-width:1.2;"/><text fill="#000000" font-family="Arial" font-size="14" lengthAdjust="spacing" textLength="68" x="547.44" y="302.2305">Order total</text></g><!--link PaymentProcess to ShipmentProcess--><g id="link_PaymentProcess_ShipmentProcess"><path d="M417,340.2686 C417,360.8586 417,383.3986 417,403.9686 " fill="none" id="PaymentProcess-to-ShipmentProcess" style="stroke:#333333;stroke-width:1.2;"/><polygon fill="#333333" points="417,409.9686,421,400.9686,417,404.9686,413,400.9686,417,409.9686" style="stroke:#333333;stroke-width:1.2;"/><text fill="#000000" font-family="Arial" font-size="14" lengthAdjust="spacing" textLength="66" x="350" y="371.2505">Paid order</text></g><!--link PaymentProcess to PaymentProvider--><g id="link_PaymentProcess_PaymentProvider"><path d="M347.98,306.0986 C246.18,306.0986 67.67,306.0986 67.67,306.0986 C67.67,306.0986 67.67,365.8086 67.67,403.7886 " fill="none" id="PaymentProcess-to-PaymentProvider" style="stroke:#333333;stroke-width:1.2;"/><polygon fill="#333333" points="67.67,409.7886,71.67,400.7886,67.67,404.7886,63.67,400.7886,67.67,409.7886" style="stroke:#333333;stroke-width:1.2;"/><text fill="#000000" font-family="Arial" font-size="14" lengthAdjust="spacing" textLength="141" x="13.98" y="286.2305">Payment authorisation</text><text fill="#000000" font-family="Arial" font-size="14" lengthAdjust="spacing" textLength="48" x="60.48" y="302.3291">request</text></g><!--link PaymentProvider to PaymentProcess--><g id="link_PaymentProvider_PaymentProcess"><path d="M128.33,409.8886 C128.33,376.5086 128.33,323.0986 128.33,323.0986 C128.33,323.0986 256.46,323.0986 341.86,323.0986 " fill="none" id="PaymentProvider-to-PaymentProcess" style="stroke:#333333;stroke-width:1.2;"/><polygon fill="#333333" points="347.86,323.0986,338.86,319.0986,342.86,323.0986,338.86,327.0986,347.86,323.0986" style="stroke:#333333;stroke-width:1.2;"/><text fill="#000000" font-family="Arial" font-size="14" lengthAdjust="spacing" textLength="141" x="52.7" y="337.2305">Payment authorisation</text><text fill="#000000" font-family="Arial" font-size="14" lengthAdjust="spacing" textLength="35" x="105.7" y="353.3291">result</text></g><!--link ShipmentProcess to DeliveryPartner--><g id="link_ShipmentProcess_DeliveryPartner"><path d="M445.67,462.3086 C445.67,484.0186 445.67,508.7186 445.67,530.4186 " fill="none" id="ShipmentProcess-to-DeliveryPartner" style="stroke:#333333;stroke-width:1.2;"/><polygon fill="#333333" points="445.67,536.4186,449.67,527.4186,445.67,531.4186,441.67,527.4186,445.67,536.4186" style="stroke:#333333;stroke-width:1.2;"/><text fill="#000000" font-family="Arial" font-size="14" lengthAdjust="spacing" textLength="111" x="333.67" y="513.5005">Shipment request</text></g><!--link DeliveryPartner to ShipmentProcess--><g id="link_DeliveryPartner_ShipmentProcess"><path d="M388.33,536.3886 C388.33,514.6786 388.33,489.9786 388.33,468.2786 " fill="none" id="DeliveryPartner-to-ShipmentProcess" style="stroke:#333333;stroke-width:1.2;"/><polygon fill="#333333" points="388.33,462.2786,384.33,471.2786,388.33,467.2786,392.33,471.2786,388.33,462.2786" style="stroke:#333333;stroke-width:1.2;"/><text fill="#000000" font-family="Arial" font-size="14" lengthAdjust="spacing" textLength="140" x="247.33" y="479.4605">Shipment confirmation</text><text fill="#000000" font-family="Arial" font-size="14" lengthAdjust="spacing" textLength="110" x="262.33" y="495.5591">and tracking data</text></g><!--link Capture to OrderStore--><g id="link_Capture_OrderStore"><path d="M737.38,218.1486 C737.38,284.6986 737.38,454.6886 737.38,525.9686 " fill="none" id="Capture-to-OrderStore" style="stroke:#333333;stroke-width:1.2;"/><polygon fill="#333333" points="737.38,531.9686,741.38,522.9686,737.38,526.9686,733.38,522.9686,737.38,531.9686" style="stroke:#333333;stroke-width:1.2;"/><text fill="#000000" font-family="Arial" font-size="14" lengthAdjust="spacing" textLength="70" x="666.38" y="371.1905">Order draft</text></g><!--link PaymentProcess to OrderStore--><g id="link_PaymentProcess_OrderStore"><path d="M486.08,323.0986 C573.62,323.0986 713.25,323.0986 713.25,323.0986 C713.25,323.0986 713.25,461.0886 713.25,525.7786 " fill="none" id="PaymentProcess-to-OrderStore" style="stroke:#333333;stroke-width:1.2;"/><polygon fill="#333333" points="713.25,531.7786,717.25,522.7786,713.25,526.7786,709.25,522.7786,713.25,531.7786" style="stroke:#333333;stroke-width:1.2;"/><text fill="#000000" font-family="Arial" font-size="14" lengthAdjust="spacing" textLength="97" x="606.01" y="337.2305">Payment status</text></g><!--link ShipmentProcess to OrderStore--><g id="link_ShipmentProcess_OrderStore"><path d="M505.35,436.0986 C584.81,436.0986 689.12,436.0986 689.12,436.0986 C689.12,436.0986 689.12,488.5386 689.12,525.9786 " fill="none" id="ShipmentProcess-to-OrderStore" style="stroke:#333333;stroke-width:1.2;"/><polygon fill="#333333" points="689.12,531.9786,693.12,522.9786,689.12,526.9786,685.12,522.9786,689.12,531.9786" style="stroke:#333333;stroke-width:1.2;"/><text fill="#000000" font-family="Arial" font-size="14" lengthAdjust="spacing" textLength="101" x="543.18" y="432.2305">Shipment status</text></g><!--SRC=[ZLHDRnen4BtxLqpX6WYjQ1AX22aDRDLJ8d7DPLWFOE6rj_OiM_vzRNQzXOL8HHnMzfldDsy-lYYJwqeIZCVtuU_vgCdVbneDLuKUyOuA6fVXKmYs9R25jMMs1KZbA6TbZM35cY3xzNCqUHfDfcDuCrePWXLRHs2T90SI6M6ZRIs4tojJeiC28egFPSJmpfvT62l9KmbVfvEpKuTc7qyV9qB4jz5imxk3rye7FUG-pFFpyW-JCwY1J51rdCy7W1uI0eRPwNSHZILNIMQaU7Ss9-zJQ7izNBva3ykdyyYNAeXsoXEKU2p2WzVHxyr5UtYBvDKHCe7VgJ8YmT7lYlmDgbMBw7D5OzSOH0pUEgDZz28QxcC5MeBJTLEIOVOj-vuzdkjebKAWFwZ8ipfwfk9pJ_-brk2ZjTF5mpddWhGwa3i6h6Fp7vmf8E4Jf-WAE1hDkvBCu0VwFJ6WaI3JMv8ObVOYeM94hmopnelGounQz2uZlk_rB30esRI8k0fmQhlZYrSQHsRf1B3j58pZyc7Q6ej-m4ZQsjoI-ocFhpGBqPVRAUhxEUioItqc-f2auTg2BZItPgDSqOg8vhF3F4pfzjHyuiBwiwvBjak76xvb-mKsvUmPkVBNEVRndRmsG1WRvghPLG9WaItWeAWUn-_JvWADQzAQ9A1pjlPX1ctTxAd27gWnl4dE-8rj4xuBkucXR5NuwAB9m_QeWtbnYEy2VpUIFW_R4qFVWBSRhZ48bLHgUyfiB2YmHvL_0G00]--></g></svg>