<?xml version="1.0" encoding="us-ascii" standalone="no"?><svg xmlns="http://www.w3.org/2000/svg" xmlns:xlink="http://www.w3.org/1999/xlink" contentStyleType="text/css" height="869px" preserveAspectRatio="none" style="width:1001px;height:869px;background:#FFFFFF;" version="1.1" viewBox="0 0 1001 869" width="1001px" zoomAndPan="magnify"><defs/><g><text fill="#000000" font-family="Arial" font-size="14" font-weight="bold" lengthAdjust="spacing" textLength="504" x="241.5" y="23.1318">Horizon Bank operating-model traceability (selected onboarding thread)</text><!--entity outcome--><g id="elem_outcome"><rect fill="#E8F1FA" height="49.8975" rx="4" ry="4" style="stroke:#333333;stroke-width:0.5;" width="179" x="478.5" y="44.0986"/><text fill="#000000" font-family="Arial" font-size="13" lengthAdjust="spacing" textLength="142" x="488.5" y="66.2925">CUSTOMER OUTCOME</text><text fill="#000000" font-family="Arial" font-size="13" lengthAdjust="spacing" textLength="159" x="488.5" y="81.2412">Usable banking relationship</text></g><!--entity value--><g id="elem_value"><rect fill="#E8F1FA" height="49.8975" rx="4" ry="4" style="stroke:#333333;stroke-width:0.5;" width="201" x="467.5" y="132.0986"/><text fill="#000000" font-family="Arial" font-size="13" lengthAdjust="spacing" textLength="91" x="477.5" y="154.2925">VALUE STAGE</text><text fill="#000000" font-family="Arial" font-size="13" lengthAdjust="spacing" textLength="181" x="477.5" y="169.2412">Identity and eligibility confirmed</text></g><!--entity capability--><g id="elem_capability"><rect fill="#EAF4E2" height="79.7949" rx="4" ry="4" style="stroke:#333333;stroke-width:0.5;" width="212" x="462" y="220.0986"/><text fill="#000000" font-family="Arial" font-size="13" lengthAdjust="spacing" textLength="86" x="472" y="242.2925">CAPABILITIES</text><text fill="#000000" font-family="Arial" font-size="13" lengthAdjust="spacing" textLength="126" x="472" y="257.2412">Customer Onboarding</text><text fill="#000000" font-family="Arial" font-size="13" lengthAdjust="spacing" textLength="192" x="472" y="272.1899">Contributors: Identity Verification;</text><text fill="#000000" font-family="Arial" font-size="13" lengthAdjust="spacing" textLength="152" x="472" y="287.1387">Financial Crime Screening</text></g><!--entity process--><g id="elem_process"><rect fill="#FFF2CC" height="49.8975" rx="4" ry="4" style="stroke:#333333;stroke-width:0.5;" width="207" x="464.5" y="338.0986"/><text fill="#000000" font-family="Arial" font-size="13" lengthAdjust="spacing" textLength="64" x="474.5" y="360.2925">PROCESS</text><text fill="#000000" font-family="Arial" font-size="13" lengthAdjust="spacing" textLength="187" x="474.5" y="375.2412">Establish customer and account</text></g><!--entity bian--><g id="elem_bian"><rect fill="#F3E8F7" height="64.8462" rx="4" ry="4" style="stroke:#333333;stroke-width:0.5;" width="296" x="7" y="426.0986"/><text fill="#000000" font-family="Arial" font-size="13" lengthAdjust="spacing" textLength="201" x="17" y="448.2925">REFERENCE RESPONSIBILITIES</text><text fill="#000000" font-family="Arial" font-size="13" lengthAdjust="spacing" textLength="276" x="17" y="463.2412">Candidate BIAN Service Domain responsibilities</text><text fill="#000000" font-family="Arial" font-size="13" lengthAdjust="spacing" textLength="157" x="17" y="478.1899">BIAN 14.0 logical reference</text></g><!--entity roles--><g id="elem_roles"><rect fill="#FCE8E6" height="49.8975" rx="4" ry="4" style="stroke:#333333;stroke-width:0.5;" width="264" x="321" y="433.5986"/><text fill="#000000" font-family="Arial" font-size="13" lengthAdjust="spacing" textLength="44" x="331" y="455.7925">ROLES</text><text fill="#000000" font-family="Arial" font-size="13" lengthAdjust="spacing" textLength="244" x="331" y="470.7412">Process owner; Operations; Control owner</text></g><!--entity info--><g id="elem_info"><rect fill="#E5F5F9" height="64.8462" rx="4" ry="4" style="stroke:#333333;stroke-width:0.5;" width="175" x="603.5" y="426.0986"/><text fill="#000000" font-family="Arial" font-size="13" lengthAdjust="spacing" textLength="88" x="613.5" y="448.2925">INFORMATION</text><text fill="#000000" font-family="Arial" font-size="13" lengthAdjust="spacing" textLength="141" x="613.5" y="463.2412">Party; Identity Evidence;</text><text fill="#000000" font-family="Arial" font-size="13" lengthAdjust="spacing" textLength="155" x="613.5" y="478.1899">Screening Result; Account</text></g><!--entity apps--><g id="elem_apps"><rect fill="#E8EEF7" height="64.8462" rx="4" ry="4" style="stroke:#333333;stroke-width:0.5;" width="374" x="397" y="529.0986"/><text fill="#000000" font-family="Arial" font-size="13" lengthAdjust="spacing" textLength="93" x="407" y="551.2925">APPLICATIONS</text><text fill="#000000" font-family="Arial" font-size="13" lengthAdjust="spacing" textLength="354" x="407" y="566.2412">Customer Onboarding Platform; Party and Customer Platform</text><text fill="#000000" font-family="Arial" font-size="13" lengthAdjust="spacing" textLength="274" x="407" y="581.1899">Financial Crime Platform; Core Deposit System</text></g><!--entity tech--><g id="elem_tech"><rect fill="#ECECEC" height="49.8975" rx="4" ry="4" style="stroke:#333333;stroke-width:0.5;" width="263" x="466.5" y="632.0986"/><text fill="#000000" font-family="Arial" font-size="13" lengthAdjust="spacing" textLength="89" x="476.5" y="654.2925">TECHNOLOGY</text><text fill="#000000" font-family="Arial" font-size="13" lengthAdjust="spacing" textLength="243" x="476.5" y="669.2412">Runtime, integration and operational views</text></g><!--entity evidence--><g id="elem_evidence"><rect fill="#FFF0E1" height="64.8462" rx="4" ry="4" style="stroke:#333333;stroke-width:0.5;" width="371" x="517.5" y="720.0986"/><text fill="#000000" font-family="Arial" font-size="13" lengthAdjust="spacing" textLength="179" x="527.5" y="742.2925">CONTROLS AND MEASURES</text><text fill="#000000" font-family="Arial" font-size="13" lengthAdjust="spacing" textLength="181" x="527.5" y="757.2412">Identity and screening evidence</text><text fill="#000000" font-family="Arial" font-size="13" lengthAdjust="spacing" textLength="351" x="527.5" y="772.1899">Completion time; straight-through processing; control failures</text></g><g id="elem_GMN23"><path d="M445.5,808.0986 L445.5,862.9448 A0,0 0 0 0 445.5,862.9448 L960.5,862.9448 A0,0 0 0 0 960.5,862.9448 L960.5,818.0986 L950.5,808.0986 L707,808.0986 L703,785.1486 L699,808.0986 L445.5,808.0986 A0,0 0 0 0 445.5,808.0986 " fill="#FFF8DC" style="stroke:#666666;stroke-width:0.5;"/><path d="M950.5,808.0986 L950.5,818.0986 L960.5,818.0986 L950.5,808.0986 " fill="#FFF8DC" style="stroke:#666666;stroke-width:0.5;"/><text fill="#000000" font-family="Arial" font-size="13" lengthAdjust="spacing" textLength="287" x="451.5" y="825.2925">Selected traceability view, not the complete bank.</text><text fill="#000000" font-family="Arial" font-size="13" lengthAdjust="spacing" textLength="258" x="451.5" y="840.2412">Mappings may be partial and many-to-many.</text><text fill="#000000" font-family="Arial" font-size="13" lengthAdjust="spacing" textLength="494" x="451.5" y="855.1899">A Service Domain is not a capability, process step, team, application or microservice.</text></g><!--link outcome to value--><g id="link_outcome_value"><path d="M568,94.5086 C568,106.2286 568,114.2286 568,125.9186 " fill="none" id="outcome-to-value" style="stroke:#333333;stroke-width:1.2;"/><polygon fill="#333333" points="568,131.9186,572,122.9186,568,126.9186,564,122.9186,568,131.9186" style="stroke:#333333;stroke-width:1.2;"/><text fill="#000000" font-family="Arial" font-size="13" lengthAdjust="spacing" textLength="106" x="569" y="118.2925">is realised through</text></g><!--link value to capability--><g id="link_value_capability"><path d="M568,182.2886 C568,193.4986 568,201.0986 568,213.7286 " fill="none" id="value-to-capability" style="stroke:#333333;stroke-width:1.2;"/><polygon fill="#333333" points="568,219.7286,572,210.7286,568,214.7286,564,210.7286,568,219.7286" style="stroke:#333333;stroke-width:1.2;"/><text fill="#000000" font-family="Arial" font-size="13" lengthAdjust="spacing" textLength="77" x="569" y="206.2925">is enabled by</text></g><!--link capability to process--><g id="link_capability_process"><path d="M568,300.1486 C568,312.9186 568,320.7086 568,332.0386 " fill="none" id="capability-to-process" style="stroke:#333333;stroke-width:1.2;"/><polygon fill="#333333" points="568,338.0386,572,329.0386,568,333.0386,564,329.0386,568,338.0386" style="stroke:#333333;stroke-width:1.2;"/><text fill="#000000" font-family="Arial" font-size="13" lengthAdjust="spacing" textLength="88" x="569" y="324.2925">is exercised by</text></g><!--link process to bian--><g id="link_process_bian"><path d="M464.34,379.7586 C432.06,385.2086 396.43,391.7986 364,399.0986 C329.72,406.8186 298.4525,415.0322 265.2225,424.4522 " fill="none" id="process-to-bian" style="stroke:#333333;stroke-width:1.2;"/><polygon fill="#333333" points="259.45,426.0886,269.1997,427.4824,264.2605,424.725,267.0179,419.7857,259.45,426.0886" style="stroke:#333333;stroke-width:1.2;"/><text fill="#000000" font-family="Arial" font-size="13" lengthAdjust="spacing" textLength="81" x="365" y="412.2925">is informed by</text></g><!--link process to roles--><g id="link_process_roles"><path d="M467.6,388.4686 C463.7,391.5986 460.12,395.1286 457,399.0986 C449.51,408.6186 447.782,415.9382 448.432,427.4582 " fill="none" id="process-to-roles" style="stroke:#333333;stroke-width:1.2;"/><polygon fill="#333333" points="448.77,433.4486,452.2566,424.2376,448.4883,428.4566,444.2693,424.6883,448.77,433.4486" style="stroke:#333333;stroke-width:1.2;"/><text fill="#000000" font-family="Arial" font-size="13" lengthAdjust="spacing" textLength="200" x="458" y="412.2925">assigns work and accountability to</text></g><!--link process to info--><g id="link_process_info"><path d="M643.95,388.3286 C649.32,391.5086 654.41,395.0886 659,399.0986 C667.28,406.3386 671.0748,410.9235 676.0248,420.5435 " fill="none" id="process-to-info" style="stroke:#333333;stroke-width:1.2;"/><polygon fill="#333333" points="678.77,425.8786,678.2089,416.0458,676.4823,421.4327,671.0954,419.7061,678.77,425.8786" style="stroke:#333333;stroke-width:1.2;"/><text fill="#000000" font-family="Arial" font-size="13" lengthAdjust="spacing" textLength="106" x="673" y="412.2925">uses and changes</text></g><!--link bian to apps--><g id="link_bian_apps"><path d="M285.69,491.1786 C322.34,499.9586 362.21,509.4586 399,518.0986 C414.24,521.6786 424.3449,524.0341 440.2249,527.7141 " fill="none" id="bian-to-apps" style="stroke:#333333;stroke-width:1.2;"/><polygon fill="#333333" points="446.07,529.0686,438.2054,523.1401,441.1991,527.9399,436.3993,530.9336,446.07,529.0686" style="stroke:#333333;stroke-width:1.2;"/><text fill="#000000" font-family="Arial" font-size="13" lengthAdjust="spacing" textLength="227" x="400" y="515.2925">responsibilities are supported in part by</text></g><!--link info to apps--><g id="link_info_apps"><path d="M657.44,491.2786 C644.69,503.3086 634.5442,512.8911 621.8042,524.9111 " fill="none" id="info-to-apps" style="stroke:#333333;stroke-width:1.2;"/><polygon fill="#333333" points="617.44,529.0286,626.7313,525.7618,621.0768,525.5974,621.2412,519.9429,617.44,529.0286" style="stroke:#333333;stroke-width:1.2;"/><text fill="#000000" font-family="Arial" font-size="13" lengthAdjust="spacing" textLength="142" x="645" y="515.2925">is managed and used by</text></g><!--link apps to tech--><g id="link_apps_tech"><path d="M588.74,594.2486 C590.58,606.5486 591.7602,614.465 593.4802,625.935 " fill="none" id="apps-to-tech" style="stroke:#333333;stroke-width:1.2;"/><polygon fill="#333333" points="594.37,631.8686,596.9911,622.375,593.6285,626.9239,589.0795,623.5613,594.37,631.8686" style="stroke:#333333;stroke-width:1.2;"/><text fill="#000000" font-family="Arial" font-size="13" lengthAdjust="spacing" textLength="43" x="594" y="618.2925">runs on</text></g><!--link process to evidence--><g id="link_process_evidence"><path d="M671.67,371.1886 C718.09,376.2786 766.33,384.8586 784,399.0986 C805.75,416.6286 807,429.6586 807,457.5986 C807,457.5986 807,457.5986 807,658.0986 C807,681.6086 808.12,691.0986 793,709.0986 C789.67,713.0686 790.5496,712.921 786.4596,716.221 " fill="none" id="process-to-evidence" style="stroke:#333333;stroke-width:1.2;"/><polygon fill="#333333" points="781.79,719.9886,791.3061,717.4502,785.6813,716.8489,786.2826,711.2241,781.79,719.9886" style="stroke:#333333;stroke-width:1.2;"/><text fill="#000000" font-family="Arial" font-size="13" lengthAdjust="spacing" textLength="185" x="808" y="566.7925">is constrained and measured by</text></g><!--link tech to evidence--><g id="link_tech_evidence"><path d="M597.57,682.1186 C598.52,691.3686 601.07,701.5286 607,709.0986 C610.15,713.1186 609.1608,712.9035 613.0908,716.2135 " fill="none" id="tech-to-evidence" style="stroke:#333333;stroke-width:1.2;"/><polygon fill="#333333" points="617.68,720.0786,613.373,711.2214,613.8557,716.8577,608.2195,717.3403,617.68,720.0786" style="stroke:#333333;stroke-width:1.2;"/><text fill="#000000" font-family="Arial" font-size="13" lengthAdjust="spacing" textLength="184" x="608" y="706.2925">supplies operational evidence to</text></g><!--SRC=[RLNlR-8u4FsUls9k- -LE0dRf_kg1T5AQTNQHA464hdGINqmoW5N7ZcodFVPq__kD7K93Mu54YCTlthnvO_ycL26R4c4qUazVwuuIxVjQSkMQIWxT0IiSrVGOEU4amWzjn2-ju9Qh1z0r6kw4sWyhNQ84PtY1V2kaS4VutQB4mc49McqrDoN5WJiOvEKVaTCrE0rRxPoke1I68eLMaNqGgkQ6Lw08qM8DuvlUIqDP_SlhwzxB4dUyaIxLokNY5yBuOty70NEr9-R_HW0htQWoqKQXWPleloXwNdwNtEVhx8wj8BjV9_ImKVUMRsbbIqazTuEIUvBs8Eftm2tenXMwGhXYD-auZVjWF-FvFODy7Nydd5c9odb9k2e1fTYBaqI5LZjXAYm3t2ENpPjWIRoCRsVpsNh6yerA6akQKG7PMLPwISKRiMsSDdO2vuG_qOYTA0BjwKQbGd5L22uXCOA8vuL1L0GGyXUyxdftnUBq4xlkarYkieJbb9zPHx88Uu2YO-BhuaL1uhg0L1jTeBLmbQRfTPBqOLOiPIksI1YiMBxC5lciLndXY98xXDjPl80SpQCe4BxfYWj5yjkQn6-r4sWtAaIDFuq-WDHxgb9Ip0uDgW83ZQtWYZXy94M_Nd38vZxTyiHIFv4Tff2rPgOKKmXoQjak1IpwXxwWXDsmBtsmsIBDLdVnUfOj298RTvm-wyyUHUdfaFPdhM65bkmwXRYdc50xJQf_JZ-dV_RHu-LoFai2-jkjXoMPSgTDDOMGFFJY7DSjlcxzypOQ1z8OQss5W_ne7LQ14gzhwzt8sALwQvRyM6JpxFlV6xKY_eGs8FuEzwryWO7knAI4ZmAVR81qM1m8Cl6V2uDdYpKr9OTuyGtkM9pVhto3BkR6dlN3awZUzLKjCIJrDAPWwGGI-uEZSylePd_ed4ZRfdxQGbDtNCY6t1GeTM31gn_OE8gwgHwMrFtXNwUnd80W4o0duzE9TeAFshKkiZT08HoLFpzAs1wZtb8NtGr96_eFcY90Kt2tqaK67uSmRnD_NhmLrJfqGaLPiLSMdhHvw4zcbz_fLrk3-oRGM0BmEue3DGPj519tGS4FarTZ29piOvkwriQVzJIeTF0wJp2WljXDDLHSyJr5-aJDgUAmseK6br2YXegWA-4bsNF70XerDJHTdH0hv9QQ6r03q1lRF5lfgVTTUbudVIAbwH1gBwSexwwnYzlDctf0bvGZBo2n24PixufHT4VraELyhKVOOb34ZruWoDLnwFJG_uwY-EKfHoLvKDupq-1i5PhDUa3wy6hW1PMdansqWKeKHjiMQnGX9V8r_0y0]--></g></svg>