<?xml version="1.0" encoding="us-ascii" standalone="no"?><svg xmlns="http://www.w3.org/2000/svg" xmlns:xlink="http://www.w3.org/1999/xlink" contentStyleType="text/css" height="709px" preserveAspectRatio="none" style="width:1377px;height:709px;background:#FFFFFF;" version="1.1" viewBox="0 0 1377 709" width="1377px" zoomAndPan="magnify"><defs/><g><text fill="#000000" font-family="Arial" font-size="14" font-weight="bold" lengthAdjust="spacing" textLength="313" x="525" y="23.1318">FIG-12-05. Horizon Bank Payment Attack Tree</text><!--entity Root--><g id="elem_Root"><rect fill="#F7F9FB" height="68.2959" rx="2.5" ry="2.5" style="stroke:#333333;stroke-width:0.5;" width="252" x="641.5" y="44.0986"/><text fill="#000000" font-family="Arial" font-size="14" lengthAdjust="spacing" textLength="61" x="651.5" y="67.2305">Root goal</text><text fill="#000000" font-family="Arial" font-size="14" lengthAdjust="spacing" textLength="232" x="651.5" y="83.3291">Cause an unauthorised or prohibited</text><text fill="#000000" font-family="Arial" font-size="14" lengthAdjust="spacing" textLength="208" x="651.5" y="99.4277">outgoing payment to be released</text></g><!--entity OrNode--><g id="elem_OrNode"><rect fill="#F7F9FB" height="52.1973" rx="2.5" ry="2.5" style="stroke:#333333;stroke-width:0.5;" width="168" x="546.5" y="214.0986"/><text fill="#000000" font-family="Arial" font-size="14" lengthAdjust="spacing" textLength="148" x="556.5" y="237.2305">Alternative attack paths</text><text fill="#000000" font-family="Arial" font-size="14" lengthAdjust="spacing" textLength="21" x="556.5" y="253.3291">OR</text></g><!--entity T1201--><g id="elem_T1201"><rect fill="#F7F9FB" height="84.3945" rx="2.5" ry="2.5" style="stroke:#333333;stroke-width:0.5;" width="181" x="7" y="368.0986"/><text fill="#000000" font-family="Arial" font-size="14" lengthAdjust="spacing" textLength="46" x="17" y="391.2305">T12-01</text><text fill="#000000" font-family="Arial" font-size="14" lengthAdjust="spacing" textLength="116" x="17" y="407.3291">Stolen or replayed</text><text fill="#000000" font-family="Arial" font-size="14" lengthAdjust="spacing" textLength="161" x="17" y="423.4277">customer session creates</text><text fill="#000000" font-family="Arial" font-size="14" lengthAdjust="spacing" textLength="66" x="17" y="439.5264">a payment</text></g><!--entity T1202--><g id="elem_T1202"><rect fill="#F7F9FB" height="84.3945" rx="2.5" ry="2.5" style="stroke:#333333;stroke-width:0.5;" width="216" x="223.5" y="368.0986"/><text fill="#000000" font-family="Arial" font-size="14" lengthAdjust="spacing" textLength="46" x="233.5" y="391.2305">T12-02</text><text fill="#000000" font-family="Arial" font-size="14" lengthAdjust="spacing" textLength="196" x="233.5" y="407.3291">Payment amount or beneficiary</text><text fill="#000000" font-family="Arial" font-size="14" lengthAdjust="spacing" textLength="159" x="233.5" y="423.4277">is tampered with between</text><text fill="#000000" font-family="Arial" font-size="14" lengthAdjust="spacing" textLength="133" x="233.5" y="439.5264">channel and platform</text></g><!--entity T1203--><g id="elem_T1203"><rect fill="#F7F9FB" height="84.3945" rx="2.5" ry="2.5" style="stroke:#333333;stroke-width:0.5;" width="175" x="475" y="368.0986"/><text fill="#000000" font-family="Arial" font-size="14" lengthAdjust="spacing" textLength="46" x="485" y="391.2305">T12-03</text><text fill="#000000" font-family="Arial" font-size="14" lengthAdjust="spacing" textLength="155" x="485" y="407.3291">Stolen service credential</text><text fill="#000000" font-family="Arial" font-size="14" lengthAdjust="spacing" textLength="106" x="485" y="423.4277">is used to submit</text><text fill="#000000" font-family="Arial" font-size="14" lengthAdjust="spacing" textLength="110" x="485" y="439.5264">a posting request</text></g><!--entity T1205--><g id="elem_T1205"><rect fill="#F7F9FB" height="84.3945" rx="2.5" ry="2.5" style="stroke:#333333;stroke-width:0.5;" width="176" x="685.5" y="368.0986"/><text fill="#000000" font-family="Arial" font-size="14" lengthAdjust="spacing" textLength="46" x="695.5" y="391.2305">T12-05</text><text fill="#000000" font-family="Arial" font-size="14" lengthAdjust="spacing" textLength="141" x="695.5" y="407.3291">Misuse or compromise</text><text fill="#000000" font-family="Arial" font-size="14" lengthAdjust="spacing" textLength="156" x="695.5" y="423.4277">privileged financial-crime</text><text fill="#000000" font-family="Arial" font-size="14" lengthAdjust="spacing" textLength="106" x="695.5" y="439.5264">release authority</text></g><!--entity T1207--><g id="elem_T1207"><rect fill="#F7F9FB" height="84.3945" rx="2.5" ry="2.5" style="stroke:#333333;stroke-width:0.5;" width="214" x="896.5" y="368.0986"/><text fill="#000000" font-family="Arial" font-size="14" lengthAdjust="spacing" textLength="46" x="906.5" y="391.2305">T12-07</text><text fill="#000000" font-family="Arial" font-size="14" lengthAdjust="spacing" textLength="194" x="906.5" y="407.3291">Weak entitlement or ownership</text><text fill="#000000" font-family="Arial" font-size="14" lengthAdjust="spacing" textLength="168" x="906.5" y="423.4277">validation permits payment</text><text fill="#000000" font-family="Arial" font-size="14" lengthAdjust="spacing" textLength="148" x="906.5" y="439.5264">from the wrong account</text></g><!--entity T1208--><g id="elem_T1208"><rect fill="#F7F9FB" height="84.3945" rx="2.5" ry="2.5" style="stroke:#333333;stroke-width:0.5;" width="225" x="1146" y="368.0986"/><text fill="#000000" font-family="Arial" font-size="14" lengthAdjust="spacing" textLength="46" x="1156" y="391.2305">T12-08</text><text fill="#000000" font-family="Arial" font-size="14" lengthAdjust="spacing" textLength="170" x="1156" y="407.3291">Operations repair authority</text><text fill="#000000" font-family="Arial" font-size="14" lengthAdjust="spacing" textLength="205" x="1156" y="423.4277">AND broken separation of duties</text><text fill="#000000" font-family="Arial" font-size="14" lengthAdjust="spacing" textLength="177" x="1156" y="439.5264">permit unauthorised release</text></g><!--entity M1201--><g id="elem_M1201"><rect fill="#FFF8DC" height="84.3945" rx="2.5" ry="2.5" style="stroke:#333333;stroke-width:0.5;" width="157" x="19" y="530.0986"/><text fill="#000000" font-family="Arial" font-size="14" lengthAdjust="spacing" textLength="92" x="29" y="553.2305">Mitigation note</text><text fill="#000000" font-family="Arial" font-size="14" lengthAdjust="spacing" textLength="137" x="29" y="569.3291">strong authentication,</text><text fill="#000000" font-family="Arial" font-size="14" lengthAdjust="spacing" textLength="119" x="29" y="585.4277">session protection,</text><text fill="#000000" font-family="Arial" font-size="14" lengthAdjust="spacing" textLength="100" x="29" y="601.5264">step-up triggers</text></g><!--entity M1202--><g id="elem_M1202"><rect fill="#FFF8DC" height="84.3945" rx="2.5" ry="2.5" style="stroke:#333333;stroke-width:0.5;" width="158" x="252.5" y="530.0986"/><text fill="#000000" font-family="Arial" font-size="14" lengthAdjust="spacing" textLength="92" x="262.5" y="553.2305">Mitigation note</text><text fill="#000000" font-family="Arial" font-size="14" lengthAdjust="spacing" textLength="115" x="262.5" y="569.3291">message integrity,</text><text fill="#000000" font-family="Arial" font-size="14" lengthAdjust="spacing" textLength="116" x="262.5" y="585.4277">request validation,</text><text fill="#000000" font-family="Arial" font-size="14" lengthAdjust="spacing" textLength="138" x="262.5" y="601.5264">immutable audit event</text></g><!--entity M1203--><g id="elem_M1203"><rect fill="#FFF8DC" height="84.3945" rx="2.5" ry="2.5" style="stroke:#333333;stroke-width:0.5;" width="134" x="495.5" y="530.0986"/><text fill="#000000" font-family="Arial" font-size="14" lengthAdjust="spacing" textLength="92" x="505.5" y="553.2305">Mitigation note</text><text fill="#000000" font-family="Arial" font-size="14" lengthAdjust="spacing" textLength="98" x="505.5" y="569.3291">service identity,</text><text fill="#000000" font-family="Arial" font-size="14" lengthAdjust="spacing" textLength="99" x="505.5" y="585.4277">state validation,</text><text fill="#000000" font-family="Arial" font-size="14" lengthAdjust="spacing" textLength="114" x="505.5" y="601.5264">credential rotation</text></g><!--entity M1205--><g id="elem_M1205"><rect fill="#FFF8DC" height="84.3945" rx="2.5" ry="2.5" style="stroke:#333333;stroke-width:0.5;" width="141" x="703" y="530.0986"/><text fill="#000000" font-family="Arial" font-size="14" lengthAdjust="spacing" textLength="92" x="713" y="553.2305">Mitigation note</text><text fill="#000000" font-family="Arial" font-size="14" lengthAdjust="spacing" textLength="110" x="713" y="569.3291">case assignment,</text><text fill="#000000" font-family="Arial" font-size="14" lengthAdjust="spacing" textLength="69" x="713" y="585.4277">role check,</text><text fill="#000000" font-family="Arial" font-size="14" lengthAdjust="spacing" textLength="121" x="713" y="601.5264">exception evidence</text></g><!--entity M1207--><g id="elem_M1207"><rect fill="#FFF8DC" height="84.3945" rx="2.5" ry="2.5" style="stroke:#333333;stroke-width:0.5;" width="157" x="925" y="530.0986"/><text fill="#000000" font-family="Arial" font-size="14" lengthAdjust="spacing" textLength="92" x="935" y="553.2305">Mitigation note</text><text fill="#000000" font-family="Arial" font-size="14" lengthAdjust="spacing" textLength="109" x="935" y="569.3291">ownership check,</text><text fill="#000000" font-family="Arial" font-size="14" lengthAdjust="spacing" textLength="137" x="935" y="585.4277">entitlement validation,</text><text fill="#000000" font-family="Arial" font-size="14" lengthAdjust="spacing" textLength="97" x="935" y="601.5264">deny by default</text></g><!--entity M1208--><g id="elem_M1208"><rect fill="#FFF8DC" height="84.3945" rx="2.5" ry="2.5" style="stroke:#333333;stroke-width:0.5;" width="161" x="1178" y="530.0986"/><text fill="#000000" font-family="Arial" font-size="14" lengthAdjust="spacing" textLength="92" x="1188" y="553.2305">Mitigation note</text><text fill="#000000" font-family="Arial" font-size="14" lengthAdjust="spacing" textLength="126" x="1188" y="569.3291">maker-checker rule,</text><text fill="#000000" font-family="Arial" font-size="14" lengthAdjust="spacing" textLength="141" x="1188" y="585.4277">repair-state validation,</text><text fill="#000000" font-family="Arial" font-size="14" lengthAdjust="spacing" textLength="82" x="1188" y="601.5264">release audit</text></g><!--entity Excluded--><g id="elem_Excluded"><rect fill="#FFFFFF" height="100.4932" rx="2.5" ry="2.5" style="stroke:#333333;stroke-width:0.5;" width="310" x="749.5" y="190.0986"/><text fill="#000000" font-family="Arial" font-size="14" lengthAdjust="spacing" textLength="186" x="759.5" y="213.2305">Excluded from this attack tree</text><text fill="#000000" font-family="Arial" font-size="14" lengthAdjust="spacing" textLength="290" x="759.5" y="229.3291">T12-04 attribution weakness affects evidence,</text><text fill="#000000" font-family="Arial" font-size="14" lengthAdjust="spacing" textLength="185" x="759.5" y="245.4277">not payment release by itself.</text><text fill="#000000" font-family="Arial" font-size="14" lengthAdjust="spacing" textLength="281" x="759.5" y="261.5264">T12-06 status-event data exposure does not</text><text fill="#000000" font-family="Arial" font-size="14" lengthAdjust="spacing" textLength="188" x="759.5" y="277.625">directly achieve this root goal.</text></g><!--link Root to OrNode--><g id="link_Root_OrNode"><path d="M739.11,112.2486 C713.25,142.4586 679.5128,181.8615 656.0128,209.3015 " fill="none" id="Root-to-OrNode" style="stroke:#333333;stroke-width:1.2;"/><polygon fill="#333333" points="652.11,213.8586,661.0024,209.6248,655.3624,210.061,654.9261,204.421,652.11,213.8586" style="stroke:#333333;stroke-width:1.2;"/></g><!--link OrNode to T1201--><g id="link_OrNode_T1201"><path d="M546.47,264.2686 C460.32,288.4686 322.75,328.3786 205.5,368.0986 C199.8,370.0286 199.6115,370.0537 193.7215,372.1537 " fill="none" id="OrNode-to-T1201" style="stroke:#333333;stroke-width:1.2;"/><polygon fill="#333333" points="188.07,374.1686,197.8906,374.9139,192.7796,372.4895,195.204,367.3785,188.07,374.1686" style="stroke:#333333;stroke-width:1.2;"/><text fill="#000000" font-family="Arial" font-size="14" lengthAdjust="spacing" textLength="21" x="346.5" y="334.2305">OR</text></g><!--link OrNode to T1202--><g id="link_OrNode_T1202"><path d="M585.74,266.2486 C537.84,293.1586 466.3509,333.3296 409.7009,365.1596 " fill="none" id="OrNode-to-T1202" style="stroke:#333333;stroke-width:1.2;"/><polygon fill="#333333" points="404.47,368.0986,414.2757,367.1773,408.829,365.6494,410.3569,360.2028,404.47,368.0986" style="stroke:#333333;stroke-width:1.2;"/><text fill="#000000" font-family="Arial" font-size="14" lengthAdjust="spacing" textLength="21" x="482.5" y="334.2305">OR</text></g><!--link OrNode to T1203--><g id="link_OrNode_T1203"><path d="M620.32,266.2486 C609.43,293.1586 594.2306,330.7067 581.3506,362.5367 " fill="none" id="OrNode-to-T1203" style="stroke:#333333;stroke-width:1.2;"/><polygon fill="#333333" points="579.1,368.0986,586.1839,361.2562,580.9755,363.4637,578.768,358.2554,579.1,368.0986" style="stroke:#333333;stroke-width:1.2;"/><text fill="#000000" font-family="Arial" font-size="14" lengthAdjust="spacing" textLength="21" x="597.5" y="334.2305">OR</text></g><!--link OrNode to T1205--><g id="link_OrNode_T1205"><path d="M651.91,266.2486 C674.82,293.1586 707.6212,331.6994 734.7112,363.5294 " fill="none" id="OrNode-to-T1205" style="stroke:#333333;stroke-width:1.2;"/><polygon fill="#333333" points="738.6,368.0986,735.813,358.6523,735.3594,364.291,729.7207,363.8374,738.6,368.0986" style="stroke:#333333;stroke-width:1.2;"/><text fill="#000000" font-family="Arial" font-size="14" lengthAdjust="spacing" textLength="21" x="712.5" y="334.2305">OR</text></g><!--link OrNode to T1207--><g id="link_OrNode_T1207"><path d="M681.18,266.1686 C697.21,273.9686 715.04,282.5086 731.5,290.0986 C789.42,316.8086 849.401,343.1215 901.591,365.6415 " fill="none" id="OrNode-to-T1207" style="stroke:#333333;stroke-width:1.2;"/><polygon fill="#333333" points="907.1,368.0186,900.4212,360.7802,902.5092,366.0377,897.2517,368.1256,907.1,368.0186" style="stroke:#333333;stroke-width:1.2;"/><text fill="#000000" font-family="Arial" font-size="14" lengthAdjust="spacing" textLength="21" x="837.5" y="334.2305">OR</text></g><!--link OrNode to T1208--><g id="link_OrNode_T1208"><path d="M675.71,266.1086 C692.79,274.7286 712.65,283.7886 731.5,290.0986 C774.03,304.3386 1084.04,357.0486 1127.5,368.0986 C1133.51,369.6286 1133.8573,369.6686 1140.0373,371.3786 " fill="none" id="OrNode-to-T1208" style="stroke:#333333;stroke-width:1.2;"/><polygon fill="#333333" points="1145.82,372.9786,1138.2126,366.7234,1141.0011,371.6452,1136.0792,374.4337,1145.82,372.9786" style="stroke:#333333;stroke-width:1.2;"/><text fill="#000000" font-family="Arial" font-size="14" lengthAdjust="spacing" textLength="21" x="972.5" y="334.2305">OR</text></g><!--link T1201 to M1201--><g id="link_T1201_M1201"><path d="M97.5,452.2986 C97.5,476.1886 97.5,500.1686 97.5,524.0386 " fill="none" id="T1201-to-M1201" style="stroke:#333333;stroke-width:1.2;stroke-dasharray:7.0,7.0;"/><polygon fill="#333333" points="97.5,530.0386,101.5,521.0386,97.5,525.0386,93.5,521.0386,97.5,530.0386" style="stroke:#333333;stroke-width:1.2;"/><text fill="#000000" font-family="Arial" font-size="14" lengthAdjust="spacing" textLength="60" x="98.5" y="496.2305">mitigation</text></g><!--link T1202 to M1202--><g id="link_T1202_M1202"><path d="M331.5,452.2986 C331.5,476.1886 331.5,500.1686 331.5,524.0386 " fill="none" id="T1202-to-M1202" style="stroke:#333333;stroke-width:1.2;stroke-dasharray:7.0,7.0;"/><polygon fill="#333333" points="331.5,530.0386,335.5,521.0386,331.5,525.0386,327.5,521.0386,331.5,530.0386" style="stroke:#333333;stroke-width:1.2;"/><text fill="#000000" font-family="Arial" font-size="14" lengthAdjust="spacing" textLength="60" x="332.5" y="496.2305">mitigation</text></g><!--link T1203 to M1203--><g id="link_T1203_M1203"><path d="M562.5,452.2986 C562.5,476.1886 562.5,500.1686 562.5,524.0386 " fill="none" id="T1203-to-M1203" style="stroke:#333333;stroke-width:1.2;stroke-dasharray:7.0,7.0;"/><polygon fill="#333333" points="562.5,530.0386,566.5,521.0386,562.5,525.0386,558.5,521.0386,562.5,530.0386" style="stroke:#333333;stroke-width:1.2;"/><text fill="#000000" font-family="Arial" font-size="14" lengthAdjust="spacing" textLength="60" x="563.5" y="496.2305">mitigation</text></g><!--link T1205 to M1205--><g id="link_T1205_M1205"><path d="M773.5,452.2986 C773.5,476.1886 773.5,500.1686 773.5,524.0386 " fill="none" id="T1205-to-M1205" style="stroke:#333333;stroke-width:1.2;stroke-dasharray:7.0,7.0;"/><polygon fill="#333333" points="773.5,530.0386,777.5,521.0386,773.5,525.0386,769.5,521.0386,773.5,530.0386" style="stroke:#333333;stroke-width:1.2;"/><text fill="#000000" font-family="Arial" font-size="14" lengthAdjust="spacing" textLength="60" x="774.5" y="496.2305">mitigation</text></g><!--link T1207 to M1207--><g id="link_T1207_M1207"><path d="M1003.5,452.2986 C1003.5,476.1886 1003.5,500.1686 1003.5,524.0386 " fill="none" id="T1207-to-M1207" style="stroke:#333333;stroke-width:1.2;stroke-dasharray:7.0,7.0;"/><polygon fill="#333333" points="1003.5,530.0386,1007.5,521.0386,1003.5,525.0386,999.5,521.0386,1003.5,530.0386" style="stroke:#333333;stroke-width:1.2;"/><text fill="#000000" font-family="Arial" font-size="14" lengthAdjust="spacing" textLength="60" x="1004.5" y="496.2305">mitigation</text></g><!--link T1208 to M1208--><g id="link_T1208_M1208"><path d="M1258.5,452.2986 C1258.5,476.1886 1258.5,500.1686 1258.5,524.0386 " fill="none" id="T1208-to-M1208" style="stroke:#333333;stroke-width:1.2;stroke-dasharray:7.0,7.0;"/><polygon fill="#333333" points="1258.5,530.0386,1262.5,521.0386,1258.5,525.0386,1254.5,521.0386,1258.5,530.0386" style="stroke:#333333;stroke-width:1.2;"/><text fill="#000000" font-family="Arial" font-size="14" lengthAdjust="spacing" textLength="60" x="1259.5" y="496.2305">mitigation</text></g><!--link Root to Excluded--><g id="link_Root_Excluded"><path d="M795.89,112.2486 C815.09,134.6786 836.8773,160.1313 858.4573,185.3313 " fill="none" id="Root-to-Excluded" style="stroke:#333333;stroke-width:1.2;stroke-dasharray:7.0,7.0;"/><polygon fill="#333333" points="862.36,189.8886,859.5442,180.4509,859.1078,186.0909,853.4678,185.6544,862.36,189.8886" style="stroke:#333333;stroke-width:1.2;"/><text fill="#000000" font-family="Arial" font-size="14" lengthAdjust="spacing" textLength="104" x="837.5" y="156.2305">explicit exclusion</text></g><rect fill="none" height="58.2959" id="_legend" rx="7.5" ry="7.5" style="stroke:#000000;stroke-width:1.0;" width="505" x="429" y="631.4932"/><text fill="#000000" font-family="Arial" font-size="14" lengthAdjust="spacing" textLength="467" x="434" y="649.625">Solid arrows are attack-tree paths. Dotted arrows point to mitigation notes.</text><text fill="#000000" font-family="Arial" font-size="14" lengthAdjust="spacing" textLength="406" x="434" y="665.7236">OR means any listed attack path may contribute to the root goal.</text><text fill="#000000" font-family="Arial" font-size="14" lengthAdjust="spacing" textLength="495" x="434" y="681.8223">AND appears inside T12-08 because both conditions are needed for that path.</text><!--SRC=[bLPDRzj64BtpLqpJQyZ4KbMfFWJmHztsuBXm0lJ2oueSKGkHk-pkKh9IzB_tpLAah4eeNC60xHdolJVV-awRekvAfYpxW1yVzZNx3ssjJEYQEWrhRZXhyMUI1DjIiBIq8TY6Iksu2DgQ9EXGCptyzajwDKa_pZBwrJhzpHgwLMP3lwjzmoRGJGYgsD1NnvmaVgDDgvngI42KgG3mLq9qQrt9xixMrj7tq_WHArwidErCUV0yp1z-UhXD_dw5KzYcjKQ8_WzE_00dESfuzsnjeCggEZTtglDCob1dL1VM2CjpINYpTNQjbpfmcHlRXSfgKr5xY5Hon0YiPeN7tv7o99YlEMxgmCweeBU0xnFJgh3skNbwZYyykS-sv1DTNoMxLxdv4cpDHbGuHftseg7eF6h2ZZnxZvfGuLW51fuQP4LOO7oyEWETv6QeacgGdY3WIpQyqeLMRfyRxIcefcM7y7SwhE4DEsO3vhKoXciagIIe2Ilhcf5gSaOr7VLxTbjTi2WjmQmbtw3f9CF8eE-MZGvHl_L1qklupuxzCOxf6VWiDu_QIycWNnh2sGOLoqthz5RNN05wfOqoYAfE2wSR-0vreaE1mtuac9qHp7Fp1wiDYLxqVCmOgEpEiFDhtUPcgsfTAXaBGhOGWH_odviLv106YdRE8XvL59BhaMv-HhT0Em0bmdcfjjBkg3CtDv_lQUdi9cPJnY3osXMLNT1I_5x2QVSUuXrf5oTDzgY3hdeSOmFIuqCl5W0ITH5zxs4_D1fo7Fez8CR0RTfXIpXTLKX997cKdekpjhY_-q-k1fYgOj8cS2KXlfVonAhJCR4mwgRfWbhMKhKI0V9sQ70Xcxo9REW_7RilSlc0cJbbEdOd8T1e7NccR-8fOdCXMPMHDf2GqFzKhBdOu1z-ARYDZ_DMf1Gyui_UX3ystn7oLNUU10FuFIttLF9ATVKnOVEtLKTjsAMH18l6TJN7yaXJfXSoTvmhL6YaMenKhxb-Veat2DFPZmZsm64h1foBtCHf-45iJY-xg6c7EJJe5rAh5O3yc3vGG- -uZ0SP21l3oFKgEy3zI2Awysbi7e9kHVo2PTCvfjAobx2HitZcwZt6TQtnQA_E3JSYYv6D-eUBaiGZagQVXaNU_ugMk8FfcfwU_ssTNBHEBrfd5wtpYzP5RqrwvYpxT9Z9Qsh68YUzWC4vENTEH-Vqt3aRdRDpvtnqpi-TYz6vE7N658flpEwr5AZ6JSB4YqqMK9B8NiVnwR-M95yiUf2KStQ7td33UKsbaVeRcz4z7kNneHR7EnxjvhJZVPOyFLF32hjNON1gxUDRntDDZThZpfY-AramPBqVcoEH3QtQbfNps6eU7KhzPiS1BUAN2yXU2mQ696vvaMoOup3Wj8Ir2f4hIn1a7-e_]--></g></svg>