<?xml version="1.0" encoding="us-ascii" standalone="no"?><svg xmlns="http://www.w3.org/2000/svg" xmlns:xlink="http://www.w3.org/1999/xlink" contentStyleType="text/css" height="489px" preserveAspectRatio="none" style="width:859px;height:489px;background:#FFFFFF;" version="1.1" viewBox="0 0 859 489" width="859px" zoomAndPan="magnify"><defs/><g><text fill="#000000" font-family="Arial" font-size="14" font-weight="bold" lengthAdjust="spacing" textLength="373" x="236" y="23.1318">FIG-04-02. Online Store Order Concept Class Diagram</text><!--class Customer--><g id="elem_Customer"><rect codeLine="8" fill="#F1F1F1" height="78.1973" id="Customer" rx="2.5" ry="2.5" style="stroke:#181818;stroke-width:0.5;" width="97" x="7" y="166.0986"/><ellipse cx="23.7" cy="181.0986" fill="#ADD1B2" rx="10" ry="10" style="stroke:#181818;stroke-width:1.0;"/><path d="M25.1063,177.1611 Q25.2313,176.9893 25.3875,176.9111 Q25.5438,176.8174 25.7156,176.8174 Q26.0281,176.8174 26.2156,177.0361 Q26.4188,177.2393 26.4188,177.7393 L26.4188,178.9268 Q26.4188,179.4424 26.2156,179.6611 Q26.0281,179.8643 25.7156,179.8643 Q25.4344,179.8643 25.2625,179.708 Q25.0906,179.5518 25.0125,179.1299 Q24.9656,178.833 24.825,178.6768 Q24.5438,178.3643 24.0281,178.1924 Q23.5281,178.0049 23.0281,178.0049 Q22.4031,178.0049 21.8719,178.2861 Q21.3406,178.5518 20.9344,179.1768 Q20.5438,179.7861 20.5438,180.6299 L20.5438,181.5361 Q20.5438,182.5518 21.2781,183.2236 Q22.0125,183.8955 23.3094,183.8955 Q24.0906,183.8955 24.6375,183.6924 Q24.95,183.5674 25.3094,183.208 Q25.5281,182.9893 25.6375,182.9268 Q25.7625,182.8486 25.9188,182.8486 Q26.2,182.8486 26.4188,183.0674 Q26.6375,183.2861 26.6375,183.5674 Q26.6375,183.8486 26.3406,184.1768 Q25.9188,184.6611 25.2625,184.9268 Q24.3875,185.3018 23.325,185.3018 Q22.075,185.3018 21.075,184.7861 Q20.2781,184.3799 19.7,183.5049 Q19.1375,182.6143 19.1375,181.5674 L19.1375,180.6143 Q19.1375,179.5205 19.6375,178.583 Q20.1531,177.6299 21.0594,177.1143 Q21.9656,176.5986 22.9656,176.5986 Q23.575,176.5986 24.1063,176.7393 Q24.6375,176.8799 25.1063,177.1611 Z " fill="#000000"/><text fill="#000000" font-family="Arial" font-size="14" lengthAdjust="spacing" textLength="61" x="37.3" y="186.1812">Customer</text><line style="stroke:#181818;stroke-width:0.5;" x1="8" x2="103" y1="196.0986" y2="196.0986"/><text fill="#000000" font-family="Arial" font-size="14" lengthAdjust="spacing" textLength="69" x="13" y="213.2305">customerId</text><text fill="#000000" font-family="Arial" font-size="14" lengthAdjust="spacing" textLength="85" x="13" y="229.3291">emailAddress</text><line style="stroke:#181818;stroke-width:0.5;" x1="8" x2="103" y1="236.2959" y2="236.2959"/></g><!--class Basket--><g id="elem_Basket"><rect codeLine="13" fill="#F1F1F1" height="62.0986" id="Basket" rx="2.5" ry="2.5" style="stroke:#181818;stroke-width:0.5;" width="73" x="321" y="44.0986"/><ellipse cx="335" cy="59.0986" fill="#ADD1B2" rx="10" ry="10" style="stroke:#181818;stroke-width:1.0;"/><path d="M336.4063,55.1611 Q336.5313,54.9893 336.6875,54.9111 Q336.8438,54.8174 337.0156,54.8174 Q337.3281,54.8174 337.5156,55.0361 Q337.7188,55.2393 337.7188,55.7393 L337.7188,56.9268 Q337.7188,57.4424 337.5156,57.6611 Q337.3281,57.8643 337.0156,57.8643 Q336.7344,57.8643 336.5625,57.708 Q336.3906,57.5518 336.3125,57.1299 Q336.2656,56.833 336.125,56.6768 Q335.8438,56.3643 335.3281,56.1924 Q334.8281,56.0049 334.3281,56.0049 Q333.7031,56.0049 333.1719,56.2861 Q332.6406,56.5518 332.2344,57.1768 Q331.8438,57.7861 331.8438,58.6299 L331.8438,59.5361 Q331.8438,60.5518 332.5781,61.2236 Q333.3125,61.8955 334.6094,61.8955 Q335.3906,61.8955 335.9375,61.6924 Q336.25,61.5674 336.6094,61.208 Q336.8281,60.9893 336.9375,60.9268 Q337.0625,60.8486 337.2188,60.8486 Q337.5,60.8486 337.7188,61.0674 Q337.9375,61.2861 337.9375,61.5674 Q337.9375,61.8486 337.6406,62.1768 Q337.2188,62.6611 336.5625,62.9268 Q335.6875,63.3018 334.625,63.3018 Q333.375,63.3018 332.375,62.7861 Q331.5781,62.3799 331,61.5049 Q330.4375,60.6143 330.4375,59.5674 L330.4375,58.6143 Q330.4375,57.5205 330.9375,56.583 Q331.4531,55.6299 332.3594,55.1143 Q333.2656,54.5986 334.2656,54.5986 Q334.875,54.5986 335.4063,54.7393 Q335.9375,54.8799 336.4063,55.1611 Z " fill="#000000"/><text fill="#000000" font-family="Arial" font-size="14" lengthAdjust="spacing" textLength="43" x="348" y="64.1812">Basket</text><line style="stroke:#181818;stroke-width:0.5;" x1="322" x2="393" y1="74.0986" y2="74.0986"/><text fill="#000000" font-family="Arial" font-size="14" lengthAdjust="spacing" textLength="53" x="327" y="91.2305">basketId</text><line style="stroke:#181818;stroke-width:0.5;" x1="322" x2="393" y1="98.1973" y2="98.1973"/></g><!--class Product--><g id="elem_Product"><rect codeLine="17" fill="#F1F1F1" height="94.2959" id="Product" rx="2.5" ry="2.5" style="stroke:#181818;stroke-width:0.5;" width="79" x="773" y="69.0986"/><ellipse cx="787" cy="84.0986" fill="#ADD1B2" rx="10" ry="10" style="stroke:#181818;stroke-width:1.0;"/><path d="M788.4063,80.1611 Q788.5313,79.9893 788.6875,79.9111 Q788.8438,79.8174 789.0156,79.8174 Q789.3281,79.8174 789.5156,80.0361 Q789.7188,80.2393 789.7188,80.7393 L789.7188,81.9268 Q789.7188,82.4424 789.5156,82.6611 Q789.3281,82.8643 789.0156,82.8643 Q788.7344,82.8643 788.5625,82.708 Q788.3906,82.5518 788.3125,82.1299 Q788.2656,81.833 788.125,81.6768 Q787.8438,81.3643 787.3281,81.1924 Q786.8281,81.0049 786.3281,81.0049 Q785.7031,81.0049 785.1719,81.2861 Q784.6406,81.5518 784.2344,82.1768 Q783.8438,82.7861 783.8438,83.6299 L783.8438,84.5361 Q783.8438,85.5518 784.5781,86.2236 Q785.3125,86.8955 786.6094,86.8955 Q787.3906,86.8955 787.9375,86.6924 Q788.25,86.5674 788.6094,86.208 Q788.8281,85.9893 788.9375,85.9268 Q789.0625,85.8486 789.2188,85.8486 Q789.5,85.8486 789.7188,86.0674 Q789.9375,86.2861 789.9375,86.5674 Q789.9375,86.8486 789.6406,87.1768 Q789.2188,87.6611 788.5625,87.9268 Q787.6875,88.3018 786.625,88.3018 Q785.375,88.3018 784.375,87.7861 Q783.5781,87.3799 783,86.5049 Q782.4375,85.6143 782.4375,84.5674 L782.4375,83.6143 Q782.4375,82.5205 782.9375,81.583 Q783.4531,80.6299 784.3594,80.1143 Q785.2656,79.5986 786.2656,79.5986 Q786.875,79.5986 787.4063,79.7393 Q787.9375,79.8799 788.4063,80.1611 Z " fill="#000000"/><text fill="#000000" font-family="Arial" font-size="14" lengthAdjust="spacing" textLength="49" x="800" y="89.1812">Product</text><line style="stroke:#181818;stroke-width:0.5;" x1="774" x2="851" y1="99.0986" y2="99.0986"/><text fill="#000000" font-family="Arial" font-size="14" lengthAdjust="spacing" textLength="59" x="779" y="116.2305">productId</text><text fill="#000000" font-family="Arial" font-size="14" lengthAdjust="spacing" textLength="35" x="779" y="132.3291">name</text><text fill="#000000" font-family="Arial" font-size="14" lengthAdjust="spacing" textLength="31" x="779" y="148.4277">price</text><line style="stroke:#181818;stroke-width:0.5;" x1="774" x2="851" y1="155.3945" y2="155.3945"/></g><!--class Order--><g id="elem_Order"><rect codeLine="23" fill="#F1F1F1" height="94.2959" id="Order" rx="2.5" ry="2.5" style="stroke:#181818;stroke-width:0.5;" width="84" x="207" y="211.0986"/><ellipse cx="228.65" cy="226.0986" fill="#ADD1B2" rx="10" ry="10" style="stroke:#181818;stroke-width:1.0;"/><path d="M230.0563,222.1611 Q230.1813,221.9893 230.3375,221.9111 Q230.4938,221.8174 230.6656,221.8174 Q230.9781,221.8174 231.1656,222.0361 Q231.3688,222.2393 231.3688,222.7393 L231.3688,223.9268 Q231.3688,224.4424 231.1656,224.6611 Q230.9781,224.8643 230.6656,224.8643 Q230.3844,224.8643 230.2125,224.708 Q230.0406,224.5518 229.9625,224.1299 Q229.9156,223.833 229.775,223.6768 Q229.4938,223.3643 228.9781,223.1924 Q228.4781,223.0049 227.9781,223.0049 Q227.3531,223.0049 226.8219,223.2861 Q226.2906,223.5518 225.8844,224.1768 Q225.4938,224.7861 225.4938,225.6299 L225.4938,226.5361 Q225.4938,227.5518 226.2281,228.2236 Q226.9625,228.8955 228.2594,228.8955 Q229.0406,228.8955 229.5875,228.6924 Q229.9,228.5674 230.2594,228.208 Q230.4781,227.9893 230.5875,227.9268 Q230.7125,227.8486 230.8688,227.8486 Q231.15,227.8486 231.3688,228.0674 Q231.5875,228.2861 231.5875,228.5674 Q231.5875,228.8486 231.2906,229.1768 Q230.8688,229.6611 230.2125,229.9268 Q229.3375,230.3018 228.275,230.3018 Q227.025,230.3018 226.025,229.7861 Q225.2281,229.3799 224.65,228.5049 Q224.0875,227.6143 224.0875,226.5674 L224.0875,225.6143 Q224.0875,224.5205 224.5875,223.583 Q225.1031,222.6299 226.0094,222.1143 Q226.9156,221.5986 227.9156,221.5986 Q228.525,221.5986 229.0563,221.7393 Q229.5875,221.8799 230.0563,222.1611 Z " fill="#000000"/><text fill="#000000" font-family="Arial" font-size="14" lengthAdjust="spacing" textLength="37" x="243.35" y="231.1812">Order</text><line style="stroke:#181818;stroke-width:0.5;" x1="208" x2="290" y1="241.0986" y2="241.0986"/><text fill="#000000" font-family="Arial" font-size="14" lengthAdjust="spacing" textLength="45" x="213" y="258.2305">orderId</text><text fill="#000000" font-family="Arial" font-size="14" lengthAdjust="spacing" textLength="38" x="213" y="274.3291">status</text><text fill="#000000" font-family="Arial" font-size="14" lengthAdjust="spacing" textLength="72" x="213" y="290.4277">placedDate</text><line style="stroke:#181818;stroke-width:0.5;" x1="208" x2="290" y1="297.3945" y2="297.3945"/></g><!--class OrderLine--><g id="elem_OrderLine"><rect codeLine="29" fill="#F1F1F1" height="78.1973" id="OrderLine" rx="2.5" ry="2.5" style="stroke:#181818;stroke-width:0.5;" width="98" x="484" y="291.0986"/><ellipse cx="498" cy="306.0986" fill="#ADD1B2" rx="10" ry="10" style="stroke:#181818;stroke-width:1.0;"/><path d="M499.4063,302.1611 Q499.5313,301.9893 499.6875,301.9111 Q499.8438,301.8174 500.0156,301.8174 Q500.3281,301.8174 500.5156,302.0361 Q500.7188,302.2393 500.7188,302.7393 L500.7188,303.9268 Q500.7188,304.4424 500.5156,304.6611 Q500.3281,304.8643 500.0156,304.8643 Q499.7344,304.8643 499.5625,304.708 Q499.3906,304.5518 499.3125,304.1299 Q499.2656,303.833 499.125,303.6768 Q498.8438,303.3643 498.3281,303.1924 Q497.8281,303.0049 497.3281,303.0049 Q496.7031,303.0049 496.1719,303.2861 Q495.6406,303.5518 495.2344,304.1768 Q494.8438,304.7861 494.8438,305.6299 L494.8438,306.5361 Q494.8438,307.5518 495.5781,308.2236 Q496.3125,308.8955 497.6094,308.8955 Q498.3906,308.8955 498.9375,308.6924 Q499.25,308.5674 499.6094,308.208 Q499.8281,307.9893 499.9375,307.9268 Q500.0625,307.8486 500.2188,307.8486 Q500.5,307.8486 500.7188,308.0674 Q500.9375,308.2861 500.9375,308.5674 Q500.9375,308.8486 500.6406,309.1768 Q500.2188,309.6611 499.5625,309.9268 Q498.6875,310.3018 497.625,310.3018 Q496.375,310.3018 495.375,309.7861 Q494.5781,309.3799 494,308.5049 Q493.4375,307.6143 493.4375,306.5674 L493.4375,305.6143 Q493.4375,304.5205 493.9375,303.583 Q494.4531,302.6299 495.3594,302.1143 Q496.2656,301.5986 497.2656,301.5986 Q497.875,301.5986 498.4063,301.7393 Q498.9375,301.8799 499.4063,302.1611 Z " fill="#000000"/><text fill="#000000" font-family="Arial" font-size="14" lengthAdjust="spacing" textLength="68" x="511" y="311.1812">Order Line</text><line style="stroke:#181818;stroke-width:0.5;" x1="485" x2="581" y1="321.0986" y2="321.0986"/><text fill="#000000" font-family="Arial" font-size="14" lengthAdjust="spacing" textLength="50" x="490" y="338.2305">quantity</text><text fill="#000000" font-family="Arial" font-size="14" lengthAdjust="spacing" textLength="54" x="490" y="354.3291">lineTotal</text><line style="stroke:#181818;stroke-width:0.5;" x1="485" x2="581" y1="361.2959" y2="361.2959"/></g><!--class Payment--><g id="elem_Payment"><rect codeLine="34" fill="#F1F1F1" height="78.1973" id="Payment" rx="2.5" ry="2.5" style="stroke:#181818;stroke-width:0.5;" width="85" x="490.5" y="404.0986"/><ellipse cx="504.5" cy="419.0986" fill="#ADD1B2" rx="10" ry="10" style="stroke:#181818;stroke-width:1.0;"/><path d="M505.9063,415.1611 Q506.0313,414.9893 506.1875,414.9111 Q506.3438,414.8174 506.5156,414.8174 Q506.8281,414.8174 507.0156,415.0361 Q507.2188,415.2393 507.2188,415.7393 L507.2188,416.9268 Q507.2188,417.4424 507.0156,417.6611 Q506.8281,417.8643 506.5156,417.8643 Q506.2344,417.8643 506.0625,417.708 Q505.8906,417.5518 505.8125,417.1299 Q505.7656,416.833 505.625,416.6768 Q505.3438,416.3643 504.8281,416.1924 Q504.3281,416.0049 503.8281,416.0049 Q503.2031,416.0049 502.6719,416.2861 Q502.1406,416.5518 501.7344,417.1768 Q501.3438,417.7861 501.3438,418.6299 L501.3438,419.5361 Q501.3438,420.5518 502.0781,421.2236 Q502.8125,421.8955 504.1094,421.8955 Q504.8906,421.8955 505.4375,421.6924 Q505.75,421.5674 506.1094,421.208 Q506.3281,420.9893 506.4375,420.9268 Q506.5625,420.8486 506.7188,420.8486 Q507,420.8486 507.2188,421.0674 Q507.4375,421.2861 507.4375,421.5674 Q507.4375,421.8486 507.1406,422.1768 Q506.7188,422.6611 506.0625,422.9268 Q505.1875,423.3018 504.125,423.3018 Q502.875,423.3018 501.875,422.7861 Q501.0781,422.3799 500.5,421.5049 Q499.9375,420.6143 499.9375,419.5674 L499.9375,418.6143 Q499.9375,417.5205 500.4375,416.583 Q500.9531,415.6299 501.8594,415.1143 Q502.7656,414.5986 503.7656,414.5986 Q504.375,414.5986 504.9063,414.7393 Q505.4375,414.8799 505.9063,415.1611 Z " fill="#000000"/><text fill="#000000" font-family="Arial" font-size="14" lengthAdjust="spacing" textLength="55" x="517.5" y="424.1812">Payment</text><line style="stroke:#181818;stroke-width:0.5;" x1="491.5" x2="574.5" y1="434.0986" y2="434.0986"/><text fill="#000000" font-family="Arial" font-size="14" lengthAdjust="spacing" textLength="65" x="496.5" y="451.2305">paymentId</text><text fill="#000000" font-family="Arial" font-size="14" lengthAdjust="spacing" textLength="38" x="496.5" y="467.3291">status</text><line style="stroke:#181818;stroke-width:0.5;" x1="491.5" x2="574.5" y1="474.2959" y2="474.2959"/></g><!--class Shipment--><g id="elem_Shipment"><rect codeLine="39" fill="#F1F1F1" height="78.1973" id="Shipment" rx="2.5" ry="2.5" style="stroke:#181818;stroke-width:0.5;" width="128" x="469" y="101.0986"/><ellipse cx="500.55" cy="116.0986" fill="#ADD1B2" rx="10" ry="10" style="stroke:#181818;stroke-width:1.0;"/><path d="M501.9563,112.1611 Q502.0813,111.9893 502.2375,111.9111 Q502.3938,111.8174 502.5656,111.8174 Q502.8781,111.8174 503.0656,112.0361 Q503.2688,112.2393 503.2688,112.7393 L503.2688,113.9268 Q503.2688,114.4424 503.0656,114.6611 Q502.8781,114.8643 502.5656,114.8643 Q502.2844,114.8643 502.1125,114.708 Q501.9406,114.5518 501.8625,114.1299 Q501.8156,113.833 501.675,113.6768 Q501.3938,113.3643 500.8781,113.1924 Q500.3781,113.0049 499.8781,113.0049 Q499.2531,113.0049 498.7219,113.2861 Q498.1906,113.5518 497.7844,114.1768 Q497.3938,114.7861 497.3938,115.6299 L497.3938,116.5361 Q497.3938,117.5518 498.1281,118.2236 Q498.8625,118.8955 500.1594,118.8955 Q500.9406,118.8955 501.4875,118.6924 Q501.8,118.5674 502.1594,118.208 Q502.3781,117.9893 502.4875,117.9268 Q502.6125,117.8486 502.7688,117.8486 Q503.05,117.8486 503.2688,118.0674 Q503.4875,118.2861 503.4875,118.5674 Q503.4875,118.8486 503.1906,119.1768 Q502.7688,119.6611 502.1125,119.9268 Q501.2375,120.3018 500.175,120.3018 Q498.925,120.3018 497.925,119.7861 Q497.1281,119.3799 496.55,118.5049 Q495.9875,117.6143 495.9875,116.5674 L495.9875,115.6143 Q495.9875,114.5205 496.4875,113.583 Q497.0031,112.6299 497.9094,112.1143 Q498.8156,111.5986 499.8156,111.5986 Q500.425,111.5986 500.9563,111.7393 Q501.4875,111.8799 501.9563,112.1611 Z " fill="#000000"/><text fill="#000000" font-family="Arial" font-size="14" lengthAdjust="spacing" textLength="59" x="517.45" y="121.1812">Shipment</text><line style="stroke:#181818;stroke-width:0.5;" x1="470" x2="596" y1="131.0986" y2="131.0986"/><text fill="#000000" font-family="Arial" font-size="14" lengthAdjust="spacing" textLength="68" x="475" y="148.2305">shipmentId</text><text fill="#000000" font-family="Arial" font-size="14" lengthAdjust="spacing" textLength="116" x="475" y="164.3291">trackingReference</text><line style="stroke:#181818;stroke-width:0.5;" x1="470" x2="596" y1="171.2959" y2="171.2959"/></g><g id="elem_GMN16"><path d="M424,214.0986 L424,256.2959 A0,0 0 0 0 424,256.2959 L642,256.2959 A0,0 0 0 0 642,256.2959 L642,224.0986 L632,214.0986 L537,214.0986 L533,179.3286 L529,214.0986 L424,214.0986 A0,0 0 0 0 424,214.0986 " fill="#FFF8DC" style="stroke:#666666;stroke-width:0.5;"/><path d="M632,214.0986 L632,224.0986 L642,224.0986 L632,214.0986 " fill="#FFF8DC" style="stroke:#666666;stroke-width:0.5;"/><text fill="#000000" font-family="Arial" font-size="14" lengthAdjust="spacing" textLength="181" x="430" y="232.2305">Analysis-level concepts only.</text><text fill="#000000" font-family="Arial" font-size="14" lengthAdjust="spacing" textLength="197" x="430" y="248.3291">This is not a database schema.</text></g><!--link Customer to Basket--><g id="link_Customer_Basket"><path codeLine="44" d="M104.04,184.4986 C164.34,158.3686 266.97,113.8986 320.93,90.5086 " fill="none" id="Customer-Basket" style="stroke:#333333;stroke-width:1.2;"/><text fill="#000000" font-family="Arial" font-size="14" lengthAdjust="spacing" textLength="32" x="139.5" y="150.2305">owns</text><text fill="#000000" font-family="Arial" font-size="14" lengthAdjust="spacing" textLength="8" x="112.0852" y="195.6935">1</text><text fill="#000000" font-family="Arial" font-size="14" lengthAdjust="spacing" textLength="24" x="288.8856" y="107.5178">0..1</text></g><!--link Customer to Order--><g id="link_Customer_Order"><path codeLine="45" d="M104.33,218.3386 C135.9,227.0786 176.84,238.4086 206.94,246.7386 " fill="none" id="Customer-Order" style="stroke:#333333;stroke-width:1.2;"/><text fill="#000000" font-family="Arial" font-size="14" lengthAdjust="spacing" textLength="41" x="135" y="223.2305">places</text><text fill="#000000" font-family="Arial" font-size="14" lengthAdjust="spacing" textLength="8" x="112.0894" y="234.5829">1</text><text fill="#000000" font-family="Arial" font-size="14" lengthAdjust="spacing" textLength="21" x="177.8918" y="259.3409">0..*</text></g><!--reverse link Basket to Product--><g id="link_Basket_Product"><path codeLine="46" d="M406.4284,74.0351 C460.3784,73.1651 553.42,73.2886 642,83.0986 C687.29,88.1086 738.56,98.8086 772.73,106.6686 " fill="none" id="Basket-backto-Product" style="stroke:#333333;stroke-width:1.2;"/><polygon fill="none" points="394.43,74.2286,400.4937,78.1314,406.4284,74.0351,400.3647,70.1324,394.43,74.2286" style="stroke:#333333;stroke-width:1.2;"/><text fill="#000000" font-family="Arial" font-size="14" lengthAdjust="spacing" textLength="68" x="499" y="70.2305">references</text><text fill="#000000" font-family="Arial" font-size="14" lengthAdjust="spacing" textLength="8" x="401.9765" y="88.6751">1</text><text fill="#000000" font-family="Arial" font-size="14" lengthAdjust="spacing" textLength="21" x="744.0324" y="119.5664">0..*</text></g><!--reverse link Order to OrderLine--><g id="link_Order_OrderLine"><path codeLine="47" d="M302.6367,271.5384 C353.8067,284.6084 429.56,303.9386 483.86,317.8086 " fill="none" id="Order-backto-OrderLine" style="stroke:#333333;stroke-width:1.2;"/><polygon fill="#333333" points="291.01,268.5686,295.8335,273.9291,302.6367,271.5384,297.8133,266.1779,291.01,268.5686" style="stroke:#333333;stroke-width:1.2;"/><text fill="#000000" font-family="Arial" font-size="14" lengthAdjust="spacing" textLength="53" x="331" y="274.2305">contains</text><text fill="#000000" font-family="Arial" font-size="14" lengthAdjust="spacing" textLength="8" x="298.918" y="284.858">1</text><text fill="#000000" font-family="Arial" font-size="14" lengthAdjust="spacing" textLength="21" x="454.8459" y="330.3574">1..*</text></g><!--link OrderLine to Product--><g id="link_OrderLine_Product"><path codeLine="48" d="M582.09,308.1086 C601.38,298.4386 623.4,286.2786 642,273.0986 C690.77,238.5486 736.0045,195.3277 768.7945,161.6477 " fill="none" id="OrderLine-to-Product" style="stroke:#333333;stroke-width:1.2;"/><polygon fill="#333333" points="772.98,157.3486,763.8358,161.0069,769.4921,160.9312,769.5679,166.5875,772.98,157.3486" style="stroke:#333333;stroke-width:1.2;"/><text fill="#000000" font-family="Arial" font-size="14" lengthAdjust="spacing" textLength="69" x="673" y="185.2305">for product</text><text fill="#000000" font-family="Arial" font-size="14" lengthAdjust="spacing" textLength="5" x="589.9897" y="319.0907">*</text><text fill="#000000" font-family="Arial" font-size="14" lengthAdjust="spacing" textLength="8" x="756.956" y="179.5428">1</text></g><!--link Order to Payment--><g id="link_Order_Payment"><path codeLine="49" d="M291.23,295.8286 C300.79,304.0886 311.08,312.5986 321,320.0986 C364.56,353.0286 376.81,359.6086 424,387.0986 C445.53,399.6486 470.16,412.5186 490.46,422.7586 " fill="none" id="Order-Payment" style="stroke:#333333;stroke-width:1.2;"/><text fill="#000000" font-family="Arial" font-size="14" lengthAdjust="spacing" textLength="23" x="346" y="316.2305">has</text><text fill="#000000" font-family="Arial" font-size="14" lengthAdjust="spacing" textLength="8" x="298.8868" y="316.5182">1</text><text fill="#000000" font-family="Arial" font-size="14" lengthAdjust="spacing" textLength="21" x="461.3382" y="433.9934">0..*</text></g><!--link Order to Shipment--><g id="link_Order_Shipment"><path codeLine="50" d="M291.01,240.9386 C337.67,221.4086 414.45,189.2886 468.79,166.5486 " fill="none" id="Order-Shipment" style="stroke:#333333;stroke-width:1.2;"/><text fill="#000000" font-family="Arial" font-size="14" lengthAdjust="spacing" textLength="63" x="326" y="195.2305">fulfilled by</text><text fill="#000000" font-family="Arial" font-size="14" lengthAdjust="spacing" textLength="8" x="298.918" y="252.4791">1</text><text fill="#000000" font-family="Arial" font-size="14" lengthAdjust="spacing" textLength="21" x="440.0855" y="183.228">0..*</text></g><!--SRC=[RPF1Rjim38RlUWhEnm1sqs4d7mQaAJO46D1XwGim4XCBbILFf3TumzvzakmuEHJmWH8__XH_oH-irsuq14tpa3wMoH4_30wzZBshfQEUcY65IZaw2qY0Q2-TWB6HjDZWbLXn15yEN-ljfthxiO4NxwmdE4g812_HK8Hzy9e6WRr3PdYsU8dOAyLlrW-OGj0viHE9zZGA7NJmH_k7OAjKoS1-P0bzKlgh0FIoE9Yqe1wjsnaJYLdzk_9Fo6yaXJwLCB5hydiCPjHpTfZZ8kMnfx9bDTteUOBCXXmLaWLbvCmwr6IUKUuAghdYMpAX0bm4ygg8_1oJjrQc56QRNeEWkpiQJZtvvMXpVDzmvOwT7LQGbqKX9Q9Ejbv-q9aY-NcIrRxgiOAwXchRD2bQN6eX_FRyBhIfbldRULHMIqrcmWswMjf2lFPbDLTcSfF9nvjSSQE5TCs2rYzasQmskVVdKdKJFOTulQaxrRlsYsqjTCZl4gjXIMnqP-iS6JXDIlaW1ASWQVJatiwZczXoxUWNkNp0_6uPWdTJa_AldML8Nwe218E2wNaHi4u_2ZQAlCaf-Wy0]--></g></svg>