<?xml version="1.0" encoding="us-ascii" standalone="no"?><svg xmlns="http://www.w3.org/2000/svg" xmlns:xlink="http://www.w3.org/1999/xlink" contentStyleType="text/css" height="1008.6784px" preserveAspectRatio="none" style="width:760px;height:1008px;background:#FFFFFF;" version="1.1" viewBox="0 0 760 1008" width="760.5371px" zoomAndPan="magnify"><defs/><g><text fill="#000000" font-family="Arial" font-size="15.0389" font-weight="bold" lengthAdjust="spacing" textLength="300.7774" x="222.629" y="24.8483">Online Store architecture review thread</text><!--entity S--><g id="elem_S"><rect fill="#FFF2CC" height="73.3638" rx="2.6855" ry="2.6855" style="stroke:#333333;stroke-width:0.5371024734982333;" width="210.5442" x="343.2085" y="47.371"/><text fill="#000000" font-family="Arial" font-size="15.0389" lengthAdjust="spacing" textLength="124.6078" x="353.9505" y="72.2193">Trigger and scope</text><text fill="#000000" font-family="Arial" font-size="15.0389" lengthAdjust="spacing" textLength="189.0601" x="353.9505" y="89.5125">Decision, boundary, version</text><text fill="#000000" font-family="Arial" font-size="15.0389" lengthAdjust="spacing" textLength="123.5336" x="353.9505" y="106.8058">and review criteria</text></g><!--entity P--><g id="elem_P"><rect fill="#DDEBF7" height="73.3638" rx="2.6855" ry="2.6855" style="stroke:#333333;stroke-width:0.5371024734982333;" width="208.3958" x="344.2827" y="171.9787"/><text fill="#000000" font-family="Arial" font-size="15.0389" lengthAdjust="spacing" textLength="110.6431" x="355.0247" y="196.8271">Review package</text><text fill="#000000" font-family="Arial" font-size="15.0389" lengthAdjust="spacing" textLength="186.9117" x="355.0247" y="214.1203">Focused views, ADRs, risks</text><text fill="#000000" font-family="Arial" font-size="15.0389" lengthAdjust="spacing" textLength="120.311" x="355.0247" y="231.4135">and test evidence</text></g><!--entity Q--><g id="elem_Q"><rect fill="#DDEBF7" height="73.3638" rx="2.6855" ry="2.6855" style="stroke:#333333;stroke-width:0.5371024734982333;" width="272.8481" x="225.0459" y="296.5865"/><text fill="#000000" font-family="Arial" font-size="15.0389" lengthAdjust="spacing" textLength="151.4629" x="235.788" y="321.4348">Stakeholder questions</text><text fill="#000000" font-family="Arial" font-size="15.0389" lengthAdjust="spacing" textLength="251.364" x="235.788" y="338.7281">Functional, data, integration, security</text><text fill="#000000" font-family="Arial" font-size="15.0389" lengthAdjust="spacing" textLength="237.3993" x="235.788" y="356.0213">performance, resilience, operability</text></g><!--entity E--><g id="elem_E"><rect fill="#E2F0D9" height="73.3638" rx="2.6855" ry="2.6855" style="stroke:#333333;stroke-width:0.5371024734982333;" width="213.7668" x="219.1378" y="421.1943"/><text fill="#000000" font-family="Arial" font-size="15.0389" lengthAdjust="spacing" textLength="147.1661" x="229.8799" y="446.0426">Evidence assessment</text><text fill="#000000" font-family="Arial" font-size="15.0389" lengthAdjust="spacing" textLength="192.2827" x="229.8799" y="463.3359">Claims, results, assumptions</text><text fill="#000000" font-family="Arial" font-size="15.0389" lengthAdjust="spacing" textLength="63.3781" x="229.8799" y="480.6291">and gaps</text></g><!--entity F--><g id="elem_F"><rect fill="#FCE4D6" height="73.3638" rx="2.6855" ry="2.6855" style="stroke:#333333;stroke-width:0.5371024734982333;" width="247.0671" x="141.258" y="545.8021"/><text fill="#000000" font-family="Arial" font-size="15.0389" lengthAdjust="spacing" textLength="124.6078" x="152" y="570.6504">Governed findings</text><text fill="#000000" font-family="Arial" font-size="15.0389" lengthAdjust="spacing" textLength="225.583" x="152" y="587.9436">Risk | decision | action | exception</text><text fill="#000000" font-family="Arial" font-size="15.0389" lengthAdjust="spacing" textLength="204.0989" x="152" y="605.2369">Owner and due or review date</text></g><!--entity O--><g id="elem_O"><rect fill="#E4DFEC" height="38.7773" rx="2.6855" ry="2.6855" style="stroke:#333333;stroke-width:0.5371024734982333;" width="132.1272" x="157.9081" y="670.4098"/><text fill="#000000" font-family="Arial" font-size="15.0389" lengthAdjust="spacing" textLength="110.6431" x="168.6502" y="695.2582">Review outcome</text></g><!--entity A--><g id="elem_A"><rect fill="#E2F0D9" height="38.7773" rx="2.6855" ry="2.6855" style="stroke:#333333;stroke-width:0.5371024734982333;" width="78.417" x="7.5194" y="760.6431"/><text fill="#000000" font-family="Arial" font-size="15.0389" lengthAdjust="spacing" textLength="56.9329" x="18.2615" y="785.4914">Proceed</text></g><!--entity C--><g id="elem_C"><rect fill="#FFF2CC" height="38.7773" rx="2.6855" ry="2.6855" style="stroke:#333333;stroke-width:0.5371024734982333;" width="181.5406" x="105.2721" y="760.6431"/><text fill="#000000" font-family="Arial" font-size="15.0389" lengthAdjust="spacing" textLength="160.0565" x="116.0141" y="785.4914">Proceed with conditions</text></g><!--entity R--><g id="elem_R"><rect fill="#F4CCCC" height="38.7773" rx="2.6855" ry="2.6855" style="stroke:#333333;stroke-width:0.5371024734982333;" width="142.8693" x="306.1484" y="760.6431"/><text fill="#000000" font-family="Arial" font-size="15.0389" lengthAdjust="spacing" textLength="121.3852" x="316.8905" y="785.4914">Revise and return</text></g><!--entity U--><g id="elem_U"><rect fill="#D9EAD3" height="73.3638" rx="2.6855" ry="2.6855" style="stroke:#333333;stroke-width:0.5371024734982333;" width="183.689" x="182.6148" y="850.8763"/><text fill="#000000" font-family="Arial" font-size="15.0389" lengthAdjust="spacing" textLength="111.7173" x="193.3569" y="875.7246">Owned follow-up</text><text fill="#000000" font-family="Arial" font-size="15.0389" lengthAdjust="spacing" textLength="162.2049" x="193.3569" y="893.0178">Check closure evidence</text><text fill="#000000" font-family="Arial" font-size="15.0389" lengthAdjust="spacing" textLength="133.2014" x="193.3569" y="910.3111">and update records</text></g><!--link S to P--><g id="link_S_P"><path d="M448.4806,120.7177 C448.4806,136.8093 448.4806,149.3238 448.4806,165.4046 " fill="none" id="S-to-P" style="stroke:#333333;stroke-width:1.2890459363957598;"/><polygon fill="#333333" points="448.4806,171.8498,452.7774,162.182,448.4806,166.4788,444.1837,162.182,448.4806,171.8498" style="stroke:#333333;stroke-width:1.2890459363957598;"/><text fill="#000000" font-family="Arial" font-size="15.0389" lengthAdjust="spacing" textLength="61.2297" x="449.5548" y="151.7105">prepares</text></g><!--link S to P--><!--link P to Q--><g id="link_P_Q"><path d="M423.0756,245.3255 C411.6461,261.417 401.9071,275.1216 390.4883,291.2025 " fill="none" id="P-to-Q" style="stroke:#333333;stroke-width:1.2890459363957598;"/><polygon fill="#333333" points="386.7567,296.4576,395.8575,291.0627,389.8664,292.0783,388.8507,286.0872,386.7567,296.4576" style="stroke:#333333;stroke-width:1.2890459363957598;"/><text fill="#000000" font-family="Arial" font-size="15.0389" lengthAdjust="spacing" textLength="46.1908" x="411.9576" y="276.3182">frames</text></g><!--link Q to E--><!--link Q to E--><g id="link_Q_E"><path d="M351.1254,369.9332 C346.4633,386.0248 342.765,398.7931 338.1137,414.874 " fill="none" id="Q-to-E-1" style="stroke:#333333;stroke-width:1.2890459363957598;"/><polygon fill="#333333" points="336.3228,421.0654,343.1367,412.9721,337.8152,415.9059,334.8815,410.5843,336.3228,421.0654" style="stroke:#333333;stroke-width:1.2890459363957598;"/><text fill="#000000" font-family="Arial" font-size="15.0389" lengthAdjust="spacing" textLength="127.8304" x="347.5053" y="400.926">tests with evidence</text></g><!--link E to F--><g id="link_E_F"><path d="M308.1464,494.541 C300.1006,510.6326 293.4963,523.8268 285.4612,539.9076 " fill="none" id="E-to-F" style="stroke:#333333;stroke-width:1.2890459363957598;"/><polygon fill="#333333" points="282.5804,545.6732,290.7453,538.9454,284.9811,540.8685,283.0579,535.1043,282.5804,545.6732" style="stroke:#333333;stroke-width:1.2890459363957598;"/><text fill="#000000" font-family="Arial" font-size="15.0389" lengthAdjust="spacing" textLength="166.5018" x="300.2403" y="525.5338">records material findings</text></g><!--link F to O--><g id="link_F_O"><path d="M250.9665,619.0414 C244.3064,636.2179 238.9365,650.0929 233.458,664.208 " fill="none" id="F-to-O" style="stroke:#333333;stroke-width:1.2890459363957598;"/><polygon fill="#333333" points="231.1259,670.2165,238.6297,662.7584,233.0693,665.2094,230.6184,659.649,231.1259,670.2165" style="stroke:#333333;stroke-width:1.2890459363957598;"/><text fill="#000000" font-family="Arial" font-size="15.0389" lengthAdjust="spacing" textLength="109.5689" x="245.4558" y="650.1416">informs decision</text></g><!--link O to A--><g id="link_O_A"><path d="M157.6073,694.2894 C130.011,698.5862 99.0417,707.4055 75.7314,725.1943 C64.2697,733.9383 59.0989,742.5247 54.6087,754.3087 " fill="none" id="O-to-A" style="stroke:#333333;stroke-width:1.2890459363957598;"/><polygon fill="#333333" points="52.3138,760.3315,59.7714,752.8273,54.2262,755.3125,51.741,749.7674,52.3138,760.3315" style="stroke:#333333;stroke-width:1.2890459363957598;"/><text fill="#000000" font-family="Arial" font-size="15.0389" lengthAdjust="spacing" textLength="125.682" x="76.8057" y="740.3748">sufficient evidence</text></g><!--link O to C--><g id="link_O_C"><path d="M218.0529,709.5002 C213.2727,724.5498 208.5471,739.4488 203.8099,754.4125 " fill="none" id="O-to-C" style="stroke:#333333;stroke-width:1.2890459363957598;"/><polygon fill="#333333" points="201.8646,760.5571,208.879,752.637,203.4857,755.4366,200.6861,750.0433,201.8646,760.5571" style="stroke:#333333;stroke-width:1.2890459363957598;"/><text fill="#000000" font-family="Arial" font-size="15.0389" lengthAdjust="spacing" textLength="133.2014" x="214.3039" y="740.3748">bounded conditions</text></g><!--link O to R--><g id="link_O_R"><path d="M290.1428,697.5013 C311.6806,702.3997 334.4752,710.8107 351.8021,725.1943 C362.6194,734.1854 367.2365,742.6425 371.0392,754.3621 " fill="none" id="O-to-R" style="stroke:#333333;stroke-width:1.2890459363957598;"/><polygon fill="#333333" points="373.0284,760.4927,374.1317,749.9707,371.3707,755.3838,365.9575,752.6229,373.0284,760.4927" style="stroke:#333333;stroke-width:1.2890459363957598;"/><text fill="#000000" font-family="Arial" font-size="15.0389" lengthAdjust="spacing" textLength="132.1272" x="367.9152" y="740.3748">blocking gap or risk</text></g><!--link A to C--><!--link C to R--><!--link A to U--><g id="link_A_U"><path d="M43.1508,799.5508 C42.0444,811.0018 42.8393,825.278 51.0247,834.7632 C68.4483,854.9582 122.4757,867.191 176.0893,875.1616 " fill="none" id="A-to-U" style="stroke:#333333;stroke-width:1.2890459363957598;"/><polygon fill="#333333" points="182.4645,876.1093,173.5336,870.4376,177.1518,875.3195,172.2699,878.9378,182.4645,876.1093" style="stroke:#333333;stroke-width:1.2890459363957598;"/><text fill="#000000" font-family="Arial" font-size="15.0389" lengthAdjust="spacing" textLength="142.8693" x="52.0989" y="830.608">monitor commitments</text></g><!--link C to U--><g id="link_C_U"><path d="M196.9877,799.6582 C198.2767,810.5936 201.2201,824.279 207.8587,834.7632 C211.4572,840.4457 211.3527,841.1999 216.2404,846.0768 " fill="none" id="C-to-U" style="stroke:#333333;stroke-width:1.2890459363957598;"/><polygon fill="#333333" points="220.8028,850.6292,216.9941,840.7589,217.0008,846.8355,210.9241,846.8422,220.8028,850.6292" style="stroke:#333333;stroke-width:1.2890459363957598;"/><text fill="#000000" font-family="Arial" font-size="15.0389" lengthAdjust="spacing" textLength="108.4947" x="208.9329" y="830.608">close conditions</text></g><!--link R to U--><g id="link_R_U"><path d="M358.9778,799.5508 C353.8539,804.6747 348.3002,810.2606 343.2085,815.4275 C332.026,826.7926 324.3716,834.6237 313.4576,845.8921 " fill="none" id="R-to-U" style="stroke:#333333;stroke-width:1.2890459363957598;"/><polygon fill="#333333" points="308.9736,850.5218,318.7861,846.5666,312.7103,846.6637,312.6132,840.5878,308.9736,850.5218" style="stroke:#333333;stroke-width:1.2890459363957598;"/><text fill="#000000" font-family="Arial" font-size="15.0389" lengthAdjust="spacing" textLength="174.0212" x="344.2827" y="830.608">revise design or evidence</text></g><!--reverse link P to U--><g id="link_P_U"><path d="M495.4285,249.9761 C517.0845,272.3303 534.417,298.5308 534.417,332.0353 C534.417,332.0353 534.417,332.0353 534.417,781.0529 C534.417,805.8456 537.4677,817.823 519.3781,834.7632 C497.2172,855.5168 426.266,868.9766 366.3898,876.9257 " fill="none" id="P-backto-U" style="stroke:#333333;stroke-width:1.2890459363957598;stroke-dasharray:7.0,7.0;"/><polygon fill="#333333" points="490.9439,245.3469,494.5847,255.2805,494.6811,249.2046,500.7569,249.301,490.9439,245.3469" style="stroke:#333333;stroke-width:1.2890459363957598;"/><text fill="#000000" font-family="Arial" font-size="15.0389" lengthAdjust="spacing" textLength="216.9894" x="535.4912" y="587.8377">focused feedback and re-review</text></g><rect fill="none" height="45.3285" id="_legend" rx="8.0565" ry="8.0565" style="stroke:#000000;stroke-width:1.0742049469964665;" width="278.2191" x="233.9081" y="942.5015"/><text fill="#000000" font-family="Arial" font-size="15.0389" lengthAdjust="spacing" textLength="267.477" x="239.2792" y="961.9789">Solid arrows show review and follow-up.</text><text fill="#000000" font-family="Arial" font-size="15.0389" lengthAdjust="spacing" textLength="252.4382" x="239.2792" y="979.2721">Dotted arrow shows iterative revision.</text><!--SRC=[TLHDSzis4BtpLspZgwGuYITfUkYCIeezofRYKzG332n9Z4201K0hplJ7vm6a5MNipcWaQFVXOJ_Uxc_QIZCgfjNgBJuXFXaERmSZR1nxiumTzxmQS2oYZePfQussJFleF9FmijEHPHpnn_EZvXF5phDGHNG3HKSFBaRNaz8UAEri4QG0owUFrtJIAdP5E6ex22zwiavnu87U_NvXzC8Ua_73zOLHSID64sjdurv_PtftKoHwOLjGl_dYTTko9s4L1Ua6FjYAfGvuVO5uHgk4VrhG8_jaEjY4csEN7jbuBTwG2BIdgxgktvVb9Vbk0Wv27aKBvjh9CR2YP0qBMbSxV7iTZc4YZXmYuOvYApdJtj9LLMt-gZzTqkwZE7BdZ4BS_uwuWyZ0K8ysLqsO1IaHnOAqZTnw4NCoWUM8Y9yETc3VEDyBF8BdEMYZEP-HlXSF-1kVykjthxs-cUC38708FTjuiAKHkW-P3RN60Swn7-R8Kcwj648ctT3LvdrzNNs-9FtReS8MfMcqLTgskBH3NUW_j6_g1euYfuS3VvESkGzsUx9pzzJ8vFnpSr20gO8r6bDkRggFhpJ6ZL6wVi9j4TPDLMz-QU2jTv9PPS3wjRXd0EGPEv8EiUUKyuNo_oGHc2OPOH9iXku0lIdBNw4fDHJ46UDEot50aJkMHvB6XJH1ppgPoZiEAMDmIkVLzFuzklTviwu-57jQBl-4blwWmJEcWaCoVUsq0iC_c80k9dznct5tm3MO7A3kNg8soPX-WKfw3LFkpz4Kc-ojuPrZeLxaCJ7dtXPrnco1qJOfCPoxN6opQmrN69j6IoZpvqZCtXBUF9eepy-QpyvTSXedCVzj4btM1AHKh5_cKXRbI-Ck8V5x3wBUMOtTXLVwNiSazP2kpDxK2RwCO7Ts-QdDs56wjIc4Smhtj3BSnDNKZsRU20r4z80rCGjZEQcuCDmo3DDUBFREQ8KrwjqfKEZSwLdiwT9P9wkY0fndOCO5IfiAU-1nMhofqgi2p1F_3m00]--></g></svg>