<?xml version="1.0" encoding="us-ascii" standalone="no"?><svg xmlns="http://www.w3.org/2000/svg" xmlns:xlink="http://www.w3.org/1999/xlink" contentStyleType="text/css" height="412px" preserveAspectRatio="none" style="width:1193px;height:412px;background:#FFFFFF;" version="1.1" viewBox="0 0 1193 412" width="1193px" zoomAndPan="magnify"><defs/><g><text fill="#000000" font-family="Arial" font-size="14" font-weight="bold" lengthAdjust="spacing" textLength="353" x="413" y="23.1318">FIG-04-01. Online Store Returns Use Case Diagram</text><!--cluster OnlineStore--><g id="cluster_OnlineStore"><rect fill="#F7F9FB" height="162" rx="2.5" ry="2.5" style="stroke:#333333;stroke-width:1.0;" width="768" x="209" y="134.5986"/><text fill="#000000" font-family="Arial" font-size="14" font-weight="bold" lengthAdjust="spacing" textLength="88" x="549" y="149.7305">Online Store</text></g><g id="elem_RequestReturn"><ellipse cx="610.9783" cy="195.4943" fill="#F1F1F1" rx="69.9783" ry="16.3957" style="stroke:#181818;stroke-width:0.5;"/><text fill="#000000" font-family="Arial" font-size="14" lengthAdjust="spacing" textLength="95" x="562.268" y="198.8986">Request return</text></g><g id="elem_ReviewException"><ellipse cx="298.0036" cy="203.3655" fill="#F1F1F1" rx="73.0036" ry="25.7669" style="stroke:#181818;stroke-width:0.5;"/><text fill="#000000" font-family="Arial" font-size="14" lengthAdjust="spacing" textLength="87" x="254.5036" y="198.3987">Review return</text><text fill="#000000" font-family="Arial" font-size="14" lengthAdjust="spacing" textLength="60" x="268.0036" y="214.4974">exception</text></g><g id="elem_RequestRefund"><ellipse cx="882.661" cy="187.7308" fill="#F1F1F1" rx="71.161" ry="16.6322" style="stroke:#181818;stroke-width:0.5;"/><text fill="#000000" font-family="Arial" font-size="14" lengthAdjust="spacing" textLength="98" x="833.033" y="190.985">Request refund</text></g><g id="elem_RequestCollection"><ellipse cx="882.6028" cy="260.7192" fill="#F1F1F1" rx="78.6028" ry="18.1206" style="stroke:#181818;stroke-width:0.5;"/><text fill="#000000" font-family="Arial" font-size="14" lengthAdjust="spacing" textLength="116" x="824.6028" y="263.8017">Request collection</text></g><!--entity Customer--><g id="elem_Customer"><ellipse cx="298" cy="51.0986" fill="#FFFFFF" rx="8" ry="8" style="stroke:#333333;stroke-width:0.5;"/><path d="M298,59.0986 L298,86.0986 M285,67.0986 L311,67.0986 M298,86.0986 L285,101.0986 M298,86.0986 L311,101.0986 " fill="none" style="stroke:#333333;stroke-width:0.5;"/><text fill="#000000" font-family="Arial" font-size="14" lengthAdjust="spacing" textLength="61" x="267.5" y="115.7305">Customer</text></g><!--entity Support--><g id="elem_Support"><ellipse cx="84" cy="174.0986" fill="#FFFFFF" rx="8" ry="8" style="stroke:#333333;stroke-width:0.5;"/><path d="M84,182.0986 L84,209.0986 M71,190.0986 L97,190.0986 M84,209.0986 L71,224.0986 M84,209.0986 L97,224.0986 " fill="none" style="stroke:#333333;stroke-width:0.5;"/><text fill="#000000" font-family="Arial" font-size="14" lengthAdjust="spacing" textLength="156" x="6" y="238.7305">Customer Support Agent</text></g><!--entity PaymentProvider--><g id="elem_PaymentProvider"><ellipse cx="1105" cy="139.0986" fill="#FFFFFF" rx="8" ry="8" style="stroke:#333333;stroke-width:0.5;"/><path d="M1105,147.0986 L1105,174.0986 M1092,155.0986 L1118,155.0986 M1105,174.0986 L1092,189.0986 M1105,174.0986 L1118,189.0986 " fill="none" style="stroke:#333333;stroke-width:0.5;"/><text fill="#000000" font-family="Arial" font-size="14" lengthAdjust="spacing" textLength="162" x="1024" y="203.7305">Payment Provider System</text></g><!--entity DeliveryPartner--><g id="elem_DeliveryPartner"><ellipse cx="1105" cy="250.0986" fill="#FFFFFF" rx="8" ry="8" style="stroke:#333333;stroke-width:0.5;"/><path d="M1105,258.0986 L1105,285.0986 M1092,266.0986 L1118,266.0986 M1105,285.0986 L1092,300.0986 M1105,285.0986 L1118,300.0986 " fill="none" style="stroke:#333333;stroke-width:0.5;"/><text fill="#000000" font-family="Arial" font-size="14" lengthAdjust="spacing" textLength="152" x="1029" y="314.7305">Delivery Partner System</text></g><!--link Customer to RequestReturn--><g id="link_Customer_RequestReturn"><path d="M328.6,90.8886 C369.68,105.2286 446.22,132.2386 511,156.5986 C532.27,164.5986 555.95,173.9086 574.82,181.4386 " fill="none" id="Customer-RequestReturn" style="stroke:#333333;stroke-width:1.2;"/></g><!--link Support to ReviewException--><g id="link_Support_ReviewException"><path d="M162.14,203.5986 C182.62,203.5986 204.66,203.5986 224.86,203.5986 " fill="none" id="Support-ReviewException" style="stroke:#333333;stroke-width:1.2;"/></g><!--link RequestRefund to PaymentProvider--><g id="link_RequestRefund_PaymentProvider"><path d="M949.36,181.9286 C972.71,179.9086 999.25,177.6286 1023.67,175.5186 " fill="none" id="RequestRefund-PaymentProvider" style="stroke:#333333;stroke-width:1.2;"/></g><!--link RequestCollection to DeliveryPartner--><g id="link_RequestCollection_DeliveryPartner"><path d="M956.31,266.8686 C979.52,268.8686 1005.24,271.0886 1028.62,273.0986 " fill="none" id="RequestCollection-DeliveryPartner" style="stroke:#333333;stroke-width:1.2;"/></g><!--link RequestReturn to RequestRefund--><g id="link_RequestReturn_RequestRefund"><path d="M680.7,193.5586 C720.94,192.3686 765.6126,191.0369 805.9826,189.8369 " fill="none" id="RequestReturn-to-RequestRefund" style="stroke:#333333;stroke-width:1.2;stroke-dasharray:7.0,7.0;"/><polygon fill="#333333" points="811.98,189.6586,802.8651,185.9278,806.9822,189.8072,803.1028,193.9243,811.98,189.6586" style="stroke:#333333;stroke-width:1.2;"/><text fill="#000000" font-family="Arial" font-size="14" lengthAdjust="spacing" textLength="61" x="712" y="187.7305">&#171;include&#187;</text></g><!--link RequestReturn to RequestCollection--><g id="link_RequestReturn_RequestCollection"><path d="M660.49,207.2986 C707.62,218.6586 773.2072,234.4821 822.0172,246.2521 " fill="none" id="RequestReturn-to-RequestCollection" style="stroke:#333333;stroke-width:1.2;stroke-dasharray:7.0,7.0;"/><polygon fill="#333333" points="827.85,247.6586,820.0385,241.6603,822.9893,246.4865,818.1631,249.4374,827.85,247.6586" style="stroke:#333333;stroke-width:1.2;"/><text fill="#000000" font-family="Arial" font-size="14" lengthAdjust="spacing" textLength="61" x="712" y="216.7305">&#171;include&#187;</text></g><!--link ReviewException to RequestReturn--><g id="link_ReviewException_RequestReturn"><path d="M371.13,201.7386 C422.36,200.4286 484.732,198.8231 535.202,197.5231 " fill="none" id="ReviewException-to-RequestReturn" style="stroke:#333333;stroke-width:1.2;stroke-dasharray:7.0,7.0;"/><polygon fill="#333333" points="541.2,197.3686,532.1,193.6017,536.2017,197.4974,532.306,201.5991,541.2,197.3686" style="stroke:#333333;stroke-width:1.2;"/><text fill="#000000" font-family="Arial" font-size="14" lengthAdjust="spacing" textLength="58" x="427" y="178.7305">&#171;extend&#187;</text><text fill="#000000" font-family="Arial" font-size="14" lengthAdjust="spacing" textLength="108" x="402" y="194.8291">[policy exception]</text></g><rect fill="none" height="58.2959" id="_legend" rx="7.5" ry="7.5" style="stroke:#000000;stroke-width:1.0;" width="255" x="912" y="334.2305"/><text fill="#000000" font-family="Arial" font-size="14" lengthAdjust="spacing" textLength="180" x="917" y="352.3623">Solid line = actor association</text><text fill="#000000" font-family="Arial" font-size="14" lengthAdjust="spacing" textLength="245" x="917" y="368.4609">&#171;include&#187; = required reused behaviour</text><text fill="#000000" font-family="Arial" font-size="14" lengthAdjust="spacing" textLength="209" x="917" y="384.5596">&#171;extend&#187; = conditional behaviour</text><!--SRC=[TPF1RjmW48RlFCNKTszIgQSejLHjsggdH5drrFH0ORABXC61OHEhwhjtiCtAR1B9ikoPR_Y7d-63SSecZR3PNF0JQRGOBmOh7QNUjdJ07ZS3VmfXyP60F0IpFn1e4r2HyKwG8OlmxSVtzl9JU_bn0xVE6eUm8nyGxf5IS15-HeIjvDUDaViWUo6aOW2sAPBlCIo_JVc7NHe67mY-xD5H0pAMY11PMRezgpPhhGcQ0xFsNm6G8geiszpZKy984AQ69dO9pItMxD7Wyu8-E7nHEEIzBbKv-RN4tjPuJ4xN6Zdo5gkyjREJQtvxYef_nQhcJeuzcm5tmH-DpXwDaR2VwfPSIPMI6xJcY67aV21NbvJSaXBYv7tRddbJ3cDArDklDfY1yqvUxIX3hxGhFPx6hdOEhk3wUfdLhdkVNgcSLrHjrmhJAfd75qAdk-x1_HgyDMg4qzd_pZU0Pr7F5u2FSiU4Xcd-FiFijupHAoENkLZfCn5OZIyDroCFWOO_U917urEOoABCeF9Ecxo4j2k8ixF-Vm00]--></g></svg>