<?xml version="1.0" encoding="us-ascii" standalone="no"?><svg xmlns="http://www.w3.org/2000/svg" xmlns:xlink="http://www.w3.org/1999/xlink" contentStyleType="text/css" height="550px" preserveAspectRatio="none" style="width:982px;height:550px;background:#FFFFFF;" version="1.1" viewBox="0 0 982 550" width="982px" zoomAndPan="magnify"><defs/><g><text fill="#000000" font-family="Arial" font-size="14" font-weight="bold" lengthAdjust="spacing" textLength="245" x="361.5" y="23.1318">FIG-08-02. Online Store logical ERD</text><!--class Customer--><g id="elem_Customer"><rect codeLine="9" fill="#F1F1F1" height="106.4932" id="Customer" rx="2.5" ry="2.5" style="stroke:#181818;stroke-width:0.5;" width="117" x="7" y="287.0986"/><ellipse cx="32.7" cy="308.1973" fill="#ADD1B2" rx="10" ry="10" style="stroke:#181818;stroke-width:1.0;"/><path d="M34.1063,304.2598 Q34.2313,304.0879 34.3875,304.0098 Q34.5438,303.916 34.7156,303.916 Q35.0281,303.916 35.2156,304.1348 Q35.4188,304.3379 35.4188,304.8379 L35.4188,306.0254 Q35.4188,306.541 35.2156,306.7598 Q35.0281,306.9629 34.7156,306.9629 Q34.4344,306.9629 34.2625,306.8066 Q34.0906,306.6504 34.0125,306.2285 Q33.9656,305.9316 33.825,305.7754 Q33.5438,305.4629 33.0281,305.291 Q32.5281,305.1035 32.0281,305.1035 Q31.4031,305.1035 30.8719,305.3848 Q30.3406,305.6504 29.9344,306.2754 Q29.5438,306.8848 29.5438,307.7285 L29.5438,308.6348 Q29.5438,309.6504 30.2781,310.3223 Q31.0125,310.9941 32.3094,310.9941 Q33.0906,310.9941 33.6375,310.791 Q33.95,310.666 34.3094,310.3066 Q34.5281,310.0879 34.6375,310.0254 Q34.7625,309.9473 34.9188,309.9473 Q35.2,309.9473 35.4188,310.166 Q35.6375,310.3848 35.6375,310.666 Q35.6375,310.9473 35.3406,311.2754 Q34.9188,311.7598 34.2625,312.0254 Q33.3875,312.4004 32.325,312.4004 Q31.075,312.4004 30.075,311.8848 Q29.2781,311.4785 28.7,310.6035 Q28.1375,309.7129 28.1375,308.666 L28.1375,307.7129 Q28.1375,306.6191 28.6375,305.6816 Q29.1531,304.7285 30.0594,304.2129 Q30.9656,303.6973 31.9656,303.6973 Q32.575,303.6973 33.1063,303.8379 Q33.6375,303.9785 34.1063,304.2598 Z " fill="#000000"/><text fill="#000000" font-family="Arial" font-size="14" font-style="italic" lengthAdjust="spacing" textLength="51" x="53.3" y="305.2305">&#171;Entity&#187;</text><text fill="#000000" font-family="Arial" font-size="14" lengthAdjust="spacing" textLength="61" x="48.3" y="321.3291">Customer</text><line style="stroke:#181818;stroke-width:0.5;" x1="8" x2="123" y1="329.2959" y2="329.2959"/><text fill="#000000" font-family="Arial" font-size="14" lengthAdjust="spacing" textLength="105" x="13" y="346.4277">customerId {key}</text><text fill="#000000" font-family="Arial" font-size="14" lengthAdjust="spacing" textLength="85" x="13" y="362.5264">emailAddress</text><text fill="#000000" font-family="Arial" font-size="14" lengthAdjust="spacing" textLength="98" x="13" y="378.625">customerStatus</text><line style="stroke:#181818;stroke-width:0.5;" x1="8" x2="123" y1="385.5918" y2="385.5918"/></g><!--class Order--><g id="elem_Order"><rect codeLine="15" fill="#F1F1F1" height="122.5918" id="Order" rx="2.5" ry="2.5" style="stroke:#181818;stroke-width:0.5;" width="93" x="184" y="278.5986"/><ellipse cx="205.2" cy="299.6973" fill="#ADD1B2" rx="10" ry="10" style="stroke:#181818;stroke-width:1.0;"/><path d="M206.6063,295.7598 Q206.7313,295.5879 206.8875,295.5098 Q207.0438,295.416 207.2156,295.416 Q207.5281,295.416 207.7156,295.6348 Q207.9188,295.8379 207.9188,296.3379 L207.9188,297.5254 Q207.9188,298.041 207.7156,298.2598 Q207.5281,298.4629 207.2156,298.4629 Q206.9344,298.4629 206.7625,298.3066 Q206.5906,298.1504 206.5125,297.7285 Q206.4656,297.4316 206.325,297.2754 Q206.0438,296.9629 205.5281,296.791 Q205.0281,296.6035 204.5281,296.6035 Q203.9031,296.6035 203.3719,296.8848 Q202.8406,297.1504 202.4344,297.7754 Q202.0438,298.3848 202.0438,299.2285 L202.0438,300.1348 Q202.0438,301.1504 202.7781,301.8223 Q203.5125,302.4941 204.8094,302.4941 Q205.5906,302.4941 206.1375,302.291 Q206.45,302.166 206.8094,301.8066 Q207.0281,301.5879 207.1375,301.5254 Q207.2625,301.4473 207.4188,301.4473 Q207.7,301.4473 207.9188,301.666 Q208.1375,301.8848 208.1375,302.166 Q208.1375,302.4473 207.8406,302.7754 Q207.4188,303.2598 206.7625,303.5254 Q205.8875,303.9004 204.825,303.9004 Q203.575,303.9004 202.575,303.3848 Q201.7781,302.9785 201.2,302.1035 Q200.6375,301.2129 200.6375,300.166 L200.6375,299.2129 Q200.6375,298.1191 201.1375,297.1816 Q201.6531,296.2285 202.5594,295.7129 Q203.4656,295.1973 204.4656,295.1973 Q205.075,295.1973 205.6063,295.3379 Q206.1375,295.4785 206.6063,295.7598 Z " fill="#000000"/><text fill="#000000" font-family="Arial" font-size="14" font-style="italic" lengthAdjust="spacing" textLength="51" x="217.8" y="296.7305">&#171;Entity&#187;</text><text fill="#000000" font-family="Arial" font-size="14" lengthAdjust="spacing" textLength="37" x="224.8" y="312.8291">Order</text><line style="stroke:#181818;stroke-width:0.5;" x1="185" x2="276" y1="320.7959" y2="320.7959"/><text fill="#000000" font-family="Arial" font-size="14" lengthAdjust="spacing" textLength="81" x="190" y="337.9277">orderId {key}</text><text fill="#000000" font-family="Arial" font-size="14" lengthAdjust="spacing" textLength="74" x="190" y="354.0264">orderStatus</text><text fill="#000000" font-family="Arial" font-size="14" lengthAdjust="spacing" textLength="55" x="190" y="370.125">placedAt</text><text fill="#000000" font-family="Arial" font-size="14" lengthAdjust="spacing" textLength="75" x="190" y="386.2236">totalAmount</text><line style="stroke:#181818;stroke-width:0.5;" x1="185" x2="276" y1="393.1904" y2="393.1904"/></g><!--class OrderLine--><g id="elem_OrderLine"><rect codeLine="22" fill="#F1F1F1" height="122.5918" id="OrderLine" rx="2.5" ry="2.5" style="stroke:#181818;stroke-width:0.5;" width="120" x="512.5" y="278.5986"/><ellipse cx="536.4" cy="299.6973" fill="#ADD1B2" rx="10" ry="10" style="stroke:#181818;stroke-width:1.0;"/><path d="M537.8063,295.7598 Q537.9313,295.5879 538.0875,295.5098 Q538.2438,295.416 538.4156,295.416 Q538.7281,295.416 538.9156,295.6348 Q539.1188,295.8379 539.1188,296.3379 L539.1188,297.5254 Q539.1188,298.041 538.9156,298.2598 Q538.7281,298.4629 538.4156,298.4629 Q538.1344,298.4629 537.9625,298.3066 Q537.7906,298.1504 537.7125,297.7285 Q537.6656,297.4316 537.525,297.2754 Q537.2438,296.9629 536.7281,296.791 Q536.2281,296.6035 535.7281,296.6035 Q535.1031,296.6035 534.5719,296.8848 Q534.0406,297.1504 533.6344,297.7754 Q533.2438,298.3848 533.2438,299.2285 L533.2438,300.1348 Q533.2438,301.1504 533.9781,301.8223 Q534.7125,302.4941 536.0094,302.4941 Q536.7906,302.4941 537.3375,302.291 Q537.65,302.166 538.0094,301.8066 Q538.2281,301.5879 538.3375,301.5254 Q538.4625,301.4473 538.6188,301.4473 Q538.9,301.4473 539.1188,301.666 Q539.3375,301.8848 539.3375,302.166 Q539.3375,302.4473 539.0406,302.7754 Q538.6188,303.2598 537.9625,303.5254 Q537.0875,303.9004 536.025,303.9004 Q534.775,303.9004 533.775,303.3848 Q532.9781,302.9785 532.4,302.1035 Q531.8375,301.2129 531.8375,300.166 L531.8375,299.2129 Q531.8375,298.1191 532.3375,297.1816 Q532.8531,296.2285 533.7594,295.7129 Q534.6656,295.1973 535.6656,295.1973 Q536.275,295.1973 536.8063,295.3379 Q537.3375,295.4785 537.8063,295.7598 Z " fill="#000000"/><text fill="#000000" font-family="Arial" font-size="14" font-style="italic" lengthAdjust="spacing" textLength="51" x="560.1" y="296.7305">&#171;Entity&#187;</text><text fill="#000000" font-family="Arial" font-size="14" lengthAdjust="spacing" textLength="68" x="551.6" y="312.8291">Order Line</text><line style="stroke:#181818;stroke-width:0.5;" x1="513.5" x2="631.5" y1="320.7959" y2="320.7959"/><text fill="#000000" font-family="Arial" font-size="14" lengthAdjust="spacing" textLength="108" x="518.5" y="337.9277">orderLineId {key}</text><text fill="#000000" font-family="Arial" font-size="14" lengthAdjust="spacing" textLength="50" x="518.5" y="354.0264">quantity</text><text fill="#000000" font-family="Arial" font-size="14" lengthAdjust="spacing" textLength="55" x="518.5" y="370.125">unitPrice</text><text fill="#000000" font-family="Arial" font-size="14" lengthAdjust="spacing" textLength="54" x="518.5" y="386.2236">lineTotal</text><line style="stroke:#181818;stroke-width:0.5;" x1="513.5" x2="631.5" y1="393.1904" y2="393.1904"/></g><!--class Product--><g id="elem_Product"><rect codeLine="29" fill="#F1F1F1" height="106.4932" id="Product" rx="2.5" ry="2.5" style="stroke:#181818;stroke-width:0.5;" width="107" x="868" y="287.0986"/><ellipse cx="894.6" cy="308.1973" fill="#ADD1B2" rx="10" ry="10" style="stroke:#181818;stroke-width:1.0;"/><path d="M896.0063,304.2598 Q896.1313,304.0879 896.2875,304.0098 Q896.4438,303.916 896.6156,303.916 Q896.9281,303.916 897.1156,304.1348 Q897.3188,304.3379 897.3188,304.8379 L897.3188,306.0254 Q897.3188,306.541 897.1156,306.7598 Q896.9281,306.9629 896.6156,306.9629 Q896.3344,306.9629 896.1625,306.8066 Q895.9906,306.6504 895.9125,306.2285 Q895.8656,305.9316 895.725,305.7754 Q895.4438,305.4629 894.9281,305.291 Q894.4281,305.1035 893.9281,305.1035 Q893.3031,305.1035 892.7719,305.3848 Q892.2406,305.6504 891.8344,306.2754 Q891.4438,306.8848 891.4438,307.7285 L891.4438,308.6348 Q891.4438,309.6504 892.1781,310.3223 Q892.9125,310.9941 894.2094,310.9941 Q894.9906,310.9941 895.5375,310.791 Q895.85,310.666 896.2094,310.3066 Q896.4281,310.0879 896.5375,310.0254 Q896.6625,309.9473 896.8188,309.9473 Q897.1,309.9473 897.3188,310.166 Q897.5375,310.3848 897.5375,310.666 Q897.5375,310.9473 897.2406,311.2754 Q896.8188,311.7598 896.1625,312.0254 Q895.2875,312.4004 894.225,312.4004 Q892.975,312.4004 891.975,311.8848 Q891.1781,311.4785 890.6,310.6035 Q890.0375,309.7129 890.0375,308.666 L890.0375,307.7129 Q890.0375,306.6191 890.5375,305.6816 Q891.0531,304.7285 891.9594,304.2129 Q892.8656,303.6973 893.8656,303.6973 Q894.475,303.6973 895.0063,303.8379 Q895.5375,303.9785 896.0063,304.2598 Z " fill="#000000"/><text fill="#000000" font-family="Arial" font-size="14" font-style="italic" lengthAdjust="spacing" textLength="51" x="909.4" y="305.2305">&#171;Entity&#187;</text><text fill="#000000" font-family="Arial" font-size="14" lengthAdjust="spacing" textLength="49" x="910.4" y="321.3291">Product</text><line style="stroke:#181818;stroke-width:0.5;" x1="869" x2="974" y1="329.2959" y2="329.2959"/><text fill="#000000" font-family="Arial" font-size="14" lengthAdjust="spacing" textLength="95" x="874" y="346.4277">productId {key}</text><text fill="#000000" font-family="Arial" font-size="14" lengthAdjust="spacing" textLength="84" x="874" y="362.5264">productName</text><text fill="#000000" font-family="Arial" font-size="14" lengthAdjust="spacing" textLength="77" x="874" y="378.625">currentPrice</text><line style="stroke:#181818;stroke-width:0.5;" x1="869" x2="974" y1="385.5918" y2="385.5918"/></g><!--class Payment--><g id="elem_Payment"><rect codeLine="35" fill="#F1F1F1" height="106.4932" id="Payment" rx="2.5" ry="2.5" style="stroke:#181818;stroke-width:0.5;" width="127" x="509" y="437.0986"/><ellipse cx="541.9" cy="458.1973" fill="#ADD1B2" rx="10" ry="10" style="stroke:#181818;stroke-width:1.0;"/><path d="M543.3063,454.2598 Q543.4313,454.0879 543.5875,454.0098 Q543.7438,453.916 543.9156,453.916 Q544.2281,453.916 544.4156,454.1348 Q544.6188,454.3379 544.6188,454.8379 L544.6188,456.0254 Q544.6188,456.541 544.4156,456.7598 Q544.2281,456.9629 543.9156,456.9629 Q543.6344,456.9629 543.4625,456.8066 Q543.2906,456.6504 543.2125,456.2285 Q543.1656,455.9316 543.025,455.7754 Q542.7438,455.4629 542.2281,455.291 Q541.7281,455.1035 541.2281,455.1035 Q540.6031,455.1035 540.0719,455.3848 Q539.5406,455.6504 539.1344,456.2754 Q538.7438,456.8848 538.7438,457.7285 L538.7438,458.6348 Q538.7438,459.6504 539.4781,460.3223 Q540.2125,460.9941 541.5094,460.9941 Q542.2906,460.9941 542.8375,460.791 Q543.15,460.666 543.5094,460.3066 Q543.7281,460.0879 543.8375,460.0254 Q543.9625,459.9473 544.1188,459.9473 Q544.4,459.9473 544.6188,460.166 Q544.8375,460.3848 544.8375,460.666 Q544.8375,460.9473 544.5406,461.2754 Q544.1188,461.7598 543.4625,462.0254 Q542.5875,462.4004 541.525,462.4004 Q540.275,462.4004 539.275,461.8848 Q538.4781,461.4785 537.9,460.6035 Q537.3375,459.7129 537.3375,458.666 L537.3375,457.7129 Q537.3375,456.6191 537.8375,455.6816 Q538.3531,454.7285 539.2594,454.2129 Q540.1656,453.6973 541.1656,453.6973 Q541.775,453.6973 542.3063,453.8379 Q542.8375,453.9785 543.3063,454.2598 Z " fill="#000000"/><text fill="#000000" font-family="Arial" font-size="14" font-style="italic" lengthAdjust="spacing" textLength="51" x="561.1" y="455.2305">&#171;Entity&#187;</text><text fill="#000000" font-family="Arial" font-size="14" lengthAdjust="spacing" textLength="55" x="559.1" y="471.3291">Payment</text><line style="stroke:#181818;stroke-width:0.5;" x1="510" x2="635" y1="479.2959" y2="479.2959"/><text fill="#000000" font-family="Arial" font-size="14" lengthAdjust="spacing" textLength="101" x="515" y="496.4277">paymentId {key}</text><text fill="#000000" font-family="Arial" font-size="14" lengthAdjust="spacing" textLength="94" x="515" y="512.5264">paymentStatus</text><text fill="#000000" font-family="Arial" font-size="14" lengthAdjust="spacing" textLength="115" x="515" y="528.625">authorisedAmount</text><line style="stroke:#181818;stroke-width:0.5;" x1="510" x2="635" y1="535.5918" y2="535.5918"/></g><!--class Shipment--><g id="elem_Shipment"><rect codeLine="41" fill="#F1F1F1" height="106.4932" id="Shipment" rx="2.5" ry="2.5" style="stroke:#181818;stroke-width:0.5;" width="128" x="508.5" y="44.0986"/><ellipse cx="540.05" cy="65.1973" fill="#ADD1B2" rx="10" ry="10" style="stroke:#181818;stroke-width:1.0;"/><path d="M541.4563,61.2598 Q541.5813,61.0879 541.7375,61.0098 Q541.8938,60.916 542.0656,60.916 Q542.3781,60.916 542.5656,61.1348 Q542.7688,61.3379 542.7688,61.8379 L542.7688,63.0254 Q542.7688,63.541 542.5656,63.7598 Q542.3781,63.9629 542.0656,63.9629 Q541.7844,63.9629 541.6125,63.8066 Q541.4406,63.6504 541.3625,63.2285 Q541.3156,62.9316 541.175,62.7754 Q540.8938,62.4629 540.3781,62.291 Q539.8781,62.1035 539.3781,62.1035 Q538.7531,62.1035 538.2219,62.3848 Q537.6906,62.6504 537.2844,63.2754 Q536.8938,63.8848 536.8938,64.7285 L536.8938,65.6348 Q536.8938,66.6504 537.6281,67.3223 Q538.3625,67.9941 539.6594,67.9941 Q540.4406,67.9941 540.9875,67.791 Q541.3,67.666 541.6594,67.3066 Q541.8781,67.0879 541.9875,67.0254 Q542.1125,66.9473 542.2688,66.9473 Q542.55,66.9473 542.7688,67.166 Q542.9875,67.3848 542.9875,67.666 Q542.9875,67.9473 542.6906,68.2754 Q542.2688,68.7598 541.6125,69.0254 Q540.7375,69.4004 539.675,69.4004 Q538.425,69.4004 537.425,68.8848 Q536.6281,68.4785 536.05,67.6035 Q535.4875,66.7129 535.4875,65.666 L535.4875,64.7129 Q535.4875,63.6191 535.9875,62.6816 Q536.5031,61.7285 537.4094,61.2129 Q538.3156,60.6973 539.3156,60.6973 Q539.925,60.6973 540.4563,60.8379 Q540.9875,60.9785 541.4563,61.2598 Z " fill="#000000"/><text fill="#000000" font-family="Arial" font-size="14" font-style="italic" lengthAdjust="spacing" textLength="51" x="560.95" y="62.2305">&#171;Entity&#187;</text><text fill="#000000" font-family="Arial" font-size="14" lengthAdjust="spacing" textLength="59" x="556.95" y="78.3291">Shipment</text><line style="stroke:#181818;stroke-width:0.5;" x1="509.5" x2="635.5" y1="86.2959" y2="86.2959"/><text fill="#000000" font-family="Arial" font-size="14" lengthAdjust="spacing" textLength="104" x="514.5" y="103.4277">shipmentId {key}</text><text fill="#000000" font-family="Arial" font-size="14" lengthAdjust="spacing" textLength="97" x="514.5" y="119.5264">shipmentStatus</text><text fill="#000000" font-family="Arial" font-size="14" lengthAdjust="spacing" textLength="116" x="514.5" y="135.625">trackingReference</text><line style="stroke:#181818;stroke-width:0.5;" x1="509.5" x2="635.5" y1="142.5918" y2="142.5918"/></g><g id="elem_GMN13"><path d="M337,185.0986 L337,243.3945 A0,0 0 0 0 337,243.3945 L808,243.3945 A0,0 0 0 0 808,243.3945 L808,195.0986 L798,185.0986 L577,185.0986 L573,150.1186 L569,185.0986 L337,185.0986 A0,0 0 0 0 337,185.0986 " fill="#FFF8DC" style="stroke:#666666;stroke-width:0.5;"/><path d="M798,185.0986 L798,195.0986 L808,195.0986 L798,185.0986 " fill="#FFF8DC" style="stroke:#666666;stroke-width:0.5;"/><text fill="#000000" font-family="Arial" font-size="14" lengthAdjust="spacing" textLength="82" x="343" y="203.2305">Logical ERD.</text><text fill="#000000" font-family="Arial" font-size="14" lengthAdjust="spacing" textLength="432" x="343" y="219.3291">It shows entities, selected attributes, keys, cardinality and optionality.</text><text fill="#000000" font-family="Arial" font-size="14" lengthAdjust="spacing" textLength="450" x="343" y="235.4277">It avoids physical table names, data types, indexes and vendor choices.</text></g><!--link Customer to Order--><g id="link_Customer_Order"><path codeLine="47" d="M124.14,340.0986 C143.77,340.0986 165.39,340.0986 183.97,340.0986 " fill="none" id="Customer-Order" style="stroke:#333333;stroke-width:1.2;"/><text fill="#000000" font-family="Arial" font-size="14" lengthAdjust="spacing" textLength="41" x="112.05" y="336.2305">places</text><text fill="#000000" font-family="Arial" font-size="14" lengthAdjust="spacing" textLength="8" x="132.1658" y="354.2302">1</text><text fill="#000000" font-family="Arial" font-size="14" lengthAdjust="spacing" textLength="21" x="154.9502" y="354.3911">0..*</text></g><!--reverse link Order to OrderLine--><g id="link_Order_OrderLine"><path codeLine="48" d="M289.34,340.0986 C350.44,340.0986 445.43,340.0986 512.44,340.0986 " fill="none" id="Order-backto-OrderLine" style="stroke:#333333;stroke-width:1.2;"/><polygon fill="#333333" points="277.34,340.0986,283.34,344.0986,289.34,340.0986,283.34,336.0986,277.34,340.0986" style="stroke:#333333;stroke-width:1.2;"/><text fill="#000000" font-family="Arial" font-size="14" lengthAdjust="spacing" textLength="53" x="340.89" y="354.2305">contains</text><text fill="#000000" font-family="Arial" font-size="14" lengthAdjust="spacing" textLength="8" x="285.1249" y="354.4943">1</text><text fill="#000000" font-family="Arial" font-size="14" lengthAdjust="spacing" textLength="21" x="483.2815" y="354.1848">1..*</text></g><!--link OrderLine to Product--><g id="link_OrderLine_Product"><path codeLine="49" d="M632.89,340.0986 C699.13,340.0986 798.42,340.0986 861.85,340.0986 " fill="none" id="OrderLine-to-Product" style="stroke:#333333;stroke-width:1.2;"/><polygon fill="#333333" points="867.85,340.0986,858.85,336.0986,862.85,340.0986,858.85,344.0986,867.85,340.0986" style="stroke:#333333;stroke-width:1.2;"/><text fill="#000000" font-family="Arial" font-size="14" lengthAdjust="spacing" textLength="68" x="681.37" y="354.2305">references</text><text fill="#000000" font-family="Arial" font-size="14" lengthAdjust="spacing" textLength="5" x="640.5547" y="354.2364">*</text><text fill="#000000" font-family="Arial" font-size="14" lengthAdjust="spacing" textLength="8" x="852.1033" y="354.279">1</text></g><!--link Order to Payment--><g id="link_Order_Payment"><path codeLine="50" d="M231,401.9786 C231,443.2986 231,490.0986 231,490.0986 C231,490.0986 409.82,490.0986 508.67,490.0986 " fill="none" id="Order-Payment" style="stroke:#333333;stroke-width:1.2;"/><text fill="#000000" font-family="Arial" font-size="14" lengthAdjust="spacing" textLength="23" x="301.77" y="504.2305">has</text><text fill="#000000" font-family="Arial" font-size="14" lengthAdjust="spacing" textLength="8" x="222.6391" y="422.343">1</text><text fill="#000000" font-family="Arial" font-size="14" lengthAdjust="spacing" textLength="21" x="480.0047" y="504.0351">0..*</text></g><!--link Order to Shipment--><g id="link_Order_Shipment"><path codeLine="51" d="M231,278.4686 C231,206.4786 231,97.0986 231,97.0986 C231,97.0986 409.34,97.0986 508.27,97.0986 " fill="none" id="Order-Shipment" style="stroke:#333333;stroke-width:1.2;"/><text fill="#000000" font-family="Arial" font-size="14" lengthAdjust="spacing" textLength="63" x="214.95" y="111.2305">fulfilled by</text><text fill="#000000" font-family="Arial" font-size="14" lengthAdjust="spacing" textLength="8" x="222.5953" y="267.5788">1</text><text fill="#000000" font-family="Arial" font-size="14" lengthAdjust="spacing" textLength="21" x="479.5635" y="111.0351">0..*</text></g><!--SRC=[RLFRRjim37tNLt1-31OttTCG5062hXi256lHx0SOYuc5of8dqTsyely-ofVOQ0C41db2dYCTYf-CAsoZ2VByIdwHMqlnghRekAdiaakgAAybLChIaO4z17Cg6RG9LB3nJh5XI_1zzsEv-hfSVSdXmLdZ2FRi0u7r9rEWXRkdRqh5P-Dg35X1OJ76BNCmXuPfLtYtD_y8LhEIHC9jJU03brwfhWLkcyY-eW0tDtTEfDlD1buLG37WEmslpzI-2KGL6hlLEb2Ciuez8pTHlOsC3q5_fFC9d75r-T098FuKfBSi8Nj6kwryutYYp7hEUxb11ZX8fEoYJFfZ9lMxmQv4miOPVWoc88cJ7R-Is2Jp6Bnk2dvFMlVmZ790Vc95dH4Xa1k89p9iAq4_aFNmdAn7pcPW8-C99eeXxspObwQ-n1a7V4OwGcTM3bZ8KpWzqP7ajFr9pyFFhZDOBY5RvVaY6oQuxiSILP-caaMgkPvgkX6iGLuRet53PGTcYqIuwRf6MzSGHl4vwQGxMhQ64YzNd1rOmx6nHsCjQJYqIZdF10VFSXsvxFsq9BcaEnO__9y8b5mp53z392lh9iquxeo0ufry2mpQEBJYBw3JuEkqbbq-aE6BDpf2NRQnas4yoCOwUGtIhf4Hqfv9R9oclnGxcXTosWSeIY_F9EPAKaYd_Wy0]--></g></svg>