<?xml version="1.0" encoding="us-ascii" standalone="no"?><svg xmlns="http://www.w3.org/2000/svg" xmlns:xlink="http://www.w3.org/1999/xlink" contentStyleType="text/css" height="1051px" preserveAspectRatio="none" style="width:807px;height:1051px;background:#FFFFFF;" version="1.1" viewBox="0 0 807 1051" width="807px" zoomAndPan="magnify"><defs/><g><text fill="#000000" font-family="Arial" font-size="14" font-weight="bold" lengthAdjust="spacing" textLength="282" x="255.5" y="23.1318">FIG-07-05. Horizon Bank motivation view</text><!--cluster thread_data--><g id="cluster_thread_data"><path d="M8.5,392.0986 L233.5,392.0986 A3.75,3.75 0 0 1 236,394.5986 L243,414.1973 L605.5,414.1973 A2.5,2.5 0 0 1 608,416.6973 L608,920.5986 A2.5,2.5 0 0 1 605.5,923.0986 L8.5,923.0986 A2.5,2.5 0 0 1 6,920.5986 L6,394.5986 A2.5,2.5 0 0 1 8.5,392.0986 " fill="#FFFFFF" style="stroke:#000000;stroke-width:1.5;"/><line style="stroke:#000000;stroke-width:1.5;" x1="6" x2="243" y1="414.1973" y2="414.1973"/><text fill="#000000" font-family="Arial" font-size="14" font-weight="bold" lengthAdjust="spacing" textLength="224" x="10" y="407.2305">Thread 1: trusted customer data</text></g><!--cluster thread_onboarding--><g id="cluster_thread_onboarding"><path d="M23,43.0986 L285,43.0986 A3.75,3.75 0 0 1 287.5,45.5986 L294.5,65.1973 L797.5,65.1973 A2.5,2.5 0 0 1 800,67.6973 L800,365.5986 A2.5,2.5 0 0 1 797.5,368.0986 L23,368.0986 A2.5,2.5 0 0 1 20.5,365.5986 L20.5,45.5986 A2.5,2.5 0 0 1 23,43.0986 " fill="#FFFFFF" style="stroke:#000000;stroke-width:1.5;"/><line style="stroke:#000000;stroke-width:1.5;" x1="20.5" x2="294.5" y1="65.1973" y2="65.1973"/><text fill="#000000" font-family="Arial" font-size="14" font-weight="bold" lengthAdjust="spacing" textLength="261" x="24.5" y="58.2305">Thread 2: faster reusable onboarding</text></g><!--entity compliance--><g id="elem_compliance"><rect fill="#FFF4D6" height="68.2959" rx="4" ry="4" style="stroke:#333333;stroke-width:0.5;" width="112" x="36.5" y="839.0986"/><text fill="#000000" font-family="Arial" font-size="14" lengthAdjust="spacing" textLength="74" x="46.5" y="862.2305">Compliance</text><text fill="#000000" font-family="Arial" font-size="14" lengthAdjust="spacing" textLength="58" x="46.5" y="878.3291">Reviewer</text><text fill="#000000" font-family="Arial" font-size="14" lengthAdjust="spacing" textLength="92" x="46.5" y="894.4277">&#171;Stakeholder&#187;</text></g><!--entity driver_dup--><g id="elem_driver_dup"><rect fill="#F7E8D0" height="68.2959" rx="4" ry="4" style="stroke:#333333;stroke-width:0.5;" width="141" x="22" y="736.0986"/><text fill="#000000" font-family="Arial" font-size="14" lengthAdjust="spacing" textLength="121" x="32" y="759.2305">Duplicate customer</text><text fill="#000000" font-family="Arial" font-size="14" lengthAdjust="spacing" textLength="66" x="32" y="775.3291">databases</text><text fill="#000000" font-family="Arial" font-size="14" lengthAdjust="spacing" textLength="54" x="32" y="791.4277">&#171;Driver&#187;</text></g><!--entity assess_data--><g id="elem_assess_data"><rect fill="#F7E8D0" height="68.2959" rx="4" ry="4" style="stroke:#333333;stroke-width:0.5;" width="113" x="36" y="633.0986"/><text fill="#000000" font-family="Arial" font-size="14" lengthAdjust="spacing" textLength="93" x="46" y="656.2305">Customer data</text><text fill="#000000" font-family="Arial" font-size="14" lengthAdjust="spacing" textLength="72" x="46" y="672.3291">fragmented</text><text fill="#000000" font-family="Arial" font-size="14" lengthAdjust="spacing" textLength="92" x="46" y="688.4277">&#171;Assessment&#187;</text></g><!--entity goal_trusted--><g id="elem_goal_trusted"><rect fill="#EAF6E8" height="68.2959" rx="4" ry="4" style="stroke:#333333;stroke-width:0.5;" width="131" x="27" y="530.0986"/><text fill="#000000" font-family="Arial" font-size="14" lengthAdjust="spacing" textLength="111" x="37" y="553.2305">Trusted customer</text><text fill="#000000" font-family="Arial" font-size="14" lengthAdjust="spacing" textLength="27" x="37" y="569.3291">view</text><text fill="#000000" font-family="Arial" font-size="14" lengthAdjust="spacing" textLength="46" x="37" y="585.4277">&#171;Goal&#187;</text></g><!--entity outcome_duplicate--><g id="elem_outcome_duplicate"><rect fill="#EAF6E8" height="68.2959" rx="4" ry="4" style="stroke:#333333;stroke-width:0.5;" width="138" x="23.5" y="427.0986"/><text fill="#000000" font-family="Arial" font-size="14" lengthAdjust="spacing" textLength="118" x="33.5" y="450.2305">Reduced duplicate</text><text fill="#000000" font-family="Arial" font-size="14" lengthAdjust="spacing" textLength="110" x="33.5" y="466.3291">customer capture</text><text fill="#000000" font-family="Arial" font-size="14" lengthAdjust="spacing" textLength="73" x="33.5" y="482.4277">&#171;Outcome&#187;</text></g><!--entity principle_record--><g id="elem_principle_record"><rect fill="#E8F1FA" height="84.3945" rx="4" ry="4" style="stroke:#333333;stroke-width:0.5;" width="145" x="447" y="522.0986"/><text fill="#000000" font-family="Arial" font-size="14" lengthAdjust="spacing" textLength="120" x="457" y="545.2305">Customer data has</text><text fill="#000000" font-family="Arial" font-size="14" lengthAdjust="spacing" textLength="125" x="457" y="561.3291">accountable system</text><text fill="#000000" font-family="Arial" font-size="14" lengthAdjust="spacing" textLength="57" x="457" y="577.4277">of record</text><text fill="#000000" font-family="Arial" font-size="14" lengthAdjust="spacing" textLength="70" x="457" y="593.5264">&#171;Principle&#187;</text></g><!--entity req_identity--><g id="elem_req_identity"><rect fill="#E8F1FA" height="68.2959" rx="4" ry="4" style="stroke:#333333;stroke-width:0.5;" width="123" x="243.5" y="530.0986"/><text fill="#000000" font-family="Arial" font-size="14" lengthAdjust="spacing" textLength="103" x="253.5" y="553.2305">Reuse customer</text><text fill="#000000" font-family="Arial" font-size="14" lengthAdjust="spacing" textLength="94" x="253.5" y="569.3291">identity service</text><text fill="#000000" font-family="Arial" font-size="14" lengthAdjust="spacing" textLength="97" x="253.5" y="585.4277">&#171;Requirement&#187;</text></g><!--entity sponsor--><g id="elem_sponsor"><rect fill="#FFF4D6" height="68.2959" rx="4" ry="4" style="stroke:#333333;stroke-width:0.5;" width="112" x="36.5" y="284.0986"/><text fill="#000000" font-family="Arial" font-size="14" lengthAdjust="spacing" textLength="91" x="46.5" y="307.2305">Retail Banking</text><text fill="#000000" font-family="Arial" font-size="14" lengthAdjust="spacing" textLength="53" x="46.5" y="323.3291">Sponsor</text><text fill="#000000" font-family="Arial" font-size="14" lengthAdjust="spacing" textLength="92" x="46.5" y="339.4277">&#171;Stakeholder&#187;</text></g><!--entity driver_slow--><g id="elem_driver_slow"><rect fill="#F7E8D0" height="68.2959" rx="4" ry="4" style="stroke:#333333;stroke-width:0.5;" width="101" x="42" y="181.0986"/><text fill="#000000" font-family="Arial" font-size="14" lengthAdjust="spacing" textLength="81" x="52" y="204.2305">Slow product</text><text fill="#000000" font-family="Arial" font-size="14" lengthAdjust="spacing" textLength="57" x="52" y="220.3291">launches</text><text fill="#000000" font-family="Arial" font-size="14" lengthAdjust="spacing" textLength="54" x="52" y="236.4277">&#171;Driver&#187;</text></g><!--entity driver_visibility--><g id="elem_driver_visibility"><rect fill="#F7E8D0" height="68.2959" rx="4" ry="4" style="stroke:#333333;stroke-width:0.5;" width="119" x="245.5" y="284.0986"/><text fill="#000000" font-family="Arial" font-size="14" lengthAdjust="spacing" textLength="99" x="255.5" y="307.2305">Limited process</text><text fill="#000000" font-family="Arial" font-size="14" lengthAdjust="spacing" textLength="48" x="255.5" y="323.3291">visibility</text><text fill="#000000" font-family="Arial" font-size="14" lengthAdjust="spacing" textLength="54" x="255.5" y="339.4277">&#171;Driver&#187;</text></g><!--entity assess_onboarding--><g id="elem_assess_onboarding"><rect fill="#F7E8D0" height="68.2959" rx="4" ry="4" style="stroke:#333333;stroke-width:0.5;" width="164" x="223" y="181.0986"/><text fill="#000000" font-family="Arial" font-size="14" lengthAdjust="spacing" textLength="144" x="233" y="204.2305">Onboarding duplicated</text><text fill="#000000" font-family="Arial" font-size="14" lengthAdjust="spacing" textLength="101" x="233" y="220.3291">across products</text><text fill="#000000" font-family="Arial" font-size="14" lengthAdjust="spacing" textLength="92" x="233" y="236.4277">&#171;Assessment&#187;</text></g><!--entity goal_reuse--><g id="elem_goal_reuse"><rect fill="#EAF6E8" height="68.2959" rx="4" ry="4" style="stroke:#333333;stroke-width:0.5;" width="156" x="227" y="78.0986"/><text fill="#000000" font-family="Arial" font-size="14" lengthAdjust="spacing" textLength="136" x="237" y="101.2305">Reusable onboarding</text><text fill="#000000" font-family="Arial" font-size="14" lengthAdjust="spacing" textLength="59" x="237" y="117.3291">capability</text><text fill="#000000" font-family="Arial" font-size="14" lengthAdjust="spacing" textLength="46" x="237" y="133.4277">&#171;Goal&#187;</text></g><!--entity goal_stp--><g id="elem_goal_stp"><rect fill="#EAF6E8" height="68.2959" rx="4" ry="4" style="stroke:#333333;stroke-width:0.5;" width="142" x="448.5" y="284.0986"/><text fill="#000000" font-family="Arial" font-size="14" lengthAdjust="spacing" textLength="114" x="458.5" y="307.2305">Improved straight-</text><text fill="#000000" font-family="Arial" font-size="14" lengthAdjust="spacing" textLength="122" x="458.5" y="323.3291">through processing</text><text fill="#000000" font-family="Arial" font-size="14" lengthAdjust="spacing" textLength="46" x="458.5" y="339.4277">&#171;Goal&#187;</text></g><!--entity outcome_faster--><g id="elem_outcome_faster"><rect fill="#EAF6E8" height="68.2959" rx="4" ry="4" style="stroke:#333333;stroke-width:0.5;" width="144" x="447.5" y="181.0986"/><text fill="#000000" font-family="Arial" font-size="14" lengthAdjust="spacing" textLength="76" x="457.5" y="204.2305">Faster retail</text><text fill="#000000" font-family="Arial" font-size="14" lengthAdjust="spacing" textLength="124" x="457.5" y="220.3291">product onboarding</text><text fill="#000000" font-family="Arial" font-size="14" lengthAdjust="spacing" textLength="73" x="457.5" y="236.4277">&#171;Outcome&#187;</text></g><!--entity req_screening--><g id="elem_req_screening"><rect fill="#E8F1FA" height="68.2959" rx="4" ry="4" style="stroke:#333333;stroke-width:0.5;" width="132" x="652" y="284.0986"/><text fill="#000000" font-family="Arial" font-size="14" lengthAdjust="spacing" textLength="112" x="662" y="307.2305">Record screening</text><text fill="#000000" font-family="Arial" font-size="14" lengthAdjust="spacing" textLength="57" x="662" y="323.3291">evidence</text><text fill="#000000" font-family="Arial" font-size="14" lengthAdjust="spacing" textLength="97" x="662" y="339.4277">&#171;Requirement&#187;</text></g><!--entity req_core--><g id="elem_req_core"><rect fill="#E8F1FA" height="68.2959" rx="4" ry="4" style="stroke:#333333;stroke-width:0.5;" width="132" x="453.5" y="78.0986"/><text fill="#000000" font-family="Arial" font-size="14" lengthAdjust="spacing" textLength="112" x="463.5" y="101.2305">Integrate retained</text><text fill="#000000" font-family="Arial" font-size="14" lengthAdjust="spacing" textLength="83" x="463.5" y="117.3291">core systems</text><text fill="#000000" font-family="Arial" font-size="14" lengthAdjust="spacing" textLength="97" x="463.5" y="133.4277">&#171;Requirement&#187;</text></g><!--link compliance to driver_dup--><g id="link_compliance_driver_dup"><path d="M93,839.0886 C93,827.9586 93,821.5786 93,810.4286 " fill="none" id="compliance-to-driver_dup" style="stroke:#333333;stroke-width:1.2;"/><polygon fill="#333333" points="93,804.4286,89,813.4286,93,809.4286,97,813.4286,93,804.4286" style="stroke:#333333;stroke-width:1.2;"/></g><!--link driver_dup to assess_data--><g id="link_driver_dup_assess_data"><path d="M93,736.0886 C93,724.9586 93,718.5786 93,707.4286 " fill="none" id="driver_dup-to-assess_data" style="stroke:#333333;stroke-width:1.2;"/><polygon fill="#333333" points="93,701.4286,89,710.4286,93,706.4286,97,710.4286,93,701.4286" style="stroke:#333333;stroke-width:1.2;"/></g><!--link assess_data to goal_trusted--><g id="link_assess_data_goal_trusted"><path d="M93,633.0886 C93,621.9586 93,615.5786 93,604.4286 " fill="none" id="assess_data-to-goal_trusted" style="stroke:#333333;stroke-width:1.2;"/><polygon fill="#333333" points="93,598.4286,89,607.4286,93,603.4286,97,607.4286,93,598.4286" style="stroke:#333333;stroke-width:1.2;"/></g><!--link goal_trusted to outcome_duplicate--><g id="link_goal_trusted_outcome_duplicate"><path d="M93,530.0886 C93,518.9586 93,512.5786 93,501.4286 " fill="none" id="goal_trusted-to-outcome_duplicate" style="stroke:#333333;stroke-width:1.2;"/><polygon fill="#333333" points="93,495.4286,89,504.4286,93,500.4286,97,504.4286,93,495.4286" style="stroke:#333333;stroke-width:1.2;"/></g><!--reverse link req_identity to principle_record--><g id="link_req_identity_principle_record"><path d="M372.75,564.0986 C397.75,564.0986 420.8,564.0986 446.82,564.0986 " fill="none" id="req_identity-backto-principle_record" style="stroke:#333333;stroke-width:1.2;"/><polygon fill="#333333" points="366.75,564.0986,375.75,568.0986,371.75,564.0986,375.75,560.0986,366.75,564.0986" style="stroke:#333333;stroke-width:1.2;"/></g><!--reverse link goal_trusted to req_identity--><g id="link_goal_trusted_req_identity"><path d="M164.28,564.0986 C191.34,564.0986 216.52,564.0986 243.16,564.0986 " fill="none" id="goal_trusted-backto-req_identity" style="stroke:#333333;stroke-width:1.2;"/><polygon fill="#333333" points="158.28,564.0986,167.28,568.0986,163.28,564.0986,167.28,560.0986,158.28,564.0986" style="stroke:#333333;stroke-width:1.2;"/></g><!--link sponsor to driver_slow--><g id="link_sponsor_driver_slow"><path d="M93,284.0886 C93,272.9586 93,266.5786 93,255.4286 " fill="none" id="sponsor-to-driver_slow" style="stroke:#333333;stroke-width:1.2;"/><polygon fill="#333333" points="93,249.4286,89,258.4286,93,254.4286,97,258.4286,93,249.4286" style="stroke:#333333;stroke-width:1.2;"/></g><!--link sponsor to driver_visibility--><g id="link_sponsor_driver_visibility"><path d="M148.61,318.0986 C178.37,318.0986 208.93,318.0986 239.22,318.0986 " fill="none" id="sponsor-to-driver_visibility" style="stroke:#333333;stroke-width:1.2;"/><polygon fill="#333333" points="245.22,318.0986,236.22,314.0986,240.22,318.0986,236.22,322.0986,245.22,318.0986" style="stroke:#333333;stroke-width:1.2;"/></g><!--link driver_slow to assess_onboarding--><g id="link_driver_slow_assess_onboarding"><path d="M143.13,215.0986 C166.94,215.0986 189.95,215.0986 216.8,215.0986 " fill="none" id="driver_slow-to-assess_onboarding" style="stroke:#333333;stroke-width:1.2;"/><polygon fill="#333333" points="222.8,215.0986,213.8,211.0986,217.8,215.0986,213.8,219.0986,222.8,215.0986" style="stroke:#333333;stroke-width:1.2;"/></g><!--link driver_visibility to assess_onboarding--><g id="link_driver_visibility_assess_onboarding"><path d="M305,284.0886 C305,272.9586 305,266.5786 305,255.4286 " fill="none" id="driver_visibility-to-assess_onboarding" style="stroke:#333333;stroke-width:1.2;"/><polygon fill="#333333" points="305,249.4286,301,258.4286,305,254.4286,309,258.4286,305,249.4286" style="stroke:#333333;stroke-width:1.2;"/></g><!--link assess_onboarding to goal_reuse--><g id="link_assess_onboarding_goal_reuse"><path d="M305,181.0886 C305,169.9586 305,163.5786 305,152.4286 " fill="none" id="assess_onboarding-to-goal_reuse" style="stroke:#333333;stroke-width:1.2;"/><polygon fill="#333333" points="305,146.4286,301,155.4286,305,151.4286,309,155.4286,305,146.4286" style="stroke:#333333;stroke-width:1.2;"/></g><!--link assess_onboarding to goal_stp--><g id="link_assess_onboarding_goal_stp"><path d="M377,249.1086 C377,279.1086 377,318.0986 377,318.0986 C377,318.0986 406.62,318.0986 442.25,318.0986 " fill="none" id="assess_onboarding-to-goal_stp" style="stroke:#333333;stroke-width:1.2;"/><polygon fill="#333333" points="448.25,318.0986,439.25,314.0986,443.25,318.0986,439.25,322.0986,448.25,318.0986" style="stroke:#333333;stroke-width:1.2;"/></g><!--link goal_reuse to outcome_faster--><g id="link_goal_reuse_outcome_faster"><path d="M383.09,123.4286 C402.06,123.4286 417,123.4286 417,123.4286 C417,123.4286 417,215.0986 417,215.0986 C417,215.0986 424.38,215.0986 441.48,215.0986 " fill="none" id="goal_reuse-to-outcome_faster" style="stroke:#333333;stroke-width:1.2;"/><polygon fill="#333333" points="447.48,215.0986,438.48,211.0986,442.48,215.0986,438.48,219.0986,447.48,215.0986" style="stroke:#333333;stroke-width:1.2;"/></g><!--link goal_stp to outcome_faster--><g id="link_goal_stp_outcome_faster"><path d="M520,284.0886 C520,272.9586 520,266.5786 520,255.4286 " fill="none" id="goal_stp-to-outcome_faster" style="stroke:#333333;stroke-width:1.2;"/><polygon fill="#333333" points="520,249.4286,516,258.4286,520,254.4286,524,258.4286,520,249.4286" style="stroke:#333333;stroke-width:1.2;"/></g><!--reverse link goal_stp to req_screening--><g id="link_goal_stp_req_screening"><path d="M596.6,318.0986 C616.52,318.0986 632.08,318.0986 651.7,318.0986 " fill="none" id="goal_stp-backto-req_screening" style="stroke:#333333;stroke-width:1.2;"/><polygon fill="#333333" points="590.6,318.0986,599.6,322.0986,595.6,318.0986,599.6,314.0986,590.6,318.0986" style="stroke:#333333;stroke-width:1.2;"/></g><!--reverse link goal_reuse to req_core--><g id="link_goal_reuse_req_core"><path d="M389.05,100.7686 C412.05,100.7686 430.98,100.7686 453.17,100.7686 " fill="none" id="goal_reuse-backto-req_core" style="stroke:#333333;stroke-width:1.2;"/><polygon fill="#333333" points="383.05,100.7686,392.05,104.7686,388.05,100.7686,392.05,96.7686,383.05,100.7686" style="stroke:#333333;stroke-width:1.2;"/></g><rect fill="none" height="90.4932" id="_legend" rx="7.5" ry="7.5" style="stroke:#000000;stroke-width:1.0;" width="479" x="157" y="941.0986"/><text fill="#000000" font-family="Arial" font-size="14" lengthAdjust="spacing" textLength="279" x="162" y="959.2305">Two separate motivation threads are shown.</text><text fill="#000000" font-family="Arial" font-size="14" lengthAdjust="spacing" textLength="339" x="162" y="975.3291">Arrows from Stakeholders to Drivers are Associations.</text><text fill="#000000" font-family="Arial" font-size="14" lengthAdjust="spacing" textLength="469" x="162" y="991.4277">Other arrows are Influence relationships, including Requirements to Goals.</text><text fill="#000000" font-family="Arial" font-size="14" lengthAdjust="spacing" textLength="257" x="162" y="1007.5264">Realisation is deliberately not used here.</text><text fill="#000000" font-family="Arial" font-size="14" lengthAdjust="spacing" textLength="252" x="162" y="1023.625">No removed Constraint element is used.</text><!--SRC=[VLRRRjiu47tdLt3JrxMR5hq4HH4WJU9kW69JE7aKOD3YM292aIf9sV0k-k-TeIo9ikK41cAQXsSkF7F0lvJ9TIE1p-TlyUF3NeD_MsjXGbFfMIYXWdcDNnaBAcZWYuVliylFiykFS_wFTUe_Q_WtOLvuPOFQYg1mlLMmOyo_A5CB9ogkbO6mhu5R5qgRR3Z8Wp05ilxFE5_QniXRwmmuViL-CwPX4tYmtAcY35mgWYC_OxN8NqG1_EAvT20aV_U51zVu09Bd-CzMo21541TSU1uYPaLh_cOH_sAu8VZ5hQrghOJ98JDBeFJ1PURhrwSWNg2qMeAxlevaUO-CN1_kFesPxXhSpaM0Ff7CKEIryE29yiwfRSycus8bcnhPFjzVtLqUvPKMavcD4qK51iiafXkFb9xM1pOHV-WAdQ1xFkfHPgXKulfkXJwm5FXrrNNppVtDujFzrPXc2RB9SLDsjMQcxtekwj0u8Cx79c2tu41hszMgFpJDFQgObm9x9l8SXO4jn7s_nxIgpDWD7R8kDkAdGmshMdUXwcwzQZ4OwMhnRd5pN4NZqrjI4ZkfmfvxS5kLnnAMyAj1rIKzTl1hrICxtj-dYdp_XMy4vkhmHEDZxjQihN1IcIALvV3hEN4k8GYbuv0XAZDFjJNUdj6dRpUdnVcaxGwxO_7wGcQqQ4nUdbUb9_IaZdweIf4wa2f7nP6Cl5ehZJqvHpOWfYaVXpRq2f5qzyvwt-NiNvFzg94J4PQdzu2w5RKO4Z-U0XSbCgdJXmfpsc8FV722x6cM6RnHsnHbrvOOu9JKXtgQSj7fXQuxCuUQH-cU6wg3rCvCQvm1dpi04rdGu531hocy1q-FpWDQKE5eXcEoXcuAWtJZwSyJHrGoDecTpgBBpwuJKsI9F_RRYSknrF5wG6fWREHcFUJ4ZDY9PyoQ6e7fkBFHxBVxerYi6xxZKcYIXarfTsRO6mQ3fNDtNEwW0dOwKQ-0JuTZtASeyIdK8SjEiYmPY9Csjl9ZlRpF0SRIIZf80Nfv9B-tsU4xe00Z-Te6z6gKulFEealJ4m8bcBmxMaj5Ho0fbbZ07C4tpjcTvnjdAvxufQU7HUjKxG7q5PkhIEJft2C-VHpknDC4U30RtT3Se2fqYojLxV_cxGkAIaf47_bfzYFP4eHMlirIeIc2LckWzFMU6niubYavnWC2_uil7gYYkznY438O4pZeo4l72Jrds9AsCNy0]--></g></svg>