<?xml version="1.0" encoding="us-ascii" standalone="no"?><svg xmlns="http://www.w3.org/2000/svg" xmlns:xlink="http://www.w3.org/1999/xlink" contentStyleType="text/css" height="812px" preserveAspectRatio="none" style="width:1697px;height:812px;background:#FFFFFF;" version="1.1" viewBox="0 0 1697 812" width="1697px" zoomAndPan="magnify"><defs/><g><text fill="#000000" font-family="Arial" font-size="14" font-weight="bold" lengthAdjust="spacing" textLength="310" x="686.5" y="23.1318">FIG-12-01. Online Store Trust Boundary View</text><!--cluster Edge--><g id="cluster_Edge"><rect fill="#F7F9FB" height="161" rx="2.5" ry="2.5" style="stroke:#333333;stroke-width:1.0;" width="178" x="726" y="44.0986"/><text fill="#000000" font-family="Arial" font-size="14" font-weight="bold" lengthAdjust="spacing" textLength="128" x="751" y="59.2305">Online Store Edge</text><text fill="#000000" font-family="Arial" font-size="14" font-weight="bold" lengthAdjust="spacing" textLength="111" x="759.5" y="75.3291">boundary basis:</text><text fill="#000000" font-family="Arial" font-size="14" font-weight="bold" lengthAdjust="spacing" textLength="158" x="736" y="91.4277">public entry policy and</text><text fill="#000000" font-family="Arial" font-size="14" font-weight="bold" lengthAdjust="spacing" textLength="151" x="739.5" y="107.5264">network enforcement</text></g><!--cluster AppRuntime--><g id="cluster_AppRuntime"><rect fill="#F7F9FB" height="216" rx="2.5" ry="2.5" style="stroke:#333333;stroke-width:1.0;" width="569" x="704" y="229.0986"/><text fill="#000000" font-family="Arial" font-size="14" font-weight="bold" lengthAdjust="spacing" textLength="232" x="872.5" y="244.2305">Online Store Application Runtime</text></g><!--cluster DataArea--><g id="cluster_DataArea"><rect fill="#F7F9FB" height="161" rx="2.5" ry="2.5" style="stroke:#333333;stroke-width:1.0;" width="222" x="1469" y="556.0986"/><text fill="#000000" font-family="Arial" font-size="14" font-weight="bold" lengthAdjust="spacing" textLength="206" x="1477" y="571.2305">Restricted Data-Custody Area</text><text fill="#000000" font-family="Arial" font-size="14" font-weight="bold" lengthAdjust="spacing" textLength="111" x="1524.5" y="587.3291">boundary basis:</text><text fill="#000000" font-family="Arial" font-size="14" font-weight="bold" lengthAdjust="spacing" textLength="119" x="1520.5" y="603.4277">data custody and</text><text fill="#000000" font-family="Arial" font-size="14" font-weight="bold" lengthAdjust="spacing" textLength="94" x="1533" y="619.5264">access policy</text></g><!--entity EdgeEndpoint--><g id="elem_EdgeEndpoint"><rect fill="#F7F9FB" height="62.1973" rx="2.5" ry="2.5" style="stroke:#333333;stroke-width:0.5;" width="146" x="742" y="127.0986"/><rect fill="#F7F9FB" height="10" style="stroke:#333333;stroke-width:0.5;" width="15" x="868" y="132.0986"/><rect fill="#F7F9FB" height="2" style="stroke:#333333;stroke-width:0.5;" width="4" x="866" y="134.0986"/><rect fill="#F7F9FB" height="2" style="stroke:#333333;stroke-width:0.5;" width="4" x="866" y="138.0986"/><text fill="#000000" font-family="Arial" font-size="14" lengthAdjust="spacing" textLength="93" x="757" y="160.2305">Edge Endpoint</text><text fill="#000000" font-family="Arial" font-size="14" lengthAdjust="spacing" textLength="106" x="757" y="176.3291">filters and routes</text></g><!--entity RuntimeBasis--><g id="elem_RuntimeBasis"><rect fill="#F7F9FB" height="68.2959" rx="2.5" ry="2.5" style="stroke:#333333;stroke-width:0.5;" width="190" x="720" y="264.0986"/><text fill="#000000" font-family="Arial" font-size="14" lengthAdjust="spacing" textLength="101" x="730" y="287.2305">boundary basis:</text><text fill="#000000" font-family="Arial" font-size="14" lengthAdjust="spacing" textLength="170" x="730" y="303.3291">execution environment and</text><text fill="#000000" font-family="Arial" font-size="14" lengthAdjust="spacing" textLength="108" x="730" y="319.4277">application policy</text></g><!--entity StoreRuntime--><g id="elem_StoreRuntime"><rect fill="#F7F9FB" height="62.1973" rx="2.5" ry="2.5" style="stroke:#333333;stroke-width:0.5;" width="150" x="1107" y="336.0986"/><rect fill="#F7F9FB" height="10" style="stroke:#333333;stroke-width:0.5;" width="15" x="1237" y="341.0986"/><rect fill="#F7F9FB" height="2" style="stroke:#333333;stroke-width:0.5;" width="4" x="1235" y="343.0986"/><rect fill="#F7F9FB" height="2" style="stroke:#333333;stroke-width:0.5;" width="4" x="1235" y="347.0986"/><text fill="#000000" font-family="Arial" font-size="14" lengthAdjust="spacing" textLength="79" x="1122" y="369.2305">Online Store</text><text fill="#000000" font-family="Arial" font-size="14" lengthAdjust="spacing" textLength="110" x="1122" y="385.3291">Web/API Runtime</text></g><!--entity SupportInterface--><g id="elem_SupportInterface"><rect fill="#F7F9FB" height="62.1973" rx="2.5" ry="2.5" style="stroke:#333333;stroke-width:0.5;" width="159" x="735.5" y="367.0986"/><rect fill="#F7F9FB" height="10" style="stroke:#333333;stroke-width:0.5;" width="15" x="874.5" y="372.0986"/><rect fill="#F7F9FB" height="2" style="stroke:#333333;stroke-width:0.5;" width="4" x="872.5" y="374.0986"/><rect fill="#F7F9FB" height="2" style="stroke:#333333;stroke-width:0.5;" width="4" x="872.5" y="378.0986"/><text fill="#000000" font-family="Arial" font-size="14" lengthAdjust="spacing" textLength="119" x="750.5" y="400.2305">Controlled Support</text><text fill="#000000" font-family="Arial" font-size="14" lengthAdjust="spacing" textLength="55" x="750.5" y="416.3291">Interface</text></g><!--entity DataStore--><g id="elem_DataStore"><path d="M1508,649.5986 C1508,639.5986 1580,639.5986 1580,639.5986 C1580,639.5986 1652,639.5986 1652,649.5986 L1652,690.7959 C1652,700.7959 1580,700.7959 1580,700.7959 C1580,700.7959 1508,700.7959 1508,690.7959 L1508,649.5986 " fill="#F2F5F7" style="stroke:#333333;stroke-width:0.5;"/><path d="M1508,649.5986 C1508,659.5986 1580,659.5986 1580,659.5986 C1580,659.5986 1652,659.5986 1652,649.5986 " fill="none" style="stroke:#333333;stroke-width:0.5;"/><text fill="#000000" font-family="Arial" font-size="14" lengthAdjust="spacing" textLength="124" x="1518" y="676.7305">Order and Payment</text><text fill="#000000" font-family="Arial" font-size="14" lengthAdjust="spacing" textLength="68" x="1518" y="692.8291">Data Store</text></g><!--entity Customer--><g id="elem_Customer"><ellipse cx="36.5" cy="120.5986" fill="#FFFFFF" rx="8" ry="8" style="stroke:#333333;stroke-width:0.5;"/><path d="M36.5,128.5986 L36.5,155.5986 M23.5,136.5986 L49.5,136.5986 M36.5,155.5986 L23.5,170.5986 M36.5,155.5986 L49.5,170.5986 " fill="none" style="stroke:#333333;stroke-width:0.5;"/><text fill="#000000" font-family="Arial" font-size="14" lengthAdjust="spacing" textLength="61" x="6" y="185.2305">Customer</text><text fill="#000000" font-family="Arial" font-size="14" lengthAdjust="spacing" textLength="43" x="6" y="201.3291">Device</text></g><!--entity PublicNetwork--><g id="elem_PublicNetwork"><path d="M263.5729,121.5254 C266.3915,113.4661 272.1668,112.4054 277.8117,118.7271 C281.7352,111.5058 289.6164,110.1921 294.0949,118.1309 C298.3427,110.3912 306.454,110.7869 311.1894,117.5563 C317.287,108.5193 323.9908,107.8203 330.02,117.6246 C333.8847,108.9977 340.0934,108.4347 346.1241,115.3855 C349.6472,108.2045 357.0918,107.7467 361.264,114.6899 C365.3239,107.5253 372.9851,106.4302 377.8066,113.8245 C384.0595,106.1232 389.7983,106.9203 395.0832,114.8916 C400.3985,107.3641 407.5439,108.437 411.5762,116.2693 C416.3995,108.8152 422.381,110.2085 426.6449,116.8666 C432.9916,110.1145 438.5858,110.4776 443.7272,118.2812 C448.5961,111.0036 456.3007,111.5775 460.5744,118.965 C465.1042,111.6794 473.0995,111.1776 478.0405,118.4724 C483.8633,113.0367 489.632,113.2964 492.2783,121.7326 C501.2209,126.398 502.7576,132.6475 494.6418,139.5727 C505.4418,144.0417 507.3131,153.0407 498.0126,160.7144 C507.1984,168.6018 506.2878,175.5243 495.2411,180.5905 C502.5525,187.7372 502.669,194.9553 492.4579,199.5266 C488.6242,207.7552 480.7586,206.2067 476.7562,199.7064 C472.1406,207.6118 466.0229,208.8108 460.3326,200.8166 C455.7967,207.6984 447.5769,209.7552 443.2699,200.5735 C438.0569,208.7792 431.3175,208.9383 426.9132,199.8104 C423.1151,209.2845 415.3367,209.5318 409.9245,201.3647 C404.3728,208.5214 400.0328,206.9165 395.6121,200.1981 C391.2752,208.8921 385.678,210.5986 378.685,202.949 C373.1702,209.7923 364.505,209.8094 360.5933,201.0859 C355.6984,208.4616 350.4159,209.0224 344.5073,202.2375 C337.8291,209.7983 331.9549,208.9577 327.7326,199.7767 C323.621,208.105 316.3874,207.5839 311.6818,200.3909 C307.1457,208.2793 299.1035,209.5434 294.5758,200.3826 C290.2755,208.4277 282.8783,207.0298 279.3582,199.6147 C273.7309,209.3693 267.2081,208.8768 261.4384,199.7498 C250.3633,194.1214 249.2351,187.8833 258.0101,178.9786 C247.4336,174.1336 244.9636,167.8693 253.5949,158.8178 C246.2909,152.1763 244.7335,143.3152 256.0347,138.9596 C249.0133,129.7594 254.004,123.5523 263.5729,121.5254 " fill="#FFFFFF" style="stroke:#333333;stroke-width:0.5;"/><text fill="#000000" font-family="Arial" font-size="14" lengthAdjust="spacing" textLength="92" x="268" y="139.2305">Public Network</text><text fill="#000000" font-family="Arial" font-size="14" lengthAdjust="spacing" textLength="101" x="268" y="155.3291">boundary basis:</text><text fill="#000000" font-family="Arial" font-size="14" lengthAdjust="spacing" textLength="160" x="268" y="171.4277">network enforcement and</text><text fill="#000000" font-family="Arial" font-size="14" lengthAdjust="spacing" textLength="217" x="268" y="187.5264">Online Store administrative control</text></g><!--entity IdentityService--><g id="elem_IdentityService"><path d="M1520.5697,175.4926 C1523.4646,169.0665 1527.4609,169.0954 1532.1233,173.6294 C1535.4004,166.8289 1541.5237,167.5545 1544.6617,173.7635 C1546.1725,166.8492 1551.6066,165.7342 1556.4326,170.3912 C1560.919,163.4886 1565.0418,164.8403 1569.7283,170.1737 C1571.7881,164.5887 1576.268,164.1311 1580.2847,167.9852 C1585.6775,163.4832 1590.0433,164.3077 1593.3351,170.5396 C1597.2387,165.5532 1600.6469,165.877 1604.6259,170.4505 C1608.7365,165.7554 1614.5779,166.9763 1616.8069,172.659 C1621.2232,166.5252 1627.642,167.4231 1629.9711,174.7069 C1638.9441,170.1944 1645.0801,171.0709 1647.5,182.0986 C1648.7772,181.2682 1649.5449,181.7415 1649.6988,183.1849 C1656.6878,186.8564 1656.2961,191.5829 1650.3405,195.9073 C1656.975,200.5186 1657.5032,205.3311 1650.2587,209.861 C1656.0944,212.6379 1657.7639,218.6015 1651.3399,222.4327 C1657.0955,226.2553 1657.7019,232.7701 1651.2396,236.5056 C1658.0593,242.01 1656.6312,246.8767 1650.1134,251.3706 C1656.2318,261.4193 1651.8103,268.7383 1640.5,269.5918 C1640.878,268.9443 1641.4451,269.0925 1641.7809,269.6371 C1639.4196,277.5571 1634.7166,277.8395 1628.9012,273.1711 C1626.2844,279.0491 1620.3714,278.7818 1617.0324,273.9731 C1614.1811,280.965 1608.8947,280.8745 1604.7855,275.1883 C1602.9985,281.3711 1598.4044,284.0864 1592.893,279.1838 C1589.7206,285.1058 1585.1554,284.9153 1581.2646,279.9513 C1576.178,285.772 1572.0402,284.3949 1568.717,278.1217 C1564.1783,282.7884 1559.5786,281.9288 1557.3117,275.7357 C1552.9032,282.049 1547.5231,280.8108 1544.8463,274.0808 C1539.4706,280.3378 1534.8949,277.9389 1531.8404,271.6705 C1521.6381,276.3451 1515.214,273.8696 1512.5,262.5918 C1513.439,261.7868 1514.1303,262.1839 1514.3828,263.2739 C1506.5098,261.4282 1505.569,256.5351 1510.5019,250.7281 C1503.7678,248.0816 1502.4232,242.7433 1507.1644,237.2543 C1498.979,235.2009 1499.3585,228.2405 1504.4877,223.5806 C1498.7918,218.0661 1501.1149,212.123 1507.8314,209.5709 C1501.9415,203.8718 1502.9405,199.7737 1509.9081,196.0493 C1500.9433,185.2226 1508.054,176.5806 1519.5,175.0986 C1520.0101,174.6396 1520.4486,174.8951 1520.5697,175.4926 " fill="#FFFFFF" style="stroke:#333333;stroke-width:0.5;"/><text fill="#000000" font-family="Arial" font-size="14" lengthAdjust="spacing" textLength="96" x="1519.5" y="195.2305">Identity Service</text><text fill="#000000" font-family="Arial" font-size="14" lengthAdjust="spacing" textLength="121" x="1519.5" y="211.3291">external supporting</text><text fill="#000000" font-family="Arial" font-size="14" lengthAdjust="spacing" textLength="98" x="1519.5" y="227.4277">security service</text><text fill="#000000" font-family="Arial" font-size="14" lengthAdjust="spacing" textLength="101" x="1519.5" y="243.5264">boundary basis:</text><text fill="#000000" font-family="Arial" font-size="14" lengthAdjust="spacing" textLength="104" x="1519.5" y="259.625">identity authority</text></g><!--entity PaymentProvider--><g id="elem_PaymentProvider"><path d="M1505.2978,326.632 C1507.8187,319.4799 1513.0662,319.5277 1517.6971,324.4685 C1522.1481,317.9059 1527.9367,319.3667 1531.4783,325.4588 C1533.2153,319.6611 1538.3576,319.0935 1542.007,323.482 C1545.6215,317.0495 1551.4843,317.6563 1554.9392,323.6481 C1559.0281,317.0106 1563.5632,317.0971 1568.8011,322.3033 C1572.7494,316.298 1577.4633,317.2662 1581.0444,322.6963 C1585.2541,316.7261 1590.8866,317.018 1594.1258,323.6999 C1597.4373,317.5398 1603.1662,317.0796 1606.7695,323.4043 C1610.8693,319.1006 1615.4274,318.12 1618.3955,324.6219 C1622.2784,317.6359 1627.5266,318.8599 1631.5419,324.4839 C1636.3,319.1736 1640.2329,319.018 1644.0901,325.4468 C1647.4097,319.5348 1653.0925,319.4552 1656.5477,325.303 C1663.9089,326.9008 1664.8475,333.7728 1660.2277,338.6691 C1666.5237,342.3183 1668.0232,348.1599 1661.0905,352.6269 C1668.9481,355.4588 1670.1686,360.1413 1664.5355,366.3579 C1669.9163,371.7662 1668.6494,377.0338 1661.0354,378.781 C1666.7629,383.4981 1666.927,389.3697 1659.0841,392.0983 C1663.74,396.5724 1664.1211,400.9198 1657.2951,403.6095 C1653.7603,409.3955 1650.0191,409.9884 1644.9303,405.4752 C1641.4606,411.9394 1636.9154,413.2941 1631.978,406.9606 C1628.2205,412.9702 1622.6183,412.9753 1618.8582,406.9635 C1615.7094,414.8926 1611.4235,415.2395 1605.6269,409.5327 C1601.5819,414.5153 1597.022,413.8615 1593.5857,408.8028 C1590.9127,416.4929 1585.6264,416.2638 1580.6573,411.115 C1576.6769,415.9966 1571.295,414.867 1568.7585,409.4473 C1564.8043,415.7808 1559.9089,414.0653 1556.7701,408.6176 C1551.9905,414.947 1547.0234,415.9967 1542.2843,408.575 C1538.192,414.1684 1532.6252,413.4536 1529.4984,407.5054 C1525.0046,413.2531 1520.0529,412.0402 1516.8016,406.1499 C1511.6664,412.2766 1507.245,411.1459 1504.2926,404.0802 C1497.2145,401.5658 1496.8605,396.4223 1502.5462,392.0544 C1495.2514,388.9438 1495.289,384.1833 1500.5793,379.1539 C1494.662,376.2168 1493.5318,369.8344 1499.103,365.6421 C1492.7659,360.5658 1493.3499,355.9889 1500.7935,352.7148 C1495.7843,347.5508 1495.8735,340.9396 1504.1159,338.9813 C1499.1957,334.6189 1499.0866,329.929 1505.2978,326.632 " fill="#FFFFFF" style="stroke:#333333;stroke-width:0.5;"/><text fill="#000000" font-family="Arial" font-size="14" lengthAdjust="spacing" textLength="112" x="1511" y="345.2305">Payment Provider</text><text fill="#000000" font-family="Arial" font-size="14" lengthAdjust="spacing" textLength="46" x="1511" y="361.3291">System</text><text fill="#000000" font-family="Arial" font-size="14" lengthAdjust="spacing" textLength="101" x="1511" y="377.4277">boundary basis:</text><text fill="#000000" font-family="Arial" font-size="14" lengthAdjust="spacing" textLength="138" x="1511" y="393.5264">separate organisation</text></g><!--entity DeliveryPartner--><g id="elem_DeliveryPartner"><path d="M1505.2978,455.632 C1507.8187,448.4799 1513.0662,448.5277 1517.6971,453.4685 C1522.1481,446.9059 1527.9367,448.3667 1531.4783,454.4588 C1533.2153,448.6611 1538.3576,448.0935 1542.007,452.482 C1545.6215,446.0495 1551.4843,446.6563 1554.9392,452.6481 C1559.0281,446.0106 1563.5632,446.0971 1568.8011,451.3033 C1572.7494,445.298 1577.4633,446.2662 1581.0444,451.6963 C1585.2541,445.7261 1590.8866,446.018 1594.1258,452.6999 C1597.4373,446.5398 1603.1662,446.0796 1606.7695,452.4043 C1610.8693,448.1006 1615.4274,447.12 1618.3955,453.6219 C1622.2784,446.6359 1627.5266,447.8599 1631.5419,453.4839 C1636.3,448.1736 1640.2329,448.018 1644.0901,454.4468 C1647.4097,448.5348 1653.0925,448.4552 1656.5477,454.303 C1663.9089,455.9008 1664.8475,462.7728 1660.2277,467.6691 C1666.5237,471.3183 1668.0232,477.1599 1661.0905,481.6269 C1668.9481,484.4588 1670.1686,489.1413 1664.5355,495.3579 C1669.9163,500.7662 1668.6494,506.0338 1661.0354,507.781 C1666.7629,512.4981 1666.927,518.3697 1659.0841,521.0983 C1663.74,525.5724 1664.1211,529.9198 1657.2951,532.6095 C1653.7603,538.3955 1650.0191,538.9884 1644.9303,534.4752 C1641.4606,540.9394 1636.9154,542.2941 1631.978,535.9606 C1628.2205,541.9702 1622.6183,541.9753 1618.8582,535.9635 C1615.7094,543.8926 1611.4235,544.2395 1605.6269,538.5327 C1601.5819,543.5153 1597.022,542.8615 1593.5857,537.8028 C1590.9127,545.4929 1585.6264,545.2638 1580.6573,540.115 C1576.6769,544.9966 1571.295,543.867 1568.7585,538.4473 C1564.8043,544.7808 1559.9089,543.0653 1556.7701,537.6176 C1551.9905,543.947 1547.0234,544.9967 1542.2843,537.575 C1538.192,543.1684 1532.6252,542.4536 1529.4984,536.5054 C1525.0046,542.2531 1520.0529,541.0402 1516.8016,535.1499 C1511.6664,541.2766 1507.245,540.1459 1504.2926,533.0802 C1497.2145,530.5658 1496.8605,525.4223 1502.5462,521.0544 C1495.2514,517.9438 1495.289,513.1833 1500.5793,508.1539 C1494.662,505.2168 1493.5318,498.8344 1499.103,494.6421 C1492.7659,489.5658 1493.3499,484.9889 1500.7935,481.7148 C1495.7843,476.5508 1495.8735,469.9396 1504.1159,467.9813 C1499.1957,463.6189 1499.0866,458.929 1505.2978,455.632 " fill="#FFFFFF" style="stroke:#333333;stroke-width:0.5;"/><text fill="#000000" font-family="Arial" font-size="14" lengthAdjust="spacing" textLength="102" x="1511" y="474.2305">Delivery Partner</text><text fill="#000000" font-family="Arial" font-size="14" lengthAdjust="spacing" textLength="46" x="1511" y="490.3291">System</text><text fill="#000000" font-family="Arial" font-size="14" lengthAdjust="spacing" textLength="101" x="1511" y="506.4277">boundary basis:</text><text fill="#000000" font-family="Arial" font-size="14" lengthAdjust="spacing" textLength="138" x="1511" y="522.5264">separate organisation</text></g><!--entity SupportAgent--><g id="elem_SupportAgent"><ellipse cx="376.5" cy="360.5986" fill="#FFFFFF" rx="8" ry="8" style="stroke:#333333;stroke-width:0.5;"/><path d="M376.5,368.5986 L376.5,395.5986 M363.5,376.5986 L389.5,376.5986 M376.5,395.5986 L363.5,410.5986 M376.5,395.5986 L389.5,410.5986 " fill="none" style="stroke:#333333;stroke-width:0.5;"/><text fill="#000000" font-family="Arial" font-size="14" lengthAdjust="spacing" textLength="115" x="319" y="425.2305">Customer Support</text><text fill="#000000" font-family="Arial" font-size="14" lengthAdjust="spacing" textLength="37" x="319" y="441.3291">Agent</text></g><!--link Customer to PublicNetwork--><g id="link_Customer_PublicNetwork"><path d="M67.2,158.0986 C108.52,158.0986 179.81,158.0986 246.67,158.0986 " fill="none" id="Customer-to-PublicNetwork" style="stroke:#333333;stroke-width:1.2;"/><polygon fill="#333333" points="252.67,158.0986,243.67,154.0986,247.67,158.0986,243.67,162.0986,252.67,158.0986" style="stroke:#333333;stroke-width:1.2;"/><text fill="#000000" font-family="Arial" font-size="14" lengthAdjust="spacing" textLength="88" x="116" y="138.2305">login, account</text><text fill="#000000" font-family="Arial" font-size="14" lengthAdjust="spacing" textLength="124" x="98" y="154.3291">and checkout traffic</text></g><!--link PublicNetwork to EdgeEndpoint--><g id="link_PublicNetwork_EdgeEndpoint"><path d="M500.25,158.0986 C578.17,158.0986 670.31,158.0986 735.89,158.0986 " fill="none" id="PublicNetwork-to-EdgeEndpoint" style="stroke:#333333;stroke-width:1.2;"/><polygon fill="#333333" points="741.89,158.0986,732.89,154.0986,736.89,158.0986,732.89,162.0986,741.89,158.0986" style="stroke:#333333;stroke-width:1.2;"/><text fill="#000000" font-family="Arial" font-size="14" lengthAdjust="spacing" textLength="156" x="531" y="138.2305">authenticated interaction</text><text fill="#000000" font-family="Arial" font-size="14" lengthAdjust="spacing" textLength="128" x="545" y="154.3291">starts at public entry</text></g><!--link EdgeEndpoint to StoreRuntime--><g id="link_EdgeEndpoint_StoreRuntime"><path d="M870.25,189.1586 C939.26,228.6786 1052.5333,293.5369 1121.5433,333.0569 " fill="none" id="EdgeEndpoint-to-StoreRuntime" style="stroke:#333333;stroke-width:1.2;"/><polygon fill="#333333" points="1126.75,336.0386,1120.9278,328.095,1122.4111,333.5539,1116.9522,335.0372,1126.75,336.0386" style="stroke:#333333;stroke-width:1.2;"/></g><!--link StoreRuntime to StoreRuntime--><g id="link_StoreRuntime_StoreRuntime"><path d="M1151.52,335.8586 C1145.3,317.8586 1155.46,301.0986 1182,301.0986 C1208.54,301.0986 1220.6596,312.1877 1214.4396,330.1877 " fill="none" id="StoreRuntime-to-StoreRuntime" style="stroke:#333333;stroke-width:1.2;"/><polygon fill="#333333" points="1212.48,335.8586,1219.2001,328.6586,1214.113,331.1328,1211.6388,326.0458,1212.48,335.8586" style="stroke:#333333;stroke-width:1.2;"/><text fill="#000000" font-family="Arial" font-size="14" lengthAdjust="spacing" textLength="132" x="1116" y="276.2305">application validation</text><text fill="#000000" font-family="Arial" font-size="14" lengthAdjust="spacing" textLength="120" x="1122" y="292.3291">and access checks</text></g><!--link StoreRuntime to DataStore--><g id="link_StoreRuntime_DataStore"><path d="M1205.54,398.2386 C1225.58,424.6086 1256.65,462.4286 1289,490.0986 C1361.39,552.0086 1451.9179,604.3301 1513.1979,636.7901 " fill="none" id="StoreRuntime-to-DataStore" style="stroke:#333333;stroke-width:1.2;"/><polygon fill="#333333" points="1518.5,639.5986,1512.4192,631.8511,1514.0816,637.2582,1508.6745,638.9206,1518.5,639.5986" style="stroke:#333333;stroke-width:1.2;"/><text fill="#000000" font-family="Arial" font-size="14" lengthAdjust="spacing" textLength="90" x="1321" y="470.2305">read and write</text><text fill="#000000" font-family="Arial" font-size="14" lengthAdjust="spacing" textLength="152" x="1290" y="486.3291">order and payment data</text></g><!--link StoreRuntime to IdentityService--><g id="link_StoreRuntime_IdentityService"><path d="M1257.16,341.6786 C1267.8,338.3086 1278.65,335.0086 1289,332.0986 C1356.66,313.0586 1377.32,321.1186 1443,296.0986 C1463.6,288.2486 1479.6693,280.6873 1499.1893,270.1573 " fill="none" id="StoreRuntime-to-IdentityService" style="stroke:#333333;stroke-width:1.2;"/><polygon fill="#333333" points="1504.47,267.3086,1494.6499,268.0611,1500.0695,269.6825,1498.4481,275.102,1504.47,267.3086" style="stroke:#333333;stroke-width:1.2;"/><text fill="#000000" font-family="Arial" font-size="14" lengthAdjust="spacing" textLength="104" x="1314" y="276.2305">delegate identity</text><text fill="#000000" font-family="Arial" font-size="14" lengthAdjust="spacing" textLength="87" x="1322.5" y="292.3291">establishment</text></g><!--link IdentityService to StoreRuntime--><g id="link_IdentityService_StoreRuntime"><path d="M1504.22,218.0686 C1443.24,217.8186 1356.46,224.5586 1289,258.0986 C1253.31,275.8486 1226.4216,305.7649 1207.4416,331.2749 " fill="none" id="IdentityService-to-StoreRuntime" style="stroke:#333333;stroke-width:1.2;"/><polygon fill="#333333" points="1203.86,336.0886,1212.4415,331.2557,1206.8446,332.0772,1206.0231,326.4803,1203.86,336.0886" style="stroke:#333333;stroke-width:1.2;"/><text fill="#000000" font-family="Arial" font-size="14" lengthAdjust="spacing" textLength="128" x="1302" y="217.2305">authentication result</text></g><!--link StoreRuntime to PaymentProvider--><g id="link_StoreRuntime_PaymentProvider"><path d="M1257.13,369.4686 C1267.82,369.7286 1278.69,369.9486 1289,370.0986 C1357.44,371.0686 1374.57,371.6086 1443,370.0986 C1460.13,369.7186 1472.4752,369.329 1489.9552,368.599 " fill="none" id="StoreRuntime-to-PaymentProvider" style="stroke:#333333;stroke-width:1.2;"/><polygon fill="#333333" points="1495.95,368.3486,1486.7909,364.7276,1490.9544,368.5573,1487.1247,372.7207,1495.95,368.3486" style="stroke:#333333;stroke-width:1.2;"/><text fill="#000000" font-family="Arial" font-size="14" lengthAdjust="spacing" textLength="111" x="1310.5" y="350.2305">payment-provider</text><text fill="#000000" font-family="Arial" font-size="14" lengthAdjust="spacing" textLength="122" x="1305" y="366.3291">transaction request</text></g><!--link StoreRuntime to DeliveryPartner--><g id="link_StoreRuntime_DeliveryPartner"><path d="M1257.02,390.6486 C1324.85,412.2286 1419.4424,442.3294 1490.0324,464.7894 " fill="none" id="StoreRuntime-to-DeliveryPartner" style="stroke:#333333;stroke-width:1.2;"/><polygon fill="#333333" points="1495.75,466.6086,1488.3864,460.0681,1490.9854,465.0926,1485.9609,467.6916,1495.75,466.6086" style="stroke:#333333;stroke-width:1.2;"/><text fill="#000000" font-family="Arial" font-size="14" lengthAdjust="spacing" textLength="108" x="1312" y="396.2305">fulfilment request</text></g><!--link SupportAgent to SupportInterface--><g id="link_SupportAgent_SupportInterface"><path d="M434.12,398.0986 C510.93,398.0986 642.52,398.0986 729.34,398.0986 " fill="none" id="SupportAgent-to-SupportInterface" style="stroke:#333333;stroke-width:1.2;"/><polygon fill="#333333" points="735.34,398.0986,726.34,394.0986,730.34,398.0986,726.34,402.0986,735.34,398.0986" style="stroke:#333333;stroke-width:1.2;"/><text fill="#000000" font-family="Arial" font-size="14" lengthAdjust="spacing" textLength="67" x="575.5" y="378.2305">authorised</text><text fill="#000000" font-family="Arial" font-size="14" lengthAdjust="spacing" textLength="90" x="564" y="394.3291">support action</text></g><!--link SupportInterface to StoreRuntime--><g id="link_SupportInterface_StoreRuntime"><path d="M894.75,391.4086 C957.62,386.0686 1039.1115,379.1457 1100.7715,373.9157 " fill="none" id="SupportInterface-to-StoreRuntime" style="stroke:#333333;stroke-width:1.2;"/><polygon fill="#333333" points="1106.75,373.4086,1097.4441,370.1836,1101.7679,373.8312,1098.1203,378.155,1106.75,373.4086" style="stroke:#333333;stroke-width:1.2;"/><text fill="#000000" font-family="Arial" font-size="14" lengthAdjust="spacing" textLength="47" x="985" y="357.2305">audited</text><text fill="#000000" font-family="Arial" font-size="14" lengthAdjust="spacing" textLength="135" x="941" y="373.3291">administrative access</text></g><rect fill="none" height="58.2959" id="_legend" rx="7.5" ry="7.5" style="stroke:#000000;stroke-width:1.0;" width="686" x="498.5" y="734.0986"/><text fill="#000000" font-family="Arial" font-size="14" lengthAdjust="spacing" textLength="345" x="503.5" y="752.2305">Each container label states the basis for the boundary.</text><text fill="#000000" font-family="Arial" font-size="14" lengthAdjust="spacing" textLength="254" x="503.5" y="768.3291">No area is labelled as inherently trusted.</text><text fill="#000000" font-family="Arial" font-size="14" lengthAdjust="spacing" textLength="676" x="503.5" y="784.4277">Support access reaches production functions through a controlled interface, not by direct database access.</text><!--SRC=[dLPDZzis4BtpLqpSQ-njKWH1SoYmNoxsaXZPehtuGfDZcLYQL4dA6wFeVyyCIScIxHvImmU9vBpvUc-eDyOfssc4nUA6_Z4TBSQRragNkhsTfntkST7Ien0MjmcIXs2QNG9j0gfal1F998kmVFfz_kxz_ETt2_ZYh748pya7X3z25nFS-Svf6Oxmfy5N8UABSQqCSWyC8br30Fy8e6D1OxZtrWVuwPVyurMfNfh027Ld-N7vw_9E_3l2KTPt-eSmyc-2eMMI6nb_B9Jtom_BZmGZfA9yONPFwVezXhLxm8DHE0CPeLyK9SpPgjjOe-0pfbSVNjPkqvU7t9luQUrSsG5qMnyKzS0ba4wltQIsKk-DCp45cSm1GNcNWhVPO_5G7GXnAlDiWl2e6xpYlYtnaLTQR3qz7ulxAt5bTuoJowRyllMEmvtbjKUdMszSMhkjiGb3P1oW2YQCWsL_YCluNv7UjYs58PbnyBLpoUnBQMczlcR_8_EBhF0RgYu3e3kOuDsfh7A4NlBDu1NvZW6coOrZMxk_S7DpktgQ19QtwiBKzhxqoQA6vwvjVQ3gF3agpbPMljJbOV6iC5-HUcvK8e07ukmyqqiVuJQWlD9DvZMeUgQagnJ6ECwKSTWy5t4GmkmBYo2tR2MFN2wYDQFbv0R3_COnLde_QJffqX6UCR06kFIKYPCMOidCk6Rj8hKZyB7O7xi8tVH8iaixpuUpqzv1nHzaLMA4LV07iYGDFXzZmlqLu8Yi-OJWGoD9GxdrHJa5fCVeiH_GaiO8OIL3SlyJkmUf6ESpuqI7swPNLbtA2q8C9-VptwOQXqzWVMFSMw3cKaG4mcrJErGlf3QW8R7T6YMcHWmpLY2XSAMvkgG6ufTX2ieyw2cnH76JWXEC1uIO033YXFhZbujTzZUIta5QesLnnj5NdkOauYNIm3s28UxgJDHNOWbHoG_CRIihcDMN66TK8YID5XjkNqy-eYzbJWd77GE9SvDhIPsAo7a5Z9rDbyxFk4Q6DTXvEr2O6kTYwG3X_DrHB5SgCIKM0MqxInCt9pvOZQXKWZuRCpLmqbb4cX9Lgr2SYulJL_FML7sUCDEhgJIIlo78kOQDJqHZyIZLBjzQqd3GLcwG9aIYsaUW-XL10TqqvQtgR24-Uv0ygsWps_0a9QaOjyD0kTaZiPs4WdhH1zqpYQo8J3JvWjTTgUcsS_c1NTAzrEn0zZUfxGN0wRu5vnDiZlNBvpGa2_H2K68blUy0]--></g></svg>