<?xml version="1.0" encoding="us-ascii" standalone="no"?><svg xmlns="http://www.w3.org/2000/svg" xmlns:xlink="http://www.w3.org/1999/xlink" contentStyleType="text/css" height="604.244px" preserveAspectRatio="none" style="width:759px;height:604px;background:#FFFFFF;" version="1.1" viewBox="0 0 759 604" width="759.8694px" zoomAndPan="magnify"><defs/><g><text fill="#000000" font-family="Arial" font-size="12.1718" font-weight="bold" lengthAdjust="spacing" textLength="243.4364" x="252.1306" y="20.1112">Online Store architecture review thread</text><!--entity S--><g id="elem_S"><rect fill="#FFF2CC" height="59.3775" rx="2.1735" ry="2.1735" style="stroke:#333333;stroke-width:0.43470790378006874;" width="170.4055" x="119.9794" y="38.34"/><text fill="#000000" font-family="Arial" font-size="12.1718" lengthAdjust="spacing" textLength="100.8522" x="128.6735" y="58.4512">Trigger and scope</text><text fill="#000000" font-family="Arial" font-size="12.1718" lengthAdjust="spacing" textLength="153.0172" x="128.6735" y="72.4476">Decision, boundary, version</text><text fill="#000000" font-family="Arial" font-size="12.1718" lengthAdjust="spacing" textLength="99.9828" x="128.6735" y="86.444">and review criteria</text></g><!--entity P--><g id="elem_P"><rect fill="#DDEBF7" height="59.3775" rx="2.1735" ry="2.1735" style="stroke:#333333;stroke-width:0.43470790378006874;" width="168.6667" x="357.3299" y="38.34"/><text fill="#000000" font-family="Arial" font-size="12.1718" lengthAdjust="spacing" textLength="89.5498" x="366.0241" y="58.4512">Review package</text><text fill="#000000" font-family="Arial" font-size="12.1718" lengthAdjust="spacing" textLength="151.2784" x="366.0241" y="72.4476">Focused views, ADRs, risks</text><text fill="#000000" font-family="Arial" font-size="12.1718" lengthAdjust="spacing" textLength="97.3746" x="366.0241" y="86.444">and test evidence</text></g><!--entity Q--><g id="elem_Q"><rect fill="#DDEBF7" height="59.3775" rx="2.1735" ry="2.1735" style="stroke:#333333;stroke-width:0.43470790378006874;" width="220.8316" x="6.0859" y="133.9758"/><text fill="#000000" font-family="Arial" font-size="12.1718" lengthAdjust="spacing" textLength="122.5876" x="14.7801" y="154.087">Stakeholder questions</text><text fill="#000000" font-family="Arial" font-size="12.1718" lengthAdjust="spacing" textLength="203.4433" x="14.7801" y="168.0834">Functional, data, integration, security</text><text fill="#000000" font-family="Arial" font-size="12.1718" lengthAdjust="spacing" textLength="192.1409" x="14.7801" y="182.0798">performance, resilience, operability</text></g><!--entity E--><g id="elem_E"><rect fill="#E2F0D9" height="59.3775" rx="2.1735" ry="2.1735" style="stroke:#333333;stroke-width:0.43470790378006874;" width="173.0137" x="347.3316" y="133.9758"/><text fill="#000000" font-family="Arial" font-size="12.1718" lengthAdjust="spacing" textLength="119.11" x="356.0258" y="154.087">Evidence assessment</text><text fill="#000000" font-family="Arial" font-size="12.1718" lengthAdjust="spacing" textLength="155.6254" x="356.0258" y="168.0834">Claims, results, assumptions</text><text fill="#000000" font-family="Arial" font-size="12.1718" lengthAdjust="spacing" textLength="51.2955" x="356.0258" y="182.0798">and gaps</text></g><!--entity F--><g id="elem_F"><rect fill="#FCE4D6" height="59.3775" rx="2.1735" ry="2.1735" style="stroke:#333333;stroke-width:0.43470790378006874;" width="199.9656" x="253.8694" y="229.6115"/><text fill="#000000" font-family="Arial" font-size="12.1718" lengthAdjust="spacing" textLength="100.8522" x="262.5636" y="249.7227">Governed findings</text><text fill="#000000" font-family="Arial" font-size="12.1718" lengthAdjust="spacing" textLength="182.5773" x="262.5636" y="263.7191">Risk | decision | action | exception</text><text fill="#000000" font-family="Arial" font-size="12.1718" lengthAdjust="spacing" textLength="165.189" x="262.5636" y="277.7155">Owner and due or review date</text></g><!--entity O--><g id="elem_O"><rect fill="#E4DFEC" height="31.3847" rx="2.1735" ry="2.1735" style="stroke:#333333;stroke-width:0.43470790378006874;" width="106.9381" x="189.0979" y="325.2473"/><text fill="#000000" font-family="Arial" font-size="12.1718" lengthAdjust="spacing" textLength="89.5498" x="197.7921" y="345.3584">Review outcome</text></g><!--entity A--><g id="elem_A"><rect fill="#E2F0D9" height="31.3847" rx="2.1735" ry="2.1735" style="stroke:#333333;stroke-width:0.43470790378006874;" width="63.4674" x="415.146" y="325.2473"/><text fill="#000000" font-family="Arial" font-size="12.1718" lengthAdjust="spacing" textLength="46.079" x="423.8402" y="345.3584">Proceed</text></g><!--entity C--><g id="elem_C"><rect fill="#FFF2CC" height="31.3847" rx="2.1735" ry="2.1735" style="stroke:#333333;stroke-width:0.43470790378006874;" width="146.9313" x="65.6409" y="408.7112"/><text fill="#000000" font-family="Arial" font-size="12.1718" lengthAdjust="spacing" textLength="129.543" x="74.3351" y="428.8224">Proceed with conditions</text></g><!--entity R--><g id="elem_R"><rect fill="#F4CCCC" height="31.3847" rx="2.1735" ry="2.1735" style="stroke:#333333;stroke-width:0.43470790378006874;" width="115.6323" x="220.3969" y="366.9792"/><text fill="#000000" font-family="Arial" font-size="12.1718" lengthAdjust="spacing" textLength="98.244" x="229.0911" y="387.0904">Revise and return</text></g><!--entity U--><g id="elem_U"><rect fill="#D9EAD3" height="59.3775" rx="2.1735" ry="2.1735" style="stroke:#333333;stroke-width:0.43470790378006874;" width="148.6701" x="273.4313" y="476.5256"/><text fill="#000000" font-family="Arial" font-size="12.1718" lengthAdjust="spacing" textLength="90.4192" x="282.1254" y="496.6368">Owned follow-up</text><text fill="#000000" font-family="Arial" font-size="12.1718" lengthAdjust="spacing" textLength="131.2818" x="282.1254" y="510.6332">Check closure evidence</text><text fill="#000000" font-family="Arial" font-size="12.1718" lengthAdjust="spacing" textLength="107.8076" x="282.1254" y="524.6296">and update records</text></g><!--link S to P--><g id="link_S_P"><path d="M290.5588,67.9002 C312.2507,67.9002 330.3345,67.9002 351.9917,67.9002 " fill="none" id="S-to-P" style="stroke:#333333;stroke-width:1.043298969072165;"/><polygon fill="#333333" points="357.2082,67.9002,349.3834,64.4225,352.8611,67.9002,349.3834,71.3778,357.2082,67.9002" style="stroke:#333333;stroke-width:1.043298969072165;"/><text fill="#000000" font-family="Arial" font-size="12.1718" lengthAdjust="spacing" textLength="49.5567" x="299.079" y="61.9289">prepares</text></g><!--link P to Q--><g id="link_P_Q"><path d="M357.0778,93.1915 C313.8939,105.6676 266.0972,119.4697 220.9745,132.5022 " fill="none" id="P-to-Q" style="stroke:#333333;stroke-width:1.043298969072165;"/><polygon fill="#333333" points="215.9629,133.9497,224.4453,135.1196,220.1393,132.7435,222.5154,128.4374,215.9629,133.9497" style="stroke:#333333;stroke-width:1.043298969072165;"/><text fill="#000000" font-family="Arial" font-size="12.1718" lengthAdjust="spacing" textLength="93.8969" x="299.9485" y="120.1798">frames questions</text></g><!--link Q to E--><g id="link_Q_E"><path d="M227.0479,163.5359 C266.3977,163.5359 304.8954,163.5359 341.9586,163.5359 " fill="none" id="Q-to-E" style="stroke:#333333;stroke-width:1.043298969072165;"/><polygon fill="#333333" points="347.1751,163.5359,339.3504,160.0583,342.828,163.5359,339.3504,167.0136,347.1751,163.5359" style="stroke:#333333;stroke-width:1.043298969072165;"/><text fill="#000000" font-family="Arial" font-size="12.1718" lengthAdjust="spacing" textLength="103.4605" x="235.3943" y="157.5646">tests with evidence</text></g><!--link E to F--><g id="link_E_F"><path d="M409.1905,193.3395 C399.4531,204.7636 391.6809,213.8944 381.9434,225.3272 " fill="none" id="E-to-F" style="stroke:#333333;stroke-width:1.043298969072165;"/><polygon fill="#333333" points="378.561,229.2985,386.2822,225.5965,381.3797,225.9891,380.9871,221.0867,378.561,229.2985" style="stroke:#333333;stroke-width:1.043298969072165;"/><text fill="#000000" font-family="Arial" font-size="12.1718" lengthAdjust="spacing" textLength="134.7595" x="399.0619" y="215.8155">records material findings</text></g><!--link F to O--><g id="link_F_O"><path d="M313.6765,288.9144 C296.6186,301.1818 281.6838,311.9088 267.5558,322.0636 " fill="none" id="F-to-O" style="stroke:#333333;stroke-width:1.043298969072165;"/><polygon fill="#333333" points="263.32,325.1082,271.7034,323.3652,266.8498,322.571,267.644,317.7174,263.32,325.1082" style="stroke:#333333;stroke-width:1.043298969072165;"/><text fill="#000000" font-family="Arial" font-size="12.1718" lengthAdjust="spacing" textLength="88.6804" x="299.079" y="311.4512">informs decision</text></g><!--reverse link A to O--><g id="link_A_O"><path d="M409.6687,340.8967 C377.9351,340.8967 333.96,340.8967 296.2447,340.8967 " fill="none" id="A-backto-O" style="stroke:#333333;stroke-width:1.043298969072165;"/><polygon fill="#333333" points="414.8852,340.8967,407.0605,337.4191,410.5381,340.8967,407.0605,344.3744,414.8852,340.8967" style="stroke:#333333;stroke-width:1.043298969072165;"/><text fill="#000000" font-family="Arial" font-size="12.1718" lengthAdjust="spacing" textLength="101.7216" x="304.7302" y="334.9255">sufficient evidence</text></g><!--link O to C--><g id="link_O_C"><path d="M188.8458,344.47 C154.2083,347.4695 113.6413,353.7641 102.5911,366.9792 C93.6709,377.6556 96.1313,385.9586 102.5911,398.2782 C104.669,402.234 103.747,402.2642 107.1638,405.2463 " fill="none" id="O-to-C" style="stroke:#333333;stroke-width:1.043298969072165;"/><polygon fill="#333333" points="111.094,408.6764,107.4855,400.9111,107.8188,405.818,102.912,406.1513,111.094,408.6764" style="stroke:#333333;stroke-width:1.043298969072165;"/><text fill="#000000" font-family="Arial" font-size="12.1718" lengthAdjust="spacing" textLength="107.8076" x="103.4605" y="387.0904">bounded conditions</text></g><!--link O to R--><g id="link_O_R"><path d="M255.843,356.6593 C258.7729,359.9456 258.4053,359.5383 261.3353,362.8247 " fill="none" id="O-to-R" style="stroke:#333333;stroke-width:1.043298969072165;"/><polygon fill="#333333" points="264.8067,366.7184,262.1954,358.5635,261.9138,363.4736,257.0037,363.1921,264.8067,366.7184" style="stroke:#333333;stroke-width:1.043298969072165;"/></g><!--link A to U--><g id="link_A_U"><path d="M444.4975,356.7201 C440.7764,376.8558 432.2301,413.2582 415.5808,440.0102 C407.2952,453.3209 399.5205,462.2836 388.2442,472.6992 " fill="none" id="A-to-U" style="stroke:#333333;stroke-width:1.043298969072165;"/><polygon fill="#333333" points="384.4122,476.2387,392.5198,473.4841,387.6055,473.2891,387.8005,468.3749,384.4122,476.2387" style="stroke:#333333;stroke-width:1.043298969072165;"/><text fill="#000000" font-family="Arial" font-size="12.1718" lengthAdjust="spacing" textLength="115.6323" x="431.2302" y="428.8224">monitor commitments</text></g><!--link C to U--><g id="link_C_U"><path d="M142.8363,440.2014 C145.8097,449.0347 150.8697,459.7024 159.1031,466.0926 C176.9696,479.9598 223.4589,489.3499 268.2077,495.8271 " fill="none" id="C-to-U" style="stroke:#333333;stroke-width:1.043298969072165;"/><polygon fill="#333333" points="273.3704,496.5743,266.1246,492.0116,269.0682,495.9516,265.1282,498.8952,273.3704,496.5743" style="stroke:#333333;stroke-width:1.043298969072165;"/><text fill="#000000" font-family="Arial" font-size="12.1718" lengthAdjust="spacing" textLength="87.811" x="159.9725" y="462.7296">close conditions</text></g><!--link R to U--><g id="link_R_U"><path d="M272.9183,398.3391 C269.6145,410.1457 266.9976,426.8298 272.9966,440.0102 C279.4129,454.1208 286.5766,463.0013 298.3311,472.9474 " fill="none" id="R-to-U" style="stroke:#333333;stroke-width:1.043298969072165;"/><polygon fill="#333333" points="302.3133,476.317,298.5863,468.6078,298.9948,473.509,294.0936,473.9174,302.3133,476.317" style="stroke:#333333;stroke-width:1.043298969072165;"/><text fill="#000000" font-family="Arial" font-size="12.1718" lengthAdjust="spacing" textLength="140.8454" x="273.866" y="428.8224">revise design or evidence</text></g><!--reverse link P to U--><g id="link_P_U"><path d="M530.8338,99.0452 C557.9161,113.6166 576.4227,132.4369 576.4227,162.6665 C576.4227,162.6665 576.4227,162.6665 576.4227,425.2301 C576.4227,458.5026 489.0464,481.2118 422.3187,493.6879 " fill="none" id="P-backto-U" style="stroke:#333333;stroke-width:1.043298969072165;stroke-dasharray:7.0,7.0;"/><polygon fill="#333333" points="526.24,96.5735,531.4829,103.3435,530.0681,98.6332,534.7784,97.2185,526.24,96.5735" style="stroke:#333333;stroke-width:1.043298969072165;"/><text fill="#000000" font-family="Arial" font-size="12.1718" lengthAdjust="spacing" textLength="175.622" x="577.2921" y="311.4512">focused feedback and re-review</text></g><rect fill="none" height="36.687" id="_legend" rx="6.5206" ry="6.5206" style="stroke:#000000;stroke-width:0.8694158075601375;" width="225.1787" x="261.2595" y="550.6832"/><text fill="#000000" font-family="Arial" font-size="12.1718" lengthAdjust="spacing" textLength="216.4845" x="265.6065" y="566.4473">Solid arrows show review and follow-up.</text><text fill="#000000" font-family="Arial" font-size="12.1718" lengthAdjust="spacing" textLength="204.3127" x="265.6065" y="580.4437">Dotted arrow shows iterative revision.</text><!--SRC=[TLJ1RkCs4BthAwQRg-tjfkvkqqC1LvPwT68tDryOSYGHfaYLfEAcwCVtaP8TBv02Xa6HZszcthpX3zfACogcrUepVY6-6GwV1oDi77kpZ1ttl1gmBAAEXcbdZRPCX-Wya_2oqv5b7F7X-LNpcMBdMQWYke6YenSNe-j9QG-KThO8Ke3bsyyFTDOgTaKuQJi8BtgoJd7WWRxyShFfXJsbpVlrpQRYHemcrix6W_w7wSkwIFJ2jg3-zAVNRSkUX5KKf1luQBSiTK3q1V8PhHB-RK6lxDFMqIRSdBlqgCPhyOb4e0FTrNLzNvQtvFi9E0Xv4YsOQoV7m8hIRbZGPhl7lzVX52RYo24IxYYsaZFj8zrjjzNlzRTRsaCK9-wSKSZxhn5ta1aOwj5crOHPa19HB4ZRoAqNCHSJM8x8-Ere1_QDyxr048Jde8tcl4RvNhpWCxxbw4yVHQ_c_00874BFDXvjQOJkGsQ3rbZWSEo7ERDKMok6a4ahkglkwn-t3xUaVpWeR25DewtIjiMbFNIXVz6-gHjOYbmU5lotvCnzjBkpdRkdHYRdBys109E2DHfJLkljrmyQuyOeNJ_XTaXhlQshxnhuw9raLXcm-IZl6G1xnewaG-wvv7oX_3zB1AR9HfW4cw5xGDTb-JqqbGP1d37kl1m7YDonF94qBgG9klXaadSSKiNWbCwhAVupklTGRRO_5GTQmkPTNFu6G_rAWsUC1eVYaPRAdIssdx3TO5eul3kgU7g_Lk4ykJDCbLvY5zMLeGPYZawzo8DXhjqiQbe2imD6s-IzSErhiQEbuIO5sU0uZ4sZ9VpuFWW9CGSfWSX32M7UrKw0IwBxX31EOlpRvBbi2JYfsEGCdd7SEwln886WxtLC_Wr5UJrDyl8j-VvwvAVUuU7HhKt4rmoVQPLgM4twDlEODt362sP_xlPoicPXk6LiJ8zTSN16AxoDtfq3XSwTBmvEbwxDNnLRm7a6PboWzFnWk5-drpI9kIh0FF7_1m00]--></g></svg>