<?xml version="1.0" encoding="us-ascii" standalone="no"?><svg xmlns="http://www.w3.org/2000/svg" xmlns:xlink="http://www.w3.org/1999/xlink" contentStyleType="text/css" height="751px" preserveAspectRatio="none" style="width:1015px;height:751px;background:#FFFFFF;" version="1.1" viewBox="0 0 1015 751" width="1015px" zoomAndPan="magnify"><defs/><g><text fill="#000000" font-family="Arial" font-size="14" font-weight="bold" lengthAdjust="spacing" textLength="282" x="359.75" y="23.1318">FIG-07-05. Horizon Bank motivation view</text><!--entity sponsor--><g id="elem_sponsor"><rect fill="#FFF4D6" height="68.2959" rx="4" ry="4" style="stroke:#333333;stroke-width:0.5;" width="112" x="430" y="44.0986"/><text fill="#000000" font-family="Arial" font-size="14" lengthAdjust="spacing" textLength="91" x="440" y="67.2305">Retail Banking</text><text fill="#000000" font-family="Arial" font-size="14" lengthAdjust="spacing" textLength="53" x="440" y="83.3291">Sponsor</text><text fill="#000000" font-family="Arial" font-size="14" lengthAdjust="spacing" textLength="92" x="440" y="99.4277">&#171;Stakeholder&#187;</text></g><!--entity compliance--><g id="elem_compliance"><rect fill="#FFF4D6" height="68.2959" rx="4" ry="4" style="stroke:#333333;stroke-width:0.5;" width="112" x="206" y="44.0986"/><text fill="#000000" font-family="Arial" font-size="14" lengthAdjust="spacing" textLength="74" x="216" y="67.2305">Compliance</text><text fill="#000000" font-family="Arial" font-size="14" lengthAdjust="spacing" textLength="58" x="216" y="83.3291">Reviewer</text><text fill="#000000" font-family="Arial" font-size="14" lengthAdjust="spacing" textLength="92" x="216" y="99.4277">&#171;Stakeholder&#187;</text></g><!--entity driver_dup--><g id="elem_driver_dup"><rect fill="#F7E8D0" height="68.2959" rx="4" ry="4" style="stroke:#333333;stroke-width:0.5;" width="141" x="616.5" y="172.0986"/><text fill="#000000" font-family="Arial" font-size="14" lengthAdjust="spacing" textLength="121" x="626.5" y="195.2305">Duplicate customer</text><text fill="#000000" font-family="Arial" font-size="14" lengthAdjust="spacing" textLength="66" x="626.5" y="211.3291">databases</text><text fill="#000000" font-family="Arial" font-size="14" lengthAdjust="spacing" textLength="54" x="626.5" y="227.4277">&#171;Driver&#187;</text></g><!--entity driver_slow--><g id="elem_driver_slow"><rect fill="#F7E8D0" height="68.2959" rx="4" ry="4" style="stroke:#333333;stroke-width:0.5;" width="101" x="395.5" y="172.0986"/><text fill="#000000" font-family="Arial" font-size="14" lengthAdjust="spacing" textLength="81" x="405.5" y="195.2305">Slow product</text><text fill="#000000" font-family="Arial" font-size="14" lengthAdjust="spacing" textLength="57" x="405.5" y="211.3291">launches</text><text fill="#000000" font-family="Arial" font-size="14" lengthAdjust="spacing" textLength="54" x="405.5" y="227.4277">&#171;Driver&#187;</text></g><!--entity driver_visibility--><g id="elem_driver_visibility"><rect fill="#F7E8D0" height="68.2959" rx="4" ry="4" style="stroke:#333333;stroke-width:0.5;" width="119" x="202.5" y="172.0986"/><text fill="#000000" font-family="Arial" font-size="14" lengthAdjust="spacing" textLength="99" x="212.5" y="195.2305">Limited process</text><text fill="#000000" font-family="Arial" font-size="14" lengthAdjust="spacing" textLength="48" x="212.5" y="211.3291">visibility</text><text fill="#000000" font-family="Arial" font-size="14" lengthAdjust="spacing" textLength="54" x="212.5" y="227.4277">&#171;Driver&#187;</text></g><!--entity assess_data--><g id="elem_assess_data"><rect fill="#F7E8D0" height="68.2959" rx="4" ry="4" style="stroke:#333333;stroke-width:0.5;" width="113" x="673.5" y="308.0986"/><text fill="#000000" font-family="Arial" font-size="14" lengthAdjust="spacing" textLength="93" x="683.5" y="331.2305">Customer data</text><text fill="#000000" font-family="Arial" font-size="14" lengthAdjust="spacing" textLength="72" x="683.5" y="347.3291">fragmented</text><text fill="#000000" font-family="Arial" font-size="14" lengthAdjust="spacing" textLength="92" x="683.5" y="363.4277">&#171;Assessment&#187;</text></g><!--entity assess_onboarding--><g id="elem_assess_onboarding"><rect fill="#F7E8D0" height="68.2959" rx="4" ry="4" style="stroke:#333333;stroke-width:0.5;" width="164" x="180" y="308.0986"/><text fill="#000000" font-family="Arial" font-size="14" lengthAdjust="spacing" textLength="144" x="190" y="331.2305">Onboarding duplicated</text><text fill="#000000" font-family="Arial" font-size="14" lengthAdjust="spacing" textLength="101" x="190" y="347.3291">across products</text><text fill="#000000" font-family="Arial" font-size="14" lengthAdjust="spacing" textLength="92" x="190" y="363.4277">&#171;Assessment&#187;</text></g><!--entity goal_trusted--><g id="elem_goal_trusted"><rect fill="#EAF6E8" height="68.2959" rx="4" ry="4" style="stroke:#333333;stroke-width:0.5;" width="131" x="709.5" y="444.0986"/><text fill="#000000" font-family="Arial" font-size="14" lengthAdjust="spacing" textLength="111" x="719.5" y="467.2305">Trusted customer</text><text fill="#000000" font-family="Arial" font-size="14" lengthAdjust="spacing" textLength="27" x="719.5" y="483.3291">view</text><text fill="#000000" font-family="Arial" font-size="14" lengthAdjust="spacing" textLength="46" x="719.5" y="499.4277">&#171;Goal&#187;</text></g><!--entity goal_stp--><g id="elem_goal_stp"><rect fill="#EAF6E8" height="68.2959" rx="4" ry="4" style="stroke:#333333;stroke-width:0.5;" width="142" x="7" y="444.0986"/><text fill="#000000" font-family="Arial" font-size="14" lengthAdjust="spacing" textLength="114" x="17" y="467.2305">Improved straight-</text><text fill="#000000" font-family="Arial" font-size="14" lengthAdjust="spacing" textLength="122" x="17" y="483.3291">through processing</text><text fill="#000000" font-family="Arial" font-size="14" lengthAdjust="spacing" textLength="46" x="17" y="499.4277">&#171;Goal&#187;</text></g><!--entity goal_reuse--><g id="elem_goal_reuse"><rect fill="#EAF6E8" height="68.2959" rx="4" ry="4" style="stroke:#333333;stroke-width:0.5;" width="156" x="184" y="444.0986"/><text fill="#000000" font-family="Arial" font-size="14" lengthAdjust="spacing" textLength="136" x="194" y="467.2305">Reusable onboarding</text><text fill="#000000" font-family="Arial" font-size="14" lengthAdjust="spacing" textLength="59" x="194" y="483.3291">capability</text><text fill="#000000" font-family="Arial" font-size="14" lengthAdjust="spacing" textLength="46" x="194" y="499.4277">&#171;Goal&#187;</text></g><!--entity outcome_duplicate--><g id="elem_outcome_duplicate"><rect fill="#EAF6E8" height="68.2959" rx="4" ry="4" style="stroke:#333333;stroke-width:0.5;" width="138" x="706" y="572.0986"/><text fill="#000000" font-family="Arial" font-size="14" lengthAdjust="spacing" textLength="118" x="716" y="595.2305">Reduced duplicate</text><text fill="#000000" font-family="Arial" font-size="14" lengthAdjust="spacing" textLength="110" x="716" y="611.3291">customer capture</text><text fill="#000000" font-family="Arial" font-size="14" lengthAdjust="spacing" textLength="73" x="716" y="627.4277">&#171;Outcome&#187;</text></g><!--entity outcome_faster--><g id="elem_outcome_faster"><rect fill="#EAF6E8" height="68.2959" rx="4" ry="4" style="stroke:#333333;stroke-width:0.5;" width="144" x="98" y="572.0986"/><text fill="#000000" font-family="Arial" font-size="14" lengthAdjust="spacing" textLength="76" x="108" y="595.2305">Faster retail</text><text fill="#000000" font-family="Arial" font-size="14" lengthAdjust="spacing" textLength="124" x="108" y="611.3291">product onboarding</text><text fill="#000000" font-family="Arial" font-size="14" lengthAdjust="spacing" textLength="73" x="108" y="627.4277">&#171;Outcome&#187;</text></g><!--entity req_identity--><g id="elem_req_identity"><rect fill="#E8F1FA" height="68.2959" rx="4" ry="4" style="stroke:#333333;stroke-width:0.5;" width="123" x="875.5" y="444.0986"/><text fill="#000000" font-family="Arial" font-size="14" lengthAdjust="spacing" textLength="103" x="885.5" y="467.2305">Reuse customer</text><text fill="#000000" font-family="Arial" font-size="14" lengthAdjust="spacing" textLength="94" x="885.5" y="483.3291">identity service</text><text fill="#000000" font-family="Arial" font-size="14" lengthAdjust="spacing" textLength="97" x="885.5" y="499.4277">&#171;Requirement&#187;</text></g><!--entity req_screening--><g id="elem_req_screening"><rect fill="#E8F1FA" height="68.2959" rx="4" ry="4" style="stroke:#333333;stroke-width:0.5;" width="132" x="542" y="444.0986"/><text fill="#000000" font-family="Arial" font-size="14" lengthAdjust="spacing" textLength="112" x="552" y="467.2305">Record screening</text><text fill="#000000" font-family="Arial" font-size="14" lengthAdjust="spacing" textLength="57" x="552" y="483.3291">evidence</text><text fill="#000000" font-family="Arial" font-size="14" lengthAdjust="spacing" textLength="97" x="552" y="499.4277">&#171;Requirement&#187;</text></g><!--entity req_core--><g id="elem_req_core"><rect fill="#E8F1FA" height="68.2959" rx="4" ry="4" style="stroke:#333333;stroke-width:0.5;" width="132" x="375" y="444.0986"/><text fill="#000000" font-family="Arial" font-size="14" lengthAdjust="spacing" textLength="112" x="385" y="467.2305">Integrate retained</text><text fill="#000000" font-family="Arial" font-size="14" lengthAdjust="spacing" textLength="83" x="385" y="483.3291">core systems</text><text fill="#000000" font-family="Arial" font-size="14" lengthAdjust="spacing" textLength="97" x="385" y="499.4277">&#171;Requirement&#187;</text></g><!--entity principle_record--><g id="elem_principle_record"><rect fill="#E8F1FA" height="84.3945" rx="4" ry="4" style="stroke:#333333;stroke-width:0.5;" width="145" x="864.5" y="300.0986"/><text fill="#000000" font-family="Arial" font-size="14" lengthAdjust="spacing" textLength="120" x="874.5" y="323.2305">Customer data has</text><text fill="#000000" font-family="Arial" font-size="14" lengthAdjust="spacing" textLength="125" x="874.5" y="339.3291">accountable system</text><text fill="#000000" font-family="Arial" font-size="14" lengthAdjust="spacing" textLength="57" x="874.5" y="355.4277">of record</text><text fill="#000000" font-family="Arial" font-size="14" lengthAdjust="spacing" textLength="70" x="874.5" y="371.5264">&#171;Principle&#187;</text></g><!--link sponsor to driver_dup--><g id="link_sponsor_driver_dup"><path d="M524.5,112.3986 C524.5,150.3186 524.5,206.0986 524.5,206.0986 C524.5,206.0986 566.41,206.0986 610.2,206.0986 " fill="none" id="sponsor-to-driver_dup" style="stroke:#333333;stroke-width:1.2;"/><polygon fill="#333333" points="616.2,206.0986,607.2,202.0986,611.2,206.0986,607.2,210.0986,616.2,206.0986" style="stroke:#333333;stroke-width:1.2;"/><text fill="#000000" font-family="Arial" font-size="14" lengthAdjust="spacing" textLength="71" x="525.5" y="201.2305">association</text></g><!--link sponsor to driver_slow--><g id="link_sponsor_driver_slow"><path d="M463.25,112.3986 C463.25,130.7686 463.25,147.3186 463.25,165.6986 " fill="none" id="sponsor-to-driver_slow" style="stroke:#333333;stroke-width:1.2;"/><polygon fill="#333333" points="463.25,171.6986,467.25,162.6986,463.25,166.6986,459.25,162.6986,463.25,171.6986" style="stroke:#333333;stroke-width:1.2;"/><text fill="#000000" font-family="Arial" font-size="14" lengthAdjust="spacing" textLength="71" x="391.25" y="138.1805">association</text></g><!--link compliance to driver_visibility--><g id="link_compliance_driver_visibility"><path d="M262,112.3986 C262,130.7686 262,147.3186 262,165.6986 " fill="none" id="compliance-to-driver_visibility" style="stroke:#333333;stroke-width:1.2;"/><polygon fill="#333333" points="262,171.6986,266,162.6986,262,166.6986,258,162.6986,262,171.6986" style="stroke:#333333;stroke-width:1.2;"/><text fill="#000000" font-family="Arial" font-size="14" lengthAdjust="spacing" textLength="71" x="190" y="138.1805">association</text></g><!--link driver_dup to assess_data--><g id="link_driver_dup_assess_data"><path d="M715.5,240.4186 C715.5,261.0386 715.5,281.1786 715.5,301.7886 " fill="none" id="driver_dup-to-assess_data" style="stroke:#333333;stroke-width:1.2;"/><polygon fill="#333333" points="715.5,307.7886,719.5,298.7886,715.5,302.7886,711.5,298.7886,715.5,307.7886" style="stroke:#333333;stroke-width:1.2;"/><text fill="#000000" font-family="Arial" font-size="14" lengthAdjust="spacing" textLength="57" x="657.5" y="270.2405">influence</text></g><!--link driver_slow to assess_onboarding--><g id="link_driver_slow_assess_onboarding"><path d="M395.34,206.0986 C365.18,206.0986 332.75,206.0986 332.75,206.0986 C332.75,206.0986 332.75,261.4886 332.75,301.7786 " fill="none" id="driver_slow-to-assess_onboarding" style="stroke:#333333;stroke-width:1.2;"/><polygon fill="#333333" points="332.75,307.7786,336.75,298.7786,332.75,302.7786,328.75,298.7786,332.75,307.7786" style="stroke:#333333;stroke-width:1.2;"/><text fill="#000000" font-family="Arial" font-size="14" lengthAdjust="spacing" textLength="57" x="333.75" y="221.7805">influence</text></g><!--link driver_visibility to assess_onboarding--><g id="link_driver_visibility_assess_onboarding"><path d="M262,240.4186 C262,261.0386 262,281.1786 262,301.7886 " fill="none" id="driver_visibility-to-assess_onboarding" style="stroke:#333333;stroke-width:1.2;"/><polygon fill="#333333" points="262,307.7886,266,298.7886,262,302.7886,258,298.7886,262,307.7886" style="stroke:#333333;stroke-width:1.2;"/><text fill="#000000" font-family="Arial" font-size="14" lengthAdjust="spacing" textLength="57" x="204" y="270.2405">influence</text></g><!--link assess_data to goal_trusted--><g id="link_assess_data_goal_trusted"><path d="M748,376.4186 C748,397.0386 748,417.1786 748,437.7886 " fill="none" id="assess_data-to-goal_trusted" style="stroke:#333333;stroke-width:1.2;"/><polygon fill="#333333" points="748,443.7886,752,434.7886,748,438.7886,744,434.7886,748,443.7886" style="stroke:#333333;stroke-width:1.2;"/><text fill="#000000" font-family="Arial" font-size="14" lengthAdjust="spacing" textLength="57" x="690" y="406.2405">influence</text></g><!--link assess_onboarding to goal_stp--><g id="link_assess_onboarding_goal_stp"><path d="M179.96,342.0986 C130.89,342.0986 78,342.0986 78,342.0986 C78,342.0986 78,397.4886 78,437.7786 " fill="none" id="assess_onboarding-to-goal_stp" style="stroke:#333333;stroke-width:1.2;"/><polygon fill="#333333" points="78,443.7786,82,434.7786,78,438.7786,74,434.7786,78,443.7786" style="stroke:#333333;stroke-width:1.2;"/><text fill="#000000" font-family="Arial" font-size="14" lengthAdjust="spacing" textLength="57" x="20.14" y="338.2305">influence</text></g><!--link assess_onboarding to goal_reuse--><g id="link_assess_onboarding_goal_reuse"><path d="M262,376.4186 C262,397.0386 262,417.1786 262,437.7886 " fill="none" id="assess_onboarding-to-goal_reuse" style="stroke:#333333;stroke-width:1.2;"/><polygon fill="#333333" points="262,443.7886,266,434.7886,262,438.7886,258,434.7886,262,443.7886" style="stroke:#333333;stroke-width:1.2;"/><text fill="#000000" font-family="Arial" font-size="14" lengthAdjust="spacing" textLength="57" x="204" y="406.2405">influence</text></g><!--link goal_trusted to outcome_duplicate--><g id="link_goal_trusted_outcome_duplicate"><path d="M775,512.3986 C775,530.7686 775,547.3186 775,565.6986 " fill="none" id="goal_trusted-to-outcome_duplicate" style="stroke:#333333;stroke-width:1.2;"/><polygon fill="#333333" points="775,571.6986,779,562.6986,775,566.6986,771,562.6986,775,571.6986" style="stroke:#333333;stroke-width:1.2;"/><text fill="#000000" font-family="Arial" font-size="14" lengthAdjust="spacing" textLength="57" x="717" y="538.1805">influence</text></g><!--link goal_stp to outcome_faster--><g id="link_goal_stp_outcome_faster"><path d="M115,512.3986 C115,530.7686 115,547.3186 115,565.6986 " fill="none" id="goal_stp-to-outcome_faster" style="stroke:#333333;stroke-width:1.2;"/><polygon fill="#333333" points="115,571.6986,119,562.6986,115,566.6986,111,562.6986,115,571.6986" style="stroke:#333333;stroke-width:1.2;"/><text fill="#000000" font-family="Arial" font-size="14" lengthAdjust="spacing" textLength="57" x="57" y="538.1805">influence</text></g><!--link goal_reuse to outcome_faster--><g id="link_goal_reuse_outcome_faster"><path d="M213,512.3986 C213,530.7686 213,547.3186 213,565.6986 " fill="none" id="goal_reuse-to-outcome_faster" style="stroke:#333333;stroke-width:1.2;"/><polygon fill="#333333" points="213,571.6986,217,562.6986,213,566.6986,209,562.6986,213,571.6986" style="stroke:#333333;stroke-width:1.2;"/><text fill="#000000" font-family="Arial" font-size="14" lengthAdjust="spacing" textLength="57" x="155" y="538.1805">influence</text></g><!--link principle_record to req_identity--><g id="link_principle_record_req_identity"><path d="M937,384.3886 C937,403.5686 937,419.9486 937,438.0286 " fill="none" id="principle_record-to-req_identity" style="stroke:#333333;stroke-width:1.2;"/><polygon fill="#333333" points="937,444.0286,941,435.0286,937,439.0286,933,435.0286,937,444.0286" style="stroke:#333333;stroke-width:1.2;"/><text fill="#000000" font-family="Arial" font-size="14" lengthAdjust="spacing" textLength="57" x="879" y="410.3405">influence</text></g><!--reverse link goal_trusted to req_identity--><g id="link_goal_trusted_req_identity"><path d="M846.89,478.0986 C858.28,478.0986 864.08,478.0986 875.35,478.0986 " fill="none" id="goal_trusted-backto-req_identity" style="stroke:#333333;stroke-width:1.2;"/><polygon fill="#333333" points="840.89,478.0986,849.89,482.0986,845.89,478.0986,849.89,474.0986,840.89,478.0986" style="stroke:#333333;stroke-width:1.2;"/><text fill="#000000" font-family="Arial" font-size="14" lengthAdjust="spacing" textLength="57" x="829.62" y="492.2305">influence</text></g><!--reverse link goal_stp to req_screening--><g id="link_goal_stp_req_screening"><path d="M132,518.3486 C132,533.5586 132,542.0986 132,542.0986 C132,542.0986 608,542.0986 608,542.0986 C608,542.0986 608,527.5586 608,512.3486 " fill="none" id="goal_stp-backto-req_screening" style="stroke:#333333;stroke-width:1.2;"/><polygon fill="#333333" points="132,512.3486,128,521.3486,132,517.3486,136,521.3486,132,512.3486" style="stroke:#333333;stroke-width:1.2;"/><text fill="#000000" font-family="Arial" font-size="14" lengthAdjust="spacing" textLength="57" x="312" y="538.2305">influence</text></g><!--reverse link goal_reuse to req_core--><g id="link_goal_reuse_req_core"><path d="M346.25,478.0986 C357.82,478.0986 363.65,478.0986 374.94,478.0986 " fill="none" id="goal_reuse-backto-req_core" style="stroke:#333333;stroke-width:1.2;"/><polygon fill="#333333" points="340.25,478.0986,349.25,482.0986,345.25,478.0986,349.25,474.0986,340.25,478.0986" style="stroke:#333333;stroke-width:1.2;"/><text fill="#000000" font-family="Arial" font-size="14" lengthAdjust="spacing" textLength="57" x="329.1" y="492.2305">influence</text></g><rect fill="none" height="74.3945" id="_legend" rx="7.5" ry="7.5" style="stroke:#000000;stroke-width:1.0;" width="376" x="613.5" y="657.3945"/><text fill="#000000" font-family="Arial" font-size="14" lengthAdjust="spacing" textLength="366" x="618.5" y="675.5264">Motivation elements explain why the architecture changes.</text><text fill="#000000" font-family="Arial" font-size="14" lengthAdjust="spacing" textLength="328" x="618.5" y="691.625">Influence is used between Requirements and Goals.</text><text fill="#000000" font-family="Arial" font-size="14" lengthAdjust="spacing" textLength="257" x="618.5" y="707.7236">Realisation is deliberately not used here.</text><text fill="#000000" font-family="Arial" font-size="14" lengthAdjust="spacing" textLength="252" x="618.5" y="723.8223">No removed Constraint element is used.</text><!--SRC=[bPPjRzem4CVVvrFSsjVGJjfQL5MLkW8Tqfv4zp8ICiv1h3fsQZimDksxxvoGn85GTH8l4lA_tptvBdad59T5WZ0SNj3Fkfr4Uv5BfboHoO5BCSDXJfTHv8IJ2DFPu-3oUd3vSGYVjH6_jO9FJ3r3fftOC2VeVYDm6qNsMQYS6PQ150hTBaVGngKwU62GEwRMHFqJ0SnreP87RHGQ64L_oQ7EmMbOQkTq1edmSk97KMjtDaV7X2n346eTgwTSAwjDh6vldnnxnbJB1CtTtHam2xPw2EVJwVJ3-2haFEWibu8fZh6Qeyy0Jq1uesmu8MXSq5FE708lBCNjCGbpRCaiMayS6x5fO4bviqYAd63Naz7uCcGzIRs5tEYau2vMaXMAfwSXrgjxA5z49Xmc7iJHalb6MB4KKhZTALIhQ82TOkqp0vzOh5Q6hJDKvCFpxYqbQltzdidAFnPUsnVUTxNKp2JKFKZgsX68SQEjhREthv5rI-YBzgUXS2d_jX- -lHxug9dSezPqkN1xvVdaVder6OMGMKQHREYPTOQ9TUe6iNAfqSKwhGjRdhzZg7Lv7t2EXMLBkcgZZnLdEMixSqWoP88DgmkZ8b5mJG49LVU8cAumw87V2qUd5_TCNTqj6gE-CAUCAc9eKlsOnMhVZaxGfxYhohG_Nfz9sn2HK5FzQRDeDeANmSxnfQ2H3zfjy6NHACyde-dxwNsNohMX3d63gChGQ919_ngl4VS1PtIcryPNfinV-ND9BX3iZbBBx6bigUeXTYO7KcRzGUUq-5nv5YfkhFJAxqPAndluOMX7YrpMzSth-qMbQVn4zNuR97gh1dVXThdnmwAvA3VqAM6vGRhAODiTY8CTqJM90hUrJRW3Ra2ebInyNwBGyO4scEeUYy3xs-oYC8JQf3FreVgOrJ7nC_qVycfmEz5qFDVYuuaCRHhFX_Bze1rfAxTlK4T7HweswenSQD9vC92uSg-Lipjf7VbXAPlfwQXwAYXnZIe1uvSnVJryRRy_K9RZQ05_qOUCKB1DTq1VCi0CJ-bLoFq-19xIJA8TaksifeAmG8uIMABRKhGGJ3UzRiYTtycbpHoP5BPoI5O9Ih54lola3fHs5IP5WrxyJLCbi_BzyK2JvryXojLnraw74ULJPVKF]--></g></svg>