<?xml version="1.0" encoding="us-ascii" standalone="no"?><svg xmlns="http://www.w3.org/2000/svg" xmlns:xlink="http://www.w3.org/1999/xlink" contentStyleType="text/css" height="820px" preserveAspectRatio="none" style="width:569px;height:820px;background:#FFFFFF;" version="1.1" viewBox="0 0 569 820" width="569px" zoomAndPan="magnify"><defs/><g><text fill="#000000" font-family="Arial" font-size="14" font-weight="bold" lengthAdjust="spacing" textLength="457" x="49" y="23.1318">FIG-22-01. Choosing the Right Transformation and Migration View</text><!--entity Start--><g id="elem_Start"><rect fill="#DCEAF7" height="52.1973" rx="5" ry="5" style="stroke:#333333;stroke-width:0.5;" width="169" x="7" y="393.5654"/><text fill="#111111" font-family="Arial" font-size="14" lengthAdjust="spacing" textLength="82" x="17" y="416.6973">Start with the</text><text fill="#111111" font-family="Arial" font-size="14" lengthAdjust="spacing" textLength="149" x="17" y="432.7959">transformation question</text></g><!--entity Current--><g id="elem_Current"><rect fill="#F5F7FA" height="36.0986" rx="5" ry="5" style="stroke:#333333;stroke-width:0.5;" width="161" x="401.5" y="68.5654"/><text fill="#111111" font-family="Arial" font-size="14" lengthAdjust="spacing" textLength="141" x="411.5" y="91.6973">Current-state baseline</text></g><!--entity Target--><g id="elem_Target"><rect fill="#F5F7FA" height="36.0986" rx="5" ry="5" style="stroke:#333333;stroke-width:0.5;" width="141" x="411.5" y="142.5654"/><text fill="#111111" font-family="Arial" font-size="14" lengthAdjust="spacing" textLength="121" x="421.5" y="165.6973">Target architecture</text></g><!--entity Gap--><g id="elem_Gap"><rect fill="#F5F7FA" height="36.0986" rx="5" ry="5" style="stroke:#333333;stroke-width:0.5;" width="102" x="431" y="216.5654"/><text fill="#111111" font-family="Arial" font-size="14" lengthAdjust="spacing" textLength="82" x="441" y="239.6973">Gap analysis</text></g><!--entity Transition--><g id="elem_Transition"><rect fill="#F5F7FA" height="36.0986" rx="5" ry="5" style="stroke:#333333;stroke-width:0.5;" width="162" x="401" y="288.5654"/><text fill="#111111" font-family="Arial" font-size="14" lengthAdjust="spacing" textLength="142" x="411" y="311.6973">Transition architecture</text></g><!--entity Dependency--><g id="elem_Dependency"><rect fill="#F5F7FA" height="36.0986" rx="5" ry="5" style="stroke:#333333;stroke-width:0.5;" width="131" x="416.5" y="359.5654"/><text fill="#111111" font-family="Arial" font-size="14" lengthAdjust="spacing" textLength="111" x="426.5" y="382.6973">Dependency map</text></g><!--entity Roadmap--><g id="elem_Roadmap"><rect fill="#F5F7FA" height="52.1973" rx="5" ry="5" style="stroke:#333333;stroke-width:0.5;" width="146" x="409" y="430.5654"/><text fill="#111111" font-family="Arial" font-size="14" lengthAdjust="spacing" textLength="78" x="419" y="453.6973">Roadmap or</text><text fill="#111111" font-family="Arial" font-size="14" lengthAdjust="spacing" textLength="126" x="419" y="469.7959">migration-wave view</text></g><!--entity Cutover--><g id="elem_Cutover"><rect fill="#F5F7FA" height="52.1973" rx="5" ry="5" style="stroke:#333333;stroke-width:0.5;" width="142" x="411" y="517.5654"/><text fill="#111111" font-family="Arial" font-size="14" lengthAdjust="spacing" textLength="122" x="421" y="540.6973">Cutover or parallel-</text><text fill="#111111" font-family="Arial" font-size="14" lengthAdjust="spacing" textLength="91" x="421" y="556.7959">operation view</text></g><!--entity Retire--><g id="elem_Retire"><rect fill="#F5F7FA" height="36.0986" rx="5" ry="5" style="stroke:#333333;stroke-width:0.5;" width="142" x="411" y="604.5654"/><text fill="#111111" font-family="Arial" font-size="14" lengthAdjust="spacing" textLength="122" x="421" y="627.6973">Decommission view</text></g><!--entity Benefit--><g id="elem_Benefit"><rect fill="#F5F7FA" height="52.1973" rx="5" ry="5" style="stroke:#333333;stroke-width:0.5;" width="95" x="434.5" y="675.5654"/><text fill="#111111" font-family="Arial" font-size="14" lengthAdjust="spacing" textLength="75" x="444.5" y="698.6973">Benefit map</text><text fill="#111111" font-family="Arial" font-size="14" lengthAdjust="spacing" textLength="70" x="444.5" y="714.7959">or risk view</text></g><!--entity Clarify--><g id="elem_Clarify"><rect fill="#FFF2CC" height="52.1973" rx="5" ry="5" style="stroke:#333333;stroke-width:0.5;" width="162" x="401" y="762.5654"/><text fill="#111111" font-family="Arial" font-size="14" lengthAdjust="spacing" textLength="125" x="411" y="785.6973">Clarify scope, state,</text><text fill="#111111" font-family="Arial" font-size="14" lengthAdjust="spacing" textLength="142" x="411" y="801.7959">audience and decision</text></g><!--link Start to Current--><g id="link_Start_Current"><path d="M94.12,393.2854 C99.25,334.7954 120.34,193.6554 206,125.5654 C260.64,82.1354 335.4145,75.1141 395.2945,77.4241 " fill="none" id="Start-to-Current" style="stroke:#333333;stroke-width:1.0;"/><polygon fill="#333333" points="401.29,77.6554,392.4509,73.3115,396.2937,77.4627,392.1425,81.3055,401.29,77.6554" style="stroke:#333333;stroke-width:1.0;"/><text fill="#000000" font-family="Arial" font-size="14" lengthAdjust="spacing" textLength="159" x="209" y="57.6973">What evidence describes</text><text fill="#000000" font-family="Arial" font-size="14" lengthAdjust="spacing" textLength="112" x="232.5" y="73.7959">the current state?</text></g><!--link Start to Target--><g id="link_Start_Target"><path d="M97.85,393.5554 C108.98,346.5554 139.36,247.9954 206,200.5654 C238.08,177.7354 335.0908,168.116 405.5108,163.876 " fill="none" id="Start-to-Target" style="stroke:#333333;stroke-width:1.0;"/><polygon fill="#333333" points="411.5,163.5154,402.2759,160.0636,406.509,163.8159,402.7567,168.0491,411.5,163.5154" style="stroke:#333333;stroke-width:1.0;"/><text fill="#000000" font-family="Arial" font-size="14" lengthAdjust="spacing" textLength="82" x="247.5" y="146.6973">What state is</text><text fill="#000000" font-family="Arial" font-size="14" lengthAdjust="spacing" textLength="63" x="257" y="162.7959">intended?</text></g><!--link Start to Gap--><g id="link_Start_Gap"><path d="M104.8,393.4254 C122.2,359.6254 157.39,301.7454 206,273.5654 C243.23,251.9754 356.252,241.9149 424.902,237.5649 " fill="none" id="Start-to-Gap" style="stroke:#333333;stroke-width:1.0;"/><polygon fill="#333333" points="430.89,237.1854,421.6551,233.7626,425.9,237.5016,422.161,241.7466,430.89,237.1854" style="stroke:#333333;stroke-width:1.0;"/><text fill="#000000" font-family="Arial" font-size="14" lengthAdjust="spacing" textLength="76" x="250.5" y="222.6973">What differs</text><text fill="#000000" font-family="Arial" font-size="14" lengthAdjust="spacing" textLength="103" x="237" y="238.7959">between states?</text></g><!--link Start to Transition--><g id="link_Start_Transition"><path d="M126.34,393.2454 C147.96,377.7854 177.24,359.2354 206,348.5654 C269.05,325.1754 338.9001,315.2963 394.9401,310.6963 " fill="none" id="Start-to-Transition" style="stroke:#333333;stroke-width:1.0;"/><polygon fill="#333333" points="400.92,310.2054,391.6229,306.9551,395.9368,310.6145,392.2774,314.9283,400.92,310.2054" style="stroke:#333333;stroke-width:1.0;"/><text fill="#000000" font-family="Arial" font-size="14" lengthAdjust="spacing" textLength="163" x="207" y="293.6973">Can an intermediate state</text><text fill="#000000" font-family="Arial" font-size="14" lengthAdjust="spacing" textLength="127" x="225" y="309.7959">operate coherently?</text></g><!--link Start to Dependency--><g id="link_Start_Dependency"><path d="M176.32,410.5054 C248.26,402.7254 344.4847,392.32 410.2847,385.21 " fill="none" id="Start-to-Dependency" style="stroke:#333333;stroke-width:1.0;"/><polygon fill="#333333" points="416.25,384.5654,406.8724,381.5554,411.2789,385.1026,407.7318,389.5091,416.25,384.5654" style="stroke:#333333;stroke-width:1.0;"/><text fill="#000000" font-family="Arial" font-size="14" lengthAdjust="spacing" textLength="102" x="237.5" y="370.6973">What constrains</text><text fill="#000000" font-family="Arial" font-size="14" lengthAdjust="spacing" textLength="66" x="255.5" y="386.7959">the order?</text></g><!--link Start to Roadmap--><g id="link_Start_Roadmap"><path d="M154.23,445.5654 C170.75,451.3454 188.8,456.6254 206,459.5654 C274.12,471.2154 347.1482,469.2028 402.9482,464.8428 " fill="none" id="Start-to-Roadmap" style="stroke:#333333;stroke-width:1.0;"/><polygon fill="#333333" points="408.93,464.3754,399.6458,461.0887,403.9452,464.7649,400.2689,469.0644,408.93,464.3754" style="stroke:#333333;stroke-width:1.0;"/><text fill="#000000" font-family="Arial" font-size="14" lengthAdjust="spacing" textLength="135" x="221" y="439.6973">How could change be</text><text fill="#000000" font-family="Arial" font-size="14" lengthAdjust="spacing" textLength="163" x="207" y="455.7959">grouped and sequenced?</text></g><!--link Start to Cutover--><g id="link_Start_Cutover"><path d="M116.8,445.9054 C138.11,467.1754 171.07,495.8954 206,510.5654 C271.73,538.1654 347.5505,544.7868 404.7905,545.5368 " fill="none" id="Start-to-Cutover" style="stroke:#333333;stroke-width:1.0;"/><polygon fill="#333333" points="410.79,545.6154,401.8432,541.4979,405.7904,545.5499,401.7384,549.4972,410.79,545.6154" style="stroke:#333333;stroke-width:1.0;"/><text fill="#000000" font-family="Arial" font-size="14" lengthAdjust="spacing" textLength="114" x="231.5" y="490.6973">How will service or</text><text fill="#000000" font-family="Arial" font-size="14" lengthAdjust="spacing" textLength="160" x="208.5" y="506.7959">data responsibility move?</text></g><!--link Start to Retire--><g id="link_Start_Retire"><path d="M102.11,445.5954 C117.61,483.5854 151.97,553.2954 206,586.5654 C267.7,624.5654 345.9025,630.4985 404.8225,628.7985 " fill="none" id="Start-to-Retire" style="stroke:#333333;stroke-width:1.0;"/><polygon fill="#333333" points="410.82,628.6254,401.7084,624.8867,405.8221,628.7696,401.9391,632.8833,410.82,628.6254" style="stroke:#333333;stroke-width:1.0;"/><text fill="#000000" font-family="Arial" font-size="14" lengthAdjust="spacing" textLength="144" x="216.5" y="566.6973">What evidence permits</text><text fill="#000000" font-family="Arial" font-size="14" lengthAdjust="spacing" textLength="72" x="252.5" y="582.7959">retirement?</text></g><!--link Start to Benefit--><g id="link_Start_Benefit"><path d="M95.86,445.7754 C104.08,498.1754 130.41,615.5454 206,670.5654 C273.3,719.5454 369.5034,717.1562 428.5134,710.0162 " fill="none" id="Start-to-Benefit" style="stroke:#333333;stroke-width:1.0;"/><polygon fill="#333333" points="434.47,709.2954,425.0547,706.4055,429.5062,709.896,426.0156,714.3476,434.47,709.2954" style="stroke:#333333;stroke-width:1.0;"/><text fill="#000000" font-family="Arial" font-size="14" lengthAdjust="spacing" textLength="114" x="231.5" y="650.6973">Which outcome or</text><text fill="#000000" font-family="Arial" font-size="14" lengthAdjust="spacing" textLength="129" x="224" y="666.7959">uncertainty matters?</text></g><!--link Start to Clarify--><g id="link_Start_Clarify"><path d="M93.4,445.9954 C97.01,507.8454 115.17,662.5754 206,739.5654 C259.64,785.0354 334.74,794.7304 394.98,794.5804 " fill="none" id="Start-to-Clarify" style="stroke:#333333;stroke-width:1.0;"/><polygon fill="#333333" points="400.98,794.5654,391.9701,790.5879,395.98,794.5779,391.99,798.5878,400.98,794.5654" style="stroke:#333333;stroke-width:1.0;"/><text fill="#000000" font-family="Arial" font-size="14" lengthAdjust="spacing" textLength="81" x="248" y="735.6973">Still unclear?</text></g><!--SRC=[RLHDRzim3BtdLn3jjHcQRaE175QaxjBji1tIOhlaebXqJ5IMCagEaGtxxwDakv7H-PIGx_7pKO62GLX_VPpVtCol5- -Wg9tpPFSGQeGDxUi0pwoihnmtAf2peAo6RxJd_jyFmcxcNyWU5Ai6TgfysRDhhIwSSGoNw_Hb28sLQarOEnk-gmPXnQJC__rFz1jXyI5p-bffryNoAcKyPfuLi-k6dE_JbpaPow3iNZhzCmEuVrFZn_NjUXKzZZNoD0f0B6MmBT8djarFPuiCY-lPtvd1Aa1mm6bacc9AcS_idFhYAIWEq56eut2tDapd-gj57tzSWFBGOoyVYi-hzMqUf6YPqOQv3ogWZDkZ8Ok9CxXozBFYFGPGNDOKnDno3-tjEV9H7MIpofmy-GGHmoHIB9Pw0Ro9zkhB6GzuGAlHbYTer241pwOSk75A2m8SRsqp2clUgIF2KTILc0DcEedWZZ9-sKlSiZ5evblh3ZWeyvKx0AUrbQvfoFi9S8D1zfRZxj5YHI4s8A5PjkjVplZ1EodAAARg1BwKGguWRUbgQrMhITh6T3mQI_BZeaT2F9IRefZrYv_FFuthX2Nyh5K0F99E8JJwacc7NXGaDreEi9JgBkCFkn_elLv8I6H3N8BEiN7x0r1JLI4BReUXGxGzqqyYdxMmX4B59m5YL6vGKqoJAECkf4HNOwpHdF8ecJw6rAMpNew2xD1QkiQSCYfb2LzS9_3MQ2Xh6RrSWkIBHtr0dORiKUv9nZLfSvHCp-_86C7naKfCujCgA7ah_47ge1qP2Y9T8KnAI1fvinJfjA4WTNFoDz9jpXfr56bKrk3Q80BiixR2vo1Tnsmgo1Wdmnu5ifGt8HOiS8EAx_u1]--></g></svg>