<?xml version="1.0" encoding="us-ascii" standalone="no"?><svg xmlns="http://www.w3.org/2000/svg" xmlns:xlink="http://www.w3.org/1999/xlink" contentStyleType="text/css" height="604.244px" preserveAspectRatio="none" style="width:759px;height:604px;background:#FFFFFF;" version="1.1" viewBox="0 0 759 604" width="759.8694px" zoomAndPan="magnify"><defs/><g><text fill="#000000" font-family="Arial" font-size="12.1718" font-weight="bold" lengthAdjust="spacing" textLength="243.4364" x="252.1306" y="20.1112">Online Store architecture review thread</text><!--entity S--><g id="elem_S"><rect fill="#FFF2CC" height="59.3775" rx="2.1735" ry="2.1735" style="stroke:#333333;stroke-width:0.43470790378006874;" width="205.1821" x="59.9897" y="38.34"/><text fill="#000000" font-family="Arial" font-size="12.1718" lengthAdjust="spacing" textLength="152.1478" x="68.6838" y="58.4512">Checkout trigger and scope</text><text fill="#000000" font-family="Arial" font-size="12.1718" lengthAdjust="spacing" textLength="187.7938" x="68.6838" y="72.4476">FR-25-01 | QA-25-01 | ADR-26-01</text><text fill="#000000" font-family="Arial" font-size="12.1718" lengthAdjust="spacing" textLength="165.189" x="68.6838" y="86.444">Boundary, version and criteria</text></g><!--entity P--><g id="elem_P"><rect fill="#DDEBF7" height="59.3775" rx="2.1735" ry="2.1735" style="stroke:#333333;stroke-width:0.43470790378006874;" width="219.9622" x="331.6821" y="38.34"/><text fill="#000000" font-family="Arial" font-size="12.1718" lengthAdjust="spacing" textLength="140.8454" x="340.3763" y="58.4512">Checkout review package</text><text fill="#000000" font-family="Arial" font-size="12.1718" lengthAdjust="spacing" textLength="133.89" x="340.3763" y="72.4476">Focused views and ADR</text><text fill="#000000" font-family="Arial" font-size="12.1718" lengthAdjust="spacing" textLength="202.5739" x="340.3763" y="86.444">Tests and payment-timeout evidence</text></g><!--entity Q--><g id="elem_Q"><rect fill="#DDEBF7" height="59.3775" rx="2.1735" ry="2.1735" style="stroke:#333333;stroke-width:0.43470790378006874;" width="220.8316" x="6.0859" y="133.9758"/><text fill="#000000" font-family="Arial" font-size="12.1718" lengthAdjust="spacing" textLength="122.5876" x="14.7801" y="154.087">Stakeholder questions</text><text fill="#000000" font-family="Arial" font-size="12.1718" lengthAdjust="spacing" textLength="203.4433" x="14.7801" y="168.0834">Functional, data, integration, security</text><text fill="#000000" font-family="Arial" font-size="12.1718" lengthAdjust="spacing" textLength="192.1409" x="14.7801" y="182.0798">performance, resilience, operability</text></g><!--entity E--><g id="elem_E"><rect fill="#E2F0D9" height="59.3775" rx="2.1735" ry="2.1735" style="stroke:#333333;stroke-width:0.43470790378006874;" width="173.0137" x="347.3316" y="133.9758"/><text fill="#000000" font-family="Arial" font-size="12.1718" lengthAdjust="spacing" textLength="119.11" x="356.0258" y="154.087">Evidence assessment</text><text fill="#000000" font-family="Arial" font-size="12.1718" lengthAdjust="spacing" textLength="155.6254" x="356.0258" y="168.0834">Claims, results, assumptions</text><text fill="#000000" font-family="Arial" font-size="12.1718" lengthAdjust="spacing" textLength="51.2955" x="356.0258" y="182.0798">and gaps</text></g><!--entity F--><g id="elem_F"><rect fill="#FCE4D6" height="59.3775" rx="2.1735" ry="2.1735" style="stroke:#333333;stroke-width:0.43470790378006874;" width="206.921" x="250.3918" y="229.6115"/><text fill="#000000" font-family="Arial" font-size="12.1718" lengthAdjust="spacing" textLength="153.8866" x="259.0859" y="249.7227">Governed checkout findings</text><text fill="#000000" font-family="Arial" font-size="12.1718" lengthAdjust="spacing" textLength="169.5361" x="259.0859" y="263.7191">Payment-timeout risk | decision</text><text fill="#000000" font-family="Arial" font-size="12.1718" lengthAdjust="spacing" textLength="189.5326" x="259.0859" y="277.7155">action | exception | owner and date</text></g><!--entity O--><g id="elem_O"><rect fill="#E4DFEC" height="31.3847" rx="2.1735" ry="2.1735" style="stroke:#333333;stroke-width:0.43470790378006874;" width="106.9381" x="189.0979" y="325.2473"/><text fill="#000000" font-family="Arial" font-size="12.1718" lengthAdjust="spacing" textLength="89.5498" x="197.7921" y="345.3584">Review outcome</text></g><!--entity A--><g id="elem_A"><rect fill="#E2F0D9" height="31.3847" rx="2.1735" ry="2.1735" style="stroke:#333333;stroke-width:0.43470790378006874;" width="63.4674" x="415.146" y="325.2473"/><text fill="#000000" font-family="Arial" font-size="12.1718" lengthAdjust="spacing" textLength="46.079" x="423.8402" y="345.3584">Proceed</text></g><!--entity C--><g id="elem_C"><rect fill="#FFF2CC" height="31.3847" rx="2.1735" ry="2.1735" style="stroke:#333333;stroke-width:0.43470790378006874;" width="146.9313" x="65.6409" y="408.7112"/><text fill="#000000" font-family="Arial" font-size="12.1718" lengthAdjust="spacing" textLength="129.543" x="74.3351" y="428.8224">Proceed with conditions</text></g><!--entity R--><g id="elem_R"><rect fill="#F4CCCC" height="31.3847" rx="2.1735" ry="2.1735" style="stroke:#333333;stroke-width:0.43470790378006874;" width="115.6323" x="220.3969" y="366.9792"/><text fill="#000000" font-family="Arial" font-size="12.1718" lengthAdjust="spacing" textLength="98.244" x="229.0911" y="387.0904">Revise and return</text></g><!--entity U--><g id="elem_U"><rect fill="#D9EAD3" height="59.3775" rx="2.1735" ry="2.1735" style="stroke:#333333;stroke-width:0.43470790378006874;" width="148.6701" x="273.4313" y="476.5256"/><text fill="#000000" font-family="Arial" font-size="12.1718" lengthAdjust="spacing" textLength="90.4192" x="282.1254" y="496.6368">Owned follow-up</text><text fill="#000000" font-family="Arial" font-size="12.1718" lengthAdjust="spacing" textLength="131.2818" x="282.1254" y="510.6332">Check closure evidence</text><text fill="#000000" font-family="Arial" font-size="12.1718" lengthAdjust="spacing" textLength="107.8076" x="282.1254" y="524.6296">and update records</text></g><!--link S to P--><g id="link_S_P"><path d="M265.3109,67.9002 C286.9159,67.9002 304.5737,67.9002 326.4309,67.9002 " fill="none" id="S-to-P" style="stroke:#333333;stroke-width:1.043298969072165;"/><polygon fill="#333333" points="331.6474,67.9002,323.8226,64.4225,327.3003,67.9002,323.8226,71.3778,331.6474,67.9002" style="stroke:#333333;stroke-width:1.043298969072165;"/><text fill="#000000" font-family="Arial" font-size="12.1718" lengthAdjust="spacing" textLength="49.5567" x="273.6486" y="61.9289">prepares</text></g><!--link P to Q--><g id="link_P_Q"><path d="M342.1151,97.5125 C302.0611,109.0844 260.9851,120.948 220.9399,132.5112 " fill="none" id="P-to-Q" style="stroke:#333333;stroke-width:1.043298969072165;"/><polygon fill="#333333" points="215.9281,133.9584,224.4105,135.1288,220.1046,132.7524,222.4809,128.4465,215.9281,133.9584" style="stroke:#333333;stroke-width:1.043298969072165;"/><text fill="#000000" font-family="Arial" font-size="12.1718" lengthAdjust="spacing" textLength="93.8969" x="299.9485" y="120.1798">frames questions</text></g><!--link Q to E--><g id="link_Q_E"><path d="M227.0479,163.5359 C266.3977,163.5359 304.8954,163.5359 341.9586,163.5359 " fill="none" id="Q-to-E" style="stroke:#333333;stroke-width:1.043298969072165;"/><polygon fill="#333333" points="347.1751,163.5359,339.3504,160.0583,342.828,163.5359,339.3504,167.0136,347.1751,163.5359" style="stroke:#333333;stroke-width:1.043298969072165;"/><text fill="#000000" font-family="Arial" font-size="12.1718" lengthAdjust="spacing" textLength="103.4605" x="235.3943" y="157.5646">tests with evidence</text></g><!--link E to F--><g id="link_E_F"><path d="M409.1905,193.3395 C399.4531,204.7636 391.6809,213.8944 381.9434,225.3272 " fill="none" id="E-to-F" style="stroke:#333333;stroke-width:1.043298969072165;"/><polygon fill="#333333" points="378.561,229.2985,386.2822,225.5965,381.3797,225.9891,380.9871,221.0867,378.561,229.2985" style="stroke:#333333;stroke-width:1.043298969072165;"/><text fill="#000000" font-family="Arial" font-size="12.1718" lengthAdjust="spacing" textLength="134.7595" x="399.0619" y="215.8155">records material findings</text></g><!--link F to O--><g id="link_F_O"><path d="M313.6765,288.9144 C296.6186,301.1818 281.6838,311.9088 267.5558,322.0636 " fill="none" id="F-to-O" style="stroke:#333333;stroke-width:1.043298969072165;"/><polygon fill="#333333" points="263.32,325.1082,271.7034,323.3652,266.8498,322.571,267.644,317.7174,263.32,325.1082" style="stroke:#333333;stroke-width:1.043298969072165;"/><text fill="#000000" font-family="Arial" font-size="12.1718" lengthAdjust="spacing" textLength="88.6804" x="299.079" y="311.4512">informs decision</text></g><!--reverse link A to O--><g id="link_A_O"><path d="M409.6687,340.8967 C377.9351,340.8967 333.96,340.8967 296.2447,340.8967 " fill="none" id="A-backto-O" style="stroke:#333333;stroke-width:1.043298969072165;"/><polygon fill="#333333" points="414.8852,340.8967,407.0605,337.4191,410.5381,340.8967,407.0605,344.3744,414.8852,340.8967" style="stroke:#333333;stroke-width:1.043298969072165;"/><text fill="#000000" font-family="Arial" font-size="12.1718" lengthAdjust="spacing" textLength="101.7216" x="304.7302" y="334.9255">sufficient evidence</text></g><!--link O to C--><g id="link_O_C"><path d="M188.8458,344.47 C154.2083,347.4695 113.6413,353.7641 102.5911,366.9792 C93.6709,377.6556 96.1313,385.9586 102.5911,398.2782 C104.669,402.234 103.747,402.2642 107.1638,405.2463 " fill="none" id="O-to-C" style="stroke:#333333;stroke-width:1.043298969072165;"/><polygon fill="#333333" points="111.094,408.6764,107.4855,400.9111,107.8188,405.818,102.912,406.1513,111.094,408.6764" style="stroke:#333333;stroke-width:1.043298969072165;"/><text fill="#000000" font-family="Arial" font-size="12.1718" lengthAdjust="spacing" textLength="107.8076" x="103.4605" y="387.0904">bounded conditions</text></g><!--link O to R--><g id="link_O_R"><path d="M255.843,356.6593 C258.7729,359.9456 258.4053,359.5383 261.3353,362.8247 " fill="none" id="O-to-R" style="stroke:#333333;stroke-width:1.043298969072165;"/><polygon fill="#333333" points="264.8067,366.7184,262.1954,358.5635,261.9138,363.4736,257.0037,363.1921,264.8067,366.7184" style="stroke:#333333;stroke-width:1.043298969072165;"/></g><!--link A to U--><g id="link_A_U"><path d="M444.4975,356.7201 C440.7764,376.8558 432.2301,413.2582 415.5808,440.0102 C407.2952,453.3209 399.5205,462.2836 388.2442,472.6992 " fill="none" id="A-to-U" style="stroke:#333333;stroke-width:1.043298969072165;"/><polygon fill="#333333" points="384.4122,476.2387,392.5198,473.4841,387.6055,473.2891,387.8005,468.3749,384.4122,476.2387" style="stroke:#333333;stroke-width:1.043298969072165;"/><text fill="#000000" font-family="Arial" font-size="12.1718" lengthAdjust="spacing" textLength="115.6323" x="431.2302" y="428.8224">monitor commitments</text></g><!--link C to U--><g id="link_C_U"><path d="M142.8363,440.2014 C145.8097,449.0347 150.8697,459.7024 159.1031,466.0926 C176.9696,479.9598 223.4589,489.3499 268.2077,495.8271 " fill="none" id="C-to-U" style="stroke:#333333;stroke-width:1.043298969072165;"/><polygon fill="#333333" points="273.3704,496.5743,266.1246,492.0116,269.0682,495.9516,265.1282,498.8952,273.3704,496.5743" style="stroke:#333333;stroke-width:1.043298969072165;"/><text fill="#000000" font-family="Arial" font-size="12.1718" lengthAdjust="spacing" textLength="87.811" x="159.9725" y="462.7296">close conditions</text></g><!--link R to U--><g id="link_R_U"><path d="M272.9183,398.3391 C269.6145,410.1457 266.9976,426.8298 272.9966,440.0102 C279.4129,454.1208 286.5766,463.0013 298.3311,472.9474 " fill="none" id="R-to-U" style="stroke:#333333;stroke-width:1.043298969072165;"/><polygon fill="#333333" points="302.3133,476.317,298.5863,468.6078,298.9948,473.509,294.0936,473.9174,302.3133,476.317" style="stroke:#333333;stroke-width:1.043298969072165;"/><text fill="#000000" font-family="Arial" font-size="12.1718" lengthAdjust="spacing" textLength="140.8454" x="273.866" y="428.8224">revise design or evidence</text></g><!--reverse link P to U--><g id="link_P_U"><path d="M532.7157,100.1448 C558.9547,114.6814 576.4227,133.1498 576.4227,162.6665 C576.4227,162.6665 576.4227,162.6665 576.4227,425.2301 C576.4227,458.5026 489.0464,481.2118 422.3187,493.6879 " fill="none" id="P-backto-U" style="stroke:#333333;stroke-width:1.043298969072165;stroke-dasharray:7.0,7.0;"/><polygon fill="#333333" points="528.1527,97.6168,533.312,104.4508,531.9552,99.7235,536.6826,98.3667,528.1527,97.6168" style="stroke:#333333;stroke-width:1.043298969072165;"/><text fill="#000000" font-family="Arial" font-size="12.1718" lengthAdjust="spacing" textLength="175.622" x="577.2921" y="311.4512">focused feedback and re-review</text></g><rect fill="none" height="36.687" id="_legend" rx="6.5206" ry="6.5206" style="stroke:#000000;stroke-width:0.8694158075601375;" width="225.1787" x="261.2595" y="550.6832"/><text fill="#000000" font-family="Arial" font-size="12.1718" lengthAdjust="spacing" textLength="216.4845" x="265.6065" y="566.4473">Solid arrows show review and follow-up.</text><text fill="#000000" font-family="Arial" font-size="12.1718" lengthAdjust="spacing" textLength="204.3127" x="265.6065" y="580.4437">Dotted arrow shows iterative revision.</text><!--SRC=[RLHDSzCm4BthLopq6WTQGaivC1CScsFQXDvoKQIrhOai6Kbk2CEFPoKxRifqnWTvzVHsz-t7EsM4xYN2VFw1FXzE6ls7JdCJ-bPdeS4MvnqTML118woDLWPX6wn3u4uqAg08FVquV5PuXD0uv985sq6miBSXs1QaSeHIrZ0lEB7SVRw7evAXOVwWJCSTRy5OYHuxkFvoONJS7ABnPd5Xb5ZnNeVIch1LVn2k5opISrCJzVkyGN6mVO3WL5sZ0suaU64xt9boazrypZvUmrzuN4x7vOhCjtJUcU-sDvAxqmoUqNaAEBqMZh9qYhy7xc4BLsLPtkJvcqv75Jek3hoE7gteFKg8Lf_8oDlE_4GVXj-Edreq8GkgnKX0xoKQWSdN0rojLiNtykxIrpRm0pPMIyhjLqz45AOdJxr94dCz0ya3du4o0Ml7et467aLFQPnsfaDNMTToSZAZUBtI2jEP979yJx_XbBm_lkMz6ECZW4VlO-mxaskkMf_Og31qeCk-xSR8OferxtmYBU2gk2a_hkulINzOajkGJEAiOwMCLAQcrm__2UIKFr3H90eL2qJqAMqouM-1tNYsHpEMdhGOn2ofS7cnMDrUUjuCzI9YOTi1jwO85wkoU5NW1sS5eao0vLifZ01gwz20i1HzoZuzoDzgcUZPOmhH8KsGIT0DGHTv_XgwFaPjAgkrFMPzHtf7cK1ew-FadLjcKBhlOiR4AQoJW_ydAkHziLnzObl8Q2gQa7sZtleAdKCQAVJi0J99af7vaSmLJHdwb-PYZo_F2heFgNjJfcVVh9WOIaACtg7bQN3qL4zMGaQODM6KYMtefqgoDMGQg-XaITU-hoebg3LVPY8YHYSv8VPnM6FJJ6f7m3dGJKHeAsXjrB7zmBhKEsoP8dYYwzOQHOkC2DfMXTXbdkNJRPGNByatqvKRQaSBIzKc4ayHFi4yvZ0VzAt6wQ-eC_Qq4iPgPyEMO1fh9CEm9DdMQYLffpfBcy8tzdXU9l7HLFmvMn4SHs32UOZhYURyUTZ2KSmv8-Q1_ny0]--></g></svg>