<?xml version="1.0" encoding="us-ascii" standalone="no"?><svg xmlns="http://www.w3.org/2000/svg" xmlns:xlink="http://www.w3.org/1999/xlink" contentStyleType="text/css" height="1270.6926px" preserveAspectRatio="none" style="width:751px;height:1270px;background:#FFFFFF;" version="1.1" viewBox="0 0 751 1270" width="751.2669px" zoomAndPan="magnify"><defs/><g><text fill="#000000" font-family="Arial" font-size="17.7365" font-weight="bold" lengthAdjust="spacing" textLength="338.2601" x="197.6351" y="29.3055">Horizon Bank migration control thread</text><!--entity Intake--><g id="elem_Intake"><rect fill="#DDEBF7" height="63.2147" rx="3.1672" ry="3.1672" style="stroke:#333333;stroke-width:0.6334459459459459;" width="220.4392" x="304.0541" y="55.8682"/><text fill="#000000" font-family="Arial" font-size="16.4696" lengthAdjust="spacing" textLength="130.4899" x="316.723" y="83.9854">Trigger and intake</text><text fill="#000000" font-family="Arial" font-size="16.4696" lengthAdjust="spacing" textLength="195.1014" x="316.723" y="102.9238">Outcome, scope, evidence</text></g><!--entity Impact--><g id="elem_Impact"><rect fill="#DDEBF7" height="63.2147" rx="3.1672" ry="3.1672" style="stroke:#333333;stroke-width:0.6334459459459459;" width="250.8446" x="288.8514" y="167.3547"/><text fill="#000000" font-family="Arial" font-size="16.4696" lengthAdjust="spacing" textLength="187.5" x="301.5203" y="195.4719">Impact and dependencies</text><text fill="#000000" font-family="Arial" font-size="16.4696" lengthAdjust="spacing" textLength="225.5068" x="301.5203" y="214.4103">Service, data, controls, owners</text></g><!--entity States--><g id="elem_States"><rect fill="#E4DFEC" height="63.2147" rx="3.1672" ry="3.1672" style="stroke:#333333;stroke-width:0.6334459459459459;" width="215.3716" x="54.4764" y="278.8412"/><text fill="#000000" font-family="Arial" font-size="16.4696" lengthAdjust="spacing" textLength="139.3581" x="67.1453" y="306.9584">Architecture states</text><text fill="#000000" font-family="Arial" font-size="16.4696" lengthAdjust="spacing" textLength="190.0338" x="67.1453" y="325.8968">Current | transition | target</text></g><!--entity Wave--><g id="elem_Wave"><rect fill="#E2F0D9" height="63.2147" rx="3.1672" ry="3.1672" style="stroke:#333333;stroke-width:0.6334459459459459;" width="231.8412" x="46.2416" y="390.3277"/><text fill="#000000" font-family="Arial" font-size="16.4696" lengthAdjust="spacing" textLength="177.3649" x="58.9105" y="418.4449">Bounded migration wave</text><text fill="#000000" font-family="Arial" font-size="16.4696" lengthAdjust="spacing" textLength="206.5034" x="58.9105" y="437.3833">Entry, exit, support, fallback</text></g><!--entity Ready--><g id="elem_Ready"><rect fill="#FFF2CC" height="63.2147" rx="3.1672" ry="3.1672" style="stroke:#333333;stroke-width:0.6334459459459459;" width="240.7095" x="41.8074" y="501.8141"/><text fill="#000000" font-family="Arial" font-size="16.4696" lengthAdjust="spacing" textLength="181.1655" x="54.4764" y="529.9314">Rehearsal and readiness</text><text fill="#000000" font-family="Arial" font-size="16.4696" lengthAdjust="spacing" textLength="215.3716" x="54.4764" y="548.8698">Data, operations, people, risk</text></g><!--entity Gate--><g id="elem_Gate"><polygon fill="#FFF2CC" points="257.1791,629.1368,222.3395,613.3006,152.6605,613.3006,117.8209,629.1368,152.6605,644.9729,222.3395,644.9729,257.1791,629.1368" style="stroke:#181818;stroke-width:0.6334459459459459;"/><text fill="#000000" font-family="Arial" font-size="16.4696" lengthAdjust="spacing" textLength="69.6791" x="152.6605" y="635.0834">Proceed?</text></g><!--entity Cutover--><g id="elem_Cutover"><rect fill="#FCE4D6" height="63.2147" rx="3.1672" ry="3.1672" style="stroke:#333333;stroke-width:0.6334459459459459;" width="201.4358" x="86.7821" y="693.1148"/><text fill="#000000" font-family="Arial" font-size="16.4696" lengthAdjust="spacing" textLength="54.4764" x="99.451" y="721.232">Cutover</text><text fill="#000000" font-family="Arial" font-size="16.4696" lengthAdjust="spacing" textLength="176.098" x="99.451" y="740.1705">Transfer bounded cohort</text></g><!--entity Verify--><g id="elem_Verify"><rect fill="#E2F0D9" height="63.2147" rx="3.1672" ry="3.1672" style="stroke:#333333;stroke-width:0.6334459459459459;" width="248.3108" x="63.3446" y="804.6013"/><text fill="#000000" font-family="Arial" font-size="16.4696" lengthAdjust="spacing" textLength="144.4257" x="76.0135" y="832.7185">Verify and reconcile</text><text fill="#000000" font-family="Arial" font-size="16.4696" lengthAdjust="spacing" textLength="222.973" x="76.0135" y="851.6569">Service, records, control totals</text></g><!--entity Check--><g id="elem_Check"><polygon fill="#FFF2CC" points="347.1284,931.9239,267.3142,916.0878,107.6858,916.0878,27.8716,931.9239,107.6858,947.7601,267.3142,947.7601,347.1284,931.9239" style="stroke:#181818;stroke-width:0.6334459459459459;"/><text fill="#000000" font-family="Arial" font-size="16.4696" lengthAdjust="spacing" textLength="159.6284" x="107.6858" y="937.8705">Evidence acceptable?</text></g><!--entity Fallback--><g id="elem_Fallback"><rect fill="#F4CCCC" height="63.2147" rx="3.1672" ry="3.1672" style="stroke:#333333;stroke-width:0.6334459459459459;" width="291.3851" x="279.9831" y="995.902"/><text fill="#000000" font-family="Arial" font-size="16.4696" lengthAdjust="spacing" textLength="240.7095" x="292.652" y="1024.0192">Fallback to recoverable boundary</text><text fill="#000000" font-family="Arial" font-size="16.4696" lengthAdjust="spacing" textLength="266.0473" x="292.652" y="1042.9576">Restore service, reconcile, reassess</text></g><!--entity Close--><g id="elem_Close"><rect fill="#D9EAD3" height="63.2147" rx="3.1672" ry="3.1672" style="stroke:#333333;stroke-width:0.6334459459459459;" width="231.8412" x="24.7044" y="995.902"/><text fill="#000000" font-family="Arial" font-size="16.4696" lengthAdjust="spacing" textLength="206.5034" x="37.3733" y="1024.0192">Stabilise and decommission</text><text fill="#000000" font-family="Arial" font-size="16.4696" lengthAdjust="spacing" textLength="187.5" x="37.3733" y="1042.9576">Close residual obligations</text></g><!--entity Learn--><g id="elem_Learn"><rect fill="#D9EAD3" height="63.2147" rx="3.1672" ry="3.1672" style="stroke:#333333;stroke-width:0.6334459459459459;" width="290.1182" x="240.076" y="1107.3885"/><text fill="#000000" font-family="Arial" font-size="16.4696" lengthAdjust="spacing" textLength="162.1622" x="252.7449" y="1135.5057">Benefits and feedback</text><text fill="#000000" font-family="Arial" font-size="16.4696" lengthAdjust="spacing" textLength="264.7804" x="252.7449" y="1154.4441">Update models, risks and next wave</text></g><!--link Intake to Impact--><g id="link_Intake_Impact"><path d="M414.2736,119.7322 C414.2736,134.5802 414.2736,144.7153 414.2736,159.5253 " fill="none" id="Intake-to-Impact" style="stroke:#333333;stroke-width:1.5202702702702702;"/><polygon fill="#333333" points="414.2736,167.1266,419.3412,155.7246,414.2736,160.7922,409.2061,155.7246,414.2736,167.1266" style="stroke:#333333;stroke-width:1.5202702702702702;"/><text fill="#000000" font-family="Arial" font-size="16.4696" lengthAdjust="spacing" textLength="111.4865" x="415.5405" y="149.8638">assess change</text></g><!--link Impact to States--><g id="link_Impact_States"><path d="M288.6233,207.8065 C234.7804,213.8876 180.3547,224.8462 163.4291,244.6351 C155.549,253.8454 153.4862,259.2032 154.4364,271.0866 " fill="none" id="Impact-to-States" style="stroke:#333333;stroke-width:1.5202702702702702;"/><polygon fill="#333333" points="155.0422,278.6638,159.1849,266.8942,154.5374,272.3495,149.082,267.702,155.0422,278.6638" style="stroke:#333333;stroke-width:1.5202702702702702;"/><text fill="#000000" font-family="Arial" font-size="16.4696" lengthAdjust="spacing" textLength="230.5743" x="164.6959" y="261.3503">establish baseline and direction</text></g><!--link States to Wave--><g id="link_States_Wave"><path d="M162.1622,342.7052 C162.1622,357.5532 162.1622,367.6883 162.1622,382.4983 " fill="none" id="States-to-Wave" style="stroke:#333333;stroke-width:1.5202702702702702;"/><polygon fill="#333333" points="162.1622,390.0996,167.2297,378.6976,162.1622,383.7652,157.0946,378.6976,162.1622,390.0996" style="stroke:#333333;stroke-width:1.5202702702702702;"/><text fill="#000000" font-family="Arial" font-size="16.4696" lengthAdjust="spacing" textLength="186.2331" x="163.4291" y="372.8368">define operable sequence</text></g><!--link Wave to Ready--><g id="link_Wave_Ready"><path d="M162.1622,454.1917 C162.1622,469.0397 162.1622,479.1748 162.1622,493.9848 " fill="none" id="Wave-to-Ready" style="stroke:#333333;stroke-width:1.5202702702702702;"/><polygon fill="#333333" points="162.1622,501.5861,167.2297,490.1841,162.1622,495.2516,157.0946,490.1841,162.1622,501.5861" style="stroke:#333333;stroke-width:1.5202702702702702;"/><text fill="#000000" font-family="Arial" font-size="16.4696" lengthAdjust="spacing" textLength="154.5608" x="163.4291" y="484.3232">prepare and rehearse</text></g><!--link Ready to Gate--><g id="link_Ready_Gate"><path d="M41.7314,558.3555 C19.5608,568.0219 7.6014,581.3116 22.8041,599.3648 C36.0177,615.0743 77.3662,621.5343 118.4769,624.7015 " fill="none" id="Ready-to-Gate" style="stroke:#333333;stroke-width:1.5202702702702702;"/><polygon fill="#333333" points="126.0557,625.2854,115.0767,619.357,119.74,624.7989,114.2981,629.4622,126.0557,625.2854" style="stroke:#333333;stroke-width:1.5202702702702702;"/><text fill="#000000" font-family="Arial" font-size="16.4696" lengthAdjust="spacing" textLength="193.8345" x="24.0709" y="595.8097">submit readiness evidence</text></g><!--link Gate to Ready--><g id="link_Gate_Ready"><path d="M209.0625,613.0219 C213.1546,609.0946 216.8792,604.4957 219.1723,599.3648 C222.8336,591.13 223.125,587.19 219.1723,579.0946 C216.7399,574.141 218.5734,575.2148 214.8107,571.0594 " fill="none" id="Gate-to-Ready" style="stroke:#333333;stroke-width:1.5202702702702702;"/><polygon fill="#333333" points="209.7086,565.4248,213.6053,577.2781,213.9604,570.1203,221.1182,570.4753,209.7086,565.4248" style="stroke:#333333;stroke-width:1.5202702702702702;"/><text fill="#000000" font-family="Arial" font-size="16.4696" lengthAdjust="spacing" textLength="119.0878" x="224.2399" y="595.8097">stop and correct</text></g><!--link Gate to Cutover--><g id="link_Gate_Cutover"><path d="M187.5,645.3657 C187.5,658.1106 187.5,669.2466 187.5,685.1841 " fill="none" id="Gate-to-Cutover" style="stroke:#333333;stroke-width:1.5202702702702702;"/><polygon fill="#333333" points="187.5,692.7854,192.5676,681.3834,187.5,686.451,182.4324,681.3834,187.5,692.7854" style="stroke:#333333;stroke-width:1.5202702702702702;"/><text fill="#000000" font-family="Arial" font-size="16.4696" lengthAdjust="spacing" textLength="126.6892" x="188.7669" y="675.6239">proceed authority</text></g><!--link Cutover to Verify--><g id="link_Cutover_Verify"><path d="M187.5,756.9788 C187.5,771.8268 187.5,781.962 187.5,796.7719 " fill="none" id="Cutover-to-Verify" style="stroke:#333333;stroke-width:1.5202702702702702;"/><polygon fill="#333333" points="187.5,804.3733,192.5676,792.9712,187.5,798.0388,182.4324,792.9712,187.5,804.3733" style="stroke:#333333;stroke-width:1.5202702702702702;"/><text fill="#000000" font-family="Arial" font-size="16.4696" lengthAdjust="spacing" textLength="146.9595" x="188.7669" y="787.1104">migrate and observe</text></g><!--link Verify to Check--><g id="link_Verify_Check"><path d="M187.5,868.0346 C187.5,884.1495 187.5,895.6022 187.5,908.4358 " fill="none" id="Verify-to-Check" style="stroke:#333333;stroke-width:1.5202702702702702;"/><polygon fill="#333333" points="187.5,916.0371,192.5676,904.6351,187.5,909.7027,182.4324,904.6351,187.5,916.0371" style="stroke:#333333;stroke-width:1.5202702702702702;"/><text fill="#000000" font-family="Arial" font-size="16.4696" lengthAdjust="spacing" textLength="122.8885" x="188.7669" y="898.5969">present evidence</text></g><!--link Check to Close--><g id="link_Check_Close"><path d="M179.962,948.1528 C173.5389,960.8978 167.5299,972.8449 159.5104,988.7824 " fill="none" id="Check-to-Close" style="stroke:#333333;stroke-width:1.5202702702702702;"/><polygon fill="#333333" points="156.0938,995.5726,165.7456,987.6651,158.941,989.9141,156.692,983.1095,156.0938,995.5726" style="stroke:#333333;stroke-width:1.5202702702702702;"/><text fill="#000000" font-family="Arial" font-size="16.4696" lengthAdjust="spacing" textLength="79.8142" x="174.8311" y="978.4111">acceptable</text></g><!--link Check to Fallback--><g id="link_Check_Fallback"><path d="M226.1529,947.7854 C237.4282,952.1435 249.7297,957.0211 260.9797,961.6959 C281.4527,970.2094 286.0389,973.592 306.5878,981.9662 C317.9139,986.5903 322.8359,988.5775 334.7067,993.113 " fill="none" id="Check-to-Fallback" style="stroke:#333333;stroke-width:1.5202702702702702;"/><polygon fill="#333333" points="341.8074,995.826,332.965,987.0227,335.8902,993.5652,329.3477,996.4903,341.8074,995.826" style="stroke:#333333;stroke-width:1.5202702702702702;"/><text fill="#000000" font-family="Arial" font-size="16.4696" lengthAdjust="spacing" textLength="87.4155" x="307.8547" y="978.4111">failed check</text></g><!--link Fallback to Impact--><g id="link_Fallback_Impact"><path d="M420.038,995.8006 C417.1622,977.6841 414.2736,954.1959 414.2736,933.1908 C414.2736,309.2466 414.2736,309.2466 414.2736,309.2466 C414.2736,282.7685 414.2736,260.2685 414.2736,238.4273 " fill="none" id="Fallback-to-Impact" style="stroke:#333333;stroke-width:1.5202702702702702;"/><polygon fill="#333333" points="414.2736,230.826,409.2061,242.228,414.2736,237.1604,419.3412,242.228,414.2736,230.826" style="stroke:#333333;stroke-width:1.5202702702702702;"/><text fill="#000000" font-family="Arial" font-size="16.4696" lengthAdjust="spacing" textLength="165.9628" x="415.5405" y="635.7168">reassess assumptions</text></g><!--link Close to Learn--><g id="link_Close_Learn"><path d="M209.0498,1059.3353 C242.6731,1074.3226 276.1441,1089.2304 309.7674,1104.2177 " fill="none" id="Close-to-Learn" style="stroke:#333333;stroke-width:1.5202702702702702;"/><polygon fill="#333333" points="316.7103,1107.3125,308.3592,1098.0418,310.9246,1104.7335,304.2329,1107.2989,316.7103,1107.3125" style="stroke:#333333;stroke-width:1.5202702702702702;"/><text fill="#000000" font-family="Arial" font-size="16.4696" lengthAdjust="spacing" textLength="140.625" x="286.3176" y="1089.8976">measure outcomes</text></g><!--link Learn to Impact--><g id="link_Learn_Impact"><path d="M530.435,1118.4991 C577.7027,1103.3851 618.2432,1076.527 618.2432,1028.8412 C618.2432,309.2466 618.2432,309.2466 618.2432,309.2466 C618.2432,265.8935 589.0503,242.3916 547.0782,226.6315 " fill="none" id="Learn-to-Impact" style="stroke:#333333;stroke-width:1.5202702702702702;"/><polygon fill="#333333" points="539.962,223.9594,548.8549,232.7117,545.8922,226.1861,552.4177,223.2234,539.962,223.9594" style="stroke:#333333;stroke-width:1.5202702702702702;"/><text fill="#000000" font-family="Arial" font-size="16.4696" lengthAdjust="spacing" textLength="121.6216" x="619.5101" y="675.6239">inform later wave</text></g><rect fill="none" height="53.4594" id="_legend" rx="9.5017" ry="9.5017" style="stroke:#000000;stroke-width:1.2668918918918919;" width="604.3074" x="64.6115" y="1192.1403"/><text fill="#000000" font-family="Arial" font-size="17.7365" lengthAdjust="spacing" textLength="534.6284" x="70.9459" y="1215.1114">Every decision arrow is labelled. A failed check returns to a defined</text><text fill="#000000" font-family="Arial" font-size="17.7365" lengthAdjust="spacing" textLength="591.6385" x="70.9459" y="1235.5066">recoverable boundary; the roadmap and target remain assumption-based.</text><!--SRC=[RLNVRzis47xdNy75hudRfjtQki26HBQs0WLM9DtwufSJURO8KwHAKabSx8_V7IahCX30W2Nok-z-VNVwnJXb1urokNn5lvYE5kEhte9BGsUlKeiTBdjw5CaaY_8l7ynFx-Gjk8Fip3v0ClIgl4l1MvdQWA15yhrCNZO-9Tz9RG8gXeceW3ZU__fQFXgTMX4FnlKGe9FEQupOopSVPeU1dF3XzVNiKECE1fjgydXlVg9yyrOmFRWzKLzy2sQ_no31QMbSWWDktTz3Khx3IncLx-aF7un6f_12GfIVCqWkrklDRVr-JlMvwq6bpAInHySs1kFMtMDuC8g8D2IuFEKUBwL_T1XYeIt6Bz3U1DMQHEz3G1aJ9AQiXX3G9VcVJ9HqDBcez09XZoaJtcUaN6pUhUjDDIUyzGF5fcVTU8G7Idj3OHqfsoUJAFMXxtsWXnrOsu0wPDBl12JAw_hr-kESyWvRX131vkovfSPXf3ZNEMEgOl54EVVeUqkr22OMpZj27-MYhklhgX8jFi6UGhhu6hn2r7zap9-KomIP-Qs6v1ymRDqthiAE-jYCoIdVKlZPU0IHVKN5-6rk_oy6ipkEGLDVbB4uwnUV1Hqld-Ng4zZIiD7qL8mfxiqe5WbAOP-WiLXog5fKXvUIgCSAymImHugLhKeg48vRTuSnUUx-FB0SB3z2Z5Jhx6EYMjJlgkhS3GcYCTP471LA4kzCZDGLafFrT1um6ZrG4trZpRuqh8IUhnVhZvkRzTdqtAB3dKanK-weNUnyw_xfDJUienbbcNEh2yJXKyfgoxHVI3DkeXq7w-hgzzCmh6H9JQgM_A4OZnangdibgJ9KB1DRsK14Ix8hwKqhP4IoKLRlYXS2mx8ekSuHVmpSCP7l6LWakP9zGDeXEEeZInn5kMHOLkMAHgNfJ7fM_RGlH0OmyYH1fioobZ0a4gX9nsVGoMlaRSWkINoSXJXPCsYKtMgStXARRrWPACRBx36hBQSGUL5CCPMB3CbTNSs4EhkSbBIY3K12esZuJapdPtqwYP0RDdHzLeue_8mhZQQO2SPRp9S56qMvEACoRkT39otb5h9KXCKzBTFnuo0sL8aZozUmT2M4u1-bYMJGeAKub_BcB6AAZJQdYpnTCFPUYvVcx1DzZMW8FEWEIWFAEYM63eoRvNR5MjDBGM6LuFu7]--></g></svg>