<svg xmlns="http://www.w3.org/2000/svg" width="1260" height="355" viewBox="0 0 1260 355" role="img" aria-labelledby="title desc">
  <title id="title">FIG-06-01. Online Store Order Fulfilment BPMN Process</title>
  <desc id="desc">BPMN process showing order fulfilment inside the Online Store with a message start event.</desc>
  <defs>
    <marker id="arrow" viewBox="0 0 10 10" refX="9" refY="5" markerWidth="8" markerHeight="8" orient="auto-start-reverse"><path d="M 0 0 L 10 5 L 0 10 z" fill="#222"/></marker>
    <marker id="msgArrow" viewBox="0 0 10 10" refX="9" refY="5" markerWidth="8" markerHeight="8" orient="auto-start-reverse"><path d="M 0 0 L 10 5 L 0 10 z" fill="#ffffff" stroke="#6941c6" stroke-width="1.5"/></marker>
    <style>
      .pool { fill:#ffffff; stroke:#222; stroke-width:1.5; }
      .lane { fill:#f7f8fa; stroke:#667085; stroke-width:1; }
      .task { fill:#eef4ff; stroke:#175cd3; stroke-width:1.4; }
      .event { fill:#ffffff; stroke:#222; stroke-width:2; }
      .innerEvent { fill:none; stroke:#222; stroke-width:1.2; }
      .end { fill:#ffffff; stroke:#222; stroke-width:4; }
      .gateway { fill:#fff7e6; stroke:#b54708; stroke-width:1.5; }
      .flow { stroke:#222; stroke-width:1.5; fill:none; marker-end:url(#arrow); }
      .message { stroke:#6941c6; stroke-width:1.7; stroke-dasharray:7 5; fill:none; marker-end:url(#msgArrow); }
      .label { font: 15px Arial, sans-serif; fill:#111827; }
      .small { font: 13px Arial, sans-serif; fill:#344054; }
      .title { font: bold 18px Arial, sans-serif; fill:#111827; }
      .poolText { font: bold 14px Arial, sans-serif; fill:#111827; }
      .gatewayMarker { font: 16px Arial, sans-serif; fill:#111827; }
      .eventMarker, .eventMarkerCircle { fill:none; stroke:#111827; stroke-width:1.3; }
      .messageIcon { fill:#ffffff; stroke:#111827; stroke-width:1.2; }
      .iconLine, .timerHand, .timerIcon { fill:none; stroke:#111827; stroke-width:1.2; }
    </style>
  </defs>
  <text x="630" y="26" text-anchor="middle" class="title">FIG-06-01. Online Store Order Fulfilment BPMN Process</text>
<rect x="40" y="55" width="1180" height="260" rx="4" class="pool"/>
<text x="62" y="178" text-anchor="start" class="poolText">Online Store</text>
<rect x="40" y="55" width="1180" height="100" class="lane"/>
<text x="62" y="90" text-anchor="start" class="poolText">Customer</text>
<text x="62" y="106" text-anchor="start" class="poolText">Service</text>
<rect x="40" y="155" width="1180" height="160" class="lane"/>
<text x="62" y="228" text-anchor="start" class="poolText">Fulfilment</text>
<circle cx="180" cy="105" r="18" class="event"/>
<rect x="170" y="98" width="20" height="14" class="messageIcon"/>
<path d="M170 98 L180 106 L190 98" class="iconLine"/>
<text x="180" y="132" text-anchor="middle" class="small">Order</text>
<text x="180" y="148" text-anchor="middle" class="small">received</text>
<rect x="245" y="78" width="120" height="54" rx="10" class="task"/>
<text x="305" y="110" text-anchor="middle" class="label">Receive order</text>
<rect x="430" y="205" width="120" height="54" rx="10" class="task"/>
<text x="490" y="237" text-anchor="middle" class="label">Check stock</text>
<polygon points="660,197 695,232 660,267 625,232" class="gateway"/>
<text x="660" y="237" text-anchor="middle" class="gatewayMarker">X</text>
<text x="660" y="281" text-anchor="middle" class="small">Stock</text>
<text x="660" y="297" text-anchor="middle" class="small">available?</text>
<rect x="750" y="205" width="105" height="54" rx="10" class="task"/>
<text x="802" y="237" text-anchor="middle" class="label">Pick items</text>
<rect x="900" y="205" width="105" height="54" rx="10" class="task"/>
<text x="952" y="237" text-anchor="middle" class="label">Pack parcel</text>
<rect x="1040" y="205" width="105" height="54" rx="10" class="task"/>
<text x="1092" y="237" text-anchor="middle" class="label">Dispatch parcel</text>
<circle cx="1190" cy="232" r="18" class="end"/>
<text x="1191" y="259" text-anchor="middle" class="small">Order</text>
<text x="1191" y="275" text-anchor="middle" class="small">dispatched</text>
<rect x="750" y="78" width="105" height="54" rx="10" class="task"/>
<text x="802" y="110" text-anchor="middle" class="label">Cancel order</text>
<rect x="900" y="78" width="120" height="54" rx="10" class="task"/>
<text x="960" y="110" text-anchor="middle" class="label">Notify customer</text>
<circle cx="1090" cy="105" r="18" class="end"/>
<text x="1090" y="130" text-anchor="middle" class="small">Customer</text>
<text x="1090" y="146" text-anchor="middle" class="small">notified of</text>
<text x="1090" y="162" text-anchor="middle" class="small">cancellation</text>
<path d="M198 105 L245 105" class="flow"/>
<path d="M365 105 L400 105 L400 232 L430 232" class="flow"/>
<path d="M550 232 L625 232" class="flow"/>
<path d="M695 232 L750 232" class="flow"/>
<text x="744" y="222" text-anchor="middle" class="small">[in stock]</text>
<path d="M855 232 L900 232" class="flow"/>
<path d="M1005 232 L1040 232" class="flow"/>
<path d="M1145 232 L1172 232" class="flow"/>
<path d="M660 197 L690 130 L750 105" class="flow"/>
<text x="726" y="142" text-anchor="middle" class="small">[out of</text>
<text x="726" y="158" text-anchor="middle" class="small">stock]</text>
<path d="M855 105 L900 105" class="flow"/>
<path d="M1020 105 L1072 105" class="flow"/>
</svg>
