<?xml version="1.0" encoding="us-ascii" standalone="no"?><svg xmlns="http://www.w3.org/2000/svg" xmlns:xlink="http://www.w3.org/1999/xlink" contentStyleType="text/css" height="947px" preserveAspectRatio="none" style="width:1686px;height:947px;background:#FFFFFF;" version="1.1" viewBox="0 0 1686 947" width="1686px" zoomAndPan="magnify"><defs/><g><text fill="#000000" font-family="Arial" font-size="14" font-weight="bold" lengthAdjust="spacing" textLength="451" x="618.5" y="28.1318">FIG-04-04. Horizon Bank Payment Submission Sequence Diagram</text><rect fill="#FFFFFF" height="663.4658" style="stroke:#181818;stroke-width:1.0;" width="10" x="562.5" y="152.3945"/><rect fill="#FFFFFF" height="584.1699" style="stroke:#181818;stroke-width:1.0;" width="10" x="751.5" y="182.4932"/><rect fill="#FFFFFF" height="554.0713" style="stroke:#181818;stroke-width:1.0;" width="10" x="902.5" y="212.5918"/><rect fill="#FFFFFF" height="30.0986" style="stroke:#181818;stroke-width:1.0;" width="10" x="1050.5" y="242.6904"/><rect fill="#FFFFFF" height="330.1836" style="stroke:#181818;stroke-width:1.0;" width="10" x="1191.5" y="329.085"/><rect fill="#FFFFFF" height="30.0986" style="stroke:#181818;stroke-width:1.0;" width="10" x="1368.5" y="359.1836"/><rect fill="none" height="449.7754" style="stroke:#000000;stroke-width:1.5;" width="993" x="686" y="287.7891"/><rect fill="none" height="247.9863" style="stroke:#000000;stroke-width:1.5;" width="973" x="696" y="404.2822"/><line style="stroke:#181818;stroke-width:0.5;stroke-dasharray:5.0,5.0;" x1="404" x2="404" y1="120.2959" y2="852.959"/><line style="stroke:#181818;stroke-width:0.5;stroke-dasharray:5.0,5.0;" x1="567.5" x2="567.5" y1="120.2959" y2="852.959"/><line style="stroke:#181818;stroke-width:0.5;stroke-dasharray:5.0,5.0;" x1="756" x2="756" y1="120.2959" y2="852.959"/><line style="stroke:#181818;stroke-width:0.5;stroke-dasharray:5.0,5.0;" x1="907" x2="907" y1="120.2959" y2="852.959"/><line style="stroke:#181818;stroke-width:0.5;stroke-dasharray:5.0,5.0;" x1="1055.5" x2="1055.5" y1="120.2959" y2="852.959"/><line style="stroke:#181818;stroke-width:0.5;stroke-dasharray:5.0,5.0;" x1="1196.5" x2="1196.5" y1="120.2959" y2="852.959"/><line style="stroke:#181818;stroke-width:0.5;stroke-dasharray:5.0,5.0;" x1="1373" x2="1373" y1="120.2959" y2="852.959"/><line style="stroke:#181818;stroke-width:0.5;stroke-dasharray:5.0,5.0;" x1="1484" x2="1484" y1="120.2959" y2="852.959"/><line style="stroke:#181818;stroke-width:0.5;stroke-dasharray:5.0,5.0;" x1="1603" x2="1603" y1="120.2959" y2="852.959"/><text fill="#000000" font-family="Arial" font-size="14" lengthAdjust="spacing" textLength="101" x="351" y="117.3291">Retail Customer</text><ellipse cx="404.5" cy="52.6973" fill="#FFFFFF" rx="8" ry="8" style="stroke:#333333;stroke-width:0.5;"/><path d="M404.5,60.6973 L404.5,87.6973 M391.5,68.6973 L417.5,68.6973 M404.5,87.6973 L391.5,102.6973 M404.5,87.6973 L417.5,102.6973 " fill="none" style="stroke:#333333;stroke-width:0.5;"/><text fill="#000000" font-family="Arial" font-size="14" lengthAdjust="spacing" textLength="101" x="351" y="865.0908">Retail Customer</text><ellipse cx="404.5" cy="876.5576" fill="#FFFFFF" rx="8" ry="8" style="stroke:#333333;stroke-width:0.5;"/><path d="M404.5,884.5576 L404.5,911.5576 M391.5,892.5576 L417.5,892.5576 M404.5,911.5576 L391.5,926.5576 M404.5,911.5576 L417.5,926.5576 " fill="none" style="stroke:#333333;stroke-width:0.5;"/><rect fill="#E2E2F0" height="46.1973" rx="2.5" ry="2.5" style="stroke:#181818;stroke-width:0.5;" width="104" x="515.5" y="73.0986"/><text fill="#000000" font-family="Arial" font-size="14" lengthAdjust="spacing" textLength="90" x="522.5" y="93.2305">Horizon Digital</text><text fill="#000000" font-family="Arial" font-size="14" lengthAdjust="spacing" textLength="60" x="537.5" y="109.3291">Channels</text><rect fill="#E2E2F0" height="46.1973" rx="2.5" ry="2.5" style="stroke:#181818;stroke-width:0.5;" width="104" x="515.5" y="851.959"/><text fill="#000000" font-family="Arial" font-size="14" lengthAdjust="spacing" textLength="90" x="522.5" y="872.0908">Horizon Digital</text><text fill="#000000" font-family="Arial" font-size="14" lengthAdjust="spacing" textLength="60" x="537.5" y="888.1895">Channels</text><rect fill="#E2E2F0" height="30.0986" rx="2.5" ry="2.5" style="stroke:#181818;stroke-width:0.5;" width="101" x="706" y="89.1973"/><text fill="#000000" font-family="Arial" font-size="14" lengthAdjust="spacing" textLength="87" x="713" y="109.3291">Payments API</text><rect fill="#E2E2F0" height="30.0986" rx="2.5" ry="2.5" style="stroke:#181818;stroke-width:0.5;" width="101" x="706" y="851.959"/><text fill="#000000" font-family="Arial" font-size="14" lengthAdjust="spacing" textLength="87" x="713" y="872.0908">Payments API</text><rect fill="#E2E2F0" height="46.1973" rx="2.5" ry="2.5" style="stroke:#181818;stroke-width:0.5;" width="159" x="828" y="73.0986"/><text fill="#000000" font-family="Arial" font-size="14" lengthAdjust="spacing" textLength="145" x="835" y="93.2305">Payment Orchestration</text><text fill="#000000" font-family="Arial" font-size="14" lengthAdjust="spacing" textLength="47" x="884" y="109.3291">Service</text><rect fill="#E2E2F0" height="46.1973" rx="2.5" ry="2.5" style="stroke:#181818;stroke-width:0.5;" width="159" x="828" y="851.959"/><text fill="#000000" font-family="Arial" font-size="14" lengthAdjust="spacing" textLength="145" x="835" y="872.0908">Payment Orchestration</text><text fill="#000000" font-family="Arial" font-size="14" lengthAdjust="spacing" textLength="47" x="884" y="888.1895">Service</text><rect fill="#E2E2F0" height="46.1973" rx="2.5" ry="2.5" style="stroke:#181818;stroke-width:0.5;" width="112" x="999.5" y="73.0986"/><text fill="#000000" font-family="Arial" font-size="14" lengthAdjust="spacing" textLength="98" x="1006.5" y="93.2305">Financial Crime</text><text fill="#000000" font-family="Arial" font-size="14" lengthAdjust="spacing" textLength="52" x="1029.5" y="109.3291">Platform</text><rect fill="#E2E2F0" height="46.1973" rx="2.5" ry="2.5" style="stroke:#181818;stroke-width:0.5;" width="112" x="999.5" y="851.959"/><text fill="#000000" font-family="Arial" font-size="14" lengthAdjust="spacing" textLength="98" x="1006.5" y="872.0908">Financial Crime</text><text fill="#000000" font-family="Arial" font-size="14" lengthAdjust="spacing" textLength="52" x="1029.5" y="888.1895">Platform</text><rect fill="#E2E2F0" height="46.1973" rx="2.5" ry="2.5" style="stroke:#181818;stroke-width:0.5;" width="150" x="1121.5" y="73.0986"/><text fill="#000000" font-family="Arial" font-size="14" lengthAdjust="spacing" textLength="136" x="1128.5" y="93.2305">Enterprise Integration</text><text fill="#000000" font-family="Arial" font-size="14" lengthAdjust="spacing" textLength="52" x="1170.5" y="109.3291">Platform</text><rect fill="#E2E2F0" height="46.1973" rx="2.5" ry="2.5" style="stroke:#181818;stroke-width:0.5;" width="150" x="1121.5" y="851.959"/><text fill="#000000" font-family="Arial" font-size="14" lengthAdjust="spacing" textLength="136" x="1128.5" y="872.0908">Enterprise Integration</text><text fill="#000000" font-family="Arial" font-size="14" lengthAdjust="spacing" textLength="52" x="1170.5" y="888.1895">Platform</text><rect fill="#E2E2F0" height="46.1973" rx="2.5" ry="2.5" style="stroke:#181818;stroke-width:0.5;" width="97" x="1325" y="73.0986"/><text fill="#000000" font-family="Arial" font-size="14" lengthAdjust="spacing" textLength="83" x="1332" y="93.2305">Core Deposit</text><text fill="#000000" font-family="Arial" font-size="14" lengthAdjust="spacing" textLength="46" x="1350.5" y="109.3291">System</text><rect fill="#E2E2F0" height="46.1973" rx="2.5" ry="2.5" style="stroke:#181818;stroke-width:0.5;" width="97" x="1325" y="851.959"/><text fill="#000000" font-family="Arial" font-size="14" lengthAdjust="spacing" textLength="83" x="1332" y="872.0908">Core Deposit</text><text fill="#000000" font-family="Arial" font-size="14" lengthAdjust="spacing" textLength="46" x="1350.5" y="888.1895">System</text><text fill="#000000" font-family="Arial" font-size="14" lengthAdjust="spacing" textLength="99" x="1432" y="101.2305">Payment Status</text><text fill="#000000" font-family="Arial" font-size="14" lengthAdjust="spacing" textLength="34" x="1464.5" y="117.3291">Store</text><path d="M1466.5,52.0986 C1466.5,42.0986 1484.5,42.0986 1484.5,42.0986 C1484.5,42.0986 1502.5,42.0986 1502.5,52.0986 L1502.5,78.0986 C1502.5,88.0986 1484.5,88.0986 1484.5,88.0986 C1484.5,88.0986 1466.5,88.0986 1466.5,78.0986 L1466.5,52.0986 " fill="#F2F5F7" style="stroke:#333333;stroke-width:1.5;"/><path d="M1466.5,52.0986 C1466.5,62.0986 1484.5,62.0986 1484.5,62.0986 C1484.5,62.0986 1502.5,62.0986 1502.5,52.0986 " fill="none" style="stroke:#333333;stroke-width:1.5;"/><text fill="#000000" font-family="Arial" font-size="14" lengthAdjust="spacing" textLength="99" x="1432" y="865.0908">Payment Status</text><text fill="#000000" font-family="Arial" font-size="14" lengthAdjust="spacing" textLength="34" x="1464.5" y="881.1895">Store</text><path d="M1466.5,894.1563 C1466.5,884.1563 1484.5,884.1563 1484.5,884.1563 C1484.5,884.1563 1502.5,884.1563 1502.5,894.1563 L1502.5,920.1563 C1502.5,930.1563 1484.5,930.1563 1484.5,930.1563 C1484.5,930.1563 1466.5,930.1563 1466.5,920.1563 L1466.5,894.1563 " fill="#F2F5F7" style="stroke:#333333;stroke-width:1.5;"/><path d="M1466.5,894.1563 C1466.5,904.1563 1484.5,904.1563 1484.5,904.1563 C1484.5,904.1563 1502.5,904.1563 1502.5,894.1563 " fill="none" style="stroke:#333333;stroke-width:1.5;"/><path d="M1552,94.1973 L1654,94.1973 C1659,94.1973 1659,107.2466 1659,107.2466 C1659,107.2466 1659,120.2959 1654,120.2959 L1552,120.2959 C1547,120.2959 1547,107.2466 1547,107.2466 C1547,107.2466 1547,94.1973 1552,94.1973 " fill="#E2E2F0" style="stroke:#181818;stroke-width:0.5;"/><path d="M1654,94.1973 C1649,94.1973 1649,107.2466 1649,107.2466 C1649,120.2959 1654,120.2959 1654,120.2959 " fill="none" style="stroke:#181818;stroke-width:0.5;"/><text fill="#000000" font-family="Arial" font-size="14" lengthAdjust="spacing" textLength="92" x="1552" y="112.3291">Event Platform</text><path d="M1552,851.959 L1654,851.959 C1659,851.959 1659,865.0083 1659,865.0083 C1659,865.0083 1659,878.0576 1654,878.0576 L1552,878.0576 C1547,878.0576 1547,865.0083 1547,865.0083 C1547,865.0083 1547,851.959 1552,851.959 " fill="#E2E2F0" style="stroke:#181818;stroke-width:0.5;"/><path d="M1654,851.959 C1649,851.959 1649,865.0083 1649,865.0083 C1649,878.0576 1654,878.0576 1654,878.0576 " fill="none" style="stroke:#181818;stroke-width:0.5;"/><text fill="#000000" font-family="Arial" font-size="14" lengthAdjust="spacing" textLength="92" x="1552" y="870.0908">Event Platform</text><rect fill="#FFFFFF" height="663.4658" style="stroke:#181818;stroke-width:1.0;" width="10" x="562.5" y="152.3945"/><rect fill="#FFFFFF" height="584.1699" style="stroke:#181818;stroke-width:1.0;" width="10" x="751.5" y="182.4932"/><rect fill="#FFFFFF" height="554.0713" style="stroke:#181818;stroke-width:1.0;" width="10" x="902.5" y="212.5918"/><rect fill="#FFFFFF" height="30.0986" style="stroke:#181818;stroke-width:1.0;" width="10" x="1050.5" y="242.6904"/><rect fill="#FFFFFF" height="330.1836" style="stroke:#181818;stroke-width:1.0;" width="10" x="1191.5" y="329.085"/><rect fill="#FFFFFF" height="30.0986" style="stroke:#181818;stroke-width:1.0;" width="10" x="1368.5" y="359.1836"/><polygon fill="#333333" points="550.5,148.3945,560.5,152.3945,550.5,156.3945,554.5,152.3945" style="stroke:#333333;stroke-width:1.0;"/><line style="stroke:#333333;stroke-width:1.2;" x1="404.5" x2="556.5" y1="152.3945" y2="152.3945"/><text fill="#000000" font-family="Arial" font-size="14" lengthAdjust="spacing" textLength="101" x="411.5" y="147.4277">Submit payment</text><polygon fill="#333333" points="739.5,178.4932,749.5,182.4932,739.5,186.4932,743.5,182.4932" style="stroke:#333333;stroke-width:1.0;"/><line style="stroke:#333333;stroke-width:1.2;" x1="572.5" x2="745.5" y1="182.4932" y2="182.4932"/><text fill="#000000" font-family="Arial" font-size="14" lengthAdjust="spacing" textLength="160" x="579.5" y="177.5264">Send payment instruction</text><polygon fill="#333333" points="890.5,208.5918,900.5,212.5918,890.5,216.5918,894.5,212.5918" style="stroke:#333333;stroke-width:1.0;"/><line style="stroke:#333333;stroke-width:1.2;" x1="761.5" x2="896.5" y1="212.5918" y2="212.5918"/><text fill="#000000" font-family="Arial" font-size="14" lengthAdjust="spacing" textLength="101" x="768.5" y="207.625">Create payment</text><polygon fill="#333333" points="1038.5,238.6904,1048.5,242.6904,1038.5,246.6904,1042.5,242.6904" style="stroke:#333333;stroke-width:1.0;"/><line style="stroke:#333333;stroke-width:1.2;" x1="912.5" x2="1044.5" y1="242.6904" y2="242.6904"/><text fill="#000000" font-family="Arial" font-size="14" lengthAdjust="spacing" textLength="119" x="919.5" y="237.7236">Request screening</text><polygon fill="#333333" points="923.5,268.7891,913.5,272.7891,923.5,276.7891,919.5,272.7891" style="stroke:#333333;stroke-width:1.0;"/><line style="stroke:#333333;stroke-width:1.2;stroke-dasharray:2.0,2.0;" x1="917.5" x2="1054.5" y1="272.7891" y2="272.7891"/><text fill="#000000" font-family="Arial" font-size="14" lengthAdjust="spacing" textLength="103" x="929.5" y="267.8223">Screening result</text><path d="M686,287.7891 L748,287.7891 L748,295.8877 L738,305.8877 L686,305.8877 L686,287.7891 " fill="#EEEEEE" style="stroke:#000000;stroke-width:1.5;"/><rect fill="none" height="449.7754" style="stroke:#000000;stroke-width:1.5;" width="993" x="686" y="287.7891"/><text fill="#000000" font-family="Arial" font-size="14" font-weight="bold" lengthAdjust="spacing" textLength="17" x="701" y="301.9209">alt</text><text fill="#000000" font-family="Arial" font-size="14" font-weight="bold" lengthAdjust="spacing" textLength="136" x="763" y="302.9209">[screening passed]</text><polygon fill="#333333" points="1179.5,325.085,1189.5,329.085,1179.5,333.085,1183.5,329.085" style="stroke:#333333;stroke-width:1.0;"/><line style="stroke:#333333;stroke-width:1.2;" x1="912.5" x2="1185.5" y1="329.085" y2="329.085"/><text fill="#000000" font-family="Arial" font-size="14" lengthAdjust="spacing" textLength="157" x="919.5" y="324.1182">Request account posting</text><polygon fill="#333333" points="1356.5,355.1836,1366.5,359.1836,1356.5,363.1836,1360.5,359.1836" style="stroke:#333333;stroke-width:1.0;"/><line style="stroke:#333333;stroke-width:1.2;" x1="1201.5" x2="1362.5" y1="359.1836" y2="359.1836"/><text fill="#000000" font-family="Arial" font-size="14" lengthAdjust="spacing" textLength="148" x="1208.5" y="354.2168">Post accepted payment</text><polygon fill="#333333" points="1212.5,385.2822,1202.5,389.2822,1212.5,393.2822,1208.5,389.2822" style="stroke:#333333;stroke-width:1.0;"/><line style="stroke:#333333;stroke-width:1.2;stroke-dasharray:2.0,2.0;" x1="1206.5" x2="1372.5" y1="389.2822" y2="389.2822"/><text fill="#000000" font-family="Arial" font-size="14" lengthAdjust="spacing" textLength="86" x="1218.5" y="384.3154">Posting result</text><path d="M696,404.2822 L758,404.2822 L758,412.3809 L748,422.3809 L696,422.3809 L696,404.2822 " fill="#EEEEEE" style="stroke:#000000;stroke-width:1.5;"/><rect fill="none" height="247.9863" style="stroke:#000000;stroke-width:1.5;" width="973" x="696" y="404.2822"/><text fill="#000000" font-family="Arial" font-size="14" font-weight="bold" lengthAdjust="spacing" textLength="17" x="711" y="418.4141">alt</text><text fill="#000000" font-family="Arial" font-size="14" font-weight="bold" lengthAdjust="spacing" textLength="132" x="773" y="419.4141">[posting accepted]</text><polygon fill="#333333" points="923.5,441.5781,913.5,445.5781,923.5,449.5781,919.5,445.5781" style="stroke:#333333;stroke-width:1.0;"/><line style="stroke:#333333;stroke-width:1.2;stroke-dasharray:2.0,2.0;" x1="917.5" x2="1190.5" y1="445.5781" y2="445.5781"/><text fill="#000000" font-family="Arial" font-size="14" lengthAdjust="spacing" textLength="109" x="929.5" y="440.6113">Posting accepted</text><polygon fill="#333333" points="1472.5,471.6768,1482.5,475.6768,1472.5,479.6768,1476.5,475.6768" style="stroke:#333333;stroke-width:1.0;"/><line style="stroke:#333333;stroke-width:1.2;" x1="912.5" x2="1478.5" y1="475.6768" y2="475.6768"/><text fill="#000000" font-family="Arial" font-size="14" lengthAdjust="spacing" textLength="150" x="919.5" y="470.71">Record accepted status</text><line style="stroke:#333333;stroke-width:1.2;" x1="1601" x2="1591" y1="505.7754" y2="501.7754"/><line style="stroke:#333333;stroke-width:1.2;" x1="1601" x2="1591" y1="505.7754" y2="509.7754"/><line style="stroke:#333333;stroke-width:1.2;" x1="912.5" x2="1602" y1="505.7754" y2="505.7754"/><text fill="#000000" font-family="Arial" font-size="14" lengthAdjust="spacing" textLength="164" x="919.5" y="500.8086">Publish PaymentAccepted</text><polygon fill="#333333" points="772.5,531.874,762.5,535.874,772.5,539.874,768.5,535.874" style="stroke:#333333;stroke-width:1.0;"/><line style="stroke:#333333;stroke-width:1.2;stroke-dasharray:2.0,2.0;" x1="766.5" x2="901.5" y1="535.874" y2="535.874"/><text fill="#000000" font-family="Arial" font-size="14" lengthAdjust="spacing" textLength="117" x="778.5" y="530.9072">Payment accepted</text><line style="stroke:#000000;stroke-width:1.0;stroke-dasharray:2.0,2.0;" x1="696" x2="1669" y1="544.874" y2="544.874"/><text fill="#000000" font-family="Arial" font-size="14" font-weight="bold" lengthAdjust="spacing" textLength="106" x="701" y="558.0059">[posting failed]</text><polygon fill="#333333" points="923.5,580.0713,913.5,584.0713,923.5,588.0713,919.5,584.0713" style="stroke:#333333;stroke-width:1.0;"/><line style="stroke:#333333;stroke-width:1.2;stroke-dasharray:2.0,2.0;" x1="917.5" x2="1190.5" y1="584.0713" y2="584.0713"/><text fill="#000000" font-family="Arial" font-size="14" lengthAdjust="spacing" textLength="85" x="929.5" y="579.1045">Posting failed</text><polygon fill="#333333" points="1472.5,610.1699,1482.5,614.1699,1472.5,618.1699,1476.5,614.1699" style="stroke:#333333;stroke-width:1.0;"/><line style="stroke:#333333;stroke-width:1.2;" x1="912.5" x2="1478.5" y1="614.1699" y2="614.1699"/><text fill="#000000" font-family="Arial" font-size="14" lengthAdjust="spacing" textLength="126" x="919.5" y="609.2031">Record failed status</text><polygon fill="#333333" points="772.5,640.2686,762.5,644.2686,772.5,648.2686,768.5,644.2686" style="stroke:#333333;stroke-width:1.0;"/><line style="stroke:#333333;stroke-width:1.2;stroke-dasharray:2.0,2.0;" x1="766.5" x2="901.5" y1="644.2686" y2="644.2686"/><text fill="#000000" font-family="Arial" font-size="14" lengthAdjust="spacing" textLength="93" x="778.5" y="639.3018">Payment failed</text><line style="stroke:#000000;stroke-width:1.0;stroke-dasharray:2.0,2.0;" x1="686" x2="1679" y1="660.2686" y2="660.2686"/><text fill="#000000" font-family="Arial" font-size="14" font-weight="bold" lengthAdjust="spacing" textLength="124" x="691" y="673.4004">[screening failed]</text><polygon fill="#333333" points="1472.5,695.4658,1482.5,699.4658,1472.5,703.4658,1476.5,699.4658" style="stroke:#333333;stroke-width:1.0;"/><line style="stroke:#333333;stroke-width:1.2;" x1="912.5" x2="1478.5" y1="699.4658" y2="699.4658"/><text fill="#000000" font-family="Arial" font-size="14" lengthAdjust="spacing" textLength="143" x="919.5" y="694.499">Record rejected status</text><polygon fill="#333333" points="772.5,725.5645,762.5,729.5645,772.5,733.5645,768.5,729.5645" style="stroke:#333333;stroke-width:1.0;"/><line style="stroke:#333333;stroke-width:1.2;stroke-dasharray:2.0,2.0;" x1="766.5" x2="901.5" y1="729.5645" y2="729.5645"/><text fill="#000000" font-family="Arial" font-size="14" lengthAdjust="spacing" textLength="110" x="778.5" y="724.5977">Payment rejected</text><polygon fill="#333333" points="583.5,762.6631,573.5,766.6631,583.5,770.6631,579.5,766.6631" style="stroke:#333333;stroke-width:1.0;"/><line style="stroke:#333333;stroke-width:1.2;stroke-dasharray:2.0,2.0;" x1="577.5" x2="755.5" y1="766.6631" y2="766.6631"/><text fill="#000000" font-family="Arial" font-size="14" lengthAdjust="spacing" textLength="143" x="589.5" y="761.6963">Return payment status</text><polygon fill="#333333" points="415.5,811.8604,405.5,815.8604,415.5,819.8604,411.5,815.8604" style="stroke:#333333;stroke-width:1.0;"/><line style="stroke:#333333;stroke-width:1.2;stroke-dasharray:2.0,2.0;" x1="409.5" x2="566.5" y1="815.8604" y2="815.8604"/><text fill="#000000" font-family="Arial" font-size="14" lengthAdjust="spacing" textLength="134" x="421.5" y="810.8936">Show payment status</text><path d="M5,779.6631 L5,837.6631 L400,837.6631 L400,789.6631 L390,779.6631 L5,779.6631 " fill="#FFF8DC" style="stroke:#666666;stroke-width:0.5;"/><path d="M390,779.6631 L390,789.6631 L400,789.6631 L390,779.6631 " fill="#FFF8DC" style="stroke:#666666;stroke-width:0.5;"/><text fill="#000000" font-family="Arial" font-size="14" lengthAdjust="spacing" textLength="189" x="11" y="797.7949">One interaction scenario only.</text><text fill="#000000" font-family="Arial" font-size="14" lengthAdjust="spacing" textLength="301" x="11" y="813.8936">Settlement, repair and retry paths are excluded.</text><text fill="#000000" font-family="Arial" font-size="14" lengthAdjust="spacing" textLength="374" x="11" y="829.9922">PaymentAccepted is published only after posting succeeds.</text><!--SRC=[bLMnSjim3Dtv5MZcskdGAKFkKYTfCzKNhrbW2R7PKgHAWcdThoz8MRHeksbwfpk991xmW0T2xxHjJ6m9vlDBUGBl38NBtg3bs9aPRwcZUI-VIh5cGt3_y7dsuQCyS_ZYlFxjB7n2-nsMkEl8CgpYkjCXQDbVqOz8jY6urRZns2c53JiF5u_4g0qiOc3NaRy036MXUlIi6zqB0xWOGzpgZMOqJtQnHMl9X06pNzIOFPC0Dyk7R2RlinRmrJTR2koHXUwJNP5_qGrbJ7LKe- -rHTjeb0IyxkZ9BWtoi_DT1fRJV5WZxooJxxqE10_okHa3Lmuc9pLwuRoKadeND0lPNM0Q4Eb0jSYuHl5SibinSWnYAJKVaXfsybg9D56CxrwIQKKWRuqxIet2mEow51ok1fqP-Y5OKbQ_8DD1as8hE54WGSYs8m2qbUh69gTPm4cfP2kGIW01BpmbYvDujL0rIjpKSeYVnzIKWI4qdiXgkpcuEfBk23exGserEW5F8HfMBVtDcq8p2IfvX42j0ZXXFD5_GXURnaKfcwZFYJH02JHj6AZWIR7KD5UmT8CFwfcA1bCdkOTWC9-Ti5WEKSSi0IPvxf4flJsv4aYsZmYTgU7o7EYaAfFMpLLfd6yF2OLyUXPvNVTp2XZNHeVjEB5kNebRMdUyKnEIqjfKCdwMUVQV-KuWRyjs0BoIwmdR4a8kNYtQj6To8eVEBA2tiVBqZPfAWt-n6X4giHgkUprQvFSGlIsJOkzumhw-yvE3D3yESoTv7OUNtDMj-_cAppAtb7MoN3iMOCh6aimgcTkOPvKKYYnwxS1PivkBmOfO_el9wtj9hKVj0Msg2_kTnEDj09I2qQ_ydsqJvAZpG0VeXwQKHV8B-2mHItU5A9RKXdag6IH-Vm00]--></g></svg>