<?xml version="1.0" encoding="us-ascii" standalone="no"?><svg xmlns="http://www.w3.org/2000/svg" xmlns:xlink="http://www.w3.org/1999/xlink" contentStyleType="text/css" height="1069px" preserveAspectRatio="none" style="width:839px;height:1069px;background:#FFFFFF;" version="1.1" viewBox="0 0 839 1069" width="839px" zoomAndPan="magnify"><defs/><g><text fill="#000000" font-family="Arial" font-size="14" font-weight="bold" lengthAdjust="spacing" textLength="415" x="213" y="28.1318">FIG-12-02. Online Store Customer Authentication Sequence</text><rect fill="#FFFFFF" height="46.1973" style="stroke:#181818;stroke-width:1.0;" width="10" x="399.5" y="198.5918"/><rect fill="#FFFFFF" height="181.6904" style="stroke:#181818;stroke-width:1.0;" width="10" x="399.5" y="321.085"/><rect fill="#FFFFFF" height="286.085" style="stroke:#181818;stroke-width:1.0;" width="10" x="399.5" y="595.1699"/><rect fill="#FFFFFF" height="30.0986" style="stroke:#181818;stroke-width:1.0;" width="10" x="567.5" y="290.9863"/><rect fill="#FFFFFF" height="239.8877" style="stroke:#181818;stroke-width:1.0;" width="10" x="783" y="641.3672"/><rect fill="none" height="217.8877" style="stroke:#000000;stroke-width:1.5;" width="822" x="10" y="656.3672"/><line style="stroke:#181818;stroke-width:0.5;stroke-dasharray:5.0,5.0;" x1="53" x2="53" y1="120.2959" y2="975.6494"/><line style="stroke:#181818;stroke-width:0.5;stroke-dasharray:5.0,5.0;" x1="213.5" x2="213.5" y1="120.2959" y2="975.6494"/><line style="stroke:#181818;stroke-width:0.5;stroke-dasharray:5.0,5.0;" x1="404.5" x2="404.5" y1="120.2959" y2="975.6494"/><line style="stroke:#181818;stroke-width:0.5;stroke-dasharray:5.0,5.0;" x1="572" x2="572" y1="120.2959" y2="975.6494"/><line style="stroke:#181818;stroke-width:0.5;stroke-dasharray:5.0,5.0;" x1="697" x2="697" y1="120.2959" y2="975.6494"/><line style="stroke:#181818;stroke-width:0.5;stroke-dasharray:5.0,5.0;" x1="788" x2="788" y1="120.2959" y2="975.6494"/><text fill="#000000" font-family="Arial" font-size="14" lengthAdjust="spacing" textLength="61" x="20" y="117.3291">Customer</text><ellipse cx="53.5" cy="52.6973" fill="#FFFFFF" rx="8" ry="8" style="stroke:#333333;stroke-width:0.5;"/><path d="M53.5,60.6973 L53.5,87.6973 M40.5,68.6973 L66.5,68.6973 M53.5,87.6973 L40.5,102.6973 M53.5,87.6973 L66.5,102.6973 " fill="none" style="stroke:#333333;stroke-width:0.5;"/><text fill="#000000" font-family="Arial" font-size="14" lengthAdjust="spacing" textLength="61" x="20" y="987.7813">Customer</text><ellipse cx="53.5" cy="999.248" fill="#FFFFFF" rx="8" ry="8" style="stroke:#333333;stroke-width:0.5;"/><path d="M53.5,1007.248 L53.5,1034.248 M40.5,1015.248 L66.5,1015.248 M53.5,1034.248 L40.5,1049.248 M53.5,1034.248 L66.5,1049.248 " fill="none" style="stroke:#333333;stroke-width:0.5;"/><rect fill="#E2E2F0" height="46.1973" rx="2.5" ry="2.5" style="stroke:#181818;stroke-width:0.5;" width="84" x="171.5" y="73.0986"/><text fill="#000000" font-family="Arial" font-size="14" lengthAdjust="spacing" textLength="68" x="179.5" y="93.2305">Browser or</text><text fill="#000000" font-family="Arial" font-size="14" lengthAdjust="spacing" textLength="70" x="178.5" y="109.3291">Mobile App</text><rect fill="#E2E2F0" height="46.1973" rx="2.5" ry="2.5" style="stroke:#181818;stroke-width:0.5;" width="84" x="171.5" y="974.6494"/><text fill="#000000" font-family="Arial" font-size="14" lengthAdjust="spacing" textLength="68" x="179.5" y="994.7813">Browser or</text><text fill="#000000" font-family="Arial" font-size="14" lengthAdjust="spacing" textLength="70" x="178.5" y="1010.8799">Mobile App</text><rect fill="#E2E2F0" height="46.1973" rx="2.5" ry="2.5" style="stroke:#181818;stroke-width:0.5;" width="124" x="342.5" y="73.0986"/><text fill="#000000" font-family="Arial" font-size="14" lengthAdjust="spacing" textLength="79" x="365" y="93.2305">Online Store</text><text fill="#000000" font-family="Arial" font-size="14" lengthAdjust="spacing" textLength="110" x="349.5" y="109.3291">Web/API Runtime</text><rect fill="#E2E2F0" height="46.1973" rx="2.5" ry="2.5" style="stroke:#181818;stroke-width:0.5;" width="124" x="342.5" y="974.6494"/><text fill="#000000" font-family="Arial" font-size="14" lengthAdjust="spacing" textLength="79" x="365" y="994.7813">Online Store</text><text fill="#000000" font-family="Arial" font-size="14" lengthAdjust="spacing" textLength="110" x="349.5" y="1010.8799">Web/API Runtime</text><rect fill="#E2E2F0" height="62.2959" rx="2.5" ry="2.5" style="stroke:#181818;stroke-width:0.5;" width="135" x="505" y="57"/><text fill="#000000" font-family="Arial" font-size="14" lengthAdjust="spacing" textLength="96" x="524.5" y="77.1318">Identity Service</text><text fill="#000000" font-family="Arial" font-size="14" lengthAdjust="spacing" textLength="121" x="512" y="93.2305">external supporting</text><text fill="#000000" font-family="Arial" font-size="14" lengthAdjust="spacing" textLength="98" x="523.5" y="109.3291">security service</text><rect fill="#E2E2F0" height="62.2959" rx="2.5" ry="2.5" style="stroke:#181818;stroke-width:0.5;" width="135" x="505" y="974.6494"/><text fill="#000000" font-family="Arial" font-size="14" lengthAdjust="spacing" textLength="96" x="524.5" y="994.7813">Identity Service</text><text fill="#000000" font-family="Arial" font-size="14" lengthAdjust="spacing" textLength="121" x="512" y="1010.8799">external supporting</text><text fill="#000000" font-family="Arial" font-size="14" lengthAdjust="spacing" textLength="98" x="523.5" y="1026.9785">security service</text><text fill="#000000" font-family="Arial" font-size="14" lengthAdjust="spacing" textLength="69" x="659.5" y="101.2305">Application</text><text fill="#000000" font-family="Arial" font-size="14" lengthAdjust="spacing" textLength="88" x="650" y="117.3291">Session Store</text><path d="M679,52.0986 C679,42.0986 697,42.0986 697,42.0986 C697,42.0986 715,42.0986 715,52.0986 L715,78.0986 C715,88.0986 697,88.0986 697,88.0986 C697,88.0986 679,88.0986 679,78.0986 L679,52.0986 " fill="#F2F5F7" style="stroke:#333333;stroke-width:1.5;"/><path d="M679,52.0986 C679,62.0986 697,62.0986 697,62.0986 C697,62.0986 715,62.0986 715,52.0986 " fill="none" style="stroke:#333333;stroke-width:1.5;"/><text fill="#000000" font-family="Arial" font-size="14" lengthAdjust="spacing" textLength="69" x="659.5" y="987.7813">Application</text><text fill="#000000" font-family="Arial" font-size="14" lengthAdjust="spacing" textLength="88" x="650" y="1003.8799">Session Store</text><path d="M679,1016.8467 C679,1006.8467 697,1006.8467 697,1006.8467 C697,1006.8467 715,1006.8467 715,1016.8467 L715,1042.8467 C715,1052.8467 697,1052.8467 697,1052.8467 C697,1052.8467 679,1052.8467 679,1042.8467 L679,1016.8467 " fill="#F2F5F7" style="stroke:#333333;stroke-width:1.5;"/><path d="M679,1016.8467 C679,1026.8467 697,1026.8467 697,1026.8467 C697,1026.8467 715,1026.8467 715,1016.8467 " fill="none" style="stroke:#333333;stroke-width:1.5;"/><rect fill="#E2E2F0" height="46.1973" rx="2.5" ry="2.5" style="stroke:#181818;stroke-width:0.5;" width="68" x="754" y="73.0986"/><text fill="#000000" font-family="Arial" font-size="14" lengthAdjust="spacing" textLength="45" x="765.5" y="93.2305">Access</text><text fill="#000000" font-family="Arial" font-size="14" lengthAdjust="spacing" textLength="54" x="761" y="109.3291">Decision</text><rect fill="#E2E2F0" height="46.1973" rx="2.5" ry="2.5" style="stroke:#181818;stroke-width:0.5;" width="68" x="754" y="974.6494"/><text fill="#000000" font-family="Arial" font-size="14" lengthAdjust="spacing" textLength="45" x="765.5" y="994.7813">Access</text><text fill="#000000" font-family="Arial" font-size="14" lengthAdjust="spacing" textLength="54" x="761" y="1010.8799">Decision</text><rect fill="#FFFFFF" height="46.1973" style="stroke:#181818;stroke-width:1.0;" width="10" x="399.5" y="198.5918"/><rect fill="#FFFFFF" height="181.6904" style="stroke:#181818;stroke-width:1.0;" width="10" x="399.5" y="321.085"/><rect fill="#FFFFFF" height="286.085" style="stroke:#181818;stroke-width:1.0;" width="10" x="399.5" y="595.1699"/><rect fill="#FFFFFF" height="30.0986" style="stroke:#181818;stroke-width:1.0;" width="10" x="567.5" y="290.9863"/><rect fill="#FFFFFF" height="239.8877" style="stroke:#181818;stroke-width:1.0;" width="10" x="783" y="641.3672"/><polygon fill="#333333" points="201.5,164.4932,211.5,168.4932,201.5,172.4932,205.5,168.4932" style="stroke:#333333;stroke-width:1.0;"/><line style="stroke:#333333;stroke-width:1.2;" x1="53.5" x2="207.5" y1="168.4932" y2="168.4932"/><text fill="#000000" font-family="Arial" font-size="14" lengthAdjust="spacing" textLength="117" x="60.5" y="147.4277">Request protected</text><text fill="#000000" font-family="Arial" font-size="14" lengthAdjust="spacing" textLength="50" x="60.5" y="163.5264">function</text><polygon fill="#333333" points="387.5,194.5918,397.5,198.5918,387.5,202.5918,391.5,198.5918" style="stroke:#333333;stroke-width:1.0;"/><line style="stroke:#333333;stroke-width:1.2;" x1="213.5" x2="393.5" y1="198.5918" y2="198.5918"/><text fill="#000000" font-family="Arial" font-size="14" lengthAdjust="spacing" textLength="167" x="220.5" y="193.625">Protected function request</text><polygon fill="#333333" points="224.5,240.7891,214.5,244.7891,224.5,248.7891,220.5,244.7891" style="stroke:#333333;stroke-width:1.0;"/><line style="stroke:#333333;stroke-width:1.2;stroke-dasharray:2.0,2.0;" x1="218.5" x2="403.5" y1="244.7891" y2="244.7891"/><text fill="#000000" font-family="Arial" font-size="14" lengthAdjust="spacing" textLength="129" x="230.5" y="223.7236">Redirect or delegate</text><text fill="#000000" font-family="Arial" font-size="14" lengthAdjust="spacing" textLength="112" x="230.5" y="239.8223">to Identity Service</text><polygon fill="#333333" points="555.5,286.9863,565.5,290.9863,555.5,294.9863,559.5,290.9863" style="stroke:#333333;stroke-width:1.0;"/><line style="stroke:#333333;stroke-width:1.2;" x1="53.5" x2="561.5" y1="290.9863" y2="290.9863"/><text fill="#000000" font-family="Arial" font-size="14" lengthAdjust="spacing" textLength="128" x="60.5" y="269.9209">Authenticate directly</text><text fill="#000000" font-family="Arial" font-size="14" lengthAdjust="spacing" textLength="97" x="60.5" y="286.0195">with credentials</text><polygon fill="#333333" points="420.5,317.085,410.5,321.085,420.5,325.085,416.5,321.085" style="stroke:#333333;stroke-width:1.0;"/><line style="stroke:#333333;stroke-width:1.2;stroke-dasharray:2.0,2.0;" x1="414.5" x2="571.5" y1="321.085" y2="321.085"/><text fill="#000000" font-family="Arial" font-size="14" lengthAdjust="spacing" textLength="129" x="426.5" y="316.1182">Authentication result</text><line style="stroke:#333333;stroke-width:1.2;" x1="409.5" x2="451.5" y1="367.2822" y2="367.2822"/><line style="stroke:#333333;stroke-width:1.2;" x1="451.5" x2="451.5" y1="367.2822" y2="380.2822"/><line style="stroke:#333333;stroke-width:1.2;" x1="410.5" x2="451.5" y1="380.2822" y2="380.2822"/><polygon fill="#333333" points="420.5,376.2822,410.5,380.2822,420.5,384.2822,416.5,380.2822" style="stroke:#333333;stroke-width:1.0;"/><text fill="#000000" font-family="Arial" font-size="14" lengthAdjust="spacing" textLength="144" x="416.5" y="346.2168">Validate authentication</text><text fill="#000000" font-family="Arial" font-size="14" lengthAdjust="spacing" textLength="35" x="416.5" y="362.3154">result</text><polygon fill="#333333" points="685,422.4795,695,426.4795,685,430.4795,689,426.4795" style="stroke:#333333;stroke-width:1.0;"/><line style="stroke:#333333;stroke-width:1.2;" x1="409.5" x2="691" y1="426.4795" y2="426.4795"/><text fill="#000000" font-family="Arial" font-size="14" lengthAdjust="spacing" textLength="129" x="416.5" y="405.4141">Establish application</text><text fill="#000000" font-family="Arial" font-size="14" lengthAdjust="spacing" textLength="48" x="416.5" y="421.5127">session</text><polygon fill="#333333" points="420.5,452.5781,410.5,456.5781,420.5,460.5781,416.5,456.5781" style="stroke:#333333;stroke-width:1.0;"/><line style="stroke:#333333;stroke-width:1.2;stroke-dasharray:2.0,2.0;" x1="414.5" x2="696" y1="456.5781" y2="456.5781"/><text fill="#000000" font-family="Arial" font-size="14" lengthAdjust="spacing" textLength="115" x="426.5" y="451.6113">Session reference</text><polygon fill="#333333" points="224.5,498.7754,214.5,502.7754,224.5,506.7754,220.5,502.7754" style="stroke:#333333;stroke-width:1.0;"/><line style="stroke:#333333;stroke-width:1.2;stroke-dasharray:2.0,2.0;" x1="218.5" x2="403.5" y1="502.7754" y2="502.7754"/><text fill="#000000" font-family="Arial" font-size="14" lengthAdjust="spacing" textLength="121" x="230.5" y="481.71">Application session</text><text fill="#000000" font-family="Arial" font-size="14" lengthAdjust="spacing" textLength="56" x="230.5" y="497.8086">available</text><polygon fill="#333333" points="201.5,544.9727,211.5,548.9727,201.5,552.9727,205.5,548.9727" style="stroke:#333333;stroke-width:1.0;"/><line style="stroke:#333333;stroke-width:1.2;" x1="53.5" x2="207.5" y1="548.9727" y2="548.9727"/><text fill="#000000" font-family="Arial" font-size="14" lengthAdjust="spacing" textLength="117" x="60.5" y="527.9072">Request protected</text><text fill="#000000" font-family="Arial" font-size="14" lengthAdjust="spacing" textLength="38" x="60.5" y="544.0059">action</text><polygon fill="#333333" points="387.5,591.1699,397.5,595.1699,387.5,599.1699,391.5,595.1699" style="stroke:#333333;stroke-width:1.0;"/><line style="stroke:#333333;stroke-width:1.2;" x1="213.5" x2="393.5" y1="595.1699" y2="595.1699"/><text fill="#000000" font-family="Arial" font-size="14" lengthAdjust="spacing" textLength="103" x="220.5" y="574.1045">Protected action</text><text fill="#000000" font-family="Arial" font-size="14" lengthAdjust="spacing" textLength="141" x="220.5" y="590.2031">with session reference</text><polygon fill="#333333" points="771,637.3672,781,641.3672,771,645.3672,775,641.3672" style="stroke:#333333;stroke-width:1.0;"/><line style="stroke:#333333;stroke-width:1.2;" x1="409.5" x2="777" y1="641.3672" y2="641.3672"/><text fill="#000000" font-family="Arial" font-size="14" lengthAdjust="spacing" textLength="113" x="416.5" y="620.3018">Authorise subject,</text><text fill="#000000" font-family="Arial" font-size="14" lengthAdjust="spacing" textLength="126" x="416.5" y="636.4004">action and resource</text><path d="M10,656.3672 L72,656.3672 L72,664.4658 L62,674.4658 L10,674.4658 L10,656.3672 " fill="#EEEEEE" style="stroke:#000000;stroke-width:1.5;"/><rect fill="none" height="217.8877" style="stroke:#000000;stroke-width:1.5;" width="822" x="10" y="656.3672"/><text fill="#000000" font-family="Arial" font-size="14" font-weight="bold" lengthAdjust="spacing" textLength="17" x="25" y="670.499">alt</text><text fill="#000000" font-family="Arial" font-size="14" font-weight="bold" lengthAdjust="spacing" textLength="131" x="87" y="671.499">[access permitted]</text><polygon fill="#333333" points="420.5,693.6631,410.5,697.6631,420.5,701.6631,416.5,697.6631" style="stroke:#333333;stroke-width:1.0;"/><line style="stroke:#333333;stroke-width:1.2;stroke-dasharray:2.0,2.0;" x1="414.5" x2="782" y1="697.6631" y2="697.6631"/><text fill="#000000" font-family="Arial" font-size="14" lengthAdjust="spacing" textLength="40" x="426.5" y="692.6963">Permit</text><polygon fill="#333333" points="224.5,723.7617,214.5,727.7617,224.5,731.7617,220.5,727.7617" style="stroke:#333333;stroke-width:1.0;"/><line style="stroke:#333333;stroke-width:1.2;stroke-dasharray:2.0,2.0;" x1="218.5" x2="398.5" y1="727.7617" y2="727.7617"/><text fill="#000000" font-family="Arial" font-size="14" lengthAdjust="spacing" textLength="156" x="230.5" y="722.7949">Perform protected action</text><polygon fill="#333333" points="64.5,753.8604,54.5,757.8604,64.5,761.8604,60.5,757.8604" style="stroke:#333333;stroke-width:1.0;"/><line style="stroke:#333333;stroke-width:1.2;stroke-dasharray:2.0,2.0;" x1="58.5" x2="212.5" y1="757.8604" y2="757.8604"/><text fill="#000000" font-family="Arial" font-size="14" lengthAdjust="spacing" textLength="136" x="70.5" y="752.8936">Show permitted result</text><line style="stroke:#000000;stroke-width:1.0;stroke-dasharray:2.0,2.0;" x1="10" x2="832" y1="766.8604" y2="766.8604"/><text fill="#000000" font-family="Arial" font-size="14" font-weight="bold" lengthAdjust="spacing" textLength="122" x="15" y="779.9922">[access rejected]</text><polygon fill="#333333" points="420.5,802.0576,410.5,806.0576,420.5,810.0576,416.5,806.0576" style="stroke:#333333;stroke-width:1.0;"/><line style="stroke:#333333;stroke-width:1.2;stroke-dasharray:2.0,2.0;" x1="414.5" x2="782" y1="806.0576" y2="806.0576"/><text fill="#000000" font-family="Arial" font-size="14" lengthAdjust="spacing" textLength="40" x="426.5" y="801.0908">Reject</text><polygon fill="#333333" points="224.5,832.1563,214.5,836.1563,224.5,840.1563,220.5,836.1563" style="stroke:#333333;stroke-width:1.0;"/><line style="stroke:#333333;stroke-width:1.2;stroke-dasharray:2.0,2.0;" x1="218.5" x2="398.5" y1="836.1563" y2="836.1563"/><text fill="#000000" font-family="Arial" font-size="14" lengthAdjust="spacing" textLength="146" x="230.5" y="831.1895">Reject protected action</text><polygon fill="#333333" points="64.5,862.2549,54.5,866.2549,64.5,870.2549,60.5,866.2549" style="stroke:#333333;stroke-width:1.0;"/><line style="stroke:#333333;stroke-width:1.2;stroke-dasharray:2.0,2.0;" x1="58.5" x2="212.5" y1="866.2549" y2="866.2549"/><text fill="#000000" font-family="Arial" font-size="14" lengthAdjust="spacing" textLength="92" x="70.5" y="861.2881">Show rejection</text><path d="M22,886.2549 L22,960.2549 L819,960.2549 L819,896.2549 L809,886.2549 L22,886.2549 " fill="#FFF8DC" style="stroke:#666666;stroke-width:0.5;"/><path d="M809,886.2549 L809,896.2549 L819,896.2549 L809,886.2549 " fill="#FFF8DC" style="stroke:#666666;stroke-width:0.5;"/><text fill="#000000" font-family="Arial" font-size="14" lengthAdjust="spacing" textLength="236" x="174.5" y="904.3867">Credentials go to the Identity Service.</text><text fill="#000000" font-family="Arial" font-size="14" lengthAdjust="spacing" textLength="362" x="174.5" y="920.4854">The authentication result is validated by the Online Store.</text><text fill="#000000" font-family="Arial" font-size="14" lengthAdjust="spacing" textLength="467" x="174.5" y="936.584">The application session is not the same as complete access authorisation.</text><text fill="#000000" font-family="Arial" font-size="14" lengthAdjust="spacing" textLength="483" x="174.5" y="952.6826">Full OAuth, OpenID Connect and SAML protocol messages are out of scope.</text><!--SRC=[bLJBRjim4BppAxO-nqwROmu5tAGf33Im4HVjHHUQMjiCA5Bbmwd_lakAaYNPIH301uEScHtExkgJr4A54c4skwQVyqU5xhfMNFjGgQdVOuMpcluovgLN20-B7zClDzFFDpDOQYKrmjeRYt0Nd3SLMfW78cal1VVIQ5ZZtu1Q86DS410cBN02t7KiLdDB55bJNPXyi-R5aPInXNuq6qbbvtNT49GayI6yxwFGVt1pFLyju2cGYGeJArqDIOioclH7CcWFKX0H_tcqcYjmeQuDGVMkq0v5i17c6bYIQxciv9vlk4EOa3-LdrpeDJgNtXxBDWQQami-vaBGNQ7lKSW8IV3ci3rYh0jt-ZKd0BVm59Dr7cfhF0gFPQ6tGOjeWMKGmPlktCAgHK4B0ji8nCR80_SvGTOmfiDIfRJ4fev0YGftX2wqDp1EaPKuKXjux-2t_J51QDJLiT0lqkz1M4n0hjp9N1Tw9pBjFMyqTHPTKBxlfgE_yjoJr6-kP1dl-K2pq5dqHEWrbNZV7Gs3acuFl3yCha6n0RfllPqMYrkqQLKkTA0tNv0L2yqFN2gg-LxiRuqCVtzW6aZkZJjp-rgUmo7EFJ9Mqhgui7acxQksF71TnfwPOFk2upNWofEPU0OrsafwSiTWNAYVxIh127CXKhhR6bkTmiWF9NIRHeItELAZzkRbLBYTCLJqeEpAudDIUjlKKq9TDjNSVT1JKpR2K9UiFmoZ1C_7H5CTC0VIQaMlHfoxqpB2pW0jFMt5sUBFsA_zU6DoGY0T7F9EbR0v9dx_cvsvvnCUcMGm4HolC7uQXQbgXRwBdEUXIiGPUmXAmJ9EsXKiQzIBUxWpMiTCuuojvuy_KxX660KL2V0TaWYrmGJwl6t12LEJ8meobiR_]--></g></svg>