<?xml version="1.0" encoding="us-ascii" standalone="no"?><svg xmlns="http://www.w3.org/2000/svg" xmlns:xlink="http://www.w3.org/1999/xlink" contentStyleType="text/css" height="1079px" preserveAspectRatio="none" style="width:628px;height:1079px;background:#FFFFFF;" version="1.1" viewBox="0 0 628 1079" width="628px" zoomAndPan="magnify"><defs/><g><text fill="#000000" font-family="Arial" font-size="14" font-weight="bold" lengthAdjust="spacing" textLength="374" x="120" y="23.1318">FIG-07-03. Horizon Bank application cooperation view</text><!--entity channels--><g id="elem_channels"><rect fill="#EAF6E8" height="68.2959" rx="4" ry="4" style="stroke:#333333;stroke-width:0.5;" width="182" x="7" y="96.0986"/><text fill="#000000" font-family="Arial" font-size="14" lengthAdjust="spacing" textLength="90" x="17" y="119.2305">Horizon Digital</text><text fill="#000000" font-family="Arial" font-size="14" lengthAdjust="spacing" textLength="60" x="17" y="135.3291">Channels</text><text fill="#000000" font-family="Arial" font-size="14" lengthAdjust="spacing" textLength="162" x="17" y="151.4277">&#171;Application Component&#187;</text></g><!--entity capture_func--><g id="elem_capture_func"><rect fill="#EAF6E8" height="68.2959" rx="4" ry="4" style="stroke:#333333;stroke-width:0.5;" width="144" x="26" y="199.0986"/><text fill="#000000" font-family="Arial" font-size="14" lengthAdjust="spacing" textLength="124" x="36" y="222.2305">Application Capture</text><text fill="#000000" font-family="Arial" font-size="14" lengthAdjust="spacing" textLength="55" x="36" y="238.3291">Function</text><text fill="#000000" font-family="Arial" font-size="14" lengthAdjust="spacing" textLength="71" x="36" y="254.4277">&#171;Function&#187;</text></g><!--entity capture_svc--><g id="elem_capture_svc"><rect fill="#EAF6E8" height="68.2959" rx="4" ry="4" style="stroke:#333333;stroke-width:0.5;" width="144" x="26" y="302.0986"/><text fill="#000000" font-family="Arial" font-size="14" lengthAdjust="spacing" textLength="124" x="36" y="325.2305">Application Capture</text><text fill="#000000" font-family="Arial" font-size="14" lengthAdjust="spacing" textLength="47" x="36" y="341.3291">Service</text><text fill="#000000" font-family="Arial" font-size="14" lengthAdjust="spacing" textLength="63" x="36" y="357.4277">&#171;Service&#187;</text></g><!--entity onboarding--><g id="elem_onboarding"><rect fill="#EAF6E8" height="68.2959" rx="4" ry="4" style="stroke:#333333;stroke-width:0.5;" width="182" x="7" y="405.0986"/><text fill="#000000" font-family="Arial" font-size="14" lengthAdjust="spacing" textLength="140" x="17" y="428.2305">Customer Onboarding</text><text fill="#000000" font-family="Arial" font-size="14" lengthAdjust="spacing" textLength="52" x="17" y="444.3291">Platform</text><text fill="#000000" font-family="Arial" font-size="14" lengthAdjust="spacing" textLength="162" x="17" y="460.4277">&#171;Application Component&#187;</text></g><!--entity orchestration_func--><g id="elem_orchestration_func"><rect fill="#EAF6E8" height="68.2959" rx="4" ry="4" style="stroke:#333333;stroke-width:0.5;" width="165" x="15.5" y="508.0986"/><text fill="#000000" font-family="Arial" font-size="14" lengthAdjust="spacing" textLength="75" x="25.5" y="531.2305">Onboarding</text><text fill="#000000" font-family="Arial" font-size="14" lengthAdjust="spacing" textLength="145" x="25.5" y="547.3291">Orchestration Function</text><text fill="#000000" font-family="Arial" font-size="14" lengthAdjust="spacing" textLength="71" x="25.5" y="563.4277">&#171;Function&#187;</text></g><!--entity orchestration_svc--><g id="elem_orchestration_svc"><rect fill="#EAF6E8" height="68.2959" rx="4" ry="4" style="stroke:#333333;stroke-width:0.5;" width="157" x="19.5" y="611.0986"/><text fill="#000000" font-family="Arial" font-size="14" lengthAdjust="spacing" textLength="75" x="29.5" y="634.2305">Onboarding</text><text fill="#000000" font-family="Arial" font-size="14" lengthAdjust="spacing" textLength="137" x="29.5" y="650.3291">Orchestration Service</text><text fill="#000000" font-family="Arial" font-size="14" lengthAdjust="spacing" textLength="63" x="29.5" y="666.4277">&#171;Service&#187;</text></g><!--entity party--><g id="elem_party"><rect fill="#EAF6E8" height="68.2959" rx="4" ry="4" style="stroke:#333333;stroke-width:0.5;" width="182" x="249" y="44.0986"/><text fill="#000000" font-family="Arial" font-size="14" lengthAdjust="spacing" textLength="126" x="259" y="67.2305">Party and Customer</text><text fill="#000000" font-family="Arial" font-size="14" lengthAdjust="spacing" textLength="52" x="259" y="83.3291">Platform</text><text fill="#000000" font-family="Arial" font-size="14" lengthAdjust="spacing" textLength="162" x="259" y="99.4277">&#171;Application Component&#187;</text></g><!--entity profile_func--><g id="elem_profile_func"><rect fill="#EAF6E8" height="68.2959" rx="4" ry="4" style="stroke:#333333;stroke-width:0.5;" width="161" x="259.5" y="147.0986"/><text fill="#000000" font-family="Arial" font-size="14" lengthAdjust="spacing" textLength="105" x="269.5" y="170.2305">Customer Profile</text><text fill="#000000" font-family="Arial" font-size="14" lengthAdjust="spacing" textLength="141" x="269.5" y="186.3291">Management Function</text><text fill="#000000" font-family="Arial" font-size="14" lengthAdjust="spacing" textLength="71" x="269.5" y="202.4277">&#171;Function&#187;</text></g><!--entity profile_svc--><g id="elem_profile_svc"><rect fill="#EAF6E8" height="68.2959" rx="4" ry="4" style="stroke:#333333;stroke-width:0.5;" width="153" x="263.5" y="250.0986"/><text fill="#000000" font-family="Arial" font-size="14" lengthAdjust="spacing" textLength="105" x="273.5" y="273.2305">Customer Profile</text><text fill="#000000" font-family="Arial" font-size="14" lengthAdjust="spacing" textLength="133" x="273.5" y="289.3291">Management Service</text><text fill="#000000" font-family="Arial" font-size="14" lengthAdjust="spacing" textLength="63" x="273.5" y="305.4277">&#171;Service&#187;</text></g><!--entity customer_record--><g id="elem_customer_record"><rect fill="#F7F9FB" height="52.1973" rx="4" ry="4" style="stroke:#333333;stroke-width:0.5;" width="131" x="491" y="155.0986"/><text fill="#000000" font-family="Arial" font-size="14" lengthAdjust="spacing" textLength="111" x="501" y="178.2305">Customer Record</text><text fill="#000000" font-family="Arial" font-size="14" lengthAdjust="spacing" textLength="91" x="501" y="194.3291">&#171;Data Object&#187;</text></g><!--entity fincrime--><g id="elem_fincrime"><rect fill="#EAF6E8" height="68.2959" rx="4" ry="4" style="stroke:#333333;stroke-width:0.5;" width="182" x="249" y="353.0986"/><text fill="#000000" font-family="Arial" font-size="14" lengthAdjust="spacing" textLength="98" x="259" y="376.2305">Financial Crime</text><text fill="#000000" font-family="Arial" font-size="14" lengthAdjust="spacing" textLength="52" x="259" y="392.3291">Platform</text><text fill="#000000" font-family="Arial" font-size="14" lengthAdjust="spacing" textLength="162" x="259" y="408.4277">&#171;Application Component&#187;</text></g><!--entity screening_func--><g id="elem_screening_func"><rect fill="#EAF6E8" height="68.2959" rx="4" ry="4" style="stroke:#333333;stroke-width:0.5;" width="141" x="269.5" y="456.0986"/><text fill="#000000" font-family="Arial" font-size="14" lengthAdjust="spacing" textLength="121" x="279.5" y="479.2305">Screening Request</text><text fill="#000000" font-family="Arial" font-size="14" lengthAdjust="spacing" textLength="55" x="279.5" y="495.3291">Function</text><text fill="#000000" font-family="Arial" font-size="14" lengthAdjust="spacing" textLength="71" x="279.5" y="511.4277">&#171;Function&#187;</text></g><!--entity screening_svc--><g id="elem_screening_svc"><rect fill="#EAF6E8" height="68.2959" rx="4" ry="4" style="stroke:#333333;stroke-width:0.5;" width="141" x="269.5" y="559.0986"/><text fill="#000000" font-family="Arial" font-size="14" lengthAdjust="spacing" textLength="121" x="279.5" y="582.2305">Screening Request</text><text fill="#000000" font-family="Arial" font-size="14" lengthAdjust="spacing" textLength="47" x="279.5" y="598.3291">Service</text><text fill="#000000" font-family="Arial" font-size="14" lengthAdjust="spacing" textLength="63" x="279.5" y="614.4277">&#171;Service&#187;</text></g><!--entity integration--><g id="elem_integration"><rect fill="#EAF6E8" height="68.2959" rx="4" ry="4" style="stroke:#333333;stroke-width:0.5;" width="182" x="249" y="662.0986"/><text fill="#000000" font-family="Arial" font-size="14" lengthAdjust="spacing" textLength="136" x="259" y="685.2305">Enterprise Integration</text><text fill="#000000" font-family="Arial" font-size="14" lengthAdjust="spacing" textLength="52" x="259" y="701.3291">Platform</text><text fill="#000000" font-family="Arial" font-size="14" lengthAdjust="spacing" textLength="162" x="259" y="717.4277">&#171;Application Component&#187;</text></g><!--entity routing_func--><g id="elem_routing_func"><rect fill="#EAF6E8" height="68.2959" rx="4" ry="4" style="stroke:#333333;stroke-width:0.5;" width="140" x="270" y="765.0986"/><text fill="#000000" font-family="Arial" font-size="14" lengthAdjust="spacing" textLength="120" x="280" y="788.2305">Integration Routing</text><text fill="#000000" font-family="Arial" font-size="14" lengthAdjust="spacing" textLength="55" x="280" y="804.3291">Function</text><text fill="#000000" font-family="Arial" font-size="14" lengthAdjust="spacing" textLength="71" x="280" y="820.4277">&#171;Function&#187;</text></g><!--entity routing_svc--><g id="elem_routing_svc"><rect fill="#EAF6E8" height="68.2959" rx="4" ry="4" style="stroke:#333333;stroke-width:0.5;" width="140" x="270" y="868.0986"/><text fill="#000000" font-family="Arial" font-size="14" lengthAdjust="spacing" textLength="120" x="280" y="891.2305">Integration Routing</text><text fill="#000000" font-family="Arial" font-size="14" lengthAdjust="spacing" textLength="47" x="280" y="907.3291">Service</text><text fill="#000000" font-family="Arial" font-size="14" lengthAdjust="spacing" textLength="63" x="280" y="923.4277">&#171;Service&#187;</text></g><!--link channels to capture_func--><g id="link_channels_capture_func"><path d="M98,164.1086 C98,175.2386 98,181.6186 98,192.7686 " fill="none" id="channels-to-capture_func" style="stroke:#333333;stroke-width:1.2;"/><polygon fill="#333333" points="98,198.7686,102,189.7686,98,193.7686,94,189.7686,98,198.7686" style="stroke:#333333;stroke-width:1.2;"/><text fill="#000000" font-family="Arial" font-size="14" lengthAdjust="spacing" textLength="9" x="88" y="177.5705">A</text></g><!--link capture_func to capture_svc--><g id="link_capture_func_capture_svc"><path d="M98,267.1086 C98,278.2386 98,284.6186 98,295.7686 " fill="none" id="capture_func-to-capture_svc" style="stroke:#333333;stroke-width:1.2;"/><polygon fill="#333333" points="98,301.7686,102,292.7686,98,296.7686,94,292.7686,98,301.7686" style="stroke:#333333;stroke-width:1.2;"/><text fill="#000000" font-family="Arial" font-size="14" lengthAdjust="spacing" textLength="10" x="87" y="280.5705">R</text></g><!--link capture_svc to orchestration_func--><g id="link_capture_svc_orchestration_func"><path d="M170.18,361.5986 C191.38,361.5986 209,361.5986 209,361.5986 C209,361.5986 209,512.0986 209,512.0986 C209,512.0986 202.91,512.0986 186.7,512.0986 " fill="none" id="capture_svc-to-orchestration_func" style="stroke:#333333;stroke-width:1.2;"/><polygon fill="#333333" points="180.7,512.0986,189.7,516.0986,185.7,512.0986,189.7,508.0986,180.7,512.0986" style="stroke:#333333;stroke-width:1.2;"/><text fill="#000000" font-family="Arial" font-size="14" lengthAdjust="spacing" textLength="9" x="199" y="445.7205">S</text></g><!--link onboarding to orchestration_func--><g id="link_onboarding_orchestration_func"><path d="M98,473.1086 C98,484.2386 98,490.6186 98,501.7686 " fill="none" id="onboarding-to-orchestration_func" style="stroke:#333333;stroke-width:1.2;"/><polygon fill="#333333" points="98,507.7686,102,498.7686,98,502.7686,94,498.7686,98,507.7686" style="stroke:#333333;stroke-width:1.2;"/><text fill="#000000" font-family="Arial" font-size="14" lengthAdjust="spacing" textLength="9" x="88" y="486.5705">A</text></g><!--link orchestration_func to orchestration_svc--><g id="link_orchestration_func_orchestration_svc"><path d="M98,576.1086 C98,587.2386 98,593.6186 98,604.7686 " fill="none" id="orchestration_func-to-orchestration_svc" style="stroke:#333333;stroke-width:1.2;"/><polygon fill="#333333" points="98,610.7686,102,601.7686,98,605.7686,94,601.7686,98,610.7686" style="stroke:#333333;stroke-width:1.2;"/><text fill="#000000" font-family="Arial" font-size="14" lengthAdjust="spacing" textLength="10" x="87" y="589.5705">R</text></g><!--link party to profile_func--><g id="link_party_profile_func"><path d="M340,112.1086 C340,123.2386 340,129.6186 340,140.7686 " fill="none" id="party-to-profile_func" style="stroke:#333333;stroke-width:1.2;"/><polygon fill="#333333" points="340,146.7686,344,137.7686,340,141.7686,336,137.7686,340,146.7686" style="stroke:#333333;stroke-width:1.2;"/><text fill="#000000" font-family="Arial" font-size="14" lengthAdjust="spacing" textLength="9" x="330" y="125.5705">A</text></g><!--link profile_func to profile_svc--><g id="link_profile_func_profile_svc"><path d="M340,215.1086 C340,226.2386 340,232.6186 340,243.7686 " fill="none" id="profile_func-to-profile_svc" style="stroke:#333333;stroke-width:1.2;"/><polygon fill="#333333" points="340,249.7686,344,240.7686,340,244.7686,336,240.7686,340,249.7686" style="stroke:#333333;stroke-width:1.2;"/><text fill="#000000" font-family="Arial" font-size="14" lengthAdjust="spacing" textLength="10" x="329" y="228.5705">R</text></g><!--reverse link orchestration_func to profile_svc--><g id="link_orchestration_func_profile_svc"><path d="M186.59,516.0986 C212.75,516.0986 229,516.0986 229,516.0986 C229,516.0986 229,310.0986 229,310.0986 C229,310.0986 244.13,310.0986 263.21,310.0986 " fill="none" id="orchestration_func-backto-profile_svc" style="stroke:#333333;stroke-width:1.2;"/><polygon fill="#333333" points="180.59,516.0986,189.59,520.0986,185.59,516.0986,189.59,512.0986,180.59,516.0986" style="stroke:#333333;stroke-width:1.2;"/><text fill="#000000" font-family="Arial" font-size="14" lengthAdjust="spacing" textLength="9" x="219" y="434.3305">S</text></g><!--link profile_func to customer_record--><g id="link_profile_func_customer_record"><path d="M420.62,181.0986 C443.7,181.0986 462.58,181.0986 484.66,181.0986 " fill="none" id="profile_func-to-customer_record" style="stroke:#333333;stroke-width:1.2;"/><polygon fill="#333333" points="490.66,181.0986,481.66,177.0986,485.66,181.0986,481.66,185.0986,490.66,181.0986" style="stroke:#333333;stroke-width:1.2;"/><text fill="#000000" font-family="Arial" font-size="14" lengthAdjust="spacing" textLength="16" x="438.64" y="195.2305">Ac</text></g><!--link fincrime to screening_func--><g id="link_fincrime_screening_func"><path d="M340,421.1086 C340,432.2386 340,438.6186 340,449.7686 " fill="none" id="fincrime-to-screening_func" style="stroke:#333333;stroke-width:1.2;"/><polygon fill="#333333" points="340,455.7686,344,446.7686,340,450.7686,336,446.7686,340,455.7686" style="stroke:#333333;stroke-width:1.2;"/><text fill="#000000" font-family="Arial" font-size="14" lengthAdjust="spacing" textLength="9" x="330" y="434.5705">A</text></g><!--link screening_func to screening_svc--><g id="link_screening_func_screening_svc"><path d="M340,524.1086 C340,535.2386 340,541.6186 340,552.7686 " fill="none" id="screening_func-to-screening_svc" style="stroke:#333333;stroke-width:1.2;"/><polygon fill="#333333" points="340,558.7686,344,549.7686,340,553.7686,336,549.7686,340,558.7686" style="stroke:#333333;stroke-width:1.2;"/><text fill="#000000" font-family="Arial" font-size="14" lengthAdjust="spacing" textLength="10" x="329" y="537.5705">R</text></g><!--reverse link orchestration_func to screening_svc--><g id="link_orchestration_func_screening_svc"><path d="M186.61,564.7686 C215.5,564.7686 241.65,564.7686 269.46,564.7686 " fill="none" id="orchestration_func-backto-screening_svc" style="stroke:#333333;stroke-width:1.2;"/><polygon fill="#333333" points="180.61,564.7686,189.61,568.7686,185.61,564.7686,189.61,560.7686,180.61,564.7686" style="stroke:#333333;stroke-width:1.2;"/><text fill="#000000" font-family="Arial" font-size="14" lengthAdjust="spacing" textLength="9" x="215.03" y="578.9005">S</text></g><!--link orchestration_func to screening_func--><g id="link_orchestration_func_screening_func"><path d="M180.61,520.0986 C209.5,520.0986 235.65,520.0986 263.46,520.0986 " fill="none" id="orchestration_func-to-screening_func" style="stroke:#333333;stroke-width:1.2;"/><polygon fill="#333333" points="269.46,520.0986,260.46,516.0986,264.46,520.0986,260.46,524.0986,269.46,520.0986" style="stroke:#333333;stroke-width:1.2;"/><text fill="#000000" font-family="Arial" font-size="14" lengthAdjust="spacing" textLength="9" x="215.03" y="534.2305">F</text></g><!--link integration to routing_func--><g id="link_integration_routing_func"><path d="M340,730.1086 C340,741.2386 340,747.6186 340,758.7686 " fill="none" id="integration-to-routing_func" style="stroke:#333333;stroke-width:1.2;"/><polygon fill="#333333" points="340,764.7686,344,755.7686,340,759.7686,336,755.7686,340,764.7686" style="stroke:#333333;stroke-width:1.2;"/><text fill="#000000" font-family="Arial" font-size="14" lengthAdjust="spacing" textLength="9" x="330" y="743.5705">A</text></g><!--link routing_func to routing_svc--><g id="link_routing_func_routing_svc"><path d="M340,833.1086 C340,844.2386 340,850.6186 340,861.7686 " fill="none" id="routing_func-to-routing_svc" style="stroke:#333333;stroke-width:1.2;"/><polygon fill="#333333" points="340,867.7686,344,858.7686,340,862.7686,336,858.7686,340,867.7686" style="stroke:#333333;stroke-width:1.2;"/><text fill="#000000" font-family="Arial" font-size="14" lengthAdjust="spacing" textLength="10" x="329" y="846.5705">R</text></g><!--reverse link orchestration_func to routing_svc--><g id="link_orchestration_func_routing_svc"><path d="M186.8,570.4286 C186.8,570.4286 185,902.0986 185,902.0986 C185,902.0986 228.75,902.0986 269.76,902.0986 " fill="none" id="orchestration_func-backto-routing_svc" style="stroke:#333333;stroke-width:1.2;"/><polygon fill="#333333" points="180.8,570.4286,189.8,574.4286,185.8,570.4286,189.8,566.4286,180.8,570.4286" style="stroke:#333333;stroke-width:1.2;"/><text fill="#000000" font-family="Arial" font-size="14" lengthAdjust="spacing" textLength="9" x="175" y="790.6805">S</text></g><rect fill="none" height="106.5918" id="_legend" rx="7.5" ry="7.5" style="stroke:#000000;stroke-width:1.0;" width="392" x="111" y="953.3945"/><text fill="#000000" font-family="Arial" font-size="14" lengthAdjust="spacing" textLength="287" x="116" y="971.5264">A = Assignment. R = Realisation. S = Serving.</text><text fill="#000000" font-family="Arial" font-size="14" lengthAdjust="spacing" textLength="351" x="116" y="987.625">Ac = Access. F = Flow of screening request information.</text><text fill="#000000" font-family="Arial" font-size="14" lengthAdjust="spacing" textLength="382" x="116" y="1003.7236">Each chain is Application Component -&gt; Function -&gt; Service.</text><text fill="#000000" font-family="Arial" font-size="14" lengthAdjust="spacing" textLength="373" x="116" y="1019.8223">Serving points from provider service to consuming function.</text><text fill="#000000" font-family="Arial" font-size="14" lengthAdjust="spacing" textLength="292" x="116" y="1035.9209">Access points from behaviour to a data object.</text><text fill="#000000" font-family="Arial" font-size="14" lengthAdjust="spacing" textLength="342" x="116" y="1052.0195">Flow shows transferred screening request information.</text><!--SRC=[ZLPDRzim3BthLt3jEMw10MjNT0NIDDvw65earm258iksLfdo93b5D-o_J_9NxCHs0-GWCuzFZoyauqy2cImY3a5muJx6lajkBd99qHQPdDcKPpp8tP4GAwpa43v-drrUpIu_1_13QV578TnJV0MQvr8mQeKBCALohglpJl0tGiohm9ngce4KoErxpa5fcwhE5vepIp5nL_mb02jLOBHG6hc6Q_AF4CbZ2rQ15abg8H8UxlW9sUUTDO8UH28ibHjSf1IHIxF1szjvH-12PRb2ZlRkxWoe0LRZu7mv3xyihxkalJoQsqBp3OO5bjTxukRSS5MObzY5J-PRSxqJZ7kw-dZ0PdPxiYxReZ1MPSwa9zmggYE1oGQV9RMnqjb7PQisPqXeb_59ivGRM_-c4zMhBd3KWt7gKIFwn6DsF5Djtu5Y18qnfxkHbxa3QbkFdxMAXNJYVbAaYPiCj5DUv1Lyr8L9tb4Z6jQk1KEaAywKZdp-0xKKdhQ_7AZfgXhqeaiGd8TNuTVmlcTbA90Y4rJ2GekCd-vZx5QApnXIjsQQS_GDj-A_2_TxJewIQT2Z5WxmZHgtPnlhdYLQhdCj38T7TqogPZkzSh5F6XBRuVJxpPRjFr6-hZ2ZnG_oZPRViFMARnVVhDohixl- -hg1EUa5Zc2UxGPMfFlSWWQMmGsi2UdidMdid0o4Hr8Q9QIQunRLcq9FsGiSmHgQxlEioCUhwTD5wWszFGS3vkvbXBIJqTvwqE5Uta5e0Df8x4ScHGxPM4izaX0IqctaLa2l7RtINk08rgZiFazgT7_n2NURUwkiyywz0ypX6yoD4GdwZHZ0oZslE9N2b9a1h5sWR79C0ezdFe4nRam0eJk7Khs1YlSbkfUCSakuIVNpND6up2LbgNy940Z2mE28WnFUpAS_ryFbisi9a2ldczj_McM-dNOYSclOL3Z_wi8KcYBpoBWcgbHxmRtaBK_fJgX2-omAaT_VgjpVFg6iogJgpO3p44tCjURHHqKwPoj__mC0]--></g></svg>