<?xml version="1.0" encoding="us-ascii" standalone="no"?><svg xmlns="http://www.w3.org/2000/svg" xmlns:xlink="http://www.w3.org/1999/xlink" contentStyleType="text/css" height="442.9099px" preserveAspectRatio="none" style="width:720px;height:442px;background:#FFFFFF;" version="1.1" viewBox="0 0 720 442" width="720.2714px" zoomAndPan="magnify"><defs/><g><text fill="#000000" font-family="Arial" font-size="7.5989" font-weight="bold" lengthAdjust="spacing" textLength="180.2035" x="266.3701" y="12.5555">FIG-32-01: BIAN and multi-technique traceability</text><!--entity INTENT--><g id="elem_INTENT"><rect fill="#EAF2F8" height="37.0698" rx="1.357" ry="1.357" style="stroke:#333333;stroke-width:0.2713908782510366;" width="227.9683" x="489.3178" y="23.9359"/><text fill="#000000" font-family="Arial" font-size="7.5989" lengthAdjust="spacing" textLength="64.0482" x="571.2778" y="36.4915">BUSINESS INTENT</text><text fill="#000000" font-family="Arial" font-size="7.5989" lengthAdjust="spacing" textLength="184.003" x="511.3004" y="45.2295">Capability: Payment Initiation | What ability is needed?</text><text fill="#000000" font-family="Arial" font-size="7.5989" lengthAdjust="spacing" textLength="217.1127" x="494.7456" y="53.9676">Scenario: outgoing payment | What outcome and collaboration?</text></g><!--entity BIAN--><g id="elem_BIAN"><rect fill="#FFF2CC" height="37.0698" rx="1.357" ry="1.357" style="stroke:#333333;stroke-width:0.2713908782510366;" width="206.2571" x="413.8711" y="82.5564"/><text fill="#000000" font-family="Arial" font-size="7.5989" lengthAdjust="spacing" textLength="64.0482" x="484.9755" y="95.1119">BIAN REFERENCE</text><text fill="#000000" font-family="Arial" font-size="7.5989" lengthAdjust="spacing" textLength="195.4014" x="419.2989" y="103.8499">Candidate Service Domain | What banking responsibility?</text><text fill="#000000" font-family="Arial" font-size="7.5989" lengthAdjust="spacing" textLength="183.4602" x="425.2695" y="112.588">Service Operation and BOM | What logical exchange?</text></g><!--entity BEHAV--><g id="elem_BEHAV"><rect fill="#FCE4D6" height="37.0698" rx="1.357" ry="1.357" style="stroke:#333333;stroke-width:0.2713908782510366;" width="188.8881" x="285.2318" y="141.1768"/><text fill="#000000" font-family="Arial" font-size="7.5989" lengthAdjust="spacing" textLength="86.3023" x="336.5247" y="153.7323">BEHAVIOUR AND RULES</text><text fill="#000000" font-family="Arial" font-size="7.5989" lengthAdjust="spacing" textLength="172.6046" x="293.3735" y="162.4704">BPMN process | What work, order and exceptions?</text><text fill="#000000" font-family="Arial" font-size="7.5989" lengthAdjust="spacing" textLength="178.0324" x="290.6596" y="171.2084">DMN routing decision | What rules produce a result?</text></g><!--entity SOFTWARE--><g id="elem_SOFTWARE"><rect fill="#E2F0D9" height="37.0698" rx="1.357" ry="1.357" style="stroke:#333333;stroke-width:0.2713908782510366;" width="213.856" x="192.4161" y="199.7972"/><text fill="#000000" font-family="Arial" font-size="7.5989" lengthAdjust="spacing" textLength="111.813" x="243.4376" y="212.3528">SOFTWARE AND INTERACTION</text><text fill="#000000" font-family="Arial" font-size="7.5989" lengthAdjust="spacing" textLength="203.0004" x="197.844" y="221.0908">C4 applications and containers | What software supports it?</text><text fill="#000000" font-family="Arial" font-size="7.5989" lengthAdjust="spacing" textLength="145.4655" x="226.6114" y="229.8288">UML sequence | What ordered messages?</text></g><!--entity INFO--><g id="elem_INFO"><rect fill="#EDE7F6" height="37.0698" rx="1.357" ry="1.357" style="stroke:#333333;stroke-width:0.2713908782510366;" width="200.2865" x="118.8692" y="258.4177"/><text fill="#000000" font-family="Arial" font-size="7.5989" lengthAdjust="spacing" textLength="99.8718" x="169.0765" y="270.9732">INFORMATION AND EVENTS</text><text fill="#000000" font-family="Arial" font-size="7.5989" lengthAdjust="spacing" textLength="189.4308" x="124.297" y="279.7112">Data models | What meaning, ownership and structure?</text><text fill="#000000" font-family="Arial" font-size="7.5989" lengthAdjust="spacing" textLength="151.4361" x="143.2944" y="288.4493">Event contract | What fact is communicated?</text></g><!--entity RUNTIME--><g id="elem_RUNTIME"><rect fill="#DDEBF7" height="28.3317" rx="1.357" ry="1.357" style="stroke:#333333;stroke-width:0.2713908782510366;" width="255.6502" x="3.7995" y="317.0381"/><text fill="#000000" font-family="Arial" font-size="7.5989" lengthAdjust="spacing" textLength="71.6472" x="95.801" y="329.5936">RUNTIME EVIDENCE</text><text fill="#000000" font-family="Arial" font-size="7.5989" lengthAdjust="spacing" textLength="244.7946" x="9.2273" y="338.3317">Deployment and operations | Where does it run and how is it observed?</text></g><!--entity TRACE--><g id="elem_TRACE"><rect fill="#FFFFFF" height="37.0698" rx="1.357" ry="1.357" style="stroke:#333333;stroke-width:0.2713908782510366;" width="274.1048" x="284.4176" y="366.974"/><text fill="#000000" font-family="Arial" font-size="7.5989" lengthAdjust="spacing" textLength="128.0965" x="357.4218" y="379.5295">QUALIFIED TRACEABILITY RECORD</text><text fill="#000000" font-family="Arial" font-size="7.5989" lengthAdjust="spacing" textLength="263.2492" x="289.8455" y="388.2676">source | relationship | target | scope and rationale | owner | version | evidence</text><text fill="#000000" font-family="Arial" font-size="7.5989" lengthAdjust="spacing" textLength="202.4576" x="320.2412" y="397.0056">Mappings may be one-to-many, many-to-one or transitional</text></g><g id="elem_GMN21"><path d="M272.2051,416.3671 L272.2051,439.271 A0,0 0 0 0 272.2051,439.271 L570.735,439.271 A0,0 0 0 0 570.735,439.271 L570.735,421.795 L565.3072,416.3671 L423.6412,416.3671 L421.47,403.9429 L419.2989,416.3671 L272.2051,416.3671 A0,0 0 0 0 272.2051,416.3671 " fill="#FFF8DC" style="stroke:#666666;stroke-width:0.2713908782510366;"/><path d="M565.3072,416.3671 L565.3072,421.795 L570.735,421.795 L565.3072,416.3671 " fill="#FFF8DC" style="stroke:#666666;stroke-width:0.2713908782510366;"/><text fill="#000000" font-family="Arial" font-size="7.5989" lengthAdjust="spacing" textLength="264.3347" x="286.8602" y="426.2088">No automatic equivalence: a Service Domain is not a capability, process step,</text><text fill="#000000" font-family="Arial" font-size="7.5989" lengthAdjust="spacing" textLength="287.1315" x="275.4617" y="434.9468">application, container, microservice, endpoint, event topic, entity or deployment unit.</text></g><!--link INTENT to BIAN--><g id="link_INTENT_BIAN"><path d="M576.2334,60.9808 C565.9477,67.8361 556.9546,73.8287 546.6852,80.6787 " fill="none" id="INTENT-to-BIAN" style="stroke:#333333;stroke-width:0.6513381078024878;"/><polygon fill="#333333" points="543.9759,82.4858,549.2446,81.5813,546.2336,80.9798,546.835,77.9689,543.9759,82.4858" style="stroke:#333333;stroke-width:0.6513381078024878;"/><text fill="#000000" font-family="Arial" font-size="7.5989" lengthAdjust="spacing" textLength="66.2194" x="566.3928" y="74.4862">frames assessment</text></g><!--link BIAN to BEHAV--><g id="link_BIAN_BEHAV"><path d="M429.9483,119.5307 C425.53,121.3164 421.2312,123.2813 417.1278,125.4361 C409.5451,129.4201 404.6489,133.0503 398.5698,138.7712 " fill="none" id="BIAN-to-BEHAV" style="stroke:#333333;stroke-width:0.6513381078024878;"/><polygon fill="#333333" points="396.1981,141.0031,401.2435,139.2364,398.1745,139.1432,398.2677,136.0742,396.1981,141.0031" style="stroke:#333333;stroke-width:0.6513381078024878;"/><text fill="#000000" font-family="Arial" font-size="7.5989" lengthAdjust="spacing" textLength="63.5055" x="417.6706" y="133.1066">informs local detail</text></g><!--link BEHAV to SOFTWARE--><g id="link_BEHAV_SOFTWARE"><path d="M332.3778,178.1077 C329.3545,179.9368 326.4507,181.918 323.7693,184.0566 C318.3524,188.3771 315.4228,191.5155 311.5474,197.0953 " fill="none" id="BEHAV-to-SOFTWARE" style="stroke:#333333;stroke-width:0.6513381078024878;"/><polygon fill="#333333" points="309.6896,199.7701,314.2595,196.9964,311.2377,197.5411,310.693,194.5193,309.6896,199.7701" style="stroke:#333333;stroke-width:0.6513381078024878;"/><text fill="#000000" font-family="Arial" font-size="7.5989" lengthAdjust="spacing" textLength="89.0162" x="324.3121" y="191.7271">behaviour is supported by</text></g><!--link SOFTWARE to INFO--><g id="link_SOFTWARE_INFO"><path d="M224.9125,236.8149 C222.9693,238.5953 221.1673,240.5438 219.5552,242.677 C216.2063,247.1007 215.1839,249.6202 215.3251,255.1349 " fill="none" id="SOFTWARE-to-INFO" style="stroke:#333333;stroke-width:0.6513381078024878;"/><polygon fill="#333333" points="215.4084,258.3905,217.4538,253.4515,215.3389,255.6775,213.113,253.5626,215.4084,258.3905" style="stroke:#333333;stroke-width:0.6513381078024878;"/><text fill="#000000" font-family="Arial" font-size="7.5989" lengthAdjust="spacing" textLength="115.0697" x="220.098" y="250.3475">consumes, produces and persists</text></g><!--link INFO to RUNTIME--><g id="link_INFO_RUNTIME"><path d="M178.8792,295.354 C175.3239,297.2591 171.8284,299.2511 168.5337,301.2974 C161.1682,305.8785 156.0905,309.6237 149.7183,314.8616 " fill="none" id="INFO-to-RUNTIME" style="stroke:#333333;stroke-width:0.6513381078024878;"/><polygon fill="#333333" points="147.2024,316.9295,152.3548,315.5048,149.299,315.2062,149.5975,312.1503,147.2024,316.9295" style="stroke:#333333;stroke-width:0.6513381078024878;"/><text fill="#000000" font-family="Arial" font-size="7.5989" lengthAdjust="spacing" textLength="102.043" x="169.0765" y="308.9679">contracts and software run on</text></g><!--link INTENT to TRACE--><g id="link_INTENT_TRACE"><path d="M637.2041,60.9482 C650.4208,70.5935 662.4651,83.9187 662.4651,100.4682 C662.4651,100.4682 662.4651,100.4682 662.4651,331.6932 C662.4651,356.5689 616.106,369.4031 561.9147,376.4593 " fill="none" id="INTENT-to-TRACE" style="stroke:#333333;stroke-width:0.6513381078024878;stroke-dasharray:7.0,7.0;"/><polygon fill="#333333" points="558.6853,376.8798,563.8097,378.402,561.3765,376.5294,563.2491,374.0961,558.6853,376.8798" style="stroke:#333333;stroke-width:0.6513381078024878;"/><text fill="#000000" font-family="Arial" font-size="7.5989" lengthAdjust="spacing" textLength="47.7648" x="663.0079" y="221.0373">business links</text></g><!--link BIAN to TRACE--><g id="link_BIAN_TRACE"><path d="M503.1587,119.6772 C496.2382,130.5166 489.3178,144.9003 489.3178,159.0886 C489.3178,159.0886 489.3178,159.0886 489.3178,331.6932 C489.3178,346.9616 481.2854,356.7408 468.3237,365.105 " fill="none" id="BIAN-to-TRACE" style="stroke:#333333;stroke-width:0.6513381078024878;stroke-dasharray:7.0,7.0;"/><polygon fill="#333333" points="465.5873,366.8709,470.8692,366.0464,467.8677,365.3994,468.5147,362.3979,465.5873,366.8709" style="stroke:#333333;stroke-width:0.6513381078024878;"/><text fill="#000000" font-family="Arial" font-size="7.5989" lengthAdjust="spacing" textLength="50.4787" x="489.8605" y="250.3475">reference links</text></g><!--link TRACE to BIAN--><g id="link_TRACE_BIAN"><path d="M498.1922,366.936 C527.2093,357.8553 553.366,345.7675 553.366,331.6932 C553.366,159.0886 553.366,159.0886 553.366,159.0886 C553.366,144.2001 546.6626,132.5122 537.7175,121.9606 " fill="none" id="TRACE-to-BIAN" style="stroke:#333333;stroke-width:0.6513381078024878;stroke-dasharray:7.0,7.0;"/><polygon fill="#333333" points="535.6116,119.4764,537.1144,124.6066,537.3665,121.5465,540.4266,121.7987,535.6116,119.4764" style="stroke:#333333;stroke-width:0.6513381078024878;"/><text fill="#000000" font-family="Arial" font-size="7.5989" lengthAdjust="spacing" textLength="99.8718" x="553.9088" y="250.3475">evidence can revise mapping</text></g><!--link BEHAV to TRACE--><g id="link_BEHAV_TRACE"><path d="M408.9698,178.1348 C410.7935,179.9803 412.4599,181.9506 413.8711,184.0566 C422.4199,196.7848 421.47,202.3754 421.47,217.709 C421.47,217.709 421.47,217.709 421.47,331.6932 C421.47,343.4227 421.47,353.3502 421.47,363.6576 " fill="none" id="BEHAV-to-TRACE" style="stroke:#333333;stroke-width:0.6513381078024878;stroke-dasharray:7.0,7.0;"/><polygon fill="#333333" points="421.47,366.9143,423.6412,362.0293,421.47,364.2004,419.2989,362.0293,421.47,366.9143" style="stroke:#333333;stroke-width:0.6513381078024878;"/><text fill="#000000" font-family="Arial" font-size="7.5989" lengthAdjust="spacing" textLength="51.5643" x="422.0128" y="279.6577">behaviour links</text></g><!--link SOFTWARE to TRACE--><g id="link_SOFTWARE_TRACE"><path d="M331.0697,236.7661 C332.8229,238.5898 334.397,240.5547 335.7105,242.677 C351.8149,268.7088 330.1416,283.7004 343.8522,311.0675 C355.3484,334.0109 374.4077,351.7061 391.9287,364.9554 " fill="none" id="SOFTWARE-to-TRACE" style="stroke:#333333;stroke-width:0.6513381078024878;stroke-dasharray:7.0,7.0;"/><polygon fill="#333333" points="394.5263,366.9197,391.9395,362.2415,392.3617,365.2828,389.3204,365.705,394.5263,366.9197" style="stroke:#333333;stroke-width:0.6513381078024878;"/><text fill="#000000" font-family="Arial" font-size="7.5989" lengthAdjust="spacing" textLength="68.9333" x="344.395" y="308.9679">implementation links</text></g><!--link INFO to TRACE--><g id="link_INFO_TRACE"><path d="M265.1652,295.3702 C267.51,297.1777 269.7028,299.148 271.6623,301.2974 C285.5846,316.5821 272.0856,330.7976 286.8602,345.2627 C296.2177,354.4249 304.6073,360.1522 316.7168,365.5909 " fill="none" id="INFO-to-TRACE" style="stroke:#333333;stroke-width:0.6513381078024878;stroke-dasharray:7.0,7.0;"/><polygon fill="#333333" points="319.6876,366.9252,316.1209,362.9432,317.2119,365.8133,314.3419,366.9043,319.6876,366.9252" style="stroke:#333333;stroke-width:0.6513381078024878;"/><text fill="#000000" font-family="Arial" font-size="7.5989" lengthAdjust="spacing" textLength="47.7648" x="287.4029" y="333.9359">semantic links</text></g><!--link RUNTIME to TRACE--><g id="link_RUNTIME_TRACE"><path d="M157.8138,345.3116 C169.9992,351.0651 184.8823,357.2853 198.9295,361.0034 C226.1609,368.2115 252.5863,372.8548 281.1095,376.3775 " fill="none" id="RUNTIME-to-TRACE" style="stroke:#333333;stroke-width:0.6513381078024878;"/><polygon fill="#333333" points="284.3417,376.7766,279.7596,374.0231,281.6482,376.444,279.2273,378.3326,284.3417,376.7766" style="stroke:#333333;stroke-width:0.6513381078024878;"/><text fill="#000000" font-family="Arial" font-size="7.5989" lengthAdjust="spacing" textLength="71.6472" x="199.4723" y="358.9038">operational evidence</text></g><!--SRC=[NLNVZzeu47xFNp7NVGMwvQhR7W-jW2HtaHReyQFLIVjYaW6iJUoSxK2Hze_lZ9saS0X1Oezdlldcc_5lKkLbKo2CHk_fQzsrHFk-BeLoJLKEtGah7DNq6DbSb0XFuqUuoCAT8YSTlQVPNyFVnyF73nEOPTCb25L0rPHE3Xtc9oN_Qn2S4JcAlIobkqPEr-0qxBLpke926ioTr2gohrBLmWXQmuCW3rlyuQQbFAeAbOESVj3SM2bTeCKQFdowMJH2lVBYU1n5x5Ye8s5yDzjjicMosK2st2RBxOkQYxh5Cu6lukeZP4ewAHWBlC7tat3Gce2qe10BBBwyg0q14KRg2UZ67RLKHwXR1-qfMizrXPw9N9Ubs6lZtNvv1yAs4E0XcQRZzDCzJ2PmdQJ9EbdE4qQf2ba8Xx11SvOvGgmh8NjyUygM0HYqjLPM1hWCiZLVrHX2Up2prQ8xMUgZf782_iXF51m3D1__8KtJyNn-3opvU_ejM-tMC5t6iDuz9viNDVkwM49jT8xMTdulshmEG9i2ZGz9_h5c09PGnMHlY1s6N60kxGtLfY7PiRUY8To2Ko89jB0uEk6Q9n_ZF-vmRLRfzljqdNXOJEnwEjzcgoLHzn54NPUKf8_U5aCvOWzD3zVgWxi8Ws2RkjR6MP2EWEuMps2HbAi8IrTLpWb9svIjEA8Dq7e03yauVOp_l4ENBTFLUZ5bG1vWyeqAJyJ5mWceIBvb3wH2eOWMekx2-4wozeYjCqtk6eC4AZdxDg0Sg9jwiHtucVH9YgiQnUcIIbkTfIk25ITFwJrfwzrocoqIWfF5GMSnrgKE6kQekbDDW4TfGw6HkQ4o1IcTz8MZqehUMn9R5xJp_H37oInzkelxpsxwdALP4iEMofHCPzbpjlsNz3vVhUCNPNLZFDq6on2TMNW39ymHEL-R4p0VFQ3ZQVGM2AF_Cz4Mz8HdMN3bNjI2942iMgZ45VO8Mk7GwM4br7K0_Cjlj4Z5vHb57HJy-bGyIDyDz8cYjcs7my-XJIPme853h0XhIH9CNkGtl8LNx0IaEcXJMMetRhO2INvb53RPh5VFXD2Tn5aI1KnhgqPIs_uQzKPymXTrmYgm3GKVT1qJ15up1zRPo9knVLUFII-SODaBdmjAmxTBRpJwt2PEa1fBpKAzNKeQgY6vsts31v86jqXhuFEwyz0d5IpwL6wDP5MNoFI5GHKiVGAtLXQfNaxcxNwN5-VOcVIovRdMQY0Ac-ofhLgt0xbGbC9PMYGfU9r4aT8qQyFD504iDOY67WN7fN4WpoGvEZgX-VI_WSmtXARk8Q_TnJBePwDrM0_8tyr06lmQHgH4cHjjWyC1e2fgkbOSFVcEf_jIvhpi-2eYfHQ_kfKwteqYEi7HyIS0]--></g></svg>