<?xml version="1.0" encoding="us-ascii" standalone="no"?><svg xmlns="http://www.w3.org/2000/svg" xmlns:xlink="http://www.w3.org/1999/xlink" contentStyleType="text/css" height="581.5068px" preserveAspectRatio="none" style="width:700px;height:581px;background:#FFFFFF;" version="1.1" viewBox="0 0 700 581" width="700.6849px" zoomAndPan="magnify"><defs/><g><text fill="#000000" font-family="Arial" font-size="9.589" font-weight="bold" lengthAdjust="spacing" textLength="253.4247" x="218.8356" y="15.8437">FIG-31-01: BIAN reference to implementation choices</text><!--entity REF--><g id="elem_REF"><rect fill="#EAF2F8" height="79.8574" rx="3.4247" ry="3.4247" style="stroke:#333333;stroke-width:0.3424657534246575;" width="221.9178" x="180.8219" y="30.2045"/><text fill="#000000" font-family="Arial" font-size="9.589" lengthAdjust="spacing" textLength="124.6575" x="229.4521" y="46.0483">BIAN LOGICAL REFERENCE</text><text fill="#000000" font-family="Arial" font-size="9.589" lengthAdjust="spacing" textLength="197.2603" x="193.1507" y="57.0747">Service Landscape: organises responsibilities</text><text fill="#000000" font-family="Arial" font-size="9.589" lengthAdjust="spacing" textLength="184.9315" x="199.3151" y="68.1012">Business Scenario: illustrates collaboration</text><text fill="#000000" font-family="Arial" font-size="9.589" lengthAdjust="spacing" textLength="183.5616" x="200" y="79.1276">Service Operation: describes an exchange</text><text fill="#000000" font-family="Arial" font-size="9.589" lengthAdjust="spacing" textLength="208.2192" x="187.6712" y="90.1541">Business Object Model: defines shared meaning</text><text fill="#000000" font-family="Arial" font-size="9.589" lengthAdjust="spacing" textLength="145.2055" x="219.1781" y="101.1806">Semantic API and event guidance</text></g><!--entity MAP--><g id="elem_MAP"><rect fill="#FFF2CC" height="79.8574" rx="3.4247" ry="3.4247" style="stroke:#333333;stroke-width:0.3424657534246575;" width="192.4658" x="195.5479" y="134.9991"/><text fill="#000000" font-family="Arial" font-size="9.589" lengthAdjust="spacing" textLength="134.9315" x="224.3151" y="150.8428">HORIZON BANK ASSESSMENT</text><text fill="#000000" font-family="Arial" font-size="9.589" lengthAdjust="spacing" textLength="178.7671" x="202.3973" y="161.8692">Map capabilities, processes, applications,</text><text fill="#000000" font-family="Arial" font-size="9.589" lengthAdjust="spacing" textLength="141.0959" x="221.2329" y="172.8957">data, owners, gaps and overlaps</text><text fill="#000000" font-family="Arial" font-size="9.589" lengthAdjust="spacing" textLength="2.7397" x="290.411" y="183.9222">&#160;</text><text fill="#000000" font-family="Arial" font-size="9.589" lengthAdjust="spacing" textLength="141.0959" x="221.2329" y="194.9486">Caution: a Service Domain is not</text><text fill="#000000" font-family="Arial" font-size="9.589" lengthAdjust="spacing" textLength="121.2329" x="231.1644" y="205.9751">automatically a microservice</text></g><!--entity APP--><g id="elem_APP"><rect fill="#E2F0D9" height="35.7516" rx="3.4247" ry="3.4247" style="stroke:#333333;stroke-width:0.3424657534246575;" width="182.1918" x="4.7945" y="239.7936"/><text fill="#000000" font-family="Arial" font-size="9.589" lengthAdjust="spacing" textLength="18.4932" x="86.6438" y="255.6373">APP</text><text fill="#000000" font-family="Arial" font-size="9.589" lengthAdjust="spacing" textLength="168.4932" x="11.6438" y="266.6638">Application and component boundaries</text></g><!--entity API--><g id="elem_API"><rect fill="#E2F0D9" height="35.7516" rx="3.4247" ry="3.4247" style="stroke:#333333;stroke-width:0.3424657534246575;" width="116.4384" x="130.137" y="300.0676"/><text fill="#000000" font-family="Arial" font-size="9.589" lengthAdjust="spacing" textLength="14.3836" x="181.1644" y="315.9113">API</text><text fill="#000000" font-family="Arial" font-size="9.589" lengthAdjust="spacing" textLength="102.7397" x="136.9863" y="326.9377">API and event contracts</text></g><!--entity DATA--><g id="elem_DATA"><rect fill="#E2F0D9" height="35.7516" rx="3.4247" ry="3.4247" style="stroke:#333333;stroke-width:0.3424657534246575;" width="178.7671" x="186.6438" y="360.3415"/><text fill="#000000" font-family="Arial" font-size="9.589" lengthAdjust="spacing" textLength="25.3425" x="263.3562" y="376.1853">DATA</text><text fill="#000000" font-family="Arial" font-size="9.589" lengthAdjust="spacing" textLength="165.0685" x="193.4932" y="387.2117">Data ownership and physical schemas</text></g><!--entity OPS--><g id="elem_OPS"><rect fill="#E2F0D9" height="35.7516" rx="3.4247" ry="3.4247" style="stroke:#333333;stroke-width:0.3424657534246575;" width="171.9178" x="315.411" y="420.6155"/><text fill="#000000" font-family="Arial" font-size="9.589" lengthAdjust="spacing" textLength="19.863" x="391.4384" y="436.4592">OPS</text><text fill="#000000" font-family="Arial" font-size="9.589" lengthAdjust="spacing" textLength="158.2192" x="322.2603" y="447.4857">Security, deployment and operations</text></g><!--entity EVID--><g id="elem_EVID"><rect fill="#FCE4D6" height="46.778" rx="3.4247" ry="3.4247" style="stroke:#333333;stroke-width:0.3424657534246575;" width="235.6164" x="120.5479" y="480.8895"/><text fill="#000000" font-family="Arial" font-size="9.589" lengthAdjust="spacing" textLength="221.9178" x="127.3973" y="496.7332">IMPLEMENTATION AND OPERATIONAL EVIDENCE</text><text fill="#000000" font-family="Arial" font-size="9.589" lengthAdjust="spacing" textLength="144.5205" x="166.0959" y="507.7597">Quality attributes, tests, telemetry</text><text fill="#000000" font-family="Arial" font-size="9.589" lengthAdjust="spacing" textLength="108.9041" x="183.9041" y="518.7861">and migration constraints</text></g><!--link APP to API--><!--link API to DATA--><!--link DATA to OPS--><!--link REF to MAP--><g id="link_REF_MAP"><path d="M291.7808,110.3552 C291.7808,118.4032 291.7808,122.7662 291.7808,130.8141 " fill="none" id="REF-to-MAP" style="stroke:#333333;stroke-width:0.821917808219178;"/><polygon fill="#333333" points="291.7808,134.9237,294.5205,128.7593,291.7808,131.4991,289.0411,128.7593,291.7808,134.9237" style="stroke:#333333;stroke-width:0.821917808219178;"/><text fill="#000000" font-family="Arial" font-size="9.589" lengthAdjust="spacing" textLength="85.6164" x="292.4658" y="126.1853">informs assessment</text></g><!--link MAP to APP--><g id="link_MAP_APP"><path d="M195.5274,184.0813 C166.2534,190.595 135.6849,201.8826 112.3288,221.3004 C106.6712,225.9991 104.3239,229.2332 101.8102,235.8428 " fill="none" id="MAP-to-APP" style="stroke:#333333;stroke-width:0.821917808219178;"/><polygon fill="#333333" points="100.3493,239.684,105.1014,234.8961,101.5667,236.483,99.9798,232.9483,100.3493,239.684" style="stroke:#333333;stroke-width:0.821917808219178;"/><text fill="#000000" font-family="Arial" font-size="9.589" lengthAdjust="spacing" textLength="82.8767" x="113.0137" y="230.9798">choose boundaries</text></g><!--link MAP to API--><g id="link_MAP_API"><path d="M231.4041,215.1977 C223.1986,222.5881 215.5616,230.8415 209.589,239.7936 C197.3699,258.1087 192.6852,279.2267 190.4797,295.8225 " fill="none" id="MAP-to-API" style="stroke:#333333;stroke-width:0.821917808219178;"/><polygon fill="#333333" points="189.9384,299.8963,193.4663,294.1466,190.3895,296.5015,188.0346,293.4247,189.9384,299.8963" style="stroke:#333333;stroke-width:0.821917808219178;"/><text fill="#000000" font-family="Arial" font-size="9.589" lengthAdjust="spacing" textLength="73.9726" x="210.274" y="261.1168">choose contracts</text></g><!--link MAP to DATA--><g id="link_MAP_DATA"><path d="M288.8356,215.2799 C287.4658,233.5813 285.7945,255.6018 284.2466,275.41 C281.9178,305.273 279.4238,335.9374 277.7663,356.2182 " fill="none" id="MAP-to-DATA" style="stroke:#333333;stroke-width:0.821917808219178;"/><polygon fill="#333333" points="277.4315,360.3141,280.6643,354.3934,277.7105,356.9009,275.203,353.9471,277.4315,360.3141" style="stroke:#333333;stroke-width:0.821917808219178;"/><text fill="#000000" font-family="Arial" font-size="9.589" lengthAdjust="spacing" textLength="78.0822" x="284.2466" y="291.2537">choose ownership</text></g><!--link MAP to OPS--><g id="link_MAP_OPS"><path d="M359.774,215.2182 C371.2055,226.7045 379.4521,240.636 379.4521,256.9169 C379.4521,256.9169 379.4521,256.9169 379.4521,378.8347 C379.4521,393.5676 383.6987,405.4729 389.4589,416.9044 " fill="none" id="MAP-to-OPS" style="stroke:#333333;stroke-width:0.821917808219178;"/><polygon fill="#333333" points="391.3082,420.5744,390.9809,413.8366,389.7671,417.5161,386.0876,416.3023,391.3082,420.5744" style="stroke:#333333;stroke-width:0.821917808219178;"/><text fill="#000000" font-family="Arial" font-size="9.589" lengthAdjust="spacing" textLength="122.6027" x="380.137" y="321.3907">choose controls and runtime</text></g><!--link APP to EVID--><g id="link_APP_EVID"><path d="M96.1986,275.5539 C96.3767,287.2936 96.5753,303.1771 96.5753,317.1908 C96.5753,317.1908 96.5753,317.1908 96.5753,439.1087 C96.5753,458.0333 103.6767,469.2722 119.0808,478.7379 " fill="none" id="APP-to-EVID" style="stroke:#333333;stroke-width:0.821917808219178;"/><polygon fill="#333333" points="122.5822,480.8895,118.7645,475.3279,119.6644,479.0965,115.8958,479.9964,122.5822,480.8895" style="stroke:#333333;stroke-width:0.821917808219178;"/><text fill="#000000" font-family="Arial" font-size="9.589" lengthAdjust="spacing" textLength="60.274" x="97.2603" y="381.6647">APP evidence</text></g><!--link API to EVID--><g id="link_API_EVID"><path d="M184.2671,335.821 C180.4384,355.5196 176.6096,388.3895 186.3014,414.4511 C195.226,438.4511 208.1311,460.0137 219.8092,477.3767 " fill="none" id="API-to-EVID" style="stroke:#333333;stroke-width:0.821917808219178;"/><polygon fill="#333333" points="222.1027,480.7867,220.9358,474.1426,220.1915,477.945,216.3891,477.2007,222.1027,480.7867" style="stroke:#333333;stroke-width:0.821917808219178;"/><text fill="#000000" font-family="Arial" font-size="9.589" lengthAdjust="spacing" textLength="56.1644" x="186.9863" y="411.8017">API evidence</text></g><!--link DATA to EVID--><g id="link_DATA_EVID"><path d="M258.6164,396.0402 C252.6164,403.0607 246.5548,411.636 243.1507,420.6155 C235.8219,439.958 234.9966,459.5523 235.8664,476.6414 " fill="none" id="DATA-to-EVID" style="stroke:#333333;stroke-width:0.821917808219178;"/><polygon fill="#333333" points="236.0753,480.7456,238.4982,474.4499,235.9012,477.3254,233.0258,474.7285,236.0753,480.7456" style="stroke:#333333;stroke-width:0.821917808219178;"/><text fill="#000000" font-family="Arial" font-size="9.589" lengthAdjust="spacing" textLength="67.1233" x="243.8356" y="441.9387">DATA evidence</text></g><!--link OPS to EVID--><g id="link_OPS_EVID"><path d="M357.8973,456.2799 C338.8493,463.8004 320.0414,471.2291 299.6305,479.2908 " fill="none" id="OPS-to-EVID" style="stroke:#333333;stroke-width:0.821917808219178;"/><polygon fill="#333333" points="295.8082,480.8004,302.548,481.0841,298.9934,479.5424,300.5352,475.9878,295.8082,480.8004" style="stroke:#333333;stroke-width:0.821917808219178;"/><text fill="#000000" font-family="Arial" font-size="9.589" lengthAdjust="spacing" textLength="61.6438" x="339.726" y="472.0757">OPS evidence</text></g><!--link EVID to MAP--><g id="link_EVID_MAP"><path d="M356.2877,497.3347 C432.0822,490.0265 516.4384,474.047 516.4384,439.1087 C516.4384,256.9169 516.4384,256.9169 516.4384,256.9169 C516.4384,227.8347 453.0183,207.152 392.0457,193.5835 " fill="none" id="EVID-to-MAP" style="stroke:#333333;stroke-width:0.821917808219178;stroke-dasharray:7.0,7.0;"/><polygon fill="#333333" points="388.0342,192.6908,393.4563,196.7042,391.3771,193.4348,394.6466,191.3556,388.0342,192.6908" style="stroke:#333333;stroke-width:0.821917808219178;"/><text fill="#000000" font-family="Arial" font-size="9.589" lengthAdjust="spacing" textLength="178.0822" x="517.1233" y="351.5277">revise mapping when evidence disagrees</text></g><rect fill="none" height="28.9022" id="_legend" rx="5.137" ry="5.137" style="stroke:#000000;stroke-width:0.684931506849315;" width="251.3699" x="219.863" y="539.3113"/><text fill="#000000" font-family="Arial" font-size="9.589" lengthAdjust="spacing" textLength="211.6438" x="239.726" y="551.7304">Blue: BIAN reference | Yellow: bank interpretation</text><text fill="#000000" font-family="Arial" font-size="9.589" lengthAdjust="spacing" textLength="244.5205" x="223.2877" y="562.7568">Green: physical choices | Peach: evidence and feedback</text><!--SRC=[RLHDanet4BtFh-ZOrmMp96Kx758r2yDcAik7OIkf9EGWPXfGLYDDIPfTKud_Uvuqom2EgoX0tQtkVk-r-Zkf2zMKJFt-EtoSFofsxsebj6ygrVC7hhXVus_Y2g6OFWm6z29BVqYyz3XFy_lUzxUzmUs8xl9qJfPtR5aNJDwGh6g5-zeBBuscuc1amIxnfWxUhV7UL5HAoqNm9-v9wbfO0HllHAFy8t_sgP9x7N9GWI-s5r7QbEoufjlXXT4A_HID7o-Dg23q7lt-an2jJAFBiR6QBTqEO9X9BQkc-YtWek7xGV8bISvNtaHW3ulxV9m-q2gRPgjiFiusUits6O3eGUWIxDGy8cFtGal73YLTRRIJMwcab-ms-gvnKhDpj0OIOQKPaLIgSTuAZmk5KKfiZOrSdPClQcvD8x3Y2YktY1MQ-7DnG7zyaNUn_HjDqmoqg12z2sPo1s6vf8hHcDw7n1N4bGMbono9IkBdmEw-aQM0Rcz8k02ItcRfT3ZzUCN4pujL_iTYJdVf_1TAr-jilPvbyyUDdecQm80ueRsXsXfexS9VKTTA5X64kzdeKdXnG-O5zCEv5xMBRPXdjWg73S2FHTD25dJYOM8g8JL91zdzHYC01i0GIXqHLid26jV6HWYpT4blfzFfS3o-Wf0kbnkTdZkAjGjJGQn0mpRC1iHX5xCW6aGCfuF9ZzT9SYIvugym6a8M_dGl_zQzIVgORlG41BpYFyWwvgWFHnUma2lmuaIR94H_AyjYkGuo5esL_dW3eMjbZl69H1vF0zCcGN2N8w3f_NcGPSdwhn8Tz4AZIMZsAtCedSJwNpcGxehEVBPyoC8Cf8yv1YETJn2IhU89hoNxDP-qZ-LJ8p0QaCfxp73Zms3WoyUVi2MyFK9M0AZathuk3800gLA_iXgoGTHnziFaVPA48UtrVefAuodfdR4LHYdCd0ji9C4H0WBiKTW-690BWI_y-TdVwTYv8msTlzEjymU6hwyRrOwqRV3GAcvvHsJiVnJxuMTPXZNPad_foy- -Le2pCvuxRwXxuGp7pXTj_Vw970i7cglm4h43wEN0kel50dPYRnc498htZBxRpOp5UASQ_jzY_vT-PwNCouYssBKW7bkvjjmkULowHouytMwaNzS-xYrP58VHkNBWQCTSRaNnbA1mM_u_]--></g></svg>