<?xml version="1.0" encoding="us-ascii" standalone="no"?><svg xmlns="http://www.w3.org/2000/svg" xmlns:xlink="http://www.w3.org/1999/xlink" contentStyleType="text/css" height="1078px" preserveAspectRatio="none" style="width:1790px;height:1078px;background:#FFFFFF;" version="1.1" viewBox="0 0 1790 1078" width="1790px" zoomAndPan="magnify"><defs/><g><text fill="#000000" font-family="Arial" font-size="14" font-weight="bold" lengthAdjust="spacing" textLength="361" x="707.5" y="23.1318">FIG-12-04. Horizon Bank Payment Threat-Model DFD</text><!--cluster DigitalChannelContext--><g id="cluster_DigitalChannelContext"><rect fill="#F7F9FB" height="216" rx="2.5" ry="2.5" style="stroke:#333333;stroke-width:1.0;" width="269" x="343" y="44.0986"/><text fill="#000000" font-family="Arial" font-size="14" font-weight="bold" lengthAdjust="spacing" textLength="219" x="368" y="59.2305">Digital Channel Access Context</text></g><!--cluster PaymentContext--><g id="cluster_PaymentContext"><rect fill="#F7F9FB" height="200" rx="2.5" ry="2.5" style="stroke:#333333;stroke-width:1.0;" width="1009" x="361" y="284.0986"/><text fill="#000000" font-family="Arial" font-size="14" font-weight="bold" lengthAdjust="spacing" textLength="224" x="753.5" y="299.2305">Payment Platform Responsibility</text></g><!--cluster FinancialCrimeContext--><g id="cluster_FinancialCrimeContext"><rect fill="#F7F9FB" height="200" rx="2.5" ry="2.5" style="stroke:#333333;stroke-width:1.0;" width="228" x="1188" y="732.0986"/><text fill="#000000" font-family="Arial" font-size="14" font-weight="bold" lengthAdjust="spacing" textLength="212" x="1196" y="747.2305">Financial-Crime Responsibility</text></g><!--cluster CoreContext--><g id="cluster_CoreContext"><rect fill="#F7F9FB" height="200" rx="2.5" ry="2.5" style="stroke:#333333;stroke-width:1.0;" width="220" x="1192" y="508.0986"/><text fill="#000000" font-family="Arial" font-size="14" font-weight="bold" lengthAdjust="spacing" textLength="204" x="1200" y="523.2305">Retained Core Responsibility</text></g><!--cluster EventContext--><g id="cluster_EventContext"><rect fill="#F7F9FB" height="180" rx="2.5" ry="2.5" style="stroke:#333333;stroke-width:1.0;" width="202" x="1201" y="80.0986"/><text fill="#000000" font-family="Arial" font-size="14" font-weight="bold" lengthAdjust="spacing" textLength="186" x="1209" y="95.2305">Event Distribution Context</text></g><!--entity DigitalChannelBasis--><g id="elem_DigitalChannelBasis"><rect fill="#F7F9FB" height="68.2959" rx="2.5" ry="2.5" style="stroke:#333333;stroke-width:0.5;" width="237" x="359" y="79.0986"/><text fill="#000000" font-family="Arial" font-size="14" lengthAdjust="spacing" textLength="101" x="369" y="102.2305">boundary basis:</text><text fill="#000000" font-family="Arial" font-size="14" lengthAdjust="spacing" textLength="217" x="369" y="118.3291">internet-facing session termination</text><text fill="#000000" font-family="Arial" font-size="14" lengthAdjust="spacing" textLength="180" x="369" y="134.4277">and channel access controls</text></g><!--entity Channels--><g id="elem_Channels"><rect fill="#FFFFFF" height="62.1973" rx="2.5" ry="2.5" style="stroke:#333333;stroke-width:0.5;" width="130" x="412.5" y="182.0986"/><rect fill="#FFFFFF" height="10" style="stroke:#333333;stroke-width:0.5;" width="15" x="522.5" y="187.0986"/><rect fill="#FFFFFF" height="2" style="stroke:#333333;stroke-width:0.5;" width="4" x="520.5" y="189.0986"/><rect fill="#FFFFFF" height="2" style="stroke:#333333;stroke-width:0.5;" width="4" x="520.5" y="193.0986"/><text fill="#000000" font-family="Arial" font-size="14" lengthAdjust="spacing" textLength="90" x="427.5" y="215.2305">Horizon Digital</text><text fill="#000000" font-family="Arial" font-size="14" lengthAdjust="spacing" textLength="60" x="427.5" y="231.3291">Channels</text></g><!--entity PaymentBasis--><g id="elem_PaymentBasis"><rect fill="#F7F9FB" height="52.1973" rx="2.5" ry="2.5" style="stroke:#333333;stroke-width:0.5;" width="201" x="377" y="319.0986"/><text fill="#000000" font-family="Arial" font-size="14" lengthAdjust="spacing" textLength="101" x="387" y="342.2305">boundary basis:</text><text fill="#000000" font-family="Arial" font-size="14" lengthAdjust="spacing" textLength="181" x="387" y="358.3291">payment orchestration policy</text></g><!--entity OpsInterface--><g id="elem_OpsInterface"><rect fill="#FFFFFF" height="62.1973" rx="2.5" ry="2.5" style="stroke:#333333;stroke-width:0.5;" width="182" x="386.5" y="406.0986"/><rect fill="#FFFFFF" height="10" style="stroke:#333333;stroke-width:0.5;" width="15" x="548.5" y="411.0986"/><rect fill="#FFFFFF" height="2" style="stroke:#333333;stroke-width:0.5;" width="4" x="546.5" y="413.0986"/><rect fill="#FFFFFF" height="2" style="stroke:#333333;stroke-width:0.5;" width="4" x="546.5" y="417.0986"/><text fill="#000000" font-family="Arial" font-size="14" lengthAdjust="spacing" textLength="142" x="401.5" y="439.2305">Authorised Operations</text><text fill="#000000" font-family="Arial" font-size="14" lengthAdjust="spacing" textLength="55" x="401.5" y="455.3291">Interface</text></g><!--entity Payments--><g id="elem_Payments"><rect fill="#FFFFFF" height="62.1973" rx="2.5" ry="2.5" style="stroke:#333333;stroke-width:0.5;" width="102" x="851" y="402.0986"/><rect fill="#FFFFFF" height="10" style="stroke:#333333;stroke-width:0.5;" width="15" x="933" y="407.0986"/><rect fill="#FFFFFF" height="2" style="stroke:#333333;stroke-width:0.5;" width="4" x="931" y="409.0986"/><rect fill="#FFFFFF" height="2" style="stroke:#333333;stroke-width:0.5;" width="4" x="931" y="413.0986"/><text fill="#000000" font-family="Arial" font-size="14" lengthAdjust="spacing" textLength="62" x="866" y="435.2305">Payments</text><text fill="#000000" font-family="Arial" font-size="14" lengthAdjust="spacing" textLength="52" x="866" y="451.3291">Platform</text></g><!--entity PaymentStore--><g id="elem_PaymentStore"><path d="M1250,414.5986 C1250,404.5986 1302,404.5986 1302,404.5986 C1302,404.5986 1354,404.5986 1354,414.5986 L1354,455.7959 C1354,465.7959 1302,465.7959 1302,465.7959 C1302,465.7959 1250,465.7959 1250,455.7959 L1250,414.5986 " fill="#F2F5F7" style="stroke:#333333;stroke-width:0.5;"/><path d="M1250,414.5986 C1250,424.5986 1302,424.5986 1302,424.5986 C1302,424.5986 1354,424.5986 1354,414.5986 " fill="none" style="stroke:#333333;stroke-width:0.5;"/><text fill="#000000" font-family="Arial" font-size="14" lengthAdjust="spacing" textLength="55" x="1260" y="441.7305">Payment</text><text fill="#000000" font-family="Arial" font-size="14" lengthAdjust="spacing" textLength="84" x="1260" y="457.8291">Record Store</text></g><!--entity AuditLog--><g id="elem_AuditLog"><path d="M1262,334.5986 C1262,324.5986 1302,324.5986 1302,324.5986 C1302,324.5986 1342,324.5986 1342,334.5986 L1342,359.6973 C1342,369.6973 1302,369.6973 1302,369.6973 C1302,369.6973 1262,369.6973 1262,359.6973 L1262,334.5986 " fill="#F2F5F7" style="stroke:#333333;stroke-width:0.5;"/><path d="M1262,334.5986 C1262,344.5986 1302,344.5986 1302,344.5986 C1302,344.5986 1342,344.5986 1342,334.5986 " fill="none" style="stroke:#333333;stroke-width:0.5;"/><text fill="#000000" font-family="Arial" font-size="14" lengthAdjust="spacing" textLength="60" x="1272" y="361.7305">Audit Log</text></g><!--entity FinancialCrimeBasis--><g id="elem_FinancialCrimeBasis"><rect fill="#F7F9FB" height="52.1973" rx="2.5" ry="2.5" style="stroke:#333333;stroke-width:0.5;" width="121" x="1241.5" y="767.0986"/><text fill="#000000" font-family="Arial" font-size="14" lengthAdjust="spacing" textLength="101" x="1251.5" y="790.2305">boundary basis:</text><text fill="#000000" font-family="Arial" font-size="14" lengthAdjust="spacing" textLength="95" x="1251.5" y="806.3291">policy authority</text></g><!--entity FinancialCrime--><g id="elem_FinancialCrime"><rect fill="#FFFFFF" height="62.1973" rx="2.5" ry="2.5" style="stroke:#333333;stroke-width:0.5;" width="138" x="1233" y="854.0986"/><rect fill="#FFFFFF" height="10" style="stroke:#333333;stroke-width:0.5;" width="15" x="1351" y="859.0986"/><rect fill="#FFFFFF" height="2" style="stroke:#333333;stroke-width:0.5;" width="4" x="1349" y="861.0986"/><rect fill="#FFFFFF" height="2" style="stroke:#333333;stroke-width:0.5;" width="4" x="1349" y="865.0986"/><text fill="#000000" font-family="Arial" font-size="14" lengthAdjust="spacing" textLength="98" x="1248" y="887.2305">Financial Crime</text><text fill="#000000" font-family="Arial" font-size="14" lengthAdjust="spacing" textLength="52" x="1248" y="903.3291">Platform</text></g><!--entity CoreBasis--><g id="elem_CoreBasis"><rect fill="#F7F9FB" height="52.1973" rx="2.5" ry="2.5" style="stroke:#333333;stroke-width:0.5;" width="152" x="1226" y="543.0986"/><text fill="#000000" font-family="Arial" font-size="14" lengthAdjust="spacing" textLength="101" x="1236" y="566.2305">boundary basis:</text><text fill="#000000" font-family="Arial" font-size="14" lengthAdjust="spacing" textLength="132" x="1236" y="582.3291">core account posting</text></g><!--entity Core--><g id="elem_Core"><path d="M1250.5,640.5986 C1250.5,630.5986 1302,630.5986 1302,630.5986 C1302,630.5986 1353.5,630.5986 1353.5,640.5986 L1353.5,681.7959 C1353.5,691.7959 1302,691.7959 1302,691.7959 C1302,691.7959 1250.5,691.7959 1250.5,681.7959 L1250.5,640.5986 " fill="#F2F5F7" style="stroke:#333333;stroke-width:0.5;"/><path d="M1250.5,640.5986 C1250.5,650.5986 1302,650.5986 1302,650.5986 C1302,650.5986 1353.5,650.5986 1353.5,640.5986 " fill="none" style="stroke:#333333;stroke-width:0.5;"/><text fill="#000000" font-family="Arial" font-size="14" lengthAdjust="spacing" textLength="83" x="1260.5" y="667.7305">Core Deposit</text><text fill="#000000" font-family="Arial" font-size="14" lengthAdjust="spacing" textLength="46" x="1260.5" y="683.8291">System</text></g><!--entity EventBasis--><g id="elem_EventBasis"><rect fill="#F7F9FB" height="68.2959" rx="2.5" ry="2.5" style="stroke:#333333;stroke-width:0.5;" width="162" x="1221" y="115.0986"/><text fill="#000000" font-family="Arial" font-size="14" lengthAdjust="spacing" textLength="101" x="1231" y="138.2305">boundary basis:</text><text fill="#000000" font-family="Arial" font-size="14" lengthAdjust="spacing" textLength="142" x="1231" y="154.3291">event governance and</text><text fill="#000000" font-family="Arial" font-size="14" lengthAdjust="spacing" textLength="110" x="1231" y="170.4277">consumer access</text></g><!--entity EventPlatform--><g id="elem_EventPlatform"><path d="M1251,218.0986 L1353,218.0986 C1358,218.0986 1358,231.1479 1358,231.1479 C1358,231.1479 1358,244.1973 1353,244.1973 L1251,244.1973 C1246,244.1973 1246,231.1479 1246,231.1479 C1246,231.1479 1246,218.0986 1251,218.0986 " fill="#F2F5F7" style="stroke:#333333;stroke-width:0.5;"/><path d="M1353,218.0986 C1348,218.0986 1348,231.1479 1348,231.1479 C1348,244.1973 1353,244.1973 1353,244.1973 " fill="none" style="stroke:#333333;stroke-width:0.5;"/><text fill="#000000" font-family="Arial" font-size="14" lengthAdjust="spacing" textLength="92" x="1251" y="236.2305">Event Platform</text></g><!--entity Customer--><g id="elem_Customer"><rect fill="#F7F9FB" height="52.1973" rx="2.5" ry="2.5" style="stroke:#333333;stroke-width:0.5;" width="81" x="11.5" y="187.0986"/><text fill="#000000" font-family="Arial" font-size="14" lengthAdjust="spacing" textLength="36" x="21.5" y="210.2305">Retail</text><text fill="#000000" font-family="Arial" font-size="14" lengthAdjust="spacing" textLength="61" x="21.5" y="226.3291">Customer</text></g><!--entity Ops--><g id="elem_Ops"><rect fill="#F7F9FB" height="52.1973" rx="2.5" ry="2.5" style="stroke:#333333;stroke-width:0.5;" width="90" x="7" y="411.0986"/><text fill="#000000" font-family="Arial" font-size="14" lengthAdjust="spacing" textLength="70" x="17" y="434.2305">Operations</text><text fill="#000000" font-family="Arial" font-size="14" lengthAdjust="spacing" textLength="46" x="17" y="450.3291">Analyst</text></g><!--entity Compliance--><g id="elem_Compliance"><rect fill="#F7F9FB" height="52.1973" rx="2.5" ry="2.5" style="stroke:#333333;stroke-width:0.5;" width="94" x="855" y="894.0986"/><text fill="#000000" font-family="Arial" font-size="14" lengthAdjust="spacing" textLength="74" x="865" y="917.2305">Compliance</text><text fill="#000000" font-family="Arial" font-size="14" lengthAdjust="spacing" textLength="42" x="865" y="933.3291">Officer</text></g><!--entity EventConsumer--><g id="elem_EventConsumer"><rect fill="#F7F9FB" height="52.1973" rx="2.5" ry="2.5" style="stroke:#333333;stroke-width:0.5;" width="121" x="1663" y="205.0986"/><text fill="#000000" font-family="Arial" font-size="14" lengthAdjust="spacing" textLength="101" x="1673" y="228.2305">Approved Event</text><text fill="#000000" font-family="Arial" font-size="14" lengthAdjust="spacing" textLength="65" x="1673" y="244.3291">Consumer</text></g><!--link Customer to Channels--><g id="link_Customer_Channels"><path d="M92.84,213.0986 C166.25,213.0986 317.43,213.0986 406.14,213.0986 " fill="none" id="Customer-to-Channels" style="stroke:#333333;stroke-width:1.2;"/><polygon fill="#333333" points="412.14,213.0986,403.14,209.0986,407.14,213.0986,403.14,217.0986,412.14,213.0986" style="stroke:#333333;stroke-width:1.2;"/><text fill="#000000" font-family="Arial" font-size="14" lengthAdjust="spacing" textLength="123" x="165.5" y="177.2305">payment instruction</text><text fill="#000000" font-family="Arial" font-size="14" lengthAdjust="spacing" textLength="141" x="156.5" y="193.3291">and session reference</text><text fill="#000000" font-family="Arial" font-size="14" lengthAdjust="spacing" textLength="54" x="200" y="209.4277">[T12-01]</text></g><!--link Channels to Payments--><g id="link_Channels_Payments"><path d="M542.7,235.6486 C613.59,261.9086 729.74,309.0586 821,366.0986 C837.44,376.3786 849.5945,385.8176 863.4345,397.9276 " fill="none" id="Channels-to-Payments" style="stroke:#333333;stroke-width:1.2;"/><polygon fill="#333333" points="867.95,401.8786,863.8108,392.9418,864.1871,398.5861,858.5428,398.9624,867.95,401.8786" style="stroke:#333333;stroke-width:1.2;"/><text fill="#000000" font-family="Arial" font-size="14" lengthAdjust="spacing" textLength="127" x="661" y="219.2305">payment instruction,</text><text fill="#000000" font-family="Arial" font-size="14" lengthAdjust="spacing" textLength="155" x="647" y="235.3291">validated subject context</text><text fill="#000000" font-family="Arial" font-size="14" lengthAdjust="spacing" textLength="146" x="651.5" y="251.4277">and entitlement context</text><text fill="#000000" font-family="Arial" font-size="14" lengthAdjust="spacing" textLength="108" x="670.5" y="267.5264">[T12-02, T12-07]</text></g><!--link Payments to FinancialCrime--><g id="link_Payments_FinancialCrime"><path d="M903.96,464.5086 C907.3,517.3386 921.74,624.0886 983,684.0986 C1045.58,745.4186 1116.74,672.1186 1172,740.0986 C1185.64,756.8886 1167.12,819.7286 1180,837.0986 C1192.78,854.3486 1207.0833,863.4083 1227.1333,870.4983 " fill="none" id="Payments-to-FinancialCrime" style="stroke:#333333;stroke-width:1.2;"/><polygon fill="#333333" points="1232.79,872.4986,1225.6384,865.727,1228.076,870.8317,1222.9713,873.2693,1232.79,872.4986" style="stroke:#333333;stroke-width:1.2;"/><text fill="#000000" font-family="Arial" font-size="14" lengthAdjust="spacing" textLength="114" x="1020.5" y="680.2305">screening request</text></g><!--link FinancialCrime to Payments--><g id="link_FinancialCrime_Payments"><path d="M1232.67,866.8286 C1144.49,842.6786 1000.27,800.9586 983,782.0986 C940.13,735.2886 915.4022,546.972 906.8922,470.342 " fill="none" id="FinancialCrime-to-Payments" style="stroke:#333333;stroke-width:1.2;"/><polygon fill="#333333" points="906.23,464.3786,903.2478,473.7651,906.7819,469.3481,911.1989,472.8821,906.23,464.3786" style="stroke:#333333;stroke-width:1.2;"/><text fill="#000000" font-family="Arial" font-size="14" lengthAdjust="spacing" textLength="101" x="1027" y="762.2305">screening result</text><text fill="#000000" font-family="Arial" font-size="14" lengthAdjust="spacing" textLength="54" x="1050.5" y="778.3291">[T12-05]</text></g><!--link FinancialCrime to Compliance--><g id="link_FinancialCrime_Compliance"><path d="M1260.51,916.1286 C1236.27,932.7186 1204.02,951.4686 1172,960.0986 C1090.9,981.9686 1064.75,979.3986 983,960.0986 C970.46,957.1386 963.0176,954.5596 951.4176,948.8196 " fill="none" id="FinancialCrime-to-Compliance" style="stroke:#333333;stroke-width:1.2;"/><polygon fill="#333333" points="946.04,946.1586,952.3325,953.7352,950.5214,948.3761,955.8805,946.565,946.04,946.1586" style="stroke:#333333;stroke-width:1.2;"/><text fill="#000000" font-family="Arial" font-size="14" lengthAdjust="spacing" textLength="187" x="984" y="940.2305">screening case and permitted</text><text fill="#000000" font-family="Arial" font-size="14" lengthAdjust="spacing" textLength="107" x="1024" y="956.3291">customer context</text></g><!--link Compliance to FinancialCrime--><g id="link_Compliance_FinancialCrime"><path d="M949.04,916.0486 C1018.82,909.9186 1145.7931,898.7546 1226.8231,891.6246 " fill="none" id="Compliance-to-FinancialCrime" style="stroke:#333333;stroke-width:1.2;"/><polygon fill="#333333" points="1232.8,891.0986,1223.484,887.9029,1227.8192,891.5369,1224.1853,895.8721,1232.8,891.0986" style="stroke:#333333;stroke-width:1.2;"/><text fill="#000000" font-family="Arial" font-size="14" lengthAdjust="spacing" textLength="138" x="1008.5" y="877.2305">screening case action</text><text fill="#000000" font-family="Arial" font-size="14" lengthAdjust="spacing" textLength="54" x="1050.5" y="893.3291">[T12-05]</text></g><!--link Payments to OpsInterface--><g id="link_Payments_OpsInterface"><path d="M850.96,419.3286 C841.1,417.1586 830.78,415.2486 821,414.0986 C735.8,404.1286 713.53,407.5586 628,414.0986 C608.75,415.5786 594.1768,417.2301 574.6968,420.0801 " fill="none" id="Payments-to-OpsInterface" style="stroke:#333333;stroke-width:1.2;"/><polygon fill="#333333" points="568.76,420.9486,578.2442,423.6036,573.7073,420.2248,577.0861,415.6879,568.76,420.9486" style="stroke:#333333;stroke-width:1.2;"/><text fill="#000000" font-family="Arial" font-size="14" lengthAdjust="spacing" textLength="191" x="629" y="388.2305">repair work item and permitted</text><text fill="#000000" font-family="Arial" font-size="14" lengthAdjust="spacing" textLength="103" x="673" y="404.3291">payment context</text></g><!--link OpsInterface to Payments--><g id="link_OpsInterface_Payments"><path d="M568.69,440.4686 C637.78,442.4186 735.45,443.8386 821,440.0986 C830.61,439.6786 834.8697,439.4648 844.7097,438.6648 " fill="none" id="OpsInterface-to-Payments" style="stroke:#333333;stroke-width:1.2;"/><polygon fill="#333333" points="850.69,438.1786,841.3955,434.9211,845.7064,438.5838,842.0437,442.8948,850.69,438.1786" style="stroke:#333333;stroke-width:1.2;"/><text fill="#000000" font-family="Arial" font-size="14" lengthAdjust="spacing" textLength="160" x="644.5" y="436.2305">authorised repair request</text></g><!--link Ops to OpsInterface--><g id="link_Ops_OpsInterface"><path d="M97.12,437.0986 C165.23,437.0986 291.39,437.0986 380.31,437.0986 " fill="none" id="Ops-to-OpsInterface" style="stroke:#333333;stroke-width:1.2;"/><polygon fill="#333333" points="386.31,437.0986,377.31,433.0986,381.31,437.0986,377.31,441.0986,386.31,437.0986" style="stroke:#333333;stroke-width:1.2;"/><text fill="#000000" font-family="Arial" font-size="14" lengthAdjust="spacing" textLength="198" x="128" y="401.2305">controlled repair action through</text><text fill="#000000" font-family="Arial" font-size="14" lengthAdjust="spacing" textLength="197" x="128.5" y="417.3291">authorised operations interface</text><text fill="#000000" font-family="Arial" font-size="14" lengthAdjust="spacing" textLength="108" x="173" y="433.4277">[T12-04, T12-08]</text></g><!--link Payments to Core--><g id="link_Payments_Core"><path d="M910.05,464.3086 C919.95,500.7186 941.59,560.0286 983,592.0986 C1061.6,652.9986 1176.43,662.7645 1244.27,662.9245 " fill="none" id="Payments-to-Core" style="stroke:#333333;stroke-width:1.2;"/><polygon fill="#333333" points="1250.27,662.9386,1241.2795,658.9174,1245.27,662.9268,1241.2606,666.9174,1250.27,662.9386" style="stroke:#333333;stroke-width:1.2;"/><text fill="#000000" font-family="Arial" font-size="14" lengthAdjust="spacing" textLength="98" x="1028.5" y="572.2305">posting request</text><text fill="#000000" font-family="Arial" font-size="14" lengthAdjust="spacing" textLength="54" x="1050.5" y="588.3291">[T12-03]</text></g><!--link Core to Payments--><g id="link_Core_Payments"><path d="M1250.21,653.2686 C1225.27,646.7386 1196.99,634.8186 1180,613.0986 C1163.69,592.2586 1187.83,575.3086 1172,554.0986 C1158,535.3586 1032.4809,483.9117 958.6109,454.7517 " fill="none" id="Core-to-Payments" style="stroke:#333333;stroke-width:1.2;"/><polygon fill="#333333" points="953.03,452.5486,959.9327,459.5738,957.6808,454.3845,962.8701,452.1326,953.03,452.5486" style="stroke:#333333;stroke-width:1.2;"/><text fill="#000000" font-family="Arial" font-size="14" lengthAdjust="spacing" textLength="85" x="1035" y="461.2305">posting result</text></g><!--link Payments to PaymentStore--><g id="link_Payments_PaymentStore"><path d="M953,433.3486 C1029.1,433.7386 1167.2201,434.4281 1243.9401,434.8181 " fill="none" id="Payments-to-PaymentStore" style="stroke:#333333;stroke-width:1.2;"/><polygon fill="#333333" points="1249.94,434.8486,1240.9604,430.8029,1244.9401,434.8232,1240.9198,438.8028,1249.94,434.8486" style="stroke:#333333;stroke-width:1.2;"/><text fill="#000000" font-family="Arial" font-size="14" lengthAdjust="spacing" textLength="135" x="1010" y="430.2305">store payment record</text></g><!--link Payments to AuditLog--><g id="link_Payments_AuditLog"><path d="M953.11,416.4886 C962.96,413.4886 973.26,410.5486 983,408.0986 C1082.23,383.1686 1195.1652,363.8057 1255.5952,354.1457 " fill="none" id="Payments-to-AuditLog" style="stroke:#333333;stroke-width:1.2;"/><polygon fill="#333333" points="1261.52,353.1986,1252.0014,350.6694,1256.5827,353.9879,1253.2642,358.5691,1261.52,353.1986" style="stroke:#333333;stroke-width:1.2;"/><text fill="#000000" font-family="Arial" font-size="14" lengthAdjust="spacing" textLength="103" x="1026" y="349.2305">write audit event</text><text fill="#000000" font-family="Arial" font-size="14" lengthAdjust="spacing" textLength="54" x="1050.5" y="365.3291">[T12-04]</text></g><!--link Payments to EventPlatform--><g id="link_Payments_EventPlatform"><path d="M919.32,401.8686 C933.25,378.1186 955.39,346.3486 983,327.0986 C1063.9,270.7086 1172.6707,247.67 1239.9207,238.03 " fill="none" id="Payments-to-EventPlatform" style="stroke:#333333;stroke-width:1.2;"/><polygon fill="#333333" points="1245.86,237.1786,1236.3835,234.4962,1240.9106,237.8881,1237.5186,242.4152,1245.86,237.1786" style="stroke:#333333;stroke-width:1.2;"/><text fill="#000000" font-family="Arial" font-size="14" lengthAdjust="spacing" textLength="136" x="1009.5" y="231.2305">payment-status event</text><text fill="#000000" font-family="Arial" font-size="14" lengthAdjust="spacing" textLength="54" x="1050.5" y="247.3291">[T12-06]</text></g><!--link EventPlatform to EventConsumer--><g id="link_EventPlatform_EventConsumer"><path d="M1358.27,231.0986 C1437.14,231.0986 1575.41,231.0986 1656.7,231.0986 " fill="none" id="EventPlatform-to-EventConsumer" style="stroke:#333333;stroke-width:1.2;"/><polygon fill="#333333" points="1662.7,231.0986,1653.7,227.0986,1657.7,231.0986,1653.7,235.0986,1662.7,231.0986" style="stroke:#333333;stroke-width:1.2;"/><text fill="#000000" font-family="Arial" font-size="14" lengthAdjust="spacing" textLength="199" x="1433" y="227.2305">permitted payment-status event</text></g><rect fill="none" height="58.2959" id="_legend" rx="7.5" ry="7.5" style="stroke:#000000;stroke-width:1.0;" width="770" x="503" y="999.9686"/><text fill="#000000" font-family="Arial" font-size="14" lengthAdjust="spacing" textLength="350" x="508" y="1018.1005">Threat IDs label review points, not proof of vulnerability.</text><text fill="#000000" font-family="Arial" font-size="14" lengthAdjust="spacing" textLength="760" x="508" y="1034.1991">Authentication and session validation are represented in the authentication model, not as a full Identity Service flow here.</text><text fill="#000000" font-family="Arial" font-size="14" lengthAdjust="spacing" textLength="599" x="508" y="1050.2977">DFD elements are external entities, processes, stores and data flows, not BPMN process steps.</text><!--SRC=[dLPDRzj64BtpLqoTgwKaJbAtFWJGHzKQQ6h3pgtIORKSIHilTzdTfLmro7_lx1T54WJgL10WSJdpPkRDp2D_48hBfaIOJb_JrxgJHFkwbaovff8JTy0AfpNzBGg9EmTEWn7xWuDI6EHEQ5KuuIJ2wlRNoTkhoPltK_XD6_6FLZ1dwWdksQb2vU3pmI1paq-wH0dBrR8ex9DGDJEi0e_4r9vGlXO0SsrAD0ijjO5NxyB7dpB-j3UwKMMwixfU_RoQ5zywE5nNjLO-slVWX4yFfsIERPdzldIkLXzMrpsOlnfi_Xz6SMRauW4T4tAj5errka9p0Sn2lkWQtjLecE-8NQkPOl9aNR2zgstNR44aIS4KnxMws-q4pv3jUTTwLjT67x64Nux4AsL1y4tE8fpbarxIIx4NZabO79XIrF0PvsXz3ENmxvXMCaaMwKvWguEpzUmmSm9gXx0tQoN8p2XqantZGkt14YoL37HQ2HNANokcIk0fCekHEU4RBUr8wBc7fh3dwRd84vmCgUne6jtpnQ1HUTBl9NCxRIfuG4k0Lco55EuKN9FDIwkj4wGs_83MnVP2hQNWFRoH4cQDEr0LbbhN7OnRpnznXtaqseE-Um8cZrnEDvwFrIv9jbsh1-GqwF3ejC6kUJZekSoQKZZuNU-3MRYYYm6XAsgeueB9oSA82iVuR4s2nOjf3GG2YnIDGeqmsXf0i1WmqtSVss55hLWG4MDr-FENPiyz1eqrdJkQ1Uje3rgGdFUPwX1oYMGeg4MFf0fOjUQ3FCD2qzJJg8bj4uQjkx9vtr-K9WQiFOc7ySnGoghqoKUrI7jvXis9Hz5CcVGO3aVvn2UUHH0cau_jKi8DvAqHYkfe-5aJibWOtA71e81_VlOFhRURelNtO7dCny4kr-h8f22AgQEssNuX5eB042qn43duXs9mR6_4K5UN47wlDqNHXl4n-mD4aIqtYCgBd45YnRfYO3B8j6jl6zb6_B0PSppBVS-L-vdn9THUK1rLI3tBFATIYexlVsGUuL8BsdJwXNT5Y9mDramOUDRc2GJDwZ2Rt92S3BcFmIJ1bzIYX1ZJ07UWH-x-G8qwAwHk5H94niZvlayD-sbJz48CsE-WfNYvQ_rgmphUvBtDHZdOEnf4Rp0SmjRQDtQ0s1LPJtxupIoP8CbzXootPFnCyaSD2cgCyGcVgjxqVNhBTrwBYNNCDRRl- -Ecw9kt0FbTmGFaZev2-RVDFLBZjzhHx1NnxH5kbnOasz9ZtU1Hu3CHG_sobw0qIQ7HUWVqFJPIKJ-Zl4uB_oJq2ydZqxCh16cDmp6HHeqZXicMiX9-KZ2qjUDS-TVN68uKYS6kaH9kox3l9tX4SwJtATX9_Gm7afXfGM-wW549R8X18-i5KKQD44Z9K-9U2_tVq3mRSlGA7f1IUVFxJtzaKxB3sauBOYZoz2y0]--></g></svg>