<?xml version="1.0" encoding="us-ascii" standalone="no"?><svg xmlns="http://www.w3.org/2000/svg" xmlns:xlink="http://www.w3.org/1999/xlink" contentStyleType="text/css" height="965px" preserveAspectRatio="none" style="width:1212px;height:965px;background:#FFFFFF;" version="1.1" viewBox="0 0 1212 965" width="1212px" zoomAndPan="magnify"><defs/><g><text fill="#000000" font-family="Arial" font-size="14" font-weight="bold" lengthAdjust="spacing" textLength="320" x="439.25" y="23.1318">FIG-08-05. Horizon Bank payment data lineage</text><!--entity Digital--><g id="elem_Digital"><rect fill="#EAF6E8" height="52.1973" rx="2.5" ry="2.5" style="stroke:#333333;stroke-width:0.5;" width="177" x="42" y="44.0986"/><text fill="#000000" font-family="Arial" font-size="14" lengthAdjust="spacing" textLength="154" x="52" y="67.2305">Horizon Digital Channels</text><text fill="#000000" font-family="Arial" font-size="14" lengthAdjust="spacing" textLength="157" x="52" y="83.3291">&#171;Originating application&#187;</text></g><!--entity Instruction--><g id="elem_Instruction"><rect fill="#FFFFFF" height="52.1973" rx="2.5" ry="2.5" style="stroke:#333333;stroke-width:0.5;" width="238" x="11.5" y="151.0986"/><text fill="#000000" font-family="Arial" font-size="14" lengthAdjust="spacing" textLength="124" x="21.5" y="174.2305">Payment instruction</text><text fill="#000000" font-family="Arial" font-size="14" lengthAdjust="spacing" textLength="218" x="21.5" y="190.3291">customer, debtor, creditor, amount</text></g><!--entity Payments--><g id="elem_Payments"><rect fill="#EAF6E8" height="52.1973" rx="2.5" ry="2.5" style="stroke:#333333;stroke-width:0.5;" width="247" x="7" y="258.0986"/><text fill="#000000" font-family="Arial" font-size="14" lengthAdjust="spacing" textLength="118" x="17" y="281.2305">Payments Platform</text><text fill="#000000" font-family="Arial" font-size="14" lengthAdjust="spacing" textLength="227" x="17" y="297.3291">&#171;Transformation and orchestration&#187;</text></g><!--entity FinancialCrime--><g id="elem_FinancialCrime"><rect fill="#FFF4D6" height="52.1973" rx="2.5" ry="2.5" style="stroke:#333333;stroke-width:0.5;" width="174" x="1032.5" y="258.0986"/><text fill="#000000" font-family="Arial" font-size="14" lengthAdjust="spacing" textLength="154" x="1042.5" y="281.2305">Financial Crime Platform</text><text fill="#000000" font-family="Arial" font-size="14" lengthAdjust="spacing" textLength="107" x="1042.5" y="297.3291">&#171;Screening use&#187;</text></g><!--entity Core--><g id="elem_Core"><rect fill="#FFF4D6" height="52.1973" rx="2.5" ry="2.5" style="stroke:#333333;stroke-width:0.5;" width="153" x="569" y="258.0986"/><text fill="#000000" font-family="Arial" font-size="14" lengthAdjust="spacing" textLength="133" x="579" y="281.2305">Core Deposit System</text><text fill="#000000" font-family="Arial" font-size="14" lengthAdjust="spacing" textLength="111" x="579" y="297.3291">&#171;Posting system&#187;</text></g><!--entity ScreeningRequest--><g id="elem_ScreeningRequest"><rect fill="#FFFFFF" height="52.1973" rx="2.5" ry="2.5" style="stroke:#333333;stroke-width:0.5;" width="200" x="777.5" y="258.0986"/><text fill="#000000" font-family="Arial" font-size="14" lengthAdjust="spacing" textLength="116" x="787.5" y="281.2305">Screening request</text><text fill="#000000" font-family="Arial" font-size="14" lengthAdjust="spacing" textLength="180" x="787.5" y="297.3291">payment parties and amount</text></g><!--entity ScreeningResult--><g id="elem_ScreeningResult"><rect fill="#FFFFFF" height="52.1973" rx="2.5" ry="2.5" style="stroke:#333333;stroke-width:0.5;" width="134" x="928.5" y="365.0986"/><text fill="#000000" font-family="Arial" font-size="14" lengthAdjust="spacing" textLength="103" x="938.5" y="388.2305">Screening result</text><text fill="#000000" font-family="Arial" font-size="14" lengthAdjust="spacing" textLength="114" x="938.5" y="404.3291">status and reason</text></g><!--entity PostingRequest--><g id="elem_PostingRequest"><rect fill="#FFFFFF" height="52.1973" rx="2.5" ry="2.5" style="stroke:#333333;stroke-width:0.5;" width="205" x="309" y="258.0986"/><text fill="#000000" font-family="Arial" font-size="14" lengthAdjust="spacing" textLength="99" x="319" y="281.2305">Posting request</text><text fill="#000000" font-family="Arial" font-size="14" lengthAdjust="spacing" textLength="185" x="319" y="297.3291">accepted payment instruction</text></g><!--entity Posting--><g id="elem_Posting"><rect fill="#FFFFFF" height="52.1973" rx="2.5" ry="2.5" style="stroke:#333333;stroke-width:0.5;" width="209" x="541" y="365.0986"/><text fill="#000000" font-family="Arial" font-size="14" lengthAdjust="spacing" textLength="86" x="551" y="388.2305">Posting result</text><text fill="#000000" font-family="Arial" font-size="14" lengthAdjust="spacing" textLength="189" x="551" y="404.3291">accepted, rejected or pending</text></g><!--entity Consolidated--><g id="elem_Consolidated"><rect fill="#FFFFFF" height="52.1973" rx="2.5" ry="2.5" style="stroke:#333333;stroke-width:0.5;" width="308" x="491.5" y="472.0986"/><text fill="#000000" font-family="Arial" font-size="14" lengthAdjust="spacing" textLength="222" x="501.5" y="495.2305">Consolidated payment status event</text><text fill="#000000" font-family="Arial" font-size="14" lengthAdjust="spacing" textLength="288" x="501.5" y="511.3291">instruction id, screening status, posting status</text></g><!--entity EventPlatform--><g id="elem_EventPlatform"><rect fill="#F1E8FA" height="52.1973" rx="2.5" ry="2.5" style="stroke:#333333;stroke-width:0.5;" width="112" x="589.5" y="579.0986"/><text fill="#000000" font-family="Arial" font-size="14" lengthAdjust="spacing" textLength="92" x="599.5" y="602.2305">Event Platform</text><text fill="#000000" font-family="Arial" font-size="14" lengthAdjust="spacing" textLength="87" x="599.5" y="618.3291">&#171;Distribution&#187;</text></g><!--entity DataPlatform--><g id="elem_DataPlatform"><rect fill="#F2F5F7" height="52.1973" rx="2.5" ry="2.5" style="stroke:#333333;stroke-width:0.5;" width="175" x="558" y="686.0986"/><text fill="#000000" font-family="Arial" font-size="14" lengthAdjust="spacing" textLength="155" x="568" y="709.2305">Enterprise Data Platform</text><text fill="#000000" font-family="Arial" font-size="14" lengthAdjust="spacing" textLength="151" x="568" y="725.3291">&#171;Curated consumption&#187;</text></g><!--entity DataProduct--><g id="elem_DataProduct"><rect fill="#FFFFFF" height="52.1973" rx="2.5" ry="2.5" style="stroke:#333333;stroke-width:0.5;" width="215" x="538" y="793.0986"/><text fill="#000000" font-family="Arial" font-size="14" lengthAdjust="spacing" textLength="139" x="548" y="816.2305">Payment data product</text><text fill="#000000" font-family="Arial" font-size="14" lengthAdjust="spacing" textLength="195" x="548" y="832.3291">reporting and control attributes</text></g><g id="elem_GMN29"><path d="M361,900.0986 L361,958.3945 A0,0 0 0 0 361,958.3945 L930,958.3945 A0,0 0 0 0 930,958.3945 L930,910.0986 L920,900.0986 L649.5,900.0986 L645.5,845.1686 L641.5,900.0986 L361,900.0986 A0,0 0 0 0 361,900.0986 " fill="#FFF8DC" style="stroke:#666666;stroke-width:0.5;"/><path d="M920,900.0986 L920,910.0986 L930,910.0986 L920,900.0986 " fill="#FFF8DC" style="stroke:#666666;stroke-width:0.5;"/><text fill="#000000" font-family="Arial" font-size="14" lengthAdjust="spacing" textLength="86" x="367" y="918.2305">Lineage view.</text><text fill="#000000" font-family="Arial" font-size="14" lengthAdjust="spacing" textLength="548" x="367" y="934.3291">It shows origin, screening and posting result inputs, consolidation and downstream use.</text><text fill="#000000" font-family="Arial" font-size="14" lengthAdjust="spacing" textLength="423" x="367" y="950.4277">It is not the BPMN payment repair process or a warehouse schema.</text></g><!--link Digital to Instruction--><g id="link_Digital_Instruction"><path d="M130.5,96.2786 C130.5,112.8586 130.5,128.2186 130.5,144.8186 " fill="none" id="Digital-to-Instruction" style="stroke:#333333;stroke-width:1.2;"/><polygon fill="#333333" points="130.5,150.8186,134.5,141.8186,130.5,145.8186,126.5,141.8186,130.5,150.8186" style="stroke:#333333;stroke-width:1.2;"/><text fill="#000000" font-family="Arial" font-size="14" lengthAdjust="spacing" textLength="55" x="74.5" y="119.6805">captures</text></g><!--link Instruction to Payments--><g id="link_Instruction_Payments"><path d="M130.5,203.2786 C130.5,219.8586 130.5,235.2186 130.5,251.8186 " fill="none" id="Instruction-to-Payments" style="stroke:#333333;stroke-width:1.2;"/><polygon fill="#333333" points="130.5,257.8186,134.5,248.8186,130.5,252.8186,126.5,248.8186,130.5,257.8186" style="stroke:#333333;stroke-width:1.2;"/><text fill="#000000" font-family="Arial" font-size="14" lengthAdjust="spacing" textLength="48" x="81.5" y="226.6805">submits</text></g><!--link Payments to ScreeningRequest--><g id="link_Payments_ScreeningRequest"><path d="M89.33,310.1486 C89.33,323.9586 89.33,338.0986 89.33,338.0986 C89.33,338.0986 784.83,338.0986 784.83,338.0986 C784.83,338.0986 784.83,329.9586 784.83,316.1486 " fill="none" id="Payments-to-ScreeningRequest" style="stroke:#333333;stroke-width:1.2;"/><polygon fill="#333333" points="784.83,310.1486,780.83,319.1486,784.83,315.1486,788.83,319.1486,784.83,310.1486" style="stroke:#333333;stroke-width:1.2;"/></g><!--link ScreeningRequest to FinancialCrime--><g id="link_ScreeningRequest_FinancialCrime"><path d="M977.68,284.0986 C995.75,284.0986 1008.47,284.0986 1026.14,284.0986 " fill="none" id="ScreeningRequest-to-FinancialCrime" style="stroke:#333333;stroke-width:1.2;"/><polygon fill="#333333" points="1032.14,284.0986,1023.14,280.0986,1027.14,284.0986,1023.14,288.0986,1032.14,284.0986" style="stroke:#333333;stroke-width:1.2;"/></g><!--link FinancialCrime to ScreeningResult--><g id="link_FinancialCrime_ScreeningResult"><path d="M1047.5,310.2786 C1047.5,326.8586 1047.5,342.2186 1047.5,358.8186 " fill="none" id="FinancialCrime-to-ScreeningResult" style="stroke:#333333;stroke-width:1.2;"/><polygon fill="#333333" points="1047.5,364.8186,1051.5,355.8186,1047.5,359.8186,1043.5,355.8186,1047.5,364.8186" style="stroke:#333333;stroke-width:1.2;"/></g><!--link Payments to PostingRequest--><g id="link_Payments_PostingRequest"><path d="M254.16,284.0986 C272.42,284.0986 285.06,284.0986 302.83,284.0986 " fill="none" id="Payments-to-PostingRequest" style="stroke:#333333;stroke-width:1.2;"/><polygon fill="#333333" points="308.83,284.0986,299.83,280.0986,303.83,284.0986,299.83,288.0986,308.83,284.0986" style="stroke:#333333;stroke-width:1.2;"/></g><!--link PostingRequest to Core--><g id="link_PostingRequest_Core"><path d="M514.14,284.0986 C532.56,284.0986 545.46,284.0986 562.98,284.0986 " fill="none" id="PostingRequest-to-Core" style="stroke:#333333;stroke-width:1.2;"/><polygon fill="#333333" points="568.98,284.0986,559.98,280.0986,563.98,284.0986,559.98,288.0986,568.98,284.0986" style="stroke:#333333;stroke-width:1.2;"/></g><!--link Core to Posting--><g id="link_Core_Posting"><path d="M645.5,310.2786 C645.5,326.8586 645.5,342.2186 645.5,358.8186 " fill="none" id="Core-to-Posting" style="stroke:#333333;stroke-width:1.2;"/><polygon fill="#333333" points="645.5,364.8186,649.5,355.8186,645.5,359.8186,641.5,355.8186,645.5,364.8186" style="stroke:#333333;stroke-width:1.2;"/></g><!--link Payments to Consolidated--><g id="link_Payments_Consolidated"><path d="M171.67,310.3386 C171.67,367.4786 171.67,498.0986 171.67,498.0986 C171.67,498.0986 347.02,498.0986 485.33,498.0986 " fill="none" id="Payments-to-Consolidated" style="stroke:#333333;stroke-width:1.2;"/><polygon fill="#333333" points="491.33,498.0986,482.33,494.0986,486.33,498.0986,482.33,502.0986,491.33,498.0986" style="stroke:#333333;stroke-width:1.2;"/><text fill="#000000" font-family="Arial" font-size="14" lengthAdjust="spacing" textLength="164" x="72.62" y="494.2305">original instruction context</text></g><!--link ScreeningResult to Consolidated--><g id="link_ScreeningResult_Consolidated"><path d="M928.36,391.0986 C869.13,391.0986 792.17,391.0986 792.17,391.0986 C792.17,391.0986 792.17,434.2486 792.17,465.9186 " fill="none" id="ScreeningResult-to-Consolidated" style="stroke:#333333;stroke-width:1.2;"/><polygon fill="#333333" points="792.17,471.9186,796.17,462.9186,792.17,466.9186,788.17,462.9186,792.17,471.9186" style="stroke:#333333;stroke-width:1.2;"/></g><!--link Posting to Consolidated--><g id="link_Posting_Consolidated"><path d="M645.5,417.2786 C645.5,433.8586 645.5,449.2186 645.5,465.8186 " fill="none" id="Posting-to-Consolidated" style="stroke:#333333;stroke-width:1.2;"/><polygon fill="#333333" points="645.5,471.8186,649.5,462.8186,645.5,466.8186,641.5,462.8186,645.5,471.8186" style="stroke:#333333;stroke-width:1.2;"/></g><!--link Consolidated to EventPlatform--><g id="link_Consolidated_EventPlatform"><path d="M645.5,524.2786 C645.5,540.8586 645.5,556.2186 645.5,572.8186 " fill="none" id="Consolidated-to-EventPlatform" style="stroke:#333333;stroke-width:1.2;"/><polygon fill="#333333" points="645.5,578.8186,649.5,569.8186,645.5,573.8186,641.5,569.8186,645.5,578.8186" style="stroke:#333333;stroke-width:1.2;"/><text fill="#000000" font-family="Arial" font-size="14" lengthAdjust="spacing" textLength="219" x="425.5" y="547.6805">consolidated payment status event</text></g><!--link EventPlatform to DataPlatform--><g id="link_EventPlatform_DataPlatform"><path d="M645.5,631.2786 C645.5,647.8586 645.5,663.2186 645.5,679.8186 " fill="none" id="EventPlatform-to-DataPlatform" style="stroke:#333333;stroke-width:1.2;"/><polygon fill="#333333" points="645.5,685.8186,649.5,676.8186,645.5,680.8186,641.5,676.8186,645.5,685.8186" style="stroke:#333333;stroke-width:1.2;"/><text fill="#000000" font-family="Arial" font-size="14" lengthAdjust="spacing" textLength="182" x="462.5" y="654.6805">payment status event stream</text></g><!--link DataPlatform to DataProduct--><g id="link_DataPlatform_DataProduct"><path d="M645.5,738.2786 C645.5,754.8586 645.5,770.2186 645.5,786.8186 " fill="none" id="DataPlatform-to-DataProduct" style="stroke:#333333;stroke-width:1.2;"/><polygon fill="#333333" points="645.5,792.8186,649.5,783.8186,645.5,787.8186,641.5,783.8186,645.5,792.8186" style="stroke:#333333;stroke-width:1.2;"/><text fill="#000000" font-family="Arial" font-size="14" lengthAdjust="spacing" textLength="47" x="597.5" y="761.6805">curates</text></g><!--SRC=[VLNRRjim37tNLt3jQvDsmx8LGL6WpMKhi4kmxZ4lYiqbMcr9a-XcsTUFaY-HKwE1WLWoUNX87L9lbCwAAaSOZo_vyNGeq5_QGcggoc94EonnRFbL238MoC3649aISkKm8sMq84K5mlBXq-ZgUdGr6SDduzG_e-5UwYUmyb2Y9iWbIIYKHhb58VoJqbOwMSOjEbW4usXdaW_QvEZHmcIIR3g6R3P5Y2_rbcEVjH7dQgj85Z3RIQsny6jzS_FTyQQMfFGMfBM5ocIWVNjx1j9t7kUBk-M7nNKAkcgOA-t9LJ7NjSugpzcZku0SDsJuFtEOg_WcIrDfYh0FHnyuNyRV0BI7LI7fbt5b8FgJa_DX4Vc1r3dN9DiX8wMCEzy1oajEL6SgLC2f4dlmZqmKTQX2vR71wknhyy3q_Vn3YZWp3c6ErdX5y7ZmX15iPNmig8yx3Lgq7S0uHdRuf-9yrhfL1PygAVGnsQHydSUFsc6eXYcghme6zIIfgh4SIc_qALOm6poE9fkEdimoj8Hvfzv40_KXr1wlq3jYrkHQo0lU-Src64uNBEgShLBC8R2PqTuKYdieuTIaYy-yMEk48IYEuhlor7ONODipY-lcn1BSWRYBWDrJqLnn6BMf4a56ezQ6KTukhfTtFHHDwAnJdfKKfa2ADwjS39unawgqQMUoQOBwRZbPVXngppXOh3Cv9x_MZgNgwbxN4PMSAK1IJHhz4RhswB8MxIGOZMvxxJk5J5gg-1n5kXtCkbQSWgysfI8lkgqHZvqTiT6fbiKBSNUc_NOK9zqvoirUzm63j0P2zjKfJiJQcOL-5R5fHqUd12wQ90APicBZB2tIVeX5nh-zl6AZdVgtF5v-w4K9N_kIcaPrlAf_qVS863tzJ0UzUC63eXGzqywt4GX7ZnhrGcX3sDn_0k1BVPd1iyBzcDSFZBSpUzzKAMt1e4NR6mXSGLiHT-KnjNReXsEkYOL9tI0hpnSY0T_7SB_w-grBX_KkbGlwpz27q21XBntk3Fio0xw_vLZmb0dk-1y0]--></g></svg>