<?xml version="1.0" encoding="us-ascii" standalone="no"?><svg xmlns="http://www.w3.org/2000/svg" xmlns:xlink="http://www.w3.org/1999/xlink" contentStyleType="text/css" height="480px" preserveAspectRatio="none" style="width:606px;height:480px;background:#FFFFFF;" version="1.1" viewBox="0 0 606 480" width="606px" zoomAndPan="magnify"><defs/><g><text fill="#000000" font-family="Arial" font-size="14" font-weight="bold" lengthAdjust="spacing" textLength="389" x="107" y="33.1318">FIG-09-02. Online Store Product Eligibility Decision Tree</text><ellipse cx="368" cy="57.0986" fill="#222222" rx="10" ry="10" style="stroke:#222222;stroke-width:1.0;"/><polygon fill="#F1F1F1" points="304,87.0986,432,87.0986,444,99.0986,432,111.0986,304,111.0986,292,99.0986,304,87.0986" style="stroke:#181818;stroke-width:0.5;"/><text fill="#000000" font-family="Arial" font-size="15" lengthAdjust="spacing" textLength="128" x="304" y="104.5442">Restricted product?</text><text fill="#000000" font-family="Arial" font-size="15" lengthAdjust="spacing" textLength="23" x="269" y="95.9199">yes</text><text fill="#000000" font-family="Arial" font-size="15" lengthAdjust="spacing" textLength="16" x="444" y="95.9199">no</text><polygon fill="#F1F1F1" points="174,121.0986,300,121.0986,312,138.3472,300,155.5957,174,155.5957,162,138.3472,174,121.0986" style="stroke:#181818;stroke-width:0.5;"/><text fill="#000000" font-family="Arial" font-size="15" lengthAdjust="spacing" textLength="126" x="174" y="135.1685">Destination allowed</text><text fill="#000000" font-family="Arial" font-size="15" lengthAdjust="spacing" textLength="122" x="174" y="152.417">for restricted item?</text><text fill="#000000" font-family="Arial" font-size="15" lengthAdjust="spacing" textLength="23" x="139" y="135.1685">yes</text><text fill="#000000" font-family="Arial" font-size="15" lengthAdjust="spacing" textLength="16" x="312" y="135.1685">no</text><polygon fill="#F1F1F1" points="115,165.5957,173,165.5957,185,177.5957,173,189.5957,115,189.5957,103,177.5957,115,165.5957" style="stroke:#181818;stroke-width:0.5;"/><text fill="#000000" font-family="Arial" font-size="15" lengthAdjust="spacing" textLength="58" x="115" y="183.0413">In stock?</text><text fill="#000000" font-family="Arial" font-size="15" lengthAdjust="spacing" textLength="23" x="80" y="174.417">yes</text><text fill="#000000" font-family="Arial" font-size="15" lengthAdjust="spacing" textLength="16" x="185" y="174.417">no</text><rect fill="#F1F1F1" height="54.4971" rx="12.5" ry="12.5" style="stroke:#181818;stroke-width:0.5;" width="134" x="11" y="199.5957"/><text fill="#000000" font-family="Arial" font-size="15" lengthAdjust="spacing" textLength="76" x="21" y="223.6655">Eligible with</text><text fill="#000000" font-family="Arial" font-size="15" lengthAdjust="spacing" textLength="114" x="21" y="240.9141">restricted delivery</text><rect fill="#F1F1F1" height="37.2485" rx="12.5" ry="12.5" style="stroke:#181818;stroke-width:0.5;" width="90" x="165" y="199.5957"/><text fill="#000000" font-family="Arial" font-size="15" lengthAdjust="spacing" textLength="70" x="175" y="223.6655">Not eligible</text><polygon fill="#F1F1F1" points="144,260.0928,156,272.0928,144,284.0928,132,272.0928,144,260.0928" style="stroke:#181818;stroke-width:0.5;"/><rect fill="#F1F1F1" height="37.2485" rx="12.5" ry="12.5" style="stroke:#181818;stroke-width:0.5;" width="90" x="285" y="165.5957"/><text fill="#000000" font-family="Arial" font-size="15" lengthAdjust="spacing" textLength="70" x="295" y="189.6655">Not eligible</text><polygon fill="#F1F1F1" points="237,290.0928,249,302.0928,237,314.0928,225,302.0928,237,290.0928" style="stroke:#181818;stroke-width:0.5;"/><polygon fill="#F1F1F1" points="470,121.0986,528,121.0986,540,133.0986,528,145.0986,470,145.0986,458,133.0986,470,121.0986" style="stroke:#181818;stroke-width:0.5;"/><text fill="#000000" font-family="Arial" font-size="15" lengthAdjust="spacing" textLength="58" x="470" y="138.5442">In stock?</text><text fill="#000000" font-family="Arial" font-size="15" lengthAdjust="spacing" textLength="23" x="435" y="129.9199">yes</text><text fill="#000000" font-family="Arial" font-size="15" lengthAdjust="spacing" textLength="16" x="540" y="129.9199">no</text><rect fill="#F1F1F1" height="37.2485" rx="12.5" ry="12.5" style="stroke:#181818;stroke-width:0.5;" width="66" x="415" y="155.0986"/><text fill="#000000" font-family="Arial" font-size="15" lengthAdjust="spacing" textLength="46" x="425" y="179.1685">Eligible</text><rect fill="#F1F1F1" height="37.2485" rx="12.5" ry="12.5" style="stroke:#181818;stroke-width:0.5;" width="90" x="505" y="155.0986"/><text fill="#000000" font-family="Arial" font-size="15" lengthAdjust="spacing" textLength="70" x="515" y="179.1685">Not eligible</text><polygon fill="#F1F1F1" points="499,198.3472,511,210.3472,499,222.3472,487,210.3472,499,198.3472" style="stroke:#181818;stroke-width:0.5;"/><polygon fill="#F1F1F1" points="368,320.0928,380,332.0928,368,344.0928,356,332.0928,368,320.0928" style="stroke:#181818;stroke-width:0.5;"/><ellipse cx="368" cy="375.0928" fill="none" rx="11" ry="11" style="stroke:#222222;stroke-width:1.0;"/><ellipse cx="368" cy="375.0928" fill="#222222" rx="6" ry="6" style="stroke:#222222;stroke-width:1.0;"/><line style="stroke:#333333;stroke-width:1.2;" x1="103" x2="78" y1="177.5957" y2="177.5957"/><line style="stroke:#333333;stroke-width:1.2;" x1="78" x2="78" y1="177.5957" y2="199.5957"/><polygon fill="#333333" points="74,189.5957,78,199.5957,82,189.5957,78,193.5957" style="stroke:#333333;stroke-width:1.0;"/><line style="stroke:#333333;stroke-width:1.2;" x1="185" x2="210" y1="177.5957" y2="177.5957"/><line style="stroke:#333333;stroke-width:1.2;" x1="210" x2="210" y1="177.5957" y2="199.5957"/><polygon fill="#333333" points="206,189.5957,210,199.5957,214,189.5957,210,193.5957" style="stroke:#333333;stroke-width:1.0;"/><line style="stroke:#333333;stroke-width:1.2;" x1="78" x2="78" y1="254.0928" y2="272.0928"/><line style="stroke:#333333;stroke-width:1.2;" x1="78" x2="132" y1="272.0928" y2="272.0928"/><polygon fill="#333333" points="122,268.0928,132,272.0928,122,276.0928,126,272.0928" style="stroke:#333333;stroke-width:1.0;"/><line style="stroke:#333333;stroke-width:1.2;" x1="210" x2="210" y1="236.8442" y2="272.0928"/><line style="stroke:#333333;stroke-width:1.2;" x1="210" x2="156" y1="272.0928" y2="272.0928"/><polygon fill="#333333" points="166,268.0928,156,272.0928,166,276.0928,162,272.0928" style="stroke:#333333;stroke-width:1.0;"/><line style="stroke:#333333;stroke-width:1.2;" x1="162" x2="144" y1="138.3472" y2="138.3472"/><line style="stroke:#333333;stroke-width:1.2;" x1="144" x2="144" y1="138.3472" y2="165.5957"/><polygon fill="#333333" points="140,155.5957,144,165.5957,148,155.5957,144,159.5957" style="stroke:#333333;stroke-width:1.0;"/><line style="stroke:#333333;stroke-width:1.2;" x1="312" x2="330" y1="138.3472" y2="138.3472"/><line style="stroke:#333333;stroke-width:1.2;" x1="330" x2="330" y1="138.3472" y2="165.5957"/><polygon fill="#333333" points="326,155.5957,330,165.5957,334,155.5957,330,159.5957" style="stroke:#333333;stroke-width:1.0;"/><line style="stroke:#333333;stroke-width:1.2;" x1="144" x2="144" y1="284.0928" y2="302.0928"/><line style="stroke:#333333;stroke-width:1.2;" x1="144" x2="225" y1="302.0928" y2="302.0928"/><polygon fill="#333333" points="215,298.0928,225,302.0928,215,306.0928,219,302.0928" style="stroke:#333333;stroke-width:1.0;"/><line style="stroke:#333333;stroke-width:1.2;" x1="330" x2="330" y1="202.8442" y2="302.0928"/><line style="stroke:#333333;stroke-width:1.2;" x1="330" x2="249" y1="302.0928" y2="302.0928"/><polygon fill="#333333" points="259,298.0928,249,302.0928,259,306.0928,255,302.0928" style="stroke:#333333;stroke-width:1.0;"/><line style="stroke:#333333;stroke-width:1.2;" x1="458" x2="448" y1="133.0986" y2="133.0986"/><line style="stroke:#333333;stroke-width:1.2;" x1="448" x2="448" y1="133.0986" y2="155.0986"/><polygon fill="#333333" points="444,145.0986,448,155.0986,452,145.0986,448,149.0986" style="stroke:#333333;stroke-width:1.0;"/><line style="stroke:#333333;stroke-width:1.2;" x1="540" x2="550" y1="133.0986" y2="133.0986"/><line style="stroke:#333333;stroke-width:1.2;" x1="550" x2="550" y1="133.0986" y2="155.0986"/><polygon fill="#333333" points="546,145.0986,550,155.0986,554,145.0986,550,149.0986" style="stroke:#333333;stroke-width:1.0;"/><line style="stroke:#333333;stroke-width:1.2;" x1="448" x2="448" y1="192.3472" y2="210.3472"/><line style="stroke:#333333;stroke-width:1.2;" x1="448" x2="487" y1="210.3472" y2="210.3472"/><polygon fill="#333333" points="477,206.3472,487,210.3472,477,214.3472,481,210.3472" style="stroke:#333333;stroke-width:1.0;"/><line style="stroke:#333333;stroke-width:1.2;" x1="550" x2="550" y1="192.3472" y2="210.3472"/><line style="stroke:#333333;stroke-width:1.2;" x1="550" x2="511" y1="210.3472" y2="210.3472"/><polygon fill="#333333" points="521,206.3472,511,210.3472,521,214.3472,517,210.3472" style="stroke:#333333;stroke-width:1.0;"/><line style="stroke:#333333;stroke-width:1.2;" x1="292" x2="237" y1="99.0986" y2="99.0986"/><line style="stroke:#333333;stroke-width:1.2;" x1="237" x2="237" y1="99.0986" y2="121.0986"/><polygon fill="#333333" points="233,111.0986,237,121.0986,241,111.0986,237,115.0986" style="stroke:#333333;stroke-width:1.0;"/><line style="stroke:#333333;stroke-width:1.2;" x1="444" x2="499" y1="99.0986" y2="99.0986"/><line style="stroke:#333333;stroke-width:1.2;" x1="499" x2="499" y1="99.0986" y2="121.0986"/><polygon fill="#333333" points="495,111.0986,499,121.0986,503,111.0986,499,115.0986" style="stroke:#333333;stroke-width:1.0;"/><line style="stroke:#333333;stroke-width:1.2;" x1="237" x2="237" y1="314.0928" y2="332.0928"/><line style="stroke:#333333;stroke-width:1.2;" x1="237" x2="356" y1="332.0928" y2="332.0928"/><polygon fill="#333333" points="346,328.0928,356,332.0928,346,336.0928,350,332.0928" style="stroke:#333333;stroke-width:1.0;"/><line style="stroke:#333333;stroke-width:1.2;" x1="499" x2="499" y1="222.3472" y2="332.0928"/><line style="stroke:#333333;stroke-width:1.2;" x1="499" x2="380" y1="332.0928" y2="332.0928"/><polygon fill="#333333" points="390,328.0928,380,332.0928,390,336.0928,386,332.0928" style="stroke:#333333;stroke-width:1.0;"/><line style="stroke:#333333;stroke-width:1.2;" x1="368" x2="368" y1="67.0986" y2="87.0986"/><polygon fill="#333333" points="364,77.0986,368,87.0986,372,77.0986,368,81.0986" style="stroke:#333333;stroke-width:1.0;"/><line style="stroke:#333333;stroke-width:1.2;" x1="368" x2="368" y1="344.0928" y2="364.0928"/><polygon fill="#333333" points="364,354.0928,368,364.0928,372,354.0928,368,358.0928" style="stroke:#333333;stroke-width:1.0;"/><rect fill="none" height="58.2959" id="_legend" rx="7.5" ry="7.5" style="stroke:#000000;stroke-width:1.0;" width="429" x="87" y="397.0928"/><text fill="#000000" font-family="Arial" font-size="14" lengthAdjust="spacing" textLength="205" x="92" y="415.2246">General decision-modelling tree.</text><text fill="#000000" font-family="Arial" font-size="14" lengthAdjust="spacing" textLength="381" x="92" y="431.3232">Restricted products must pass destination and stock checks.</text><text fill="#000000" font-family="Arial" font-size="14" lengthAdjust="spacing" textLength="419" x="92" y="447.4219">This is not a formal DMN Decision Requirements Diagram element.</text><!--SRC=[ZP8nRy8m48Lt_uhh1WE1LkhGCdIX88RI2XXPJ78X9vnpQb-Aqb_V2wa0WLHLigB4_jxBEptV4QUkpX2IPAWhIkCm3YjdMUhI3QJ04fDANuqH4eSmdSy6ewV1w261TtR422ln0U4Z-AnE1LuTxMXBZgI12QOKoJEi0w8nSKzSsM1Bo32tjPEfPrdHDyBzevwA3M8eXzuIemHA1JEeEjUNFcWIXbw3iMy0McgY5B6Lrjywvm-ORJZt0S9PJeBbjRPJpncY-7H_UmhmtCsWmnv8YWrV66Rew0j3CpwYw292Z_r9kF2Ycvtu5-6CSdEDte0TTWdz7V8KSVnlx-DJxIfZ7Exq4xPUn9TAp90nMAVJTNqDIg-3Qhax46qkKUIsamXb7GKg6wCABxfGvsDgI0jCzx5LhmkAe8ircWKjgTI_JTuMvnkonC-QWbusLkC9sLrxJT0TDv8sV9Vv1m00]--></g></svg>