<?xml version="1.0" encoding="us-ascii" standalone="no"?><svg xmlns="http://www.w3.org/2000/svg" xmlns:xlink="http://www.w3.org/1999/xlink" contentStyleType="text/css" height="469px" preserveAspectRatio="none" style="width:700px;height:469px;background:#FFFFFF;" version="1.1" viewBox="0 0 700 469" width="700px" zoomAndPan="magnify"><defs/><g><text fill="#000000" font-family="Arial" font-size="14" font-weight="bold" lengthAdjust="spacing" textLength="406" x="140" y="23.1318">FIG-32-01: Horizon Bank multi-technique relationship view</text><!--cluster BAND 1: BUSINESS AND BIAN--><g id="cluster_BAND 1: BUSINESS AND BIAN"><rect fill="#F7FAFC" height="105" rx="2.5" ry="2.5" style="stroke:#333333;stroke-width:1.0;" width="651" x="7" y="44.0986"/><text fill="#000000" font-family="Arial" font-size="11" font-weight="bold" lengthAdjust="spacing" textLength="148" x="258.5" y="56.4165">BAND 1: BUSINESS AND BIAN</text></g><!--cluster BAND 2: APPLICATION AND EXCHANGE--><g id="cluster_BAND 2: APPLICATION AND EXCHANGE"><rect fill="#F7FAFC" height="92" rx="2.5" ry="2.5" style="stroke:#333333;stroke-width:1.0;" width="639" x="55" y="195.0986"/><text fill="#000000" font-family="Arial" font-size="11" font-weight="bold" lengthAdjust="spacing" textLength="202" x="273.5" y="207.4165">BAND 2: APPLICATION AND EXCHANGE</text></g><!--cluster BAND 3: RUNTIME AND QUALIFICATION--><g id="cluster_BAND 3: RUNTIME AND QUALIFICATION"><rect fill="#F7FAFC" height="130" rx="2.5" ry="2.5" style="stroke:#333333;stroke-width:1.0;" width="409" x="228" y="333.0986"/><text fill="#000000" font-family="Arial" font-size="11" font-weight="bold" lengthAdjust="spacing" textLength="202" x="331.5" y="345.4165">BAND 3: RUNTIME AND QUALIFICATION</text></g><!--entity CAP--><g id="elem_CAP"><rect fill="#EAF2F8" height="57.9468" rx="2.5" ry="2.5" style="stroke:#333333;stroke-width:0.5;" width="178" x="23" y="75.0986"/><text fill="#000000" font-family="Arial" font-size="11" lengthAdjust="spacing" textLength="72" x="76" y="95.4165">Business need</text><text fill="#000000" font-family="Arial" font-size="11" lengthAdjust="spacing" textLength="158" x="33" y="108.0654">Improve outgoing retail payments</text><text fill="#000000" font-family="Arial" font-size="11" lengthAdjust="spacing" textLength="134" x="45" y="120.7144">Capability: Payment Initiation</text></g><!--entity SCEN--><g id="elem_SCEN"><rect fill="#FFF2CC" height="57.9468" rx="2.5" ry="2.5" style="stroke:#333333;stroke-width:0.5;" width="155" x="246.5" y="75.0986"/><text fill="#000000" font-family="Arial" font-size="11" lengthAdjust="spacing" textLength="75" x="286.5" y="95.4165">BIAN behaviour</text><text fill="#000000" font-family="Arial" font-size="11" lengthAdjust="spacing" textLength="135" x="256.5" y="108.0654">Outgoing customer payment</text><text fill="#000000" font-family="Arial" font-size="11" lengthAdjust="spacing" textLength="91" x="278.5" y="120.7144">Business Scenario</text></g><!--entity SD--><g id="elem_SD"><rect fill="#FFF2CC" height="57.9468" rx="2.5" ry="2.5" style="stroke:#333333;stroke-width:0.5;" width="161" x="480.5" y="75.0986"/><text fill="#000000" font-family="Arial" font-size="11" lengthAdjust="spacing" textLength="90" x="516" y="95.4165">BIAN responsibility</text><text fill="#000000" font-family="Arial" font-size="11" lengthAdjust="spacing" textLength="136" x="493" y="108.0654">Candidate payment-handling</text><text fill="#000000" font-family="Arial" font-size="11" lengthAdjust="spacing" textLength="141" x="490.5" y="120.7144">Service Domain responsibility</text></g><!--entity APP--><g id="elem_APP"><rect fill="#E2F0D9" height="45.2979" rx="2.5" ry="2.5" style="stroke:#333333;stroke-width:0.5;" width="111" x="71.5" y="226.0986"/><text fill="#000000" font-family="Arial" font-size="11" lengthAdjust="spacing" textLength="91" x="81.5" y="246.4165">Horizon application</text><text fill="#000000" font-family="Arial" font-size="11" lengthAdjust="spacing" textLength="89" x="82.5" y="259.0654">Payments Platform</text></g><!--entity API--><g id="elem_API"><rect fill="#E2F0D9" height="45.2979" rx="2.5" ry="2.5" style="stroke:#333333;stroke-width:0.5;" width="126" x="237" y="226.0986"/><text fill="#000000" font-family="Arial" font-size="11" lengthAdjust="spacing" textLength="68" x="266" y="246.4165">Interface / API</text><text fill="#000000" font-family="Arial" font-size="11" lengthAdjust="spacing" textLength="106" x="247" y="259.0654">Outgoing Payment API</text></g><!--entity EVENT--><g id="elem_EVENT"><rect fill="#EDE7F6" height="45.2979" rx="2.5" ry="2.5" style="stroke:#333333;stroke-width:0.5;" width="191" x="486.5" y="226.0986"/><text fill="#000000" font-family="Arial" font-size="11" lengthAdjust="spacing" textLength="122" x="521" y="246.4165">Data: Payment Instruction</text><text fill="#000000" font-family="Arial" font-size="11" lengthAdjust="spacing" textLength="171" x="496.5" y="259.0654">Event: PaymentInstructionAccepted</text></g><!--entity RUN--><g id="elem_RUN"><rect fill="#DDEBF7" height="45.2979" rx="2.5" ry="2.5" style="stroke:#333333;stroke-width:0.5;" width="105" x="244.5" y="383.0986"/><text fill="#000000" font-family="Arial" font-size="11" lengthAdjust="spacing" textLength="56" x="269" y="403.4165">Deployment</text><text fill="#000000" font-family="Arial" font-size="11" lengthAdjust="spacing" textLength="85" x="254.5" y="416.0654">Payments runtime</text></g><!--entity NOTE--><g id="elem_NOTE"><rect fill="#FFFFFF" height="83.2446" rx="2.5" ry="2.5" style="stroke:#333333;stroke-width:0.5;" width="261" x="359.5" y="364.0986"/><text fill="#000000" font-family="Arial" font-size="11" lengthAdjust="spacing" textLength="100" x="440" y="384.4165">QUALIFIED MAPPING</text><text fill="#000000" font-family="Arial" font-size="11" lengthAdjust="spacing" textLength="198" x="391" y="397.0654">One-to-many, many-to-one or transitional</text><text fill="#000000" font-family="Arial" font-size="11" lengthAdjust="spacing" textLength="240" x="370" y="409.7144">A Service Domain is not automatically a capability,</text><text fill="#000000" font-family="Arial" font-size="11" lengthAdjust="spacing" textLength="241" x="369.5" y="422.3633">process step, application, microservice, interface,</text><text fill="#000000" font-family="Arial" font-size="11" lengthAdjust="spacing" textLength="177" x="401.5" y="435.0122">event, data entity or deployment unit.</text></g><!--link CAP to SCEN--><g id="link_CAP_SCEN"><path d="M201.29,104.0986 C216.23,104.0986 225.62,104.0986 240.24,104.0986 " fill="none" id="CAP-to-SCEN" style="stroke:#333333;stroke-width:1.2;"/><polygon fill="#333333" points="246.24,104.0986,237.24,100.0986,241.24,104.0986,237.24,108.0986,246.24,104.0986" style="stroke:#333333;stroke-width:1.2;"/><text fill="#000000" font-family="Arial" font-size="11" lengthAdjust="spacing" textLength="34" x="206.75" y="98.4165">frames</text></g><!--reverse link SCEN to SD--><g id="link_SCEN_SD"><path d="M407.6,104.0986 C432.85,104.0986 454.91,104.0986 480.38,104.0986 " fill="none" id="SCEN-backto-SD" style="stroke:#333333;stroke-width:1.2;"/><polygon fill="#333333" points="401.6,104.0986,410.6,108.0986,406.6,104.0986,410.6,100.0986,401.6,104.0986" style="stroke:#333333;stroke-width:1.2;"/><text fill="#000000" font-family="Arial" font-size="11" lengthAdjust="spacing" textLength="67" x="407.5" y="98.4165">participates in</text></g><!--link APP to API--><g id="link_APP_API"><path d="M182.69,248.5986 C199.98,248.5986 213.15,248.5986 230.9,248.5986 " fill="none" id="APP-to-API" style="stroke:#333333;stroke-width:1.2;"/><polygon fill="#333333" points="236.9,248.5986,227.9,244.5986,231.9,248.5986,227.9,252.5986,236.9,248.5986" style="stroke:#333333;stroke-width:1.2;"/><text fill="#000000" font-family="Arial" font-size="11" lengthAdjust="spacing" textLength="43" x="188.25" y="242.9165">supports</text></g><!--link API to EVENT--><g id="link_API_EVENT"><path d="M363.29,248.5986 C399.5,248.5986 439.66,248.5986 480.23,248.5986 " fill="none" id="API-to-EVENT" style="stroke:#333333;stroke-width:1.2;"/><polygon fill="#333333" points="486.23,248.5986,477.23,244.5986,481.23,248.5986,477.23,252.5986,486.23,248.5986" style="stroke:#333333;stroke-width:1.2;"/><text fill="#000000" font-family="Arial" font-size="11" lengthAdjust="spacing" textLength="112" x="368.75" y="242.9165">consumes or produces</text></g><!--link RUN to NOTE--><!--link CAP to APP--><g id="link_CAP_APP"><path d="M114.96,133.2486 C117.83,160.5086 121.4915,195.2716 124.1015,220.0516 " fill="none" id="CAP-to-APP" style="stroke:#333333;stroke-width:1.2;"/><polygon fill="#333333" points="124.73,226.0186,127.7653,216.6492,124.2063,221.0461,119.8093,217.4871,124.73,226.0186" style="stroke:#333333;stroke-width:1.2;"/><text fill="#000000" font-family="Arial" font-size="11" lengthAdjust="spacing" textLength="71" x="121" y="176.4165">realises in part</text></g><!--link SD to API--><g id="link_SD_API"><path d="M494.3,133.1986 C473.11,142.7086 449.79,153.7986 429,165.0986 C394.43,183.8886 361.683,205.1568 336.013,222.5968 " fill="none" id="SD-to-API" style="stroke:#333333;stroke-width:1.2;"/><polygon fill="#333333" points="331.05,225.9686,340.7423,224.2196,335.1858,223.1588,336.2466,217.6023,331.05,225.9686" style="stroke:#333333;stroke-width:1.2;"/><text fill="#000000" font-family="Arial" font-size="11" lengthAdjust="spacing" textLength="137" x="430" y="176.4165">exchanges meaning through</text></g><!--link SCEN to API--><!--link SD to EVENT--><!--link APP to RUN--><g id="link_APP_RUN"><path d="M150.64,271.1486 C183.03,300.6786 236.4257,349.3767 268.8557,378.9367 " fill="none" id="APP-to-RUN" style="stroke:#333333;stroke-width:1.2;"/><polygon fill="#333333" points="273.29,382.9786,269.3331,373.9596,269.5947,379.6104,263.9439,379.872,273.29,382.9786" style="stroke:#333333;stroke-width:1.2;"/><text fill="#000000" font-family="Arial" font-size="11" lengthAdjust="spacing" textLength="37" x="198" y="314.4165">runs on</text></g><!--reverse link EVENT to RUN--><g id="link_EVENT_RUN"><path d="M480.6047,268.5848 C437.1847,279.9248 392.79,296.5586 354,325.0986 C333.48,340.1986 317.44,364.8986 307.67,382.7586 " fill="none" id="EVENT-backto-RUN" style="stroke:#333333;stroke-width:1.2;"/><polygon fill="#333333" points="486.41,267.0686,476.6913,265.4727,481.5723,268.3321,478.7129,273.2131,486.41,267.0686" style="stroke:#333333;stroke-width:1.2;"/><text fill="#000000" font-family="Arial" font-size="11" lengthAdjust="spacing" textLength="112" x="388" y="314.4165">consumes or produces</text></g><!--SRC=[XLFRRkCs47tNLqoJLoiNBz1i_L10jgIiW5t5hPsYGDq7XXhRH2YI9IbdlOl-UuUqx6YzMTGm16akPsREcVb9A2wx1k7gwfh-pkybkciZcV9TArE_nHQl3BqcNdY9K5RtwRjnUdCxWG_QYYzQmPIfPsWxwKNgaM-L-AT3i2YP5rgvhJ2m4_YIU6t0QtZItkiM6c6HXu34FGjbc6LampKZc58hln1V46vl1yxCMltojiim_imsk0mDlXtH8o_niy-asAWMbGTE3xI3AAKRT6ZWzcPWj3HTDBx_lk8Yi0LX4AOs4fEajyF5DAjp88wcZukgBXOB2D_JAgiluBAyAxDo1byJU4sbZCu9XSw1GcnMgcgDrJi4tVcD5cf3ePu9IPNteNctKZDcs9EGmkydC3zOeLB2YyZx1J07ismEbqLMZiltPyMe4tZ2BTi9tTcLUZXMuPqZTT0UwwpKgQy5ySMiq15vCIjgcgGinxFP6z0MdI7jnQ6_qAjgHCCy7d7JBLaaLLof1TgTu0YvRfbGPwc7OlcWL9WfjMApzUclXpOci2PDq96J8bE9wu6BzFA22qEr7GYL_7ikqdW2sNp-iPfbo-gXZZeLVyu-PFLzyKEjZflFZ962HxvNgjV0mPmsVwrj6tidR99WNDxaltoBKONbMpCQ_9g2ge46Hp79saDKRqFapBEXzixRZX-QANPaEla6henpD1wRY5pyKTHBmiwBk_9dmWxDdhWDPIVWEcEqzIvwgrVl8NK2dBJgY7pGj3DMDnqd8RuZ-Tq4Vd-ibzMd8XByssFsiIfxod_8Sev6wduBJ-JQJddHOcoV8E4opujfUVTjPezVvF29HghgUs9NOUfrsZAr7q5uXY-jCFJjwSQT2EmmkL8Pd6sae9lK7bX7bq5QSoRb7XZmq_sDLef6v-58d4Sp6ku55HFSQdU07D4Azh9J4WQHHa1tmO3U22bqqvp6XexE-IgEMZyiYtW4zADPm-JfNrlHDAZ-FaeIOWBryK8Q_QAYY7CIoIAJmiK3Y0UHX3ivHGIPyJEdYznGI8jCXItqMwkxpJQ9TtIgzPeKCSxCSIcIk4Mz9JGw2QBHWgWajjsP_rcV_m00]--></g></svg>