<?xml version="1.0" encoding="us-ascii" standalone="no"?><svg xmlns="http://www.w3.org/2000/svg" xmlns:xlink="http://www.w3.org/1999/xlink" contentStyleType="text/css" height="700px" preserveAspectRatio="none" style="width:1058px;height:700px;background:#FFFFFF;" version="1.1" viewBox="0 0 1058 700" width="1058px" zoomAndPan="magnify"><defs/><g><text fill="#000000" font-family="Arial" font-size="14" font-weight="bold" lengthAdjust="spacing" textLength="353" x="345.5" y="23.1318">FIG-04-01. Online Store Returns Use Case Diagram</text><!--cluster OnlineStore--><g id="cluster_OnlineStore"><rect fill="#F7F9FB" height="268" rx="2.5" ry="2.5" style="stroke:#333333;stroke-width:1.0;" width="843" x="209" y="134.5986"/><text fill="#000000" font-family="Arial" font-size="14" font-weight="bold" lengthAdjust="spacing" textLength="88" x="586.5" y="149.7305">Online Store</text></g><g id="elem_RequestReturn"><ellipse cx="692.9783" cy="240.4943" fill="#F1F1F1" rx="69.9783" ry="16.3957" style="stroke:#181818;stroke-width:0.5;"/><text fill="#000000" font-family="Arial" font-size="14" lengthAdjust="spacing" textLength="95" x="644.268" y="243.8986">Request return</text></g><g id="elem_CheckEligibility"><ellipse cx="966.468" cy="240.3655" fill="#F1F1F1" rx="69.468" ry="25.7669" style="stroke:#181818;stroke-width:0.5;"/><text fill="#000000" font-family="Arial" font-size="14" lengthAdjust="spacing" textLength="82" x="925.468" y="235.3987">Check return</text><text fill="#000000" font-family="Arial" font-size="14" lengthAdjust="spacing" textLength="53" x="939.968" y="251.4974">eligibility</text></g><g id="elem_ReviewException"><ellipse cx="303.5036" cy="203.3655" fill="#F1F1F1" rx="73.0036" ry="25.7669" style="stroke:#181818;stroke-width:0.5;"/><text fill="#000000" font-family="Arial" font-size="14" lengthAdjust="spacing" textLength="87" x="260.0036" y="198.3987">Review return</text><text fill="#000000" font-family="Arial" font-size="14" lengthAdjust="spacing" textLength="60" x="273.5036" y="214.4974">exception</text></g><g id="elem_RequestRefund"><ellipse cx="303.661" cy="285.7308" fill="#F1F1F1" rx="71.161" ry="16.6322" style="stroke:#181818;stroke-width:0.5;"/><text fill="#000000" font-family="Arial" font-size="14" lengthAdjust="spacing" textLength="98" x="254.033" y="288.985">Request refund</text></g><g id="elem_RequestCollection"><ellipse cx="303.6028" cy="363.7192" fill="#F1F1F1" rx="78.6028" ry="18.1206" style="stroke:#181818;stroke-width:0.5;"/><text fill="#000000" font-family="Arial" font-size="14" lengthAdjust="spacing" textLength="116" x="245.6028" y="366.8017">Request collection</text></g><!--entity Customer--><g id="elem_Customer"><ellipse cx="303.5" cy="51.0986" fill="#FFFFFF" rx="8" ry="8" style="stroke:#333333;stroke-width:0.5;"/><path d="M303.5,59.0986 L303.5,86.0986 M290.5,67.0986 L316.5,67.0986 M303.5,86.0986 L290.5,101.0986 M303.5,86.0986 L316.5,101.0986 " fill="none" style="stroke:#333333;stroke-width:0.5;"/><text fill="#000000" font-family="Arial" font-size="14" lengthAdjust="spacing" textLength="61" x="273" y="115.7305">Customer</text></g><!--entity Support--><g id="elem_Support"><ellipse cx="84" cy="174.0986" fill="#FFFFFF" rx="8" ry="8" style="stroke:#333333;stroke-width:0.5;"/><path d="M84,182.0986 L84,209.0986 M71,190.0986 L97,190.0986 M84,209.0986 L71,224.0986 M84,209.0986 L97,224.0986 " fill="none" style="stroke:#333333;stroke-width:0.5;"/><text fill="#000000" font-family="Arial" font-size="14" lengthAdjust="spacing" textLength="156" x="6" y="238.7305">Customer Support Agent</text></g><!--entity PaymentProvider--><g id="elem_PaymentProvider"><ellipse cx="693" cy="427.0986" fill="#FFFFFF" rx="8" ry="8" style="stroke:#333333;stroke-width:0.5;"/><path d="M693,435.0986 L693,462.0986 M680,443.0986 L706,443.0986 M693,462.0986 L680,477.0986 M693,462.0986 L706,477.0986 " fill="none" style="stroke:#333333;stroke-width:0.5;"/><text fill="#000000" font-family="Arial" font-size="14" lengthAdjust="spacing" textLength="162" x="612" y="491.7305">Payment Provider System</text></g><!--entity DeliveryPartner--><g id="elem_DeliveryPartner"><ellipse cx="693" cy="538.0986" fill="#FFFFFF" rx="8" ry="8" style="stroke:#333333;stroke-width:0.5;"/><path d="M693,546.0986 L693,573.0986 M680,554.0986 L706,554.0986 M693,573.0986 L680,588.0986 M693,573.0986 L706,588.0986 " fill="none" style="stroke:#333333;stroke-width:0.5;"/><text fill="#000000" font-family="Arial" font-size="14" lengthAdjust="spacing" textLength="152" x="617" y="602.7305">Delivery Partner System</text></g><!--link Customer to RequestReturn--><g id="link_Customer_RequestReturn"><path d="M334.12,87.9686 C385.83,101.3686 495.31,132.1186 582,172.5986 C614.14,187.6086 648.51,209.9886 670.11,224.9286 " fill="none" id="Customer-RequestReturn" style="stroke:#333333;stroke-width:1.2;"/></g><!--link Support to ReviewException--><g id="link_Support_ReviewException"><path d="M162.29,203.5986 C184.4,203.5986 208.39,203.5986 230.18,203.5986 " fill="none" id="Support-ReviewException" style="stroke:#333333;stroke-width:1.2;"/></g><!--link RequestRefund to PaymentProvider--><g id="link_RequestRefund_PaymentProvider"><path d="M339.18,299.9886 C353.44,306.9786 369.51,316.3186 382,327.5986 C399.57,343.4586 392.92,357.5886 412,371.5986 C470.96,414.9086 552.18,436.3886 611.97,446.8986 " fill="none" id="RequestRefund-PaymentProvider" style="stroke:#333333;stroke-width:1.2;"/></g><!--link RequestCollection to DeliveryPartner--><g id="link_RequestCollection_DeliveryPartner"><path d="M323.6,381.0186 C344.27,399.2686 378.77,427.9486 412,447.5986 C478.01,486.6386 559.07,519.9486 616.96,541.4986 " fill="none" id="RequestCollection-DeliveryPartner" style="stroke:#333333;stroke-width:1.2;"/></g><!--link RequestReturn to CheckEligibility--><g id="link_RequestReturn_CheckEligibility"><path d="M763.21,240.5986 C804.22,240.5986 849.98,240.5986 890.88,240.5986 " fill="none" id="RequestReturn-to-CheckEligibility" style="stroke:#333333;stroke-width:1.2;stroke-dasharray:7.0,7.0;"/><polygon fill="#333333" points="896.88,240.5986,887.88,236.5986,891.88,240.5986,887.88,244.5986,896.88,240.5986" style="stroke:#333333;stroke-width:1.2;"/><text fill="#000000" font-family="Arial" font-size="14" lengthAdjust="spacing" textLength="61" x="805" y="236.7305">&#171;include&#187;</text></g><!--link ReviewException to RequestReturn--><g id="link_ReviewException_RequestReturn"><path d="M374.22,210.2586 C446.35,217.1386 552.0572,227.2382 622.0072,233.9182 " fill="none" id="ReviewException-to-RequestReturn" style="stroke:#333333;stroke-width:1.2;stroke-dasharray:7.0,7.0;"/><polygon fill="#333333" points="627.98,234.4886,619.401,229.6512,623.0026,234.0133,618.6405,237.6149,627.98,234.4886" style="stroke:#333333;stroke-width:1.2;"/><text fill="#000000" font-family="Arial" font-size="14" lengthAdjust="spacing" textLength="58" x="468" y="194.7305">&#171;extend&#187;</text><text fill="#000000" font-family="Arial" font-size="14" lengthAdjust="spacing" textLength="108" x="443" y="210.8291">[policy exception]</text></g><!--link RequestRefund to RequestReturn--><g id="link_RequestRefund_RequestReturn"><path d="M374.55,286.8686 C430.95,286.7986 512.06,284.2386 582,272.5986 C606.13,268.5786 626.7625,262.8891 647.6125,256.1291 " fill="none" id="RequestRefund-to-RequestReturn" style="stroke:#333333;stroke-width:1.2;stroke-dasharray:7.0,7.0;"/><polygon fill="#333333" points="653.32,254.2786,643.5251,253.2494,648.5637,255.8207,645.9924,260.8594,653.32,254.2786" style="stroke:#333333;stroke-width:1.2;"/><text fill="#000000" font-family="Arial" font-size="14" lengthAdjust="spacing" textLength="58" x="468" y="252.7305">&#171;extend&#187;</text><text fill="#000000" font-family="Arial" font-size="14" lengthAdjust="spacing" textLength="168" x="413" y="268.8291">[approved and refundable]</text></g><!--link RequestCollection to RequestReturn--><g id="link_RequestCollection_RequestReturn"><path d="M381.89,364.9586 C439.23,363.3686 518.16,355.5986 582,328.5986 C621.19,312.0186 653.7968,281.6779 673.3068,261.1479 " fill="none" id="RequestCollection-to-RequestReturn" style="stroke:#333333;stroke-width:1.2;stroke-dasharray:7.0,7.0;"/><polygon fill="#333333" points="677.44,256.7986,668.3406,260.5671,673.9956,260.4231,674.1397,266.0781,677.44,256.7986" style="stroke:#333333;stroke-width:1.2;"/><text fill="#000000" font-family="Arial" font-size="14" lengthAdjust="spacing" textLength="58" x="468" y="308.7305">&#171;extend&#187;</text><text fill="#000000" font-family="Arial" font-size="14" lengthAdjust="spacing" textLength="124" x="435" y="324.8291">[collection required]</text></g><rect fill="none" height="58.2959" id="_legend" rx="7.5" ry="7.5" style="stroke:#000000;stroke-width:1.0;" width="219" x="813" y="622.2305"/><text fill="#000000" font-family="Arial" font-size="14" lengthAdjust="spacing" textLength="180" x="818" y="640.3623">Solid line = actor association</text><text fill="#000000" font-family="Arial" font-size="14" lengthAdjust="spacing" textLength="197" x="818" y="656.4609">&#171;include&#187; = required behaviour</text><text fill="#000000" font-family="Arial" font-size="14" lengthAdjust="spacing" textLength="209" x="818" y="672.5596">&#171;extend&#187; = conditional behaviour</text><!--SRC=[XLDDRzim3BthLt2-E-s0dOOkm91sHKyh6koqvg18h2DKbbo9oceC- - -JP2knam053CFcU-JZvoTbX0uIOR6uYe-dNgE_wZGt55fTqmvRN7Jnap6DBmHamQbcHo2LGq7A6aQADCAFX_lw-ajz_Na1FurM1c5DrY4y8GLdFFpo22iUNxUADuwtZ74H2R0AdcoBRlojoZ-iGzTPH_2zGKCLS5yiZ2LbRfgeMasrCcam3Df_6K3mA99izOHl0Js1ombbxcWQKfnoLpiKhoFpsQ1MZTeghQZFRXczEnhdAdk5VuwkxmAxrALHBu5tnNOvkvTWv3oxPBd45LRhOGPJ_kfWPVzAawj7thUnZV3ex5x9rDtU4xRPRyGAL5nkOzbxT7t47PcvIy56YB73rEhwfAjbZ1cObpyhC15ECpchA97Ej6TwSO-NPmE2ht1pCoxwSibEyiWkyo29Z- -4HYwNp-PtPxKIFHo6kJb9_SC0lEjYJIY1H_OmOhxLkBbGuOUnZbEFaTv2F4EvISSPpqGEjnbtPHqpbf1FuniC0-NUMw7uk7YJVaH62GHRtF6zii5bIb6D366DLCcNwmafeeFmVm00]--></g></svg>