<?xml version="1.0" encoding="us-ascii" standalone="no"?><svg xmlns="http://www.w3.org/2000/svg" xmlns:xlink="http://www.w3.org/1999/xlink" contentStyleType="text/css" height="734px" preserveAspectRatio="none" style="width:641px;height:734px;background:#FFFFFF;" version="1.1" viewBox="0 0 641 734" width="641px" zoomAndPan="magnify"><defs/><g><text fill="#000000" font-family="Arial" font-size="14" font-weight="bold" lengthAdjust="spacing" textLength="345" x="141" y="23.1318">FIG-03-02. Flawed Horizon Bank Payment Diagram</text><!--entity meta--><g id="elem_meta"><rect fill="#FFF0F0" height="47.5977" rx="4" ry="4" style="stroke:#2B4D66;stroke-width:0.5;" width="147" x="7" y="128.0986"/><text fill="#111111" font-family="Arial" font-size="12" lengthAdjust="spacing" textLength="91" x="17" y="149.3545">Purpose unclear</text><text fill="#111111" font-family="Arial" font-size="12" lengthAdjust="spacing" textLength="127" x="17" y="163.1533">State: current or target?</text></g><!--entity customer--><g id="elem_customer"><rect fill="#F4F8FB" height="33.7988" rx="4" ry="4" style="stroke:#2B4D66;stroke-width:0.5;" width="75" x="308" y="44.0986"/><text fill="#111111" font-family="Arial" font-size="12" lengthAdjust="spacing" textLength="55" x="318" y="65.3545">Customer</text></g><!--entity mobile--><g id="elem_mobile"><rect fill="#F4F8FB" height="47.5977" rx="4" ry="4" style="stroke:#2B4D66;stroke-width:0.5;" width="104" x="293.5" y="128.0986"/><text fill="#111111" font-family="Arial" font-size="12" lengthAdjust="spacing" textLength="84" x="303.5" y="149.3545">Mobile Banking</text><text fill="#111111" font-family="Arial" font-size="12" lengthAdjust="spacing" textLength="76" x="303.5" y="163.1533">(app/channel)</text></g><!--entity orchestration--><g id="elem_orchestration"><rect fill="#F4F8FB" height="47.5977" rx="4" ry="4" style="stroke:#2B4D66;stroke-width:0.5;" width="145" x="273" y="211.0986"/><text fill="#111111" font-family="Arial" font-size="12" lengthAdjust="spacing" textLength="125" x="283" y="232.3545">Payment Orchestration</text><text fill="#111111" font-family="Arial" font-size="12" lengthAdjust="spacing" textLength="55" x="283" y="246.1533">(system?)</text></g><!--entity approve--><g id="elem_approve"><rect fill="#F4F8FB" height="47.5977" rx="4" ry="4" style="stroke:#2B4D66;stroke-width:0.5;" width="125" x="283" y="465.0986"/><text fill="#111111" font-family="Arial" font-size="12" lengthAdjust="spacing" textLength="95" x="293" y="486.3545">Approve Payment</text><text fill="#111111" font-family="Arial" font-size="12" lengthAdjust="spacing" textLength="105" x="293" y="500.1533">(business activity?)</text></g><!--entity fraud--><g id="elem_fraud"><rect fill="#F4F8FB" height="33.7988" rx="4" ry="4" style="stroke:#2B4D66;stroke-width:0.5;" width="111" x="524" y="124.0986"/><text fill="#111111" font-family="Arial" font-size="12" lengthAdjust="spacing" textLength="91" x="534" y="145.3545">Fraud Screening</text></g><!--entity sanctions--><g id="elem_sanctions"><rect fill="#F4F8FB" height="33.7988" rx="4" ry="4" style="stroke:#2B4D66;stroke-width:0.5;" width="75" x="542" y="193.0986"/><text fill="#111111" font-family="Arial" font-size="12" lengthAdjust="spacing" textLength="55" x="552" y="214.3545">Sanctions</text></g><!--entity core--><g id="elem_core"><rect fill="#F4F8FB" height="33.7988" rx="4" ry="4" style="stroke:#2B4D66;stroke-width:0.5;" width="95" x="298" y="621.0986"/><text fill="#111111" font-family="Arial" font-size="12" lengthAdjust="spacing" textLength="75" x="308" y="642.3545">Core Banking</text></g><!--entity rail--><g id="elem_rail"><rect fill="#F4F8FB" height="47.5977" rx="4" ry="4" style="stroke:#2B4D66;stroke-width:0.5;" width="93" x="299" y="309.0986"/><text fill="#111111" font-family="Arial" font-size="12" lengthAdjust="spacing" textLength="73" x="309" y="330.3545">Payment Rail</text><text fill="#111111" font-family="Arial" font-size="12" lengthAdjust="spacing" textLength="50" x="309" y="344.1533">external?</text></g><!--entity ops--><g id="elem_ops"><rect fill="#F4F8FB" height="47.5977" rx="4" ry="4" style="stroke:#2B4D66;stroke-width:0.5;" width="81" x="539" y="262.0986"/><text fill="#111111" font-family="Arial" font-size="12" lengthAdjust="spacing" textLength="61" x="549" y="283.3545">Operations</text><text fill="#111111" font-family="Arial" font-size="12" lengthAdjust="spacing" textLength="41" x="549" y="297.1533">owner?</text></g><g id="elem_GMN23"><path d="M266,392.0986 L266,429.6963 L425,429.6963 L425,402.0986 L415,392.0986 L266,392.0986 " fill="#FFF0F0" style="stroke:#9B2C2C;stroke-width:0.5;"/><path d="M415,392.0986 L415,402.0986 L425,402.0986 L415,392.0986 " fill="#FFF0F0" style="stroke:#9B2C2C;stroke-width:1.0;"/><text fill="#111111" font-family="Arial" font-size="12" lengthAdjust="spacing" textLength="138" x="272" y="408.3545">Unexplained external rail.</text><text fill="#111111" font-family="Arial" font-size="12" lengthAdjust="spacing" textLength="138" x="272" y="422.1533">No visible trust boundary.</text></g><g id="elem_GMN26"><path d="M266,690.0986 L266,727.6963 L425,727.6963 L425,700.0986 L415,690.0986 L266,690.0986 " fill="#FFF0F0" style="stroke:#9B2C2C;stroke-width:0.5;"/><path d="M415,690.0986 L415,700.0986 L425,700.0986 L415,690.0986 " fill="#FFF0F0" style="stroke:#9B2C2C;stroke-width:1.0;"/><text fill="#111111" font-family="Arial" font-size="12" lengthAdjust="spacing" textLength="138" x="272" y="706.3545">No exception, rejection or</text><text fill="#111111" font-family="Arial" font-size="12" lengthAdjust="spacing" textLength="115" x="272" y="720.1533">repair path is shown.</text></g><g id="elem_GMN29"><path d="M261,548.0986 L261,585.6963 L430,585.6963 L430,558.0986 L420,548.0986 L261,548.0986 " fill="#FFF0F0" style="stroke:#9B2C2C;stroke-width:0.5;"/><path d="M420,548.0986 L420,558.0986 L430,558.0986 L420,548.0986 " fill="#FFF0F0" style="stroke:#9B2C2C;stroke-width:1.0;"/><text fill="#111111" font-family="Arial" font-size="12" lengthAdjust="spacing" textLength="148" x="267" y="564.3545">Mixed business activity and</text><text fill="#111111" font-family="Arial" font-size="12" lengthAdjust="spacing" textLength="146" x="267" y="578.1533">software/system concepts.</text></g><!--link meta to mobile--><!--link customer to mobile--><g id="link_customer_mobile"><path d="M345.5,78.3386 C345.5,92.2986 345.5,106.1286 345.5,121.7086 " fill="none" id="customer-to-mobile" style="stroke:#555555;stroke-width:1.0;"/><polygon fill="#555555" points="345.5,127.7086,349.5,118.7086,345.5,122.7086,341.5,118.7086,345.5,127.7086" style="stroke:#555555;stroke-width:1.0;"/><text fill="#333333" font-family="Arial" font-size="12" lengthAdjust="spacing" textLength="28" x="321" y="107.8545">uses</text></g><!--link mobile to orchestration--><g id="link_mobile_orchestration"><path d="M345.5,176.3686 C345.5,178.4386 345.5,179.7686 345.5,179.7686 C345.5,179.7686 345.5,207.4286 345.5,207.4286 C345.5,207.4286 345.5,202.7586 345.5,204.8286 " fill="none" id="mobile-to-orchestration" style="stroke:#555555;stroke-width:1.0;"/><polygon fill="#555555" points="345.5,210.8286,349.5,201.8286,345.5,205.8286,341.5,201.8286,345.5,210.8286" style="stroke:#555555;stroke-width:1.0;"/></g><!--link orchestration to approve--><g id="link_orchestration_approve"><path d="M309.66,259.2686 C286.63,274.8086 261,292.0986 261,292.0986 C261,292.0986 207,354.5986 207,354.5986 C207,354.5986 207,369.5986 207,369.5986 C207,369.5986 261,448.0986 261,448.0986 C261,448.0986 272.061,453.4713 290.461,462.3913 " fill="none" id="orchestration-to-approve" style="stroke:#555555;stroke-width:1.0;"/><polygon fill="#555555" points="295.86,465.0086,289.5064,457.4833,291.3608,462.8275,286.0166,464.682,295.86,465.0086" style="stroke:#555555;stroke-width:1.0;"/><text fill="#333333" font-family="Arial" font-size="12" lengthAdjust="spacing" textLength="45" x="185" y="366.8545">updates</text></g><!--link approve to core--><g id="link_approve_core"><path d="M289.77,513.1286 C251.47,529.6386 207.5,548.5986 207.5,548.5986 C207.5,548.5986 207.5,586.5986 207.5,586.5986 C207.5,586.5986 254.1086,603.9911 294.3086,618.9911 " fill="none" id="approve-to-core" style="stroke:#555555;stroke-width:1.0;"/><polygon fill="#555555" points="299.93,621.0886,292.8962,614.1947,295.2455,619.3407,290.0995,621.6899,299.93,621.0886" style="stroke:#555555;stroke-width:1.0;"/></g><!--link orchestration to fraud--><g id="link_orchestration_fraud"><path d="M405.94,211.0086 C446.76,194.4786 494.3793,175.1822 530.8493,160.4022 " fill="none" id="orchestration-to-fraud" style="stroke:#555555;stroke-width:1.0;"/><polygon fill="#555555" points="536.41,158.1486,526.5666,157.8218,531.7761,160.0266,529.5713,165.2361,536.41,158.1486" style="stroke:#555555;stroke-width:1.0;"/><text fill="#333333" font-family="Arial" font-size="12" lengthAdjust="spacing" textLength="32" x="461" y="173.3545">check</text></g><!--link fraud to sanctions--><g id="link_fraud_sanctions"><path d="M579.5,158.2986 C579.5,161.6186 579.5,164.0986 579.5,164.0986 C579.5,164.0986 579.5,187.0986 579.5,187.0986 C579.5,187.0986 579.5,183.5786 579.5,186.8986 " fill="none" id="fraud-to-sanctions" style="stroke:#555555;stroke-width:1.0;"/><polygon fill="#555555" points="579.5,192.8986,583.5,183.8986,579.5,187.8986,575.5,183.8986,579.5,192.8986" style="stroke:#555555;stroke-width:1.0;"/></g><!--link orchestration to rail--><g id="link_orchestration_rail"><path d="M345.5,259.3886 C345.5,274.4686 345.5,287.7986 345.5,302.8786 " fill="none" id="orchestration-to-rail" style="stroke:#555555;stroke-width:1.0;"/><polygon fill="#555555" points="345.5,308.8786,349.5,299.8786,345.5,303.8786,341.5,299.8786,345.5,308.8786" style="stroke:#555555;stroke-width:1.0;"/><text fill="#333333" font-family="Arial" font-size="12" lengthAdjust="spacing" textLength="35" x="317.5" y="288.8545">sends</text></g><!--link rail to core--><g id="link_rail_core"><path d="M298.8,356.3086 C279.26,366.0186 261,375.0986 261,375.0986 C261,375.0986 207,481.5986 207,481.5986 C207,481.5986 207,496.5986 207,496.5986 C207,496.5986 261,604.0986 261,604.0986 C261,604.0986 276.2337,610.2288 297.1837,618.6588 " fill="none" id="rail-to-core" style="stroke:#555555;stroke-width:1.0;"/><polygon fill="#555555" points="302.75,620.8986,295.8938,613.8281,298.1114,619.0321,292.9074,621.2498,302.75,620.8986" style="stroke:#555555;stroke-width:1.0;"/><text fill="#333333" font-family="Arial" font-size="12" lengthAdjust="spacing" textLength="45" x="185" y="493.8545">updates</text></g><!--reverse link orchestration to ops--><g id="link_orchestration_ops"><path d="M423.8601,252.1067 C463.6701,260.8567 505.86,270.1286 538.95,277.4086 " fill="none" id="orchestration-backto-ops" style="stroke:#555555;stroke-width:1.0;"/><polygon fill="#555555" points="418,250.8186,425.9315,256.6574,422.8834,251.892,427.6489,248.8439,418,250.8186" style="stroke:#555555;stroke-width:1.0;"/></g><!--link rail to GMN23--><g id="link_rail_GMN23"><path d="M345.5,357.3886 C345.5,358.4686 345.5,359.0986 345.5,359.0986 C345.5,359.0986 345.5,385.0986 345.5,385.0986 C345.5,385.0986 345.5,388.0286 345.5,391.9286 " fill="none" id="rail-GMN23" style="stroke:#555555;stroke-width:1.0;stroke-dasharray:7.0,7.0;"/></g><!--link core to GMN26--><g id="link_core_GMN26"><path d="M345.5,655.2986 C345.5,658.9686 345.5,661.7686 345.5,661.7686 C345.5,661.7686 345.5,685.4286 345.5,685.4286 C345.5,685.4286 345.5,687.3086 345.5,689.9986 " fill="none" id="core-GMN26" style="stroke:#555555;stroke-width:1.0;stroke-dasharray:7.0,7.0;"/></g><!--link approve to GMN29--><g id="link_approve_GMN29"><path d="M345.5,513.3886 C345.5,514.4686 345.5,515.0986 345.5,515.0986 C345.5,515.0986 345.5,541.0986 345.5,541.0986 C345.5,541.0986 345.5,544.0286 345.5,547.9286 " fill="none" id="approve-GMN29" style="stroke:#555555;stroke-width:1.0;stroke-dasharray:7.0,7.0;"/></g><!--SRC=[VLHBRzim3BxhLn3TPGEMDasxekjXHPF2smvzeC5EomwCpSHQ74cWvARfiFy-MhPJku_fal3nyV6HTD2X84Y-VnqCZmR3qJua1MueWs-MzQCrC4QpWblShia4kDIuP5mhvLVQE9I_u7FCx4QR9IomyDInPBJ0iWY9DU4QrmGNhB5utJxLZmI7euwHAGrebbBQ7mLIHBfQiYrDDh65PNYN72UdoRYoMCw86-reV7nvSYBQAcQZEunFT7Srd0qndAg_dLp6XhVI9Cam6JvFytaycemchwRfXaLckubn6vzFyVLnH_7rS8Ks5BQEmDbYMmbA5RG842omNkO1CbsnewrHwecclTkIdVK4fKaBGfwPQS10Pv2MpDNi95j0Nb8utmFqiAQ0kmQxSIQb3tPD7BtIHkWwNDcvbjzgCMJiC_CUdJj8SpI6YWzrxEZHAwvPe1jES_A1iIfVe7xh0wtFQvZj6hle2-VOtbExXeARbrw8yHvGYBZNOTk4mDgp2quOomocAHCPgJUwBIfTrscA9ZBgezctKeyNoxkcQsv4yLgFTwYBcQ67G6omgDbcqNLzRnpLRVgPiHjPoThDEgzKdCpWPwwpZCmlEIup-D9Isiu31d4LTWOuWzAJLusqi_OfxKbFJWrfLGoNoSvurMfsBh7NP_2ciiYbOCMMhbGjxN1FJBwHko96m9vC9cnNGYzdfoRX1WQbUz6KYkSxjq680RkegVuX_Bi2PKSoQ2SHBVlgsiAzzdekD0KMEWKg1u-ytLTIHFmOl8WPsnSWFQJaggmVvGFrkpv2AKScwr0pE0mvQDcVNAZvJxXsIw_qWzJtOfS1JQQyNOGDCXtK9o8bc2gtxuJz1m00]--></g></svg>