<?xml version="1.0" encoding="us-ascii" standalone="no"?><svg xmlns="http://www.w3.org/2000/svg" xmlns:xlink="http://www.w3.org/1999/xlink" contentStyleType="text/css" height="1027px" preserveAspectRatio="none" style="width:1742px;height:1027px;background:#FFFFFF;" version="1.1" viewBox="0 0 1742 1027" width="1742px" zoomAndPan="magnify"><defs/><g><text fill="#000000" font-family="Arial" font-size="14" font-weight="bold" lengthAdjust="spacing" textLength="361" x="683.5" y="23.1318">FIG-12-04. Horizon Bank Payment Threat-Model DFD</text><!--cluster DigitalChannelContext--><g id="cluster_DigitalChannelContext"><rect fill="#F7F9FB" height="216" rx="2.5" ry="2.5" style="stroke:#333333;stroke-width:1.0;" width="269" x="372" y="44.0986"/><text fill="#000000" font-family="Arial" font-size="14" font-weight="bold" lengthAdjust="spacing" textLength="219" x="397" y="59.2305">Digital Channel Access Context</text></g><!--cluster PaymentContext--><g id="cluster_PaymentContext"><rect fill="#F7F9FB" height="200" rx="2.5" ry="2.5" style="stroke:#333333;stroke-width:1.0;" width="945" x="390" y="284.0986"/><text fill="#000000" font-family="Arial" font-size="14" font-weight="bold" lengthAdjust="spacing" textLength="224" x="750.5" y="299.2305">Payment Platform Responsibility</text></g><!--cluster FinancialCrimeContext--><g id="cluster_FinancialCrimeContext"><rect fill="#F7F9FB" height="200" rx="2.5" ry="2.5" style="stroke:#333333;stroke-width:1.0;" width="228" x="392.5" y="508.0986"/><text fill="#000000" font-family="Arial" font-size="14" font-weight="bold" lengthAdjust="spacing" textLength="212" x="400.5" y="523.2305">Financial-Crime Responsibility</text></g><!--cluster CoreContext--><g id="cluster_CoreContext"><rect fill="#F7F9FB" height="200" rx="2.5" ry="2.5" style="stroke:#333333;stroke-width:1.0;" width="220" x="396.5" y="732.0986"/><text fill="#000000" font-family="Arial" font-size="14" font-weight="bold" lengthAdjust="spacing" textLength="204" x="404.5" y="747.2305">Retained Core Responsibility</text></g><!--cluster EventContext--><g id="cluster_EventContext"><rect fill="#F7F9FB" height="180" rx="2.5" ry="2.5" style="stroke:#333333;stroke-width:1.0;" width="202" x="1166" y="508.0986"/><text fill="#000000" font-family="Arial" font-size="14" font-weight="bold" lengthAdjust="spacing" textLength="186" x="1174" y="523.2305">Event Distribution Context</text></g><!--entity DigitalChannelBasis--><g id="elem_DigitalChannelBasis"><rect fill="#F7F9FB" height="68.2959" rx="2.5" ry="2.5" style="stroke:#333333;stroke-width:0.5;" width="237" x="388" y="79.0986"/><text fill="#000000" font-family="Arial" font-size="14" lengthAdjust="spacing" textLength="101" x="398" y="102.2305">boundary basis:</text><text fill="#000000" font-family="Arial" font-size="14" lengthAdjust="spacing" textLength="217" x="398" y="118.3291">internet-facing session termination</text><text fill="#000000" font-family="Arial" font-size="14" lengthAdjust="spacing" textLength="180" x="398" y="134.4277">and channel access controls</text></g><!--entity Channels--><g id="elem_Channels"><rect fill="#FFFFFF" height="62.1973" rx="2.5" ry="2.5" style="stroke:#333333;stroke-width:0.5;" width="130" x="441.5" y="182.0986"/><rect fill="#FFFFFF" height="10" style="stroke:#333333;stroke-width:0.5;" width="15" x="551.5" y="187.0986"/><rect fill="#FFFFFF" height="2" style="stroke:#333333;stroke-width:0.5;" width="4" x="549.5" y="189.0986"/><rect fill="#FFFFFF" height="2" style="stroke:#333333;stroke-width:0.5;" width="4" x="549.5" y="193.0986"/><text fill="#000000" font-family="Arial" font-size="14" lengthAdjust="spacing" textLength="90" x="456.5" y="215.2305">Horizon Digital</text><text fill="#000000" font-family="Arial" font-size="14" lengthAdjust="spacing" textLength="60" x="456.5" y="231.3291">Channels</text></g><!--entity PaymentBasis--><g id="elem_PaymentBasis"><rect fill="#F7F9FB" height="52.1973" rx="2.5" ry="2.5" style="stroke:#333333;stroke-width:0.5;" width="201" x="406" y="319.0986"/><text fill="#000000" font-family="Arial" font-size="14" lengthAdjust="spacing" textLength="101" x="416" y="342.2305">boundary basis:</text><text fill="#000000" font-family="Arial" font-size="14" lengthAdjust="spacing" textLength="181" x="416" y="358.3291">payment orchestration policy</text></g><!--entity OpsInterface--><g id="elem_OpsInterface"><rect fill="#FFFFFF" height="62.1973" rx="2.5" ry="2.5" style="stroke:#333333;stroke-width:0.5;" width="182" x="415.5" y="406.0986"/><rect fill="#FFFFFF" height="10" style="stroke:#333333;stroke-width:0.5;" width="15" x="577.5" y="411.0986"/><rect fill="#FFFFFF" height="2" style="stroke:#333333;stroke-width:0.5;" width="4" x="575.5" y="413.0986"/><rect fill="#FFFFFF" height="2" style="stroke:#333333;stroke-width:0.5;" width="4" x="575.5" y="417.0986"/><text fill="#000000" font-family="Arial" font-size="14" lengthAdjust="spacing" textLength="142" x="430.5" y="439.2305">Authorised Operations</text><text fill="#000000" font-family="Arial" font-size="14" lengthAdjust="spacing" textLength="55" x="430.5" y="455.3291">Interface</text></g><!--entity Payments--><g id="elem_Payments"><rect fill="#FFFFFF" height="62.1973" rx="2.5" ry="2.5" style="stroke:#333333;stroke-width:0.5;" width="102" x="880" y="404.0986"/><rect fill="#FFFFFF" height="10" style="stroke:#333333;stroke-width:0.5;" width="15" x="962" y="409.0986"/><rect fill="#FFFFFF" height="2" style="stroke:#333333;stroke-width:0.5;" width="4" x="960" y="411.0986"/><rect fill="#FFFFFF" height="2" style="stroke:#333333;stroke-width:0.5;" width="4" x="960" y="415.0986"/><text fill="#000000" font-family="Arial" font-size="14" lengthAdjust="spacing" textLength="62" x="895" y="437.2305">Payments</text><text fill="#000000" font-family="Arial" font-size="14" lengthAdjust="spacing" textLength="52" x="895" y="453.3291">Platform</text></g><!--entity PaymentStore--><g id="elem_PaymentStore"><path d="M1215,414.5986 C1215,404.5986 1267,404.5986 1267,404.5986 C1267,404.5986 1319,404.5986 1319,414.5986 L1319,455.7959 C1319,465.7959 1267,465.7959 1267,465.7959 C1267,465.7959 1215,465.7959 1215,455.7959 L1215,414.5986 " fill="#F2F5F7" style="stroke:#333333;stroke-width:0.5;"/><path d="M1215,414.5986 C1215,424.5986 1267,424.5986 1267,424.5986 C1267,424.5986 1319,424.5986 1319,414.5986 " fill="none" style="stroke:#333333;stroke-width:0.5;"/><text fill="#000000" font-family="Arial" font-size="14" lengthAdjust="spacing" textLength="55" x="1225" y="441.7305">Payment</text><text fill="#000000" font-family="Arial" font-size="14" lengthAdjust="spacing" textLength="84" x="1225" y="457.8291">Record Store</text></g><!--entity AuditLog--><g id="elem_AuditLog"><path d="M1227,334.5986 C1227,324.5986 1267,324.5986 1267,324.5986 C1267,324.5986 1307,324.5986 1307,334.5986 L1307,359.6973 C1307,369.6973 1267,369.6973 1267,369.6973 C1267,369.6973 1227,369.6973 1227,359.6973 L1227,334.5986 " fill="#F2F5F7" style="stroke:#333333;stroke-width:0.5;"/><path d="M1227,334.5986 C1227,344.5986 1267,344.5986 1267,344.5986 C1267,344.5986 1307,344.5986 1307,334.5986 " fill="none" style="stroke:#333333;stroke-width:0.5;"/><text fill="#000000" font-family="Arial" font-size="14" lengthAdjust="spacing" textLength="60" x="1237" y="361.7305">Audit Log</text></g><!--entity FinancialCrimeBasis--><g id="elem_FinancialCrimeBasis"><rect fill="#F7F9FB" height="52.1973" rx="2.5" ry="2.5" style="stroke:#333333;stroke-width:0.5;" width="121" x="446" y="543.0986"/><text fill="#000000" font-family="Arial" font-size="14" lengthAdjust="spacing" textLength="101" x="456" y="566.2305">boundary basis:</text><text fill="#000000" font-family="Arial" font-size="14" lengthAdjust="spacing" textLength="95" x="456" y="582.3291">policy authority</text></g><!--entity FinancialCrime--><g id="elem_FinancialCrime"><rect fill="#FFFFFF" height="62.1973" rx="2.5" ry="2.5" style="stroke:#333333;stroke-width:0.5;" width="138" x="437.5" y="630.0986"/><rect fill="#FFFFFF" height="10" style="stroke:#333333;stroke-width:0.5;" width="15" x="555.5" y="635.0986"/><rect fill="#FFFFFF" height="2" style="stroke:#333333;stroke-width:0.5;" width="4" x="553.5" y="637.0986"/><rect fill="#FFFFFF" height="2" style="stroke:#333333;stroke-width:0.5;" width="4" x="553.5" y="641.0986"/><text fill="#000000" font-family="Arial" font-size="14" lengthAdjust="spacing" textLength="98" x="452.5" y="663.2305">Financial Crime</text><text fill="#000000" font-family="Arial" font-size="14" lengthAdjust="spacing" textLength="52" x="452.5" y="679.3291">Platform</text></g><!--entity CoreBasis--><g id="elem_CoreBasis"><rect fill="#F7F9FB" height="52.1973" rx="2.5" ry="2.5" style="stroke:#333333;stroke-width:0.5;" width="152" x="430.5" y="767.0986"/><text fill="#000000" font-family="Arial" font-size="14" lengthAdjust="spacing" textLength="101" x="440.5" y="790.2305">boundary basis:</text><text fill="#000000" font-family="Arial" font-size="14" lengthAdjust="spacing" textLength="132" x="440.5" y="806.3291">core account posting</text></g><!--entity Core--><g id="elem_Core"><path d="M455,864.5986 C455,854.5986 506.5,854.5986 506.5,854.5986 C506.5,854.5986 558,854.5986 558,864.5986 L558,905.7959 C558,915.7959 506.5,915.7959 506.5,915.7959 C506.5,915.7959 455,915.7959 455,905.7959 L455,864.5986 " fill="#F2F5F7" style="stroke:#333333;stroke-width:0.5;"/><path d="M455,864.5986 C455,874.5986 506.5,874.5986 506.5,874.5986 C506.5,874.5986 558,874.5986 558,864.5986 " fill="none" style="stroke:#333333;stroke-width:0.5;"/><text fill="#000000" font-family="Arial" font-size="14" lengthAdjust="spacing" textLength="83" x="465" y="891.7305">Core Deposit</text><text fill="#000000" font-family="Arial" font-size="14" lengthAdjust="spacing" textLength="46" x="465" y="907.8291">System</text></g><!--entity EventBasis--><g id="elem_EventBasis"><rect fill="#F7F9FB" height="68.2959" rx="2.5" ry="2.5" style="stroke:#333333;stroke-width:0.5;" width="162" x="1186" y="543.0986"/><text fill="#000000" font-family="Arial" font-size="14" lengthAdjust="spacing" textLength="101" x="1196" y="566.2305">boundary basis:</text><text fill="#000000" font-family="Arial" font-size="14" lengthAdjust="spacing" textLength="142" x="1196" y="582.3291">event governance and</text><text fill="#000000" font-family="Arial" font-size="14" lengthAdjust="spacing" textLength="110" x="1196" y="598.4277">consumer access</text></g><!--entity EventPlatform--><g id="elem_EventPlatform"><path d="M1216,646.0986 L1318,646.0986 C1323,646.0986 1323,659.1479 1323,659.1479 C1323,659.1479 1323,672.1973 1318,672.1973 L1216,672.1973 C1211,672.1973 1211,659.1479 1211,659.1479 C1211,659.1479 1211,646.0986 1216,646.0986 " fill="#F2F5F7" style="stroke:#333333;stroke-width:0.5;"/><path d="M1318,646.0986 C1313,646.0986 1313,659.1479 1313,659.1479 C1313,672.1973 1318,672.1973 1318,672.1973 " fill="none" style="stroke:#333333;stroke-width:0.5;"/><text fill="#000000" font-family="Arial" font-size="14" lengthAdjust="spacing" textLength="92" x="1216" y="664.2305">Event Platform</text></g><!--entity Customer--><g id="elem_Customer"><rect fill="#F7F9FB" height="52.1973" rx="2.5" ry="2.5" style="stroke:#333333;stroke-width:0.5;" width="81" x="13.5" y="187.0986"/><text fill="#000000" font-family="Arial" font-size="14" lengthAdjust="spacing" textLength="36" x="23.5" y="210.2305">Retail</text><text fill="#000000" font-family="Arial" font-size="14" lengthAdjust="spacing" textLength="61" x="23.5" y="226.3291">Customer</text></g><!--entity Ops--><g id="elem_Ops"><rect fill="#F7F9FB" height="52.1973" rx="2.5" ry="2.5" style="stroke:#333333;stroke-width:0.5;" width="90" x="9" y="411.0986"/><text fill="#000000" font-family="Arial" font-size="14" lengthAdjust="spacing" textLength="70" x="19" y="434.2305">Operations</text><text fill="#000000" font-family="Arial" font-size="14" lengthAdjust="spacing" textLength="46" x="19" y="450.3291">Analyst</text></g><!--entity Compliance--><g id="elem_Compliance"><rect fill="#F7F9FB" height="52.1973" rx="2.5" ry="2.5" style="stroke:#333333;stroke-width:0.5;" width="94" x="7" y="635.0986"/><text fill="#000000" font-family="Arial" font-size="14" lengthAdjust="spacing" textLength="74" x="17" y="658.2305">Compliance</text><text fill="#000000" font-family="Arial" font-size="14" lengthAdjust="spacing" textLength="42" x="17" y="674.3291">Officer</text></g><!--entity EventConsumer--><g id="elem_EventConsumer"><rect fill="#F7F9FB" height="52.1973" rx="2.5" ry="2.5" style="stroke:#333333;stroke-width:0.5;" width="121" x="1615" y="633.0986"/><text fill="#000000" font-family="Arial" font-size="14" lengthAdjust="spacing" textLength="101" x="1625" y="656.2305">Approved Event</text><text fill="#000000" font-family="Arial" font-size="14" lengthAdjust="spacing" textLength="65" x="1625" y="672.3291">Consumer</text></g><!--link Customer to Channels--><g id="link_Customer_Channels"><path d="M94.58,213.0986 C172.52,213.0986 340.5,213.0986 435.16,213.0986 " fill="none" id="Customer-to-Channels" style="stroke:#333333;stroke-width:1.2;"/><polygon fill="#333333" points="441.16,213.0986,432.16,209.0986,436.16,213.0986,432.16,217.0986,441.16,213.0986" style="stroke:#333333;stroke-width:1.2;"/><text fill="#000000" font-family="Arial" font-size="14" lengthAdjust="spacing" textLength="123" x="182" y="177.2305">payment instruction</text><text fill="#000000" font-family="Arial" font-size="14" lengthAdjust="spacing" textLength="141" x="173" y="193.3291">and session reference</text><text fill="#000000" font-family="Arial" font-size="14" lengthAdjust="spacing" textLength="54" x="216.5" y="209.4277">[T12-01]</text></g><!--link Channels to Payments--><g id="link_Channels_Payments"><path d="M571.54,235.2786 C642.53,261.2886 759.02,308.3086 850,366.0986 C867.03,376.9186 879.7582,387.145 893.7982,399.895 " fill="none" id="Channels-to-Payments" style="stroke:#333333;stroke-width:1.2;"/><polygon fill="#333333" points="898.24,403.9286,894.2664,394.9169,894.5385,400.5672,888.8882,400.8393,898.24,403.9286" style="stroke:#333333;stroke-width:1.2;"/><text fill="#000000" font-family="Arial" font-size="14" lengthAdjust="spacing" textLength="127" x="690" y="218.2305">payment instruction,</text><text fill="#000000" font-family="Arial" font-size="14" lengthAdjust="spacing" textLength="155" x="676" y="234.3291">validated subject context</text><text fill="#000000" font-family="Arial" font-size="14" lengthAdjust="spacing" textLength="146" x="680.5" y="250.4277">and entitlement context</text><text fill="#000000" font-family="Arial" font-size="14" lengthAdjust="spacing" textLength="108" x="699.5" y="266.5264">[T12-02, T12-07]</text></g><!--link Payments to FinancialCrime--><g id="link_Payments_FinancialCrime"><path d="M879.76,459.9686 C810.42,495.0386 690.16,558.7986 657,595.0986 C651.37,601.2686 655.21,606.5186 649,612.0986 C628.6,630.4286 606.7505,640.3351 581.3305,647.5751 " fill="none" id="Payments-to-FinancialCrime" style="stroke:#333333;stroke-width:1.2;"/><polygon fill="#333333" points="575.56,649.2186,585.3115,650.6003,580.3688,647.849,583.1201,642.9063,575.56,649.2186" style="stroke:#333333;stroke-width:1.2;"/><text fill="#000000" font-family="Arial" font-size="14" lengthAdjust="spacing" textLength="114" x="696.5" y="473.2305">screening request</text></g><!--link FinancialCrime to Payments--><g id="link_FinancialCrime_Payments"><path d="M575.8,676.0686 C650.57,688.3286 770.39,695.3686 850,637.0986 C905.24,596.6686 921.6834,517.9892 926.9634,472.1492 " fill="none" id="FinancialCrime-to-Payments" style="stroke:#333333;stroke-width:1.2;"/><polygon fill="#333333" points="927.65,466.1886,922.6464,474.6718,927.0779,471.1558,930.5939,475.5872,927.65,466.1886" style="stroke:#333333;stroke-width:1.2;"/><text fill="#000000" font-family="Arial" font-size="14" lengthAdjust="spacing" textLength="101" x="703" y="617.2305">screening result</text><text fill="#000000" font-family="Arial" font-size="14" lengthAdjust="spacing" textLength="54" x="726.5" y="633.3291">[T12-05]</text></g><!--link FinancialCrime to Compliance--><g id="link_FinancialCrime_Compliance"><path d="M437.41,683.3386 C412.14,690.5186 383.04,697.5486 356,701.0986 C256.85,714.1286 228.08,725.0886 131,701.0986 C118.99,698.1286 112.0934,695.6466 101.0734,689.9166 " fill="none" id="FinancialCrime-to-Compliance" style="stroke:#333333;stroke-width:1.2;"/><polygon fill="#333333" points="95.75,687.1486,101.8898,694.8495,100.1861,689.4553,105.5804,687.7517,95.75,687.1486" style="stroke:#333333;stroke-width:1.2;"/><text fill="#000000" font-family="Arial" font-size="14" lengthAdjust="spacing" textLength="187" x="150" y="681.2305">screening case and permitted</text><text fill="#000000" font-family="Arial" font-size="14" lengthAdjust="spacing" textLength="107" x="190" y="697.3291">customer context</text></g><!--link Compliance to FinancialCrime--><g id="link_Compliance_FinancialCrime"><path d="M101.09,661.0986 C180.7,661.0986 338.33,661.0986 431.2,661.0986 " fill="none" id="Compliance-to-FinancialCrime" style="stroke:#333333;stroke-width:1.2;"/><polygon fill="#333333" points="437.2,661.0986,428.2,657.0986,432.2,661.0986,428.2,665.0986,437.2,661.0986" style="stroke:#333333;stroke-width:1.2;"/><text fill="#000000" font-family="Arial" font-size="14" lengthAdjust="spacing" textLength="138" x="174.5" y="641.2305">screening case action</text><text fill="#000000" font-family="Arial" font-size="14" lengthAdjust="spacing" textLength="54" x="216.5" y="657.3291">[T12-05]</text></g><!--link Payments to OpsInterface--><g id="link_Payments_OpsInterface"><path d="M879.6,419.7786 C869.87,417.4186 859.68,415.3486 850,414.0986 C764.93,403.1186 742.53,407.5586 657,414.0986 C637.75,415.5686 623.1768,417.2201 603.6968,420.0701 " fill="none" id="Payments-to-OpsInterface" style="stroke:#333333;stroke-width:1.2;"/><polygon fill="#333333" points="597.76,420.9386,607.2442,423.5936,602.7073,420.2148,606.0861,415.6779,597.76,420.9386" style="stroke:#333333;stroke-width:1.2;"/><text fill="#000000" font-family="Arial" font-size="14" lengthAdjust="spacing" textLength="191" x="658" y="388.2305">repair work item and permitted</text><text fill="#000000" font-family="Arial" font-size="14" lengthAdjust="spacing" textLength="103" x="702" y="404.3291">payment context</text></g><!--link OpsInterface to Payments--><g id="link_OpsInterface_Payments"><path d="M597.66,439.8486 C666.74,441.4886 764.41,442.7686 850,440.0986 C859.6,439.7986 863.84,439.6456 873.68,439.0756 " fill="none" id="OpsInterface-to-Payments" style="stroke:#333333;stroke-width:1.2;"/><polygon fill="#333333" points="879.67,438.7286,870.4537,435.2558,874.6784,439.0178,870.9164,443.2424,879.67,438.7286" style="stroke:#333333;stroke-width:1.2;"/><text fill="#000000" font-family="Arial" font-size="14" lengthAdjust="spacing" textLength="160" x="673.5" y="436.2305">authorised repair request</text></g><!--link OpsInterface to Ops--><g id="link_OpsInterface_Ops"><path d="M415.35,465.2786 C395.96,470.1886 375.45,474.5386 356,477.0986 C256.85,490.1286 228.08,501.0886 131,477.0986 C118.99,474.1286 112.0934,471.6466 101.0734,465.9166 " fill="none" id="OpsInterface-to-Ops" style="stroke:#333333;stroke-width:1.2;"/><polygon fill="#333333" points="95.75,463.1486,101.8898,470.8495,100.1861,465.4553,105.5804,463.7517,95.75,463.1486" style="stroke:#333333;stroke-width:1.2;"/><text fill="#000000" font-family="Arial" font-size="14" lengthAdjust="spacing" textLength="223" x="132" y="457.2305">assigned repair case and permitted</text><text fill="#000000" font-family="Arial" font-size="14" lengthAdjust="spacing" textLength="103" x="192" y="473.3291">payment context</text></g><!--link Ops to OpsInterface--><g id="link_Ops_OpsInterface"><path d="M99.02,437.0986 C171.97,437.0986 313.37,437.0986 409.19,437.0986 " fill="none" id="Ops-to-OpsInterface" style="stroke:#333333;stroke-width:1.2;"/><polygon fill="#333333" points="415.19,437.0986,406.19,433.0986,410.19,437.0986,406.19,441.0986,415.19,437.0986" style="stroke:#333333;stroke-width:1.2;"/><text fill="#000000" font-family="Arial" font-size="14" lengthAdjust="spacing" textLength="198" x="144.5" y="401.2305">controlled repair action through</text><text fill="#000000" font-family="Arial" font-size="14" lengthAdjust="spacing" textLength="197" x="145" y="417.3291">authorised operations interface</text><text fill="#000000" font-family="Arial" font-size="14" lengthAdjust="spacing" textLength="108" x="189.5" y="433.4277">[T12-04, T12-08]</text></g><!--link Payments to Core--><g id="link_Payments_Core"><path d="M929.79,466.2586 C927.78,524.2686 915.57,649.8086 850,726.0986 C788.79,797.3186 719.67,742.1586 657,812.0986 C649.21,820.7886 657.18,828.7786 649,837.0986 C625,861.5186 594.0183,872.366 563.9283,878.256 " fill="none" id="Payments-to-Core" style="stroke:#333333;stroke-width:1.2;"/><polygon fill="#333333" points="558.04,879.4086,567.6408,881.6052,562.9469,878.4481,566.104,873.7542,558.04,879.4086" style="stroke:#333333;stroke-width:1.2;"/><text fill="#000000" font-family="Arial" font-size="14" lengthAdjust="spacing" textLength="98" x="704.5" y="706.2305">posting request</text><text fill="#000000" font-family="Arial" font-size="14" lengthAdjust="spacing" textLength="54" x="726.5" y="722.3291">[T12-03]</text></g><!--link Core to Payments--><g id="link_Core_Payments"><path d="M558.11,894.5386 C632.46,905.2386 770.93,912.5886 850,838.0986 C904.12,787.1086 922.7859,557.8376 927.9859,472.2976 " fill="none" id="Core-to-Payments" style="stroke:#333333;stroke-width:1.2;"/><polygon fill="#333333" points="928.35,466.3086,923.8113,475.0493,928.0466,471.2994,931.7965,475.5348,928.35,466.3086" style="stroke:#333333;stroke-width:1.2;"/><text fill="#000000" font-family="Arial" font-size="14" lengthAdjust="spacing" textLength="85" x="711" y="834.2305">posting result</text></g><!--link Payments to PaymentStore--><g id="link_Payments_PaymentStore"><path d="M982,435.0986 C1044.7,435.0986 1145.6,435.0986 1208.83,435.0986 " fill="none" id="Payments-to-PaymentStore" style="stroke:#333333;stroke-width:1.2;"/><polygon fill="#333333" points="1214.83,435.0986,1205.83,431.0986,1209.83,435.0986,1205.83,439.0986,1214.83,435.0986" style="stroke:#333333;stroke-width:1.2;"/><text fill="#000000" font-family="Arial" font-size="14" lengthAdjust="spacing" textLength="135" x="1013.5" y="431.2305">store payment record</text></g><!--link Payments to AuditLog--><g id="link_Payments_AuditLog"><path d="M982.18,418.1586 C992.03,415.0086 1002.31,411.8486 1012,409.0986 C1087.32,387.6986 1170.6051,368.3 1220.7451,357.07 " fill="none" id="Payments-to-AuditLog" style="stroke:#333333;stroke-width:1.2;"/><polygon fill="#333333" points="1226.6,355.7586,1216.9434,353.8224,1221.7209,356.8514,1218.6918,361.629,1226.6,355.7586" style="stroke:#333333;stroke-width:1.2;"/><text fill="#000000" font-family="Arial" font-size="14" lengthAdjust="spacing" textLength="103" x="1029.5" y="354.2305">write audit event</text><text fill="#000000" font-family="Arial" font-size="14" lengthAdjust="spacing" textLength="54" x="1054" y="370.3291">[T12-04]</text></g><!--link Payments to EventPlatform--><g id="link_Payments_EventPlatform"><path d="M959.96,466.1786 C999.88,508.7286 1077.33,584.7386 1158,628.0986 C1174.32,636.8686 1187.6084,641.8311 1205.1584,646.5811 " fill="none" id="Payments-to-EventPlatform" style="stroke:#333333;stroke-width:1.2;"/><polygon fill="#333333" points="1210.95,648.1486,1203.3076,641.9363,1206.1237,646.8424,1201.2176,649.6584,1210.95,648.1486" style="stroke:#333333;stroke-width:1.2;"/><text fill="#000000" font-family="Arial" font-size="14" lengthAdjust="spacing" textLength="136" x="1013" y="503.2305">payment-status event</text><text fill="#000000" font-family="Arial" font-size="14" lengthAdjust="spacing" textLength="54" x="1054" y="519.3291">[T12-06]</text></g><!--link EventPlatform to EventConsumer--><g id="link_EventPlatform_EventConsumer"><path d="M1323.25,659.0986 C1399.44,659.0986 1530.25,659.0986 1608.75,659.0986 " fill="none" id="EventPlatform-to-EventConsumer" style="stroke:#333333;stroke-width:1.2;"/><polygon fill="#333333" points="1614.75,659.0986,1605.75,655.0986,1609.75,659.0986,1605.75,663.0986,1614.75,659.0986" style="stroke:#333333;stroke-width:1.2;"/><text fill="#000000" font-family="Arial" font-size="14" lengthAdjust="spacing" textLength="199" x="1385" y="655.2305">permitted payment-status event</text></g><rect fill="none" height="58.2959" id="_legend" rx="7.5" ry="7.5" style="stroke:#000000;stroke-width:1.0;" width="770" x="479" y="949.0986"/><text fill="#000000" font-family="Arial" font-size="14" lengthAdjust="spacing" textLength="350" x="484" y="967.2305">Threat IDs label review points, not proof of vulnerability.</text><text fill="#000000" font-family="Arial" font-size="14" lengthAdjust="spacing" textLength="760" x="484" y="983.3291">Authentication and session validation are represented in the authentication model, not as a full Identity Service flow here.</text><text fill="#000000" font-family="Arial" font-size="14" lengthAdjust="spacing" textLength="599" x="484" y="999.4277">DFD elements are external entities, processes, stores and data flows, not BPMN process steps.</text><!--SRC=[dLPDSzis4BtpLsoTgwKqJbAtFdH67rNhcQRssBbLEa3WYa8C0Ym0ob4x_UzTV56aofauqMX68hZxTlVjuW7V2SLbMo9Cfw_fQzrHedtTIAPSMyk9ssEDquR-5eN4dGEdmOXgxw0K1haJMXLEE8cmklrrykPgylsxAVocZVXRAvWpzGJtx5YZSl1nRv2voGTTeeJbQbaKzaceXXbMWqTYgYAKVmg0kJObceMMsi2hj-7ZLnb_genkLPdUhAvNFwtcnRyz7AxhHYiVxMjmmcU0KpB7jin-NJfNg_Uhwm7CNosstuPHd1YvU437X5ohHMkThj5S0BEG7_g6TmqQvZjYrsgcc3nQ5spl6jitMn19KZ35SQtkTZl1CsItthUUDOtH1opXbmFnIbaGV9kp26jvPP3qKbJ2CGcBFLEA6ZxZ7AsFeHn-ZcabasIHtWIsUZXRpmupHw1s27kpLeBCZ48tsJ4kL0MMOAbaeDLQg53-MZ5L0a-HMOpC2TzeQKT2ppqqXJrDpqMUu6H8PKVJw9uVpXgL9_rUChVJfeO7j0HenLP8uOx1DTcyjDecGMh3zsXTR2yqMWe-m1ifOTQwFLLXgNNzmRZr_15tc4UZMnYw9s3ooENqu_bOtIR9jclrW9m67HwTDjWt3mi3brbR2WU_wogOXITwE2DqHGrLN30vMHXHunYVdKcmU36jWK1WaQ9Hg156EmC85cVC3Dt7zh2YLYo8YB4w_FfBi-SUWyQQrXtDWdMq3pgGdFU9wX1oYMGeg4MFf0fOT-PdUOODJLDFeoQsRHYs_fRD-_r5QMB0gaWyZ6U6KbQbJpwgHTgN9zYSU1JDbCc0uR2KLtpYMGHXClcvsvHm0tdN24LrjFoa2Lai3ExGO530Fp_wG-lDfkZyFLWUyt6moxKwC2c8OkgeRRUVY8KWC4HB34GE_b0CZjsB6Ehg4iBlzQOekZ0-vd20ABBb1b5vaJD8h5XNd9cSPTgtjwti8hxVZ3cUv7xWoltC-18QBwYEAgIUPPvJAKNFzmkPHxZKWYwTOU5z4I9dWmqJ1fwrUG91itgUJMv8JcRWdl08Xb6hAx_b4jvOOIDGOncbiqEUm695uFPqUbTxwlb9R7KdjY0oHYxzNUhzZvl_PzrhP0yjnSi3C2GkxEoRB07PA0TxIpFj3SxdkRFsCtA6sDThtyVmcraoGTs73bcvoVYPb9GO3iAEyRAGgjuCVGRx-BJ39jOnrzgXxm-ROcZU0UHhXmV87Hs5yXVN2gdnM-reZ8ju4ONRfGN9jdH3C7WG-4p4KB_i9IXDgcgqtW5z3wrKrC-erDF27wf-R_Du4FSr9Ib2M2RIg774CDbILi9F2eQszfnhVnEEuKZS6EnQAU6s3D9nX4Sq1xgQmKxgPzYJMaqBkZG3Hb6n8GQDhDTM6UL682LFYNjPzNz3ysp8qHy60IcLDx__y4Ss9JjixBGWXY9F_m40]--></g></svg>