<?xml version="1.0" encoding="us-ascii" standalone="no"?><svg xmlns="http://www.w3.org/2000/svg" xmlns:xlink="http://www.w3.org/1999/xlink" contentStyleType="text/css" height="667px" preserveAspectRatio="none" style="width:672px;height:667px;background:#FFFFFF;" version="1.1" viewBox="0 0 672 667" width="672px" zoomAndPan="magnify"><defs/><g><text fill="#000000" font-family="Arial" font-size="14" font-weight="bold" lengthAdjust="spacing" textLength="469" x="94.5" y="23.1318">FIG-23-01. Choosing the Right Decision and Business-Rule Artefact</text><!--entity Start--><g id="elem_Start"><rect fill="#DCEAF7" height="52.1973" rx="5" ry="5" style="stroke:#333333;stroke-width:0.5;" width="130" x="53.5" y="327.5654"/><text fill="#111111" font-family="Arial" font-size="14" lengthAdjust="spacing" textLength="82" x="63.5" y="350.6973">Start with the</text><text fill="#111111" font-family="Arial" font-size="14" lengthAdjust="spacing" textLength="110" x="63.5" y="366.7959">decision question</text></g><!--entity Policy--><g id="elem_Policy"><rect fill="#F5F7FA" height="52.1973" rx="5" ry="5" style="stroke:#333333;stroke-width:0.5;" width="140" x="512.5" y="58.5654"/><text fill="#111111" font-family="Arial" font-size="14" lengthAdjust="spacing" textLength="120" x="522.5" y="81.6973">Policy statement or</text><text fill="#111111" font-family="Arial" font-size="14" lengthAdjust="spacing" textLength="118" x="522.5" y="97.7959">Knowledge Source</text></g><!--entity Table--><g id="elem_Table"><rect fill="#F5F7FA" height="36.0986" rx="5" ry="5" style="stroke:#333333;stroke-width:0.5;" width="109" x="528" y="145.5654"/><text fill="#111111" font-family="Arial" font-size="14" lengthAdjust="spacing" textLength="89" x="538" y="168.6973">Decision table</text></g><!--entity Tree--><g id="elem_Tree"><rect fill="#F5F7FA" height="36.0986" rx="5" ry="5" style="stroke:#333333;stroke-width:0.5;" width="103" x="531" y="216.5654"/><text fill="#111111" font-family="Arial" font-size="14" lengthAdjust="spacing" textLength="83" x="541" y="239.6973">Decision tree</text></g><!--entity DRD--><g id="elem_DRD"><rect fill="#F5F7FA" height="52.1973" rx="5" ry="5" style="stroke:#333333;stroke-width:0.5;" width="165" x="500" y="287.5654"/><text fill="#111111" font-family="Arial" font-size="14" lengthAdjust="spacing" textLength="88" x="510" y="310.6973">DMN Decision</text><text fill="#111111" font-family="Arial" font-size="14" lengthAdjust="spacing" textLength="145" x="510" y="326.7959">Requirements Diagram</text></g><!--entity BPMN--><g id="elem_BPMN"><rect fill="#F5F7FA" height="36.0986" rx="5" ry="5" style="stroke:#333333;stroke-width:0.5;" width="143" x="511" y="374.5654"/><text fill="#111111" font-family="Arial" font-size="14" lengthAdjust="spacing" textLength="123" x="521" y="397.6973">BPMN process view</text></g><!--entity ADR--><g id="elem_ADR"><rect fill="#F5F7FA" height="52.1973" rx="5" ry="5" style="stroke:#333333;stroke-width:0.5;" width="124" x="520.5" y="445.5654"/><text fill="#111111" font-family="Arial" font-size="14" lengthAdjust="spacing" textLength="76" x="530.5" y="468.6973">Architecture</text><text fill="#111111" font-family="Arial" font-size="14" lengthAdjust="spacing" textLength="104" x="530.5" y="484.7959">Decision Record</text></g><!--entity Matrix--><g id="elem_Matrix"><rect fill="#F5F7FA" height="36.0986" rx="5" ry="5" style="stroke:#333333;stroke-width:0.5;" width="120" x="522.5" y="532.5654"/><text fill="#111111" font-family="Arial" font-size="14" lengthAdjust="spacing" textLength="100" x="532.5" y="555.6973">Trade-off matrix</text></g><!--entity Clarify--><g id="elem_Clarify"><rect fill="#FFF2CC" height="52.1973" rx="5" ry="5" style="stroke:#333333;stroke-width:0.5;" width="167" x="499" y="603.5654"/><text fill="#111111" font-family="Arial" font-size="14" lengthAdjust="spacing" textLength="100" x="509" y="626.6973">Clarify decision,</text><text fill="#111111" font-family="Arial" font-size="14" lengthAdjust="spacing" textLength="147" x="509" y="642.7959">audience and evidence</text></g><g id="elem_GMN19"><path d="M6,414.5654 L6,456.7627 A0,0 0 0 0 6,456.7627 L231,456.7627 A0,0 0 0 0 231,456.7627 L231,424.5654 L221,414.5654 L122.5,414.5654 L118.5,379.7154 L114.5,414.5654 L6,414.5654 A0,0 0 0 0 6,414.5654 " fill="#FEFFDD" style="stroke:#181818;stroke-width:0.5;"/><path d="M221,414.5654 L221,424.5654 L231,424.5654 L221,414.5654 " fill="#FEFFDD" style="stroke:#181818;stroke-width:0.5;"/><text fill="#000000" font-family="Arial" font-size="14" lengthAdjust="spacing" textLength="194" x="12" y="432.6973">When several questions apply,</text><text fill="#000000" font-family="Arial" font-size="14" lengthAdjust="spacing" textLength="204" x="12" y="448.7959">create separate linked artefacts.</text></g><!--link Start to Policy--><g id="link_Start_Policy"><path d="M127.65,327.4154 C144.18,279.1454 186.55,176.5954 261,128.5654 C336.63,79.7754 437.1661,74.554 506.2761,77.684 " fill="none" id="Start-to-Policy" style="stroke:#333333;stroke-width:1.0;"/><polygon fill="#333333" points="512.27,77.9554,503.4602,73.5523,507.2751,77.7292,503.0982,81.5441,512.27,77.9554" style="stroke:#333333;stroke-width:1.0;"/><text fill="#000000" font-family="Arial" font-size="14" lengthAdjust="spacing" textLength="92" x="319" y="57.6973">What authority</text><text fill="#000000" font-family="Arial" font-size="14" lengthAdjust="spacing" textLength="140" x="295" y="73.7959">constrains behaviour?</text></g><!--link Start to Table--><g id="link_Start_Table"><path d="M135.41,327.5154 C158.36,292.5054 204.29,231.3354 261,202.5654 C306.43,179.5154 442.9071,169.8282 521.7271,165.9782 " fill="none" id="Start-to-Table" style="stroke:#333333;stroke-width:1.0;"/><polygon fill="#333333" points="527.72,165.6854,518.5356,162.1293,522.726,165.9294,518.9259,170.1198,527.72,165.6854" style="stroke:#333333;stroke-width:1.0;"/><text fill="#000000" font-family="Arial" font-size="14" lengthAdjust="spacing" textLength="187" x="271.5" y="150.6973">Which condition combinations</text><text fill="#000000" font-family="Arial" font-size="14" lengthAdjust="spacing" textLength="138" x="296" y="166.7959">produce which result?</text></g><!--link Start to Tree--><g id="link_Start_Tree"><path d="M162.59,327.4454 C189.87,312.0554 226.41,293.5254 261,282.5654 C353.52,253.2454 460.8944,242.061 524.9944,237.611 " fill="none" id="Start-to-Tree" style="stroke:#333333;stroke-width:1.0;"/><polygon fill="#333333" points="530.98,237.1954,521.7246,233.8283,525.992,237.5417,522.2786,241.8091,530.98,237.1954" style="stroke:#333333;stroke-width:1.0;"/><text fill="#000000" font-family="Arial" font-size="14" lengthAdjust="spacing" textLength="158" x="286" y="223.6973">Which ordered questions</text><text fill="#000000" font-family="Arial" font-size="14" lengthAdjust="spacing" textLength="102" x="314" y="239.7959">lead to a result?</text></g><!--link Start to DRD--><g id="link_Start_DRD"><path d="M183.74,348.0054 C266.3,340.8554 403.7524,328.9531 493.9424,321.1431 " fill="none" id="Start-to-DRD" style="stroke:#333333;stroke-width:1.0;"/><polygon fill="#333333" points="499.92,320.6254,490.6085,317.4168,494.9386,321.0568,491.2986,325.387,499.92,320.6254" style="stroke:#333333;stroke-width:1.0;"/><text fill="#000000" font-family="Arial" font-size="14" lengthAdjust="spacing" textLength="206" x="262" y="304.6973">What information and knowledge</text><text fill="#000000" font-family="Arial" font-size="14" lengthAdjust="spacing" textLength="168" x="281" y="320.7959">does the decision require?</text></g><!--link Start to BPMN--><g id="link_Start_BPMN"><path d="M183.63,373.9554 C207.64,380.6254 235.32,387.1854 261,390.5654 C346.37,401.8154 439.6465,400.475 504.8265,397.435 " fill="none" id="Start-to-BPMN" style="stroke:#333333;stroke-width:1.0;"/><polygon fill="#333333" points="510.82,397.1554,501.6434,393.5791,505.8254,397.3884,502.0161,401.5704,510.82,397.1554" style="stroke:#333333;stroke-width:1.0;"/><text fill="#000000" font-family="Arial" font-size="14" lengthAdjust="spacing" textLength="170" x="280" y="370.6973">What work happens before</text><text fill="#000000" font-family="Arial" font-size="14" lengthAdjust="spacing" textLength="117" x="306.5" y="386.7959">or after the result?</text></g><!--link Start to ADR--><g id="link_Start_ADR"><path d="M183.57,370.6254 C200.12,376.9954 217.16,385.4754 231,396.5654 C249.76,411.5954 240.36,429.2454 261,441.5654 C340.78,489.1754 446.141,488.2141 514.391,481.2541 " fill="none" id="Start-to-ADR" style="stroke:#333333;stroke-width:1.0;"/><polygon fill="#333333" points="520.36,480.6454,511.0006,477.5791,515.3858,481.1527,511.8122,485.5379,520.36,480.6454" style="stroke:#333333;stroke-width:1.0;"/><text fill="#000000" font-family="Arial" font-size="14" lengthAdjust="spacing" textLength="155" x="287.5" y="421.6973">Why was an architecture</text><text fill="#000000" font-family="Arial" font-size="14" lengthAdjust="spacing" textLength="97" x="316.5" y="437.7959">option chosen?</text></g><!--link Start to Matrix--><g id="link_Start_Matrix"><path d="M183.62,366.4654 C201.15,372.8554 218.69,382.3854 231,396.5654 C269.86,441.3454 216.01,487.9454 261,526.5654 C333.19,588.5354 445.4866,579.7316 516.3966,566.1816 " fill="none" id="Start-to-Matrix" style="stroke:#333333;stroke-width:1.0;"/><polygon fill="#333333" points="522.29,565.0554,512.6992,562.8157,517.3789,565.9939,514.2007,570.6736,522.29,565.0554" style="stroke:#333333;stroke-width:1.0;"/><text fill="#000000" font-family="Arial" font-size="14" lengthAdjust="spacing" textLength="182" x="274" y="506.6973">How do alternatives compare</text><text fill="#000000" font-family="Arial" font-size="14" lengthAdjust="spacing" textLength="147" x="291.5" y="522.7959">against explicit criteria?</text></g><!--link Start to Clarify--><g id="link_Start_Clarify"><path d="M183.77,365.6354 C201.53,372.0054 219.15,381.7354 231,396.5654 C288.47,468.5154 194.02,538.3754 261,601.5654 C323.46,660.4954 420.5659,659.6321 492.9159,648.8221 " fill="none" id="Start-to-Clarify" style="stroke:#333333;stroke-width:1.0;"/><polygon fill="#333333" points="498.85,647.9354,489.3577,645.3093,493.9049,648.6743,490.5399,653.2215,498.85,647.9354" style="stroke:#333333;stroke-width:1.0;"/><text fill="#000000" font-family="Arial" font-size="14" lengthAdjust="spacing" textLength="81" x="324.5" y="597.6973">Still unclear?</text></g><!--SRC=[RLJ1JXin4BtdAqPm9OX0AoGEL25fsge2eO349PV9UZPhnR73U3PBMlNVE_OcOIFOazVptdZytep5YYEO_FhHlxpgNmpEOLI54ArVW5G4Kxke1CPKs6Y31_G6xcgDKepzQQt48GkLM4WlBgrV8-CAvbWi5nngRqR11ORJIVuw2AEKsiaaU7d0LKfYqNqUVx9_20PVEi5OeGbDAh145waJ6JA7PdVcLVuwGQP2q2-qvByzWBiFDNwTN4-6AHBO41zd0KYbxFO6-TEzQKjdJmo3Yzw_dgDIG09m5itOTAIgrdi_-kH9a0KQArMIT-RDNjdNcc82dm16Q56duz7tuUIwItyCpXPRY892A_82WMV-jm-D8xCWU0er5vHJjCWkzs2YuDoreEUq-Xp3j8FeuWXn_t1eXvcVqckjrqobH1XRNAZIcJQUZhkikqUbhJaKsZUmiTHaKDhjeePSL5RqlsQLvb3Bb0hr93E6uscNyCneg1_A4bOeRDyovZulkx2HGxRb5lPYdyqyriQIBoXtD6siIJ-PlWUdhhqSZNgj5_t-xKvIk86N2WMmbYgmbUtC5y57ORG-mfmgt5YruLk7c6NEF5jKe6XZazMwMisjnxIECw_oc5ehQZAAAUe476LH9mv9SfEIERIDyXsXITs7dt3LZdtTrfU1L_dGVFdbldkq6GF5FFM7hkJMtswgREKkLnDu2HMkrvIlhearYyu8bg8paJ9zB4KjpFGjDAesQX57heTrAqqL8lakhxLLgJz30qQlwVIC9Dv6YrObTSgLZejaWm2zhTKiAr2eHQJFIpVLtk8R7JJh7DI-KF7KCX-4O1v4mWf2sOwX3lfBHHuYROZHlIiEUc-tFTDumQJpg8ZqqkZ2MRzKRt3tDCRp7gdGAVb_]--></g></svg>