<?xml version="1.0" encoding="us-ascii" standalone="no"?><svg xmlns="http://www.w3.org/2000/svg" xmlns:xlink="http://www.w3.org/1999/xlink" contentStyleType="text/css" height="674px" preserveAspectRatio="none" style="width:1096px;height:674px;background:#FFFFFF;" version="1.1" viewBox="0 0 1096 674" width="1096px" zoomAndPan="magnify"><defs/><g><text fill="#000000" font-family="Arial" font-size="14" font-weight="bold" lengthAdjust="spacing" textLength="286" x="398" y="23.1318">FIG-07-04. Horizon Bank technology view</text><!--entity app_onboarding--><g id="elem_app_onboarding"><rect fill="#EAF6E8" height="68.2959" rx="4" ry="4" style="stroke:#333333;stroke-width:0.5;" width="182" x="7" y="256.5986"/><text fill="#000000" font-family="Arial" font-size="14" lengthAdjust="spacing" textLength="140" x="17" y="279.7305">Customer Onboarding</text><text fill="#000000" font-family="Arial" font-size="14" lengthAdjust="spacing" textLength="52" x="17" y="295.8291">Platform</text><text fill="#000000" font-family="Arial" font-size="14" lengthAdjust="spacing" textLength="162" x="17" y="311.9277">&#171;Application Component&#187;</text></g><!--entity app_party--><g id="elem_app_party"><rect fill="#EAF6E8" height="68.2959" rx="4" ry="4" style="stroke:#333333;stroke-width:0.5;" width="182" x="7" y="359.5986"/><text fill="#000000" font-family="Arial" font-size="14" lengthAdjust="spacing" textLength="126" x="17" y="382.7305">Party and Customer</text><text fill="#000000" font-family="Arial" font-size="14" lengthAdjust="spacing" textLength="52" x="17" y="398.8291">Platform</text><text fill="#000000" font-family="Arial" font-size="14" lengthAdjust="spacing" textLength="162" x="17" y="414.9277">&#171;Application Component&#187;</text></g><!--entity app_integration--><g id="elem_app_integration"><rect fill="#EAF6E8" height="68.2959" rx="4" ry="4" style="stroke:#333333;stroke-width:0.5;" width="182" x="7" y="462.5986"/><text fill="#000000" font-family="Arial" font-size="14" lengthAdjust="spacing" textLength="136" x="17" y="485.7305">Enterprise Integration</text><text fill="#000000" font-family="Arial" font-size="14" lengthAdjust="spacing" textLength="52" x="17" y="501.8291">Platform</text><text fill="#000000" font-family="Arial" font-size="14" lengthAdjust="spacing" textLength="162" x="17" y="517.9277">&#171;Application Component&#187;</text></g><!--entity app_events--><g id="elem_app_events"><rect fill="#EAF6E8" height="52.1973" rx="4" ry="4" style="stroke:#333333;stroke-width:0.5;" width="182" x="7" y="161.5986"/><text fill="#000000" font-family="Arial" font-size="14" lengthAdjust="spacing" textLength="92" x="17" y="184.7305">Event Platform</text><text fill="#000000" font-family="Arial" font-size="14" lengthAdjust="spacing" textLength="162" x="17" y="200.8291">&#171;Application Component&#187;</text></g><!--entity runtime_node--><g id="elem_runtime_node"><rect fill="#F1E8FA" height="68.2959" rx="4" ry="4" style="stroke:#333333;stroke-width:0.5;" width="147" x="704.5" y="256.5986"/><text fill="#000000" font-family="Arial" font-size="14" lengthAdjust="spacing" textLength="125" x="714.5" y="279.7305">Application Runtime</text><text fill="#000000" font-family="Arial" font-size="14" lengthAdjust="spacing" textLength="33" x="714.5" y="295.8291">Node</text><text fill="#000000" font-family="Arial" font-size="14" lengthAdjust="spacing" textLength="127" x="714.5" y="311.9277">&#171;Technology Node&#187;</text></g><!--entity container_sw--><g id="elem_container_sw"><rect fill="#F1E8FA" height="52.1973" rx="4" ry="4" style="stroke:#333333;stroke-width:0.5;" width="141" x="936" y="264.5986"/><text fill="#000000" font-family="Arial" font-size="14" lengthAdjust="spacing" textLength="118" x="946" y="287.7305">Container Platform</text><text fill="#000000" font-family="Arial" font-size="14" lengthAdjust="spacing" textLength="121" x="946" y="303.8291">&#171;System Software&#187;</text></g><!--entity runtime_func--><g id="elem_runtime_func"><rect fill="#F1E8FA" height="68.2959" rx="4" ry="4" style="stroke:#333333;stroke-width:0.5;" width="123" x="488" y="256.5986"/><text fill="#000000" font-family="Arial" font-size="14" lengthAdjust="spacing" textLength="103" x="498" y="279.7305">Runtime Hosting</text><text fill="#000000" font-family="Arial" font-size="14" lengthAdjust="spacing" textLength="55" x="498" y="295.8291">Function</text><text fill="#000000" font-family="Arial" font-size="14" lengthAdjust="spacing" textLength="71" x="498" y="311.9277">&#171;Function&#187;</text></g><!--entity runtime_svc--><g id="elem_runtime_svc"><rect fill="#F1E8FA" height="68.2959" rx="4" ry="4" style="stroke:#333333;stroke-width:0.5;" width="123" x="266" y="256.5986"/><text fill="#000000" font-family="Arial" font-size="14" lengthAdjust="spacing" textLength="103" x="276" y="279.7305">Runtime Hosting</text><text fill="#000000" font-family="Arial" font-size="14" lengthAdjust="spacing" textLength="47" x="276" y="295.8291">Service</text><text fill="#000000" font-family="Arial" font-size="14" lengthAdjust="spacing" textLength="63" x="276" y="311.9277">&#171;Service&#187;</text></g><!--entity data_node--><g id="elem_data_node"><rect fill="#F1E8FA" height="68.2959" rx="4" ry="4" style="stroke:#333333;stroke-width:0.5;" width="147" x="704.5" y="359.5986"/><text fill="#000000" font-family="Arial" font-size="14" lengthAdjust="spacing" textLength="86" x="714.5" y="382.7305">Data Platform</text><text fill="#000000" font-family="Arial" font-size="14" lengthAdjust="spacing" textLength="33" x="714.5" y="398.8291">Node</text><text fill="#000000" font-family="Arial" font-size="14" lengthAdjust="spacing" textLength="127" x="714.5" y="414.9277">&#171;Technology Node&#187;</text></g><!--entity db_sw--><g id="elem_db_sw"><rect fill="#F1E8FA" height="68.2959" rx="4" ry="4" style="stroke:#333333;stroke-width:0.5;" width="167" x="923" y="359.5986"/><text fill="#000000" font-family="Arial" font-size="14" lengthAdjust="spacing" textLength="147" x="933" y="382.7305">Database Management</text><text fill="#000000" font-family="Arial" font-size="14" lengthAdjust="spacing" textLength="46" x="933" y="398.8291">System</text><text fill="#000000" font-family="Arial" font-size="14" lengthAdjust="spacing" textLength="121" x="933" y="414.9277">&#171;System Software&#187;</text></g><!--entity db_func--><g id="elem_db_func"><rect fill="#F1E8FA" height="68.2959" rx="4" ry="4" style="stroke:#333333;stroke-width:0.5;" width="167" x="466" y="359.5986"/><text fill="#000000" font-family="Arial" font-size="14" lengthAdjust="spacing" textLength="147" x="476" y="382.7305">Database Management</text><text fill="#000000" font-family="Arial" font-size="14" lengthAdjust="spacing" textLength="55" x="476" y="398.8291">Function</text><text fill="#000000" font-family="Arial" font-size="14" lengthAdjust="spacing" textLength="71" x="476" y="414.9277">&#171;Function&#187;</text></g><!--entity db_svc--><g id="elem_db_svc"><rect fill="#F1E8FA" height="68.2959" rx="4" ry="4" style="stroke:#333333;stroke-width:0.5;" width="83" x="286" y="359.5986"/><text fill="#000000" font-family="Arial" font-size="14" lengthAdjust="spacing" textLength="61" x="296" y="382.7305">Database</text><text fill="#000000" font-family="Arial" font-size="14" lengthAdjust="spacing" textLength="47" x="296" y="398.8291">Service</text><text fill="#000000" font-family="Arial" font-size="14" lengthAdjust="spacing" textLength="63" x="296" y="414.9277">&#171;Service&#187;</text></g><!--entity integration_node--><g id="elem_integration_node"><rect fill="#F1E8FA" height="68.2959" rx="4" ry="4" style="stroke:#333333;stroke-width:0.5;" width="147" x="704.5" y="462.5986"/><text fill="#000000" font-family="Arial" font-size="14" lengthAdjust="spacing" textLength="123" x="714.5" y="485.7305">Integration Runtime</text><text fill="#000000" font-family="Arial" font-size="14" lengthAdjust="spacing" textLength="33" x="714.5" y="501.8291">Node</text><text fill="#000000" font-family="Arial" font-size="14" lengthAdjust="spacing" textLength="127" x="714.5" y="517.9277">&#171;Technology Node&#187;</text></g><!--entity api_func--><g id="elem_api_func"><rect fill="#F1E8FA" height="68.2959" rx="4" ry="4" style="stroke:#333333;stroke-width:0.5;" width="100" x="499.5" y="462.5986"/><text fill="#000000" font-family="Arial" font-size="14" lengthAdjust="spacing" textLength="80" x="509.5" y="485.7305">API Gateway</text><text fill="#000000" font-family="Arial" font-size="14" lengthAdjust="spacing" textLength="55" x="509.5" y="501.8291">Function</text><text fill="#000000" font-family="Arial" font-size="14" lengthAdjust="spacing" textLength="71" x="509.5" y="517.9277">&#171;Function&#187;</text></g><!--entity api_svc--><g id="elem_api_svc"><rect fill="#F1E8FA" height="68.2959" rx="4" ry="4" style="stroke:#333333;stroke-width:0.5;" width="100" x="277.5" y="462.5986"/><text fill="#000000" font-family="Arial" font-size="14" lengthAdjust="spacing" textLength="80" x="287.5" y="485.7305">API Gateway</text><text fill="#000000" font-family="Arial" font-size="14" lengthAdjust="spacing" textLength="47" x="287.5" y="501.8291">Service</text><text fill="#000000" font-family="Arial" font-size="14" lengthAdjust="spacing" textLength="63" x="287.5" y="517.9277">&#171;Service&#187;</text></g><!--entity msg_func--><g id="elem_msg_func"><rect fill="#F1E8FA" height="68.2959" rx="4" ry="4" style="stroke:#333333;stroke-width:0.5;" width="91" x="504" y="153.5986"/><text fill="#000000" font-family="Arial" font-size="14" lengthAdjust="spacing" textLength="68" x="514" y="176.7305">Messaging</text><text fill="#000000" font-family="Arial" font-size="14" lengthAdjust="spacing" textLength="55" x="514" y="192.8291">Function</text><text fill="#000000" font-family="Arial" font-size="14" lengthAdjust="spacing" textLength="71" x="514" y="208.9277">&#171;Function&#187;</text></g><!--entity msg_svc--><g id="elem_msg_svc"><rect fill="#F1E8FA" height="68.2959" rx="4" ry="4" style="stroke:#333333;stroke-width:0.5;" width="157" x="249" y="153.5986"/><text fill="#000000" font-family="Arial" font-size="14" lengthAdjust="spacing" textLength="137" x="259" y="176.7305">Enterprise Messaging</text><text fill="#000000" font-family="Arial" font-size="14" lengthAdjust="spacing" textLength="47" x="259" y="192.8291">Service</text><text fill="#000000" font-family="Arial" font-size="14" lengthAdjust="spacing" textLength="63" x="259" y="208.9277">&#171;Service&#187;</text></g><!--entity onboarding_art--><g id="elem_onboarding_art"><rect fill="#FFFFFF" height="71.2959" rx="2.5" ry="2.5" style="stroke:#181818;stroke-width:0.5;" width="170" x="693" y="44.0986"/><polygon fill="#FFFFFF" points="846,49.0986,846,63.0986,858,63.0986,858,55.0986,852,49.0986,846,49.0986" style="stroke:#181818;stroke-width:0.5;"/><line style="stroke:#181818;stroke-width:0.5;" x1="852" x2="852" y1="49.0986" y2="55.0986"/><line style="stroke:#181818;stroke-width:0.5;" x1="858" x2="852" y1="55.0986" y2="55.0986"/><text fill="#000000" font-family="Arial" font-size="14" lengthAdjust="spacing" textLength="140" x="703" y="70.2305">Customer Onboarding</text><text fill="#000000" font-family="Arial" font-size="14" lengthAdjust="spacing" textLength="106" x="703" y="86.3291">Service Package</text><text fill="#000000" font-family="Arial" font-size="14" lengthAdjust="spacing" textLength="60" x="703" y="102.4277">&#171;Artifact&#187;</text></g><!--entity profile_art--><g id="elem_profile_art"><rect fill="#FFFFFF" height="71.2959" rx="2.5" ry="2.5" style="stroke:#181818;stroke-width:0.5;" width="136" x="710" y="150.0986"/><polygon fill="#FFFFFF" points="829,155.0986,829,169.0986,841,169.0986,841,161.0986,835,155.0986,829,155.0986" style="stroke:#181818;stroke-width:0.5;"/><line style="stroke:#181818;stroke-width:0.5;" x1="835" x2="835" y1="155.0986" y2="161.0986"/><line style="stroke:#181818;stroke-width:0.5;" x1="841" x2="835" y1="161.0986" y2="161.0986"/><text fill="#000000" font-family="Arial" font-size="14" lengthAdjust="spacing" textLength="105" x="720" y="176.2305">Customer Profile</text><text fill="#000000" font-family="Arial" font-size="14" lengthAdjust="spacing" textLength="106" x="720" y="192.3291">Service Package</text><text fill="#000000" font-family="Arial" font-size="14" lengthAdjust="spacing" textLength="60" x="720" y="208.4277">&#171;Artifact&#187;</text></g><!--reverse link runtime_func to runtime_node--><g id="link_runtime_func_runtime_node"><path d="M617.03,301.9286 C645.72,301.9286 674.08,301.9286 704.15,301.9286 " fill="none" id="runtime_func-backto-runtime_node" style="stroke:#333333;stroke-width:1.2;"/><polygon fill="#333333" points="611.03,301.9286,620.03,305.9286,616.03,301.9286,620.03,297.9286,611.03,301.9286" style="stroke:#333333;stroke-width:1.2;"/><text fill="#000000" font-family="Arial" font-size="14" lengthAdjust="spacing" textLength="9" x="647.59" y="316.0605">A</text></g><!--reverse link runtime_svc to runtime_func--><g id="link_runtime_svc_runtime_func"><path d="M395.04,290.5986 C425.84,290.5986 457.02,290.5986 487.84,290.5986 " fill="none" id="runtime_svc-backto-runtime_func" style="stroke:#333333;stroke-width:1.2;"/><polygon fill="#333333" points="389.04,290.5986,398.04,294.5986,394.04,290.5986,398.04,286.5986,389.04,290.5986" style="stroke:#333333;stroke-width:1.2;"/><text fill="#000000" font-family="Arial" font-size="14" lengthAdjust="spacing" textLength="10" x="427.44" y="304.7305">R</text></g><!--reverse link app_onboarding to runtime_svc--><g id="link_app_onboarding_runtime_svc"><path d="M195.03,290.5986 C220.81,290.5986 242.26,290.5986 265.87,290.5986 " fill="none" id="app_onboarding-backto-runtime_svc" style="stroke:#333333;stroke-width:1.2;"/><polygon fill="#333333" points="189.03,290.5986,198.03,294.5986,194.03,290.5986,198.03,286.5986,189.03,290.5986" style="stroke:#333333;stroke-width:1.2;"/><text fill="#000000" font-family="Arial" font-size="14" lengthAdjust="spacing" textLength="9" x="217.45" y="304.7305">S</text></g><!--reverse link app_party to runtime_svc--><g id="link_app_party_runtime_svc"><path d="M195.08,382.2686 C237.18,382.2686 272,382.2686 272,382.2686 C272,382.2686 272,350.7986 272,324.7286 " fill="none" id="app_party-backto-runtime_svc" style="stroke:#333333;stroke-width:1.2;"/><polygon fill="#333333" points="189.08,382.2686,198.08,386.2686,194.08,382.2686,198.08,378.2686,189.08,382.2686" style="stroke:#333333;stroke-width:1.2;"/><text fill="#000000" font-family="Arial" font-size="14" lengthAdjust="spacing" textLength="9" x="249.31" y="396.4005">S</text></g><!--link runtime_node to container_sw--><g id="link_runtime_node_container_sw"><path d="M851.56,290.5986 C878.56,290.5986 903.06,290.5986 929.81,290.5986 " fill="none" id="runtime_node-to-container_sw" style="stroke:#333333;stroke-width:1.2;"/><polygon fill="#333333" points="935.81,290.5986,926.81,286.5986,930.81,290.5986,926.81,294.5986,935.81,290.5986" style="stroke:#333333;stroke-width:1.2;"/><text fill="#000000" font-family="Arial" font-size="14" lengthAdjust="spacing" textLength="10" x="882.68" y="304.7305">C</text></g><!--reverse link db_func to data_node--><g id="link_db_func_data_node"><path d="M639.29,393.5986 C662.6,393.5986 681.73,393.5986 704.41,393.5986 " fill="none" id="db_func-backto-data_node" style="stroke:#333333;stroke-width:1.2;"/><polygon fill="#333333" points="633.29,393.5986,642.29,397.5986,638.29,393.5986,642.29,389.5986,633.29,393.5986" style="stroke:#333333;stroke-width:1.2;"/><text fill="#000000" font-family="Arial" font-size="14" lengthAdjust="spacing" textLength="9" x="658.85" y="407.7305">A</text></g><!--reverse link db_svc to db_func--><g id="link_db_svc_db_func"><path d="M375.26,393.5986 C402.39,393.5986 432.7,393.5986 465.63,393.5986 " fill="none" id="db_svc-backto-db_func" style="stroke:#333333;stroke-width:1.2;"/><polygon fill="#333333" points="369.26,393.5986,378.26,397.5986,374.26,393.5986,378.26,389.5986,369.26,393.5986" style="stroke:#333333;stroke-width:1.2;"/><text fill="#000000" font-family="Arial" font-size="14" lengthAdjust="spacing" textLength="10" x="406.44" y="407.7305">R</text></g><!--reverse link app_party to db_svc--><g id="link_app_party_db_svc"><path d="M195.03,404.9286 C228.57,404.9286 258.94,404.9286 285.98,404.9286 " fill="none" id="app_party-backto-db_svc" style="stroke:#333333;stroke-width:1.2;"/><polygon fill="#333333" points="189.03,404.9286,198.03,408.9286,194.03,404.9286,198.03,400.9286,189.03,404.9286" style="stroke:#333333;stroke-width:1.2;"/><text fill="#000000" font-family="Arial" font-size="14" lengthAdjust="spacing" textLength="9" x="227.51" y="419.0605">S</text></g><!--link data_node to db_sw--><g id="link_data_node_db_sw"><path d="M851.56,393.5986 C874.26,393.5986 893.42,393.5986 916.76,393.5986 " fill="none" id="data_node-to-db_sw" style="stroke:#333333;stroke-width:1.2;"/><polygon fill="#333333" points="922.76,393.5986,913.76,389.5986,917.76,393.5986,913.76,397.5986,922.76,393.5986" style="stroke:#333333;stroke-width:1.2;"/><text fill="#000000" font-family="Arial" font-size="14" lengthAdjust="spacing" textLength="10" x="876.16" y="407.7305">C</text></g><!--reverse link api_func to integration_node--><g id="link_api_func_integration_node"><path d="M605.65,496.5986 C636.26,496.5986 669.94,496.5986 704.1,496.5986 " fill="none" id="api_func-backto-integration_node" style="stroke:#333333;stroke-width:1.2;"/><polygon fill="#333333" points="599.65,496.5986,608.65,500.5986,604.65,496.5986,608.65,492.5986,599.65,496.5986" style="stroke:#333333;stroke-width:1.2;"/><text fill="#000000" font-family="Arial" font-size="14" lengthAdjust="spacing" textLength="9" x="641.88" y="510.7305">A</text></g><!--reverse link api_svc to api_func--><g id="link_api_svc_api_func"><path d="M383.6,496.5986 C419.92,496.5986 462.84,496.5986 499.2,496.5986 " fill="none" id="api_svc-backto-api_func" style="stroke:#333333;stroke-width:1.2;"/><polygon fill="#333333" points="377.6,496.5986,386.6,500.5986,382.6,496.5986,386.6,492.5986,377.6,496.5986" style="stroke:#333333;stroke-width:1.2;"/><text fill="#000000" font-family="Arial" font-size="14" lengthAdjust="spacing" textLength="10" x="427.4" y="510.7305">R</text></g><!--reverse link app_integration to api_svc--><g id="link_app_integration_api_svc"><path d="M195.03,496.5986 C225.07,496.5986 251.37,496.5986 277.22,496.5986 " fill="none" id="app_integration-backto-api_svc" style="stroke:#333333;stroke-width:1.2;"/><polygon fill="#333333" points="189.03,496.5986,198.03,500.5986,194.03,496.5986,198.03,492.5986,189.03,496.5986" style="stroke:#333333;stroke-width:1.2;"/><text fill="#000000" font-family="Arial" font-size="14" lengthAdjust="spacing" textLength="9" x="223.12" y="510.7305">S</text></g><!--reverse link msg_func to runtime_node--><g id="link_msg_func_runtime_node"><path d="M601,187.3486 C615.57,187.3486 622,187.3486 622,187.3486 C622,187.3486 622,279.2686 622,279.2686 C622,279.2686 663.79,279.2686 704.11,279.2686 " fill="none" id="msg_func-backto-runtime_node" style="stroke:#333333;stroke-width:1.2;"/><polygon fill="#333333" points="595,187.3486,604,191.3486,600,187.3486,604,183.3486,595,187.3486" style="stroke:#333333;stroke-width:1.2;"/><text fill="#000000" font-family="Arial" font-size="14" lengthAdjust="spacing" textLength="9" x="612" y="275.0005">A</text></g><!--reverse link msg_svc to msg_func--><g id="link_msg_svc_msg_func"><path d="M412.08,187.5986 C444.76,187.5986 475.55,187.5986 503.69,187.5986 " fill="none" id="msg_svc-backto-msg_func" style="stroke:#333333;stroke-width:1.2;"/><polygon fill="#333333" points="406.08,187.5986,415.08,191.5986,411.08,187.5986,415.08,183.5986,406.08,187.5986" style="stroke:#333333;stroke-width:1.2;"/><text fill="#000000" font-family="Arial" font-size="14" lengthAdjust="spacing" textLength="10" x="443.88" y="201.7305">R</text></g><!--reverse link app_events to msg_svc--><g id="link_app_events_msg_svc"><path d="M195.03,187.5986 C214.81,187.5986 229.56,187.5986 248.81,187.5986 " fill="none" id="app_events-backto-msg_svc" style="stroke:#333333;stroke-width:1.2;"/><polygon fill="#333333" points="189.03,187.5986,198.03,191.5986,194.03,187.5986,198.03,183.5986,189.03,187.5986" style="stroke:#333333;stroke-width:1.2;"/><text fill="#000000" font-family="Arial" font-size="14" lengthAdjust="spacing" textLength="9" x="208.92" y="201.7305">S</text></g><!--link onboarding_art to runtime_node--><g id="link_onboarding_art_runtime_node"><path d="M858,115.3586 C858,168.1086 858,260.5986 858,260.5986 C858,260.5986 861.64,260.5986 857.72,260.5986 " fill="none" id="onboarding_art-to-runtime_node" style="stroke:#333333;stroke-width:1.2;"/><polygon fill="#333333" points="851.72,260.5986,860.72,264.5986,856.72,260.5986,860.72,256.5986,851.72,260.5986" style="stroke:#333333;stroke-width:1.2;"/><text fill="#000000" font-family="Arial" font-size="14" lengthAdjust="spacing" textLength="10" x="847" y="205.2505">D</text></g><!--link profile_art to runtime_node--><g id="link_profile_art_runtime_node"><path d="M778,221.1486 C778,232.5686 778,239.1886 778,250.5086 " fill="none" id="profile_art-to-runtime_node" style="stroke:#333333;stroke-width:1.2;"/><polygon fill="#333333" points="778,256.5086,782,247.5086,778,251.5086,774,247.5086,778,256.5086" style="stroke:#333333;stroke-width:1.2;"/><text fill="#000000" font-family="Arial" font-size="14" lengthAdjust="spacing" textLength="10" x="767" y="234.9605">D</text></g><!--link runtime_node to data_node--><!--link data_node to integration_node--><rect fill="none" height="106.5918" id="_legend" rx="7.5" ry="7.5" style="stroke:#000000;stroke-width:1.0;" width="463" x="607" y="547.8945"/><text fill="#000000" font-family="Arial" font-size="14" lengthAdjust="spacing" textLength="287" x="612" y="566.0264">A = Assignment. R = Realisation. S = Serving.</text><text fill="#000000" font-family="Arial" font-size="14" lengthAdjust="spacing" textLength="217" x="612" y="582.125">C = Composition. D = Deployment.</text><text fill="#000000" font-family="Arial" font-size="14" lengthAdjust="spacing" textLength="319" x="612" y="598.2236">Technology Node -&gt; Function -&gt; Service is explicit.</text><text fill="#000000" font-family="Arial" font-size="14" lengthAdjust="spacing" textLength="402" x="612" y="614.3223">System Software is shown where the node environment matters.</text><text fill="#000000" font-family="Arial" font-size="14" lengthAdjust="spacing" textLength="218" x="612" y="630.4209">Artifacts are deployable packages.</text><text fill="#000000" font-family="Arial" font-size="14" lengthAdjust="spacing" textLength="453" x="612" y="646.5195">Managed capability is modelled as a Service unless node detail matters.</text><!--SRC=[bPPVRzem4C3VyobkxJEqawQjGgmIWzBreHk2lQqJCea9LXtRiWsCJVlkEpinSJB2MiI3_zpzxdo-E-SD4odVPXJw_Ily6tlWr5mfJeJT5hndDxIWVON39B7CSWhJX_lUzOVUzRi-V9QQ_P82FX7n39Qc6o6vp0-mOtIV9EQP2KKqAO0pGUr1KP3QRcIqeMbgYSYH-Zi1cCkjoCPI2whX9lcJ99okBLW9ckKR2nbpuaoA9AdrBiPROsM16b_5IXATCP4_YHadTYrryII6mv5IdAN4AS9O5aeAAkpjxGKG0qIffJpgmUNTQFh-xYR6puYs1o0YWs3eTNJbzK-0xuIbMcbcA3pWCDUUyJeugnLFcjYXEBm6I9s6ER9YMAmwtmhB2lealiYCEkwt-kxTKaNKfTXIu19SJj_UtKn7ZQkJmXBcRZlsSN4mbXQma6kx9pgmqY2xDFjJhCebJ4bZVGfCjo8j8peSXd7BhpKkluYre7h7Kd_IQjWYcLqDYaaJOabqkFFXob2uCrQEj2AOB8z4a1nhKbZqouUgEsZPgYDQ9sbd8eQWhc05r9aeEJSw0XIb_akpAahwpcYDPWzmJopTayFPSn75EW_MO7IUpH6w3lT8ZI7v_xAnC7cd3r6JY62TpZXKmnbiFcnDKjlH9Yjjc97q6TF0TuXAeoBMpN69B0JxtodkJCiru_GbK5MADeX9erdqjgftswpJ0OoIna9JnXrx0FCadfSIhHu_W4M7KDcgu_tIbqpk1OeqEj00nabI5sm92LNYN0tZuqvmi1gUCXlnAfjb0NjZ_wHz8B3Qw75IxmMpOLpRZHyFP_tK3Hnpqz6FatelqCEufbSlYGUtagZdd_Fexhp10KoIE36wfLgEVj-mBAFYHv0_HZ6EPrke7KtthP5JVEMz07wBZE0ZZ8nXkN3DiGzpdCyfuSnufJuiSC6dkiZxA3_6gNzH3Ilt9xWmeOhBWmUWIAkT0ReHMe4RXxfX1kXFzzOohzNgx6xRR30xOB-XECNlC_17f6B7jFJUGa4izWtZr4FfOQT2wSmxH5ROMrHPdbweV0KoI8aYAyOPvYEQAH3BEIwxDdTqRolm-z2KDZEA5S5hSnZ0Cen_0G00]--></g></svg>