<?xml version="1.0" encoding="us-ascii" standalone="no"?><svg xmlns="http://www.w3.org/2000/svg" xmlns:xlink="http://www.w3.org/1999/xlink" contentStyleType="text/css" height="708px" preserveAspectRatio="none" style="width:824px;height:708px;background:#FFFFFF;" version="1.1" viewBox="0 0 824 708" width="824px" zoomAndPan="magnify"><defs/><g><text fill="#000000" font-family="Arial" font-size="14" font-weight="bold" lengthAdjust="spacing" textLength="464" x="178.5" y="33.1318">FIG-20-01. Choosing the Right Infrastructure and Deployment View</text><rect fill="#F1F1F1" height="52.1973" rx="12.5" ry="12.5" style="stroke:#181818;stroke-width:1.5;" width="149" x="10" y="345.8877"/><text fill="#000000" font-family="Arial" font-size="14" lengthAdjust="spacing" textLength="82" x="20" y="369.0195">Start with the</text><text fill="#000000" font-family="Arial" font-size="14" lengthAdjust="spacing" textLength="129" x="20" y="385.1182">operational question</text><rect fill="#F1F1F1" height="36.0986" rx="12.5" ry="12.5" style="stroke:#181818;stroke-width:1.5;" width="141" x="209" y="65.1479"/><text fill="#000000" font-family="Arial" font-size="14" lengthAdjust="spacing" textLength="121" x="219" y="88.2798">Runtime placement</text><rect fill="#F1F1F1" height="36.0986" rx="12.5" ry="12.5" style="stroke:#181818;stroke-width:1.5;" width="135" x="400" y="65.1479"/><text fill="#000000" font-family="Arial" font-size="14" lengthAdjust="spacing" textLength="115" x="410" y="88.2798">What runs where?</text><rect fill="#F1F1F1" height="52.1973" rx="12.5" ry="12.5" style="stroke:#181818;stroke-width:1.5;" width="124" x="585" y="57.0986"/><text fill="#000000" font-family="Arial" font-size="14" lengthAdjust="spacing" textLength="67" x="595" y="80.2305">UML or C4</text><text fill="#000000" font-family="Arial" font-size="14" lengthAdjust="spacing" textLength="104" x="595" y="96.3291">deployment view</text><path d="M535,83.1973 L545,83.1973 C560,83.1973 560,83.1973 575,83.1973 L585,83.1973 " fill="none" style="stroke:#333333;stroke-width:1.0;"/><path d="M350,83.1973 L360,83.1973 C375,83.1973 375,83.1973 390,83.1973 L400,83.1973 " fill="none" style="stroke:#333333;stroke-width:1.0;"/><path d="M159,371.9863 L169,371.9863 C184,371.9863 184,83.1973 199,83.1973 L209,83.1973 " fill="none" style="stroke:#333333;stroke-width:1.0;"/><rect fill="#F1F1F1" height="36.0986" rx="12.5" ry="12.5" style="stroke:#181818;stroke-width:1.5;" width="97" x="209" y="137.3452"/><text fill="#000000" font-family="Arial" font-size="14" lengthAdjust="spacing" textLength="77" x="219" y="160.4771">Connectivity</text><rect fill="#F1F1F1" height="52.1973" rx="12.5" ry="12.5" style="stroke:#181818;stroke-width:1.5;" width="146" x="356" y="129.2959"/><text fill="#000000" font-family="Arial" font-size="14" lengthAdjust="spacing" textLength="108" x="366" y="152.4277">Which zones and</text><text fill="#000000" font-family="Arial" font-size="14" lengthAdjust="spacing" textLength="126" x="366" y="168.5264">traffic paths matter?</text><rect fill="#F1F1F1" height="36.0986" rx="12.5" ry="12.5" style="stroke:#181818;stroke-width:1.5;" width="128" x="552" y="137.3452"/><text fill="#000000" font-family="Arial" font-size="14" lengthAdjust="spacing" textLength="108" x="562" y="160.4771">Network topology</text><path d="M502,155.3945 L512,155.3945 C527,155.3945 527,155.3945 542,155.3945 L552,155.3945 " fill="none" style="stroke:#333333;stroke-width:1.0;"/><path d="M306,155.3945 L316,155.3945 C331,155.3945 331,155.3945 346,155.3945 L356,155.3945 " fill="none" style="stroke:#333333;stroke-width:1.0;"/><path d="M159,371.9863 L169,371.9863 C184,371.9863 184,155.3945 199,155.3945 L209,155.3945 " fill="none" style="stroke:#333333;stroke-width:1.0;"/><rect fill="#F1F1F1" height="36.0986" rx="12.5" ry="12.5" style="stroke:#181818;stroke-width:1.5;" width="143" x="209" y="209.5425"/><text fill="#000000" font-family="Arial" font-size="14" lengthAdjust="spacing" textLength="123" x="219" y="232.6743">Cloud responsibility</text><rect fill="#F1F1F1" height="52.1973" rx="12.5" ry="12.5" style="stroke:#181818;stroke-width:1.5;" width="193" x="402" y="201.4932"/><text fill="#000000" font-family="Arial" font-size="14" lengthAdjust="spacing" textLength="133" x="412" y="224.625">Which cloud services</text><text fill="#000000" font-family="Arial" font-size="14" lengthAdjust="spacing" textLength="173" x="412" y="240.7236">and responsibilities matter?</text><rect fill="#F1F1F1" height="36.0986" rx="12.5" ry="12.5" style="stroke:#181818;stroke-width:1.5;" width="167" x="645" y="209.5425"/><text fill="#000000" font-family="Arial" font-size="14" lengthAdjust="spacing" textLength="147" x="655" y="232.6743">Cloud architecture view</text><path d="M595,227.5918 L605,227.5918 C620,227.5918 620,227.5918 635,227.5918 L645,227.5918 " fill="none" style="stroke:#333333;stroke-width:1.0;"/><path d="M352,227.5918 L362,227.5918 C377,227.5918 377,227.5918 392,227.5918 L402,227.5918 " fill="none" style="stroke:#333333;stroke-width:1.0;"/><path d="M159,371.9863 L169,371.9863 C184,371.9863 184,227.5918 199,227.5918 L209,227.5918 " fill="none" style="stroke:#333333;stroke-width:1.0;"/><rect fill="#F1F1F1" height="36.0986" rx="12.5" ry="12.5" style="stroke:#181818;stroke-width:1.5;" width="125" x="209" y="281.7397"/><text fill="#000000" font-family="Arial" font-size="14" lengthAdjust="spacing" textLength="105" x="219" y="304.8716">Cluster workload</text><rect fill="#F1F1F1" height="52.1973" rx="12.5" ry="12.5" style="stroke:#181818;stroke-width:1.5;" width="203" x="384" y="273.6904"/><text fill="#000000" font-family="Arial" font-size="14" lengthAdjust="spacing" textLength="183" x="394" y="296.8223">Which Kubernetes resources</text><text fill="#000000" font-family="Arial" font-size="14" lengthAdjust="spacing" textLength="178" x="394" y="312.9209">run and connect workloads?</text><rect fill="#F1F1F1" height="52.1973" rx="12.5" ry="12.5" style="stroke:#181818;stroke-width:1.5;" width="124" x="637" y="273.6904"/><text fill="#000000" font-family="Arial" font-size="14" lengthAdjust="spacing" textLength="73" x="647" y="296.8223">Kubernetes</text><text fill="#000000" font-family="Arial" font-size="14" lengthAdjust="spacing" textLength="104" x="647" y="312.9209">deployment view</text><path d="M587,299.7891 L597,299.7891 C612,299.7891 612,299.7891 627,299.7891 L637,299.7891 " fill="none" style="stroke:#333333;stroke-width:1.0;"/><path d="M334,299.7891 L344,299.7891 C359,299.7891 359,299.7891 374,299.7891 L384,299.7891 " fill="none" style="stroke:#333333;stroke-width:1.0;"/><path d="M159,371.9863 L169,371.9863 C184,371.9863 184,299.7891 199,299.7891 L209,299.7891 " fill="none" style="stroke:#333333;stroke-width:1.0;"/><rect fill="#F1F1F1" height="36.0986" rx="12.5" ry="12.5" style="stroke:#181818;stroke-width:1.5;" width="99" x="209" y="353.937"/><text fill="#000000" font-family="Arial" font-size="14" lengthAdjust="spacing" textLength="79" x="219" y="377.0688">Environment</text><rect fill="#F1F1F1" height="52.1973" rx="12.5" ry="12.5" style="stroke:#181818;stroke-width:1.5;" width="200" x="358" y="345.8877"/><text fill="#000000" font-family="Arial" font-size="14" lengthAdjust="spacing" textLength="180" x="368" y="369.0195">What is deliberately different</text><text fill="#000000" font-family="Arial" font-size="14" lengthAdjust="spacing" textLength="150" x="368" y="385.1182">between environments?</text><rect fill="#F1F1F1" height="52.1973" rx="12.5" ry="12.5" style="stroke:#181818;stroke-width:1.5;" width="134" x="608" y="345.8877"/><text fill="#000000" font-family="Arial" font-size="14" lengthAdjust="spacing" textLength="79" x="618" y="369.0195">Environment</text><text fill="#000000" font-family="Arial" font-size="14" lengthAdjust="spacing" textLength="114" x="618" y="385.1182">comparison matrix</text><path d="M558,371.9863 L568,371.9863 C583,371.9863 583,371.9863 598,371.9863 L608,371.9863 " fill="none" style="stroke:#333333;stroke-width:1.0;"/><path d="M308,371.9863 L318,371.9863 C333,371.9863 333,371.9863 348,371.9863 L358,371.9863 " fill="none" style="stroke:#333333;stroke-width:1.0;"/><path d="M159,371.9863 L169,371.9863 C184,371.9863 184,371.9863 199,371.9863 L209,371.9863 " fill="none" style="stroke:#333333;stroke-width:1.0;"/><rect fill="#F1F1F1" height="36.0986" rx="12.5" ry="12.5" style="stroke:#181818;stroke-width:1.5;" width="83" x="209" y="462.2329"/><text fill="#000000" font-family="Arial" font-size="14" lengthAdjust="spacing" textLength="63" x="219" y="485.3647">Continuity</text><rect fill="#F1F1F1" height="52.1973" rx="12.5" ry="12.5" style="stroke:#181818;stroke-width:1.5;" width="188" x="342" y="418.085"/><text fill="#000000" font-family="Arial" font-size="14" lengthAdjust="spacing" textLength="168" x="352" y="441.2168">How does service continue</text><text fill="#000000" font-family="Arial" font-size="14" lengthAdjust="spacing" textLength="161" x="352" y="457.3154">through expected failure?</text><rect fill="#F1F1F1" height="52.1973" rx="12.5" ry="12.5" style="stroke:#181818;stroke-width:1.5;" width="111" x="580" y="418.085"/><text fill="#000000" font-family="Arial" font-size="14" lengthAdjust="spacing" textLength="83" x="590" y="441.2168">Availability or</text><text fill="#000000" font-family="Arial" font-size="14" lengthAdjust="spacing" textLength="91" x="590" y="457.3154">resilience view</text><path d="M530,444.1836 L540,444.1836 C555,444.1836 555,444.1836 570,444.1836 L580,444.1836 " fill="none" style="stroke:#333333;stroke-width:1.0;"/><path d="M292,480.2822 L302,480.2822 C317,480.2822 317,444.1836 332,444.1836 L342,444.1836 " fill="none" style="stroke:#333333;stroke-width:1.0;"/><rect fill="#F1F1F1" height="52.1973" rx="12.5" ry="12.5" style="stroke:#181818;stroke-width:1.5;" width="173" x="342" y="490.2822"/><text fill="#000000" font-family="Arial" font-size="14" lengthAdjust="spacing" textLength="146" x="352" y="513.4141">How is service restored</text><text fill="#000000" font-family="Arial" font-size="14" lengthAdjust="spacing" textLength="153" x="352" y="529.5127">after serious disruption?</text><rect fill="#F1F1F1" height="36.0986" rx="12.5" ry="12.5" style="stroke:#181818;stroke-width:1.5;" width="111" x="565" y="498.3315"/><text fill="#000000" font-family="Arial" font-size="14" lengthAdjust="spacing" textLength="91" x="575" y="521.4634">Recovery view</text><path d="M515,516.3809 L525,516.3809 C540,516.3809 540,516.3809 555,516.3809 L565,516.3809 " fill="none" style="stroke:#333333;stroke-width:1.0;"/><path d="M292,480.2822 L302,480.2822 C317,480.2822 317,516.3809 332,516.3809 L342,516.3809 " fill="none" style="stroke:#333333;stroke-width:1.0;"/><path d="M159,371.9863 L169,371.9863 C184,371.9863 184,480.2822 199,480.2822 L209,480.2822 " fill="none" style="stroke:#333333;stroke-width:1.0;"/><rect fill="#F1F1F1" height="36.0986" rx="12.5" ry="12.5" style="stroke:#181818;stroke-width:1.5;" width="90" x="209" y="570.5288"/><text fill="#000000" font-family="Arial" font-size="14" lengthAdjust="spacing" textLength="70" x="219" y="593.6606">Operations</text><rect fill="#F1F1F1" height="52.1973" rx="12.5" ry="12.5" style="stroke:#181818;stroke-width:1.5;" width="126" x="349" y="562.4795"/><text fill="#000000" font-family="Arial" font-size="14" lengthAdjust="spacing" textLength="106" x="359" y="585.6113">Who knows, acts</text><text fill="#000000" font-family="Arial" font-size="14" lengthAdjust="spacing" textLength="96" x="359" y="601.71">and escalates?</text><rect fill="#F1F1F1" height="52.1973" rx="12.5" ry="12.5" style="stroke:#181818;stroke-width:1.5;" width="145" x="525" y="562.4795"/><text fill="#000000" font-family="Arial" font-size="14" lengthAdjust="spacing" textLength="125" x="535" y="585.6113">Ownership matrix or</text><text fill="#000000" font-family="Arial" font-size="14" lengthAdjust="spacing" textLength="110" x="535" y="601.71">observability view</text><path d="M475,588.5781 L485,588.5781 C500,588.5781 500,588.5781 515,588.5781 L525,588.5781 " fill="none" style="stroke:#333333;stroke-width:1.0;"/><path d="M299,588.5781 L309,588.5781 C324,588.5781 324,588.5781 339,588.5781 L349,588.5781 " fill="none" style="stroke:#333333;stroke-width:1.0;"/><path d="M159,371.9863 L169,371.9863 C184,371.9863 184,588.5781 199,588.5781 L209,588.5781 " fill="none" style="stroke:#333333;stroke-width:1.0;"/><rect fill="#F1F1F1" height="36.0986" rx="12.5" ry="12.5" style="stroke:#181818;stroke-width:1.5;" width="101" x="209" y="642.7261"/><text fill="#000000" font-family="Arial" font-size="14" lengthAdjust="spacing" textLength="81" x="219" y="665.8579">Still unclear?</text><rect fill="#F1F1F1" height="52.1973" rx="12.5" ry="12.5" style="stroke:#181818;stroke-width:1.5;" width="194" x="360" y="634.6768"/><text fill="#000000" font-family="Arial" font-size="14" lengthAdjust="spacing" textLength="174" x="370" y="657.8086">Clarify audience, boundary,</text><text fill="#000000" font-family="Arial" font-size="14" lengthAdjust="spacing" textLength="162" x="370" y="673.9072">environment and decision</text><rect fill="#F1F1F1" height="52.1973" rx="12.5" ry="12.5" style="stroke:#181818;stroke-width:1.5;" width="193" x="604" y="634.6768"/><text fill="#000000" font-family="Arial" font-size="14" lengthAdjust="spacing" textLength="135" x="614" y="657.8086">Do not choose a view</text><text fill="#000000" font-family="Arial" font-size="14" lengthAdjust="spacing" textLength="173" x="614" y="673.9072">until the question is specific</text><path d="M554,660.7754 L564,660.7754 C579,660.7754 579,660.7754 594,660.7754 L604,660.7754 " fill="none" style="stroke:#333333;stroke-width:1.0;"/><path d="M310,660.7754 L320,660.7754 C335,660.7754 335,660.7754 350,660.7754 L360,660.7754 " fill="none" style="stroke:#333333;stroke-width:1.0;"/><path d="M159,371.9863 L169,371.9863 C184,371.9863 184,660.7754 199,660.7754 L209,660.7754 " fill="none" style="stroke:#333333;stroke-width:1.0;"/><!--SRC=[xPHDSzj638Rl_1MOwQ69njP8ifA3BhKhLsuSEyvOZNlHPRa4HOnNM7O_A2k_FbYI-d0dVw1JyoAHkmli- -05BdrGBco8Yusgiq3182m-tPnFHkUZyH3cbRMUU0sXGdYaTHNW4vTE-U2Y3j4XA2xW6cjZTnla04-4sym_4zVAgGtaIZ-ldOrSpAsn3dvPjC_9ZW9B5KrOM0vVr0RXof4oFrzVqdU4yVHaqLUgiDjqlr8PZoShLyxPRP_pedsoN-71qPfO6SXHVXaTU3Ie0rc6TQG29PkZ1WiedTs8U5K7sJGP3UNmFIfEcSY3LiwHxCft4F0bd07R05gIHJVC1h1CI65BeKhOLcnhT2ebaSp_HFJfRpOOm6FaG2AvDafZeYSV1_1tfGAuo1ws5JhyBNqSmBVxEn0jy-cAYoFj9j6MrRaLDQAZeR3hWv2kuBjbzAb2AmvEbILfg5MeF6nK465zw2yOjjOzGx2rI5Zlse2YfG27lhRiAIVpEh1kbpswXZJw5ISJlDfC-AyaNK3bT4K1E-SSBc-YJvZJ9OnLnKcUpp57nnWaceGNl6qsWTFQJdUg3mTzd-juwgUm_k26dENNmAMg1HhAKwNGxA2WiXJw75QS2nz41ZoUssSw2RLYRJVYFV9Y9f7kwAMlJ22EUtn_sYqKLkJqx9A6j2uk2PNqoRe2VAb5LFAW8XCF1hXgv5LrbH0d20NqyeAi3oIxy7GCBbk2TIZbLsLetUx8Hb5AtiKwsR0F_eZQDkXs1qOFUylw7f65PxPRVmPAXxxWwBKoGciFus4h7UKhgdlvxIrjdYwpl_S-_3AGCH1P6rITGyG5mgxSWOf5A-eCyZGsbDkThVW4VLlv0ZNvhelawBNj6Z3DAXb8RPOLf-OoxTpQzroBHk2ID49sYJBo-h6NNVv_fk3RU7eRJs_ZwRyrdhuQnI6rc418SM4yd8mcq-75kuKZM60EuuymkfXDHxFH1rZU_0Lf-NtsxkRhNJE1pfa9g-ZEOyhrFhjLZTgt-2m1vTlhpuUUFpNXxTFzSSF7wVdl560frAHYJ_VPTJUPv8IsXSoW6SphyUJ39BjJl8vgBS6Hixd02cutWs_B7m00]--></g></svg>