<?xml version="1.0" encoding="us-ascii" standalone="no"?><svg xmlns="http://www.w3.org/2000/svg" xmlns:xlink="http://www.w3.org/1999/xlink" contentStyleType="text/css" height="763px" preserveAspectRatio="none" style="width:1057px;height:763px;background:#FFFFFF;" version="1.1" viewBox="0 0 1057 763" width="1057px" zoomAndPan="magnify"><defs/><g><text fill="#000000" font-family="Arial" font-size="14" font-weight="bold" lengthAdjust="spacing" textLength="419" x="312.385" y="23.1318">FIG-04-03. Online Store Order Handling Component Diagram</text><!--cluster Online Store order handling--><g id="cluster_Online Store order handling"><path d="M108.77,101.0986 L305.77,101.0986 A3.75,3.75 0 0 1 308.27,103.5986 L315.27,123.1973 L1048.27,123.1973 A2.5,2.5 0 0 1 1050.77,125.6973 L1050.77,438.5986 A2.5,2.5 0 0 1 1048.27,441.0986 L108.77,441.0986 A2.5,2.5 0 0 1 106.27,438.5986 L106.27,103.5986 A2.5,2.5 0 0 1 108.77,101.0986 " fill="none" style="stroke:#000000;stroke-width:1.5;"/><line style="stroke:#000000;stroke-width:1.5;" x1="106.27" x2="315.27" y1="123.1973" y2="123.1973"/><text fill="#000000" font-family="Arial" font-size="14" font-weight="bold" lengthAdjust="spacing" textLength="196" x="110.27" y="116.2305">Online Store order handling</text></g><!--entity Web--><g id="elem_Web"><rect fill="#F7F9FB" height="46.0986" rx="2.5" ry="2.5" style="stroke:#333333;stroke-width:0.5;" width="142" x="128.77" y="298.0986"/><rect fill="#F7F9FB" height="10" style="stroke:#333333;stroke-width:0.5;" width="15" x="250.77" y="303.0986"/><rect fill="#F7F9FB" height="2" style="stroke:#333333;stroke-width:0.5;" width="4" x="248.77" y="305.0986"/><rect fill="#F7F9FB" height="2" style="stroke:#333333;stroke-width:0.5;" width="4" x="248.77" y="309.0986"/><text fill="#000000" font-family="Arial" font-size="14" lengthAdjust="spacing" textLength="102" x="143.77" y="331.2305">Web Application</text></g><!--entity OrderApi--><g id="elem_OrderApi"><rect fill="#F7F9FB" height="46.0986" rx="2.5" ry="2.5" style="stroke:#333333;stroke-width:0.5;" width="102" x="148.77" y="217.0986"/><rect fill="#F7F9FB" height="10" style="stroke:#333333;stroke-width:0.5;" width="15" x="230.77" y="222.0986"/><rect fill="#F7F9FB" height="2" style="stroke:#333333;stroke-width:0.5;" width="4" x="228.77" y="224.0986"/><rect fill="#F7F9FB" height="2" style="stroke:#333333;stroke-width:0.5;" width="4" x="228.77" y="228.0986"/><text fill="#000000" font-family="Arial" font-size="14" lengthAdjust="spacing" textLength="62" x="163.77" y="250.2305">Order API</text></g><!--entity OrderService--><g id="elem_OrderService"><rect fill="#F7F9FB" height="46.0986" rx="2.5" ry="2.5" style="stroke:#333333;stroke-width:0.5;" width="128" x="529.77" y="301.0986"/><rect fill="#F7F9FB" height="10" style="stroke:#333333;stroke-width:0.5;" width="15" x="637.77" y="306.0986"/><rect fill="#F7F9FB" height="2" style="stroke:#333333;stroke-width:0.5;" width="4" x="635.77" y="308.0986"/><rect fill="#F7F9FB" height="2" style="stroke:#333333;stroke-width:0.5;" width="4" x="635.77" y="312.0986"/><text fill="#000000" font-family="Arial" font-size="14" lengthAdjust="spacing" textLength="88" x="544.77" y="334.2305">Order Service</text></g><!--entity PaymentAdapter--><g id="elem_PaymentAdapter"><rect fill="#F7F9FB" height="46.0986" rx="2.5" ry="2.5" style="stroke:#333333;stroke-width:0.5;" width="149" x="125.27" y="379.0986"/><rect fill="#F7F9FB" height="10" style="stroke:#333333;stroke-width:0.5;" width="15" x="254.27" y="384.0986"/><rect fill="#F7F9FB" height="2" style="stroke:#333333;stroke-width:0.5;" width="4" x="252.27" y="386.0986"/><rect fill="#F7F9FB" height="2" style="stroke:#333333;stroke-width:0.5;" width="4" x="252.27" y="390.0986"/><text fill="#000000" font-family="Arial" font-size="14" lengthAdjust="spacing" textLength="109" x="140.27" y="412.2305">Payment Adapter</text></g><!--entity FulfilmentAdapter--><g id="elem_FulfilmentAdapter"><rect fill="#F7F9FB" height="46.0986" rx="2.5" ry="2.5" style="stroke:#333333;stroke-width:0.5;" width="155" x="122.27" y="136.0986"/><rect fill="#F7F9FB" height="10" style="stroke:#333333;stroke-width:0.5;" width="15" x="257.27" y="141.0986"/><rect fill="#F7F9FB" height="2" style="stroke:#333333;stroke-width:0.5;" width="4" x="255.27" y="143.0986"/><rect fill="#F7F9FB" height="2" style="stroke:#333333;stroke-width:0.5;" width="4" x="255.27" y="147.0986"/><text fill="#000000" font-family="Arial" font-size="14" lengthAdjust="spacing" textLength="115" x="137.27" y="169.2305">Fulfilment Adapter</text></g><!--entity NotificationPublisher--><g id="elem_NotificationPublisher"><rect fill="#F7F9FB" height="46.0986" rx="2.5" ry="2.5" style="stroke:#333333;stroke-width:0.5;" width="172" x="862.77" y="301.0986"/><rect fill="#F7F9FB" height="10" style="stroke:#333333;stroke-width:0.5;" width="15" x="1014.77" y="306.0986"/><rect fill="#F7F9FB" height="2" style="stroke:#333333;stroke-width:0.5;" width="4" x="1012.77" y="308.0986"/><rect fill="#F7F9FB" height="2" style="stroke:#333333;stroke-width:0.5;" width="4" x="1012.77" y="312.0986"/><text fill="#000000" font-family="Arial" font-size="14" lengthAdjust="spacing" textLength="132" x="877.77" y="334.2305">Notification Publisher</text></g><!--entity OrderDb--><g id="elem_OrderDb"><path d="M887.77,467.5986 C887.77,457.5986 948.77,457.5986 948.77,457.5986 C948.77,457.5986 1009.77,457.5986 1009.77,467.5986 L1009.77,492.6973 C1009.77,502.6973 948.77,502.6973 948.77,502.6973 C948.77,502.6973 887.77,502.6973 887.77,492.6973 L887.77,467.5986 " fill="#F2F5F7" style="stroke:#333333;stroke-width:0.5;"/><path d="M887.77,467.5986 C887.77,477.5986 948.77,477.5986 948.77,477.5986 C948.77,477.5986 1009.77,477.5986 1009.77,467.5986 " fill="none" style="stroke:#333333;stroke-width:0.5;"/><text fill="#000000" font-family="Arial" font-size="14" lengthAdjust="spacing" textLength="102" x="897.77" y="494.7305">Order Database</text></g><!--entity PaymentProvider--><g id="elem_PaymentProvider"><rect fill="#F7F9FB" height="62.1973" rx="2.5" ry="2.5" style="stroke:#333333;stroke-width:0.5;" width="202" x="492.77" y="695.0986"/><rect fill="#F7F9FB" height="10" style="stroke:#333333;stroke-width:0.5;" width="15" x="674.77" y="700.0986"/><rect fill="#F7F9FB" height="2" style="stroke:#333333;stroke-width:0.5;" width="4" x="672.77" y="702.0986"/><rect fill="#F7F9FB" height="2" style="stroke:#333333;stroke-width:0.5;" width="4" x="672.77" y="706.0986"/><text fill="#000000" font-family="Arial" font-size="14" font-style="italic" lengthAdjust="spacing" textLength="66" x="555.77" y="728.2305">&#171;external&#187;</text><text fill="#000000" font-family="Arial" font-size="14" lengthAdjust="spacing" textLength="162" x="507.77" y="744.3291">Payment Provider System</text></g><!--entity DeliveryPartner--><g id="elem_DeliveryPartner"><rect fill="#F7F9FB" height="62.1973" rx="2.5" ry="2.5" style="stroke:#333333;stroke-width:0.5;" width="192" x="497.77" y="457.0986"/><rect fill="#F7F9FB" height="10" style="stroke:#333333;stroke-width:0.5;" width="15" x="669.77" y="462.0986"/><rect fill="#F7F9FB" height="2" style="stroke:#333333;stroke-width:0.5;" width="4" x="667.77" y="464.0986"/><rect fill="#F7F9FB" height="2" style="stroke:#333333;stroke-width:0.5;" width="4" x="667.77" y="468.0986"/><text fill="#000000" font-family="Arial" font-size="14" font-style="italic" lengthAdjust="spacing" textLength="66" x="555.77" y="490.2305">&#171;external&#187;</text><text fill="#000000" font-family="Arial" font-size="14" lengthAdjust="spacing" textLength="152" x="512.77" y="506.3291">Delivery Partner System</text></g><!--entity IOrder--><g id="elem_IOrder"><ellipse cx="593.77" cy="563.0986" fill="#F1F1F1" rx="8" ry="8" style="stroke:#181818;stroke-width:0.5;"/><text fill="#000000" font-family="Arial" font-size="14" lengthAdjust="spacing" textLength="113" x="537.27" y="593.2305">Order Submission</text></g><!--entity IPayment--><g id="elem_IPayment"><ellipse cx="948.77" cy="586.0986" fill="#F1F1F1" rx="8" ry="8" style="stroke:#181818;stroke-width:0.5;"/><text fill="#000000" font-family="Arial" font-size="14" lengthAdjust="spacing" textLength="142" x="877.77" y="616.2305">Payment Authorisation</text></g><!--entity IFulfilment--><g id="elem_IFulfilment"><ellipse cx="948.77" cy="76.0986" fill="#F1F1F1" rx="8" ry="8" style="stroke:#181818;stroke-width:0.5;"/><text fill="#000000" font-family="Arial" font-size="14" lengthAdjust="spacing" textLength="118" x="889.77" y="106.2305">Fulfilment Request</text></g><g id="elem_GMN26"><path d="M30.77,43.0986 L30.77,85.2959 L368.77,85.2959 L368.77,53.0986 L358.77,43.0986 L30.77,43.0986 " fill="#FFF8DC" style="stroke:#666666;stroke-width:0.5;"/><path d="M358.77,43.0986 L358.77,53.0986 L368.77,53.0986 L358.77,43.0986 " fill="#FFF8DC" style="stroke:#666666;stroke-width:1.0;"/><text fill="#000000" font-family="Arial" font-size="14" lengthAdjust="spacing" textLength="217" x="36.77" y="61.2305">Component = logical modular part.</text><text fill="#000000" font-family="Arial" font-size="14" lengthAdjust="spacing" textLength="317" x="36.77" y="77.3291">Artefact and deployment node are separate views.</text></g><!--link Web to IOrder--><g id="link_Web_IOrder"><path d="M270.79,320.3686 C305.08,323.8486 344.17,334.2286 368.77,361.0986 C430.94,429.0286 329.1,505.8886 398.77,566.0986 C454.07,613.8986 549.4458,580.7536 578.9158,568.8636 " fill="none" id="Web-to-IOrder" style="stroke:#333333;stroke-width:1.2;stroke-dasharray:7.0,7.0;"/><polygon fill="#333333" points="584.48,566.6186,574.6371,566.2766,579.8432,568.4894,577.6303,573.6955,584.48,566.6186" style="stroke:#333333;stroke-width:1.2;"/><text fill="#000000" font-family="Arial" font-size="14" lengthAdjust="spacing" textLength="52" x="404.77" y="562.2305">requires</text></g><!--link OrderApi to IOrder--><g id="link_OrderApi_IOrder"><path d="M250.92,237.9086 C288.93,239.1586 339.45,247.5986 368.77,280.0986 C437.22,355.9886 332.83,430.0086 398.77,508.0986 C423.83,537.7886 551.32,557.3486 584.74,562.0186 " fill="none" id="OrderApi-IOrder" style="stroke:#333333;stroke-width:1.2;"/><text fill="#000000" font-family="Arial" font-size="14" lengthAdjust="spacing" textLength="54" x="403.77" y="504.2305">provides</text></g><!--link OrderApi to OrderService--><g id="link_OrderApi_OrderService"><path d="M250.81,250.8186 C321.92,266.0586 446.2832,292.7114 523.8832,309.3414 " fill="none" id="OrderApi-to-OrderService" style="stroke:#333333;stroke-width:1.2;"/><polygon fill="#333333" points="529.75,310.5986,521.788,304.8015,524.861,309.5509,520.1116,312.6239,529.75,310.5986" style="stroke:#333333;stroke-width:1.2;"/><text fill="#000000" font-family="Arial" font-size="14" lengthAdjust="spacing" textLength="62" x="399.77" y="281.2305">delegates</text></g><!--link OrderService to OrderDb--><g id="link_OrderService_OrderDb"><path d="M646.85,347.1186 C713.98,376.7786 824.4621,425.6033 891.1221,455.0633 " fill="none" id="OrderService-to-OrderDb" style="stroke:#333333;stroke-width:1.2;"/><polygon fill="#333333" points="896.61,457.4886,889.995,450.1919,892.0367,455.4675,886.7612,457.5092,896.61,457.4886" style="stroke:#333333;stroke-width:1.2;"/><text fill="#000000" font-family="Arial" font-size="14" lengthAdjust="spacing" textLength="104" x="726.77" y="380.2305">reads and writes</text></g><!--link OrderService to IPayment--><g id="link_OrderService_IPayment"><path d="M615.38,347.5186 C639.87,374.5586 682.71,419.4986 724.77,452.0986 C802.59,512.4186 904.2067,564.5089 934.2567,579.4389 " fill="none" id="OrderService-to-IPayment" style="stroke:#333333;stroke-width:1.2;stroke-dasharray:7.0,7.0;"/><polygon fill="#333333" points="939.63,582.1086,933.3498,574.5219,935.1522,579.8839,929.7902,581.6863,939.63,582.1086" style="stroke:#333333;stroke-width:1.2;"/><text fill="#000000" font-family="Arial" font-size="14" lengthAdjust="spacing" textLength="52" x="752.77" y="448.2305">requires</text></g><!--link PaymentAdapter to IPayment--><g id="link_PaymentAdapter_IPayment"><path d="M216.27,425.3886 C245.99,467.8486 315.46,557.1486 398.77,597.0986 C598.19,692.7286 887.05,605.9986 939.45,588.8886 " fill="none" id="PaymentAdapter-IPayment" style="stroke:#333333;stroke-width:1.2;"/><text fill="#000000" font-family="Arial" font-size="14" lengthAdjust="spacing" textLength="54" x="566.77" y="625.2305">provides</text></g><!--link PaymentAdapter to PaymentProvider--><g id="link_PaymentAdapter_PaymentProvider"><path d="M211.46,425.3586 C236.51,477.2386 304.11,603.0486 398.77,669.0986 C426.4,688.3786 454.7921,699.6744 486.7421,708.1844 " fill="none" id="PaymentAdapter-to-PaymentProvider" style="stroke:#333333;stroke-width:1.2;"/><polygon fill="#333333" points="492.54,709.7286,484.8727,703.547,487.7084,708.4417,482.8137,711.2775,492.54,709.7286" style="stroke:#333333;stroke-width:1.2;"/><text fill="#000000" font-family="Arial" font-size="14" lengthAdjust="spacing" textLength="28" x="416.77" y="665.2305">calls</text></g><!--link OrderService to IFulfilment--><g id="link_OrderService_IFulfilment"><path d="M638.07,300.8986 C688.49,272.5286 772.54,220.9786 832.77,162.0986 C849.17,146.0586 845.43,135.1186 862.77,120.0986 C887.13,98.9886 917.725,86.604 933.855,80.884 " fill="none" id="OrderService-to-IFulfilment" style="stroke:#333333;stroke-width:1.2;stroke-dasharray:7.0,7.0;"/><polygon fill="#333333" points="939.51,78.8786,929.6907,78.1167,934.7975,80.5498,932.3645,85.6566,939.51,78.8786" style="stroke:#333333;stroke-width:1.2;"/><text fill="#000000" font-family="Arial" font-size="14" lengthAdjust="spacing" textLength="52" x="752.77" y="158.2305">requires</text></g><!--link FulfilmentAdapter to IFulfilment--><g id="link_FulfilmentAdapter_IFulfilment"><path d="M277.55,150.5686 C453.65,130.9986 876.38,84.0286 939.76,76.9886 " fill="none" id="FulfilmentAdapter-IFulfilment" style="stroke:#333333;stroke-width:1.2;"/><text fill="#000000" font-family="Arial" font-size="14" lengthAdjust="spacing" textLength="54" x="566.77" y="102.2305">provides</text></g><!--link FulfilmentAdapter to DeliveryPartner--><g id="link_FulfilmentAdapter_DeliveryPartner"><path d="M277.38,160.3186 C309.48,164.7386 344.83,175.3386 368.77,199.0986 C408.39,238.4386 374.34,270.8886 398.77,321.0986 C428.41,382.0186 439.78,398.8786 492.77,441.0986 C500.12,446.9586 503.103,449.3351 511.553,454.1351 " fill="none" id="FulfilmentAdapter-to-DeliveryPartner" style="stroke:#333333;stroke-width:1.2;"/><polygon fill="#333333" points="516.77,457.0986,510.9201,449.1753,512.4225,454.629,506.9688,456.1314,516.77,457.0986" style="stroke:#333333;stroke-width:1.2;"/><text fill="#000000" font-family="Arial" font-size="14" lengthAdjust="spacing" textLength="28" x="416.77" y="317.2305">calls</text></g><!--link OrderService to NotificationPublisher--><g id="link_OrderService_NotificationPublisher"><path d="M657.88,324.0986 C714.99,324.0986 793.57,324.0986 856.65,324.0986 " fill="none" id="OrderService-to-NotificationPublisher" style="stroke:#333333;stroke-width:1.2;"/><polygon fill="#333333" points="862.65,324.0986,853.65,320.0986,857.65,324.0986,853.65,328.0986,862.65,324.0986" style="stroke:#333333;stroke-width:1.2;"/><text fill="#000000" font-family="Arial" font-size="14" lengthAdjust="spacing" textLength="106" x="725.77" y="320.2305">publishes events</text></g><!--link OrderApi to GMN26--><g id="link_OrderApi_GMN26"><path d="M148.5,242.7986 C100.76,242.0486 34.26,231.5886 15.77,181.5986 C6,155.2086 7.4,135.7786 30.77,120.0986 C53.35,104.9386 80.38,93.5886 106.13,85.2086 " fill="none" id="OrderApi-GMN26" style="stroke:#333333;stroke-width:1.2;stroke-dasharray:7.0,7.0;"/></g><!--SRC=[RPHDZzCm48Rl_XL3xysk1AVLKYcYMkY5hUY1inDFKWl7DlQaIuNuxqpIV3ZTI3quCyzy-gq_Q5kQLY5asGF_8bqDnWTlfAMsCLiwOuEPvwCG1Yi2SX1qVIPGEc19sbb1cWp2o-7hzl7Jzl5Z1g_MQ8jm8XSGNeF20D-aLMoiuOjhlBDe2VPQra4sGdXP_f8rmcOHv_guyn2tWRy2e9o2Dp-nWDnxeqlPDR416O5jI-XMEpyUUdV_bNkznfmmN7I9CpSObknHNflka2lf2KDF3xR1jEHVMbDfyovaDgz6VNUags4kEBQ5qV4yHAQkoIF-2Q4aoK967EVP3z_pGFj2h4no3EwY-mLS8s6JJZIvdf_n3pTffTdjqXnxDFg2uSe1WUmon-WRNOiSGbi-LxASsZsrHQDZ72_oq5jJRDfyIsSNT9ml_J2uKZhP-m_ytMAa6phRXUW4b6MxeHOyGM2IDHt5g1FOpav_MqRgtEuMIc58eS5QqaYDZedS5tqPgIAmhE4jw8vTmdrBuxH9KqkPTQtDqDJSFSI5xo_p2Kffp6hLP6j9uNTYxMelqAdy2ieTt4jXlOEEN5LtLs0uHy0B9-TGwmYXS4Ik0LUb_-pvVVaCnjMSpK3ZL6ja0CyTPCpaWP25GlqjAFJ6tJPf7R-3aj-UY8poHS95urlC13BNbVmF]--></g></svg>