<?xml version="1.0" encoding="us-ascii" standalone="no"?><svg xmlns="http://www.w3.org/2000/svg" xmlns:xlink="http://www.w3.org/1999/xlink" contentStyleType="text/css" height="497.0205px" preserveAspectRatio="none" style="width:760px;height:497px;background:#FFFFFF;" version="1.1" viewBox="0 0 760 497" width="760.3617px" zoomAndPan="magnify"><defs/><g><text fill="#000000" font-family="Arial" font-size="10.1285" font-weight="bold" lengthAdjust="spacing" textLength="231.5088" x="259.5431" y="16.7351">Online Store implementation evidence thread</text><!--entity I--><g id="elem_I"><rect fill="#FFF2CC" height="49.4097" rx="1.8087" ry="1.8087" style="stroke:#333333;stroke-width:0.361732508329367;" width="142.5226" x="248.1485" y="31.9038"/><text fill="#000000" font-family="Arial" font-size="10.1285" lengthAdjust="spacing" textLength="83.1985" x="255.3832" y="48.6389">Architecture intent</text><text fill="#000000" font-family="Arial" font-size="10.1285" lengthAdjust="spacing" textLength="112.1371" x="255.3832" y="60.2857">FR-25-01 and QA-25-01</text><text fill="#000000" font-family="Arial" font-size="10.1285" lengthAdjust="spacing" textLength="128.0533" x="255.3832" y="71.9325">ADR-26-01 hybrid response</text></g><!--entity R--><g id="elem_R"><rect fill="#DDEBF7" height="49.4097" rx="1.8087" ry="1.8087" style="stroke:#333333;stroke-width:0.361732508329367;" width="128.0533" x="10.852" y="121.6135"/><text fill="#000000" font-family="Arial" font-size="10.1285" lengthAdjust="spacing" textLength="96.2208" x="18.0866" y="138.3486">Responsibility design</text><text fill="#000000" font-family="Arial" font-size="10.1285" lengthAdjust="spacing" textLength="113.584" x="18.0866" y="149.9954">Checkout, adapter, store</text><text fill="#000000" font-family="Arial" font-size="10.1285" lengthAdjust="spacing" textLength="80.3046" x="18.0866" y="161.6421">and reconciliation</text></g><!--entity C--><g id="elem_C"><rect fill="#DDEBF7" height="49.4097" rx="1.8087" ry="1.8087" style="stroke:#333333;stroke-width:0.361732508329367;" width="145.4165" x="151.9277" y="121.6135"/><text fill="#000000" font-family="Arial" font-size="10.1285" lengthAdjust="spacing" textLength="84.6454" x="159.1623" y="138.3486">Interface contracts</text><text fill="#000000" font-family="Arial" font-size="10.1285" lengthAdjust="spacing" textLength="130.9472" x="159.1623" y="149.9954">HTTP API and event schema</text><text fill="#000000" font-family="Arial" font-size="10.1285" lengthAdjust="spacing" textLength="107.0728" x="159.1623" y="161.6421">Errors and compatibility</text></g><!--entity D--><g id="elem_D"><rect fill="#DDEBF7" height="49.4097" rx="1.8087" ry="1.8087" style="stroke:#333333;stroke-width:0.361732508329367;" width="133.1176" x="310.7282" y="121.6135"/><text fill="#000000" font-family="Arial" font-size="10.1285" lengthAdjust="spacing" textLength="94.0505" x="317.9629" y="138.3486">Physical data design</text><text fill="#000000" font-family="Arial" font-size="10.1285" lengthAdjust="spacing" textLength="118.6483" x="317.9629" y="149.9954">Keys, constraints, indexes</text><text fill="#000000" font-family="Arial" font-size="10.1285" lengthAdjust="spacing" textLength="67.2822" x="317.9629" y="161.6421">and migrations</text></g><!--entity S--><g id="elem_S"><rect fill="#E2F0D9" height="49.4097" rx="1.8087" ry="1.8087" style="stroke:#333333;stroke-width:0.361732508329367;" width="139.6287" x="5.0643" y="211.3231"/><text fill="#000000" font-family="Arial" font-size="10.1285" lengthAdjust="spacing" textLength="75.9638" x="12.2989" y="228.0582">Security controls</text><text fill="#000000" font-family="Arial" font-size="10.1285" lengthAdjust="spacing" textLength="125.1594" x="12.2989" y="239.705">Enforcement, secrets, audit</text><text fill="#000000" font-family="Arial" font-size="10.1285" lengthAdjust="spacing" textLength="62.9415" x="12.2989" y="251.3518">and redaction</text></g><!--entity O--><g id="elem_O"><rect fill="#E2F0D9" height="49.4097" rx="1.8087" ry="1.8087" style="stroke:#333333;stroke-width:0.361732508329367;" width="133.841" x="499.9143" y="211.3231"/><text fill="#000000" font-family="Arial" font-size="10.1285" lengthAdjust="spacing" textLength="70.8996" x="507.149" y="228.0582">Runtime design</text><text fill="#000000" font-family="Arial" font-size="10.1285" lengthAdjust="spacing" textLength="119.3717" x="507.149" y="239.705">Deployment, configuration</text><text fill="#000000" font-family="Arial" font-size="10.1285" lengthAdjust="spacing" textLength="77.4108" x="507.149" y="251.3518">and observability</text></g><!--entity E--><g id="elem_E"><rect fill="#E4DFEC" height="49.4097" rx="1.8087" ry="1.8087" style="stroke:#333333;stroke-width:0.361732508329367;" width="129.5002" x="280.7044" y="301.0328"/><text fill="#000000" font-family="Arial" font-size="10.1285" lengthAdjust="spacing" textLength="93.327" x="287.9391" y="317.7679">Repository evidence</text><text fill="#000000" font-family="Arial" font-size="10.1285" lengthAdjust="spacing" textLength="115.0309" x="287.9391" y="329.4147">Models, ADRs, contracts,</text><text fill="#000000" font-family="Arial" font-size="10.1285" lengthAdjust="spacing" textLength="88.2627" x="287.9391" y="341.0615">manifests and tests</text></g><!--entity V--><g id="elem_V"><rect fill="#FCE4D6" height="49.4097" rx="1.8087" ry="1.8087" style="stroke:#333333;stroke-width:0.361732508329367;" width="145.4165" x="430.4617" y="390.7425"/><text fill="#000000" font-family="Arial" font-size="10.1285" lengthAdjust="spacing" textLength="94.7739" x="437.6963" y="407.4775">Verification evidence</text><text fill="#000000" font-family="Arial" font-size="10.1285" lengthAdjust="spacing" textLength="130.9472" x="437.6963" y="419.1243">Contract, migration, security,</text><text fill="#000000" font-family="Arial" font-size="10.1285" lengthAdjust="spacing" textLength="125.1594" x="437.6963" y="430.7711">performance and fault tests</text></g><!--link I to R--><g id="link_I_R"><path d="M249.089,81.1356 C236.1245,85.6283 222.7187,90.3381 210.1666,94.8453 C186.4442,103.3677 164.5639,111.4768 141.7965,120.0354 " fill="none" id="I-to-R" style="stroke:#333333;stroke-width:0.8681580199904807;"/><polygon fill="#333333" points="137.7333,121.5628,144.8463,121.9805,141.1193,120.29,142.8098,116.5629,137.7333,121.5628" style="stroke:#333333;stroke-width:0.8681580199904807;"/><text fill="#000000" font-family="Arial" font-size="10.1285" lengthAdjust="spacing" textLength="51.366" x="210.8901" y="105.0692">refined into</text></g><!--link I to C--><g id="link_I_C"><path d="M293.763,81.1067 C280.2776,93.666 266.9663,106.0668 253.481,118.6261 " fill="none" id="I-to-C" style="stroke:#333333;stroke-width:0.8681580199904807;"/><polygon fill="#333333" points="250.3044,121.5845,257.0415,119.2646,252.9515,119.1192,253.097,115.0293,250.3044,121.5845" style="stroke:#333333;stroke-width:0.8681580199904807;"/><text fill="#000000" font-family="Arial" font-size="10.1285" lengthAdjust="spacing" textLength="51.366" x="278.1723" y="105.0692">refined into</text></g><!--link I to D--><g id="link_I_D"><path d="M335.0728,81.1067 C343.3059,93.666 350.9967,105.3949 359.2297,117.9542 " fill="none" id="I-to-D" style="stroke:#333333;stroke-width:0.8681580199904807;"/><polygon fill="#333333" points="361.6095,121.5845,360.4601,114.5526,359.6264,118.5593,355.6197,117.7256,361.6095,121.5845" style="stroke:#333333;stroke-width:0.8681580199904807;"/><text fill="#000000" font-family="Arial" font-size="10.1285" lengthAdjust="spacing" textLength="51.366" x="351.9657" y="105.0692">refined into</text></g><!--link R to C--><!--link C to D--><!--link R to S--><g id="link_R_S"><path d="M74.8786,170.8163 C74.8786,183.3757 74.8786,194.3941 74.8786,206.9534 " fill="none" id="R-to-S" style="stroke:#333333;stroke-width:0.8681580199904807;"/><polygon fill="#333333" points="74.8786,211.2942,77.7725,204.783,74.8786,207.6769,71.9848,204.783,74.8786,211.2942" style="stroke:#333333;stroke-width:0.8681580199904807;"/><text fill="#000000" font-family="Arial" font-size="10.1285" lengthAdjust="spacing" textLength="47.0252" x="75.6021" y="194.7788">constrains</text></g><!--link D to O--><g id="link_D_O"><path d="M428.5807,170.8163 C455.5515,183.3757 484.5845,196.9028 511.5625,209.4622 " fill="none" id="D-to-O" style="stroke:#333333;stroke-width:0.8681580199904807;"/><polygon fill="#333333" points="515.4978,211.2942,510.8162,205.9227,512.2184,209.7675,508.3735,211.1697,515.4978,211.2942" style="stroke:#333333;stroke-width:0.8681580199904807;"/><text fill="#000000" font-family="Arial" font-size="10.1285" lengthAdjust="spacing" textLength="47.0252" x="483.6364" y="194.7788">constrains</text></g><!--link S to O--><!--link C to E--><g id="link_C_E"><path d="M210.3981,171.0261 C198.0341,195.4286 184.6283,233.3454 202.2085,260.5188 C219.6802,287.5329 247.3424,302.0254 276.5486,311.199 " fill="none" id="C-to-E" style="stroke:#333333;stroke-width:0.8681580199904807;"/><polygon fill="#333333" points="280.69,312.4997,275.3452,307.7877,277.2389,311.4158,273.6108,313.3095,280.69,312.4997" style="stroke:#333333;stroke-width:0.8681580199904807;"/><text fill="#000000" font-family="Arial" font-size="10.1285" lengthAdjust="spacing" textLength="139.6287" x="202.9319" y="239.6337">implemented and versioned as</text></g><!--link D to E--><g id="link_D_E"><path d="M366.1673,170.867 C361.1537,182.768 355.6916,197.5267 352.6892,211.3231 C346.0695,241.7304 344.8532,273.3747 344.8966,296.569 " fill="none" id="D-to-E" style="stroke:#333333;stroke-width:0.8681580199904807;"/><polygon fill="#333333" points="344.9047,300.9098,347.7864,294.3932,344.8979,297.2925,341.9987,294.4041,344.9047,300.9098" style="stroke:#333333;stroke-width:0.8681580199904807;"/><text fill="#000000" font-family="Arial" font-size="10.1285" lengthAdjust="spacing" textLength="139.6287" x="353.4127" y="239.6337">implemented and versioned as</text></g><!--link S to E--><g id="link_S_E"><path d="M33.7713,260.5911 C24.4169,268.9399 19.2659,278.439 27.1299,287.287 C43.6611,305.8873 188.1728,316.6201 276.3559,321.5469 " fill="none" id="S-to-E" style="stroke:#333333;stroke-width:0.8681580199904807;"/><polygon fill="#333333" points="280.69,321.789,274.3503,318.5364,277.0783,321.5872,274.0275,324.3152,280.69,321.789" style="stroke:#333333;stroke-width:0.8681580199904807;"/><text fill="#000000" font-family="Arial" font-size="10.1285" lengthAdjust="spacing" textLength="139.6287" x="27.8534" y="284.4885">implemented and versioned as</text></g><!--link O to E--><g id="link_O_E"><path d="M506.9247,260.526 C475.425,273.0854 440.9546,286.8375 409.4405,299.3968 " fill="none" id="O-to-E" style="stroke:#333333;stroke-width:0.8681580199904807;"/><polygon fill="#333333" points="405.4081,301.0039,412.528,301.2816,408.7684,299.6647,410.3853,295.9051,405.4081,301.0039" style="stroke:#333333;stroke-width:0.8681580199904807;"/><text fill="#000000" font-family="Arial" font-size="10.1285" lengthAdjust="spacing" textLength="139.6287" x="469.8905" y="284.4885">implemented and versioned as</text></g><!--link E to V--><g id="link_E_V"><path d="M388.1317,350.2357 C410.5736,362.795 434.2192,376.0348 456.6683,388.5942 " fill="none" id="E-to-V" style="stroke:#333333;stroke-width:0.8681580199904807;"/><polygon fill="#333333" points="460.4565,390.7135,456.1871,385.009,457.2997,388.9474,453.3613,390.06,460.4565,390.7135" style="stroke:#333333;stroke-width:0.8681580199904807;"/><text fill="#000000" font-family="Arial" font-size="10.1285" lengthAdjust="spacing" textLength="47.0252" x="434.4407" y="374.1981">verified by</text></g><!--reverse link I to V--><g id="link_I_V"><path d="M395.1726,61.6697 C495.0903,69.4107 660.1618,90.3381 660.1618,145.4878 C660.1618,145.4878 660.1618,145.4878 660.1618,326.3541 C660.1618,368.3295 616.9854,390.5544 575.9216,402.1949 " fill="none" id="I-backto-V" style="stroke:#333333;stroke-width:0.8681580199904807;stroke-dasharray:7.0,7.0;"/><polygon fill="#333333" points="390.8447,61.3344,397.1129,64.7225,394.4513,61.6138,397.56,58.9521,390.8447,61.3344" style="stroke:#333333;stroke-width:0.8681580199904807;"/><text fill="#000000" font-family="Arial" font-size="10.1285" lengthAdjust="spacing" textLength="94.0505" x="660.8853" y="239.6337">feedback may revise</text></g><rect fill="none" height="30.5282" id="_legend" rx="5.426" ry="5.426" style="stroke:#000000;stroke-width:0.723465016658734;" width="230.7853" x="259.9048" y="452.4511"/><text fill="#000000" font-family="Arial" font-size="10.1285" lengthAdjust="spacing" textLength="223.5507" x="263.5221" y="465.5688">Solid arrows show refinement and evidence links.</text><text fill="#000000" font-family="Arial" font-size="10.1285" lengthAdjust="spacing" textLength="204.0171" x="263.5221" y="477.2156">Dotted arrow shows implementation learning.</text><!--SRC=[ZLHDRzim3BtxLt3jDKa_jhLR3mMosCQ2OKWN5xaiEoWM7GknAKEIqtc_VfISPaaRO0K2EAB9zvuVARvJb5UjH1YDBlXdNLUXlMWgGQwjgw4hiSPHmtyZfro5CADA4KBcj45GTLFnUtB2AKs0MoMHSWHN6XGoShe1fs6bdTCrI6KmztcHpGKZtTvSmfEIhepiHb4ZZAY1j4IB3LnzEWWQGHiVV7yOb5Y8jdAf9fUfFmXN7o8FBsZDq6TZavVAyRdrAicnn2Mby-7rn-7b5GYIy6FS7vOqZZb-u-Dbjp9AWa7RQB9u1iB25CxJDBsUJ0xXvts6MgbAkOwrMBMc9KrAp3UwTGCGKZGEpG2izsb9df7hDULS4SmAu7CuZ-FaItfx23vbkQOGR2FdEoDoPvVqzV7n0SOFqw0Tj_mzO7FkZLXIOemsDhp8TTqmUYyhC4nECJoKdLNS0v32YRtwRzZPWUUqJCgUyK6HnDzeU_srMfiWtGRa-1HoXdbhl2L1kgwuDA52cpnC2Tk1kK6FB5gftBClKkHxIp8uJwxJo_ZpaTyjELNZNcgCJQMx7fAP2hLkUsazebvPD5jnOCFi92essYfkKBUVt2LzvmciM21FHUz6tu71acf1ga3hUgkT_nUm4yR-4AV9qOGiqAY2FJww5pmXExp1FpU3AS4qvcYuyzem4tVViuGPF-1Qy3HEcEqcci9mUCy3TCV-5NmZfHzplGjFJeVZb-4v37-MIhAuNqQjI-TBeydhOEmp-Panm7v0R1I7uEmucBqkdtbCVYQSkLyPhC5_uHQDPHVywHdmlsdPsz9cRqjBGjg2qxQXQHnTTT42HcqpkkVxVmS5ebo9V0ErwDZ0hR8OLRX6HkftMvJfYXU7u9luPC6M-cddi-VSNTdTQkJjkR6ZAEOwt5M40ljocLOe32bQZoBcwTd-0W00]--></g></svg>