<?xml version="1.0" encoding="us-ascii" standalone="no"?><svg xmlns="http://www.w3.org/2000/svg" xmlns:xlink="http://www.w3.org/1999/xlink" contentStyleType="text/css" height="647px" preserveAspectRatio="none" style="width:1122px;height:647px;background:#FFFFFF;" version="1.1" viewBox="0 0 1122 647" width="1122px" zoomAndPan="magnify"><defs/><g><text fill="#000000" font-family="Arial" font-size="14" font-weight="bold" lengthAdjust="spacing" textLength="434" x="337" y="23.1318">FIG-08-03. Online Store relational order implementation model</text><!--class customers--><g id="elem_customers"><rect codeLine="9" fill="#F1F1F1" height="122.5918" id="customers" rx="2.5" ry="2.5" style="stroke:#181818;stroke-width:0.5;" width="244" x="7" y="234.0986"/><ellipse cx="92.5" cy="255.1973" fill="#ADD1B2" rx="10" ry="10" style="stroke:#181818;stroke-width:1.0;"/><path d="M93.9063,251.2598 Q94.0313,251.0879 94.1875,251.0098 Q94.3438,250.916 94.5156,250.916 Q94.8281,250.916 95.0156,251.1348 Q95.2188,251.3379 95.2188,251.8379 L95.2188,253.0254 Q95.2188,253.541 95.0156,253.7598 Q94.8281,253.9629 94.5156,253.9629 Q94.2344,253.9629 94.0625,253.8066 Q93.8906,253.6504 93.8125,253.2285 Q93.7656,252.9316 93.625,252.7754 Q93.3438,252.4629 92.8281,252.291 Q92.3281,252.1035 91.8281,252.1035 Q91.2031,252.1035 90.6719,252.3848 Q90.1406,252.6504 89.7344,253.2754 Q89.3438,253.8848 89.3438,254.7285 L89.3438,255.6348 Q89.3438,256.6504 90.0781,257.3223 Q90.8125,257.9941 92.1094,257.9941 Q92.8906,257.9941 93.4375,257.791 Q93.75,257.666 94.1094,257.3066 Q94.3281,257.0879 94.4375,257.0254 Q94.5625,256.9473 94.7188,256.9473 Q95,256.9473 95.2188,257.166 Q95.4375,257.3848 95.4375,257.666 Q95.4375,257.9473 95.1406,258.2754 Q94.7188,258.7598 94.0625,259.0254 Q93.1875,259.4004 92.125,259.4004 Q90.875,259.4004 89.875,258.8848 Q89.0781,258.4785 88.5,257.6035 Q87.9375,256.7129 87.9375,255.666 L87.9375,254.7129 Q87.9375,253.6191 88.4375,252.6816 Q88.9531,251.7285 89.8594,251.2129 Q90.7656,250.6973 91.7656,250.6973 Q92.375,250.6973 92.9063,250.8379 Q93.4375,250.9785 93.9063,251.2598 Z " fill="#000000"/><text fill="#000000" font-family="Arial" font-size="14" font-style="italic" lengthAdjust="spacing" textLength="47" x="120.5" y="252.2305">&#171;table&#187;</text><text fill="#000000" font-family="Arial" font-size="14" lengthAdjust="spacing" textLength="65" x="111.5" y="268.3291">customers</text><line style="stroke:#181818;stroke-width:0.5;" x1="8" x2="250" y1="276.2959" y2="276.2959"/><text fill="#000000" font-family="Arial" font-size="14" lengthAdjust="spacing" textLength="130" x="13" y="293.4277">customer_id uuid PK</text><text fill="#000000" font-family="Arial" font-size="14" lengthAdjust="spacing" textLength="136" x="13" y="309.5264">created_at timestamp</text><line style="stroke:#181818;stroke-width:0.5;" x1="8" x2="250" y1="316.4932" y2="316.4932"/><text fill="#000000" font-family="Arial" font-size="14" lengthAdjust="spacing" textLength="232" x="13" y="333.625">email_address varchar(320) UNIQUE</text><text fill="#000000" font-family="Arial" font-size="14" lengthAdjust="spacing" textLength="182" x="13" y="349.7236">customer_status varchar(30)</text></g><!--class orders--><g id="elem_orders"><rect codeLine="16" fill="#F1F1F1" height="138.6904" id="orders" rx="2.5" ry="2.5" style="stroke:#181818;stroke-width:0.5;" width="184" x="313.5" y="226.0986"/><ellipse cx="380" cy="247.1973" fill="#ADD1B2" rx="10" ry="10" style="stroke:#181818;stroke-width:1.0;"/><path d="M381.4063,243.2598 Q381.5313,243.0879 381.6875,243.0098 Q381.8438,242.916 382.0156,242.916 Q382.3281,242.916 382.5156,243.1348 Q382.7188,243.3379 382.7188,243.8379 L382.7188,245.0254 Q382.7188,245.541 382.5156,245.7598 Q382.3281,245.9629 382.0156,245.9629 Q381.7344,245.9629 381.5625,245.8066 Q381.3906,245.6504 381.3125,245.2285 Q381.2656,244.9316 381.125,244.7754 Q380.8438,244.4629 380.3281,244.291 Q379.8281,244.1035 379.3281,244.1035 Q378.7031,244.1035 378.1719,244.3848 Q377.6406,244.6504 377.2344,245.2754 Q376.8438,245.8848 376.8438,246.7285 L376.8438,247.6348 Q376.8438,248.6504 377.5781,249.3223 Q378.3125,249.9941 379.6094,249.9941 Q380.3906,249.9941 380.9375,249.791 Q381.25,249.666 381.6094,249.3066 Q381.8281,249.0879 381.9375,249.0254 Q382.0625,248.9473 382.2188,248.9473 Q382.5,248.9473 382.7188,249.166 Q382.9375,249.3848 382.9375,249.666 Q382.9375,249.9473 382.6406,250.2754 Q382.2188,250.7598 381.5625,251.0254 Q380.6875,251.4004 379.625,251.4004 Q378.375,251.4004 377.375,250.8848 Q376.5781,250.4785 376,249.6035 Q375.4375,248.7129 375.4375,247.666 L375.4375,246.7129 Q375.4375,245.6191 375.9375,244.6816 Q376.4531,243.7285 377.3594,243.2129 Q378.2656,242.6973 379.2656,242.6973 Q379.875,242.6973 380.4063,242.8379 Q380.9375,242.9785 381.4063,243.2598 Z " fill="#000000"/><text fill="#000000" font-family="Arial" font-size="14" font-style="italic" lengthAdjust="spacing" textLength="47" x="397" y="244.2305">&#171;table&#187;</text><text fill="#000000" font-family="Arial" font-size="14" lengthAdjust="spacing" textLength="41" x="400" y="260.3291">orders</text><line style="stroke:#181818;stroke-width:0.5;" x1="314.5" x2="496.5" y1="268.2959" y2="268.2959"/><text fill="#000000" font-family="Arial" font-size="14" lengthAdjust="spacing" textLength="106" x="319.5" y="285.4277">order_id uuid PK</text><text fill="#000000" font-family="Arial" font-size="14" lengthAdjust="spacing" textLength="130" x="319.5" y="301.5264">customer_id uuid FK</text><text fill="#000000" font-family="Arial" font-size="14" lengthAdjust="spacing" textLength="130" x="319.5" y="317.625">placed_at timestamp</text><line style="stroke:#181818;stroke-width:0.5;" x1="314.5" x2="496.5" y1="324.5918" y2="324.5918"/><text fill="#000000" font-family="Arial" font-size="14" lengthAdjust="spacing" textLength="158" x="319.5" y="341.7236">order_status varchar(30)</text><text fill="#000000" font-family="Arial" font-size="14" lengthAdjust="spacing" textLength="172" x="319.5" y="357.8223">total_amount decimal(12,2)</text></g><!--class order_lines--><g id="elem_order_lines"><rect codeLine="24" fill="#F1F1F1" height="154.7891" id="order_lines" rx="2.5" ry="2.5" style="stroke:#181818;stroke-width:0.5;" width="164" x="755.5" y="44.0986"/><ellipse cx="798" cy="65.1973" fill="#ADD1B2" rx="10" ry="10" style="stroke:#181818;stroke-width:1.0;"/><path d="M799.4063,61.2598 Q799.5313,61.0879 799.6875,61.0098 Q799.8438,60.916 800.0156,60.916 Q800.3281,60.916 800.5156,61.1348 Q800.7188,61.3379 800.7188,61.8379 L800.7188,63.0254 Q800.7188,63.541 800.5156,63.7598 Q800.3281,63.9629 800.0156,63.9629 Q799.7344,63.9629 799.5625,63.8066 Q799.3906,63.6504 799.3125,63.2285 Q799.2656,62.9316 799.125,62.7754 Q798.8438,62.4629 798.3281,62.291 Q797.8281,62.1035 797.3281,62.1035 Q796.7031,62.1035 796.1719,62.3848 Q795.6406,62.6504 795.2344,63.2754 Q794.8438,63.8848 794.8438,64.7285 L794.8438,65.6348 Q794.8438,66.6504 795.5781,67.3223 Q796.3125,67.9941 797.6094,67.9941 Q798.3906,67.9941 798.9375,67.791 Q799.25,67.666 799.6094,67.3066 Q799.8281,67.0879 799.9375,67.0254 Q800.0625,66.9473 800.2188,66.9473 Q800.5,66.9473 800.7188,67.166 Q800.9375,67.3848 800.9375,67.666 Q800.9375,67.9473 800.6406,68.2754 Q800.2188,68.7598 799.5625,69.0254 Q798.6875,69.4004 797.625,69.4004 Q796.375,69.4004 795.375,68.8848 Q794.5781,68.4785 794,67.6035 Q793.4375,66.7129 793.4375,65.666 L793.4375,64.7129 Q793.4375,63.6191 793.9375,62.6816 Q794.4531,61.7285 795.3594,61.2129 Q796.2656,60.6973 797.2656,60.6973 Q797.875,60.6973 798.4063,60.8379 Q798.9375,60.9785 799.4063,61.2598 Z " fill="#000000"/><text fill="#000000" font-family="Arial" font-size="14" font-style="italic" lengthAdjust="spacing" textLength="47" x="829" y="62.2305">&#171;table&#187;</text><text fill="#000000" font-family="Arial" font-size="14" lengthAdjust="spacing" textLength="71" x="817" y="78.3291">order_lines</text><line style="stroke:#181818;stroke-width:0.5;" x1="756.5" x2="918.5" y1="86.2959" y2="86.2959"/><text fill="#000000" font-family="Arial" font-size="14" lengthAdjust="spacing" textLength="136" x="761.5" y="103.4277">order_line_id uuid PK</text><text fill="#000000" font-family="Arial" font-size="14" lengthAdjust="spacing" textLength="106" x="761.5" y="119.5264">order_id uuid FK</text><text fill="#000000" font-family="Arial" font-size="14" lengthAdjust="spacing" textLength="120" x="761.5" y="135.625">product_id uuid FK</text><text fill="#000000" font-family="Arial" font-size="14" lengthAdjust="spacing" textLength="98" x="761.5" y="151.7236">quantity integer</text><line style="stroke:#181818;stroke-width:0.5;" x1="756.5" x2="918.5" y1="158.6904" y2="158.6904"/><text fill="#000000" font-family="Arial" font-size="14" lengthAdjust="spacing" textLength="152" x="761.5" y="175.8223">unit_price decimal(12,2)</text><text fill="#000000" font-family="Arial" font-size="14" lengthAdjust="spacing" textLength="147" x="761.5" y="191.9209">line_total decimal(12,2)</text></g><!--class products--><g id="elem_products"><rect codeLine="33" fill="#F1F1F1" height="106.4932" id="products" rx="2.5" ry="2.5" style="stroke:#181818;stroke-width:0.5;" width="189" x="311" y="68.5986"/><ellipse cx="374" cy="89.6973" fill="#ADD1B2" rx="10" ry="10" style="stroke:#181818;stroke-width:1.0;"/><path d="M375.4063,85.7598 Q375.5313,85.5879 375.6875,85.5098 Q375.8438,85.416 376.0156,85.416 Q376.3281,85.416 376.5156,85.6348 Q376.7188,85.8379 376.7188,86.3379 L376.7188,87.5254 Q376.7188,88.041 376.5156,88.2598 Q376.3281,88.4629 376.0156,88.4629 Q375.7344,88.4629 375.5625,88.3066 Q375.3906,88.1504 375.3125,87.7285 Q375.2656,87.4316 375.125,87.2754 Q374.8438,86.9629 374.3281,86.791 Q373.8281,86.6035 373.3281,86.6035 Q372.7031,86.6035 372.1719,86.8848 Q371.6406,87.1504 371.2344,87.7754 Q370.8438,88.3848 370.8438,89.2285 L370.8438,90.1348 Q370.8438,91.1504 371.5781,91.8223 Q372.3125,92.4941 373.6094,92.4941 Q374.3906,92.4941 374.9375,92.291 Q375.25,92.166 375.6094,91.8066 Q375.8281,91.5879 375.9375,91.5254 Q376.0625,91.4473 376.2188,91.4473 Q376.5,91.4473 376.7188,91.666 Q376.9375,91.8848 376.9375,92.166 Q376.9375,92.4473 376.6406,92.7754 Q376.2188,93.2598 375.5625,93.5254 Q374.6875,93.9004 373.625,93.9004 Q372.375,93.9004 371.375,93.3848 Q370.5781,92.9785 370,92.1035 Q369.4375,91.2129 369.4375,90.166 L369.4375,89.2129 Q369.4375,88.1191 369.9375,87.1816 Q370.4531,86.2285 371.3594,85.7129 Q372.2656,85.1973 373.2656,85.1973 Q373.875,85.1973 374.4063,85.3379 Q374.9375,85.4785 375.4063,85.7598 Z " fill="#000000"/><text fill="#000000" font-family="Arial" font-size="14" font-style="italic" lengthAdjust="spacing" textLength="47" x="397" y="86.7305">&#171;table&#187;</text><text fill="#000000" font-family="Arial" font-size="14" lengthAdjust="spacing" textLength="55" x="393" y="102.8291">products</text><line style="stroke:#181818;stroke-width:0.5;" x1="312" x2="499" y1="110.7959" y2="110.7959"/><text fill="#000000" font-family="Arial" font-size="14" lengthAdjust="spacing" textLength="120" x="317" y="127.9277">product_id uuid PK</text><line style="stroke:#181818;stroke-width:0.5;" x1="312" x2="499" y1="134.8945" y2="134.8945"/><text fill="#000000" font-family="Arial" font-size="14" lengthAdjust="spacing" textLength="177" x="317" y="152.0264">product_name varchar(200)</text><text fill="#000000" font-family="Arial" font-size="14" lengthAdjust="spacing" textLength="174" x="317" y="168.125">current_price decimal(12,2)</text></g><!--class payments--><g id="elem_payments"><rect codeLine="39" fill="#F1F1F1" height="138.6904" id="payments" rx="2.5" ry="2.5" style="stroke:#181818;stroke-width:0.5;" width="224" x="725.5" y="502.0986"/><ellipse cx="803" cy="523.1973" fill="#ADD1B2" rx="10" ry="10" style="stroke:#181818;stroke-width:1.0;"/><path d="M804.4063,519.2598 Q804.5313,519.0879 804.6875,519.0098 Q804.8438,518.916 805.0156,518.916 Q805.3281,518.916 805.5156,519.1348 Q805.7188,519.3379 805.7188,519.8379 L805.7188,521.0254 Q805.7188,521.541 805.5156,521.7598 Q805.3281,521.9629 805.0156,521.9629 Q804.7344,521.9629 804.5625,521.8066 Q804.3906,521.6504 804.3125,521.2285 Q804.2656,520.9316 804.125,520.7754 Q803.8438,520.4629 803.3281,520.291 Q802.8281,520.1035 802.3281,520.1035 Q801.7031,520.1035 801.1719,520.3848 Q800.6406,520.6504 800.2344,521.2754 Q799.8438,521.8848 799.8438,522.7285 L799.8438,523.6348 Q799.8438,524.6504 800.5781,525.3223 Q801.3125,525.9941 802.6094,525.9941 Q803.3906,525.9941 803.9375,525.791 Q804.25,525.666 804.6094,525.3066 Q804.8281,525.0879 804.9375,525.0254 Q805.0625,524.9473 805.2188,524.9473 Q805.5,524.9473 805.7188,525.166 Q805.9375,525.3848 805.9375,525.666 Q805.9375,525.9473 805.6406,526.2754 Q805.2188,526.7598 804.5625,527.0254 Q803.6875,527.4004 802.625,527.4004 Q801.375,527.4004 800.375,526.8848 Q799.5781,526.4785 799,525.6035 Q798.4375,524.7129 798.4375,523.666 L798.4375,522.7129 Q798.4375,521.6191 798.9375,520.6816 Q799.4531,519.7285 800.3594,519.2129 Q801.2656,518.6973 802.2656,518.6973 Q802.875,518.6973 803.4063,518.8379 Q803.9375,518.9785 804.4063,519.2598 Z " fill="#000000"/><text fill="#000000" font-family="Arial" font-size="14" font-style="italic" lengthAdjust="spacing" textLength="47" x="829" y="520.2305">&#171;table&#187;</text><text fill="#000000" font-family="Arial" font-size="14" lengthAdjust="spacing" textLength="61" x="822" y="536.3291">payments</text><line style="stroke:#181818;stroke-width:0.5;" x1="726.5" x2="948.5" y1="544.2959" y2="544.2959"/><text fill="#000000" font-family="Arial" font-size="14" lengthAdjust="spacing" textLength="126" x="731.5" y="561.4277">payment_id uuid PK</text><text fill="#000000" font-family="Arial" font-size="14" lengthAdjust="spacing" textLength="106" x="731.5" y="577.5264">order_id uuid FK</text><line style="stroke:#181818;stroke-width:0.5;" x1="726.5" x2="948.5" y1="584.4932" y2="584.4932"/><text fill="#000000" font-family="Arial" font-size="14" lengthAdjust="spacing" textLength="178" x="731.5" y="601.625">payment_status varchar(30)</text><text fill="#000000" font-family="Arial" font-size="14" lengthAdjust="spacing" textLength="212" x="731.5" y="617.7236">authorised_amount decimal(12,2)</text><text fill="#000000" font-family="Arial" font-size="14" lengthAdjust="spacing" textLength="207" x="731.5" y="633.8223">provider_reference varchar(100)</text></g><!--class shipments--><g id="elem_shipments"><rect codeLine="47" fill="#F1F1F1" height="122.5918" id="shipments" rx="2.5" ry="2.5" style="stroke:#181818;stroke-width:0.5;" width="217" x="729" y="234.0986"/><ellipse cx="801.5" cy="255.1973" fill="#ADD1B2" rx="10" ry="10" style="stroke:#181818;stroke-width:1.0;"/><path d="M802.9063,251.2598 Q803.0313,251.0879 803.1875,251.0098 Q803.3438,250.916 803.5156,250.916 Q803.8281,250.916 804.0156,251.1348 Q804.2188,251.3379 804.2188,251.8379 L804.2188,253.0254 Q804.2188,253.541 804.0156,253.7598 Q803.8281,253.9629 803.5156,253.9629 Q803.2344,253.9629 803.0625,253.8066 Q802.8906,253.6504 802.8125,253.2285 Q802.7656,252.9316 802.625,252.7754 Q802.3438,252.4629 801.8281,252.291 Q801.3281,252.1035 800.8281,252.1035 Q800.2031,252.1035 799.6719,252.3848 Q799.1406,252.6504 798.7344,253.2754 Q798.3438,253.8848 798.3438,254.7285 L798.3438,255.6348 Q798.3438,256.6504 799.0781,257.3223 Q799.8125,257.9941 801.1094,257.9941 Q801.8906,257.9941 802.4375,257.791 Q802.75,257.666 803.1094,257.3066 Q803.3281,257.0879 803.4375,257.0254 Q803.5625,256.9473 803.7188,256.9473 Q804,256.9473 804.2188,257.166 Q804.4375,257.3848 804.4375,257.666 Q804.4375,257.9473 804.1406,258.2754 Q803.7188,258.7598 803.0625,259.0254 Q802.1875,259.4004 801.125,259.4004 Q799.875,259.4004 798.875,258.8848 Q798.0781,258.4785 797.5,257.6035 Q796.9375,256.7129 796.9375,255.666 L796.9375,254.7129 Q796.9375,253.6191 797.4375,252.6816 Q797.9531,251.7285 798.8594,251.2129 Q799.7656,250.6973 800.7656,250.6973 Q801.375,250.6973 801.9063,250.8379 Q802.4375,250.9785 802.9063,251.2598 Z " fill="#000000"/><text fill="#000000" font-family="Arial" font-size="14" font-style="italic" lengthAdjust="spacing" textLength="47" x="829" y="252.2305">&#171;table&#187;</text><text fill="#000000" font-family="Arial" font-size="14" lengthAdjust="spacing" textLength="64" x="820.5" y="268.3291">shipments</text><line style="stroke:#181818;stroke-width:0.5;" x1="730" x2="945" y1="276.2959" y2="276.2959"/><text fill="#000000" font-family="Arial" font-size="14" lengthAdjust="spacing" textLength="129" x="735" y="293.4277">shipment_id uuid PK</text><text fill="#000000" font-family="Arial" font-size="14" lengthAdjust="spacing" textLength="106" x="735" y="309.5264">order_id uuid FK</text><line style="stroke:#181818;stroke-width:0.5;" x1="730" x2="945" y1="316.4932" y2="316.4932"/><text fill="#000000" font-family="Arial" font-size="14" lengthAdjust="spacing" textLength="181" x="735" y="333.625">shipment_status varchar(30)</text><text fill="#000000" font-family="Arial" font-size="14" lengthAdjust="spacing" textLength="205" x="735" y="349.7236">tracking_reference varchar(100)</text></g><g id="elem_GMN13"><path d="M560,392.5986 L560,466.9932 A0,0 0 0 0 560,466.9932 L1115,466.9932 A0,0 0 0 0 1115,466.9932 L1115,402.5986 L1105,392.5986 L842,392.5986 L838,357.1086 L834,392.5986 L560,392.5986 A0,0 0 0 0 560,392.5986 " fill="#FFF8DC" style="stroke:#666666;stroke-width:0.5;"/><path d="M1105,392.5986 L1105,402.5986 L1115,402.5986 L1105,392.5986 " fill="#FFF8DC" style="stroke:#666666;stroke-width:0.5;"/><text fill="#000000" font-family="Arial" font-size="14" lengthAdjust="spacing" textLength="222" x="566" y="410.7305">Relational implementation example.</text><text fill="#000000" font-family="Arial" font-size="14" lengthAdjust="spacing" textLength="534" x="566" y="426.8291">It adds table names, column names, generic data types, key choices and constraints.</text><text fill="#000000" font-family="Arial" font-size="14" lengthAdjust="spacing" textLength="282" x="566" y="442.9277">It is not a fully DBMS-specific physical model.</text><text fill="#000000" font-family="Arial" font-size="14" lengthAdjust="spacing" textLength="394" x="566" y="459.0264">Basket is excluded because this view starts with placed orders.</text></g><!--link customers to orders--><g id="link_customers_orders"><path codeLine="54" d="M251.08,295.5986 C271.91,295.5986 293.24,295.5986 313.14,295.5986 " fill="none" id="customers-orders" style="stroke:#333333;stroke-width:1.2;"/><text fill="#000000" font-family="Arial" font-size="14" lengthAdjust="spacing" textLength="77" x="204.11" y="291.7305">customer_id</text><text fill="#000000" font-family="Arial" font-size="14" lengthAdjust="spacing" textLength="8" x="259.157" y="309.2592">1</text><text fill="#000000" font-family="Arial" font-size="14" lengthAdjust="spacing" textLength="21" x="284.5862" y="309.333">0..*</text></g><!--reverse link orders to order_lines--><g id="link_orders_order_lines"><path codeLine="55" d="M509.75,230.0986 C636.77,230.0986 838,230.0986 838,230.0986 C838,230.0986 838,216.6886 838,199.2986 " fill="none" id="orders-backto-order_lines" style="stroke:#333333;stroke-width:1.2;"/><polygon fill="#333333" points="497.75,230.0986,503.75,234.0986,509.75,230.0986,503.75,226.0986,497.75,230.0986" style="stroke:#333333;stroke-width:1.2;"/><text fill="#000000" font-family="Arial" font-size="14" lengthAdjust="spacing" textLength="53" x="629.28" y="244.2305">order_id</text><text fill="#000000" font-family="Arial" font-size="14" lengthAdjust="spacing" textLength="8" x="505.4199" y="238.6647">1</text><text fill="#000000" font-family="Arial" font-size="14" lengthAdjust="spacing" textLength="21" x="816.1094" y="220.0769">1..*</text></g><!--link products to order_lines--><g id="link_products_order_lines"><path codeLine="56" d="M500.04,121.5986 C576.27,121.5986 682.41,121.5986 755.19,121.5986 " fill="none" id="products-order_lines" style="stroke:#333333;stroke-width:1.2;"/><text fill="#000000" font-family="Arial" font-size="14" lengthAdjust="spacing" textLength="67" x="559.61" y="135.7305">product_id</text><text fill="#000000" font-family="Arial" font-size="14" lengthAdjust="spacing" textLength="8" x="507.8924" y="135.3522">1</text><text fill="#000000" font-family="Arial" font-size="14" lengthAdjust="spacing" textLength="21" x="726.5042" y="135.4058">0..*</text></g><!--link orders to payments--><g id="link_orders_payments"><path codeLine="57" d="M406,365.2486 C406,447.0086 406,571.5986 406,571.5986 C406,571.5986 597.4,571.5986 725.25,571.5986 " fill="none" id="orders-payments" style="stroke:#333333;stroke-width:1.2;"/><text fill="#000000" font-family="Arial" font-size="14" lengthAdjust="spacing" textLength="53" x="408.45" y="585.7305">order_id</text><text fill="#000000" font-family="Arial" font-size="14" lengthAdjust="spacing" textLength="8" x="397.6664" y="385.8009">1</text><text fill="#000000" font-family="Arial" font-size="14" lengthAdjust="spacing" textLength="21" x="696.3863" y="585.256">0..*</text></g><!--link orders to shipments--><g id="link_orders_shipments"><path codeLine="58" d="M497.64,295.5986 C565.29,295.5986 657.42,295.5986 728.7,295.5986 " fill="none" id="orders-shipments" style="stroke:#333333;stroke-width:1.2;"/><text fill="#000000" font-family="Arial" font-size="14" lengthAdjust="spacing" textLength="53" x="559.17" y="309.7305">order_id</text><text fill="#000000" font-family="Arial" font-size="14" lengthAdjust="spacing" textLength="8" x="505.6016" y="309.4099">1</text><text fill="#000000" font-family="Arial" font-size="14" lengthAdjust="spacing" textLength="21" x="700.0573" y="309.2592">0..*</text></g><!--SRC=[XPHHJzim4CVVyobkVG94GrfU9eIGXZQc2crZgtYkNEVQM3XsPf-1RjfttpcaIHgo8LLLU_dx_BlxN-wTCbA7725Dp_ZZQQVHdrLQ60gbdbA19QOL_qmIZHi2ik3KjY38bKD9ofg456c4cyNdQVP-cfsdyCrePH2MP1s2GosYJ6YmBaS7ggmq9pLKXw6qEN9o_w1C9PmeGMhX_GSYfzQ1S26jMQfV25bF4jFJhaBEI8LDale8oE39bkWyN5wIM6kykeBV2RJnbSeX1Fwwk-KebaBfbSXpXtpsKJXP27TqFi-EuVxhullzf_v9px2XfygEurE7WZ1V2UwAAf4rPPNysTFKnGvHwk0XnokwczjME7ejUoE7jmBxGeBBAMqmx0rALGfzD9kVpey7IAlOl76k-EGGxf2t9gkSpOEam-3FmFEYQ0VA46xHSIWOHQlAAOa37AZjMzN0_o9jBXbY3k- -wmCPKMBRgddsOb5mZYTjbAExJEpYEBwwx2NyTaCQtQXP8l20EkMZOMFUrFYFAYPrk466bLqHirX4Y-aBLOrnxkDlWhR2KL9oGl8BjlqVH_k2JMOJc4vXagNfoMG_wXVzMKwQO5IUHEciapOZUD529gtV8ubRTUT-FtcdRdti9HuLTftiAHDZ2M5jYIlWTlperjPWOU6pY86KHGi2NY0UQZiW3g0_1MbrACt-tnODyl11BaX0t5aSUy0ToCBoI7eG9kSJndFx-TtnJLRbWN50m2PelOEFrr-MKr_nv6muLLNil98CLg_EUE9Q-0UiJ-5plSrpMACKmIDGmT57XK_0hZik-KbHqUoGnhWqGOQ8vVy5]--></g></svg>