<?xml version="1.0" encoding="us-ascii" standalone="no"?><svg xmlns="http://www.w3.org/2000/svg" xmlns:xlink="http://www.w3.org/1999/xlink" contentStyleType="text/css" height="1421px" preserveAspectRatio="none" style="width:1165px;height:1421px;background:#FFFFFF;" version="1.1" viewBox="0 0 1165 1421" width="1165px" zoomAndPan="magnify"><defs/><g><text fill="#000000" font-family="Arial" font-size="14" font-weight="bold" lengthAdjust="spacing" textLength="312" x="425.75" y="28.1318">FIG-10-04. Horizon Bank Payment Event Flow</text><rect fill="none" height="523.5645" style="stroke:#000000;stroke-width:1.5;" width="697.5" x="196" y="570.3672"/><line style="stroke:#666666;stroke-width:0.5;stroke-dasharray:5.0,5.0;" x1="57" x2="57" y1="89.2959" y2="1267.7207"/><line style="stroke:#666666;stroke-width:0.5;stroke-dasharray:5.0,5.0;" x1="244" x2="244" y1="89.2959" y2="1267.7207"/><line style="stroke:#666666;stroke-width:0.5;stroke-dasharray:5.0,5.0;" x1="440" x2="440" y1="89.2959" y2="1267.7207"/><line style="stroke:#666666;stroke-width:0.5;stroke-dasharray:5.0,5.0;" x1="554" x2="554" y1="89.2959" y2="1267.7207"/><line style="stroke:#666666;stroke-width:0.5;stroke-dasharray:5.0,5.0;" x1="680" x2="680" y1="89.2959" y2="1267.7207"/><line style="stroke:#666666;stroke-width:0.5;stroke-dasharray:5.0,5.0;" x1="826.5" x2="826.5" y1="89.2959" y2="1267.7207"/><line style="stroke:#666666;stroke-width:0.5;stroke-dasharray:5.0,5.0;" x1="949.5" x2="949.5" y1="89.2959" y2="1267.7207"/><line style="stroke:#666666;stroke-width:0.5;stroke-dasharray:5.0,5.0;" x1="1087.5" x2="1087.5" y1="89.2959" y2="1267.7207"/><rect fill="#F7F9FB" height="46.1973" rx="2.5" ry="2.5" style="stroke:#333333;stroke-width:0.5;" width="104" x="5" y="42.0986"/><text fill="#000000" font-family="Arial" font-size="14" lengthAdjust="spacing" textLength="90" x="12" y="62.2305">Horizon Digital</text><text fill="#000000" font-family="Arial" font-size="14" lengthAdjust="spacing" textLength="60" x="27" y="78.3291">Channels</text><rect fill="#F7F9FB" height="46.1973" rx="2.5" ry="2.5" style="stroke:#333333;stroke-width:0.5;" width="104" x="5" y="1266.7207"/><text fill="#000000" font-family="Arial" font-size="14" lengthAdjust="spacing" textLength="90" x="12" y="1286.8525">Horizon Digital</text><text fill="#000000" font-family="Arial" font-size="14" lengthAdjust="spacing" textLength="60" x="27" y="1302.9512">Channels</text><rect fill="#F7F9FB" height="46.1973" rx="2.5" ry="2.5" style="stroke:#333333;stroke-width:0.5;" width="76" x="206" y="42.0986"/><text fill="#000000" font-family="Arial" font-size="14" lengthAdjust="spacing" textLength="62" x="213" y="62.2305">Payments</text><text fill="#000000" font-family="Arial" font-size="14" lengthAdjust="spacing" textLength="52" x="218" y="78.3291">Platform</text><rect fill="#F7F9FB" height="46.1973" rx="2.5" ry="2.5" style="stroke:#333333;stroke-width:0.5;" width="76" x="206" y="1266.7207"/><text fill="#000000" font-family="Arial" font-size="14" lengthAdjust="spacing" textLength="62" x="213" y="1286.8525">Payments</text><text fill="#000000" font-family="Arial" font-size="14" lengthAdjust="spacing" textLength="52" x="218" y="1302.9512">Platform</text><rect fill="#F7F9FB" height="46.1973" rx="2.5" ry="2.5" style="stroke:#333333;stroke-width:0.5;" width="112" x="384" y="42.0986"/><text fill="#000000" font-family="Arial" font-size="14" lengthAdjust="spacing" textLength="98" x="391" y="62.2305">Financial Crime</text><text fill="#000000" font-family="Arial" font-size="14" lengthAdjust="spacing" textLength="52" x="414" y="78.3291">Platform</text><rect fill="#F7F9FB" height="46.1973" rx="2.5" ry="2.5" style="stroke:#333333;stroke-width:0.5;" width="112" x="384" y="1266.7207"/><text fill="#000000" font-family="Arial" font-size="14" lengthAdjust="spacing" textLength="98" x="391" y="1286.8525">Financial Crime</text><text fill="#000000" font-family="Arial" font-size="14" lengthAdjust="spacing" textLength="52" x="414" y="1302.9512">Platform</text><rect fill="#F7F9FB" height="46.1973" rx="2.5" ry="2.5" style="stroke:#333333;stroke-width:0.5;" width="97" x="506" y="42.0986"/><text fill="#000000" font-family="Arial" font-size="14" lengthAdjust="spacing" textLength="83" x="513" y="62.2305">Core Deposit</text><text fill="#000000" font-family="Arial" font-size="14" lengthAdjust="spacing" textLength="46" x="531.5" y="78.3291">System</text><rect fill="#F7F9FB" height="46.1973" rx="2.5" ry="2.5" style="stroke:#333333;stroke-width:0.5;" width="97" x="506" y="1266.7207"/><text fill="#000000" font-family="Arial" font-size="14" lengthAdjust="spacing" textLength="83" x="513" y="1286.8525">Core Deposit</text><text fill="#000000" font-family="Arial" font-size="14" lengthAdjust="spacing" textLength="46" x="531.5" y="1302.9512">System</text><rect fill="#F7F9FB" height="30.0986" rx="2.5" ry="2.5" style="stroke:#333333;stroke-width:0.5;" width="135" x="613" y="58.1973"/><text fill="#000000" font-family="Arial" font-size="14" lengthAdjust="spacing" textLength="121" x="620" y="78.3291">Fraud Investigation</text><rect fill="#F7F9FB" height="30.0986" rx="2.5" ry="2.5" style="stroke:#333333;stroke-width:0.5;" width="135" x="613" y="1266.7207"/><text fill="#000000" font-family="Arial" font-size="14" lengthAdjust="spacing" textLength="121" x="620" y="1286.8525">Fraud Investigation</text><path d="M774.5,47.0986 L878.5,47.0986 C883.5,47.0986 883.5,68.1973 883.5,68.1973 C883.5,68.1973 883.5,89.2959 878.5,89.2959 L774.5,89.2959 C769.5,89.2959 769.5,68.1973 769.5,68.1973 C769.5,68.1973 769.5,47.0986 774.5,47.0986 " fill="#E2E2F0" style="stroke:#181818;stroke-width:0.5;"/><path d="M878.5,47.0986 C873.5,47.0986 873.5,68.1973 873.5,68.1973 C873.5,89.2959 878.5,89.2959 878.5,89.2959 " fill="none" style="stroke:#181818;stroke-width:0.5;"/><text fill="#000000" font-family="Arial" font-size="14" lengthAdjust="spacing" textLength="92" x="775.5" y="65.2305">Event Platform</text><text fill="#000000" font-family="Arial" font-size="14" lengthAdjust="spacing" textLength="94" x="774.5" y="81.3291">&#171;Intermediary&#187;</text><path d="M774.5,1266.7207 L878.5,1266.7207 C883.5,1266.7207 883.5,1287.8193 883.5,1287.8193 C883.5,1287.8193 883.5,1308.918 878.5,1308.918 L774.5,1308.918 C769.5,1308.918 769.5,1287.8193 769.5,1287.8193 C769.5,1287.8193 769.5,1266.7207 774.5,1266.7207 " fill="#E2E2F0" style="stroke:#181818;stroke-width:0.5;"/><path d="M878.5,1266.7207 C873.5,1266.7207 873.5,1287.8193 873.5,1287.8193 C873.5,1308.918 878.5,1308.918 878.5,1308.918 " fill="none" style="stroke:#181818;stroke-width:0.5;"/><text fill="#000000" font-family="Arial" font-size="14" lengthAdjust="spacing" textLength="92" x="775.5" y="1284.8525">Event Platform</text><text fill="#000000" font-family="Arial" font-size="14" lengthAdjust="spacing" textLength="94" x="774.5" y="1300.9512">&#171;Intermediary&#187;</text><rect fill="#F7F9FB" height="46.1973" rx="2.5" ry="2.5" style="stroke:#333333;stroke-width:0.5;" width="113" x="893.5" y="42.0986"/><text fill="#000000" font-family="Arial" font-size="14" lengthAdjust="spacing" textLength="99" x="900.5" y="62.2305">Enterprise Data</text><text fill="#000000" font-family="Arial" font-size="14" lengthAdjust="spacing" textLength="52" x="924" y="78.3291">Platform</text><rect fill="#F7F9FB" height="46.1973" rx="2.5" ry="2.5" style="stroke:#333333;stroke-width:0.5;" width="113" x="893.5" y="1266.7207"/><text fill="#000000" font-family="Arial" font-size="14" lengthAdjust="spacing" textLength="99" x="900.5" y="1286.8525">Enterprise Data</text><text fill="#000000" font-family="Arial" font-size="14" lengthAdjust="spacing" textLength="52" x="924" y="1302.9512">Platform</text><rect fill="#F7F9FB" height="46.1973" rx="2.5" ry="2.5" style="stroke:#333333;stroke-width:0.5;" width="143" x="1016.5" y="42.0986"/><text fill="#000000" font-family="Arial" font-size="14" lengthAdjust="spacing" textLength="129" x="1023.5" y="62.2305">Operations Payment</text><text fill="#000000" font-family="Arial" font-size="14" lengthAdjust="spacing" textLength="73" x="1051.5" y="78.3291">Status View</text><rect fill="#F7F9FB" height="46.1973" rx="2.5" ry="2.5" style="stroke:#333333;stroke-width:0.5;" width="143" x="1016.5" y="1266.7207"/><text fill="#000000" font-family="Arial" font-size="14" lengthAdjust="spacing" textLength="129" x="1023.5" y="1286.8525">Operations Payment</text><text fill="#000000" font-family="Arial" font-size="14" lengthAdjust="spacing" textLength="73" x="1051.5" y="1302.9512">Status View</text><polygon fill="#333333" points="232,133.4932,242,137.4932,232,141.4932,236,137.4932" style="stroke:#333333;stroke-width:1.0;"/><line style="stroke:#333333;stroke-width:1.2;" x1="57" x2="238" y1="137.4932" y2="137.4932"/><text fill="#000000" font-family="Arial" font-size="14" lengthAdjust="spacing" textLength="69" x="64" y="116.4277">[command]</text><text fill="#000000" font-family="Arial" font-size="14" lengthAdjust="spacing" textLength="163" x="64" y="132.5264">SubmitPaymentInstruction</text><polygon fill="#2E7D32" points="814.5,195.7891,824.5,199.7891,814.5,203.7891,818.5,199.7891" style="stroke:#2E7D32;stroke-width:1.0;"/><line style="stroke:#2E7D32;stroke-width:1.2;" x1="244" x2="820.5" y1="199.7891" y2="199.7891"/><text fill="#000000" font-family="Arial" font-size="14" lengthAdjust="spacing" textLength="65" x="251" y="162.625">[published</text><text fill="#000000" font-family="Arial" font-size="14" lengthAdjust="spacing" textLength="39" x="251" y="178.7236">event]</text><text fill="#000000" font-family="Arial" font-size="14" lengthAdjust="spacing" textLength="179" x="251" y="194.8223">PaymentInstructionReceived</text><polygon fill="#2E7D32" points="938,241.9863,948,245.9863,938,249.9863,942,245.9863" style="stroke:#2E7D32;stroke-width:1.0;"/><line style="stroke:#2E7D32;stroke-width:1.2;" x1="826.5" x2="944" y1="245.9863" y2="245.9863"/><text fill="#000000" font-family="Arial" font-size="14" lengthAdjust="spacing" textLength="58" x="833.5" y="224.9209">distribute</text><text fill="#000000" font-family="Arial" font-size="14" lengthAdjust="spacing" textLength="35" x="833.5" y="241.0195">event</text><polygon fill="#2E7D32" points="1076,288.1836,1086,292.1836,1076,296.1836,1080,292.1836" style="stroke:#2E7D32;stroke-width:1.0;"/><line style="stroke:#2E7D32;stroke-width:1.2;" x1="826.5" x2="1082" y1="292.1836" y2="292.1836"/><text fill="#000000" font-family="Arial" font-size="14" lengthAdjust="spacing" textLength="58" x="833.5" y="271.1182">distribute</text><text fill="#000000" font-family="Arial" font-size="14" lengthAdjust="spacing" textLength="35" x="833.5" y="287.2168">event</text><polygon fill="#333333" points="428,334.3809,438,338.3809,428,342.3809,432,338.3809" style="stroke:#333333;stroke-width:1.0;"/><line style="stroke:#333333;stroke-width:1.2;" x1="244" x2="434" y1="338.3809" y2="338.3809"/><text fill="#000000" font-family="Arial" font-size="14" lengthAdjust="spacing" textLength="33" x="251" y="317.3154">[sync</text><text fill="#000000" font-family="Arial" font-size="14" lengthAdjust="spacing" textLength="4" x="284" y="317.3154">&#160;</text><text fill="#000000" font-family="Arial" font-size="14" lengthAdjust="spacing" textLength="52" x="288" y="317.3154">request]</text><text fill="#000000" font-family="Arial" font-size="14" lengthAdjust="spacing" textLength="172" x="251" y="333.4141">RequestPaymentScreening</text><polygon fill="#333333" points="255,396.6768,245,400.6768,255,404.6768,251,400.6768" style="stroke:#333333;stroke-width:1.0;"/><line style="stroke:#333333;stroke-width:1.2;stroke-dasharray:2.0,2.0;" x1="249" x2="439" y1="400.6768" y2="400.6768"/><text fill="#000000" font-family="Arial" font-size="14" lengthAdjust="spacing" textLength="67" x="261" y="363.5127">[response]</text><text fill="#000000" font-family="Arial" font-size="14" lengthAdjust="spacing" textLength="62" x="261" y="379.6113">screening</text><text fill="#000000" font-family="Arial" font-size="14" lengthAdjust="spacing" textLength="54" x="261" y="395.71">outcome</text><polygon fill="#2E7D32" points="814.5,458.9727,824.5,462.9727,814.5,466.9727,818.5,462.9727" style="stroke:#2E7D32;stroke-width:1.0;"/><line style="stroke:#2E7D32;stroke-width:1.2;" x1="440" x2="820.5" y1="462.9727" y2="462.9727"/><text fill="#000000" font-family="Arial" font-size="14" lengthAdjust="spacing" textLength="65" x="447" y="425.8086">[published</text><text fill="#000000" font-family="Arial" font-size="14" lengthAdjust="spacing" textLength="39" x="447" y="441.9072">event]</text><text fill="#000000" font-family="Arial" font-size="14" lengthAdjust="spacing" textLength="187" x="447" y="458.0059">PaymentScreeningCompleted</text><polygon fill="#2E7D32" points="938,505.1699,948,509.1699,938,513.1699,942,509.1699" style="stroke:#2E7D32;stroke-width:1.0;"/><line style="stroke:#2E7D32;stroke-width:1.2;" x1="826.5" x2="944" y1="509.1699" y2="509.1699"/><text fill="#000000" font-family="Arial" font-size="14" lengthAdjust="spacing" textLength="58" x="833.5" y="488.1045">distribute</text><text fill="#000000" font-family="Arial" font-size="14" lengthAdjust="spacing" textLength="35" x="833.5" y="504.2031">event</text><polygon fill="#2E7D32" points="1076,551.3672,1086,555.3672,1076,559.3672,1080,555.3672" style="stroke:#2E7D32;stroke-width:1.0;"/><line style="stroke:#2E7D32;stroke-width:1.2;" x1="826.5" x2="1082" y1="555.3672" y2="555.3672"/><text fill="#000000" font-family="Arial" font-size="14" lengthAdjust="spacing" textLength="58" x="833.5" y="534.3018">distribute</text><text fill="#000000" font-family="Arial" font-size="14" lengthAdjust="spacing" textLength="35" x="833.5" y="550.4004">event</text><path d="M196,570.3672 L258,570.3672 L258,578.4658 L248,588.4658 L196,588.4658 L196,570.3672 " fill="#EEEEEE" style="stroke:#000000;stroke-width:1.5;"/><rect fill="none" height="523.5645" style="stroke:#000000;stroke-width:1.5;" width="697.5" x="196" y="570.3672"/><text fill="#000000" font-family="Arial" font-size="14" font-weight="bold" lengthAdjust="spacing" textLength="17" x="211" y="584.499">alt</text><text fill="#000000" font-family="Arial" font-size="14" font-weight="bold" lengthAdjust="spacing" textLength="95" x="273" y="585.499">[route = post]</text><polygon fill="#333333" points="542.5,623.7617,552.5,627.7617,542.5,631.7617,546.5,627.7617" style="stroke:#333333;stroke-width:1.0;"/><line style="stroke:#333333;stroke-width:1.2;" x1="244" x2="548.5" y1="627.7617" y2="627.7617"/><text fill="#000000" font-family="Arial" font-size="14" lengthAdjust="spacing" textLength="69" x="251" y="606.6963">[command]</text><text fill="#000000" font-family="Arial" font-size="14" lengthAdjust="spacing" textLength="83" x="251" y="622.7949">PostPayment</text><polygon fill="#333333" points="255,686.0576,245,690.0576,255,694.0576,251,690.0576" style="stroke:#333333;stroke-width:1.0;"/><line style="stroke:#333333;stroke-width:1.2;stroke-dasharray:2.0,2.0;" x1="249" x2="553.5" y1="690.0576" y2="690.0576"/><text fill="#000000" font-family="Arial" font-size="14" lengthAdjust="spacing" textLength="67" x="261" y="652.8936">[response]</text><text fill="#000000" font-family="Arial" font-size="14" lengthAdjust="spacing" textLength="46" x="261" y="668.9922">posting</text><text fill="#000000" font-family="Arial" font-size="14" lengthAdjust="spacing" textLength="58" x="261" y="685.0908">accepted</text><polygon fill="#2E7D32" points="814.5,748.3535,824.5,752.3535,814.5,756.3535,818.5,752.3535" style="stroke:#2E7D32;stroke-width:1.0;"/><line style="stroke:#2E7D32;stroke-width:1.2;" x1="244" x2="820.5" y1="752.3535" y2="752.3535"/><text fill="#000000" font-family="Arial" font-size="14" lengthAdjust="spacing" textLength="65" x="251" y="715.1895">[published</text><text fill="#000000" font-family="Arial" font-size="14" lengthAdjust="spacing" textLength="39" x="251" y="731.2881">event]</text><text fill="#000000" font-family="Arial" font-size="14" lengthAdjust="spacing" textLength="99" x="251" y="747.3867">PaymentPosted</text><line style="stroke:#000000;stroke-width:1.0;stroke-dasharray:2.0,2.0;" x1="196" x2="893.5" y1="761.3535" y2="761.3535"/><text fill="#000000" font-family="Arial" font-size="14" font-weight="bold" lengthAdjust="spacing" textLength="106" x="201" y="774.4854">[route = repair]</text><polygon fill="#2E7D32" points="814.5,828.748,824.5,832.748,814.5,836.748,818.5,832.748" style="stroke:#2E7D32;stroke-width:1.0;"/><line style="stroke:#2E7D32;stroke-width:1.2;" x1="244" x2="820.5" y1="832.748" y2="832.748"/><text fill="#000000" font-family="Arial" font-size="14" lengthAdjust="spacing" textLength="65" x="251" y="795.584">[published</text><text fill="#000000" font-family="Arial" font-size="14" lengthAdjust="spacing" textLength="39" x="251" y="811.6826">event]</text><text fill="#000000" font-family="Arial" font-size="14" lengthAdjust="spacing" textLength="166" x="251" y="827.7813">PaymentRepairRequested</text><line style="stroke:#000000;stroke-width:1.0;stroke-dasharray:2.0,2.0;" x1="196" x2="893.5" y1="841.748" y2="841.748"/><text fill="#000000" font-family="Arial" font-size="14" font-weight="bold" lengthAdjust="spacing" textLength="105" x="201" y="854.8799">[route = reject]</text><polygon fill="#2E7D32" points="814.5,909.1426,824.5,913.1426,814.5,917.1426,818.5,913.1426" style="stroke:#2E7D32;stroke-width:1.0;"/><line style="stroke:#2E7D32;stroke-width:1.2;" x1="244" x2="820.5" y1="913.1426" y2="913.1426"/><text fill="#000000" font-family="Arial" font-size="14" lengthAdjust="spacing" textLength="65" x="251" y="875.9785">[published</text><text fill="#000000" font-family="Arial" font-size="14" lengthAdjust="spacing" textLength="39" x="251" y="892.0771">event]</text><text fill="#000000" font-family="Arial" font-size="14" lengthAdjust="spacing" textLength="111" x="251" y="908.1758">PaymentRejected</text><line style="stroke:#000000;stroke-width:1.0;stroke-dasharray:2.0,2.0;" x1="196" x2="893.5" y1="922.1426" y2="922.1426"/><text fill="#000000" font-family="Arial" font-size="14" font-weight="bold" lengthAdjust="spacing" textLength="138" x="201" y="935.2744">[route = fraud case]</text><polygon fill="#333333" points="668.5,973.4385,678.5,977.4385,668.5,981.4385,672.5,977.4385" style="stroke:#333333;stroke-width:1.0;"/><line style="stroke:#333333;stroke-width:1.2;" x1="244" x2="674.5" y1="977.4385" y2="977.4385"/><text fill="#000000" font-family="Arial" font-size="14" lengthAdjust="spacing" textLength="69" x="251" y="956.373">[command]</text><text fill="#000000" font-family="Arial" font-size="14" lengthAdjust="spacing" textLength="106" x="251" y="972.4717">OpenFraudCase</text><polygon fill="#333333" points="255,1019.6357,245,1023.6357,255,1027.6357,251,1023.6357" style="stroke:#333333;stroke-width:1.0;"/><line style="stroke:#333333;stroke-width:1.2;stroke-dasharray:2.0,2.0;" x1="249" x2="679.5" y1="1023.6357" y2="1023.6357"/><text fill="#000000" font-family="Arial" font-size="14" lengthAdjust="spacing" textLength="67" x="261" y="1002.5703">[response]</text><text fill="#000000" font-family="Arial" font-size="14" lengthAdjust="spacing" textLength="30" x="261" y="1018.6689">case</text><text fill="#000000" font-family="Arial" font-size="14" lengthAdjust="spacing" textLength="4" x="291" y="1018.6689">&#160;</text><text fill="#000000" font-family="Arial" font-size="14" lengthAdjust="spacing" textLength="48" x="295" y="1018.6689">opened</text><polygon fill="#2E7D32" points="814.5,1081.9316,824.5,1085.9316,814.5,1089.9316,818.5,1085.9316" style="stroke:#2E7D32;stroke-width:1.0;"/><line style="stroke:#2E7D32;stroke-width:1.2;" x1="680.5" x2="820.5" y1="1085.9316" y2="1085.9316"/><text fill="#000000" font-family="Arial" font-size="14" lengthAdjust="spacing" textLength="65" x="687.5" y="1048.7676">[published</text><text fill="#000000" font-family="Arial" font-size="14" lengthAdjust="spacing" textLength="39" x="687.5" y="1064.8662">event]</text><text fill="#000000" font-family="Arial" font-size="14" lengthAdjust="spacing" textLength="122" x="687.5" y="1080.9648">FraudCaseOpened</text><polygon fill="#2E7D32" points="938,1167.3262,948,1171.3262,938,1175.3262,942,1171.3262" style="stroke:#2E7D32;stroke-width:1.0;"/><line style="stroke:#2E7D32;stroke-width:1.2;" x1="826.5" x2="944" y1="1171.3262" y2="1171.3262"/><text fill="#000000" font-family="Arial" font-size="14" lengthAdjust="spacing" textLength="58" x="833.5" y="1118.0635">distribute</text><text fill="#000000" font-family="Arial" font-size="14" lengthAdjust="spacing" textLength="53" x="833.5" y="1134.1621">selected</text><text fill="#000000" font-family="Arial" font-size="14" lengthAdjust="spacing" textLength="54" x="833.5" y="1150.2607">outcome</text><text fill="#000000" font-family="Arial" font-size="14" lengthAdjust="spacing" textLength="42" x="833.5" y="1166.3594">events</text><polygon fill="#2E7D32" points="1076,1245.7207,1086,1249.7207,1076,1253.7207,1080,1249.7207" style="stroke:#2E7D32;stroke-width:1.0;"/><line style="stroke:#2E7D32;stroke-width:1.2;" x1="826.5" x2="1082" y1="1249.7207" y2="1249.7207"/><text fill="#000000" font-family="Arial" font-size="14" lengthAdjust="spacing" textLength="58" x="833.5" y="1196.458">distribute</text><text fill="#000000" font-family="Arial" font-size="14" lengthAdjust="spacing" textLength="53" x="833.5" y="1212.5566">selected</text><text fill="#000000" font-family="Arial" font-size="14" lengthAdjust="spacing" textLength="54" x="833.5" y="1228.6553">outcome</text><text fill="#000000" font-family="Arial" font-size="14" lengthAdjust="spacing" textLength="42" x="833.5" y="1244.7539">events</text><rect fill="none" height="74.3945" id="_legend" rx="7.5" ry="7.5" style="stroke:#000000;stroke-width:1.0;" width="483" x="340.25" y="1326.918"/><text fill="#000000" font-family="Arial" font-size="14" lengthAdjust="spacing" textLength="376" x="345.25" y="1345.0498">Solid black arrows are commands or synchronous requests.</text><text fill="#000000" font-family="Arial" font-size="14" lengthAdjust="spacing" textLength="194" x="345.25" y="1361.1484">Dashed arrows are responses.</text><text fill="#000000" font-family="Arial" font-size="14" lengthAdjust="spacing" textLength="417" x="345.25" y="1377.2471">Green labelled arrows are published domain or integration events.</text><text fill="#000000" font-family="Arial" font-size="14" lengthAdjust="spacing" textLength="473" x="345.25" y="1393.3457">Event Platform distributes events but does not own their business meaning.</text><!--SRC=[nLPDJnin4BtxLqpXd42XQaL58vM4q4XKH4JgXN2Ox0w9YzVUsbvegFhVE_P-P3TGfD9ANKL9RBzvC_F67kyhgHDLf0Jz_Xv_d5yhSdkvGksBJFNyYZBgv_nN22-z8XXFpdglztlxR_hmoLZvO3ISeBw5AQupqXvExyBtM9bx8Tojr3bQpC3Hju9qGl1307oqrjmFZJ8MTW_ZmvFdyeREfQOJOrEorUhR-BHNCRbTMbFej4ACuyE8ALel4vbpu1sAna4Ry8ZbtVXeV29-jYBEyFjdSWwND9CF14VxGkGR1jYfan_9fVIevdguGgr9kHr01_MWQrDfvEPwgj3V69j5S3tT1O-bHfr8L32qCgCj6rwDqrsReR448ygDatwkPsldgOI7XIrwYqKA4tr7piibUcbqIHpc1LUh8DWfYraxdklZuudsP3DA9ThrO10j8gZ6T9sS1dHkfUEeqEDM3c7gQRkBd6mCgH67i_7e2mTV9Dr7wt8SXaBKSaDlqAW9x-4gCLc6EhrcwsAHIL-jJRJpjaY20z70UrUx1wVlHeS7ruDkIe4eBnPAkXMbG6692HzJNL92yevIqRLkyxOpPjfKih5S59vAscSiDza-PTVAOj1iZH2tM-i4R3XyBWHzMVwhqBF44ccfbw8nwMq9QCdbN0LYMrUZmHIUXQMMrOkaQzmFJPOhylz7ELGUk1Nmn0VWS-DZfzY86KzKPoTDJICWO-FwCwe5og0P9Wdb8SKs_Oja2_wPXtSxDO5Rob7Ql-U-Z3pLBddiv2ib_byu2JpRx3Un7oNeQAi2PQFgb83RWuxJmn9UGfwfGg05mrQn01Nypu9l_5sKDAHJyQBzwaZ5zEjZL7fmBzZ1lsCIYfOS7YoCzoOJCwCa3nHVUe3XwdNyGr39wO0lmD0cLjPemmsswXQkBqOO5MZPr9BoubaulA1mGKfrGHljKfEXrC61v8jWMRRqAig-w5ukhSHS1G4UC0UFjV5WxZNmwuYqFEtuLS0vo0X3_-Y7OfGv_m80]--></g></svg>