<?xml version="1.0" encoding="us-ascii" standalone="no"?><svg xmlns="http://www.w3.org/2000/svg" xmlns:xlink="http://www.w3.org/1999/xlink" contentStyleType="text/css" height="457px" preserveAspectRatio="none" style="width:1762px;height:457px;background:#FFFFFF;" version="1.1" viewBox="0 0 1762 457" width="1762px" zoomAndPan="magnify"><defs/><g><text fill="#000000" font-family="Arial" font-size="14" font-weight="bold" lengthAdjust="spacing" textLength="329" x="709.5981" y="23.1318">FIG-11-02. Online Store Network Topology View</text><!--cluster EdgeZone--><g id="cluster_EdgeZone"><rect fill="#F7F9FB" height="120" rx="2.5" ry="2.5" style="stroke:#333333;stroke-width:1.0;" width="532.5" x="384.6963" y="69.0986"/><text fill="#000000" font-family="Arial" font-size="14" font-weight="bold" lengthAdjust="spacing" textLength="75" x="613.4463" y="84.2305">Edge Zone</text><text fill="#000000" font-family="Arial" font-size="14" font-weight="bold" lengthAdjust="spacing" textLength="153" x="574.4463" y="100.3291">Public entry boundary</text></g><!--cluster AppZone--><g id="cluster_AppZone"><rect fill="#F7F9FB" height="174" rx="2.5" ry="2.5" style="stroke:#333333;stroke-width:1.0;" width="205" x="1127.1963" y="44.0986"/><text fill="#000000" font-family="Arial" font-size="14" font-weight="bold" lengthAdjust="spacing" textLength="117" x="1171.1963" y="59.2305">Application Zone</text><text fill="#000000" font-family="Arial" font-size="14" font-weight="bold" lengthAdjust="spacing" textLength="189" x="1135.1963" y="75.3291">Private application runtime</text></g><!--cluster DataZone--><g id="cluster_DataZone"><rect fill="#F7F9FB" height="113" rx="2.5" ry="2.5" style="stroke:#333333;stroke-width:1.0;" width="176" x="1580.1963" y="240.0986"/><text fill="#000000" font-family="Arial" font-size="14" font-weight="bold" lengthAdjust="spacing" textLength="70" x="1633.1963" y="255.2305">Data Zone</text><text fill="#000000" font-family="Arial" font-size="14" font-weight="bold" lengthAdjust="spacing" textLength="160" x="1588.1963" y="271.3291">Restricted data access</text></g><!--cluster OpsPath--><g id="cluster_OpsPath"><rect fill="#F7F9FB" height="120" rx="2.5" ry="2.5" style="stroke:#333333;stroke-width:1.0;" width="925.5" x="383.1963" y="242.0986"/><text fill="#000000" font-family="Arial" font-size="14" font-weight="bold" lengthAdjust="spacing" textLength="167" x="762.4463" y="257.2305">Operations Access Path</text><text fill="#000000" font-family="Arial" font-size="14" font-weight="bold" lengthAdjust="spacing" textLength="175" x="758.4463" y="273.3291">Controlled support route</text></g><!--entity LoadBalancer--><g id="elem_LoadBalancer"><rect fill="#F7F9FB" height="36.0986" rx="2.5" ry="2.5" style="stroke:#333333;stroke-width:0.5;" width="112" x="789.1963" y="127.0986"/><text fill="#000000" font-family="Arial" font-size="14" lengthAdjust="spacing" textLength="92" x="799.1963" y="150.2305">Load Balancer</text></g><!--entity Waf--><g id="elem_Waf"><rect fill="#F7F9FB" height="52.1973" rx="2.5" ry="2.5" style="stroke:#333333;stroke-width:0.5;" width="122" x="400.6963" y="120.0986"/><text fill="#000000" font-family="Arial" font-size="14" lengthAdjust="spacing" textLength="102" x="410.6963" y="143.2305">Web Application</text><text fill="#000000" font-family="Arial" font-size="14" lengthAdjust="spacing" textLength="48" x="410.6963" y="159.3291">Firewall</text></g><!--entity AppRuntime--><g id="elem_AppRuntime"><rect fill="#F7F9FB" height="36.0986" rx="2.5" ry="2.5" style="stroke:#333333;stroke-width:0.5;" width="130" x="1164.1963" y="166.0986"/><text fill="#000000" font-family="Arial" font-size="14" lengthAdjust="spacing" textLength="110" x="1174.1963" y="189.2305">Web/API Runtime</text></g><!--entity WorkerRuntime--><g id="elem_WorkerRuntime"><rect fill="#F7F9FB" height="36.0986" rx="2.5" ry="2.5" style="stroke:#333333;stroke-width:0.5;" width="122" x="1168.1963" y="95.0986"/><text fill="#000000" font-family="Arial" font-size="14" lengthAdjust="spacing" textLength="102" x="1178.1963" y="118.2305">Worker Runtime</text></g><!--entity OrderDatabase--><g id="elem_OrderDatabase"><path d="M1607.1963,301.5986 C1607.1963,291.5986 1668.1963,291.5986 1668.1963,291.5986 C1668.1963,291.5986 1729.1963,291.5986 1729.1963,301.5986 L1729.1963,326.6973 C1729.1963,336.6973 1668.1963,336.6973 1668.1963,336.6973 C1668.1963,336.6973 1607.1963,336.6973 1607.1963,326.6973 L1607.1963,301.5986 " fill="#F2F5F7" style="stroke:#333333;stroke-width:0.5;"/><path d="M1607.1963,301.5986 C1607.1963,311.5986 1668.1963,311.5986 1668.1963,311.5986 C1668.1963,311.5986 1729.1963,311.5986 1729.1963,301.5986 " fill="none" style="stroke:#333333;stroke-width:0.5;"/><text fill="#000000" font-family="Arial" font-size="14" lengthAdjust="spacing" textLength="102" x="1617.1963" y="328.7305">Order Database</text></g><!--entity OpsTools--><g id="elem_OpsTools"><rect fill="#F7F9FB" height="52.1973" rx="2.5" ry="2.5" style="stroke:#333333;stroke-width:0.5;" width="125" x="399.1963" y="293.0986"/><text fill="#000000" font-family="Arial" font-size="14" lengthAdjust="spacing" textLength="103" x="409.1963" y="316.2305">Deployment and</text><text fill="#000000" font-family="Arial" font-size="14" lengthAdjust="spacing" textLength="105" x="409.1963" y="332.3291">Monitoring Tools</text></g><!--entity AdminGateway--><g id="elem_AdminGateway"><rect fill="#F7F9FB" height="52.1973" rx="2.5" ry="2.5" style="stroke:#333333;stroke-width:0.5;" width="168" x="761.1963" y="293.0986"/><text fill="#000000" font-family="Arial" font-size="14" lengthAdjust="spacing" textLength="148" x="771.1963" y="316.2305">Administration Gateway</text><text fill="#000000" font-family="Arial" font-size="14" lengthAdjust="spacing" textLength="138" x="771.1963" y="332.3291">restricted and audited</text></g><!--entity BackupDbaAccess--><g id="elem_BackupDbaAccess"><rect fill="#F7F9FB" height="52.1973" rx="2.5" ry="2.5" style="stroke:#333333;stroke-width:0.5;" width="127" x="1165.6963" y="293.0986"/><text fill="#000000" font-family="Arial" font-size="14" lengthAdjust="spacing" textLength="107" x="1175.6963" y="316.2305">Backup and DBA</text><text fill="#000000" font-family="Arial" font-size="14" lengthAdjust="spacing" textLength="81" x="1175.6963" y="332.3291">Access Point</text></g><!--entity Internet--><g id="elem_Internet"><path d="M23.0843,123.1982 C27.8351,117.5564 33.3407,117.9025 37.05,124.3967 C41.5783,116.4086 48.1689,117.2259 52.8615,124.2234 C56.2276,118.1706 59.8744,117.7443 64.6841,122.6685 C69.7421,117.035 75.5517,116.7369 78.9717,124.4252 C83.0095,117.6615 89.4385,117.3892 93.8546,124.0043 C97.4842,116.3953 102.9003,116.5649 107.5573,123.0022 C112.4759,115.573 117.1871,115.523 122.6715,122.4046 C126.9771,117.0895 133.0434,117.9077 136.1657,123.8261 C140.6308,116.3904 146.342,116.4022 150.6597,123.9686 C155.3943,116.7969 159.9879,118.065 164.306,124.3896 C168.9096,117.9825 174.2976,117.5784 178.5437,124.764 C182.9632,117.2611 188.8545,118.7809 192.8259,125.223 C195.891,118.1639 202.7412,116.6565 207.8472,122.9222 C211.9636,118.0309 217.1675,118.5621 220.1963,124.1979 C232.5089,128.9933 234.7172,137.7755 224.4107,146.7902 C235.3984,154.0398 234.5726,165.3788 222.4543,170.7409 C219.0118,177.0596 212.3466,178.1319 207.8985,171.9079 C202.6827,178.6662 197.7475,179.5774 191.9948,172.5263 C189.1333,179.8108 184.2234,180.1978 179.5653,174.2086 C177.2509,182.1024 170.4441,182.6998 165.5539,176.831 C160.1843,183.5994 155.4072,184.4145 150.7571,176.1239 C148.1657,184.0535 141.7448,184.4114 136.3553,179.1876 C132.688,186.1735 127.5834,186.3872 122.7744,180.3811 C117.4756,186.3137 113.1846,186.5412 109.0765,179.1564 C103.2124,186.5569 98.4615,184.51 94.4457,177.3049 C89.4994,183.9527 82.1611,182.6994 78.9903,175.3451 C76.1016,180.6224 70.3398,180.6076 67.2062,175.6266 C61.9909,182.0829 53.8619,181.6574 51.0355,173.0603 C47.2876,180.3081 40.3579,180.1858 36.509,173.1631 C31.0589,179.7091 25.2645,178.2237 22.9304,170.2491 C11.3203,166.395 9.364,157.5402 16.8012,148.3541 C6,138.8353 8.3464,126.3381 23.0843,123.1982 " fill="#FFFFFF" style="stroke:#333333;stroke-width:0.5;"/><text fill="#000000" font-family="Arial" font-size="14" lengthAdjust="spacing" textLength="48" x="29.1963" y="143.2305">Internet</text><text fill="#000000" font-family="Arial" font-size="14" lengthAdjust="spacing" textLength="184" x="29.1963" y="159.3291">Customer and provider traffic</text></g><!--entity PaymentProvider--><g id="elem_PaymentProvider"><path d="M1606.3582,165.2369 C1609.2852,159.366 1614.4895,159.2639 1618.2478,164.3333 C1621.8166,157.0738 1626.8226,157.4882 1631.9427,162.6186 C1635.6293,156.5007 1641.8566,157.9398 1644.6387,163.594 C1647.139,157.1252 1652.8781,157.6104 1656.2772,162.6881 C1660.5119,157.5241 1666.0823,157.3714 1669.4704,163.663 C1672.4197,158.2043 1677.0713,157.9117 1681.0284,162.5041 C1686.537,155.1096 1690.7851,157.3373 1695.2982,163.5482 C1698.7821,159.3449 1703.5446,158.6881 1706.268,164.3905 C1710.2903,157.4647 1714.5807,158.2476 1719.2896,163.6662 C1723.4931,158.7117 1728.7937,158.7264 1732.2896,164.522 C1738.9046,165.9038 1739.2645,169.9887 1736.0151,174.9088 C1743.8437,175.7636 1744.4666,181.839 1740.5153,187.0575 C1745.6133,192.3096 1743.6767,198.1398 1736.3306,199.0495 C1740.7604,204.2039 1738.3715,209.6557 1732.2596,211.3098 C1728.5045,216.763 1723.4816,216.6509 1719.6987,211.3423 C1717.102,218.8436 1711.6124,219.5087 1706.9903,213.2071 C1703.7835,219.4159 1699.989,220.8903 1695.0219,214.9398 C1691.9367,220.9557 1687.6492,222.0312 1682.8834,216.7448 C1678.9925,222.4689 1672.8089,224.5098 1668.8022,216.8667 C1665.1783,222.4272 1660.7056,222.04 1657.4432,216.4968 C1652.7972,222.8412 1647.1088,220.5586 1644.7628,214.2007 C1640.0365,219.7869 1633.2011,219.3758 1630.5144,211.9648 C1627.5236,218.0758 1622.4052,218.2368 1618.8856,212.483 C1613.9378,217.7462 1608.8811,216.5376 1605.7303,210.4079 C1600.0139,208.9762 1598.2387,203.934 1602.4279,199.5026 C1594.7379,198.2555 1593.1965,193.4141 1597.6079,187.3624 C1593.8919,181.9417 1594.6463,176.0557 1602.4839,175.3086 C1599.0239,170.2825 1600.0651,166.5113 1606.3582,165.2369 " fill="#FFFFFF" style="stroke:#333333;stroke-width:0.5;"/><text fill="#000000" font-family="Arial" font-size="14" lengthAdjust="spacing" textLength="112" x="1612.1963" y="183.2305">Payment Provider</text><text fill="#000000" font-family="Arial" font-size="14" lengthAdjust="spacing" textLength="46" x="1612.1963" y="199.3291">System</text></g><!--entity DeliveryPartner--><g id="elem_DeliveryPartner"><path d="M1611.4722,66.6207 C1614.9878,60.6035 1618.8874,62.16 1622.4261,66.5965 C1626.307,60.6606 1631.2458,59.7442 1635.1895,66.5335 C1639.0869,60.8179 1643.74,60.5766 1647.0576,67.0958 C1649.9983,62.5573 1653.3577,62.1223 1657.1122,66.1393 C1660.9178,60.1475 1665.3012,59.7937 1669.3278,65.9164 C1673.3148,59.336 1677.7191,60.3423 1681.565,66.0569 C1685.4177,60.6322 1688.8705,61.07 1692.2177,66.5506 C1695.6214,59.9473 1700.6823,60.7344 1704.5193,66.1054 C1707.723,60.8966 1713.1524,61.0363 1716.4822,65.9564 C1720.0557,62.1487 1724.7927,62.8379 1726.5374,68.0053 C1731.8763,70.7753 1733.4704,73.8636 1729.0971,78.9128 C1735.3347,80.4007 1736.8606,83.6131 1733.5049,89.2082 C1738.564,95.4004 1736.578,99.2832 1730.065,102.4748 C1735.172,106.3811 1733.4409,111.0555 1727.9687,112.8177 C1724.545,118.8441 1720.3519,118.3634 1716.4045,113.3671 C1713.4828,120.8854 1708.1981,121.5422 1703.2124,115.3535 C1700.9328,119.5538 1696.0668,120.1749 1693.3433,115.8683 C1689.2311,121.529 1684.3343,122.0401 1680.6699,115.4067 C1678.5495,121.2947 1673.2999,121.5631 1670.1517,116.3835 C1666.3336,122.3117 1660.874,123.148 1657.273,116.1669 C1652.8662,121.6823 1648.8454,120.8117 1645.47,115.0841 C1642.4958,120.1167 1637.4284,121.2601 1634.1376,115.4138 C1629.846,120.9144 1626.2472,119.7582 1622.65,114.6611 C1617.6966,120.6138 1613.6901,119.4501 1610.7061,112.7954 C1605.5933,109.8841 1605.9419,104.5645 1610.7049,101.6521 C1604.3359,98.3784 1604.4164,93.4645 1609.6919,89.2404 C1604.661,86.3283 1603.8692,81.237 1609.1399,77.8266 C1604.5416,72.9882 1606.1317,69.3905 1611.4722,66.6207 " fill="#FFFFFF" style="stroke:#333333;stroke-width:0.5;"/><text fill="#000000" font-family="Arial" font-size="14" lengthAdjust="spacing" textLength="102" x="1617.1963" y="86.2305">Delivery Partner</text><text fill="#000000" font-family="Arial" font-size="14" lengthAdjust="spacing" textLength="46" x="1617.1963" y="102.3291">System</text></g><!--link Internet to Waf--><g id="link_Internet_Waf"><path d="M228.3663,146.0986 C284.9863,146.0986 346.5863,146.0986 394.2363,146.0986 " fill="none" id="Internet-to-Waf" style="stroke:#333333;stroke-width:1.2;"/><polygon fill="#333333" points="400.2363,146.0986,391.2363,142.0986,395.2363,146.0986,391.2363,150.0986,400.2363,146.0986" style="stroke:#333333;stroke-width:1.2;"/><text fill="#000000" font-family="Arial" font-size="14" lengthAdjust="spacing" textLength="107" x="259.1963" y="142.2305">customer HTTPS</text></g><!--link Waf to LoadBalancer--><g id="link_Waf_LoadBalancer"><path d="M522.7263,145.9386 C595.8563,145.7486 712.3663,145.4447 783.1563,145.2547 " fill="none" id="Waf-to-LoadBalancer" style="stroke:#333333;stroke-width:1.2;"/><polygon fill="#333333" points="789.1563,145.2386,780.1456,141.2628,784.1563,145.2521,780.1671,149.2628,789.1563,145.2386" style="stroke:#333333;stroke-width:1.2;"/><text fill="#000000" font-family="Arial" font-size="14" lengthAdjust="spacing" textLength="110" x="587.6963" y="142.2305">inspected HTTPS</text></g><!--link LoadBalancer to AppRuntime--><g id="link_LoadBalancer_AppRuntime"><path d="M901.3363,150.7286 C970.9663,157.8386 1084.5673,169.4396 1158.1773,176.9496 " fill="none" id="LoadBalancer-to-AppRuntime" style="stroke:#333333;stroke-width:1.2;"/><polygon fill="#333333" points="1164.1463,177.5586,1155.5988,172.6658,1159.1721,177.0511,1154.7868,180.6245,1164.1463,177.5586" style="stroke:#333333;stroke-width:1.2;"/><text fill="#000000" font-family="Arial" font-size="14" lengthAdjust="spacing" textLength="144" x="963.1963" y="153.2305">route application traffic</text></g><!--link AppRuntime to OrderDatabase--><g id="link_AppRuntime_OrderDatabase"><path d="M1290.9563,202.1786 C1374.4463,227.0086 1517.9855,269.7074 1601.1955,294.4674 " fill="none" id="AppRuntime-to-OrderDatabase" style="stroke:#333333;stroke-width:1.2;"/><polygon fill="#333333" points="1606.9463,296.1786,1599.4609,289.7779,1602.1539,294.7526,1597.1793,297.4457,1606.9463,296.1786" style="stroke:#333333;stroke-width:1.2;"/><text fill="#000000" font-family="Arial" font-size="14" lengthAdjust="spacing" textLength="158" x="1373.1963" y="218.2305">controlled DB connection</text></g><!--link AppRuntime to PaymentProvider--><g id="link_AppRuntime_PaymentProvider"><path d="M1294.2063,184.3886 C1374.9263,184.7586 1507.2463,185.3714 1590.8563,185.7514 " fill="none" id="AppRuntime-to-PaymentProvider" style="stroke:#333333;stroke-width:1.2;"/><polygon fill="#333333" points="1596.8563,185.7786,1587.8746,181.7378,1591.8563,185.7559,1587.8382,189.7377,1596.8563,185.7786" style="stroke:#333333;stroke-width:1.2;"/><text fill="#000000" font-family="Arial" font-size="14" lengthAdjust="spacing" textLength="151" x="1376.6963" y="180.2305">controlled outbound API</text></g><!--link WorkerRuntime to DeliveryPartner--><g id="link_WorkerRuntime_DeliveryPartner"><path d="M1290.4963,109.7886 C1372.3363,105.2886 1511.9853,97.6281 1596.1853,92.9981 " fill="none" id="WorkerRuntime-to-DeliveryPartner" style="stroke:#333333;stroke-width:1.2;"/><polygon fill="#333333" points="1602.1763,92.6686,1592.9702,89.1688,1597.1838,92.9432,1593.4095,97.1567,1602.1763,92.6686" style="stroke:#333333;stroke-width:1.2;"/><text fill="#000000" font-family="Arial" font-size="14" lengthAdjust="spacing" textLength="151" x="1376.6963" y="92.2305">controlled outbound API</text></g><!--link OpsTools to AppRuntime--><g id="link_OpsTools_AppRuntime"><path d="M524.4663,300.4886 C534.3563,297.8186 544.5263,295.2486 554.1963,293.0986 C776.0763,243.8086 1037.754,207.9638 1158.114,192.6938 " fill="none" id="OpsTools-to-AppRuntime" style="stroke:#333333;stroke-width:1.2;"/><polygon fill="#333333" points="1164.0663,191.9386,1154.6344,189.1032,1159.106,192.5679,1155.6413,197.0396,1164.0663,191.9386" style="stroke:#333333;stroke-width:1.2;"/><text fill="#000000" font-family="Arial" font-size="14" lengthAdjust="spacing" textLength="166" x="762.1963" y="220.2305">admin and support access</text></g><!--link OpsTools to AdminGateway--><g id="link_OpsTools_AdminGateway"><path d="M524.4163,319.0986 C588.7363,319.0986 683.9063,319.0986 755.1963,319.0986 " fill="none" id="OpsTools-to-AdminGateway" style="stroke:#333333;stroke-width:1.2;"/><polygon fill="#333333" points="761.1963,319.0986,752.1963,315.0986,756.1963,319.0986,752.1963,323.0986,761.1963,319.0986" style="stroke:#333333;stroke-width:1.2;"/><text fill="#000000" font-family="Arial" font-size="14" lengthAdjust="spacing" textLength="175" x="555.1963" y="315.2305">authenticated support route</text></g><!--link AdminGateway to BackupDbaAccess--><g id="link_AdminGateway_BackupDbaAccess"><path d="M929.5563,319.0986 C1000.5763,319.0986 1095.0663,319.0986 1159.4463,319.0986 " fill="none" id="AdminGateway-to-BackupDbaAccess" style="stroke:#333333;stroke-width:1.2;"/><polygon fill="#333333" points="1165.4463,319.0986,1156.4463,315.0986,1160.4463,319.0986,1156.4463,323.0986,1165.4463,319.0986" style="stroke:#333333;stroke-width:1.2;"/><text fill="#000000" font-family="Arial" font-size="14" lengthAdjust="spacing" textLength="150" x="960.1963" y="315.2305">audited data operations</text></g><!--link BackupDbaAccess to OrderDatabase--><g id="link_BackupDbaAccess_OrderDatabase"><path d="M1292.8063,318.3786 C1376.7063,317.4186 1518.5967,315.7969 1601.1567,314.8569 " fill="none" id="BackupDbaAccess-to-OrderDatabase" style="stroke:#333333;stroke-width:1.2;"/><polygon fill="#333333" points="1607.1563,314.7886,1598.1113,310.8914,1602.1566,314.8456,1598.2024,318.8908,1607.1563,314.7886" style="stroke:#333333;stroke-width:1.2;"/><text fill="#000000" font-family="Arial" font-size="14" lengthAdjust="spacing" textLength="206" x="1349.1963" y="311.2305">restricted backup or DBA access</text></g><rect fill="none" height="58.2959" id="_legend" rx="7.5" ry="7.5" style="stroke:#000000;stroke-width:1.0;" width="464" x="642.0981" y="379.0986"/><text fill="#000000" font-family="Arial" font-size="14" lengthAdjust="spacing" textLength="291" x="647.0981" y="397.2305">This topology shows zones and allowed paths.</text><text fill="#000000" font-family="Arial" font-size="14" lengthAdjust="spacing" textLength="454" x="647.0981" y="413.3291">Routine operations do not bypass the controlled data-zone access path.</text><text fill="#000000" font-family="Arial" font-size="14" lengthAdjust="spacing" textLength="356" x="647.0981" y="429.4277">It is not a firewall rule list or a business-process diagram.</text><!--SRC=[bLLDZzCm4BtxLmpBkLqM3WWEIEsMGYLWgzsAbL0lJZ9DhNLiotQs2eZ_peoJR9EmGYBgeVQyDvwFD_OBPN9T5mZp-INzGcmqXakdfObrfMVnY1NE7VqLGkCXGhJWLNcCK2YFULJMYAYYHbXlFiskhcQlNi_XncXb4EwYzGZVC9wiVu2TTLRRie7l2az2X0TbdFIo0dOZJKakVWc0fVK5-ck2UdZv9dsyA_E7qjlQ59rb_NRzRhqKlmT-Scthuhzyf8zyY9PwiJ4HlS6uDzTrYBP23z8KuBnzLEGGefU7WyelG0ReiKASux_uM9G8Fwp1lTdMcLOve8c-WOnFbRv9J0On9eKw87-nig0WgV8v-eJadNvZZBt731REqGcIMx0tQ-h6IMgTUFVom5aDy0Di7vzNZp8Yo875roQg2fCFOZmN91rykTXku7OCxPOJBBMTgZQ4jbizUXpZIaRP1NUB8NgLHooWu5sPvnX2yi2efy3OcCb0v1lkU3BoEY7JLhypEUl6eKyvK_J9DsnbF5BVBVNBQaq7XzevwoEGOcBdq0L6JKkoGgTjKr6dMIrxyzKQHSfNfYJDMnrwRbgCgOkYKaPHhctzFr53JhBP6t_EdmKewqBH_xROJEc0OsUixzebmcgvs9i-CQjCJDGMiCfaQna8VolR-BUTqlVchWaHgqJhZBsjvwnGgqSaSM-bZsR2wOsTJOX-N60s-y3wXFUGzpFsURVRtWdUPEDGz8HI9ZXCbMXX8pFZp-eZT6hMIDFTp8e1Z5aZSN0mvyQlbhmotUKsuKsACMRIuMdIWIP4ZAIUk9EY_8FRg-Nl12MtF_MursSx6nFAG2HCgkaQ9mzKagcmnGZAt8bA4Zt9hnr5-pGvOefyhgu39MUjFkdc9NdsOTEZKY9bazb8OX2xemhqn7GlHJZQKu2VDEsXdGEjxOayEPh2C1Utb02_C-UGeB1WR8IiSP82ego79URuP-ojEppvcOjD13gKQH8EtJLALo6DbARHv7WbP7MWaqAOqLkGg8MI9JqwSq71jody0G00]--></g></svg>