<?xml version="1.0" encoding="us-ascii" standalone="no"?><svg xmlns="http://www.w3.org/2000/svg" xmlns:xlink="http://www.w3.org/1999/xlink" contentStyleType="text/css" height="1151px" preserveAspectRatio="none" style="width:1309px;height:1151px;background:#FFFFFF;" version="1.1" viewBox="0 0 1309 1151" width="1309px" zoomAndPan="magnify"><defs/><g><text fill="#000000" font-family="Arial" font-size="14" font-weight="bold" lengthAdjust="spacing" textLength="464" x="415.75" y="23.1318">Horizon Bank process-architecture decomposition and traceability</text><!--cluster SELECTED SUBPROCESS LEVEL--><g id="cluster_SELECTED SUBPROCESS LEVEL"><path d="M8.5,300.0986 L190.5,300.0986 A3.75,3.75 0 0 1 193,302.5986 L200,319.8975 L627.5,319.8975 A2.5,2.5 0 0 1 630,322.3975 L630,393.5986 A2.5,2.5 0 0 1 627.5,396.0986 L8.5,396.0986 A2.5,2.5 0 0 1 6,393.5986 L6,302.5986 A2.5,2.5 0 0 1 8.5,300.0986 " fill="#FFFFFF" style="stroke:#000000;stroke-width:1.5;"/><line style="stroke:#000000;stroke-width:1.5;" x1="6" x2="200" y1="319.8975" y2="319.8975"/><text fill="#000000" font-family="Arial" font-size="12" font-weight="bold" lengthAdjust="spacing" textLength="181" x="10" y="313.3545">SELECTED SUBPROCESS LEVEL</text></g><!--entity CAPTURE--><g id="elem_CAPTURE"><rect fill="#F8FAFC" height="47.5977" rx="4" ry="4" style="stroke:#334155;stroke-width:0.5;" width="80" x="22" y="332.0986"/><text fill="#0F172A" font-family="Arial" font-size="12" lengthAdjust="spacing" textLength="44" x="32" y="353.3545">Capture</text><text fill="#0F172A" font-family="Arial" font-size="12" lengthAdjust="spacing" textLength="60" x="32" y="367.1533">application</text></g><!--entity VERIFY--><g id="elem_VERIFY"><rect fill="#F8FAFC" height="47.5977" rx="4" ry="4" style="stroke:#334155;stroke-width:0.5;" width="90" x="137" y="332.0986"/><text fill="#0F172A" font-family="Arial" font-size="12" lengthAdjust="spacing" textLength="70" x="147" y="353.3545">Verify identity</text><text fill="#0F172A" font-family="Arial" font-size="12" lengthAdjust="spacing" textLength="62" x="147" y="367.1533">and screen</text></g><!--entity REFERRAL--><g id="elem_REFERRAL"><rect fill="#FEF3C7" height="47.5977" rx="4" ry="4" style="stroke:#334155;stroke-width:0.5;" width="65" x="262.5" y="332.0986"/><text fill="#0F172A" font-family="Arial" font-size="12" lengthAdjust="spacing" textLength="45" x="272.5" y="353.3545">Resolve</text><text fill="#0F172A" font-family="Arial" font-size="12" lengthAdjust="spacing" textLength="39" x="272.5" y="367.1533">referral</text></g><!--entity CREATE--><g id="elem_CREATE"><rect fill="#F8FAFC" height="47.5977" rx="4" ry="4" style="stroke:#334155;stroke-width:0.5;" width="110" x="363" y="332.0986"/><text fill="#0F172A" font-family="Arial" font-size="12" lengthAdjust="spacing" textLength="90" x="373" y="353.3545">Create party and</text><text fill="#0F172A" font-family="Arial" font-size="12" lengthAdjust="spacing" textLength="88" x="373" y="367.1533">account records</text></g><!--entity CONFIRM--><g id="elem_CONFIRM"><rect fill="#F8FAFC" height="47.5977" rx="4" ry="4" style="stroke:#334155;stroke-width:0.5;" width="105" x="508.5" y="332.0986"/><text fill="#0F172A" font-family="Arial" font-size="12" lengthAdjust="spacing" textLength="85" x="518.5" y="353.3545">Confirm usable</text><text fill="#0F172A" font-family="Arial" font-size="12" lengthAdjust="spacing" textLength="39" x="518.5" y="367.1533">service</text></g><!--entity FAMILY--><g id="elem_FAMILY"><rect fill="#E0F2FE" height="61.3965" rx="4" ry="4" style="stroke:#334155;stroke-width:0.5;" width="205" x="599.5" y="44.0986"/><text fill="#0F172A" font-family="Arial" font-size="12" lengthAdjust="spacing" textLength="112" x="609.5" y="65.3545">CATALOGUE LEVEL</text><text fill="#0F172A" font-family="Arial" font-size="12" lengthAdjust="spacing" textLength="185" x="609.5" y="79.1533">Customer and party management</text><text fill="#0F172A" font-family="Arial" font-size="12" lengthAdjust="spacing" textLength="81" x="609.5" y="92.9521">Process family</text></g><!--entity PROCESS--><g id="elem_PROCESS"><rect fill="#DBEAFE" height="61.3965" rx="4" ry="4" style="stroke:#334155;stroke-width:0.5;" width="195" x="604.5" y="179.0986"/><text fill="#0F172A" font-family="Arial" font-size="12" lengthAdjust="spacing" textLength="116" x="614.5" y="200.3545">END-TO-END LEVEL</text><text fill="#0F172A" font-family="Arial" font-size="12" lengthAdjust="spacing" textLength="175" x="614.5" y="214.1533">Establish customer relationship</text><text fill="#0F172A" font-family="Arial" font-size="12" lengthAdjust="spacing" textLength="46" x="614.5" y="227.9521">Process</text></g><!--entity OUTCOME--><g id="elem_OUTCOME"><rect fill="#DCFCE7" height="47.5977" rx="4" ry="4" style="stroke:#334155;stroke-width:0.5;" width="175" x="1128.5" y="332.0986"/><text fill="#0F172A" font-family="Arial" font-size="12" lengthAdjust="spacing" textLength="60" x="1138.5" y="353.3545">OUTCOME</text><text fill="#0F172A" font-family="Arial" font-size="12" lengthAdjust="spacing" textLength="155" x="1138.5" y="367.1533">Usable banking relationship</text></g><!--entity OWNER--><g id="elem_OWNER"><rect fill="#F3E8FF" height="47.5977" rx="4" ry="4" style="stroke:#334155;stroke-width:0.5;" width="170" x="1009" y="185.5986"/><text fill="#0F172A" font-family="Arial" font-size="12" lengthAdjust="spacing" textLength="101" x="1019" y="206.8545">ACCOUNTABILITY</text><text fill="#0F172A" font-family="Arial" font-size="12" lengthAdjust="spacing" textLength="150" x="1019" y="220.6533">Onboarding process owner</text></g><!--entity CONTROLS--><g id="elem_CONTROLS"><rect fill="#FEE2E2" height="61.3965" rx="4" ry="4" style="stroke:#334155;stroke-width:0.5;" width="128" x="982" y="456.0986"/><text fill="#0F172A" font-family="Arial" font-size="12" lengthAdjust="spacing" textLength="67" x="992" y="477.3545">CONTROLS</text><text fill="#0F172A" font-family="Arial" font-size="12" lengthAdjust="spacing" textLength="90" x="992" y="491.1533">Identity evidence</text><text fill="#0F172A" font-family="Arial" font-size="12" lengthAdjust="spacing" textLength="108" x="992" y="504.9521">Screening evidence</text></g><!--entity MEASURES--><g id="elem_MEASURES"><rect fill="#FEF3C7" height="61.3965" rx="4" ry="4" style="stroke:#334155;stroke-width:0.5;" width="255" x="884.5" y="591.0986"/><text fill="#0F172A" font-family="Arial" font-size="12" lengthAdjust="spacing" textLength="66" x="894.5" y="612.3545">MEASURES</text><text fill="#0F172A" font-family="Arial" font-size="12" lengthAdjust="spacing" textLength="235" x="894.5" y="626.1533">Elapsed time | Straight-through processing</text><text fill="#0F172A" font-family="Arial" font-size="12" lengthAdjust="spacing" textLength="161" x="894.5" y="639.9521">Referral rate | Control failures</text></g><!--entity CAPS--><g id="elem_CAPS"><rect fill="#E0E7FF" height="61.3965" rx="4" ry="4" style="stroke:#334155;stroke-width:0.5;" width="379" x="802.5" y="713.0986"/><text fill="#0F172A" font-family="Arial" font-size="12" lengthAdjust="spacing" textLength="150" x="812.5" y="734.3545">CAPABILITIES EXERCISED</text><text fill="#0F172A" font-family="Arial" font-size="12" lengthAdjust="spacing" textLength="233" x="812.5" y="748.1533">Customer Onboarding | Identity Verification</text><text fill="#0F172A" font-family="Arial" font-size="12" lengthAdjust="spacing" textLength="359" x="812.5" y="761.9521">Financial Crime Screening | Party Management | Account Opening</text></g><!--entity BIAN--><g id="elem_BIAN"><rect fill="#F1F5F9" height="75.1953" rx="4" ry="4" style="stroke:#334155;stroke-width:0.5;" width="295" x="621.5" y="835.0986"/><text fill="#0F172A" font-family="Arial" font-size="12" lengthAdjust="spacing" textLength="187" x="631.5" y="856.3545">REFERENCE RESPONSIBILITIES</text><text fill="#0F172A" font-family="Arial" font-size="12" lengthAdjust="spacing" textLength="275" x="631.5" y="870.1533">Candidate BIAN Service Domains and interactions</text><text fill="#0F172A" font-family="Arial" font-size="12" lengthAdjust="spacing" textLength="148" x="631.5" y="883.9521">BIAN 14.0 logical reference</text><text fill="#0F172A" font-family="Arial" font-size="12" lengthAdjust="spacing" textLength="202" x="631.5" y="897.751">Candidate, partial and many-to-many</text></g><!--entity BPMN--><g id="elem_BPMN"><rect fill="#ECFDF5" height="75.1953" rx="4" ry="4" style="stroke:#334155;stroke-width:0.5;" width="202" x="487" y="971.0986"/><text fill="#0F172A" font-family="Arial" font-size="12" lengthAdjust="spacing" textLength="108" x="497" y="992.3545">SELECTED DETAIL</text><text fill="#0F172A" font-family="Arial" font-size="12" lengthAdjust="spacing" textLength="182" x="497" y="1006.1533">BPMN collaboration for behaviour</text><text fill="#0F172A" font-family="Arial" font-size="12" lengthAdjust="spacing" textLength="118" x="497" y="1019.9521">and referral exception</text><text fill="#0F172A" font-family="Arial" font-size="12" lengthAdjust="spacing" textLength="176" x="497" y="1033.751">Not a full-bank process diagram</text></g><g id="elem_GMN40"><path d="M363.5,1107.0986 L363.5,1144.6963 A0,0 0 0 0 363.5,1144.6963 L812.5,1144.6963 A0,0 0 0 0 812.5,1144.6963 L812.5,1117.0986 L802.5,1107.0986 L592,1107.0986 L588,1046.1386 L584,1107.0986 L363.5,1107.0986 A0,0 0 0 0 363.5,1107.0986 " fill="#FEFFDD" style="stroke:#181818;stroke-width:0.5;"/><path d="M802.5,1107.0986 L802.5,1117.0986 L812.5,1117.0986 L802.5,1107.0986 " fill="#FEFFDD" style="stroke:#181818;stroke-width:0.5;"/><text fill="#000000" font-family="Arial" font-size="12" lengthAdjust="spacing" textLength="235" x="369.5" y="1123.3545">Selected Horizon Bank onboarding excerpt.</text><text fill="#000000" font-family="Arial" font-size="12" lengthAdjust="spacing" textLength="428" x="369.5" y="1137.1533">Process, capability, BIAN responsibility and implementation are not equivalent.</text></g><!--link CAPTURE to VERIFY--><!--link VERIFY to REFERRAL--><!--link REFERRAL to CREATE--><!--link CREATE to CONFIRM--><!--link FAMILY to PROCESS--><g id="link_FAMILY_PROCESS"><path d="M702,105.1186 C702,126.9986 702,150.7286 702,172.7086 " fill="none" id="FAMILY-to-PROCESS" style="stroke:#334155;stroke-width:1.0;"/><polygon fill="#334155" points="702,178.7086,706,169.7086,702,173.7086,698,169.7086,702,178.7086" style="stroke:#334155;stroke-width:1.0;"/><text fill="#1E293B" font-family="Arial" font-size="11" lengthAdjust="spacing" textLength="41" x="703" y="146.4165">contains</text></g><!--link PROCESS to CAPTURE--><g id="link_PROCESS_CAPTURE"><path d="M604.23,210.5486 C494.35,212.9586 311.75,224.4086 162,270.0986 C141.84,276.2486 136.72,279.2686 120,292.0986 C105.02,303.5986 94.4782,314.5852 83.7782,327.3852 " fill="none" id="PROCESS-to-CAPTURE" style="stroke:#334155;stroke-width:1.0;"/><polygon fill="#334155" points="79.93,331.9886,88.7712,327.6489,83.1368,328.1524,82.6333,322.518,79.93,331.9886" style="stroke:#334155;stroke-width:1.0;"/><text fill="#1E293B" font-family="Arial" font-size="11" lengthAdjust="spacing" textLength="74" x="163" y="281.4165">decomposes to</text></g><!--link PROCESS to VERIFY--><g id="link_PROCESS_VERIFY"><path d="M604.13,217.2486 C495.14,225.8386 326.69,242.9886 269,270.0986 C239.57,283.9286 217.7484,307.1462 202.0984,327.2262 " fill="none" id="PROCESS-to-VERIFY" style="stroke:#334155;stroke-width:1.0;"/><polygon fill="#334155" points="198.41,331.9586,207.0975,327.3189,201.4836,328.0149,200.7876,322.4011,198.41,331.9586" style="stroke:#334155;stroke-width:1.0;"/><text fill="#1E293B" font-family="Arial" font-size="11" lengthAdjust="spacing" textLength="74" x="270" y="281.4165">decomposes to</text></g><!--link PROCESS to REFERRAL--><g id="link_PROCESS_REFERRAL"><path d="M604.44,216.3886 C537.54,223.1886 448.02,237.9686 375,270.0986 C346.25,282.7486 326.3528,306.2696 312.4728,326.7796 " fill="none" id="PROCESS-to-REFERRAL" style="stroke:#334155;stroke-width:1.0;"/><polygon fill="#334155" points="309.11,331.7486,317.4669,326.5369,311.9123,327.6077,310.8415,322.0532,309.11,331.7486" style="stroke:#334155;stroke-width:1.0;"/><text fill="#1E293B" font-family="Arial" font-size="11" lengthAdjust="spacing" textLength="74" x="376" y="281.4165">decomposes to</text></g><!--link PROCESS to CREATE--><g id="link_PROCESS_CREATE"><path d="M604.36,220.1386 C561.27,228.1686 511.91,242.9386 474,270.0986 C452.31,285.6386 439.2792,306.9918 430.1492,326.3518 " fill="none" id="PROCESS-to-CREATE" style="stroke:#334155;stroke-width:1.0;"/><polygon fill="#334155" points="427.59,331.7786,435.0467,325.3446,429.7227,327.2563,427.811,321.9323,427.59,331.7786" style="stroke:#334155;stroke-width:1.0;"/><text fill="#1E293B" font-family="Arial" font-size="11" lengthAdjust="spacing" textLength="74" x="475" y="281.4165">decomposes to</text></g><!--link PROCESS to CONFIRM--><g id="link_PROCESS_CONFIRM"><path d="M604.38,236.6186 C588.95,244.9086 574.87,255.7986 565,270.0986 C552.58,288.0986 552.3026,307.7531 555.0226,326.1531 " fill="none" id="PROCESS-to-CONFIRM" style="stroke:#334155;stroke-width:1.0;"/><polygon fill="#334155" points="555.9,332.0886,558.5409,322.6004,555.1688,327.1424,550.6269,323.7703,555.9,332.0886" style="stroke:#334155;stroke-width:1.0;"/><text fill="#1E293B" font-family="Arial" font-size="11" lengthAdjust="spacing" textLength="74" x="566" y="281.4165">decomposes to</text></g><!--link OWNER to OUTCOME--><!--link OUTCOME to CONTROLS--><!--link CONTROLS to MEASURES--><!--link MEASURES to CAPS--><!--link CAPS to BIAN--><!--link BIAN to BPMN--><!--link PROCESS to OWNER--><g id="link_PROCESS_OWNER"><path d="M799.65,209.5986 C863.94,209.5986 941.28,209.5986 1002.86,209.5986 " fill="none" id="PROCESS-to-OWNER" style="stroke:#334155;stroke-width:1.0;"/><polygon fill="#334155" points="1008.86,209.5986,999.86,205.5986,1003.86,209.5986,999.86,213.5986,1008.86,209.5986" style="stroke:#334155;stroke-width:1.0;"/><text fill="#1E293B" font-family="Arial" font-size="11" lengthAdjust="spacing" textLength="80" x="864.25" y="203.9165">accountable role</text></g><!--link PROCESS to OUTCOME--><g id="link_PROCESS_OUTCOME"><path d="M799.7,219.1386 C882.64,229.0386 1003.38,249.7586 1101,292.0986 C1127.52,303.5986 1150.8429,316.183 1172.8429,328.973 " fill="none" id="PROCESS-to-OUTCOME" style="stroke:#334155;stroke-width:1.0;"/><polygon fill="#334155" points="1178.03,331.9886,1172.2597,324.0072,1173.7074,329.4756,1168.2389,330.9233,1178.03,331.9886" style="stroke:#334155;stroke-width:1.0;"/><text fill="#1E293B" font-family="Arial" font-size="11" lengthAdjust="spacing" textLength="46" x="1081" y="281.4165">produces</text></g><!--link PROCESS to CONTROLS--><g id="link_PROCESS_CONTROLS"><path d="M799.52,215.8786 C846.58,222.8386 901.29,237.9386 941,270.0986 C1000.67,318.4186 1027.4865,403.1903 1038.5865,450.0303 " fill="none" id="PROCESS-to-CONTROLS" style="stroke:#334155;stroke-width:1.0;"/><polygon fill="#334155" points="1039.97,455.8686,1041.7869,446.1888,1038.817,451.0034,1034.0025,448.0335,1039.97,455.8686" style="stroke:#334155;stroke-width:1.0;"/><text fill="#1E293B" font-family="Arial" font-size="11" lengthAdjust="spacing" textLength="83" x="1025" y="360.4165">is constrained by</text></g><!--link PROCESS to MEASURES--><g id="link_PROCESS_MEASURES"><path d="M799.64,236.7386 C818.61,245.1186 837.18,256.0086 852,270.0986 C852.8,270.8586 957.7249,501.3275 996.0849,585.6275 " fill="none" id="PROCESS-to-MEASURES" style="stroke:#334155;stroke-width:1.0;"/><polygon fill="#334155" points="998.57,591.0886,998.4832,581.2402,996.4991,586.5377,991.2016,584.5536,998.57,591.0886" style="stroke:#334155;stroke-width:1.0;"/><text fill="#1E293B" font-family="Arial" font-size="11" lengthAdjust="spacing" textLength="74" x="924" y="423.4165">is measured by</text></g><!--link PROCESS to CAPS--><g id="link_PROCESS_CAPS"><path d="M739.38,240.1686 C748.53,248.9586 757.54,259.1886 764,270.0986 C853.6,421.3986 767.17,507.3486 867,652.0986 C884.26,677.1286 905.7103,694.5654 929.8903,709.7654 " fill="none" id="PROCESS-to-CAPS" style="stroke:#334155;stroke-width:1.0;"/><polygon fill="#334155" points="934.97,712.9586,929.4792,704.7824,930.7369,710.2976,925.2216,711.5553,934.97,712.9586" style="stroke:#334155;stroke-width:1.0;"/><text fill="#1E293B" font-family="Arial" font-size="11" lengthAdjust="spacing" textLength="48" x="815" y="490.9165">exercises</text></g><!--link PROCESS to BIAN--><g id="link_PROCESS_BIAN"><path d="M705.01,240.2886 C715.91,347.7986 752.6948,710.7492 764.6748,828.9092 " fill="none" id="PROCESS-to-BIAN" style="stroke:#334155;stroke-width:1.0;"/><polygon fill="#334155" points="765.28,834.8786,768.3518,825.5211,764.7756,829.9041,760.3926,826.328,765.28,834.8786" style="stroke:#334155;stroke-width:1.0;"/><text fill="#1E293B" font-family="Arial" font-size="11" lengthAdjust="spacing" textLength="68" x="738" y="558.4165">is informed by</text></g><!--link PROCESS to BPMN--><g id="link_PROCESS_BPMN"><path d="M691.26,240.2286 C659.46,328.9886 568,592.1086 568,682.0986 C568,682.0986 568,682.0986 568,873.5986 C568,906.7686 572.8743,938.169 578.3243,964.969 " fill="none" id="PROCESS-to-BPMN" style="stroke:#334155;stroke-width:1.0;"/><polygon fill="#334155" points="579.52,970.8486,581.6463,961.232,578.5236,965.9489,573.8067,962.8263,579.52,970.8486" style="stroke:#334155;stroke-width:1.0;"/><text fill="#1E293B" font-family="Arial" font-size="11" lengthAdjust="spacing" textLength="126" x="582" y="625.9165">details selected behaviour</text></g><!--SRC=[XLPDS-es5DtxLzn9jY4JoCiaZyMRCKPkcI6OiI5jfdGXR06Qs98hYQIyfl-zL_973AGJDZ3IyVqyvnZ3JSxWLwduJobWHCKBb4gcJEiULUcE6vQQlMAGiLGMfTJSSCHHaO5HD6LqpNDk3fwdNxWegQ85h6dwibLoBx90vbB1PUW-7KJ6DdIVcr0ACwC50rzncdz-d_2V3Fg3pgNUqKo-SR653SqrwzpuIictEkVjxRV-tTtffOrO0_fayFrsz1cWIjdlN2cS0HLRdDC_7k2CJljx2Fqmi3TIPKmTLm3GINeJzky7Ffx5rUDAC0KFth-Uzv7Y8l0N_ZJwPKbWIfx8T2M2lJQoGAITEbPa3b1GGRUiOCAinBnQ5uwZuFdX0gY6q7-SJ9_Xajo4Wv1qWvFPkBU8UlZLH2VQq7NEzGxI9ezYERLhrZjUjl5Tu7aS1IH9u78y8Zv6zaeS1bO25mcPac11nf0iHmtAPRXe2E26r-sJbfPPAq7BCkUfo-YI1FvyiOp9CVg9ARuv0C-mPoGSFeN3qAbYh7heYSIJyFducPXfcRzY1iKsJ2cQEsHCGXB7_XJh8k5jS7zIbMBKi7hCc0CJfIbkorWGxhUQGn0JVt5IOI35Xgi2zXhdYKarKwyyPHK-ceMJ-14Vg9k3tXyxdc4pVog-tPdUH_tLZxFxfcfBdgQ1KqnRLVNZ_BwkufXlqN8HH8za9PQkSDIlUB7owhB0DL43SVb1693xRWm_2ABbRE6F9jF9udab8h6ML6KsJEqc8D-Gx5MStsOankdVaWUqXUu4ezaYZgR9IapgDGDxjHjFSPo9sxMDs9mratNFs6sI0HbqupqIFy5POpoIqr8pz2oETlCE2NgN6udPeP2tkwP8ZBuISKqMK9O8xu1xDKhcg2-U8ryh0ZIXMn8T2NXU3MA2z-Ht4WUJX8mxEkvCvntQLXt3QnsiHCYHuIdw8WJA5ltH_ZlC7JaVMm_08xycQLGwKAEZn7e0kJyUi-CFcGK4cPJCeraoQQh56f7oFBEDZoR-39AAmp2M1UL2EmVYmZ2qVaUDbN2m_hVh6yZb5gl7iTdvLJjherqvGTbkR0HqhqFFo9xzTfMw89TXFxmBltShRKrbJ1R-1CrgD7-SGIhpdAwbSfE23HhhckteAvTxLTb28tTWVwUihEOvamOeRFPvtbjtNdAGSRf5Zw_AiD4lIH2EmplFgqsqXsyRqVlHMjyGymjZf-4rHmsaqVQmVLio3KQUuMg9VmLhTVuLi9Rxbx1A_cSuhn9awnOEtgZTQrH_Sjtepci5U09e5EArKZcDWFJq74TFBYmRF4U9qmlSZ_VHLkLgFse_6K9jrCx4KB3i4sJToz2kFziZ0SunRJz3uDhkMbkp46WUwyCvkctEeGj6DLh4vr3NwX0voLJAzMUfNSyk41T8w-9_0ZcQsYKY2tCDckMe68jjLE1vGgA2rzAWt-3h86aGHt_pv8SBMPseqbmZjdxRNq5Ao_hFtLLL65fVYTFWrM5b1KMPEmUgf4ZnVo9c1lRNdh_I7C-lFOOmMyr_]--></g></svg>