<?xml version="1.0" encoding="us-ascii" standalone="no"?><svg xmlns="http://www.w3.org/2000/svg" xmlns:xlink="http://www.w3.org/1999/xlink" contentStyleType="text/css" height="1305px" preserveAspectRatio="none" style="width:1135px;height:1305px;background:#FFFFFF;" version="1.1" viewBox="0 0 1135 1305" width="1135px" zoomAndPan="magnify"><defs/><g><text fill="#000000" font-family="Arial" font-size="14" font-weight="bold" lengthAdjust="spacing" textLength="384" x="368.75" y="23.1318">FIG-10-03. Horizon Bank Payment EventStorming Board</text><!--entity Customer--><g id="elem_Customer"><rect fill="#FFFFFF" height="52.1973" rx="2.5" ry="2.5" style="stroke:#333333;stroke-width:0.5;" width="121" x="814.5" y="44.0986"/><text fill="#000000" font-family="Arial" font-size="14" lengthAdjust="spacing" textLength="101" x="824.5" y="67.2305">Retail Customer</text><text fill="#000000" font-family="Arial" font-size="14" lengthAdjust="spacing" textLength="49" x="824.5" y="83.3291">&#171;Actor&#187;</text></g><!--entity Channels--><g id="elem_Channels"><rect fill="#F2F5F7" height="68.2959" rx="2.5" ry="2.5" style="stroke:#333333;stroke-width:0.5;" width="110" x="820" y="141.0986"/><text fill="#000000" font-family="Arial" font-size="14" lengthAdjust="spacing" textLength="90" x="830" y="164.2305">Horizon Digital</text><text fill="#000000" font-family="Arial" font-size="14" lengthAdjust="spacing" textLength="60" x="830" y="180.3291">Channels</text><text fill="#000000" font-family="Arial" font-size="14" lengthAdjust="spacing" textLength="62" x="830" y="196.4277">&#171;System&#187;</text></g><!--entity Payments--><g id="elem_Payments"><rect fill="#F2F5F7" height="52.1973" rx="2.5" ry="2.5" style="stroke:#333333;stroke-width:0.5;" width="138" x="597" y="375.0986"/><text fill="#000000" font-family="Arial" font-size="14" lengthAdjust="spacing" textLength="118" x="607" y="398.2305">Payments Platform</text><text fill="#000000" font-family="Arial" font-size="14" lengthAdjust="spacing" textLength="62" x="607" y="414.3291">&#171;System&#187;</text></g><!--entity FinCrime--><g id="elem_FinCrime"><rect fill="#F2F5F7" height="68.2959" rx="2.5" ry="2.5" style="stroke:#333333;stroke-width:0.5;" width="118" x="512" y="593.0986"/><text fill="#000000" font-family="Arial" font-size="14" lengthAdjust="spacing" textLength="98" x="522" y="616.2305">Financial Crime</text><text fill="#000000" font-family="Arial" font-size="14" lengthAdjust="spacing" textLength="52" x="522" y="632.3291">Platform</text><text fill="#000000" font-family="Arial" font-size="14" lengthAdjust="spacing" textLength="62" x="522" y="648.4277">&#171;System&#187;</text></g><!--entity Core--><g id="elem_Core"><rect fill="#F2F5F7" height="68.2959" rx="2.5" ry="2.5" style="stroke:#333333;stroke-width:0.5;" width="103" x="435.5" y="932.0986"/><text fill="#000000" font-family="Arial" font-size="14" lengthAdjust="spacing" textLength="83" x="445.5" y="955.2305">Core Deposit</text><text fill="#000000" font-family="Arial" font-size="14" lengthAdjust="spacing" textLength="46" x="445.5" y="971.3291">System</text><text fill="#000000" font-family="Arial" font-size="14" lengthAdjust="spacing" textLength="62" x="445.5" y="987.4277">&#171;System&#187;</text></g><!--entity Ops--><g id="elem_Ops"><rect fill="#FFFFFF" height="52.1973" rx="2.5" ry="2.5" style="stroke:#333333;stroke-width:0.5;" width="140" x="231" y="827.0986"/><text fill="#000000" font-family="Arial" font-size="14" lengthAdjust="spacing" textLength="120" x="241" y="850.2305">Operations Analyst</text><text fill="#000000" font-family="Arial" font-size="14" lengthAdjust="spacing" textLength="49" x="241" y="866.3291">&#171;Actor&#187;</text></g><!--entity Fraud--><g id="elem_Fraud"><rect fill="#FFFFFF" height="52.1973" rx="2.5" ry="2.5" style="stroke:#333333;stroke-width:0.5;" width="135" x="801.5" y="940.0986"/><text fill="#000000" font-family="Arial" font-size="14" lengthAdjust="spacing" textLength="115" x="811.5" y="963.2305">Fraud Investigator</text><text fill="#000000" font-family="Arial" font-size="14" lengthAdjust="spacing" textLength="49" x="811.5" y="979.3291">&#171;Actor&#187;</text></g><!--entity Submit--><g id="elem_Submit"><rect fill="#DDEEFF" height="68.2959" rx="2.5" ry="2.5" style="stroke:#333333;stroke-width:0.5;" width="118" x="816" y="254.0986"/><text fill="#000000" font-family="Arial" font-size="14" lengthAdjust="spacing" textLength="98" x="826" y="277.2305">SubmitPayment</text><text fill="#000000" font-family="Arial" font-size="14" lengthAdjust="spacing" textLength="65" x="826" y="293.3291">Instruction</text><text fill="#000000" font-family="Arial" font-size="14" lengthAdjust="spacing" textLength="80" x="826" y="309.4277">&#171;Command&#187;</text></g><!--entity Received--><g id="elem_Received"><rect fill="#FFE0B2" height="68.2959" rx="2.5" ry="2.5" style="stroke:#333333;stroke-width:0.5;" width="140" x="805" y="367.0986"/><text fill="#000000" font-family="Arial" font-size="14" lengthAdjust="spacing" textLength="120" x="815" y="390.2305">PaymentInstruction</text><text fill="#000000" font-family="Arial" font-size="14" lengthAdjust="spacing" textLength="59" x="815" y="406.3291">Received</text><text fill="#000000" font-family="Arial" font-size="14" lengthAdjust="spacing" textLength="52" x="815" y="422.4277">&#171;Event&#187;</text></g><!--entity Validate--><g id="elem_Validate"><rect fill="#DDEEFF" height="68.2959" rx="2.5" ry="2.5" style="stroke:#333333;stroke-width:0.5;" width="126" x="707" y="480.0986"/><text fill="#000000" font-family="Arial" font-size="14" lengthAdjust="spacing" textLength="106" x="717" y="503.2305">ValidatePayment</text><text fill="#000000" font-family="Arial" font-size="14" lengthAdjust="spacing" textLength="65" x="717" y="519.3291">Instruction</text><text fill="#000000" font-family="Arial" font-size="14" lengthAdjust="spacing" textLength="80" x="717" y="535.4277">&#171;Command&#187;</text></g><!--entity Validated--><g id="elem_Validated"><rect fill="#FFE0B2" height="68.2959" rx="2.5" ry="2.5" style="stroke:#333333;stroke-width:0.5;" width="140" x="700" y="593.0986"/><text fill="#000000" font-family="Arial" font-size="14" lengthAdjust="spacing" textLength="120" x="710" y="616.2305">PaymentInstruction</text><text fill="#000000" font-family="Arial" font-size="14" lengthAdjust="spacing" textLength="59" x="710" y="632.3291">Validated</text><text fill="#000000" font-family="Arial" font-size="14" lengthAdjust="spacing" textLength="52" x="710" y="648.4277">&#171;Event&#187;</text></g><!--entity ValidationRejected--><g id="elem_ValidationRejected"><rect fill="#FFE0B2" height="68.2959" rx="2.5" ry="2.5" style="stroke:#333333;stroke-width:0.5;" width="140" x="903" y="480.0986"/><text fill="#000000" font-family="Arial" font-size="14" lengthAdjust="spacing" textLength="120" x="913" y="503.2305">PaymentInstruction</text><text fill="#000000" font-family="Arial" font-size="14" lengthAdjust="spacing" textLength="56" x="913" y="519.3291">Rejected</text><text fill="#000000" font-family="Arial" font-size="14" lengthAdjust="spacing" textLength="52" x="913" y="535.4277">&#171;Event&#187;</text></g><!--entity RequestScreening--><g id="elem_RequestScreening"><rect fill="#DDEEFF" height="68.2959" rx="2.5" ry="2.5" style="stroke:#333333;stroke-width:0.5;" width="128" x="606" y="706.0986"/><text fill="#000000" font-family="Arial" font-size="14" lengthAdjust="spacing" textLength="108" x="616" y="729.2305">RequestPayment</text><text fill="#000000" font-family="Arial" font-size="14" lengthAdjust="spacing" textLength="64" x="616" y="745.3291">Screening</text><text fill="#000000" font-family="Arial" font-size="14" lengthAdjust="spacing" textLength="80" x="616" y="761.4277">&#171;Command&#187;</text></g><!--entity ScreeningCompleted--><g id="elem_ScreeningCompleted"><rect fill="#FFE0B2" height="68.2959" rx="2.5" ry="2.5" style="stroke:#333333;stroke-width:0.5;" width="139" x="600.5" y="819.0986"/><text fill="#000000" font-family="Arial" font-size="14" lengthAdjust="spacing" textLength="119" x="610.5" y="842.2305">PaymentScreening</text><text fill="#000000" font-family="Arial" font-size="14" lengthAdjust="spacing" textLength="68" x="610.5" y="858.3291">Completed</text><text fill="#000000" font-family="Arial" font-size="14" lengthAdjust="spacing" textLength="52" x="610.5" y="874.4277">&#171;Event&#187;</text></g><!--entity RoutingPolicy--><g id="elem_RoutingPolicy"><rect fill="#EAF6E8" height="68.2959" rx="2.5" ry="2.5" style="stroke:#333333;stroke-width:0.5;" width="123" x="608.5" y="932.0986"/><text fill="#000000" font-family="Arial" font-size="14" lengthAdjust="spacing" textLength="103" x="618.5" y="955.2305">Payment routing</text><text fill="#000000" font-family="Arial" font-size="14" lengthAdjust="spacing" textLength="36" x="618.5" y="971.3291">policy</text><text fill="#000000" font-family="Arial" font-size="14" lengthAdjust="spacing" textLength="53" x="618.5" y="987.4277">&#171;Policy&#187;</text></g><!--entity PostPayment--><g id="elem_PostPayment"><rect fill="#DDEEFF" height="52.1973" rx="2.5" ry="2.5" style="stroke:#333333;stroke-width:0.5;" width="103" x="483.5" y="1053.0986"/><text fill="#000000" font-family="Arial" font-size="14" lengthAdjust="spacing" textLength="83" x="493.5" y="1076.2305">PostPayment</text><text fill="#000000" font-family="Arial" font-size="14" lengthAdjust="spacing" textLength="80" x="493.5" y="1092.3291">&#171;Command&#187;</text></g><!--entity RequestRepair--><g id="elem_RequestRepair"><rect fill="#DDEEFF" height="68.2959" rx="2.5" ry="2.5" style="stroke:#333333;stroke-width:0.5;" width="128" x="237" y="932.0986"/><text fill="#000000" font-family="Arial" font-size="14" lengthAdjust="spacing" textLength="108" x="247" y="955.2305">RequestPayment</text><text fill="#000000" font-family="Arial" font-size="14" lengthAdjust="spacing" textLength="42" x="247" y="971.3291">Repair</text><text fill="#000000" font-family="Arial" font-size="14" lengthAdjust="spacing" textLength="80" x="247" y="987.4277">&#171;Command&#187;</text></g><!--entity RejectPayment--><g id="elem_RejectPayment"><rect fill="#DDEEFF" height="52.1973" rx="2.5" ry="2.5" style="stroke:#333333;stroke-width:0.5;" width="115" x="1006.5" y="940.0986"/><text fill="#000000" font-family="Arial" font-size="14" lengthAdjust="spacing" textLength="95" x="1016.5" y="963.2305">RejectPayment</text><text fill="#000000" font-family="Arial" font-size="14" lengthAdjust="spacing" textLength="80" x="1016.5" y="979.3291">&#171;Command&#187;</text></g><!--entity OpenFraud--><g id="elem_OpenFraud"><rect fill="#DDEEFF" height="52.1973" rx="2.5" ry="2.5" style="stroke:#333333;stroke-width:0.5;" width="126" x="706" y="1053.0986"/><text fill="#000000" font-family="Arial" font-size="14" lengthAdjust="spacing" textLength="106" x="716" y="1076.2305">OpenFraudCase</text><text fill="#000000" font-family="Arial" font-size="14" lengthAdjust="spacing" textLength="80" x="716" y="1092.3291">&#171;Command&#187;</text></g><!--entity Posted--><g id="elem_Posted"><rect fill="#FFE0B2" height="52.1973" rx="2.5" ry="2.5" style="stroke:#333333;stroke-width:0.5;" width="119" x="475.5" y="1166.0986"/><text fill="#000000" font-family="Arial" font-size="14" lengthAdjust="spacing" textLength="99" x="485.5" y="1189.2305">PaymentPosted</text><text fill="#000000" font-family="Arial" font-size="14" lengthAdjust="spacing" textLength="52" x="485.5" y="1205.3291">&#171;Event&#187;</text></g><!--entity RepairRequested--><g id="elem_RepairRequested"><rect fill="#FFE0B2" height="68.2959" rx="2.5" ry="2.5" style="stroke:#333333;stroke-width:0.5;" width="117" x="135.5" y="1045.0986"/><text fill="#000000" font-family="Arial" font-size="14" lengthAdjust="spacing" textLength="97" x="145.5" y="1068.2305">PaymentRepair</text><text fill="#000000" font-family="Arial" font-size="14" lengthAdjust="spacing" textLength="69" x="145.5" y="1084.3291">Requested</text><text fill="#000000" font-family="Arial" font-size="14" lengthAdjust="spacing" textLength="52" x="145.5" y="1100.4277">&#171;Event&#187;</text></g><!--entity PaymentRejected--><g id="elem_PaymentRejected"><rect fill="#FFE0B2" height="52.1973" rx="2.5" ry="2.5" style="stroke:#333333;stroke-width:0.5;" width="131" x="998.5" y="1053.0986"/><text fill="#000000" font-family="Arial" font-size="14" lengthAdjust="spacing" textLength="111" x="1008.5" y="1076.2305">PaymentRejected</text><text fill="#000000" font-family="Arial" font-size="14" lengthAdjust="spacing" textLength="52" x="1008.5" y="1092.3291">&#171;Event&#187;</text></g><!--entity FraudOpened--><g id="elem_FraudOpened"><rect fill="#FFE0B2" height="68.2959" rx="2.5" ry="2.5" style="stroke:#333333;stroke-width:0.5;" width="91" x="723.5" y="1158.0986"/><text fill="#000000" font-family="Arial" font-size="14" lengthAdjust="spacing" textLength="71" x="733.5" y="1181.2305">FraudCase</text><text fill="#000000" font-family="Arial" font-size="14" lengthAdjust="spacing" textLength="51" x="733.5" y="1197.3291">Opened</text><text fill="#000000" font-family="Arial" font-size="14" lengthAdjust="spacing" textLength="52" x="733.5" y="1213.4277">&#171;Event&#187;</text></g><!--entity Question--><g id="elem_Question"><rect fill="#FFF8DC" height="68.2959" rx="2.5" ry="2.5" style="stroke:#333333;stroke-width:0.5;" width="160" x="7" y="932.0986"/><text fill="#000000" font-family="Arial" font-size="14" lengthAdjust="spacing" textLength="97" x="17" y="955.2305">Open question:</text><text fill="#000000" font-family="Arial" font-size="14" lengthAdjust="spacing" textLength="140" x="17" y="971.3291">who owns repair SLA?</text><text fill="#000000" font-family="Arial" font-size="14" lengthAdjust="spacing" textLength="73" x="17" y="987.4277">&#171;Question&#187;</text></g><!--link Customer to Channels--><g id="link_Customer_Channels"><path d="M875,96.3286 C875,109.8086 875,120.4086 875,134.8886 " fill="none" id="Customer-to-Channels" style="stroke:#333333;stroke-width:1.2;"/><polygon fill="#333333" points="875,140.8886,879,131.8886,875,135.8886,871,131.8886,875,140.8886" style="stroke:#333333;stroke-width:1.2;"/><text fill="#000000" font-family="Arial" font-size="14" lengthAdjust="spacing" textLength="48" x="826" y="114.7405">initiates</text></g><!--link Channels to Submit--><g id="link_Channels_Submit"><path d="M875,209.3086 C875,223.4686 875,233.8586 875,248.0086 " fill="none" id="Channels-to-Submit" style="stroke:#333333;stroke-width:1.2;"/><polygon fill="#333333" points="875,254.0086,879,245.0086,875,249.0086,871,245.0086,875,254.0086" style="stroke:#333333;stroke-width:1.2;"/></g><!--link Submit to Received--><g id="link_Submit_Received"><path d="M875,322.3086 C875,336.4686 875,346.8586 875,361.0086 " fill="none" id="Submit-to-Received" style="stroke:#333333;stroke-width:1.2;"/><polygon fill="#333333" points="875,367.0086,879,358.0086,875,362.0086,871,358.0086,875,367.0086" style="stroke:#333333;stroke-width:1.2;"/><text fill="#000000" font-family="Arial" font-size="14" lengthAdjust="spacing" textLength="59" x="815" y="340.7905">produces</text></g><!--link Received to Validate--><g id="link_Received_Validate"><path d="M819,435.3086 C819,449.4686 819,459.8586 819,474.0086 " fill="none" id="Received-to-Validate" style="stroke:#333333;stroke-width:1.2;"/><polygon fill="#333333" points="819,480.0086,823,471.0086,819,475.0086,815,471.0086,819,480.0086" style="stroke:#333333;stroke-width:1.2;"/></g><!--link Validate to Validated--><g id="link_Validate_Validated"><path d="M770,548.3086 C770,562.4686 770,572.8586 770,587.0086 " fill="none" id="Validate-to-Validated" style="stroke:#333333;stroke-width:1.2;"/><polygon fill="#333333" points="770,593.0086,774,584.0086,770,588.0086,766,584.0086,770,593.0086" style="stroke:#333333;stroke-width:1.2;"/><text fill="#000000" font-family="Arial" font-size="14" lengthAdjust="spacing" textLength="29" x="740" y="566.7905">valid</text></g><!--link Validate to ValidationRejected--><g id="link_Validate_ValidationRejected"><path d="M833.12,514.0986 C855.23,514.0986 874.2,514.0986 896.85,514.0986 " fill="none" id="Validate-to-ValidationRejected" style="stroke:#333333;stroke-width:1.2;"/><polygon fill="#333333" points="902.85,514.0986,893.85,510.0986,897.85,514.0986,893.85,518.0986,902.85,514.0986" style="stroke:#333333;stroke-width:1.2;"/><text fill="#000000" font-family="Arial" font-size="14" lengthAdjust="spacing" textLength="40" x="858.48" y="528.2305">invalid</text></g><!--link Validated to RequestScreening--><g id="link_Validated_RequestScreening"><path d="M717,661.3086 C717,675.4686 717,685.8586 717,700.0086 " fill="none" id="Validated-to-RequestScreening" style="stroke:#333333;stroke-width:1.2;"/><polygon fill="#333333" points="717,706.0086,721,697.0086,717,701.0086,713,697.0086,717,706.0086" style="stroke:#333333;stroke-width:1.2;"/></g><!--link RequestScreening to ScreeningCompleted--><g id="link_RequestScreening_ScreeningCompleted"><path d="M670,774.3086 C670,788.4686 670,798.8586 670,813.0086 " fill="none" id="RequestScreening-to-ScreeningCompleted" style="stroke:#333333;stroke-width:1.2;"/><polygon fill="#333333" points="670,819.0086,674,810.0086,670,814.0086,666,810.0086,670,819.0086" style="stroke:#333333;stroke-width:1.2;"/><text fill="#000000" font-family="Arial" font-size="14" lengthAdjust="spacing" textLength="59" x="610" y="792.7905">produces</text></g><!--link ScreeningCompleted to RoutingPolicy--><g id="link_ScreeningCompleted_RoutingPolicy"><path d="M670,887.3086 C670,901.4686 670,911.8586 670,926.0086 " fill="none" id="ScreeningCompleted-to-RoutingPolicy" style="stroke:#333333;stroke-width:1.2;"/><polygon fill="#333333" points="670,932.0086,674,923.0086,670,927.0086,666,923.0086,670,932.0086" style="stroke:#333333;stroke-width:1.2;"/><text fill="#000000" font-family="Arial" font-size="14" lengthAdjust="spacing" textLength="48" x="621" y="905.7905">triggers</text></g><!--link RoutingPolicy to PostPayment--><g id="link_RoutingPolicy_PostPayment"><path d="M608.4,966.0986 C584.38,966.0986 562.5,966.0986 562.5,966.0986 C562.5,966.0986 562.5,1013.5086 562.5,1046.8886 " fill="none" id="RoutingPolicy-to-PostPayment" style="stroke:#333333;stroke-width:1.2;"/><polygon fill="#333333" points="562.5,1052.8886,566.5,1043.8886,562.5,1047.8886,558.5,1043.8886,562.5,1052.8886" style="stroke:#333333;stroke-width:1.2;"/><text fill="#000000" font-family="Arial" font-size="14" lengthAdjust="spacing" textLength="64" x="547" y="1000.6805">route post</text></g><!--reverse link RequestRepair to RoutingPolicy--><g id="link_RequestRepair_RoutingPolicy"><path d="M308.75,1006.2386 C308.75,1018.3786 308.75,1023.0986 308.75,1023.0986 C308.75,1023.0986 657.25,1023.0986 657.25,1023.0986 C657.25,1023.0986 657.25,1012.3786 657.25,1000.2386 " fill="none" id="RequestRepair-backto-RoutingPolicy" style="stroke:#333333;stroke-width:1.2;"/><polygon fill="#333333" points="308.75,1000.2386,304.75,1009.2386,308.75,1005.2386,312.75,1009.2386,308.75,1000.2386" style="stroke:#333333;stroke-width:1.2;"/><text fill="#000000" font-family="Arial" font-size="14" lengthAdjust="spacing" textLength="74" x="408" y="1019.2305">route repair</text></g><!--link RoutingPolicy to RejectPayment--><g id="link_RoutingPolicy_RejectPayment"><path d="M731.79,936.0986 C833.43,936.0986 1024.75,936.0986 1024.75,936.0986 C1024.75,936.0986 1024.75,931.5386 1024.75,933.7786 " fill="none" id="RoutingPolicy-to-RejectPayment" style="stroke:#333333;stroke-width:1.2;"/><polygon fill="#333333" points="1024.75,939.7786,1028.75,930.7786,1024.75,934.7786,1020.75,930.7786,1024.75,939.7786" style="stroke:#333333;stroke-width:1.2;"/><text fill="#000000" font-family="Arial" font-size="14" lengthAdjust="spacing" textLength="72" x="807.11" y="932.2305">route reject</text></g><!--link RoutingPolicy to OpenFraud--><g id="link_RoutingPolicy_OpenFraud"><path d="M718.75,1000.3086 C718.75,1017.1986 718.75,1031.2486 718.75,1046.8986 " fill="none" id="RoutingPolicy-to-OpenFraud" style="stroke:#333333;stroke-width:1.2;"/><polygon fill="#333333" points="718.75,1052.8986,722.75,1043.8986,718.75,1047.8986,714.75,1043.8986,718.75,1052.8986" style="stroke:#333333;stroke-width:1.2;"/><text fill="#000000" font-family="Arial" font-size="14" lengthAdjust="spacing" textLength="104" x="613.75" y="1022.7405">route fraud case</text></g><!--link PostPayment to Posted--><g id="link_PostPayment_Posted"><path d="M535,1105.3086 C535,1123.5586 535,1141.8086 535,1160.0286 " fill="none" id="PostPayment-to-Posted" style="stroke:#333333;stroke-width:1.2;"/><polygon fill="#333333" points="535,1166.0286,539,1157.0286,535,1161.0286,531,1157.0286,535,1166.0286" style="stroke:#333333;stroke-width:1.2;"/><text fill="#000000" font-family="Arial" font-size="14" lengthAdjust="spacing" textLength="59" x="475" y="1131.8005">produces</text></g><!--link RequestRepair to RepairRequested--><g id="link_RequestRepair_RepairRequested"><path d="M244.75,1000.3086 C244.75,1014.4686 244.75,1024.8586 244.75,1039.0086 " fill="none" id="RequestRepair-to-RepairRequested" style="stroke:#333333;stroke-width:1.2;"/><polygon fill="#333333" points="244.75,1045.0086,248.75,1036.0086,244.75,1040.0086,240.75,1036.0086,244.75,1045.0086" style="stroke:#333333;stroke-width:1.2;"/><text fill="#000000" font-family="Arial" font-size="14" lengthAdjust="spacing" textLength="59" x="184.75" y="1018.7905">produces</text></g><!--link RejectPayment to PaymentRejected--><g id="link_RejectPayment_PaymentRejected"><path d="M1064,992.3086 C1064,1010.5586 1064,1028.8086 1064,1047.0286 " fill="none" id="RejectPayment-to-PaymentRejected" style="stroke:#333333;stroke-width:1.2;"/><polygon fill="#333333" points="1064,1053.0286,1068,1044.0286,1064,1048.0286,1060,1044.0286,1064,1053.0286" style="stroke:#333333;stroke-width:1.2;"/><text fill="#000000" font-family="Arial" font-size="14" lengthAdjust="spacing" textLength="59" x="1004" y="1018.8005">produces</text></g><!--link OpenFraud to FraudOpened--><g id="link_OpenFraud_FraudOpened"><path d="M769,1105.3086 C769,1120.9586 769,1134.9986 769,1151.8886 " fill="none" id="OpenFraud-to-FraudOpened" style="stroke:#333333;stroke-width:1.2;"/><polygon fill="#333333" points="769,1157.8886,773,1148.8886,769,1152.8886,765,1148.8886,769,1157.8886" style="stroke:#333333;stroke-width:1.2;"/><text fill="#000000" font-family="Arial" font-size="14" lengthAdjust="spacing" textLength="59" x="709" y="1127.7305">produces</text></g><!--link Payments to Validate--><g id="link_Payments_Validate"><path d="M721,427.3086 C721,442.9586 721,462.9986 721,479.8886 " fill="none" id="Payments-Validate" style="stroke:#333333;stroke-width:1.2;stroke-dasharray:7.0,7.0;"/><text fill="#000000" font-family="Arial" font-size="14" lengthAdjust="spacing" textLength="96" x="624" y="449.7305">owns validation</text></g><!--link FinCrime to RequestScreening--><g id="link_FinCrime_RequestScreening"><path d="M618,661.3086 C618,675.4686 618,691.8586 618,706.0086 " fill="none" id="FinCrime-RequestScreening" style="stroke:#333333;stroke-width:1.2;stroke-dasharray:7.0,7.0;"/><text fill="#000000" font-family="Arial" font-size="14" lengthAdjust="spacing" textLength="122" x="495" y="679.7905">performs screening</text></g><!--link Core to PostPayment--><g id="link_Core_PostPayment"><path d="M511,1000.3086 C511,1017.1986 511,1037.2486 511,1052.8986 " fill="none" id="Core-PostPayment" style="stroke:#333333;stroke-width:1.2;stroke-dasharray:7.0,7.0;"/><text fill="#000000" font-family="Arial" font-size="14" lengthAdjust="spacing" textLength="92" x="418" y="1040.7405">posts payment</text></g><!--link Ops to RequestRepair--><g id="link_Ops_RequestRepair"><path d="M301,879.3086 C301,894.9586 301,914.9986 301,931.8886 " fill="none" id="Ops-RequestRepair" style="stroke:#333333;stroke-width:1.2;stroke-dasharray:7.0,7.0;"/><text fill="#000000" font-family="Arial" font-size="14" lengthAdjust="spacing" textLength="91" x="209" y="901.7305">handles repair</text></g><!--link Fraud to OpenFraud--><g id="link_Fraud_OpenFraud"><path d="M816.75,992.3086 C816.75,1010.5586 816.75,1034.8086 816.75,1053.0286 " fill="none" id="Fraud-OpenFraud" style="stroke:#333333;stroke-width:1.2;stroke-dasharray:7.0,7.0;"/><text fill="#000000" font-family="Arial" font-size="14" lengthAdjust="spacing" textLength="75" x="740.75" y="1018.8005">investigates</text></g><!--link Question to RepairRequested--><g id="link_Question_RepairRequested"><path d="M151.25,1000.3086 C151.25,1014.4686 151.25,1030.8586 151.25,1045.0086 " fill="none" id="Question-RepairRequested" style="stroke:#333333;stroke-width:1.2;stroke-dasharray:7.0,7.0;"/></g><rect fill="none" height="42.1973" id="_legend" rx="7.5" ry="7.5" style="stroke:#000000;stroke-width:1.0;" width="494" x="313.75" y="1243.3945"/><text fill="#000000" font-family="Arial" font-size="14" lengthAdjust="spacing" textLength="452" x="318.75" y="1261.5264">Blue boxes are commands. Orange boxes are events. Green is a policy.</text><text fill="#000000" font-family="Arial" font-size="14" lengthAdjust="spacing" textLength="484" x="318.75" y="1277.625">The board is a discovery view, not BPMN and not a runtime deployment view.</text><!--SRC=[ZLRRSjis47t7LspZrqfnqwR9Q3BkMBVKCscZMfq-wGKXrn8Q4c01KAxwzLqG10XUv8d7uo5tpnwVWyM2-4x8hAXpXFdyDVqQUodGlAuABcrT5ZDxmXBd5JqoPbK5Li4NPQqg8HSQCokKP5RO0c7xy77sm-tiziSv_Agq-4z9M7Bv5NRyKgAqi3dJtxrLkXJo24l5TSwO-IfanJKleH0IxQL2KDgUL9AGAaU35RoxJOAQc5tmfxUCEHbS7ad2gqUqN1ImgWqfH7sG7pxSP_Glx-vU0JSn3ZVRvYSj3PhNuYWiBmvoTU9IOc4SoVvYB9Q1fKqGovljs-sxbAKrQs1NSFj4NaVL4J5HlHMIoqnmSg15YGTvbOMG3MIAPQKqmXehPOGzI5ysDk504yMVAzJSTTN0lUG5bGmNyNDbfjPlgtcTmuCyex7Yo0a_BFI8K9hMxkilfR3joXpaWpHMrytUSXmhLPPSvYsBnyBDUhtPz1MqzRtgHynGd35tFCq6R5b2tCdPt2xVf3n_yKBatEAtwGdeRrKKy2D9CJ6bQThRtmIuIaIOW9XYVCH_QcfLDBdFDAAaqHnRRA4HyOBLX8KugW8dz4LCHBpW6BIgRSDNgK9a5qUsQvw2E9_tCRZPt6z_thplxQwTIcmElIN9ALl3LNh4YWjzTObyUfh8jUAgZ5vwgfxcKZO3jE86n_Kn7Midrj9v7RV3HrzeGV3SUfmQ9WU8wHUffhVi83t5a9XtPiSS3S2dfkfT1Xg5D1YBWtm-AL3FTCnftxFzf_jV7EKVBQHb3Q_DkVL-lM8iVaHcETNFxhhlmGA455RG31iMWm7bpotM7byX6i-X1LHQvNL6fJ4MGE5aOF6i6MPS_Taz9n0jZYVROTBZm0djm_D4KN_OsMZwewFn72Sk9hBnN_H6TW6Mf1vH6yRwcO1FPtJH70W8z7MpGtY1JxPpqCvYAF1j7fQ4HUhFNrVZebTKTICNu4_DMqPxbB5KS-fZsEfKQjU2_Zpr2bATaNWmFab1fpA0qpb9W2nUJERpxgEsy3DoZdk8nPi7mKPRW_XGkmkB0HCtK7FL87I_ZQw11Yh_pjobeYEChQCXokaw6fhdZH0kNNiHhnpa8evhGzPRHiOAFABCs_ihMnOrqlE_HCz9OERFKqFaTBayfYbqfmmbFZf782W8_cCqPt-U792kiZwS2vEfC-eBd0K-VqztLmlBtM-_0p4tBnnqBQrRlXohGld5SDWvGsVL2VmV]--></g></svg>