<?xml version="1.0" encoding="us-ascii" standalone="no"?><svg xmlns="http://www.w3.org/2000/svg" xmlns:xlink="http://www.w3.org/1999/xlink" contentStyleType="text/css" height="890px" preserveAspectRatio="none" style="width:902px;height:890px;background:#FFFFFF;" version="1.1" viewBox="0 0 902 890" width="902px" zoomAndPan="magnify"><defs/><g><text fill="#000000" font-family="Arial" font-size="14" font-weight="bold" lengthAdjust="spacing" textLength="365" x="261.75" y="23.1318">FIG-03-03. Reviewed Horizon Bank Payment Diagram</text><!--cluster bank--><g id="cluster_bank"><path d="M344.5,263.5986 L480.5,263.5986 A3.75,3.75 0 0 1 483,266.0986 L490,283.3975 L893,283.3975 A2.5,2.5 0 0 1 895.5,285.8975 L895.5,773.0986 A2.5,2.5 0 0 1 893,775.5986 L344.5,775.5986 A2.5,2.5 0 0 1 342,773.0986 L342,266.0986 A2.5,2.5 0 0 1 344.5,263.5986 " fill="#FFFFFF" style="stroke:#5B6B7A;stroke-width:1.5;"/><line style="stroke:#5B6B7A;stroke-width:1.5;" x1="342" x2="490" y1="283.3975" y2="283.3975"/><text fill="#111111" font-family="Arial" font-size="12" font-weight="bold" lengthAdjust="spacing" textLength="135" x="346" y="276.8545">Horizon Bank trust zone</text></g><!--entity mobile--><g id="elem_mobile"><rect fill="#F4F8FB" height="75.1953" rx="4" ry="4" style="stroke:#2B4D66;stroke-width:0.5;" width="154" x="358" y="684.0986"/><text fill="#111111" font-family="Arial" font-size="12" lengthAdjust="spacing" textLength="84" x="368" y="705.3545">Mobile Banking</text><text fill="#111111" font-family="Arial" font-size="12" lengthAdjust="spacing" textLength="3" x="368" y="719.1533">&#160;</text><text fill="#111111" font-family="Arial" font-size="12" lengthAdjust="spacing" textLength="82" x="368" y="732.9521">Digital channel</text><text fill="#111111" font-family="Arial" font-size="12" lengthAdjust="spacing" textLength="134" x="368" y="746.751">Owner: Digital Channels</text></g><!--entity orchestration--><g id="elem_orchestration"><rect fill="#F4F8FB" height="75.1953" rx="4" ry="4" style="stroke:#2B4D66;stroke-width:0.5;" width="145" x="362.5" y="545.0986"/><text fill="#111111" font-family="Arial" font-size="12" lengthAdjust="spacing" textLength="125" x="372.5" y="566.3545">Payment Orchestration</text><text fill="#111111" font-family="Arial" font-size="12" lengthAdjust="spacing" textLength="3" x="372.5" y="580.1533">&#160;</text><text fill="#111111" font-family="Arial" font-size="12" lengthAdjust="spacing" textLength="96" x="372.5" y="593.9521">Payment platform</text><text fill="#111111" font-family="Arial" font-size="12" lengthAdjust="spacing" textLength="97" x="372.5" y="607.751">Owner: Payments</text></g><!--entity fraud--><g id="elem_fraud"><rect fill="#F4F8FB" height="75.1953" rx="4" ry="4" style="stroke:#2B4D66;stroke-width:0.5;" width="149" x="718" y="649.0986"/><text fill="#111111" font-family="Arial" font-size="12" lengthAdjust="spacing" textLength="91" x="728" y="670.3545">Fraud Screening</text><text fill="#111111" font-family="Arial" font-size="12" lengthAdjust="spacing" textLength="3" x="728" y="684.1533">&#160;</text><text fill="#111111" font-family="Arial" font-size="12" lengthAdjust="spacing" textLength="128" x="728" y="697.9521">Financial-crime system</text><text fill="#111111" font-family="Arial" font-size="12" lengthAdjust="spacing" textLength="129" x="728" y="711.751">Owner: Financial Crime</text></g><!--entity sanctions--><g id="elem_sanctions"><rect fill="#F4F8FB" height="75.1953" rx="4" ry="4" style="stroke:#2B4D66;stroke-width:0.5;" width="149" x="718" y="510.0986"/><text fill="#111111" font-family="Arial" font-size="12" lengthAdjust="spacing" textLength="114" x="728" y="531.3545">Sanctions Screening</text><text fill="#111111" font-family="Arial" font-size="12" lengthAdjust="spacing" textLength="3" x="728" y="545.1533">&#160;</text><text fill="#111111" font-family="Arial" font-size="12" lengthAdjust="spacing" textLength="128" x="728" y="558.9521">Financial-crime system</text><text fill="#111111" font-family="Arial" font-size="12" lengthAdjust="spacing" textLength="129" x="728" y="572.751">Owner: Financial Crime</text></g><!--entity core--><g id="elem_core"><rect fill="#F4F8FB" height="75.1953" rx="4" ry="4" style="stroke:#2B4D66;stroke-width:0.5;" width="142" x="364" y="296.0986"/><text fill="#111111" font-family="Arial" font-size="12" lengthAdjust="spacing" textLength="75" x="374" y="317.3545">Core Banking</text><text fill="#111111" font-family="Arial" font-size="12" lengthAdjust="spacing" textLength="3" x="374" y="331.1533">&#160;</text><text fill="#111111" font-family="Arial" font-size="12" lengthAdjust="spacing" textLength="86" x="374" y="344.9521">Account system</text><text fill="#111111" font-family="Arial" font-size="12" lengthAdjust="spacing" textLength="122" x="374" y="358.751">Owner: Core Accounts</text></g><!--entity notify--><g id="elem_notify"><rect fill="#F4F8FB" height="75.1953" rx="4" ry="4" style="stroke:#2B4D66;stroke-width:0.5;" width="154" x="358" y="406.0986"/><text fill="#111111" font-family="Arial" font-size="12" lengthAdjust="spacing" textLength="119" x="368" y="427.3545">Customer Notification</text><text fill="#111111" font-family="Arial" font-size="12" lengthAdjust="spacing" textLength="3" x="368" y="441.1533">&#160;</text><text fill="#111111" font-family="Arial" font-size="12" lengthAdjust="spacing" textLength="103" x="368" y="454.9521">Messaging service</text><text fill="#111111" font-family="Arial" font-size="12" lengthAdjust="spacing" textLength="134" x="368" y="468.751">Owner: Digital Channels</text></g><!--entity ops--><g id="elem_ops"><rect fill="#F4F8FB" height="75.1953" rx="4" ry="4" style="stroke:#2B4D66;stroke-width:0.5;" width="174" x="705.5" y="348.0986"/><text fill="#111111" font-family="Arial" font-size="12" lengthAdjust="spacing" textLength="152" x="715.5" y="369.3545">Payment Operations Queue</text><text fill="#111111" font-family="Arial" font-size="12" lengthAdjust="spacing" textLength="3" x="715.5" y="383.1533">&#160;</text><text fill="#111111" font-family="Arial" font-size="12" lengthAdjust="spacing" textLength="104" x="715.5" y="396.9521">Exception handling</text><text fill="#111111" font-family="Arial" font-size="12" lengthAdjust="spacing" textLength="154" x="715.5" y="410.751">Owner: Payment Operations</text></g><!--entity meta--><g id="elem_meta"><rect fill="#FFF7D6" height="116.5918" rx="4" ry="4" style="stroke:#2B4D66;stroke-width:0.5;" width="184" x="7" y="663.0986"/><text fill="#111111" font-family="Arial" font-size="12" lengthAdjust="spacing" textLength="158" x="17" y="684.3545">Purpose: Review target-state</text><text fill="#111111" font-family="Arial" font-size="12" lengthAdjust="spacing" textLength="156" x="17" y="698.1533">payment submission scope,</text><text fill="#111111" font-family="Arial" font-size="12" lengthAdjust="spacing" textLength="153" x="17" y="711.9521">dependencies and controls.</text><text fill="#111111" font-family="Arial" font-size="12" lengthAdjust="spacing" textLength="164" x="17" y="725.751">Owner: Payments Architecture</text><text fill="#111111" font-family="Arial" font-size="12" lengthAdjust="spacing" textLength="65" x="17" y="739.5498">Version: 1.0</text><text fill="#111111" font-family="Arial" font-size="12" lengthAdjust="spacing" textLength="81" x="17" y="753.3486">Status: Review</text><text fill="#111111" font-family="Arial" font-size="12" lengthAdjust="spacing" textLength="69" x="17" y="767.1475">State: Target</text></g><!--entity customer--><g id="elem_customer"><rect fill="#F4F8FB" height="61.3965" rx="4" ry="4" style="stroke:#2B4D66;stroke-width:0.5;" width="75" x="397.5" y="823.0986"/><text fill="#111111" font-family="Arial" font-size="12" lengthAdjust="spacing" textLength="55" x="407.5" y="844.3545">Customer</text><text fill="#111111" font-family="Arial" font-size="12" lengthAdjust="spacing" textLength="3" x="407.5" y="858.1533">&#160;</text><text fill="#111111" font-family="Arial" font-size="12" lengthAdjust="spacing" textLength="40" x="407.5" y="871.9521">Person</text></g><!--entity rail--><g id="elem_rail"><rect fill="#F4F8FB" height="75.1953" rx="4" ry="4" style="stroke:#2B4D66;stroke-width:0.5;" width="172" x="349" y="44.0986"/><text fill="#111111" font-family="Arial" font-size="12" lengthAdjust="spacing" textLength="120" x="359" y="65.3545">External Payment Rail</text><text fill="#111111" font-family="Arial" font-size="12" lengthAdjust="spacing" textLength="3" x="359" y="79.1533">&#160;</text><text fill="#111111" font-family="Arial" font-size="12" lengthAdjust="spacing" textLength="152" x="359" y="92.9521">External scheme or network</text><text fill="#111111" font-family="Arial" font-size="12" lengthAdjust="spacing" textLength="134" x="359" y="106.751">Owner: external operator</text></g><g id="elem_GMN24"><path d="M336,154.0986 L336,246.8916 L534,246.8916 L534,164.0986 L524,154.0986 L336,154.0986 " fill="#FFF7D6" style="stroke:#8A6D1D;stroke-width:0.5;"/><path d="M524,154.0986 L524,164.0986 L534,164.0986 L524,154.0986 " fill="#FFF7D6" style="stroke:#8A6D1D;stroke-width:1.0;"/><text fill="#111111" font-family="Arial" font-size="12" lengthAdjust="spacing" textLength="162" x="342" y="170.3545">Trust boundary: bank controls</text><text fill="#111111" font-family="Arial" font-size="12" lengthAdjust="spacing" textLength="126" x="342" y="184.1533">end at this external rail.</text><text fill="#111111" font-family="Arial" font-size="12" lengthAdjust="spacing" textLength="158" x="342" y="197.9521">Settlement status is returned</text><text fill="#111111" font-family="Arial" font-size="12" lengthAdjust="spacing" textLength="131" x="342" y="211.751">to Core Banking, but the</text><text fill="#111111" font-family="Arial" font-size="12" lengthAdjust="spacing" textLength="146" x="342" y="225.5498">response line is omitted to</text><text fill="#111111" font-family="Arial" font-size="12" lengthAdjust="spacing" textLength="177" x="342" y="239.3486">keep this review figure readable.</text></g><g id="elem_GMN27"><path d="M691,209.5986 L691,247.1963 L894,247.1963 L894,219.5986 L884,209.5986 L691,209.5986 " fill="#FFF7D6" style="stroke:#8A6D1D;stroke-width:0.5;"/><path d="M884,209.5986 L884,219.5986 L894,219.5986 L884,209.5986 " fill="#FFF7D6" style="stroke:#8A6D1D;stroke-width:1.0;"/><text fill="#111111" font-family="Arial" font-size="12" lengthAdjust="spacing" textLength="136" x="697" y="225.8545">Exception path is explicit:</text><text fill="#111111" font-family="Arial" font-size="12" lengthAdjust="spacing" textLength="182" x="697" y="239.6533">rejected, repair or manual review.</text></g><!--link meta to mobile--><!--link customer to mobile--><g id="link_customer_mobile"><path d="M435,822.9786 C435,803.9386 435,785.3286 435,765.1186 " fill="none" id="customer-to-mobile" style="stroke:#555555;stroke-width:1.0;"/><polygon fill="#555555" points="435,759.1186,431,768.1186,435,764.1186,439,768.1186,435,759.1186" style="stroke:#555555;stroke-width:1.0;"/><text fill="#333333" font-family="Arial" font-size="12" lengthAdjust="spacing" textLength="89" x="373" y="788.8545">Submit payment</text><text fill="#333333" font-family="Arial" font-size="12" lengthAdjust="spacing" textLength="57" x="389" y="802.6533">instruction</text></g><!--link mobile to orchestration--><g id="link_mobile_orchestration"><path d="M435,683.9786 C435,664.2086 435,646.0286 435,626.2486 " fill="none" id="mobile-to-orchestration" style="stroke:#555555;stroke-width:1.0;"/><polygon fill="#555555" points="435,620.2486,431,629.2486,435,625.2486,439,629.2486,435,620.2486" style="stroke:#555555;stroke-width:1.0;"/><text fill="#333333" font-family="Arial" font-size="12" lengthAdjust="spacing" textLength="79" x="378" y="649.8545">Send payment</text><text fill="#333333" font-family="Arial" font-size="12" lengthAdjust="spacing" textLength="42" x="396.5" y="663.6533">request</text></g><!--link orchestration to fraud--><g id="link_orchestration_fraud"><path d="M507.51,603.5186 C568.64,621.3986 650.5016,645.3431 712.2016,663.4031 " fill="none" id="orchestration-to-fraud" style="stroke:#555555;stroke-width:1.0;"/><polygon fill="#555555" points="717.96,665.0886,710.4461,658.7214,713.1613,663.684,708.1987,666.3993,717.96,665.0886" style="stroke:#555555;stroke-width:1.0;"/><text fill="#333333" font-family="Arial" font-size="12" lengthAdjust="spacing" textLength="78" x="573.5" y="605.8545">Request fraud</text><text fill="#333333" font-family="Arial" font-size="12" lengthAdjust="spacing" textLength="55" x="585" y="619.6533">screening</text></g><!--link fraud to sanctions--><g id="link_fraud_sanctions"><path d="M792.5,648.9786 C792.5,629.2086 792.5,611.0286 792.5,591.2486 " fill="none" id="fraud-to-sanctions" style="stroke:#555555;stroke-width:1.0;"/><polygon fill="#555555" points="792.5,585.2486,788.5,594.2486,792.5,590.2486,796.5,594.2486,792.5,585.2486" style="stroke:#555555;stroke-width:1.0;"/><text fill="#333333" font-family="Arial" font-size="12" lengthAdjust="spacing" textLength="62" x="744" y="614.8545">Forward for</text><text fill="#333333" font-family="Arial" font-size="12" lengthAdjust="spacing" textLength="112" x="719" y="628.6533">sanctions screening</text></g><!--reverse link orchestration to sanctions--><g id="link_orchestration_sanctions"><path d="M513.4811,574.9706 C574.6111,568.9506 656.26,560.9186 717.96,554.8386 " fill="none" id="orchestration-backto-sanctions" style="stroke:#555555;stroke-width:1.0;"/><polygon fill="#555555" points="507.51,575.5586,516.8587,578.6573,512.4859,575.0686,516.0747,570.6958,507.51,575.5586" style="stroke:#555555;stroke-width:1.0;"/><text fill="#333333" font-family="Arial" font-size="12" lengthAdjust="spacing" textLength="95" x="565" y="544.8545">Return screening</text><text fill="#333333" font-family="Arial" font-size="12" lengthAdjust="spacing" textLength="47" x="589" y="558.6533">decision</text></g><!--link orchestration to core--><g id="link_orchestration_core"><path d="M372.11,545.0686 C318.99,513.3686 251.5,473.0986 251.5,473.0986 C251.5,473.0986 251.5,444.0986 251.5,444.0986 C251.5,444.0986 334,388.5986 334,388.5986 C334,388.5986 342.9305,383.7378 360.6905,374.0678 " fill="none" id="orchestration-to-core" style="stroke:#555555;stroke-width:1.0;"/><polygon fill="#555555" points="365.96,371.1986,356.1429,371.9894,361.5687,373.5896,359.9685,379.0154,365.96,371.1986" style="stroke:#555555;stroke-width:1.0;"/><text fill="#333333" font-family="Arial" font-size="12" lengthAdjust="spacing" textLength="78" x="224.5" y="456.3545">Post accepted</text><text fill="#333333" font-family="Arial" font-size="12" lengthAdjust="spacing" textLength="47" x="240" y="470.1533">payment</text></g><!--link core to rail--><g id="link_core_rail"><path d="M372.29,296.0086 C318.29,263.6386 249,222.0986 249,222.0986 C249,222.0986 249,193.0986 249,193.0986 C249,193.0986 334,136.5986 334,136.5986 C334,136.5986 342.9305,131.7378 360.6905,122.0678 " fill="none" id="core-to-rail" style="stroke:#555555;stroke-width:1.0;"/><polygon fill="#555555" points="365.96,119.1986,356.1429,119.9894,361.5687,121.5896,359.9685,127.0154,365.96,119.1986" style="stroke:#555555;stroke-width:1.0;"/><text fill="#333333" font-family="Arial" font-size="12" lengthAdjust="spacing" textLength="83" x="222" y="205.3545">Submit cleared</text><text fill="#333333" font-family="Arial" font-size="12" lengthAdjust="spacing" textLength="47" x="240" y="219.1533">payment</text></g><!--link orchestration to ops--><g id="link_orchestration_ops"><path d="M503.7,545.0786 C566.86,510.0786 655.3215,461.0561 718.5015,426.0561 " fill="none" id="orchestration-to-ops" style="stroke:#555555;stroke-width:1.0;"/><polygon fill="#555555" points="723.75,423.1486,713.939,424.0109,719.3763,425.5716,717.8156,431.0089,723.75,423.1486" style="stroke:#555555;stroke-width:1.0;"/><text fill="#333333" font-family="Arial" font-size="12" lengthAdjust="spacing" textLength="94" x="565.5" y="444.8545">Route rejected or</text><text fill="#333333" font-family="Arial" font-size="12" lengthAdjust="spacing" textLength="82" x="571.5" y="458.6533">repair payment</text></g><!--link orchestration to notify--><g id="link_orchestration_notify"><path d="M435,544.9786 C435,525.2086 435,507.0286 435,487.2486 " fill="none" id="orchestration-to-notify" style="stroke:#555555;stroke-width:1.0;"/><polygon fill="#555555" points="435,481.2486,431,490.2486,435,486.2486,439,490.2486,435,481.2486" style="stroke:#555555;stroke-width:1.0;"/><text fill="#333333" font-family="Arial" font-size="12" lengthAdjust="spacing" textLength="84" x="375.5" y="510.8545">Send customer</text><text fill="#333333" font-family="Arial" font-size="12" lengthAdjust="spacing" textLength="66" x="384.5" y="524.6533">status event</text></g><!--link rail to GMN24--><g id="link_rail_GMN24"><path d="M435,119.1286 C435,120.4786 435,121.2686 435,121.2686 C435,121.2686 435,142.6586 435,154.0186 " fill="none" id="rail-GMN24" style="stroke:#555555;stroke-width:1.0;stroke-dasharray:7.0,7.0;"/></g><!--link ops to GMN27--><g id="link_ops_GMN27"><path d="M792.5,347.8386 C792.5,339.5886 792.5,333.2686 792.5,333.2686 C792.5,333.2686 792.5,280.9286 792.5,280.9286 C792.5,280.9286 792.5,262.7286 792.5,247.7886 " fill="none" id="ops-GMN27" style="stroke:#555555;stroke-width:1.0;stroke-dasharray:7.0,7.0;"/></g><!--SRC=[fLPBSnit3BxpLs3SgwM9arJnwD0PouhQ7fAuLgQNgWUA2wrOKUGMv5fHEltl1SbzAdPxw8v6ykBn0GG-W0uw68JLppzENhtXpnGUyKdZ2GluoP7-wYmif3t0WpmVqGPOQbcIF0hX3zfMaly4lvU5EsbRmauQZmDDWJjPcx1oDdoKHuGxqj8yhr_hhmWthmTAGXMaBJcvlmHm4kfGagjjSU-C8_XkzNPrkrf4ZQC2gP6-NhnTpcOiZPYDx2OzB7lCxcIHu5RyFOXLCReiNugKdij8tozcYtTtpqOQ8biNNePzjvnTmjxUpPOto_-4bKJkb73RTD8pzdkJdf6VqHR3kKAed3d75o4CxW841wJBVO12nxfhPuNe6t3rK5FbFCuRSa2GL6AO-203RXWwSyFNswFsdft1ArVXzSOMM25_MQNHWxG5A4wFdF7JZVrquaRCMsPvPeVQwy11QsBGNv4YqXnkfgysTisHQj_6p- -SpkUKnnL83qSCiYlgCFVxsWTtHDhOZNrWK6UJlMh4GhJDlneHFX0R0BzYCjz6MQpt0Fc3ssh-ZURC_eY_rAKEqe3QIslHT6TivVTPxdF6oNqCsOxP9wu5-a0ojY9btYWg8yFEqV6RyYL8DtGR8wz8rWMi5I7Q9jkLjf8x8yr4aURnz6SVi4Vkr70VrId0BgACWTTi5CFv_mtkMwHn09xOKP7lbE8n2fU8oQpHvMeebbn0DKs7ZoxedLPTUJ-WzxACEymZFMc5_zuw6ztFBxIkmbn_3x_KM6E4V_z5OHLbm2Y5IGSPzs_WbZjPUHxS8O_VVmb8bZDfFHwbDXcyKNXkFbUQHv-7_EJeq0N1riIbA8vI36808TBWJ7xRwuBdz7VUv7RoGylDTaXWahP3fu0vhEEmCnzpCXjkE_EkpgkZCUgSHhIClhmJUa_2FslMYh7LfCaaCGxYv2Uh_BwnlkMQo0PTh8v4xBDoT99K00yCUtIAthUNJUhgcKGVaPUHxHtYGbCwxgNBRDlmaNFi-E0uLQbYrx7eDgH8siusrh-lf38eQMZyV3sO634nL_EzGlW7yuElwdW-mafgWXUysvYPkMqFLBSRVLgmW4_HLwHRQ-i2Ay7jCb4-fuMuZJUOfFCyRyHsdOk89laUsMlViotwJSKQ0_-BaM-878LjA5KM2y4tpt30hs5RHnXawlkAEuFfpeekZgiK3nkSE21MEHRb2scdIxur-4qMScjmclA9f_ZcB76m-d6iPDX3IhaoMkam5srDhw4fA8_JKTew7YV56c3_0m00]--></g></svg>