<?xml version="1.0" encoding="us-ascii" standalone="no"?><svg xmlns="http://www.w3.org/2000/svg" xmlns:xlink="http://www.w3.org/1999/xlink" contentStyleType="text/css" height="869px" preserveAspectRatio="none" style="width:1749px;height:869px;background:#FFFFFF;" version="1.1" viewBox="0 0 1749 869" width="1749px" zoomAndPan="magnify"><defs/><g><text fill="#000000" font-family="Arial" font-size="14" font-weight="bold" lengthAdjust="spacing" textLength="345" x="695" y="23.1318">FIG-11-05. Horizon Bank Payment Resilience View</text><!--cluster Primary--><g id="cluster_Primary"><rect fill="#F7F9FB" height="206" rx="2.5" ry="2.5" style="stroke:#333333;stroke-width:1.0;" width="585.5" x="697.5" y="182.5986"/><text fill="#000000" font-family="Arial" font-size="14" font-weight="bold" lengthAdjust="spacing" textLength="187" x="896.75" y="197.7305">Primary Production Region</text><text fill="#000000" font-family="Arial" font-size="14" font-weight="bold" lengthAdjust="spacing" textLength="141" x="919.75" y="213.8291">Normal service path</text></g><!--cluster Secondary--><g id="cluster_Secondary"><rect fill="#F7F9FB" height="206" rx="2.5" ry="2.5" style="stroke:#333333;stroke-width:1.0;" width="599" x="1106" y="412.5986"/><text fill="#000000" font-family="Arial" font-size="14" font-weight="bold" lengthAdjust="spacing" textLength="199" x="1306" y="427.7305">Secondary Recovery Region</text><text fill="#000000" font-family="Arial" font-size="14" font-weight="bold" lengthAdjust="spacing" textLength="98" x="1356.5" y="443.8291">Warm standby</text></g><!--entity PrimaryPayments--><g id="elem_PrimaryPayments"><rect fill="#FFFFFF" height="62.1973" rx="2.5" ry="2.5" style="stroke:#333333;stroke-width:0.5;" width="158" x="713.5" y="310.5986"/><rect fill="#FFFFFF" height="10" style="stroke:#333333;stroke-width:0.5;" width="15" x="851.5" y="315.5986"/><rect fill="#FFFFFF" height="2" style="stroke:#333333;stroke-width:0.5;" width="4" x="849.5" y="317.5986"/><rect fill="#FFFFFF" height="2" style="stroke:#333333;stroke-width:0.5;" width="4" x="849.5" y="321.5986"/><text fill="#000000" font-family="Arial" font-size="14" lengthAdjust="spacing" textLength="118" x="728.5" y="343.7305">Payments Platform</text><text fill="#000000" font-family="Arial" font-size="14" lengthAdjust="spacing" textLength="88" x="728.5" y="359.8291">active runtime</text></g><!--entity PrimaryStore--><g id="elem_PrimaryStore"><path d="M1135,244.0986 C1135,234.0986 1201,234.0986 1201,234.0986 C1201,234.0986 1267,234.0986 1267,244.0986 L1267,285.2959 C1267,295.2959 1201,295.2959 1201,295.2959 C1201,295.2959 1135,295.2959 1135,285.2959 L1135,244.0986 " fill="#F2F5F7" style="stroke:#333333;stroke-width:0.5;"/><path d="M1135,244.0986 C1135,254.0986 1201,254.0986 1201,254.0986 C1201,254.0986 1267,254.0986 1267,244.0986 " fill="none" style="stroke:#333333;stroke-width:0.5;"/><text fill="#000000" font-family="Arial" font-size="14" lengthAdjust="spacing" textLength="112" x="1145" y="271.2305">Payment Records</text><text fill="#000000" font-family="Arial" font-size="14" lengthAdjust="spacing" textLength="83" x="1145" y="287.3291">primary store</text></g><!--entity PrimaryEvents--><g id="elem_PrimaryEvents"><path d="M1150,330.5986 L1252,330.5986 C1257,330.5986 1257,351.6973 1257,351.6973 C1257,351.6973 1257,372.7959 1252,372.7959 L1150,372.7959 C1145,372.7959 1145,351.6973 1145,351.6973 C1145,351.6973 1145,330.5986 1150,330.5986 " fill="#F1F1F1" style="stroke:#181818;stroke-width:0.5;"/><path d="M1252,330.5986 C1247,330.5986 1247,351.6973 1247,351.6973 C1247,372.7959 1252,372.7959 1252,372.7959 " fill="none" style="stroke:#181818;stroke-width:0.5;"/><text fill="#000000" font-family="Arial" font-size="14" lengthAdjust="spacing" textLength="92" x="1150" y="348.7305">Event Platform</text><text fill="#000000" font-family="Arial" font-size="14" lengthAdjust="spacing" textLength="47" x="1150" y="364.8291">primary</text></g><!--entity SecondaryPayments--><g id="elem_SecondaryPayments"><rect fill="#FFFFFF" height="62.1973" rx="2.5" ry="2.5" style="stroke:#333333;stroke-width:0.5;" width="158" x="1122" y="521.5986"/><rect fill="#FFFFFF" height="10" style="stroke:#333333;stroke-width:0.5;" width="15" x="1260" y="526.5986"/><rect fill="#FFFFFF" height="2" style="stroke:#333333;stroke-width:0.5;" width="4" x="1258" y="528.5986"/><rect fill="#FFFFFF" height="2" style="stroke:#333333;stroke-width:0.5;" width="4" x="1258" y="532.5986"/><text fill="#000000" font-family="Arial" font-size="14" lengthAdjust="spacing" textLength="118" x="1137" y="554.7305">Payments Platform</text><text fill="#000000" font-family="Arial" font-size="14" lengthAdjust="spacing" textLength="101" x="1137" y="570.8291">standby runtime</text></g><!--entity SecondaryStore--><g id="elem_SecondaryStore"><path d="M1557,474.0986 C1557,464.0986 1623,464.0986 1623,464.0986 C1623,464.0986 1689,464.0986 1689,474.0986 L1689,515.2959 C1689,525.2959 1623,525.2959 1623,525.2959 C1623,525.2959 1557,525.2959 1557,515.2959 L1557,474.0986 " fill="#F2F5F7" style="stroke:#333333;stroke-width:0.5;"/><path d="M1557,474.0986 C1557,484.0986 1623,484.0986 1623,484.0986 C1623,484.0986 1689,484.0986 1689,474.0986 " fill="none" style="stroke:#333333;stroke-width:0.5;"/><text fill="#000000" font-family="Arial" font-size="14" lengthAdjust="spacing" textLength="112" x="1567" y="501.2305">Payment Records</text><text fill="#000000" font-family="Arial" font-size="14" lengthAdjust="spacing" textLength="78" x="1567" y="517.3291">replica store</text></g><!--entity SecondaryEvents--><g id="elem_SecondaryEvents"><path d="M1572,560.5986 L1674,560.5986 C1679,560.5986 1679,581.6973 1679,581.6973 C1679,581.6973 1679,602.7959 1674,602.7959 L1572,602.7959 C1567,602.7959 1567,581.6973 1567,581.6973 C1567,581.6973 1567,560.5986 1572,560.5986 " fill="#F1F1F1" style="stroke:#181818;stroke-width:0.5;"/><path d="M1674,560.5986 C1669,560.5986 1669,581.6973 1669,581.6973 C1669,602.7959 1674,602.7959 1674,602.7959 " fill="none" style="stroke:#181818;stroke-width:0.5;"/><text fill="#000000" font-family="Arial" font-size="14" lengthAdjust="spacing" textLength="92" x="1572" y="578.7305">Event Platform</text><text fill="#000000" font-family="Arial" font-size="14" lengthAdjust="spacing" textLength="42" x="1572" y="594.8291">replica</text></g><!--entity Customer--><g id="elem_Customer"><ellipse cx="84" cy="337.0986" fill="#FFFFFF" rx="8" ry="8" style="stroke:#333333;stroke-width:0.5;"/><path d="M84,345.0986 L84,372.0986 M71,353.0986 L97,353.0986 M84,372.0986 L71,387.0986 M84,372.0986 L97,387.0986 " fill="none" style="stroke:#333333;stroke-width:0.5;"/><text fill="#000000" font-family="Arial" font-size="14" lengthAdjust="spacing" textLength="101" x="33.5" y="401.7305">Retail Customer</text></g><!--entity Channels--><g id="elem_Channels"><rect fill="#FFFFFF" height="62.1973" rx="2.5" ry="2.5" style="stroke:#333333;stroke-width:0.5;" width="130" x="332" y="335.5986"/><rect fill="#FFFFFF" height="10" style="stroke:#333333;stroke-width:0.5;" width="15" x="442" y="340.5986"/><rect fill="#FFFFFF" height="2" style="stroke:#333333;stroke-width:0.5;" width="4" x="440" y="342.5986"/><rect fill="#FFFFFF" height="2" style="stroke:#333333;stroke-width:0.5;" width="4" x="440" y="346.5986"/><text fill="#000000" font-family="Arial" font-size="14" lengthAdjust="spacing" textLength="90" x="347" y="368.7305">Horizon Digital</text><text fill="#000000" font-family="Arial" font-size="14" lengthAdjust="spacing" textLength="60" x="347" y="384.8291">Channels</text></g><!--entity CoreDeposit--><g id="elem_CoreDeposit"><path d="M1514,648.0986 C1514,638.0986 1623,638.0986 1623,638.0986 C1623,638.0986 1732,638.0986 1732,648.0986 L1732,705.3945 C1732,715.3945 1623,715.3945 1623,715.3945 C1623,715.3945 1514,715.3945 1514,705.3945 L1514,648.0986 " fill="#F2F5F7" style="stroke:#333333;stroke-width:0.5;"/><path d="M1514,648.0986 C1514,658.0986 1623,658.0986 1623,658.0986 C1623,658.0986 1732,658.0986 1732,648.0986 " fill="none" style="stroke:#333333;stroke-width:0.5;"/><text fill="#000000" font-family="Arial" font-size="14" lengthAdjust="spacing" textLength="133" x="1524" y="675.2305">Core Deposit System</text><text fill="#000000" font-family="Arial" font-size="14" lengthAdjust="spacing" textLength="166" x="1524" y="691.3291">retained core dependency</text><text fill="#000000" font-family="Arial" font-size="14" lengthAdjust="spacing" textLength="198" x="1524" y="707.4277">constrains end-to-end recovery</text></g><!--entity BackupStore--><g id="elem_BackupStore"><path d="M1538.5,53.0986 C1538.5,43.0986 1623,43.0986 1623,43.0986 C1623,43.0986 1707.5,43.0986 1707.5,53.0986 L1707.5,94.2959 C1707.5,104.2959 1623,104.2959 1623,104.2959 C1623,104.2959 1538.5,104.2959 1538.5,94.2959 L1538.5,53.0986 " fill="#F2F5F7" style="stroke:#333333;stroke-width:0.5;"/><path d="M1538.5,53.0986 C1538.5,63.0986 1623,63.0986 1623,63.0986 C1623,63.0986 1707.5,63.0986 1707.5,53.0986 " fill="none" style="stroke:#333333;stroke-width:0.5;"/><text fill="#000000" font-family="Arial" font-size="14" lengthAdjust="spacing" textLength="85" x="1548.5" y="80.2305">Backup Store</text><text fill="#000000" font-family="Arial" font-size="14" lengthAdjust="spacing" textLength="149" x="1548.5" y="96.3291">separate recovery copy</text></g><!--entity Ops--><g id="elem_Ops"><rect fill="#FFFFFF" height="62.1973" rx="2.5" ry="2.5" style="stroke:#333333;stroke-width:0.5;" width="154" x="7" y="494.5986"/><rect fill="#FFFFFF" height="10" style="stroke:#333333;stroke-width:0.5;" width="15" x="141" y="499.5986"/><rect fill="#FFFFFF" height="2" style="stroke:#333333;stroke-width:0.5;" width="4" x="139" y="501.5986"/><rect fill="#FFFFFF" height="2" style="stroke:#333333;stroke-width:0.5;" width="4" x="139" y="505.5986"/><text fill="#000000" font-family="Arial" font-size="14" lengthAdjust="spacing" textLength="110" x="22" y="527.7305">Operations Team</text><text fill="#000000" font-family="Arial" font-size="14" lengthAdjust="spacing" textLength="114" x="22" y="543.8291">incident command</text></g><!--entity Trigger--><g id="elem_Trigger"><rect fill="#FFFFFF" height="62.1973" rx="2.5" ry="2.5" style="stroke:#333333;stroke-width:0.5;" width="148" x="323" y="580.5986"/><rect fill="#FFFFFF" height="10" style="stroke:#333333;stroke-width:0.5;" width="15" x="451" y="585.5986"/><rect fill="#FFFFFF" height="2" style="stroke:#333333;stroke-width:0.5;" width="4" x="449" y="587.5986"/><rect fill="#FFFFFF" height="2" style="stroke:#333333;stroke-width:0.5;" width="4" x="449" y="591.5986"/><text fill="#000000" font-family="Arial" font-size="14" lengthAdjust="spacing" textLength="101" x="338" y="613.7305">Failover Trigger</text><text fill="#000000" font-family="Arial" font-size="14" lengthAdjust="spacing" textLength="108" x="338" y="629.8291">incident declared</text></g><!--entity Readiness--><g id="elem_Readiness"><rect fill="#FFFFFF" height="62.1973" rx="2.5" ry="2.5" style="stroke:#333333;stroke-width:0.5;" width="233" x="676" y="650.5986"/><rect fill="#FFFFFF" height="10" style="stroke:#333333;stroke-width:0.5;" width="15" x="889" y="655.5986"/><rect fill="#FFFFFF" height="2" style="stroke:#333333;stroke-width:0.5;" width="4" x="887" y="657.5986"/><rect fill="#FFFFFF" height="2" style="stroke:#333333;stroke-width:0.5;" width="4" x="887" y="661.5986"/><text fill="#000000" font-family="Arial" font-size="14" lengthAdjust="spacing" textLength="151" x="691" y="683.7305">Dependency Readiness</text><text fill="#000000" font-family="Arial" font-size="14" lengthAdjust="spacing" textLength="193" x="691" y="699.8291">core, routes and data checked</text></g><!--entity Reconciliation--><g id="elem_Reconciliation"><rect fill="#FFFFFF" height="62.1973" rx="2.5" ry="2.5" style="stroke:#333333;stroke-width:0.5;" width="162" x="711.5" y="102.5986"/><rect fill="#FFFFFF" height="10" style="stroke:#333333;stroke-width:0.5;" width="15" x="853.5" y="107.5986"/><rect fill="#FFFFFF" height="2" style="stroke:#333333;stroke-width:0.5;" width="4" x="851.5" y="109.5986"/><rect fill="#FFFFFF" height="2" style="stroke:#333333;stroke-width:0.5;" width="4" x="851.5" y="113.5986"/><text fill="#000000" font-family="Arial" font-size="14" lengthAdjust="spacing" textLength="122" x="726.5" y="135.7305">Data Reconciliation</text><text fill="#000000" font-family="Arial" font-size="14" lengthAdjust="spacing" textLength="93" x="726.5" y="151.8291">before failback</text></g><!--link Customer to Channels--><g id="link_Customer_Channels"><path d="M134.62,366.5986 C188.04,366.5986 267.21,366.5986 325.72,366.5986 " fill="none" id="Customer-to-Channels" style="stroke:#333333;stroke-width:1.3;"/><polygon fill="#333333" points="331.72,366.5986,322.72,362.5986,326.72,366.5986,322.72,370.5986,331.72,366.5986" style="stroke:#333333;stroke-width:1.3;"/><text fill="#000000" font-family="Arial" font-size="14" lengthAdjust="spacing" textLength="99" x="192.5" y="362.7305">submit payment</text></g><!--link Channels to PrimaryPayments--><g id="link_Channels_PrimaryPayments"><path d="M462.1,362.5286 C530.7,358.1686 633.5821,351.6292 707.2121,346.9492 " fill="none" id="Channels-to-PrimaryPayments" style="stroke:#333333;stroke-width:1.3;"/><polygon fill="#333333" points="713.2,346.5686,703.9644,343.1476,708.2101,346.8858,704.4719,351.1315,713.2,346.5686" style="stroke:#333333;stroke-width:1.3;"/><text fill="#000000" font-family="Arial" font-size="14" lengthAdjust="spacing" textLength="140" x="503.5" y="347.7305">normal payment traffic</text></g><!--link PrimaryPayments to PrimaryStore--><g id="link_PrimaryPayments_PrimaryStore"><path d="M871.88,326.7486 C948.36,312.2686 1057.4547,291.5946 1129.0347,278.0446 " fill="none" id="PrimaryPayments-to-PrimaryStore" style="stroke:#333333;stroke-width:1.3;"/><polygon fill="#333333" points="1134.93,276.9286,1125.3431,274.6724,1130.0172,277.8586,1126.831,282.5328,1134.93,276.9286" style="stroke:#333333;stroke-width:1.3;"/><text fill="#000000" font-family="Arial" font-size="14" lengthAdjust="spacing" textLength="141" x="944" y="283.7305">record payment status</text></g><!--link PrimaryPayments to PrimaryEvents--><g id="link_PrimaryPayments_PrimaryEvents"><path d="M871.88,343.5286 C952.05,345.4986 1068.5418,348.3605 1138.9818,350.1005 " fill="none" id="PrimaryPayments-to-PrimaryEvents" style="stroke:#333333;stroke-width:1.3;"/><polygon fill="#333333" points="1144.98,350.2486,1136.0815,346.0276,1139.9815,350.1252,1135.884,354.0252,1144.98,350.2486" style="stroke:#333333;stroke-width:1.3;"/><text fill="#000000" font-family="Arial" font-size="14" lengthAdjust="spacing" textLength="149" x="940" y="341.7305">publish payment events</text></g><!--link PrimaryPayments to CoreDeposit--><g id="link_PrimaryPayments_CoreDeposit"><path d="M858.59,372.6986 C875.83,382.3786 893.84,393.8886 909,406.5986 C1010.38,491.6086 980.62,575.5486 1098,636.5986 C1228.73,704.5886 1397.0875,703.2822 1507.9775,692.6322 " fill="none" id="PrimaryPayments-to-CoreDeposit" style="stroke:#333333;stroke-width:1.3;"/><polygon fill="#333333" points="1513.95,692.0586,1504.6088,688.9374,1508.9729,692.5366,1505.3736,696.9007,1513.95,692.0586" style="stroke:#333333;stroke-width:1.3;"/><text fill="#000000" font-family="Arial" font-size="14" lengthAdjust="spacing" textLength="128" x="1137" y="632.7305">posting dependency</text></g><!--link PrimaryStore to SecondaryStore--><g id="link_PrimaryStore_SecondaryStore"><path d="M1267.12,280.4986 C1326.46,296.7686 1415.11,325.6386 1484,367.5986 C1527.52,394.1086 1565.3416,431.2495 1591.3316,459.5495 " fill="none" id="PrimaryStore-to-SecondaryStore" style="stroke:#666666;stroke-width:1.3;stroke-dasharray:7.0,7.0;"/><polygon fill="#666666" points="1595.39,463.9686,1592.2484,454.6343,1592.008,460.286,1586.3562,460.0455,1595.39,463.9686" style="stroke:#666666;stroke-width:1.3;"/><text fill="#000000" font-family="Arial" font-size="14" lengthAdjust="spacing" textLength="97" x="1348.5" y="274.7305">data replication</text><text fill="#000000" font-family="Arial" font-size="14" lengthAdjust="spacing" textLength="90" x="1352" y="290.8291">RPO objective</text></g><!--link PrimaryEvents to SecondaryEvents--><g id="link_PrimaryEvents_SecondaryEvents"><path d="M1255.77,372.6286 C1327.41,401.4286 1449.22,453.3586 1484,486.5986 C1504.41,506.1086 1492.64,524.1386 1514,542.5986 C1528.93,555.5086 1542.7574,562.424 1561.0974,568.314 " fill="none" id="PrimaryEvents-to-SecondaryEvents" style="stroke:#666666;stroke-width:1.3;stroke-dasharray:7.0,7.0;"/><polygon fill="#666666" points="1566.81,570.1486,1559.4642,563.5883,1562.0495,568.6198,1557.018,571.2051,1566.81,570.1486" style="stroke:#666666;stroke-width:1.3;"/><text fill="#000000" font-family="Arial" font-size="14" lengthAdjust="spacing" textLength="104" x="1345" y="394.7305">event replication</text></g><!--link PrimaryStore to BackupStore--><g id="link_PrimaryStore_BackupStore"><path d="M1267.16,234.9686 C1345.27,199.4386 1470.0382,142.7023 1549.1382,106.7323 " fill="none" id="PrimaryStore-to-BackupStore" style="stroke:#666666;stroke-width:1.3;stroke-dasharray:7.0,7.0;"/><polygon fill="#666666" points="1554.6,104.2486,1544.7515,104.333,1550.0485,106.3184,1548.0631,111.6154,1554.6,104.2486" style="stroke:#666666;stroke-width:1.3;"/><text fill="#000000" font-family="Arial" font-size="14" lengthAdjust="spacing" textLength="80" x="1357" y="121.7305">backup copy</text><text fill="#000000" font-family="Arial" font-size="14" lengthAdjust="spacing" textLength="157" x="1318.5" y="137.8291">separate from replication</text></g><!--link Ops to Trigger--><g id="link_Ops_Trigger"><path d="M161.08,546.6386 C210.35,560.2586 268.387,576.3096 317.067,589.7696 " fill="none" id="Ops-to-Trigger" style="stroke:#333333;stroke-width:1.3;"/><polygon fill="#333333" points="322.85,591.3686,315.2415,585.1148,318.0308,590.0361,313.1095,592.8255,322.85,591.3686" style="stroke:#333333;stroke-width:1.3;"/><text fill="#000000" font-family="Arial" font-size="14" lengthAdjust="spacing" textLength="100" x="192" y="552.7305">declare incident</text></g><!--link Trigger to Readiness--><g id="link_Trigger_Readiness"><path d="M471.09,624.5986 C528.55,634.8186 603.7528,648.1972 669.9928,659.9872 " fill="none" id="Trigger-to-Readiness" style="stroke:#333333;stroke-width:1.3;"/><polygon fill="#333333" points="675.9,661.0386,667.7402,655.5234,670.9774,660.1625,666.3383,663.3996,675.9,661.0386" style="stroke:#333333;stroke-width:1.3;"/><text fill="#000000" font-family="Arial" font-size="14" lengthAdjust="spacing" textLength="143" x="502" y="626.7305">start recovery decision</text></g><!--link Readiness to SecondaryPayments--><g id="link_Readiness_SecondaryPayments"><path d="M909.08,656.9086 C964.54,643.7186 1031.5,625.8086 1090,604.5986 C1106.38,598.6586 1118.2012,593.7037 1134.0512,586.2437 " fill="none" id="Readiness-to-SecondaryPayments" style="stroke:#333333;stroke-width:1.3;"/><polygon fill="#333333" points="1139.48,583.6886,1129.6335,583.9021,1134.956,585.8179,1133.0403,591.1405,1139.48,583.6886" style="stroke:#333333;stroke-width:1.3;"/><text fill="#000000" font-family="Arial" font-size="14" lengthAdjust="spacing" textLength="103" x="963" y="584.7305">activate standby</text><text fill="#000000" font-family="Arial" font-size="14" lengthAdjust="spacing" textLength="90" x="969.5" y="600.8291">RTO objective</text></g><!--link Channels to SecondaryPayments--><g id="link_Channels_SecondaryPayments"><path d="M462.28,381.5086 C608.08,415.3186 957.6252,496.3829 1115.8952,533.0929 " fill="none" id="Channels-to-SecondaryPayments" style="stroke:#666666;stroke-width:1.3;stroke-dasharray:7.0,7.0;"/><polygon fill="#666666" points="1121.74,534.4486,1113.8765,528.5185,1116.8693,533.3189,1112.069,536.3117,1121.74,534.4486" style="stroke:#666666;stroke-width:1.3;"/><text fill="#000000" font-family="Arial" font-size="14" lengthAdjust="spacing" textLength="83" x="751" y="428.7305">failover route</text></g><!--link SecondaryPayments to SecondaryStore--><g id="link_SecondaryPayments_SecondaryStore"><path d="M1280.11,539.2186 C1290.16,537.6086 1300.32,536.0286 1310,534.5986 C1395.09,522.0586 1487.6226,510.5223 1550.8126,502.9523 " fill="none" id="SecondaryPayments-to-SecondaryStore" style="stroke:#333333;stroke-width:1.3;"/><polygon fill="#333333" points="1556.77,502.2386,1547.3581,499.3376,1551.8055,502.8334,1548.3097,507.2808,1556.77,502.2386" style="stroke:#333333;stroke-width:1.3;"/><text fill="#000000" font-family="Arial" font-size="14" lengthAdjust="spacing" textLength="154" x="1320" y="508.7305">recovered status access</text></g><!--link SecondaryPayments to SecondaryEvents--><g id="link_SecondaryPayments_SecondaryEvents"><path d="M1280.01,557.9886 C1363.4,563.7386 1487.4942,572.3157 1560.8442,577.3757 " fill="none" id="SecondaryPayments-to-SecondaryEvents" style="stroke:#333333;stroke-width:1.3;"/><polygon fill="#333333" points="1566.83,577.7886,1558.1266,573.1787,1561.8419,577.4445,1557.5761,581.1598,1566.83,577.7886" style="stroke:#333333;stroke-width:1.3;"/><text fill="#000000" font-family="Arial" font-size="14" lengthAdjust="spacing" textLength="128" x="1333" y="556.7305">publish after failover</text></g><!--link SecondaryPayments to CoreDeposit--><g id="link_SecondaryPayments_CoreDeposit"><path d="M1272.31,583.6386 C1284.75,588.6286 1297.67,593.4886 1310,597.5986 C1376.67,619.7986 1447.2753,637.8922 1507.8153,651.9422 " fill="none" id="SecondaryPayments-to-CoreDeposit" style="stroke:#333333;stroke-width:1.3;"/><polygon fill="#333333" points="1513.66,653.2986,1505.7973,647.3676,1508.7894,652.1683,1503.9887,655.1604,1513.66,653.2986" style="stroke:#333333;stroke-width:1.3;"/><text fill="#000000" font-family="Arial" font-size="14" lengthAdjust="spacing" textLength="172" x="1311" y="593.7305">dependency must be ready</text></g><!--link SecondaryStore to Reconciliation--><g id="link_SecondaryStore_Reconciliation"><path d="M1613.35,464.0086 C1597.04,412.1386 1556.68,307.2286 1484,252.5986 C1300.58,114.7286 1018.5648,115.0016 879.6848,124.9116 " fill="none" id="SecondaryStore-to-Reconciliation" style="stroke:#666666;stroke-width:1.3;stroke-dasharray:7.0,7.0;"/><polygon fill="#666666" points="873.7,125.3386,882.9619,128.6879,878.6873,124.9828,882.3925,120.7082,873.7,125.3386" style="stroke:#666666;stroke-width:1.3;"/><text fill="#000000" font-family="Arial" font-size="14" lengthAdjust="spacing" textLength="115" x="1143.5" y="123.7305">reconcile changes</text></g><!--link Reconciliation to PrimaryStore--><g id="link_Reconciliation_PrimaryStore"><path d="M873.81,159.4786 C950.28,184.1286 1058.2294,218.9078 1129.2094,241.7878 " fill="none" id="Reconciliation-to-PrimaryStore" style="stroke:#666666;stroke-width:1.3;stroke-dasharray:7.0,7.0;"/><polygon fill="#666666" points="1134.92,243.6286,1127.5812,237.0603,1130.1611,242.0946,1125.1268,244.6745,1134.92,243.6286" style="stroke:#666666;stroke-width:1.3;"/><text fill="#000000" font-family="Arial" font-size="14" lengthAdjust="spacing" textLength="115" x="957" y="179.7305">data reconciliation</text></g><!--link Ops to PrimaryPayments--><g id="link_Ops_PrimaryPayments"><path d="M161.03,508.2286 C239.04,490.1886 363.82,460.7186 471,432.5986 C554.08,410.8086 642.8615,385.3639 707.6115,366.4139 " fill="none" id="Ops-to-PrimaryPayments" style="stroke:#666666;stroke-width:1.3;stroke-dasharray:7.0,7.0;"/><polygon fill="#666666" points="713.37,364.7286,703.6088,363.4176,708.5713,366.133,705.8558,371.0955,713.37,364.7286" style="stroke:#666666;stroke-width:1.3;"/><text fill="#000000" font-family="Arial" font-size="14" lengthAdjust="spacing" textLength="145" x="324.5" y="428.7305">failback after validation</text></g><rect fill="none" height="106.5918" id="_legend" rx="7.5" ry="7.5" style="stroke:#000000;stroke-width:1.0;" width="608" x="563.5" y="743.3945"/><text fill="#000000" font-family="Arial" font-size="14" lengthAdjust="spacing" textLength="274" x="568.5" y="761.5264">Solid arrows show normal production traffic.</text><text fill="#000000" font-family="Arial" font-size="14" lengthAdjust="spacing" textLength="319" x="568.5" y="777.625">Dashed arrows show replication or recovery paths.</text><text fill="#000000" font-family="Arial" font-size="14" lengthAdjust="spacing" textLength="515" x="568.5" y="793.7236">RTO and RPO are modelled objectives, not guarantees without tested operations.</text><text fill="#000000" font-family="Arial" font-size="14" lengthAdjust="spacing" textLength="450" x="568.5" y="809.8223">Core Deposit System remains an external dependency during recovery.</text><text fill="#000000" font-family="Arial" font-size="14" lengthAdjust="spacing" textLength="467" x="568.5" y="825.9209">Replication is not a backup; the backup store is a separate recovery copy.</text><text fill="#000000" font-family="Arial" font-size="14" lengthAdjust="spacing" textLength="598" x="568.5" y="842.0195">Redundancy alone does not prove resilience without tested failover, failback and reconciliation.</text><!--SRC=[bLRVRoCr47xtNp7qNfiSrGaGXuH4MmAyqAgjk0V2WxEUP4syzc9xKmBYVsV6wztrvd8jh28bMS_tpGz_C_PdsbQcKmZBvLlwX7Wq6DwsHjhODMOHQsnmsT9F8Gnk8qG7Nk_g24fxhA9sLaGT3SBgfnyMLrUBpxzOme_Ewx-SXMjfzt0lZmtQ20yOjD5eAuHVD3uB4VRQjjBB1fX8sXsH_2q0hfrNw6-SSHxUl4iFlvNLVkTTPrLUMNsr-dfrBVufU2hNjCwoi__3avuPptVUk-UdMbTxYo70rVAT4BAAP7tnW55g0pTTYAv1Vm4oZ7_4vFzYAC6jtkaepThUrD9QDA57v3z2JAbVt7lTI7-4U-zKbofBDTlHrzh-x7mZ3GJq1qtrQsMi4yy0uNGBvxdaj6vat19sRIbyVK3mdOswmH8y61E5ab5kPC2HWGAeg8fXRTliYJBrC_WZlo3i7nrs1Fp-mB39RyQLY6GIgE1bye_ao2hsm2uFc7xqoN-GlY6_qgfDppFPlfvtniqI7_7_BNMFhT6LB58V2Lv9FYFdc2dzoUSDqS0jjYxe28_7436XIMeM5ML8gmfRj8hQvxYsn1IYfyK0z6uHtOA-k8jIuNg54IOJ5dvO_5qBAMog3RBS8uv8yjJsyDwmJwyey5sB1A1T2V24acAauQ4LBv5HGvLEuBisbA0LDGpJmnCDZXtw0gMmCj9Z3ylB9VHsJ9gsGohDxSZfUxm4wk680SXfsZoeQgpscMeqdf6n5UygUJSwfR6s6znoTRSKuuPopkZIHeYXls6n-7PiNNWFeTiqj5zjBnWnhh3PINEHjUrxE5i3xTzsgojnQbY0K_a9wPCIHoH9EdRX9M0lCKAstSReK8zGxBLt3be8Xe4kH6rtXUg4c4Mr-FNDb-cvL3BKg7uZYdbR44lQbzm4VRaVxk_0RNx7D8t4FDmNASUKKWebwUjn5M8cWatV0opreWMstZKpLa4gJeN9ikHqUhN285ynBB7PA3aMHfG-Jbr5E1sOSx9PbBaL8abZckF9SuigzbHMRDBOIyKg2BT3ywLs4H-RBCvjN0wTPaylDeghucvw1VwHxkGsakiXXa_0vygR50SDzHriU3n9THGdGPuhmBnnSnxy0cawq463GPoOd6CvwRuiujb8IDhuDFIa_gouN8g3D5fbWHdSyTZUk4ZJHJmwMW79Duy0eNRFuy2OhWDvPYp5RV8uiowq2tHH6SN7TuMm52mZ7fNSWApXnYaqXZX6ROLByXXXrr53s8WqMfzrh4arG6CsikKu_9VYp855Bfjq94aB-2SbQoduOZTLvtcY385HI4N4EYJdCdVdDq3tpg5JqxdB5dG4dpsnc4hHXKwo6sbet8Dos3DIzVZQCzqzJv8Qj7bPx5G-IwVzNWfAej-kVm40]--></g></svg>