<?xml version="1.0" encoding="us-ascii" standalone="no"?><svg xmlns="http://www.w3.org/2000/svg" xmlns:xlink="http://www.w3.org/1999/xlink" contentStyleType="text/css" height="997px" preserveAspectRatio="none" style="width:2000px;height:997px;background:#FFFFFF;" version="1.1" viewBox="0 0 2000 997" width="2000px" zoomAndPan="magnify"><defs/><g><text fill="#000000" font-family="Arial" font-size="14" font-weight="bold" lengthAdjust="spacing" textLength="310" x="838" y="23.1318">FIG-12-01. Online Store Trust Boundary View</text><!--cluster Edge--><g id="cluster_Edge"><rect fill="#F7F9FB" height="161" rx="2.5" ry="2.5" style="stroke:#333333;stroke-width:1.0;" width="178" x="681" y="74.0986"/><text fill="#000000" font-family="Arial" font-size="14" font-weight="bold" lengthAdjust="spacing" textLength="128" x="706" y="89.2305">Online Store Edge</text><text fill="#000000" font-family="Arial" font-size="14" font-weight="bold" lengthAdjust="spacing" textLength="111" x="714.5" y="105.3291">boundary basis:</text><text fill="#000000" font-family="Arial" font-size="14" font-weight="bold" lengthAdjust="spacing" textLength="158" x="691" y="121.4277">public entry policy and</text><text fill="#000000" font-family="Arial" font-size="14" font-weight="bold" lengthAdjust="spacing" textLength="151" x="694.5" y="137.5264">network enforcement</text></g><!--cluster AppRuntime--><g id="cluster_AppRuntime"><rect fill="#F7F9FB" height="297" rx="2.5" ry="2.5" style="stroke:#333333;stroke-width:1.0;" width="1008" x="986" y="44.0986"/><text fill="#000000" font-family="Arial" font-size="14" font-weight="bold" lengthAdjust="spacing" textLength="232" x="1374" y="59.2305">Online Store Application Runtime</text></g><!--cluster DataArea--><g id="cluster_DataArea"><rect fill="#F7F9FB" height="161" rx="2.5" ry="2.5" style="stroke:#333333;stroke-width:1.0;" width="222" x="1760.5" y="741.0986"/><text fill="#000000" font-family="Arial" font-size="14" font-weight="bold" lengthAdjust="spacing" textLength="206" x="1768.5" y="756.2305">Restricted Data-Custody Area</text><text fill="#000000" font-family="Arial" font-size="14" font-weight="bold" lengthAdjust="spacing" textLength="111" x="1816" y="772.3291">boundary basis:</text><text fill="#000000" font-family="Arial" font-size="14" font-weight="bold" lengthAdjust="spacing" textLength="119" x="1812" y="788.4277">data custody and</text><text fill="#000000" font-family="Arial" font-size="14" font-weight="bold" lengthAdjust="spacing" textLength="94" x="1824.5" y="804.5264">access policy</text></g><!--entity EdgeEndpoint--><g id="elem_EdgeEndpoint"><rect fill="#F7F9FB" height="62.1973" rx="2.5" ry="2.5" style="stroke:#333333;stroke-width:0.5;" width="146" x="697" y="157.0986"/><rect fill="#F7F9FB" height="10" style="stroke:#333333;stroke-width:0.5;" width="15" x="823" y="162.0986"/><rect fill="#F7F9FB" height="2" style="stroke:#333333;stroke-width:0.5;" width="4" x="821" y="164.0986"/><rect fill="#F7F9FB" height="2" style="stroke:#333333;stroke-width:0.5;" width="4" x="821" y="168.0986"/><text fill="#000000" font-family="Arial" font-size="14" lengthAdjust="spacing" textLength="93" x="712" y="190.2305">Edge Endpoint</text><text fill="#000000" font-family="Arial" font-size="14" lengthAdjust="spacing" textLength="106" x="712" y="206.3291">filters and routes</text></g><!--entity RuntimeBasis--><g id="elem_RuntimeBasis"><rect fill="#F7F9FB" height="68.2959" rx="2.5" ry="2.5" style="stroke:#333333;stroke-width:0.5;" width="190" x="1002" y="79.0986"/><text fill="#000000" font-family="Arial" font-size="14" lengthAdjust="spacing" textLength="101" x="1012" y="102.2305">boundary basis:</text><text fill="#000000" font-family="Arial" font-size="14" lengthAdjust="spacing" textLength="170" x="1012" y="118.3291">execution environment and</text><text fill="#000000" font-family="Arial" font-size="14" lengthAdjust="spacing" textLength="108" x="1012" y="134.4277">application policy</text></g><!--entity AppEntry--><g id="elem_AppEntry"><rect fill="#F7F9FB" height="46.0986" rx="2.5" ry="2.5" style="stroke:#333333;stroke-width:0.5;" width="146" x="1024" y="182.0986"/><rect fill="#F7F9FB" height="10" style="stroke:#333333;stroke-width:0.5;" width="15" x="1150" y="187.0986"/><rect fill="#F7F9FB" height="2" style="stroke:#333333;stroke-width:0.5;" width="4" x="1148" y="189.0986"/><rect fill="#F7F9FB" height="2" style="stroke:#333333;stroke-width:0.5;" width="4" x="1148" y="193.0986"/><text fill="#000000" font-family="Arial" font-size="14" lengthAdjust="spacing" textLength="106" x="1039" y="215.2305">Application Entry</text></g><!--entity StoreRuntime--><g id="elem_StoreRuntime"><rect fill="#F7F9FB" height="62.1973" rx="2.5" ry="2.5" style="stroke:#333333;stroke-width:0.5;" width="150" x="1389" y="263.0986"/><rect fill="#F7F9FB" height="10" style="stroke:#333333;stroke-width:0.5;" width="15" x="1519" y="268.0986"/><rect fill="#F7F9FB" height="2" style="stroke:#333333;stroke-width:0.5;" width="4" x="1517" y="270.0986"/><rect fill="#F7F9FB" height="2" style="stroke:#333333;stroke-width:0.5;" width="4" x="1517" y="274.0986"/><text fill="#000000" font-family="Arial" font-size="14" lengthAdjust="spacing" textLength="79" x="1404" y="296.2305">Online Store</text><text fill="#000000" font-family="Arial" font-size="14" lengthAdjust="spacing" textLength="110" x="1404" y="312.3291">Web/API Runtime</text></g><!--entity AppResponsibilities--><g id="elem_AppResponsibilities"><rect fill="#F7F9FB" height="116.5918" rx="2.5" ry="2.5" style="stroke:#333333;stroke-width:0.5;" width="213" x="1765" y="204.5986"/><text fill="#000000" font-family="Arial" font-size="14" lengthAdjust="spacing" textLength="169" x="1775" y="227.7305">application responsibilities:</text><text fill="#000000" font-family="Arial" font-size="14" lengthAdjust="spacing" textLength="193" x="1775" y="243.8291">authentication-result validation</text><text fill="#000000" font-family="Arial" font-size="14" lengthAdjust="spacing" textLength="112" x="1775" y="259.9277">session validation</text><text fill="#000000" font-family="Arial" font-size="14" lengthAdjust="spacing" textLength="95" x="1775" y="276.0264">input validation</text><text fill="#000000" font-family="Arial" font-size="14" lengthAdjust="spacing" textLength="82" x="1775" y="292.125">authorisation</text><text fill="#000000" font-family="Arial" font-size="14" lengthAdjust="spacing" textLength="168" x="1775" y="308.2236">business-rule enforcement</text></g><!--entity SupportInterface--><g id="elem_SupportInterface"><rect fill="#F7F9FB" height="62.1973" rx="2.5" ry="2.5" style="stroke:#333333;stroke-width:0.5;" width="159" x="1017.5" y="263.0986"/><rect fill="#F7F9FB" height="10" style="stroke:#333333;stroke-width:0.5;" width="15" x="1156.5" y="268.0986"/><rect fill="#F7F9FB" height="2" style="stroke:#333333;stroke-width:0.5;" width="4" x="1154.5" y="270.0986"/><rect fill="#F7F9FB" height="2" style="stroke:#333333;stroke-width:0.5;" width="4" x="1154.5" y="274.0986"/><text fill="#000000" font-family="Arial" font-size="14" lengthAdjust="spacing" textLength="119" x="1032.5" y="296.2305">Controlled Support</text><text fill="#000000" font-family="Arial" font-size="14" lengthAdjust="spacing" textLength="55" x="1032.5" y="312.3291">Interface</text></g><!--entity DataStore--><g id="elem_DataStore"><path d="M1799.5,834.5986 C1799.5,824.5986 1871.5,824.5986 1871.5,824.5986 C1871.5,824.5986 1943.5,824.5986 1943.5,834.5986 L1943.5,875.7959 C1943.5,885.7959 1871.5,885.7959 1871.5,885.7959 C1871.5,885.7959 1799.5,885.7959 1799.5,875.7959 L1799.5,834.5986 " fill="#F2F5F7" style="stroke:#333333;stroke-width:0.5;"/><path d="M1799.5,834.5986 C1799.5,844.5986 1871.5,844.5986 1871.5,844.5986 C1871.5,844.5986 1943.5,844.5986 1943.5,834.5986 " fill="none" style="stroke:#333333;stroke-width:0.5;"/><text fill="#000000" font-family="Arial" font-size="14" lengthAdjust="spacing" textLength="124" x="1809.5" y="861.7305">Order and Payment</text><text fill="#000000" font-family="Arial" font-size="14" lengthAdjust="spacing" textLength="68" x="1809.5" y="877.8291">Data Store</text></g><!--entity Customer--><g id="elem_Customer"><ellipse cx="36.5" cy="150.5986" fill="#FFFFFF" rx="8" ry="8" style="stroke:#333333;stroke-width:0.5;"/><path d="M36.5,158.5986 L36.5,185.5986 M23.5,166.5986 L49.5,166.5986 M36.5,185.5986 L23.5,200.5986 M36.5,185.5986 L49.5,200.5986 " fill="none" style="stroke:#333333;stroke-width:0.5;"/><text fill="#000000" font-family="Arial" font-size="14" lengthAdjust="spacing" textLength="61" x="6" y="215.2305">Customer</text><text fill="#000000" font-family="Arial" font-size="14" lengthAdjust="spacing" textLength="43" x="6" y="231.3291">Device</text></g><!--entity PublicNetwork--><g id="elem_PublicNetwork"><path d="M263.5729,151.5254 C266.3915,143.4661 272.1668,142.4054 277.8117,148.7271 C281.7352,141.5058 289.6164,140.1921 294.0949,148.1309 C298.3427,140.3912 306.454,140.7869 311.1894,147.5563 C317.287,138.5193 323.9908,137.8203 330.02,147.6246 C333.8847,138.9977 340.0934,138.4347 346.1241,145.3855 C349.6472,138.2045 357.0918,137.7467 361.264,144.6899 C365.3239,137.5253 372.9851,136.4302 377.8066,143.8245 C384.0595,136.1232 389.7983,136.9203 395.0832,144.8916 C400.3985,137.3641 407.5439,138.437 411.5762,146.2693 C416.3995,138.8152 422.381,140.2085 426.6449,146.8666 C432.9916,140.1145 438.5858,140.4776 443.7272,148.2812 C448.5961,141.0036 456.3007,141.5775 460.5744,148.965 C465.1042,141.6794 473.0995,141.1776 478.0405,148.4724 C483.8633,143.0367 489.632,143.2964 492.2783,151.7326 C501.2209,156.398 502.7576,162.6475 494.6418,169.5727 C505.4418,174.0417 507.3131,183.0407 498.0126,190.7144 C507.1984,198.6018 506.2878,205.5243 495.2411,210.5905 C502.5525,217.7372 502.669,224.9553 492.4579,229.5266 C488.6242,237.7552 480.7586,236.2067 476.7562,229.7064 C472.1406,237.6118 466.0229,238.8108 460.3326,230.8166 C455.7967,237.6984 447.5769,239.7552 443.2699,230.5735 C438.0569,238.7792 431.3175,238.9383 426.9132,229.8104 C423.1151,239.2845 415.3367,239.5318 409.9245,231.3647 C404.3728,238.5214 400.0328,236.9165 395.6121,230.1981 C391.2752,238.8921 385.678,240.5986 378.685,232.949 C373.1702,239.7923 364.505,239.8094 360.5933,231.0859 C355.6984,238.4616 350.4159,239.0224 344.5073,232.2375 C337.8291,239.7983 331.9549,238.9577 327.7326,229.7767 C323.621,238.105 316.3874,237.5839 311.6818,230.3909 C307.1457,238.2793 299.1035,239.5434 294.5758,230.3826 C290.2755,238.4277 282.8783,237.0298 279.3582,229.6147 C273.7309,239.3693 267.2081,238.8768 261.4384,229.7498 C250.3633,224.1214 249.2351,217.8833 258.0101,208.9786 C247.4336,204.1336 244.9636,197.8693 253.5949,188.8178 C246.2909,182.1763 244.7335,173.3152 256.0347,168.9596 C249.0133,159.7594 254.004,153.5523 263.5729,151.5254 " fill="#FFFFFF" style="stroke:#333333;stroke-width:0.5;"/><text fill="#000000" font-family="Arial" font-size="14" lengthAdjust="spacing" textLength="92" x="268" y="169.2305">Public Network</text><text fill="#000000" font-family="Arial" font-size="14" lengthAdjust="spacing" textLength="101" x="268" y="185.3291">boundary basis:</text><text fill="#000000" font-family="Arial" font-size="14" lengthAdjust="spacing" textLength="160" x="268" y="201.4277">network enforcement and</text><text fill="#000000" font-family="Arial" font-size="14" lengthAdjust="spacing" textLength="217" x="268" y="217.5264">Online Store administrative control</text></g><!--entity IdentityService--><g id="elem_IdentityService"><path d="M1812.0697,365.4926 C1814.9646,359.0665 1818.9609,359.0954 1823.6233,363.6294 C1826.9004,356.8289 1833.0237,357.5545 1836.1617,363.7635 C1837.6725,356.8492 1843.1066,355.7342 1847.9326,360.3912 C1852.419,353.4886 1856.5418,354.8403 1861.2283,360.1737 C1863.2881,354.5887 1867.768,354.1311 1871.7847,357.9852 C1877.1775,353.4832 1881.5433,354.3077 1884.8351,360.5396 C1888.7387,355.5532 1892.1469,355.877 1896.1259,360.4505 C1900.2365,355.7554 1906.0779,356.9763 1908.3069,362.659 C1912.7232,356.5252 1919.142,357.4231 1921.4711,364.7069 C1930.4441,360.1944 1936.5801,361.0709 1939,372.0986 C1940.2772,371.2682 1941.0449,371.7415 1941.1988,373.1849 C1948.1878,376.8564 1947.7961,381.5829 1941.8405,385.9073 C1948.475,390.5186 1949.0032,395.3311 1941.7587,399.861 C1947.5944,402.6379 1949.2639,408.6015 1942.8399,412.4327 C1948.5955,416.2553 1949.2019,422.7701 1942.7396,426.5056 C1949.5593,432.01 1948.1312,436.8767 1941.6134,441.3706 C1947.7318,451.4193 1943.3103,458.7383 1932,459.5918 C1932.378,458.9443 1932.9451,459.0925 1933.2809,459.6371 C1930.9196,467.5571 1926.2166,467.8395 1920.4012,463.1711 C1917.7844,469.0491 1911.8714,468.7818 1908.5324,463.9731 C1905.6811,470.965 1900.3947,470.8745 1896.2855,465.1883 C1894.4985,471.3711 1889.9044,474.0864 1884.393,469.1838 C1881.2206,475.1058 1876.6554,474.9153 1872.7646,469.9513 C1867.678,475.772 1863.5402,474.3949 1860.217,468.1217 C1855.6783,472.7884 1851.0786,471.9288 1848.8117,465.7357 C1844.4032,472.049 1839.0231,470.8108 1836.3463,464.0808 C1830.9706,470.3378 1826.3949,467.9389 1823.3404,461.6705 C1813.1381,466.3451 1806.714,463.8696 1804,452.5918 C1804.939,451.7868 1805.6303,452.1839 1805.8828,453.2739 C1798.0098,451.4282 1797.069,446.5351 1802.0019,440.7281 C1795.2678,438.0816 1793.9232,432.7433 1798.6644,427.2543 C1790.479,425.2009 1790.8585,418.2405 1795.9877,413.5806 C1790.2918,408.0661 1792.6149,402.123 1799.3314,399.5709 C1793.4415,393.8718 1794.4405,389.7737 1801.4081,386.0493 C1792.4433,375.2226 1799.554,366.5806 1811,365.0986 C1811.5101,364.6396 1811.9486,364.8951 1812.0697,365.4926 " fill="#FFFFFF" style="stroke:#333333;stroke-width:0.5;"/><text fill="#000000" font-family="Arial" font-size="14" lengthAdjust="spacing" textLength="96" x="1811" y="385.2305">Identity Service</text><text fill="#000000" font-family="Arial" font-size="14" lengthAdjust="spacing" textLength="121" x="1811" y="401.3291">external supporting</text><text fill="#000000" font-family="Arial" font-size="14" lengthAdjust="spacing" textLength="98" x="1811" y="417.4277">security service</text><text fill="#000000" font-family="Arial" font-size="14" lengthAdjust="spacing" textLength="101" x="1811" y="433.5264">boundary basis:</text><text fill="#000000" font-family="Arial" font-size="14" lengthAdjust="spacing" textLength="104" x="1811" y="449.625">identity authority</text></g><!--entity PaymentProvider--><g id="elem_PaymentProvider"><path d="M1796.7978,511.632 C1799.3187,504.4799 1804.5662,504.5277 1809.1971,509.4685 C1813.6481,502.9059 1819.4367,504.3667 1822.9783,510.4588 C1824.7153,504.6611 1829.8576,504.0935 1833.507,508.482 C1837.1215,502.0495 1842.9843,502.6563 1846.4392,508.6481 C1850.5281,502.0106 1855.0632,502.0971 1860.3011,507.3033 C1864.2494,501.298 1868.9633,502.2662 1872.5444,507.6963 C1876.7541,501.7261 1882.3866,502.018 1885.6258,508.6999 C1888.9373,502.5398 1894.6662,502.0796 1898.2695,508.4043 C1902.3693,504.1006 1906.9274,503.12 1909.8955,509.6219 C1913.7784,502.6359 1919.0266,503.8599 1923.0419,509.4839 C1927.8,504.1736 1931.7329,504.018 1935.5901,510.4468 C1938.9097,504.5348 1944.5925,504.4552 1948.0477,510.303 C1955.4089,511.9008 1956.3475,518.7728 1951.7277,523.6691 C1958.0237,527.3183 1959.5232,533.1599 1952.5905,537.6269 C1960.4481,540.4588 1961.6686,545.1413 1956.0355,551.3579 C1961.4163,556.7662 1960.1494,562.0338 1952.5354,563.781 C1958.2629,568.4981 1958.427,574.3697 1950.5841,577.0983 C1955.24,581.5724 1955.6211,585.9198 1948.7951,588.6095 C1945.2603,594.3955 1941.5191,594.9884 1936.4303,590.4752 C1932.9606,596.9394 1928.4154,598.2941 1923.478,591.9606 C1919.7205,597.9702 1914.1183,597.9753 1910.3582,591.9635 C1907.2094,599.8926 1902.9235,600.2395 1897.1269,594.5327 C1893.0819,599.5153 1888.522,598.8615 1885.0857,593.8028 C1882.4127,601.4929 1877.1264,601.2638 1872.1573,596.115 C1868.1769,600.9966 1862.795,599.867 1860.2585,594.4473 C1856.3043,600.7808 1851.4089,599.0653 1848.2701,593.6176 C1843.4905,599.947 1838.5234,600.9967 1833.7843,593.575 C1829.692,599.1684 1824.1252,598.4536 1820.9984,592.5054 C1816.5046,598.2531 1811.5529,597.0402 1808.3016,591.1499 C1803.1664,597.2766 1798.745,596.1459 1795.7926,589.0802 C1788.7145,586.5658 1788.3605,581.4223 1794.0462,577.0544 C1786.7514,573.9438 1786.789,569.1833 1792.0793,564.1539 C1786.162,561.2168 1785.0318,554.8344 1790.603,550.6421 C1784.2659,545.5658 1784.8499,540.9889 1792.2935,537.7148 C1787.2843,532.5508 1787.3735,525.9396 1795.6159,523.9813 C1790.6957,519.6189 1790.5866,514.929 1796.7978,511.632 " fill="#FFFFFF" style="stroke:#333333;stroke-width:0.5;"/><text fill="#000000" font-family="Arial" font-size="14" lengthAdjust="spacing" textLength="112" x="1802.5" y="530.2305">Payment Provider</text><text fill="#000000" font-family="Arial" font-size="14" lengthAdjust="spacing" textLength="46" x="1802.5" y="546.3291">System</text><text fill="#000000" font-family="Arial" font-size="14" lengthAdjust="spacing" textLength="101" x="1802.5" y="562.4277">boundary basis:</text><text fill="#000000" font-family="Arial" font-size="14" lengthAdjust="spacing" textLength="138" x="1802.5" y="578.5264">separate organisation</text></g><!--entity DeliveryPartner--><g id="elem_DeliveryPartner"><path d="M1796.7978,640.632 C1799.3187,633.4799 1804.5662,633.5277 1809.1971,638.4685 C1813.6481,631.9059 1819.4367,633.3667 1822.9783,639.4588 C1824.7153,633.6611 1829.8576,633.0935 1833.507,637.482 C1837.1215,631.0495 1842.9843,631.6563 1846.4392,637.6481 C1850.5281,631.0106 1855.0632,631.0971 1860.3011,636.3033 C1864.2494,630.298 1868.9633,631.2662 1872.5444,636.6963 C1876.7541,630.7261 1882.3866,631.018 1885.6258,637.6999 C1888.9373,631.5398 1894.6662,631.0796 1898.2695,637.4043 C1902.3693,633.1006 1906.9274,632.12 1909.8955,638.6219 C1913.7784,631.6359 1919.0266,632.8599 1923.0419,638.4839 C1927.8,633.1736 1931.7329,633.018 1935.5901,639.4468 C1938.9097,633.5348 1944.5925,633.4552 1948.0477,639.303 C1955.4089,640.9008 1956.3475,647.7728 1951.7277,652.6691 C1958.0237,656.3183 1959.5232,662.1599 1952.5905,666.6269 C1960.4481,669.4588 1961.6686,674.1413 1956.0355,680.3579 C1961.4163,685.7662 1960.1494,691.0338 1952.5354,692.781 C1958.2629,697.4981 1958.427,703.3697 1950.5841,706.0983 C1955.24,710.5724 1955.6211,714.9198 1948.7951,717.6095 C1945.2603,723.3955 1941.5191,723.9884 1936.4303,719.4752 C1932.9606,725.9394 1928.4154,727.2941 1923.478,720.9606 C1919.7205,726.9702 1914.1183,726.9753 1910.3582,720.9635 C1907.2094,728.8926 1902.9235,729.2395 1897.1269,723.5327 C1893.0819,728.5153 1888.522,727.8615 1885.0857,722.8028 C1882.4127,730.4929 1877.1264,730.2638 1872.1573,725.115 C1868.1769,729.9966 1862.795,728.867 1860.2585,723.4473 C1856.3043,729.7808 1851.4089,728.0653 1848.2701,722.6176 C1843.4905,728.947 1838.5234,729.9967 1833.7843,722.575 C1829.692,728.1684 1824.1252,727.4536 1820.9984,721.5054 C1816.5046,727.2531 1811.5529,726.0402 1808.3016,720.1499 C1803.1664,726.2766 1798.745,725.1459 1795.7926,718.0802 C1788.7145,715.5658 1788.3605,710.4223 1794.0462,706.0544 C1786.7514,702.9438 1786.789,698.1833 1792.0793,693.1539 C1786.162,690.2168 1785.0318,683.8344 1790.603,679.6421 C1784.2659,674.5658 1784.8499,669.9889 1792.2935,666.7148 C1787.2843,661.5508 1787.3735,654.9396 1795.6159,652.9813 C1790.6957,648.6189 1790.5866,643.929 1796.7978,640.632 " fill="#FFFFFF" style="stroke:#333333;stroke-width:0.5;"/><text fill="#000000" font-family="Arial" font-size="14" lengthAdjust="spacing" textLength="102" x="1802.5" y="659.2305">Delivery Partner</text><text fill="#000000" font-family="Arial" font-size="14" lengthAdjust="spacing" textLength="46" x="1802.5" y="675.3291">System</text><text fill="#000000" font-family="Arial" font-size="14" lengthAdjust="spacing" textLength="101" x="1802.5" y="691.4277">boundary basis:</text><text fill="#000000" font-family="Arial" font-size="14" lengthAdjust="spacing" textLength="138" x="1802.5" y="707.5264">separate organisation</text></g><!--entity SupportAgent--><g id="elem_SupportAgent"><ellipse cx="770" cy="262.5986" fill="#FFFFFF" rx="8" ry="8" style="stroke:#333333;stroke-width:0.5;"/><path d="M770,270.5986 L770,297.5986 M757,278.5986 L783,278.5986 M770,297.5986 L757,312.5986 M770,297.5986 L783,312.5986 " fill="none" style="stroke:#333333;stroke-width:0.5;"/><text fill="#000000" font-family="Arial" font-size="14" lengthAdjust="spacing" textLength="115" x="712.5" y="327.2305">Customer Support</text><text fill="#000000" font-family="Arial" font-size="14" lengthAdjust="spacing" textLength="37" x="712.5" y="343.3291">Agent</text></g><!--link Customer to PublicNetwork--><g id="link_Customer_PublicNetwork"><path d="M67.2,188.0986 C108.52,188.0986 179.81,188.0986 246.67,188.0986 " fill="none" id="Customer-to-PublicNetwork" style="stroke:#333333;stroke-width:1.2;"/><polygon fill="#333333" points="252.67,188.0986,243.67,184.0986,247.67,188.0986,243.67,192.0986,252.67,188.0986" style="stroke:#333333;stroke-width:1.2;"/><text fill="#000000" font-family="Arial" font-size="14" lengthAdjust="spacing" textLength="88" x="116" y="168.2305">login, account</text><text fill="#000000" font-family="Arial" font-size="14" lengthAdjust="spacing" textLength="124" x="98" y="184.3291">and checkout traffic</text></g><!--link PublicNetwork to EdgeEndpoint--><g id="link_PublicNetwork_EdgeEndpoint"><path d="M500.03,188.0986 C564.74,188.0986 635.93,188.0986 690.98,188.0986 " fill="none" id="PublicNetwork-to-EdgeEndpoint" style="stroke:#333333;stroke-width:1.2;"/><polygon fill="#333333" points="696.98,188.0986,687.98,184.0986,691.98,188.0986,687.98,192.0986,696.98,188.0986" style="stroke:#333333;stroke-width:1.2;"/><text fill="#000000" font-family="Arial" font-size="14" lengthAdjust="spacing" textLength="133" x="531" y="168.2305">public request enters</text><text fill="#000000" font-family="Arial" font-size="14" lengthAdjust="spacing" textLength="98" x="548.5" y="184.3291">controlled edge</text></g><!--link EdgeEndpoint to AppEntry--><g id="link_EdgeEndpoint_AppEntry"><path d="M843.13,191.8686 C896.89,194.6886 964.0182,198.1956 1017.7982,201.0056 " fill="none" id="EdgeEndpoint-to-AppEntry" style="stroke:#333333;stroke-width:1.2;"/><polygon fill="#333333" points="1023.79,201.3186,1015.011,196.8545,1018.7968,201.0577,1014.5935,204.8436,1023.79,201.3186" style="stroke:#333333;stroke-width:1.2;"/><text fill="#000000" font-family="Arial" font-size="14" lengthAdjust="spacing" textLength="71" x="887" y="174.2305">filtered and</text><text fill="#000000" font-family="Arial" font-size="14" lengthAdjust="spacing" textLength="93" x="876" y="190.3291">routed request</text></g><!--link AppEntry to StoreRuntime--><g id="link_AppEntry_StoreRuntime"><path d="M1170.09,214.0086 C1223.01,221.5386 1296.3,233.9986 1359,252.0986 C1369.66,255.1786 1375.1105,256.8659 1385.8805,260.8959 " fill="none" id="AppEntry-to-StoreRuntime" style="stroke:#333333;stroke-width:1.2;"/><polygon fill="#333333" points="1391.5,262.9986,1384.4726,256.0982,1386.8171,261.2464,1381.669,263.5908,1391.5,262.9986" style="stroke:#333333;stroke-width:1.2;"/><text fill="#000000" font-family="Arial" font-size="14" lengthAdjust="spacing" textLength="120" x="1230.5" y="219.2305">application request</text></g><!--link StoreRuntime to AppResponsibilities--><g id="link_StoreRuntime_AppResponsibilities"><path d="M1539.37,288.4086 C1602.59,283.5786 1688.1175,277.0466 1758.9275,271.6266 " fill="none" id="StoreRuntime-to-AppResponsibilities" style="stroke:#333333;stroke-width:1.2;"/><polygon fill="#333333" points="1764.91,271.1686,1755.631,267.8672,1759.9246,271.5502,1756.2415,275.8438,1764.91,271.1686" style="stroke:#333333;stroke-width:1.2;"/><text fill="#000000" font-family="Arial" font-size="14" lengthAdjust="spacing" textLength="56" x="1618" y="271.2305">performs</text></g><!--link StoreRuntime to DataStore--><g id="link_StoreRuntime_DataStore"><path d="M1465.1,325.3186 C1466.91,397.4686 1480.59,578.2086 1569,691.0986 C1627.6,765.9186 1724.5395,809.2367 1793.5795,832.7167 " fill="none" id="StoreRuntime-to-DataStore" style="stroke:#333333;stroke-width:1.2;"/><polygon fill="#333333" points="1799.26,834.6486,1792.0272,827.9638,1794.5263,833.0387,1789.4514,835.5378,1799.26,834.6486" style="stroke:#333333;stroke-width:1.2;"/><text fill="#000000" font-family="Arial" font-size="14" lengthAdjust="spacing" textLength="90" x="1601" y="671.2305">read and write</text><text fill="#000000" font-family="Arial" font-size="14" lengthAdjust="spacing" textLength="152" x="1570" y="687.3291">order and payment data</text></g><!--link StoreRuntime to IdentityService--><g id="link_StoreRuntime_IdentityService"><path d="M1482.68,325.1486 C1500.46,352.9386 1530.7,391.8686 1569,409.0986 C1640.85,441.4186 1726.4841,437.653 1789.7541,428.333 " fill="none" id="StoreRuntime-to-IdentityService" style="stroke:#333333;stroke-width:1.2;"/><polygon fill="#333333" points="1795.69,427.4586,1786.2032,424.8129,1790.7434,428.1873,1787.369,432.7275,1795.69,427.4586" style="stroke:#333333;stroke-width:1.2;"/><text fill="#000000" font-family="Arial" font-size="14" lengthAdjust="spacing" textLength="104" x="1594" y="389.2305">delegate identity</text><text fill="#000000" font-family="Arial" font-size="14" lengthAdjust="spacing" textLength="87" x="1602.5" y="405.3291">establishment</text></g><!--link IdentityService to StoreRuntime--><g id="link_IdentityService_StoreRuntime"><path d="M1795.91,390.3886 C1722.9,369.1486 1618.0709,338.6454 1545.1309,317.4154 " fill="none" id="IdentityService-to-StoreRuntime" style="stroke:#333333;stroke-width:1.2;"/><polygon fill="#333333" points="1539.37,315.7386,1546.8935,322.0944,1544.1708,317.136,1549.1293,314.4132,1539.37,315.7386" style="stroke:#333333;stroke-width:1.2;"/><text fill="#000000" font-family="Arial" font-size="14" lengthAdjust="spacing" textLength="128" x="1582" y="322.2305">authentication result</text></g><!--link StoreRuntime to PaymentProvider--><g id="link_StoreRuntime_PaymentProvider"><path d="M1474.06,325.2286 C1487.7,366.4586 1517.57,438.4686 1569,477.0986 C1632.25,524.6086 1716.302,540.7851 1781.492,546.3851 " fill="none" id="StoreRuntime-to-PaymentProvider" style="stroke:#333333;stroke-width:1.2;"/><polygon fill="#333333" points="1787.47,546.8986,1778.8454,542.143,1782.4883,546.4707,1778.1607,550.1137,1787.47,546.8986" style="stroke:#333333;stroke-width:1.2;"/><text fill="#000000" font-family="Arial" font-size="14" lengthAdjust="spacing" textLength="111" x="1590.5" y="457.2305">payment-provider</text><text fill="#000000" font-family="Arial" font-size="14" lengthAdjust="spacing" textLength="122" x="1585" y="473.3291">transaction request</text></g><!--link StoreRuntime to DeliveryPartner--><g id="link_StoreRuntime_DeliveryPartner"><path d="M1468.62,325.3986 C1476.67,381.0486 1501.03,497.6586 1569,565.0986 C1628.03,623.6686 1714.3726,651.1119 1781.2926,664.8519 " fill="none" id="StoreRuntime-to-DeliveryPartner" style="stroke:#333333;stroke-width:1.2;"/><polygon fill="#333333" points="1787.17,666.0586,1779.1584,660.3303,1782.2722,665.053,1777.5494,668.1668,1787.17,666.0586" style="stroke:#333333;stroke-width:1.2;"/><text fill="#000000" font-family="Arial" font-size="14" lengthAdjust="spacing" textLength="108" x="1592" y="561.2305">fulfilment request</text></g><!--link SupportAgent to SupportInterface--><g id="link_SupportAgent_SupportInterface"><path d="M827.61,299.0486 C880.08,298.0886 952.631,296.7502 1011.221,295.6602 " fill="none" id="SupportAgent-to-SupportInterface" style="stroke:#333333;stroke-width:1.2;"/><polygon fill="#333333" points="1017.22,295.5486,1008.1472,291.7167,1012.2209,295.6416,1008.296,299.7153,1017.22,295.5486" style="stroke:#333333;stroke-width:1.2;"/><text fill="#000000" font-family="Arial" font-size="14" lengthAdjust="spacing" textLength="67" x="889" y="277.2305">authorised</text><text fill="#000000" font-family="Arial" font-size="14" lengthAdjust="spacing" textLength="90" x="877.5" y="293.3291">support action</text></g><!--link SupportInterface to StoreRuntime--><g id="link_SupportInterface_StoreRuntime"><path d="M1176.75,294.0986 C1239.62,294.0986 1321.09,294.0986 1382.75,294.0986 " fill="none" id="SupportInterface-to-StoreRuntime" style="stroke:#333333;stroke-width:1.2;"/><polygon fill="#333333" points="1388.75,294.0986,1379.75,290.0986,1383.75,294.0986,1379.75,298.0986,1388.75,294.0986" style="stroke:#333333;stroke-width:1.2;"/><text fill="#000000" font-family="Arial" font-size="14" lengthAdjust="spacing" textLength="47" x="1267" y="274.2305">audited</text><text fill="#000000" font-family="Arial" font-size="14" lengthAdjust="spacing" textLength="135" x="1223" y="290.3291">administrative access</text></g><rect fill="none" height="58.2959" id="_legend" rx="7.5" ry="7.5" style="stroke:#000000;stroke-width:1.0;" width="686" x="650" y="919.0986"/><text fill="#000000" font-family="Arial" font-size="14" lengthAdjust="spacing" textLength="345" x="655" y="937.2305">Each container label states the basis for the boundary.</text><text fill="#000000" font-family="Arial" font-size="14" lengthAdjust="spacing" textLength="254" x="655" y="953.3291">No area is labelled as inherently trusted.</text><text fill="#000000" font-family="Arial" font-size="14" lengthAdjust="spacing" textLength="676" x="655" y="969.4277">Support access reaches production functions through a controlled interface, not by direct database access.</text><!--SRC=[dLPDZ-Cs3BthLx3fTPFfRb4ikeS2yvLYBhk3Jj5USb4anX56aLn9pZGe-jzBIh9ZEsc1xM0ECKq-FfAFJBunJjbE8wnMD_GVqybYl6cjTAaxs6NQum5NBNqKmk8kGV8GJBDFe4r0bOnt8fba4TPFFo_VVrX-ztu5Nvmr3k4b-O3mQ-XYWZlVEIt32Nup-2P4V3MkbK4UW46aQmZWBm7a5ZI6UszzW6-_ptzibUgr2OnGtwm_hdzStuc_HpZA-av_5KR-cs1ecUHMng-Zyc7zm_eZmGYfg5vOt5Ev_e1XunxmQ1GkG4ReZQBGN3ntMsiKVCRqviFhnctxzb1w4pzjd2jl0DtE1qKpS0caqnitwQtK1-DCJ44cSqHGtgNWRSvOCjG4GfpRl9WWFEe6hwHl2p_AIiRMq-TJIN-5Lqx7EBbjoXzQxvZk8jiUdMwzSMdZTiOc395nW3gOC0wHlHEtyT-OthOjqP2iEFYbSyaSIcl9NXzp_b7uHLNu9wek0w0xck3TkQroX5xgpU0L-Ou1fiMDwJnocteo-M7gEwvZutx7xStjyzEaYFog6gP5Z8a5Z0GPpTPOamnoIRAZ3QMmuh4aZyucE4fhTBPiNCGOENXi8y5tKo_6yS74-hZj8Z6ESHaw8Z4VDhTyHcLQy7qHeaKDBrtR-a3ZVt8q_Psi2r7DWt4sUO9FmQX400-qbCkyF_e4jm7b5RdoueAgFcMUIX7zyIWPXyEpIePDNtpXBS-QV9Odhf3sbj7oH8R0_CGSw_u-QMvwEi4B1bvorXPLugI5M2ephk7UgowmM-pTBgYR7gbE81MsVOAAFzoDmX6UWpzI91sPbrDCUBW2796FMaBmeP6kJhQSXWBIO_JO3sZfY132imp9_K_i7gHYp8_YMGwtJQ-cQie68GRFvVAdwH63Js1zOzmxeE4I8mBXiQazgbSw9q1NSBSpIao366PyOWYb7hU0VtGaCpvoT9OsJfr5YnGW9b4CqoytGPHRHfvPRFcQwHvG37uSDDvi2fokS_6VkDH4y_rYshGfFXpYfV-WKF8YXMTMy4PQ8i7vGTzjrGvh_n9Z9ZX2qcYnuI7t4YMHHreRQ-AUWSGyv5gva_C4vJnT9fyfaeijbcKx29t6ww9K_zsvcVnuKfsbOUN2XwYHu0hfsJ6gnFaU8estRZIKvEB2-shTchhFTsZw3LtE4l-KekGQjZwHsCMZLFlyvIqDaxPoYtH74lK-0lMlh1tGyCjJtSQL-En1yaMZbpc6fKiBPToUjEcIFT5Eq3gXNlMaAm5M2UqDtSVWTLTwkkjS_i0fIT3D7YICLiBqvRu3vnDiJ_K7uFcK5kYLeC9AUVy0]--></g></svg>