<?xml version="1.0" encoding="us-ascii" standalone="no"?><svg xmlns="http://www.w3.org/2000/svg" xmlns:xlink="http://www.w3.org/1999/xlink" contentStyleType="text/css" height="533px" preserveAspectRatio="none" style="width:1851px;height:533px;background:#FFFFFF;" version="1.1" viewBox="0 0 1851 533" width="1851px" zoomAndPan="magnify"><defs/><g><text fill="#000000" font-family="Arial" font-size="14" font-weight="bold" lengthAdjust="spacing" textLength="321" x="758" y="23.1318">FIG-11-01. Online Store UML Deployment View</text><!--cluster Production--><g id="cluster_Production"><polygon fill="#F7F9FB" points="634,53.0986,644,43.0986,1446.5,43.0986,1446.5,339.0986,1436.5,349.0986,634,349.0986,634,53.0986" style="stroke:#333333;stroke-width:1.0;"/><line style="stroke:#333333;stroke-width:1.0;" x1="1436.5" x2="1446.5" y1="53.0986" y2="43.0986"/><line style="stroke:#333333;stroke-width:1.0;" x1="634" x2="1436.5" y1="53.0986" y2="53.0986"/><line style="stroke:#333333;stroke-width:1.0;" x1="1436.5" x2="1436.5" y1="53.0986" y2="349.0986"/><text fill="#000000" font-family="Arial" font-size="14" font-weight="bold" lengthAdjust="spacing" textLength="169" x="951.75" y="69.2305">Online Store Production</text><text fill="#000000" font-family="Arial" font-size="14" font-weight="bold" lengthAdjust="spacing" textLength="192" x="940.25" y="85.3291">&#171;deployment environment&#187;</text></g><!--cluster AppRuntime--><g id="cluster_AppRuntime"><polygon fill="#F7F9FB" points="658,117.0986,668,107.0986,914,107.0986,914,315.0986,904,325.0986,658,325.0986,658,117.0986" style="stroke:#333333;stroke-width:1.0;"/><line style="stroke:#333333;stroke-width:1.0;" x1="904" x2="914" y1="117.0986" y2="107.0986"/><line style="stroke:#333333;stroke-width:1.0;" x1="658" x2="904" y1="117.0986" y2="117.0986"/><line style="stroke:#333333;stroke-width:1.0;" x1="904" x2="904" y1="117.0986" y2="325.0986"/><text fill="#000000" font-family="Arial" font-size="14" font-weight="bold" lengthAdjust="spacing" textLength="140" x="712" y="133.2305">Application Runtime</text><text fill="#000000" font-family="Arial" font-size="14" font-weight="bold" lengthAdjust="spacing" textLength="180" x="692" y="149.3291">&#171;execution environment&#187;</text></g><!--cluster WorkerRuntime--><g id="cluster_WorkerRuntime"><polygon fill="#F7F9FB" points="1166.5,132.0986,1176.5,122.0986,1422.5,122.0986,1422.5,240.0986,1412.5,250.0986,1166.5,250.0986,1166.5,132.0986" style="stroke:#333333;stroke-width:1.0;"/><line style="stroke:#333333;stroke-width:1.0;" x1="1412.5" x2="1422.5" y1="132.0986" y2="122.0986"/><line style="stroke:#333333;stroke-width:1.0;" x1="1166.5" x2="1412.5" y1="132.0986" y2="132.0986"/><line style="stroke:#333333;stroke-width:1.0;" x1="1412.5" x2="1412.5" y1="132.0986" y2="250.0986"/><text fill="#000000" font-family="Arial" font-size="14" font-weight="bold" lengthAdjust="spacing" textLength="113" x="1234" y="148.2305">Worker Runtime</text><text fill="#000000" font-family="Arial" font-size="14" font-weight="bold" lengthAdjust="spacing" textLength="180" x="1200.5" y="164.3291">&#171;execution environment&#187;</text></g><!--entity OrderDb--><g id="elem_OrderDb"><path d="M1206,278.5986 C1206,268.5986 1294,268.5986 1294,268.5986 C1294,268.5986 1382,268.5986 1382,278.5986 L1382,319.7959 C1382,329.7959 1294,329.7959 1294,329.7959 C1294,329.7959 1206,329.7959 1206,319.7959 L1206,278.5986 " fill="#F2F5F7" style="stroke:#333333;stroke-width:0.5;"/><path d="M1206,278.5986 C1206,288.5986 1294,288.5986 1294,288.5986 C1294,288.5986 1382,288.5986 1382,278.5986 " fill="none" style="stroke:#333333;stroke-width:0.5;"/><text fill="#000000" font-family="Arial" font-size="14" lengthAdjust="spacing" textLength="102" x="1216" y="305.7305">Order Database</text><text fill="#000000" font-family="Arial" font-size="14" lengthAdjust="spacing" textLength="156" x="1216" y="321.8291">&#171;managed data service&#187;</text></g><!--entity WebApp--><g id="elem_WebApp"><rect fill="#FFFFFF" height="55.1973" rx="2.5" ry="2.5" style="stroke:#333333;stroke-width:0.5;" width="132" x="720" y="163.5986"/><polygon fill="#FFFFFF" points="835,168.5986,835,182.5986,847,182.5986,847,174.5986,841,168.5986,835,168.5986" style="stroke:#333333;stroke-width:0.5;"/><line style="stroke:#333333;stroke-width:0.5;" x1="841" x2="841" y1="168.5986" y2="174.5986"/><line style="stroke:#333333;stroke-width:0.5;" x1="847" x2="841" y1="174.5986" y2="174.5986"/><text fill="#000000" font-family="Arial" font-size="14" lengthAdjust="spacing" textLength="102" x="730" y="189.7305">Web Application</text><text fill="#000000" font-family="Arial" font-size="14" lengthAdjust="spacing" textLength="48" x="730" y="205.8291">artefact</text></g><!--entity ApiApp--><g id="elem_ApiApp"><rect fill="#FFFFFF" height="55.1973" rx="2.5" ry="2.5" style="stroke:#333333;stroke-width:0.5;" width="134" x="719" y="253.5986"/><polygon fill="#FFFFFF" points="836,258.5986,836,272.5986,848,272.5986,848,264.5986,842,258.5986,836,258.5986" style="stroke:#333333;stroke-width:0.5;"/><line style="stroke:#333333;stroke-width:0.5;" x1="842" x2="842" y1="258.5986" y2="264.5986"/><line style="stroke:#333333;stroke-width:0.5;" x1="848" x2="842" y1="264.5986" y2="264.5986"/><text fill="#000000" font-family="Arial" font-size="14" lengthAdjust="spacing" textLength="104" x="729" y="279.7305">Online Store API</text><text fill="#000000" font-family="Arial" font-size="14" lengthAdjust="spacing" textLength="48" x="729" y="295.8291">artefact</text></g><!--entity Worker--><g id="elem_Worker"><rect fill="#FFFFFF" height="55.1973" rx="2.5" ry="2.5" style="stroke:#333333;stroke-width:0.5;" width="141" x="1223.5" y="178.5986"/><polygon fill="#FFFFFF" points="1347.5,183.5986,1347.5,197.5986,1359.5,197.5986,1359.5,189.5986,1353.5,183.5986,1347.5,183.5986" style="stroke:#333333;stroke-width:0.5;"/><line style="stroke:#333333;stroke-width:0.5;" x1="1353.5" x2="1353.5" y1="183.5986" y2="189.5986"/><line style="stroke:#333333;stroke-width:0.5;" x1="1359.5" x2="1353.5" y1="189.5986" y2="189.5986"/><text fill="#000000" font-family="Arial" font-size="14" lengthAdjust="spacing" textLength="111" x="1233.5" y="204.7305">Fulfilment Worker</text><text fill="#000000" font-family="Arial" font-size="14" lengthAdjust="spacing" textLength="48" x="1233.5" y="220.8291">artefact</text></g><!--entity Client--><g id="elem_Client"><polygon fill="#F7F9FB" points="16,207.0986,26,197.0986,172,197.0986,172,265.3945,162,275.3945,16,275.3945,16,207.0986" style="stroke:#333333;stroke-width:0.5;"/><line style="stroke:#333333;stroke-width:0.5;" x1="162" x2="172" y1="207.0986" y2="197.0986"/><line style="stroke:#333333;stroke-width:0.5;" x1="16" x2="162" y1="207.0986" y2="207.0986"/><line style="stroke:#333333;stroke-width:0.5;" x1="162" x2="162" y1="207.0986" y2="275.3945"/><text fill="#000000" font-family="Arial" font-size="14" lengthAdjust="spacing" textLength="116" x="31" y="230.2305">Customer Browser</text><text fill="#000000" font-family="Arial" font-size="14" lengthAdjust="spacing" textLength="98" x="31" y="246.3291">or Mobile Client</text><text fill="#000000" font-family="Arial" font-size="14" lengthAdjust="spacing" textLength="57" x="31" y="262.4277">&#171;device&#187;</text></g><!--entity Edge--><g id="elem_Edge"><polygon fill="#F7F9FB" points="279,215.0986,289,205.0986,485,205.0986,485,257.2959,475,267.2959,279,267.2959,279,215.0986" style="stroke:#333333;stroke-width:0.5;"/><line style="stroke:#333333;stroke-width:0.5;" x1="475" x2="485" y1="215.0986" y2="205.0986"/><line style="stroke:#333333;stroke-width:0.5;" x1="279" x2="475" y1="215.0986" y2="215.0986"/><line style="stroke:#333333;stroke-width:0.5;" x1="475" x2="475" y1="215.0986" y2="267.2959"/><text fill="#000000" font-family="Arial" font-size="14" lengthAdjust="spacing" textLength="93" x="294" y="238.2305">Edge Endpoint</text><text fill="#000000" font-family="Arial" font-size="14" lengthAdjust="spacing" textLength="166" x="294" y="254.3291">&#171;load balancer / gateway&#187;</text></g><!--entity PaymentProvider--><g id="elem_PaymentProvider"><polygon fill="#F7F9FB" points="1193,375.0986,1203,365.0986,1395,365.0986,1395,417.2959,1385,427.2959,1193,427.2959,1193,375.0986" style="stroke:#333333;stroke-width:0.5;"/><line style="stroke:#333333;stroke-width:0.5;" x1="1385" x2="1395" y1="375.0986" y2="365.0986"/><line style="stroke:#333333;stroke-width:0.5;" x1="1193" x2="1385" y1="375.0986" y2="375.0986"/><line style="stroke:#333333;stroke-width:0.5;" x1="1385" x2="1385" y1="375.0986" y2="427.2959"/><text fill="#000000" font-family="Arial" font-size="14" lengthAdjust="spacing" textLength="162" x="1208" y="398.2305">Payment Provider System</text><text fill="#000000" font-family="Arial" font-size="14" lengthAdjust="spacing" textLength="114" x="1208" y="414.3291">&#171;external system&#187;</text></g><!--entity DeliveryPartner--><g id="elem_DeliveryPartner"><polygon fill="#F7F9FB" points="1642,185.0986,1652,175.0986,1834,175.0986,1834,227.2959,1824,237.2959,1642,237.2959,1642,185.0986" style="stroke:#333333;stroke-width:0.5;"/><line style="stroke:#333333;stroke-width:0.5;" x1="1824" x2="1834" y1="185.0986" y2="175.0986"/><line style="stroke:#333333;stroke-width:0.5;" x1="1642" x2="1824" y1="185.0986" y2="185.0986"/><line style="stroke:#333333;stroke-width:0.5;" x1="1824" x2="1824" y1="185.0986" y2="237.2959"/><text fill="#000000" font-family="Arial" font-size="14" lengthAdjust="spacing" textLength="152" x="1657" y="208.2305">Delivery Partner System</text><text fill="#000000" font-family="Arial" font-size="14" lengthAdjust="spacing" textLength="114" x="1657" y="224.3291">&#171;external system&#187;</text></g><!--link Client to Edge--><g id="link_Client_Edge"><path d="M172.02,236.0986 C204.86,236.0986 237.65,236.0986 272.84,236.0986 " fill="none" id="Client-to-Edge" style="stroke:#333333;stroke-width:1.2;"/><polygon fill="#333333" points="278.84,236.0986,269.84,232.0986,273.84,236.0986,269.84,240.0986,278.84,236.0986" style="stroke:#333333;stroke-width:1.2;"/><text fill="#000000" font-family="Arial" font-size="14" lengthAdjust="spacing" textLength="45" x="203" y="232.2305">HTTPS</text></g><!--link Edge to WebApp--><g id="link_Edge_WebApp"><path d="M485.22,224.6586 C558.96,216.3986 650.3473,206.1768 713.7973,199.0668 " fill="none" id="Edge-to-WebApp" style="stroke:#333333;stroke-width:1.2;"/><polygon fill="#333333" points="719.76,198.3986,710.3705,195.4258,714.7911,198.9554,711.2614,203.376,719.76,198.3986" style="stroke:#333333;stroke-width:1.2;"/><text fill="#000000" font-family="Arial" font-size="14" lengthAdjust="spacing" textLength="101" x="516" y="207.2305">route web traffic</text></g><!--link Edge to ApiApp--><g id="link_Edge_ApiApp"><path d="M485.22,247.5386 C558.61,255.7586 649.4273,265.9207 712.8973,273.0307 " fill="none" id="Edge-to-ApiApp" style="stroke:#333333;stroke-width:1.2;"/><polygon fill="#333333" points="718.86,273.6986,710.3612,268.7216,713.8911,273.142,709.4706,276.6718,718.86,273.6986" style="stroke:#333333;stroke-width:1.2;"/><text fill="#000000" font-family="Arial" font-size="14" lengthAdjust="spacing" textLength="97" x="518" y="247.2305">route API traffic</text></g><!--link ApiApp to OrderDb--><g id="link_ApiApp_OrderDb"><path d="M853.15,283.4486 C943.43,286.6586 1099.4238,292.2156 1199.6138,295.7756 " fill="none" id="ApiApp-to-OrderDb" style="stroke:#333333;stroke-width:1.2;"/><polygon fill="#333333" points="1205.61,295.9886,1196.7577,291.6716,1200.6132,295.8111,1196.4736,299.6665,1205.61,295.9886" style="stroke:#333333;stroke-width:1.2;"/><text fill="#000000" font-family="Arial" font-size="14" lengthAdjust="spacing" textLength="132" x="963.5" y="283.2305">read/write order data</text></g><!--link ApiApp to PaymentProvider--><g id="link_ApiApp_PaymentProvider"><path d="M829.01,308.6186 C861.67,328.5186 908.87,354.0986 954,367.0986 C1032.19,389.6186 1118.3912,396.1786 1186.8812,397.5486 " fill="none" id="ApiApp-to-PaymentProvider" style="stroke:#333333;stroke-width:1.2;"/><polygon fill="#333333" points="1192.88,397.6686,1183.9618,393.4894,1187.881,397.5686,1183.8018,401.4878,1192.88,397.6686" style="stroke:#333333;stroke-width:1.2;"/><text fill="#000000" font-family="Arial" font-size="14" lengthAdjust="spacing" textLength="117" x="971" y="363.2305">authorise payment</text></g><!--link ApiApp to Worker--><g id="link_ApiApp_Worker"><path d="M853.15,271.2986 C948.92,257.0986 1119.4548,231.8181 1217.2448,217.3281 " fill="none" id="ApiApp-to-Worker" style="stroke:#333333;stroke-width:1.2;"/><polygon fill="#333333" points="1223.18,216.4486,1213.6909,213.811,1218.234,217.1815,1214.8635,221.7246,1223.18,216.4486" style="stroke:#333333;stroke-width:1.2;"/><text fill="#000000" font-family="Arial" font-size="14" lengthAdjust="spacing" textLength="149" x="955" y="230.2305">enqueue fulfilment work</text></g><!--link Worker to DeliveryPartner--><g id="link_Worker_DeliveryPartner"><path d="M1364.55,206.0986 C1439.31,206.0986 1552.61,206.0986 1635.99,206.0986 " fill="none" id="Worker-to-DeliveryPartner" style="stroke:#333333;stroke-width:1.2;"/><polygon fill="#333333" points="1641.99,206.0986,1632.99,202.0986,1636.99,206.0986,1632.99,210.0986,1641.99,206.0986" style="stroke:#333333;stroke-width:1.2;"/><text fill="#000000" font-family="Arial" font-size="14" lengthAdjust="spacing" textLength="143" x="1468" y="202.2305">send fulfilment request</text></g><rect fill="none" height="58.2959" id="_legend" rx="7.5" ry="7.5" style="stroke:#000000;stroke-width:1.0;" width="415" x="711" y="455.2959"/><text fill="#000000" font-family="Arial" font-size="14" lengthAdjust="spacing" textLength="320" x="716" y="473.4277">UML nodes show runtime environments or devices.</text><text fill="#000000" font-family="Arial" font-size="14" lengthAdjust="spacing" textLength="312" x="716" y="489.5264">Artefacts show deployed software responsibilities.</text><text fill="#000000" font-family="Arial" font-size="14" lengthAdjust="spacing" textLength="405" x="716" y="505.625">External provider systems sit outside the Online Store boundary.</text><!--SRC=[ZLHDRzim3BthLt3TEScA7OOLHO2qQRO2AnQixNhfHRRfHAWiUH8TBnZstqTzk74p5AZXWqq-Ff6F5DyfK-gkGfXEP_nwsclqirPBGrsZ9xJ51gSjVmgXiIOW2qvjjWILSbYIiaQG8esmkluoEJsTV3YTmdUZbK6u9UiGxc- -mH9RRVSD6eAV2diX_9CohNIo0MFvx3y2u4AMJnjdErDTMcqTl5zzMdrUNGIFTHMwRFqO7_5tH24TgLgMz0fDV5wb4J61aylEastGmOMplKVtQ1XrOml5bLrgnPa_clFp2dUgnFdy1AJFvXn_LMqGhapLMfMWsieA2iawbimwWuqaxEK-nmRuSFGBjTRELbsKDPtth1kQdNBMXE_CSO36mXFPecsrAcMq_kWCgGO34Vx6iel6_tau92CZ3npqF7d00aQCZuPT65mnaBtiF0fvKSrYVNqKisXLYc7bXvmVh7jYZTwORaA_bl6gqxNIKR44FCuv6eVpAqcoa3uq8Sm6BFD_oA6HHcwmYXZWYHXrFeANnM5wrZ8rYLkoKu7eTky9crGAeJDIWu-ceNSfOC1dcYLgjKEtPxSZymQQ8I3ZXKWp2PF9F8uOdC7NkxlrhOW_mPfwndQ-8eJGSuF9oRfMvG6JUlICuIO-Ox8heB880OQoclLECJPUiIZP67fKBOV8ZhRMALQ-JRunFC_36JV_LuSTGdreQiy-aG41UwG01taqrJZ28PDu2kjh4ro59Rxf8gobeBe7lxKzk3nFetdpN0sa6- -dOf6dAEFJpUJnyBQcNlAiE_IjDLxnob2aGiZLqBDsA3mrZoaK0MlhsGYyOLykp28iB-dsKy7ffgJ_0G00]--></g></svg>