<?xml version="1.0" encoding="us-ascii" standalone="no"?><svg xmlns="http://www.w3.org/2000/svg" xmlns:xlink="http://www.w3.org/1999/xlink" contentStyleType="text/css" height="826px" preserveAspectRatio="none" style="width:1798px;height:826px;background:#FFFFFF;" version="1.1" viewBox="0 0 1798 826" width="1798px" zoomAndPan="magnify"><defs/><g><text fill="#000000" font-family="Arial" font-size="14" font-weight="bold" lengthAdjust="spacing" textLength="373" x="705.7085" y="23.1318">FIG-11-03. Online Store Kubernetes Deployment View</text><!--cluster Cluster--><g id="cluster_Cluster"><polygon fill="none" points="16,116.7966,26,106.7966,1478,106.7966,1478,590.7966,1468,600.7966,16,600.7966,16,116.7966" style="stroke:#181818;stroke-width:1.0;"/><line style="stroke:#181818;stroke-width:1.0;" x1="1468" x2="1478" y1="116.7966" y2="106.7966"/><line style="stroke:#181818;stroke-width:1.0;" x1="16" x2="1468" y1="116.7966" y2="116.7966"/><line style="stroke:#181818;stroke-width:1.0;" x1="1468" x2="1468" y1="116.7966" y2="600.7966"/><text fill="#000000" font-family="Arial" font-size="14" font-weight="bold" lengthAdjust="spacing" textLength="138" x="674" y="132.9285">Kubernetes Cluster</text><text fill="#000000" font-family="Arial" font-size="14" font-weight="bold" lengthAdjust="spacing" textLength="65" x="710.5" y="149.0271">&#171;cluster&#187;</text></g><!--cluster Namespace--><g id="cluster_Namespace"><rect fill="#F7F9FB" height="406" rx="2.5" ry="2.5" style="stroke:#333333;stroke-width:1.0;" width="1414" x="40" y="170.7966"/><text fill="#000000" font-family="Arial" font-size="14" font-weight="bold" lengthAdjust="spacing" textLength="213" x="640.5" y="185.9285">Namespace: online-store-prod</text><text fill="#000000" font-family="Arial" font-size="14" font-weight="bold" lengthAdjust="spacing" textLength="97" x="698.5" y="202.0271">&#171;Namespace&#187;</text></g><!--entity GatewayClass--><g id="elem_GatewayClass"><rect fill="#F7F9FB" height="52.1973" rx="2.5" ry="2.5" style="stroke:#333333;stroke-width:0.5;" width="116" x="70.5" y="243.7966"/><text fill="#000000" font-family="Arial" font-size="14" lengthAdjust="spacing" textLength="90" x="80.5" y="266.9285">GatewayClass</text><text fill="#000000" font-family="Arial" font-size="14" lengthAdjust="spacing" textLength="96" x="80.5" y="283.0271">&#171;Gateway API&#187;</text></g><!--entity Gateway--><g id="elem_Gateway"><rect fill="#F7F9FB" height="52.1973" rx="2.5" ry="2.5" style="stroke:#333333;stroke-width:0.5;" width="113" x="420.5" y="243.7966"/><text fill="#000000" font-family="Arial" font-size="14" lengthAdjust="spacing" textLength="93" x="430.5" y="266.9285">Store Gateway</text><text fill="#000000" font-family="Arial" font-size="14" lengthAdjust="spacing" textLength="71" x="430.5" y="283.0271">&#171;Gateway&#187;</text></g><!--entity HttpRoute--><g id="elem_HttpRoute"><rect fill="#F7F9FB" height="52.1973" rx="2.5" ry="2.5" style="stroke:#333333;stroke-width:0.5;" width="132" x="721" y="308.7966"/><text fill="#000000" font-family="Arial" font-size="14" lengthAdjust="spacing" textLength="112" x="731" y="331.9285">Store HTTPRoute</text><text fill="#000000" font-family="Arial" font-size="14" lengthAdjust="spacing" textLength="90" x="731" y="348.0271">&#171;HTTPRoute&#187;</text></g><!--entity WebService--><g id="elem_WebService"><rect fill="#F7F9FB" height="52.1973" rx="2.5" ry="2.5" style="stroke:#333333;stroke-width:0.5;" width="100" x="1046" y="308.7966"/><text fill="#000000" font-family="Arial" font-size="14" lengthAdjust="spacing" textLength="80" x="1056" y="331.9285">Web Service</text><text fill="#000000" font-family="Arial" font-size="14" lengthAdjust="spacing" textLength="63" x="1056" y="348.0271">&#171;Service&#187;</text></g><!--entity ApiService--><g id="elem_ApiService"><rect fill="#F7F9FB" height="52.1973" rx="2.5" ry="2.5" style="stroke:#333333;stroke-width:0.5;" width="92" x="1050" y="395.7966"/><text fill="#000000" font-family="Arial" font-size="14" lengthAdjust="spacing" textLength="72" x="1060" y="418.9285">API Service</text><text fill="#000000" font-family="Arial" font-size="14" lengthAdjust="spacing" textLength="63" x="1060" y="435.0271">&#171;Service&#187;</text></g><!--entity WebDeployment--><g id="elem_WebDeployment"><rect fill="#F7F9FB" height="52.1973" rx="2.5" ry="2.5" style="stroke:#333333;stroke-width:0.5;" width="128" x="723" y="221.7966"/><text fill="#000000" font-family="Arial" font-size="14" lengthAdjust="spacing" textLength="108" x="733" y="244.9285">Web Deployment</text><text fill="#000000" font-family="Arial" font-size="14" lengthAdjust="spacing" textLength="91" x="733" y="261.0271">&#171;Deployment&#187;</text></g><!--entity WebReplicaSet--><g id="elem_WebReplicaSet"><rect fill="#F7F9FB" height="52.1973" rx="2.5" ry="2.5" style="stroke:#333333;stroke-width:0.5;" width="121" x="1035.5" y="221.7966"/><text fill="#000000" font-family="Arial" font-size="14" lengthAdjust="spacing" textLength="101" x="1045.5" y="244.9285">Web ReplicaSet</text><text fill="#000000" font-family="Arial" font-size="14" lengthAdjust="spacing" textLength="84" x="1045.5" y="261.0271">&#171;ReplicaSet&#187;</text></g><!--entity WebPods--><g id="elem_WebPods"><rect fill="#FFFFFF" height="78.2959" rx="2.5" ry="2.5" style="stroke:#333333;stroke-width:0.5;" width="101" x="1337" y="282.7966"/><rect fill="#FFFFFF" height="10" style="stroke:#333333;stroke-width:0.5;" width="15" x="1418" y="287.7966"/><rect fill="#FFFFFF" height="2" style="stroke:#333333;stroke-width:0.5;" width="4" x="1416" y="289.7966"/><rect fill="#FFFFFF" height="2" style="stroke:#333333;stroke-width:0.5;" width="4" x="1416" y="293.7966"/><text fill="#000000" font-family="Arial" font-size="14" lengthAdjust="spacing" textLength="61" x="1352" y="315.9285">web Pods</text><text fill="#000000" font-family="Arial" font-size="14" lengthAdjust="spacing" textLength="61" x="1352" y="332.0271">2 replicas</text><text fill="#000000" font-family="Arial" font-size="14" lengthAdjust="spacing" textLength="41" x="1352" y="348.1257">&#171;Pod&#187;</text></g><!--entity ApiDeployment--><g id="elem_ApiDeployment"><rect fill="#F7F9FB" height="52.1973" rx="2.5" ry="2.5" style="stroke:#333333;stroke-width:0.5;" width="120" x="727" y="395.7966"/><text fill="#000000" font-family="Arial" font-size="14" lengthAdjust="spacing" textLength="100" x="737" y="418.9285">API Deployment</text><text fill="#000000" font-family="Arial" font-size="14" lengthAdjust="spacing" textLength="91" x="737" y="435.0271">&#171;Deployment&#187;</text></g><!--entity ApiReplicaSet--><g id="elem_ApiReplicaSet"><rect fill="#F7F9FB" height="52.1973" rx="2.5" ry="2.5" style="stroke:#333333;stroke-width:0.5;" width="113" x="1039.5" y="482.7966"/><text fill="#000000" font-family="Arial" font-size="14" lengthAdjust="spacing" textLength="93" x="1049.5" y="505.9285">API ReplicaSet</text><text fill="#000000" font-family="Arial" font-size="14" lengthAdjust="spacing" textLength="84" x="1049.5" y="522.0271">&#171;ReplicaSet&#187;</text></g><!--entity ApiPods--><g id="elem_ApiPods"><rect fill="#FFFFFF" height="78.2959" rx="2.5" ry="2.5" style="stroke:#333333;stroke-width:0.5;" width="101" x="1337" y="424.7966"/><rect fill="#FFFFFF" height="10" style="stroke:#333333;stroke-width:0.5;" width="15" x="1418" y="429.7966"/><rect fill="#FFFFFF" height="2" style="stroke:#333333;stroke-width:0.5;" width="4" x="1416" y="431.7966"/><rect fill="#FFFFFF" height="2" style="stroke:#333333;stroke-width:0.5;" width="4" x="1416" y="435.7966"/><text fill="#000000" font-family="Arial" font-size="14" lengthAdjust="spacing" textLength="55" x="1352" y="457.9285">api Pods</text><text fill="#000000" font-family="Arial" font-size="14" lengthAdjust="spacing" textLength="61" x="1352" y="474.0271">2 replicas</text><text fill="#000000" font-family="Arial" font-size="14" lengthAdjust="spacing" textLength="41" x="1352" y="490.1257">&#171;Pod&#187;</text></g><!--entity WorkerDeployment--><g id="elem_WorkerDeployment"><rect fill="#F7F9FB" height="52.1973" rx="2.5" ry="2.5" style="stroke:#333333;stroke-width:0.5;" width="145" x="56" y="495.7966"/><text fill="#000000" font-family="Arial" font-size="14" lengthAdjust="spacing" textLength="125" x="66" y="518.9285">Worker Deployment</text><text fill="#000000" font-family="Arial" font-size="14" lengthAdjust="spacing" textLength="91" x="66" y="535.0271">&#171;Deployment&#187;</text></g><!--entity WorkerReplicaSet--><g id="elem_WorkerReplicaSet"><rect fill="#F7F9FB" height="52.1973" rx="2.5" ry="2.5" style="stroke:#333333;stroke-width:0.5;" width="138" x="408" y="495.7966"/><text fill="#000000" font-family="Arial" font-size="14" lengthAdjust="spacing" textLength="118" x="418" y="518.9285">Worker ReplicaSet</text><text fill="#000000" font-family="Arial" font-size="14" lengthAdjust="spacing" textLength="84" x="418" y="535.0271">&#171;ReplicaSet&#187;</text></g><!--entity WorkerPods--><g id="elem_WorkerPods"><rect fill="#FFFFFF" height="78.2959" rx="2.5" ry="2.5" style="stroke:#333333;stroke-width:0.5;" width="118" x="728" y="482.7966"/><rect fill="#FFFFFF" height="10" style="stroke:#333333;stroke-width:0.5;" width="15" x="826" y="487.7966"/><rect fill="#FFFFFF" height="2" style="stroke:#333333;stroke-width:0.5;" width="4" x="824" y="489.7966"/><rect fill="#FFFFFF" height="2" style="stroke:#333333;stroke-width:0.5;" width="4" x="824" y="493.7966"/><text fill="#000000" font-family="Arial" font-size="14" lengthAdjust="spacing" textLength="78" x="743" y="515.9285">worker Pods</text><text fill="#000000" font-family="Arial" font-size="14" lengthAdjust="spacing" textLength="61" x="743" y="532.0271">2 replicas</text><text fill="#000000" font-family="Arial" font-size="14" lengthAdjust="spacing" textLength="41" x="743" y="548.1257">&#171;Pod&#187;</text></g><!--entity Internet--><g id="elem_Internet"><path d="M98.1528,54.3133 C101.7896,47.5578 107.6878,46.1168 113.2011,52.0959 C117.2132,44.4391 124.591,43.0986 129.4777,51.192 C133.9116,43.3119 141.0121,43.6867 144.4402,52.1148 C150.354,45.921 156.8319,45.4483 160.93,54.1278 C167.6392,58.2619 168.779,65.1386 161.1372,69.4666 C168.6159,74.7485 168.4722,79.6729 161.2772,85.0864 C157.3927,93.996 151.8209,93.2584 145.7111,87.4381 C144.2194,96.2293 136.9241,99.2199 130.0523,93.0807 C123.163,100.7694 114.7837,98.1332 113.0548,88.1244 C106.2868,94.7791 101.417,92.0347 98.112,84.4821 C89.3662,83.1555 85.9079,76.4944 91.8686,69.171 C87.4418,61.2491 89.2152,56.5826 98.1528,54.3133 " fill="#F1F1F1" style="stroke:#181818;stroke-width:0.5;"/><text fill="#000000" font-family="Arial" font-size="14" lengthAdjust="spacing" textLength="48" x="104.5" y="72.9285">Internet</text></g><!--entity OrderDatabase--><g id="elem_OrderDatabase"><path d="M1654,383.2966 C1654,373.2966 1714,373.2966 1714,373.2966 C1714,373.2966 1774,373.2966 1774,383.2966 L1774,440.5925 C1774,450.5925 1714,450.5925 1714,450.5925 C1714,450.5925 1654,450.5925 1654,440.5925 L1654,383.2966 " fill="#F2F5F7" style="stroke:#333333;stroke-width:0.5;"/><path d="M1654,383.2966 C1654,393.2966 1714,393.2966 1714,393.2966 C1714,393.2966 1774,393.2966 1774,383.2966 " fill="none" style="stroke:#333333;stroke-width:0.5;"/><text fill="#000000" font-family="Arial" font-size="14" lengthAdjust="spacing" textLength="100" x="1664" y="410.4285">Managed Order</text><text fill="#000000" font-family="Arial" font-size="14" lengthAdjust="spacing" textLength="61" x="1664" y="426.5271">Database</text><text fill="#000000" font-family="Arial" font-size="14" lengthAdjust="spacing" textLength="92" x="1664" y="442.6257">outside cluster</text></g><!--entity PaymentProvider--><g id="elem_PaymentProvider"><path d="M1652.1619,495.9349 C1655.0889,490.064 1660.2932,489.9619 1664.0516,495.0313 C1667.6203,487.7718 1672.6263,488.1862 1677.7464,493.3166 C1681.433,487.1987 1687.6603,488.6378 1690.4424,494.292 C1692.9427,487.8232 1698.6818,488.3084 1702.0809,493.3861 C1706.3156,488.2221 1711.886,488.0694 1715.2741,494.361 C1718.2235,488.9023 1722.875,488.6097 1726.8322,493.2021 C1732.3407,485.8076 1736.5888,488.0353 1741.1019,494.2462 C1744.5859,490.0429 1749.3483,489.3861 1752.0717,495.0885 C1756.094,488.1627 1760.3844,488.9456 1765.0933,494.3642 C1769.2968,489.4097 1774.5974,489.4244 1778.0933,495.22 C1784.7083,496.6018 1785.0682,500.6868 1781.8188,505.6068 C1789.6474,506.4616 1790.2703,512.537 1786.319,517.7555 C1791.417,523.0076 1789.4804,528.8378 1782.1343,529.7475 C1786.5641,534.9019 1784.1752,540.3537 1778.0634,542.0078 C1774.3082,547.461 1769.2853,547.3489 1765.5024,542.0403 C1762.9058,549.5416 1757.4161,550.2067 1752.7941,543.9051 C1749.5872,550.1139 1745.7928,551.5883 1740.8256,545.6378 C1737.7404,551.6537 1733.4529,552.7292 1728.6871,547.4428 C1724.7962,553.1669 1718.6126,555.2078 1714.606,547.5647 C1710.982,553.1252 1706.5093,552.738 1703.2469,547.1948 C1698.6009,553.5392 1692.9125,551.2566 1690.5666,544.8987 C1685.8402,550.4849 1679.0048,550.0738 1676.3181,542.6628 C1673.3273,548.7738 1668.2089,548.9348 1664.6893,543.181 C1659.7415,548.4442 1654.6848,547.2356 1651.5341,541.1059 C1645.8176,539.6742 1644.0424,534.632 1648.2316,530.2006 C1640.5416,528.9535 1639.0002,524.1121 1643.4116,518.0604 C1639.6956,512.6397 1640.45,506.7537 1648.2876,506.0066 C1644.8276,500.9805 1645.8688,497.2093 1652.1619,495.9349 " fill="#F1F1F1" style="stroke:#181818;stroke-width:0.5;"/><text fill="#000000" font-family="Arial" font-size="14" lengthAdjust="spacing" textLength="112" x="1658" y="513.9285">Payment Provider</text><text fill="#000000" font-family="Arial" font-size="14" lengthAdjust="spacing" textLength="46" x="1658" y="530.0271">System</text></g><!--entity DeliveryPartner--><g id="elem_DeliveryPartner"><path d="M1039.2759,625.3187 C1042.7916,619.3015 1046.6911,620.858 1050.2298,625.2945 C1054.1107,619.3586 1059.0495,618.4422 1062.9932,625.2315 C1066.8906,619.5159 1071.5437,619.2746 1074.8614,625.7938 C1077.802,621.2553 1081.1614,620.8203 1084.9159,624.8373 C1088.7215,618.8455 1093.1049,618.4917 1097.1315,624.6144 C1101.1185,618.034 1105.5228,619.0403 1109.3687,624.7549 C1113.2214,619.3302 1116.6742,619.768 1120.0214,625.2487 C1123.4251,618.6453 1128.486,619.4324 1132.3231,624.8034 C1135.5267,619.5946 1140.9561,619.7343 1144.2859,624.6544 C1147.8594,620.8467 1152.5964,621.5359 1154.3411,626.7033 C1159.6801,629.4733 1161.2741,632.5616 1156.9008,637.6108 C1163.1384,639.0987 1164.6643,642.3111 1161.3086,647.9062 C1166.3677,654.0984 1164.3818,657.9812 1157.8687,661.1728 C1162.9757,665.0791 1161.2447,669.7535 1155.7724,671.5157 C1152.3487,677.5421 1148.1556,677.0614 1144.2082,672.0651 C1141.2865,679.5834 1136.0018,680.2402 1131.0162,674.0515 C1128.7365,678.2518 1123.8705,678.8729 1121.147,674.5663 C1117.0348,680.227 1112.138,680.7381 1108.4736,674.1047 C1106.3532,679.9927 1101.1036,680.2611 1097.9554,675.0815 C1094.1373,681.0097 1088.6777,681.846 1085.0767,674.8649 C1080.6699,680.3803 1076.6491,679.5097 1073.2737,673.7821 C1070.2995,678.8147 1065.2321,679.9581 1061.9413,674.1118 C1057.6498,679.6124 1054.0509,678.4562 1050.4537,673.3591 C1045.5003,679.3118 1041.4938,678.1481 1038.5098,671.4934 C1033.3971,668.5821 1033.7457,663.2625 1038.5086,660.3501 C1032.1396,657.0764 1032.2202,652.1625 1037.4956,647.9384 C1032.4647,645.0263 1031.6729,639.935 1036.9436,636.5246 C1032.3453,631.6862 1033.9354,628.0885 1039.2759,625.3187 " fill="#F1F1F1" style="stroke:#181818;stroke-width:0.5;"/><text fill="#000000" font-family="Arial" font-size="14" lengthAdjust="spacing" textLength="102" x="1045" y="644.9285">Delivery Partner</text><text fill="#000000" font-family="Arial" font-size="14" lengthAdjust="spacing" textLength="46" x="1045" y="661.0271">System</text></g><!--link Internet to Gateway--><g id="link_Internet_Gateway"><path d="M167.57,89.9966 C232.09,127.6066 357.4069,200.6541 426.1369,240.7341 " fill="none" id="Internet-to-Gateway" style="stroke:#333333;stroke-width:1.2;"/><polygon fill="#333333" points="431.32,243.7566,425.5604,235.7675,427.0008,241.2379,421.5304,242.6782,431.32,243.7566" style="stroke:#333333;stroke-width:1.2;"/><text fill="#000000" font-family="Arial" font-size="14" lengthAdjust="spacing" textLength="45" x="282" y="123.9285">HTTPS</text></g><!--link GatewayClass to Gateway--><g id="link_GatewayClass_Gateway"><path d="M186.72,269.7966 C251.49,269.7966 350.33,269.7966 414.42,269.7966 " fill="none" id="GatewayClass-to-Gateway" style="stroke:#333333;stroke-width:1.2;"/><polygon fill="#333333" points="420.42,269.7966,411.42,265.7966,415.42,269.7966,411.42,273.7966,420.42,269.7966" style="stroke:#333333;stroke-width:1.2;"/><text fill="#000000" font-family="Arial" font-size="14" lengthAdjust="spacing" textLength="145" x="232" y="265.9285">defines controller class</text></g><!--link Gateway to HttpRoute--><g id="link_Gateway_HttpRoute"><path d="M533.78,281.5666 C586.39,292.6666 659.3792,308.0782 714.8892,319.7882 " fill="none" id="Gateway-to-HttpRoute" style="stroke:#333333;stroke-width:1.2;"/><polygon fill="#333333" points="720.76,321.0266,712.7795,315.2551,715.8677,319.9946,711.1282,323.0828,720.76,321.0266" style="stroke:#333333;stroke-width:1.2;"/><text fill="#000000" font-family="Arial" font-size="14" lengthAdjust="spacing" textLength="86" x="590.5" y="287.9285">accepts route</text></g><!--link HttpRoute to WebService--><g id="link_HttpRoute_WebService"><path d="M853.11,334.7966 C910.66,334.7966 987.37,334.7966 1039.62,334.7966 " fill="none" id="HttpRoute-to-WebService" style="stroke:#333333;stroke-width:1.2;"/><polygon fill="#333333" points="1045.62,334.7966,1036.62,330.7966,1040.62,334.7966,1036.62,338.7966,1045.62,334.7966" style="stroke:#333333;stroke-width:1.2;"/><text fill="#000000" font-family="Arial" font-size="14" lengthAdjust="spacing" textLength="101" x="891" y="330.9285">route web traffic</text></g><!--link HttpRoute to ApiService--><g id="link_HttpRoute_ApiService"><path d="M853.11,353.2466 C912.25,370.0066 992.1674,392.6504 1044.0974,407.3704 " fill="none" id="HttpRoute-to-ApiService" style="stroke:#333333;stroke-width:1.2;"/><polygon fill="#333333" points="1049.87,409.0066,1042.302,402.7038,1045.0595,407.6431,1040.1203,410.4006,1049.87,409.0066" style="stroke:#333333;stroke-width:1.2;"/><text fill="#000000" font-family="Arial" font-size="14" lengthAdjust="spacing" textLength="97" x="893" y="359.9285">route API traffic</text></g><!--link WebDeployment to WebReplicaSet--><g id="link_WebDeployment_WebReplicaSet"><path d="M851.24,247.7966 C905.3,247.7966 976.53,247.7966 1029.49,247.7966 " fill="none" id="WebDeployment-to-WebReplicaSet" style="stroke:#333333;stroke-width:1.2;"/><polygon fill="#333333" points="1035.49,247.7966,1026.49,243.7966,1030.49,247.7966,1026.49,251.7966,1035.49,247.7966" style="stroke:#333333;stroke-width:1.2;"/><text fill="#000000" font-family="Arial" font-size="14" lengthAdjust="spacing" textLength="101" x="891" y="243.9285">manages rollout</text></g><!--link WebReplicaSet to WebPods--><g id="link_WebReplicaSet_WebPods"><path d="M1156.85,262.1566 C1198.93,272.3666 1256.5,286.5566 1307,299.7966 C1316.7,302.3366 1321.244,303.5485 1331.154,306.2685 " fill="none" id="WebReplicaSet-to-WebPods" style="stroke:#333333;stroke-width:1.2;"/><polygon fill="#333333" points="1336.94,307.8566,1329.3197,301.6172,1332.1183,306.5332,1327.2023,309.3318,1336.94,307.8566" style="stroke:#333333;stroke-width:1.2;"/><text fill="#000000" font-family="Arial" font-size="14" lengthAdjust="spacing" textLength="113" x="1193" y="267.9285">maintains replicas</text></g><!--link ApiDeployment to ApiReplicaSet--><g id="link_ApiDeployment_ApiReplicaSet"><path d="M847.19,438.5666 C902.69,454.2966 979.2572,476.0011 1033.5772,491.3911 " fill="none" id="ApiDeployment-to-ApiReplicaSet" style="stroke:#333333;stroke-width:1.2;"/><polygon fill="#333333" points="1039.35,493.0266,1031.7812,486.7248,1034.5394,491.6637,1029.6005,494.4218,1039.35,493.0266" style="stroke:#333333;stroke-width:1.2;"/><text fill="#000000" font-family="Arial" font-size="14" lengthAdjust="spacing" textLength="101" x="891" y="446.9285">manages rollout</text></g><!--link ApiReplicaSet to ApiPods--><g id="link_ApiReplicaSet_ApiPods"><path d="M1152.78,500.9966 C1195.13,494.9666 1254.79,486.2466 1307,477.7966 C1316.68,476.2266 1321.1096,475.5095 1331.0096,473.7795 " fill="none" id="ApiReplicaSet-to-ApiPods" style="stroke:#333333;stroke-width:1.2;"/><polygon fill="#333333" points="1336.92,472.7466,1327.3658,470.3556,1331.9946,473.6073,1328.7429,478.2362,1336.92,472.7466" style="stroke:#333333;stroke-width:1.2;"/><text fill="#000000" font-family="Arial" font-size="14" lengthAdjust="spacing" textLength="113" x="1193" y="473.9285">maintains replicas</text></g><!--link WorkerDeployment to WorkerReplicaSet--><g id="link_WorkerDeployment_WorkerReplicaSet"><path d="M201.3,521.7966 C261.95,521.7966 342.23,521.7966 401.83,521.7966 " fill="none" id="WorkerDeployment-to-WorkerReplicaSet" style="stroke:#333333;stroke-width:1.2;"/><polygon fill="#333333" points="407.83,521.7966,398.83,517.7966,402.83,521.7966,398.83,525.7966,407.83,521.7966" style="stroke:#333333;stroke-width:1.2;"/><text fill="#000000" font-family="Arial" font-size="14" lengthAdjust="spacing" textLength="101" x="254" y="517.9285">manages rollout</text></g><!--link WorkerReplicaSet to WorkerPods--><g id="link_WorkerReplicaSet_WorkerPods"><path d="M546.36,521.7966 C600.85,521.7966 670.33,521.7966 721.93,521.7966 " fill="none" id="WorkerReplicaSet-to-WorkerPods" style="stroke:#333333;stroke-width:1.2;"/><polygon fill="#333333" points="727.93,521.7966,718.93,517.7966,722.93,521.7966,718.93,525.7966,727.93,521.7966" style="stroke:#333333;stroke-width:1.2;"/><text fill="#000000" font-family="Arial" font-size="14" lengthAdjust="spacing" textLength="113" x="577" y="517.9285">maintains replicas</text></g><!--link WebService to WebPods--><g id="link_WebService_WebPods"><path d="M1146.11,332.5866 C1199.18,330.2066 1277.316,326.6952 1330.666,324.3052 " fill="none" id="WebService-to-WebPods" style="stroke:#333333;stroke-width:1.2;"/><polygon fill="#333333" points="1336.66,324.0366,1327.49,320.4434,1331.665,324.2604,1327.848,328.4354,1336.66,324.0366" style="stroke:#333333;stroke-width:1.2;"/><text fill="#000000" font-family="Arial" font-size="14" lengthAdjust="spacing" textLength="80" x="1209.5" y="321.9285">selects Pods</text></g><!--link ApiService to ApiPods--><g id="link_ApiService_ApiPods"><path d="M1142.23,428.3566 C1195.03,436.0166 1276.1221,447.7853 1330.7921,455.7153 " fill="none" id="ApiService-to-ApiPods" style="stroke:#333333;stroke-width:1.2;"/><polygon fill="#333333" points="1336.73,456.5766,1328.3974,451.3261,1331.7818,455.8589,1327.249,459.2433,1336.73,456.5766" style="stroke:#333333;stroke-width:1.2;"/><text fill="#000000" font-family="Arial" font-size="14" lengthAdjust="spacing" textLength="80" x="1209.5" y="432.9285">selects Pods</text></g><!--link ApiPods to OrderDatabase--><g id="link_ApiPods_OrderDatabase"><path d="M1438.14,455.8466 C1496.11,446.5566 1585.9955,432.1456 1647.8055,422.2456 " fill="none" id="ApiPods-to-OrderDatabase" style="stroke:#333333;stroke-width:1.2;"/><polygon fill="#333333" points="1653.73,421.2966,1644.2107,418.7704,1648.7929,422.0874,1645.4759,426.6697,1653.73,421.2966" style="stroke:#333333;stroke-width:1.2;"/><text fill="#000000" font-family="Arial" font-size="14" lengthAdjust="spacing" textLength="107" x="1500" y="424.9285">read/write orders</text></g><!--link ApiPods to PaymentProvider--><g id="link_ApiPods_PaymentProvider"><path d="M1438.14,471.9066 C1492.82,480.8366 1575.2584,494.2997 1636.9884,504.3797 " fill="none" id="ApiPods-to-PaymentProvider" style="stroke:#333333;stroke-width:1.2;"/><polygon fill="#333333" points="1642.91,505.3466,1634.6723,499.9485,1637.9754,504.5409,1633.383,507.8439,1642.91,505.3466" style="stroke:#333333;stroke-width:1.2;"/><text fill="#000000" font-family="Arial" font-size="14" lengthAdjust="spacing" textLength="117" x="1495" y="478.9285">authorise payment</text></g><!--link WorkerPods to DeliveryPartner--><g id="link_WorkerPods_DeliveryPartner"><path d="M846.11,545.6466 C898.52,567.1566 969.9594,596.4783 1024.4094,618.8283 " fill="none" id="WorkerPods-to-DeliveryPartner" style="stroke:#333333;stroke-width:1.2;"/><polygon fill="#333333" points="1029.96,621.1066,1023.153,613.9887,1025.3345,619.208,1020.1152,621.3895,1029.96,621.1066" style="stroke:#333333;stroke-width:1.2;"/><text fill="#000000" font-family="Arial" font-size="14" lengthAdjust="spacing" textLength="115" x="884" y="558.9285">fulfilment requests</text></g><rect fill="none" height="106.5918" id="_legend" rx="7.5" ry="7.5" style="stroke:#000000;stroke-width:1.0;" width="635" x="574.7085" y="699.846"/><text fill="#000000" font-family="Arial" font-size="14" lengthAdjust="spacing" textLength="488" x="579.7085" y="717.9779">Gateway API routes external HTTPS traffic through Gateway and HTTPRoute.</text><text fill="#000000" font-family="Arial" font-size="14" lengthAdjust="spacing" textLength="442" x="579.7085" y="734.0765">Deployment manages ReplicaSets; ReplicaSets maintain Pod replicas.</text><text fill="#000000" font-family="Arial" font-size="14" lengthAdjust="spacing" textLength="306" x="579.7085" y="750.1751">Service exposes stable access to selected Pods.</text><text fill="#000000" font-family="Arial" font-size="14" lengthAdjust="spacing" textLength="439" x="579.7085" y="766.2738">The managed database and provider systems are outside the cluster.</text><text fill="#000000" font-family="Arial" font-size="14" lengthAdjust="spacing" textLength="343" x="579.7085" y="782.3724">Physical node scheduling is outside this teaching view.</text><text fill="#000000" font-family="Arial" font-size="14" lengthAdjust="spacing" textLength="625" x="579.7085" y="798.471">StatefulSet is not shown; use it when a workload needs stable identity or persistent state behaviour.</text><!--SRC=[bLR9Rjim4BtpAwRksKwNGz450R8WRL2qDUgWlUH2IsEB24Mg96NNAFhl7LAaA0bEZ1e986hU6mxVBE8peGhPbWYBnHdzMNUGQCyQoPLhQpbt5TQuQEYHCOaR1qw34TlAGIaC5avenPnm4k7czkFyvSlvYzSB-AQaK0Whfmt2vtQDHg532zVOI7seKJdu8N3Fc7qGgk66r-1zSRKbFtyOmAKs9PehBRM1vw_3px_bnSFMw5QLqNBpvkRjpINxE_1JwBhHok_mFtx2Z_omGkgsXDcjSY7c6N0BQS6OqgJJR72WAzbQCjwh3n-Axl7yF72Y8GIHZpRxockq3I_m7UYWqTnwZUQDqQLtqjkZctuT78rSVUGEz_nm9RcrdXhNSB6yZUGXOihkKXCH0_gOUfprwUvk-Lst3ZslNqJc9-UQi6PJyazSmmhDJXI161yZZOpnnPH6vtcSTj68H3ksNQutJyshl6b-Tup_dQoYu2iC_BpA_Fmky7FrpVR4N-gISlEAt0PKo1EzotGFOCTEV29oElVZaNl-YSY9_tZal14d8YVwqSX_QlD0HNzAze1wGldEoodn0-e9_Jil9r8GGE4i07_z02YvusjkAOmlNF4jbl3DZv1xTHqDzuggsmeQ1B7ZWwC0If0qHPQyctLBetSYE5aTY547HZGcM-9SenGxD0Uo6wScd6ICDiRIQ8Bv_3mrBRmB7RfYm_wV04hSqF2nf9ToHaj9GXLXJ2I8X_UjJ0HU5DWu2oQqThPuNEvT0WO0-E9tXcysefY0SyVsO5-l2JngoUGz9vauTKYBZqIIOewDxP7XCngmGZdwjttwsQXpKaHFRZ2sHyRZ6qohkmjfKgp7pZ65PDuJcsNfnoUtAAcXR2X_Dj1y7FuK5LvxoAYSVQAGbsTx8oXRuOiwHazAsPTBwofj176RpiO69_6KIIKJPTFAZP11COE_MhJE-Xl75bK9Q-sShjdW4zULZWNyxHk0owxaKnc1gyY-hVgAv-Ia_r8js20xAGrPUFj-kEXLzoBrmYzO4XH_DzeItv9MDBnydr2tqIMfqvRcXp_pWjrL6FSgePynFgmcgMP3drlWz8bD8uPkNsdCBDYoEbZQN4AuXjYYmhAbEyGMX1qGQE6G5vKtxEYIHQ4wKe7azKL5LgKTs4hlrNjeAGRXO5-X0Wv-OahDIr28PNyYygheWdUWn4D3cHSK3EbclLDOOyLtGhSK7UMfozO_]--></g></svg>