<?xml version="1.0" encoding="us-ascii" standalone="no"?><svg xmlns="http://www.w3.org/2000/svg" xmlns:xlink="http://www.w3.org/1999/xlink" contentStyleType="text/css" height="426px" preserveAspectRatio="none" style="width:1700px;height:426px;background:#FFFFFF;" version="1.1" viewBox="0 0 1700 426" width="1700px" zoomAndPan="magnify"><defs/><g><text fill="#000000" font-family="Arial" font-size="14" font-weight="bold" lengthAdjust="spacing" textLength="329" x="678.5981" y="23.1318">FIG-11-02. Online Store Network Topology View</text><!--cluster EdgeZone--><g id="cluster_EdgeZone"><rect fill="#F7F9FB" height="120" rx="2.5" ry="2.5" style="stroke:#333333;stroke-width:1.0;" width="463.5" x="383.1963" y="84.0986"/><text fill="#000000" font-family="Arial" font-size="14" font-weight="bold" lengthAdjust="spacing" textLength="75" x="577.4463" y="99.2305">Edge Zone</text><text fill="#000000" font-family="Arial" font-size="14" font-weight="bold" lengthAdjust="spacing" textLength="153" x="538.4463" y="115.3291">Public entry boundary</text></g><!--cluster AppZone--><g id="cluster_AppZone"><rect fill="#F7F9FB" height="174" rx="2.5" ry="2.5" style="stroke:#333333;stroke-width:1.0;" width="205" x="1091.6963" y="44.0986"/><text fill="#000000" font-family="Arial" font-size="14" font-weight="bold" lengthAdjust="spacing" textLength="117" x="1135.6963" y="59.2305">Application Zone</text><text fill="#000000" font-family="Arial" font-size="14" font-weight="bold" lengthAdjust="spacing" textLength="189" x="1099.6963" y="75.3291">Private application runtime</text></g><!--cluster DataZone--><g id="cluster_DataZone"><rect fill="#F7F9FB" height="113" rx="2.5" ry="2.5" style="stroke:#333333;stroke-width:1.0;" width="176" x="1518.1963" y="231.0986"/><text fill="#000000" font-family="Arial" font-size="14" font-weight="bold" lengthAdjust="spacing" textLength="70" x="1571.1963" y="246.2305">Data Zone</text><text fill="#000000" font-family="Arial" font-size="14" font-weight="bold" lengthAdjust="spacing" textLength="160" x="1526.1963" y="262.3291">Restricted data access</text></g><!--cluster OpsPath--><g id="cluster_OpsPath"><rect fill="#F7F9FB" height="119" rx="2.5" ry="2.5" style="stroke:#333333;stroke-width:1.0;" width="191" x="679.1963" y="228.0986"/><text fill="#000000" font-family="Arial" font-size="14" font-weight="bold" lengthAdjust="spacing" textLength="167" x="691.1963" y="243.2305">Operations Access Path</text><text fill="#000000" font-family="Arial" font-size="14" font-weight="bold" lengthAdjust="spacing" textLength="175" x="687.1963" y="259.3291">Controlled support route</text></g><!--entity LoadBalancer--><g id="elem_LoadBalancer"><rect fill="#F7F9FB" height="36.0986" rx="2.5" ry="2.5" style="stroke:#333333;stroke-width:0.5;" width="112" x="718.6963" y="144.0986"/><text fill="#000000" font-family="Arial" font-size="14" lengthAdjust="spacing" textLength="92" x="728.6963" y="167.2305">Load Balancer</text></g><!--entity Waf--><g id="elem_Waf"><rect fill="#F7F9FB" height="52.1973" rx="2.5" ry="2.5" style="stroke:#333333;stroke-width:0.5;" width="122" x="399.1963" y="135.0986"/><text fill="#000000" font-family="Arial" font-size="14" lengthAdjust="spacing" textLength="102" x="409.1963" y="158.2305">Web Application</text><text fill="#000000" font-family="Arial" font-size="14" lengthAdjust="spacing" textLength="48" x="409.1963" y="174.3291">Firewall</text></g><!--entity AppRuntime--><g id="elem_AppRuntime"><rect fill="#F7F9FB" height="36.0986" rx="2.5" ry="2.5" style="stroke:#333333;stroke-width:0.5;" width="130" x="1128.6963" y="166.0986"/><text fill="#000000" font-family="Arial" font-size="14" lengthAdjust="spacing" textLength="110" x="1138.6963" y="189.2305">Web/API Runtime</text></g><!--entity WorkerRuntime--><g id="elem_WorkerRuntime"><rect fill="#F7F9FB" height="36.0986" rx="2.5" ry="2.5" style="stroke:#333333;stroke-width:0.5;" width="122" x="1132.6963" y="95.0986"/><text fill="#000000" font-family="Arial" font-size="14" lengthAdjust="spacing" textLength="102" x="1142.6963" y="118.2305">Worker Runtime</text></g><!--entity OrderDatabase--><g id="elem_OrderDatabase"><path d="M1545.1963,292.5986 C1545.1963,282.5986 1606.1963,282.5986 1606.1963,282.5986 C1606.1963,282.5986 1667.1963,282.5986 1667.1963,292.5986 L1667.1963,317.6973 C1667.1963,327.6973 1606.1963,327.6973 1606.1963,327.6973 C1606.1963,327.6973 1545.1963,327.6973 1545.1963,317.6973 L1545.1963,292.5986 " fill="#F2F5F7" style="stroke:#333333;stroke-width:0.5;"/><path d="M1545.1963,292.5986 C1545.1963,302.5986 1606.1963,302.5986 1606.1963,302.5986 C1606.1963,302.5986 1667.1963,302.5986 1667.1963,292.5986 " fill="none" style="stroke:#333333;stroke-width:0.5;"/><text fill="#000000" font-family="Arial" font-size="14" lengthAdjust="spacing" textLength="102" x="1555.1963" y="319.7305">Order Database</text></g><!--entity OpsTools--><g id="elem_OpsTools"><rect fill="#F7F9FB" height="52.1973" rx="2.5" ry="2.5" style="stroke:#333333;stroke-width:0.5;" width="125" x="712.1963" y="279.0986"/><text fill="#000000" font-family="Arial" font-size="14" lengthAdjust="spacing" textLength="103" x="722.1963" y="302.2305">Deployment and</text><text fill="#000000" font-family="Arial" font-size="14" lengthAdjust="spacing" textLength="105" x="722.1963" y="318.3291">Monitoring Tools</text></g><!--entity Internet--><g id="elem_Internet"><path d="M23.0843,138.1982 C27.8351,132.5564 33.3407,132.9025 37.05,139.3967 C41.5783,131.4086 48.1689,132.2259 52.8615,139.2234 C56.2276,133.1706 59.8744,132.7443 64.6841,137.6685 C69.7421,132.035 75.5517,131.7369 78.9717,139.4252 C83.0095,132.6615 89.4385,132.3892 93.8546,139.0043 C97.4842,131.3953 102.9003,131.5649 107.5573,138.0022 C112.4759,130.573 117.1871,130.523 122.6715,137.4046 C126.9771,132.0895 133.0434,132.9077 136.1657,138.8261 C140.6308,131.3904 146.342,131.4022 150.6597,138.9686 C155.3943,131.7969 159.9879,133.065 164.306,139.3896 C168.9096,132.9825 174.2976,132.5784 178.5437,139.764 C182.9632,132.2611 188.8545,133.7809 192.8259,140.223 C195.891,133.1639 202.7412,131.6565 207.8472,137.9222 C211.9636,133.0309 217.1675,133.5621 220.1963,139.1979 C232.5089,143.9933 234.7172,152.7755 224.4107,161.7902 C235.3984,169.0398 234.5726,180.3788 222.4543,185.7409 C219.0118,192.0596 212.3466,193.1319 207.8985,186.9079 C202.6827,193.6662 197.7475,194.5774 191.9948,187.5263 C189.1333,194.8108 184.2234,195.1978 179.5653,189.2086 C177.2509,197.1024 170.4441,197.6998 165.5539,191.831 C160.1843,198.5994 155.4072,199.4145 150.7571,191.1239 C148.1657,199.0535 141.7448,199.4114 136.3553,194.1876 C132.688,201.1735 127.5834,201.3872 122.7744,195.3811 C117.4756,201.3137 113.1846,201.5412 109.0765,194.1564 C103.2124,201.5569 98.4615,199.51 94.4457,192.3049 C89.4994,198.9527 82.1611,197.6994 78.9903,190.3451 C76.1016,195.6224 70.3398,195.6076 67.2062,190.6266 C61.9909,197.0829 53.8619,196.6574 51.0355,188.0603 C47.2876,195.3081 40.3579,195.1858 36.509,188.1631 C31.0589,194.7091 25.2645,193.2237 22.9304,185.2491 C11.3203,181.395 9.364,172.5402 16.8012,163.3541 C6,153.8353 8.3464,141.3381 23.0843,138.1982 " fill="#FFFFFF" style="stroke:#333333;stroke-width:0.5;"/><text fill="#000000" font-family="Arial" font-size="14" lengthAdjust="spacing" textLength="48" x="29.1963" y="158.2305">Internet</text><text fill="#000000" font-family="Arial" font-size="14" lengthAdjust="spacing" textLength="184" x="29.1963" y="174.3291">Customer and provider traffic</text></g><!--entity PaymentProvider--><g id="elem_PaymentProvider"><path d="M1544.3582,163.2369 C1547.2852,157.366 1552.4895,157.2639 1556.2478,162.3333 C1559.8166,155.0738 1564.8226,155.4882 1569.9427,160.6186 C1573.6293,154.5007 1579.8566,155.9398 1582.6387,161.594 C1585.139,155.1252 1590.8781,155.6104 1594.2772,160.6881 C1598.5119,155.5241 1604.0823,155.3714 1607.4704,161.663 C1610.4197,156.2043 1615.0713,155.9117 1619.0284,160.5041 C1624.537,153.1096 1628.7851,155.3373 1633.2982,161.5482 C1636.7821,157.3449 1641.5446,156.6881 1644.268,162.3905 C1648.2903,155.4647 1652.5807,156.2476 1657.2896,161.6662 C1661.4931,156.7117 1666.7937,156.7264 1670.2896,162.522 C1676.9046,163.9038 1677.2645,167.9887 1674.0151,172.9088 C1681.8437,173.7636 1682.4666,179.839 1678.5153,185.0575 C1683.6133,190.3096 1681.6767,196.1398 1674.3306,197.0495 C1678.7604,202.2039 1676.3715,207.6557 1670.2596,209.3098 C1666.5045,214.763 1661.4816,214.6509 1657.6987,209.3423 C1655.102,216.8436 1649.6124,217.5087 1644.9903,211.2071 C1641.7835,217.4159 1637.989,218.8903 1633.0219,212.9398 C1629.9367,218.9557 1625.6492,220.0312 1620.8834,214.7448 C1616.9925,220.4689 1610.8089,222.5098 1606.8022,214.8667 C1603.1783,220.4272 1598.7056,220.04 1595.4432,214.4968 C1590.7972,220.8412 1585.1088,218.5586 1582.7628,212.2007 C1578.0365,217.7869 1571.2011,217.3758 1568.5144,209.9648 C1565.5236,216.0758 1560.4052,216.2368 1556.8856,210.483 C1551.9378,215.7462 1546.8811,214.5376 1543.7303,208.4079 C1538.0139,206.9762 1536.2387,201.934 1540.4279,197.5026 C1532.7379,196.2555 1531.1965,191.4141 1535.6079,185.3624 C1531.8919,179.9417 1532.6463,174.0557 1540.4839,173.3086 C1537.0239,168.2825 1538.0651,164.5113 1544.3582,163.2369 " fill="#FFFFFF" style="stroke:#333333;stroke-width:0.5;"/><text fill="#000000" font-family="Arial" font-size="14" lengthAdjust="spacing" textLength="112" x="1550.1963" y="181.2305">Payment Provider</text><text fill="#000000" font-family="Arial" font-size="14" lengthAdjust="spacing" textLength="46" x="1550.1963" y="197.3291">System</text></g><!--entity DeliveryPartner--><g id="elem_DeliveryPartner"><path d="M1549.4722,64.6207 C1552.9878,58.6035 1556.8874,60.16 1560.4261,64.5965 C1564.307,58.6606 1569.2458,57.7442 1573.1895,64.5335 C1577.0869,58.8179 1581.74,58.5766 1585.0576,65.0958 C1587.9983,60.5573 1591.3577,60.1223 1595.1122,64.1393 C1598.9178,58.1475 1603.3012,57.7937 1607.3278,63.9164 C1611.3148,57.336 1615.7191,58.3423 1619.565,64.0569 C1623.4177,58.6322 1626.8705,59.07 1630.2177,64.5506 C1633.6214,57.9473 1638.6823,58.7344 1642.5193,64.1054 C1645.723,58.8966 1651.1524,59.0363 1654.4822,63.9564 C1658.0557,60.1487 1662.7927,60.8379 1664.5374,66.0053 C1669.8763,68.7753 1671.4704,71.8636 1667.0971,76.9128 C1673.3347,78.4007 1674.8606,81.6131 1671.5049,87.2082 C1676.564,93.4004 1674.578,97.2832 1668.065,100.4748 C1673.172,104.3811 1671.4409,109.0555 1665.9687,110.8177 C1662.545,116.8441 1658.3519,116.3634 1654.4045,111.3671 C1651.4828,118.8854 1646.1981,119.5422 1641.2124,113.3535 C1638.9328,117.5538 1634.0668,118.1749 1631.3433,113.8683 C1627.2311,119.529 1622.3343,120.0401 1618.6699,113.4067 C1616.5495,119.2947 1611.2999,119.5631 1608.1517,114.3835 C1604.3336,120.3117 1598.874,121.148 1595.273,114.1669 C1590.8662,119.6823 1586.8454,118.8117 1583.47,113.0841 C1580.4958,118.1167 1575.4284,119.2601 1572.1376,113.4138 C1567.846,118.9144 1564.2472,117.7582 1560.65,112.6611 C1555.6966,118.6138 1551.6901,117.4501 1548.7061,110.7954 C1543.5933,107.8841 1543.9419,102.5645 1548.7049,99.6521 C1542.3359,96.3784 1542.4164,91.4645 1547.6919,87.2404 C1542.661,84.3283 1541.8692,79.237 1547.1399,75.8266 C1542.5416,70.9882 1544.1317,67.3905 1549.4722,64.6207 " fill="#FFFFFF" style="stroke:#333333;stroke-width:0.5;"/><text fill="#000000" font-family="Arial" font-size="14" lengthAdjust="spacing" textLength="102" x="1555.1963" y="84.2305">Delivery Partner</text><text fill="#000000" font-family="Arial" font-size="14" lengthAdjust="spacing" textLength="46" x="1555.1963" y="100.3291">System</text></g><!--link Internet to Waf--><g id="link_Internet_Waf"><path d="M228.3663,161.0986 C284.6963,161.0986 345.8563,161.0986 393.1663,161.0986 " fill="none" id="Internet-to-Waf" style="stroke:#333333;stroke-width:1.2;"/><polygon fill="#333333" points="399.1663,161.0986,390.1663,157.0986,394.1663,161.0986,390.1663,165.0986,399.1663,161.0986" style="stroke:#333333;stroke-width:1.2;"/><text fill="#000000" font-family="Arial" font-size="14" lengthAdjust="spacing" textLength="107" x="259.1963" y="157.2305">customer HTTPS</text></g><!--link Waf to LoadBalancer--><g id="link_Waf_LoadBalancer"><path d="M521.4463,161.2886 C578.4663,161.4786 657.3463,161.7302 712.6063,161.9002 " fill="none" id="Waf-to-LoadBalancer" style="stroke:#333333;stroke-width:1.2;"/><polygon fill="#333333" points="718.6063,161.9186,709.6186,157.891,713.6063,161.9033,709.594,165.8909,718.6063,161.9186" style="stroke:#333333;stroke-width:1.2;"/><text fill="#000000" font-family="Arial" font-size="14" lengthAdjust="spacing" textLength="110" x="552.1963" y="158.2305">inspected HTTPS</text></g><!--link LoadBalancer to AppRuntime--><g id="link_LoadBalancer_AppRuntime"><path d="M831.0663,165.0186 C908.0563,169.0786 1041.1346,176.1022 1122.5446,180.4022 " fill="none" id="LoadBalancer-to-AppRuntime" style="stroke:#333333;stroke-width:1.2;"/><polygon fill="#333333" points="1128.5363,180.7186,1119.7598,176.2495,1123.5432,180.4549,1119.3378,184.2384,1128.5363,180.7186" style="stroke:#333333;stroke-width:1.2;"/><text fill="#000000" font-family="Arial" font-size="14" lengthAdjust="spacing" textLength="144" x="898.1963" y="164.2305">route application traffic</text></g><!--link AppRuntime to OrderDatabase--><g id="link_AppRuntime_OrderDatabase"><path d="M1256.1563,202.2086 C1334.0963,225.1886 1461.8909,262.8629 1539.2409,285.6529 " fill="none" id="AppRuntime-to-OrderDatabase" style="stroke:#333333;stroke-width:1.2;"/><polygon fill="#333333" points="1544.9963,287.3486,1537.4937,280.9681,1540.2001,285.9355,1535.2327,288.642,1544.9963,287.3486" style="stroke:#333333;stroke-width:1.2;"/><text fill="#000000" font-family="Arial" font-size="14" lengthAdjust="spacing" textLength="158" x="1335.1963" y="223.2305">controlled DB connection</text></g><!--link AppRuntime to PaymentProvider--><g id="link_AppRuntime_PaymentProvider"><path d="M1258.8363,184.0986 C1333.8163,184.0986 1451.4863,184.0986 1528.9763,184.0986 " fill="none" id="AppRuntime-to-PaymentProvider" style="stroke:#333333;stroke-width:1.2;"/><polygon fill="#333333" points="1534.9763,184.0986,1525.9763,180.0986,1529.9763,184.0986,1525.9763,188.0986,1534.9763,184.0986" style="stroke:#333333;stroke-width:1.2;"/><text fill="#000000" font-family="Arial" font-size="14" lengthAdjust="spacing" textLength="151" x="1338.6963" y="180.2305">controlled outbound API</text></g><!--link WorkerRuntime to DeliveryPartner--><g id="link_WorkerRuntime_DeliveryPartner"><path d="M1254.8263,109.2886 C1330.9863,104.4686 1455.7483,96.5681 1534.1683,91.5981 " fill="none" id="WorkerRuntime-to-DeliveryPartner" style="stroke:#333333;stroke-width:1.2;"/><polygon fill="#333333" points="1540.1563,91.2186,1530.9213,87.7959,1535.1663,91.5349,1531.4273,95.7799,1540.1563,91.2186" style="stroke:#333333;stroke-width:1.2;"/><text fill="#000000" font-family="Arial" font-size="14" lengthAdjust="spacing" textLength="151" x="1338.6963" y="91.2305">controlled outbound API</text></g><!--link OpsTools to AppRuntime--><g id="link_OpsTools_AppRuntime"><path d="M837.2263,287.2486 C915.9563,264.3986 1045.8039,226.7203 1124.8139,203.8003 " fill="none" id="OpsTools-to-AppRuntime" style="stroke:#333333;stroke-width:1.2;"/><polygon fill="#333333" points="1130.5763,202.1286,1120.8182,200.7944,1125.7743,203.5217,1123.047,208.4777,1130.5763,202.1286" style="stroke:#333333;stroke-width:1.2;"/><text fill="#000000" font-family="Arial" font-size="14" lengthAdjust="spacing" textLength="166" x="887.1963" y="221.2305">admin and support access</text></g><!--link OpsTools to OrderDatabase--><g id="link_OpsTools_OrderDatabase"><path d="M837.3663,305.0986 C991.5863,305.0986 1386.5363,305.0986 1539.0863,305.0986 " fill="none" id="OpsTools-to-OrderDatabase" style="stroke:#333333;stroke-width:1.2;"/><polygon fill="#333333" points="1545.0863,305.0986,1536.0863,301.0986,1540.0863,305.0986,1536.0863,309.0986,1545.0863,305.0986" style="stroke:#333333;stroke-width:1.2;"/><text fill="#000000" font-family="Arial" font-size="14" lengthAdjust="spacing" textLength="185" x="1101.1963" y="301.2305">controlled operational access</text></g><rect fill="none" height="42.1973" id="_legend" rx="7.5" ry="7.5" style="stroke:#000000;stroke-width:1.0;" width="366" x="660.0981" y="364.0986"/><text fill="#000000" font-family="Arial" font-size="14" lengthAdjust="spacing" textLength="291" x="665.0981" y="382.2305">This topology shows zones and allowed paths.</text><text fill="#000000" font-family="Arial" font-size="14" lengthAdjust="spacing" textLength="356" x="665.0981" y="398.3291">It is not a firewall rule list or a business-process diagram.</text><!--SRC=[bLHHRnCn37xFhp3ZkHs31mGFaxQLGYLWfxLY4kfBUkTUe-QIAF6jAeZ_ZfDUwDs19d7gGsD_d-tON_n2cLAt5S9qUic_G4UDuT9fQQXjz8HssE3KyLyXD6u9o89NzOwWKXvBKjO8KgGHvekFawkhoQlNKxWtMXc49LcFy1NfOFqULjPPRUiZV5Du42BibN7IomPY66bg3l5J0DnQNw6_OwY7bs_I5wsotDVUjgRgFFEtytVpM_6h5wVKjgt-AqRwE8OuKIyMXj0RfBMvQmFP1Zr8Ku7pzabnG20ljrjLNe0CaB52dEk_-53L2D-jmRKfserM9Q0XVuHDp2hzCJ4ZA69IgJtoPoihBf8xNw9Fo6Z9XY7s4JTmunnda744QpFdQHoaredtABVnLZry3vlhy-f94eBiUNnhI3MOOZ3ZNqLouikROW4FGsXt765vxDorFlHaokXXZJD9iYlk0GDvLH9MK4MhB4iC8KM8g3-5HUT61YRVnuadPpmdP39booZNlKEVxipLfzXGIDhnt2tFoshDYKFhdFK4h1Zg0heGKUEMpD1fUsnuqb4jQ_F56iNALwPcpLiTCZSTUcehv8bKTF9Qc-Kn43O9tpcpBtDcgDKJig8AwScCEDdP-OJ86eN9v3gA0jv3cONzQRKgbY8QexElD4Of4noczfzW0tV4dqVEwDIXWP2wXo9wiCWQJ2GMS-xsx3QUJBTHHhnHCuPCJfwU5x0inK1VYJjgoZFSFAA_BoYhHfcq2h8eJe8SKfwvdSroapfJUPlMo14tbdWWOhLJWNThjoB3pXu2_62PXvIM7xOzS1p7yWjJiI1WjB5S1soxXy-FbyMeLI3WtIPXqmRUmI5CU7ibWLTArhmcfuApddB_1W00]--></g></svg>