<?xml version="1.0" encoding="us-ascii" standalone="no"?><svg xmlns="http://www.w3.org/2000/svg" xmlns:xlink="http://www.w3.org/1999/xlink" contentStyleType="text/css" height="851px" preserveAspectRatio="none" style="width:1180px;height:851px;background:#FFFFFF;" version="1.1" viewBox="0 0 1180 851" width="1180px" zoomAndPan="magnify"><defs/><g><text fill="#000000" font-family="Arial" font-size="14" font-weight="bold" lengthAdjust="spacing" textLength="361" x="402.5" y="23.1318">FIG-12-04. Horizon Bank Payment Threat-Model DFD</text><!--cluster CustomerContext--><g id="cluster_CustomerContext"><rect fill="#F7F9FB" height="161" rx="2.5" ry="2.5" style="stroke:#333333;stroke-width:1.0;" width="197" x="256" y="363.0986"/><text fill="#000000" font-family="Arial" font-size="14" font-weight="bold" lengthAdjust="spacing" textLength="181" x="264" y="378.2305">Customer Access Context</text><text fill="#000000" font-family="Arial" font-size="14" font-weight="bold" lengthAdjust="spacing" textLength="111" x="299" y="394.3291">boundary basis:</text><text fill="#000000" font-family="Arial" font-size="14" font-weight="bold" lengthAdjust="spacing" textLength="148" x="280.5" y="410.4277">customer device and</text><text fill="#000000" font-family="Arial" font-size="14" font-weight="bold" lengthAdjust="spacing" textLength="149" x="280" y="426.5264">session presentation</text></g><!--cluster PaymentContext--><g id="cluster_PaymentContext"><rect fill="#F7F9FB" height="225" rx="2.5" ry="2.5" style="stroke:#333333;stroke-width:1.0;" width="486" x="642" y="193.0986"/><text fill="#000000" font-family="Arial" font-size="14" font-weight="bold" lengthAdjust="spacing" textLength="224" x="773" y="208.2305">Payment Platform Responsibility</text><text fill="#000000" font-family="Arial" font-size="14" font-weight="bold" lengthAdjust="spacing" textLength="111" x="829.5" y="224.3291">boundary basis:</text><text fill="#000000" font-family="Arial" font-size="14" font-weight="bold" lengthAdjust="spacing" textLength="203" x="783.5" y="240.4277">payment orchestration policy</text></g><!--cluster FinancialCrimeContext--><g id="cluster_FinancialCrimeContext"><rect fill="#F7F9FB" height="145" rx="2.5" ry="2.5" style="stroke:#333333;stroke-width:1.0;" width="228" x="946" y="611.0986"/><text fill="#000000" font-family="Arial" font-size="14" font-weight="bold" lengthAdjust="spacing" textLength="212" x="954" y="626.2305">Financial-Crime Responsibility</text><text fill="#000000" font-family="Arial" font-size="14" font-weight="bold" lengthAdjust="spacing" textLength="111" x="1004.5" y="642.3291">boundary basis:</text><text fill="#000000" font-family="Arial" font-size="14" font-weight="bold" lengthAdjust="spacing" textLength="107" x="1006.5" y="658.4277">policy authority</text></g><!--cluster CoreContext--><g id="cluster_CoreContext"><rect fill="#F7F9FB" height="145" rx="2.5" ry="2.5" style="stroke:#333333;stroke-width:1.0;" width="220" x="950.5" y="442.0986"/><text fill="#000000" font-family="Arial" font-size="14" font-weight="bold" lengthAdjust="spacing" textLength="204" x="958.5" y="457.2305">Retained Core Responsibility</text><text fill="#000000" font-family="Arial" font-size="14" font-weight="bold" lengthAdjust="spacing" textLength="111" x="1005" y="473.3291">boundary basis:</text><text fill="#000000" font-family="Arial" font-size="14" font-weight="bold" lengthAdjust="spacing" textLength="149" x="986" y="489.4277">core account posting</text></g><!--cluster EventContext--><g id="cluster_EventContext"><rect fill="#F7F9FB" height="125" rx="2.5" ry="2.5" style="stroke:#333333;stroke-width:1.0;" width="202" x="959" y="44.0986"/><text fill="#000000" font-family="Arial" font-size="14" font-weight="bold" lengthAdjust="spacing" textLength="186" x="967" y="59.2305">Event Distribution Context</text><text fill="#000000" font-family="Arial" font-size="14" font-weight="bold" lengthAdjust="spacing" textLength="111" x="1004.5" y="75.3291">boundary basis:</text><text fill="#000000" font-family="Arial" font-size="14" font-weight="bold" lengthAdjust="spacing" textLength="160" x="980" y="91.4277">event governance and</text><text fill="#000000" font-family="Arial" font-size="14" font-weight="bold" lengthAdjust="spacing" textLength="123" x="998.5" y="107.5264">consumer access</text></g><!--entity Channels--><g id="elem_Channels"><rect fill="#FFFFFF" height="62.1973" rx="2.5" ry="2.5" style="stroke:#333333;stroke-width:0.5;" width="130" x="289" y="446.0986"/><rect fill="#FFFFFF" height="10" style="stroke:#333333;stroke-width:0.5;" width="15" x="399" y="451.0986"/><rect fill="#FFFFFF" height="2" style="stroke:#333333;stroke-width:0.5;" width="4" x="397" y="453.0986"/><rect fill="#FFFFFF" height="2" style="stroke:#333333;stroke-width:0.5;" width="4" x="397" y="457.0986"/><text fill="#000000" font-family="Arial" font-size="14" lengthAdjust="spacing" textLength="90" x="304" y="479.2305">Horizon Digital</text><text fill="#000000" font-family="Arial" font-size="14" lengthAdjust="spacing" textLength="60" x="304" y="495.3291">Channels</text></g><!--entity Payments--><g id="elem_Payments"><rect fill="#FFFFFF" height="62.1973" rx="2.5" ry="2.5" style="stroke:#333333;stroke-width:0.5;" width="102" x="658" y="340.0986"/><rect fill="#FFFFFF" height="10" style="stroke:#333333;stroke-width:0.5;" width="15" x="740" y="345.0986"/><rect fill="#FFFFFF" height="2" style="stroke:#333333;stroke-width:0.5;" width="4" x="738" y="347.0986"/><rect fill="#FFFFFF" height="2" style="stroke:#333333;stroke-width:0.5;" width="4" x="738" y="351.0986"/><text fill="#000000" font-family="Arial" font-size="14" lengthAdjust="spacing" textLength="62" x="673" y="373.2305">Payments</text><text fill="#000000" font-family="Arial" font-size="14" lengthAdjust="spacing" textLength="52" x="673" y="389.3291">Platform</text></g><!--entity PaymentStore--><g id="elem_PaymentStore"><path d="M1008,350.5986 C1008,340.5986 1060,340.5986 1060,340.5986 C1060,340.5986 1112,340.5986 1112,350.5986 L1112,391.7959 C1112,401.7959 1060,401.7959 1060,401.7959 C1060,401.7959 1008,401.7959 1008,391.7959 L1008,350.5986 " fill="#F2F5F7" style="stroke:#333333;stroke-width:0.5;"/><path d="M1008,350.5986 C1008,360.5986 1060,360.5986 1060,360.5986 C1060,360.5986 1112,360.5986 1112,350.5986 " fill="none" style="stroke:#333333;stroke-width:0.5;"/><text fill="#000000" font-family="Arial" font-size="14" lengthAdjust="spacing" textLength="55" x="1018" y="377.7305">Payment</text><text fill="#000000" font-family="Arial" font-size="14" lengthAdjust="spacing" textLength="84" x="1018" y="393.8291">Record Store</text></g><!--entity AuditLog--><g id="elem_AuditLog"><path d="M1020,270.5986 C1020,260.5986 1060,260.5986 1060,260.5986 C1060,260.5986 1100,260.5986 1100,270.5986 L1100,295.6973 C1100,305.6973 1060,305.6973 1060,305.6973 C1060,305.6973 1020,305.6973 1020,295.6973 L1020,270.5986 " fill="#F2F5F7" style="stroke:#333333;stroke-width:0.5;"/><path d="M1020,270.5986 C1020,280.5986 1060,280.5986 1060,280.5986 C1060,280.5986 1100,280.5986 1100,270.5986 " fill="none" style="stroke:#333333;stroke-width:0.5;"/><text fill="#000000" font-family="Arial" font-size="14" lengthAdjust="spacing" textLength="60" x="1030" y="297.7305">Audit Log</text></g><!--entity FinancialCrime--><g id="elem_FinancialCrime"><rect fill="#FFFFFF" height="62.1973" rx="2.5" ry="2.5" style="stroke:#333333;stroke-width:0.5;" width="138" x="991" y="678.0986"/><rect fill="#FFFFFF" height="10" style="stroke:#333333;stroke-width:0.5;" width="15" x="1109" y="683.0986"/><rect fill="#FFFFFF" height="2" style="stroke:#333333;stroke-width:0.5;" width="4" x="1107" y="685.0986"/><rect fill="#FFFFFF" height="2" style="stroke:#333333;stroke-width:0.5;" width="4" x="1107" y="689.0986"/><text fill="#000000" font-family="Arial" font-size="14" lengthAdjust="spacing" textLength="98" x="1006" y="711.2305">Financial Crime</text><text fill="#000000" font-family="Arial" font-size="14" lengthAdjust="spacing" textLength="52" x="1006" y="727.3291">Platform</text></g><!--entity Core--><g id="elem_Core"><path d="M1008.5,519.5986 C1008.5,509.5986 1060,509.5986 1060,509.5986 C1060,509.5986 1111.5,509.5986 1111.5,519.5986 L1111.5,560.7959 C1111.5,570.7959 1060,570.7959 1060,570.7959 C1060,570.7959 1008.5,570.7959 1008.5,560.7959 L1008.5,519.5986 " fill="#F2F5F7" style="stroke:#333333;stroke-width:0.5;"/><path d="M1008.5,519.5986 C1008.5,529.5986 1060,529.5986 1060,529.5986 C1060,529.5986 1111.5,529.5986 1111.5,519.5986 " fill="none" style="stroke:#333333;stroke-width:0.5;"/><text fill="#000000" font-family="Arial" font-size="14" lengthAdjust="spacing" textLength="83" x="1018.5" y="546.7305">Core Deposit</text><text fill="#000000" font-family="Arial" font-size="14" lengthAdjust="spacing" textLength="46" x="1018.5" y="562.8291">System</text></g><!--entity EventPlatform--><g id="elem_EventPlatform"><path d="M1009,127.0986 L1111,127.0986 C1116,127.0986 1116,140.1479 1116,140.1479 C1116,140.1479 1116,153.1973 1111,153.1973 L1009,153.1973 C1004,153.1973 1004,140.1479 1004,140.1479 C1004,140.1479 1004,127.0986 1009,127.0986 " fill="#F2F5F7" style="stroke:#333333;stroke-width:0.5;"/><path d="M1111,127.0986 C1106,127.0986 1106,140.1479 1106,140.1479 C1106,153.1973 1111,153.1973 1111,153.1973 " fill="none" style="stroke:#333333;stroke-width:0.5;"/><text fill="#000000" font-family="Arial" font-size="14" lengthAdjust="spacing" textLength="92" x="1009" y="145.2305">Event Platform</text></g><!--entity Customer--><g id="elem_Customer"><ellipse cx="36.5" cy="439.5986" fill="#FFFFFF" rx="8" ry="8" style="stroke:#333333;stroke-width:0.5;"/><path d="M36.5,447.5986 L36.5,474.5986 M23.5,455.5986 L49.5,455.5986 M36.5,474.5986 L23.5,489.5986 M36.5,474.5986 L49.5,489.5986 " fill="none" style="stroke:#333333;stroke-width:0.5;"/><text fill="#000000" font-family="Arial" font-size="14" lengthAdjust="spacing" textLength="36" x="6" y="504.2305">Retail</text><text fill="#000000" font-family="Arial" font-size="14" lengthAdjust="spacing" textLength="61" x="6" y="520.3291">Customer</text></g><!--entity Ops--><g id="elem_Ops"><ellipse cx="354" cy="263.5986" fill="#FFFFFF" rx="8" ry="8" style="stroke:#333333;stroke-width:0.5;"/><path d="M354,271.5986 L354,298.5986 M341,279.5986 L367,279.5986 M354,298.5986 L341,313.5986 M354,298.5986 L367,313.5986 " fill="none" style="stroke:#333333;stroke-width:0.5;"/><text fill="#000000" font-family="Arial" font-size="14" lengthAdjust="spacing" textLength="70" x="319" y="328.2305">Operations</text><text fill="#000000" font-family="Arial" font-size="14" lengthAdjust="spacing" textLength="46" x="319" y="344.3291">Analyst</text></g><!--entity Compliance--><g id="elem_Compliance"><ellipse cx="709" cy="671.5986" fill="#FFFFFF" rx="8" ry="8" style="stroke:#333333;stroke-width:0.5;"/><path d="M709,679.5986 L709,706.5986 M696,687.5986 L722,687.5986 M709,706.5986 L696,721.5986 M709,706.5986 L722,721.5986 " fill="none" style="stroke:#333333;stroke-width:0.5;"/><text fill="#000000" font-family="Arial" font-size="14" lengthAdjust="spacing" textLength="74" x="672" y="736.2305">Compliance</text><text fill="#000000" font-family="Arial" font-size="14" lengthAdjust="spacing" textLength="42" x="672" y="752.3291">Officer</text></g><!--link Customer to Channels--><g id="link_Customer_Channels"><path d="M67.18,477.0986 C117.65,477.0986 215.27,477.0986 282.9,477.0986 " fill="none" id="Customer-to-Channels" style="stroke:#333333;stroke-width:1.2;"/><polygon fill="#333333" points="288.9,477.0986,279.9,473.0986,283.9,477.0986,279.9,481.0986,288.9,477.0986" style="stroke:#333333;stroke-width:1.2;"/><text fill="#000000" font-family="Arial" font-size="14" lengthAdjust="spacing" textLength="123" x="107" y="441.2305">payment instruction</text><text fill="#000000" font-family="Arial" font-size="14" lengthAdjust="spacing" textLength="141" x="98" y="457.3291">and session reference</text><text fill="#000000" font-family="Arial" font-size="14" lengthAdjust="spacing" textLength="54" x="141.5" y="473.4277">[T12-01]</text></g><!--link Channels to Payments--><g id="link_Channels_Payments"><path d="M419.1,473.6686 C475.46,468.8286 558.76,457.1686 626,429.0986 C641.93,422.4486 652.9795,415.8411 666.4595,405.8511 " fill="none" id="Channels-to-Payments" style="stroke:#333333;stroke-width:1.2;"/><polygon fill="#333333" points="671.28,402.2786,661.6676,404.4237,667.2629,405.2557,666.4309,410.851,671.28,402.2786" style="stroke:#333333;stroke-width:1.2;"/><text fill="#000000" font-family="Arial" font-size="14" lengthAdjust="spacing" textLength="127" x="484" y="377.2305">payment instruction,</text><text fill="#000000" font-family="Arial" font-size="14" lengthAdjust="spacing" textLength="155" x="470" y="393.3291">validated subject context</text><text fill="#000000" font-family="Arial" font-size="14" lengthAdjust="spacing" textLength="146" x="474.5" y="409.4277">and entitlement context</text><text fill="#000000" font-family="Arial" font-size="14" lengthAdjust="spacing" textLength="108" x="493.5" y="425.5264">[T12-02, T12-07]</text></g><!--link Payments to FinancialCrime--><g id="link_Payments_FinancialCrime"><path d="M714.7,402.3286 C722.66,444.1886 742.8,517.9686 790,559.0986 C838.61,601.4586 873.11,566.7586 930,597.0986 C969.12,617.9686 1002.3841,648.3406 1026.7441,673.5906 " fill="none" id="Payments-to-FinancialCrime" style="stroke:#333333;stroke-width:1.2;"/><polygon fill="#333333" points="1030.91,677.9086,1027.5399,668.6543,1027.4385,674.3103,1021.7825,674.2088,1030.91,677.9086" style="stroke:#333333;stroke-width:1.2;"/><text fill="#000000" font-family="Arial" font-size="14" lengthAdjust="spacing" textLength="114" x="803" y="555.2305">screening request</text></g><!--link FinancialCrime to Payments--><g id="link_FinancialCrime_Payments"><path d="M990.88,688.8986 C971.28,683.2686 949.84,677.2786 930,672.0986 C868.15,655.9486 836.51,682.9586 790,639.0986 C722.7,575.6386 711.4144,464.2166 709.9744,408.2866 " fill="none" id="FinancialCrime-to-Payments" style="stroke:#333333;stroke-width:1.2;"/><polygon fill="#333333" points="709.82,402.2886,706.053,411.3886,709.9487,407.287,714.0503,411.1827,709.82,402.2886" style="stroke:#333333;stroke-width:1.2;"/><text fill="#000000" font-family="Arial" font-size="14" lengthAdjust="spacing" textLength="101" x="809.5" y="619.2305">screening result</text><text fill="#000000" font-family="Arial" font-size="14" lengthAdjust="spacing" textLength="54" x="833" y="635.3291">[T12-05]</text></g><!--link Compliance to FinancialCrime--><g id="link_Compliance_FinancialCrime"><path d="M746.24,709.6486 C759.95,709.8286 775.69,710.0086 790,710.0986 C858.3,710.5286 930.3602,710.1839 984.7302,709.7739 " fill="none" id="Compliance-to-FinancialCrime" style="stroke:#333333;stroke-width:1.2;"/><polygon fill="#333333" points="990.73,709.7286,981.7001,705.7966,985.7301,709.7663,981.7604,713.7964,990.73,709.7286" style="stroke:#333333;stroke-width:1.2;"/><text fill="#000000" font-family="Arial" font-size="14" lengthAdjust="spacing" textLength="138" x="791" y="690.2305">screening case action</text><text fill="#000000" font-family="Arial" font-size="14" lengthAdjust="spacing" textLength="54" x="833" y="706.3291">[T12-05]</text></g><!--link Ops to Payments--><g id="link_Ops_Payments"><path d="M389.17,307.8786 C451.72,320.2786 578.9946,345.5217 651.8746,359.9717 " fill="none" id="Ops-to-Payments" style="stroke:#333333;stroke-width:1.2;"/><polygon fill="#333333" points="657.76,361.1386,649.7098,355.4646,652.8555,360.1662,648.1539,363.3119,657.76,361.1386" style="stroke:#333333;stroke-width:1.2;"/><text fill="#000000" font-family="Arial" font-size="14" lengthAdjust="spacing" textLength="145" x="475" y="304.2305">controlled repair action</text><text fill="#000000" font-family="Arial" font-size="14" lengthAdjust="spacing" textLength="108" x="493.5" y="320.3291">[T12-04, T12-08]</text></g><!--link Payments to Core--><g id="link_Payments_Core"><path d="M719.98,402.3486 C731.6,433.3086 753.94,479.4086 790,503.0986 C824.97,526.0686 934.7671,534.6866 1002.4971,537.9866 " fill="none" id="Payments-to-Core" style="stroke:#333333;stroke-width:1.2;"/><polygon fill="#333333" points="1008.49,538.2786,999.6953,533.8454,1003.4959,538.0353,999.306,541.8359,1008.49,538.2786" style="stroke:#333333;stroke-width:1.2;"/><text fill="#000000" font-family="Arial" font-size="14" lengthAdjust="spacing" textLength="98" x="811" y="483.2305">posting request</text><text fill="#000000" font-family="Arial" font-size="14" lengthAdjust="spacing" textLength="54" x="833" y="499.3291">[T12-03]</text></g><!--link Core to Payments--><g id="link_Core_Payments"><path d="M1009.55,509.4386 C985.86,495.2386 956.86,478.5786 930,465.0986 C873.02,436.4986 810.8466,410.6127 765.7366,392.7027 " fill="none" id="Core-to-Payments" style="stroke:#333333;stroke-width:1.2;"/><polygon fill="#333333" points="760.16,390.4886,767.0488,397.5274,764.8071,392.3337,770.0009,390.092,760.16,390.4886" style="stroke:#333333;stroke-width:1.2;"/><text fill="#000000" font-family="Arial" font-size="14" lengthAdjust="spacing" textLength="85" x="817.5" y="401.2305">posting result</text></g><!--link Payments to PaymentStore--><g id="link_Payments_PaymentStore"><path d="M760,371.0986 C825.97,371.0986 935.47,371.0986 1001.95,371.0986 " fill="none" id="Payments-to-PaymentStore" style="stroke:#333333;stroke-width:1.2;"/><polygon fill="#333333" points="1007.95,371.0986,998.95,367.0986,1002.95,371.0986,998.95,375.0986,1007.95,371.0986" style="stroke:#333333;stroke-width:1.2;"/><text fill="#000000" font-family="Arial" font-size="14" lengthAdjust="spacing" textLength="135" x="792.5" y="367.2305">store payment record</text></g><!--link Payments to AuditLog--><g id="link_Payments_AuditLog"><path d="M760.15,354.0586 C770,350.9186 780.29,347.7886 790,345.0986 C871.05,322.6286 961.524,303.0423 1014.104,292.1823 " fill="none" id="Payments-to-AuditLog" style="stroke:#333333;stroke-width:1.2;"/><polygon fill="#333333" points="1019.98,290.9686,1010.3569,288.8718,1015.0834,291.98,1011.9751,296.7064,1019.98,290.9686" style="stroke:#333333;stroke-width:1.2;"/><text fill="#000000" font-family="Arial" font-size="14" lengthAdjust="spacing" textLength="103" x="808.5" y="291.2305">write audit event</text><text fill="#000000" font-family="Arial" font-size="14" lengthAdjust="spacing" textLength="54" x="833" y="307.3291">[T12-04]</text></g><!--link Payments to EventPlatform--><g id="link_Payments_EventPlatform"><path d="M728.95,339.8686 C743.5,317.8886 765.25,288.9586 790,269.0986 C861.29,211.8686 956.4637,174.1827 1012.2337,155.0827 " fill="none" id="Payments-to-EventPlatform" style="stroke:#333333;stroke-width:1.2;"/><polygon fill="#333333" points="1017.91,153.1386,1008.0995,152.2704,1013.1797,154.7586,1010.6915,159.8389,1017.91,153.1386" style="stroke:#333333;stroke-width:1.2;"/><text fill="#000000" font-family="Arial" font-size="14" lengthAdjust="spacing" textLength="136" x="792" y="168.2305">payment-status event</text><text fill="#000000" font-family="Arial" font-size="14" lengthAdjust="spacing" textLength="54" x="833" y="184.3291">[T12-06]</text></g><rect fill="none" height="58.2959" id="_legend" rx="7.5" ry="7.5" style="stroke:#000000;stroke-width:1.0;" width="770" x="198" y="773.0986"/><text fill="#000000" font-family="Arial" font-size="14" lengthAdjust="spacing" textLength="350" x="203" y="791.2305">Threat IDs label review points, not proof of vulnerability.</text><text fill="#000000" font-family="Arial" font-size="14" lengthAdjust="spacing" textLength="760" x="203" y="807.3291">Authentication and session validation are represented in the authentication model, not as a full Identity Service flow here.</text><text fill="#000000" font-family="Arial" font-size="14" lengthAdjust="spacing" textLength="599" x="203" y="823.4277">DFD elements are external entities, processes, stores and data flows, not BPMN process steps.</text><!--SRC=[dLPHSzis37xdhy2orzXTqtRfyh2x9Awxt2rBBkbRbGUQWcqk5AcHb5Dlr_zU419bIMjkxNo-iqK37pu07q3_eAqoJOamdx-WTuXxW-55RQIDJMLcSOiLpclwAeJ1TOJemElDDaAfFQgedHLHHuEml7e_Utao- -dr77vpNl_jB5n8-mYtSb-XZV1Xwr76sRKhqS1YkH0YF6fRIoyhI4ZIRWZb7m5muNo9_j8Pv-77L_nAfr8zRhnhRDdziZnT_hAy49y7ECfLjRCfslVWy6k4KyeeLp9y7vsJvPlbwGZchmQR_uSXf8fqS7I7KMfJsCicH5UXFm8P83zaeviQlKoT28KzjzBiGsIxcpfaaqigZD7IAYpipNgjLORgpuKuDE4eHu1pfJ0aCnlnKopiAf6LVWzK7HtE2gkoPOaxGWLfoy86yY4wK7iCr0pcDcBUuN5f3ZqxohfPw8sECgMzbTQY2Qrpzv3AC-2QzNLhP5mxNy4T1W8CUgMDZlklSAux3-VL5aDiQmUrCrhjEL87-GpBxbSgTWuvT0fatCidsnRs3XL90Ewf6pWqvuEHotbJwWY_kmsRyHCzJ99UQajDqzBCBhsky1jovkn0Dd5BHOvjdZqAWpoJRcy4R3N9UWmnOSdgjLYIVlmtS5J9IYf5vv7Q4QAscqwbViJkK2m6NY0PQohoFIaVgzvbmkRTBkMpqDHnlMguvy_h6jbuutReKuATi1NnRvBQ9Sy5HsBO8RjswhjmesBnKJv9xFevcyr-xVKDPv0LgYsHRNZB5aIZX3nP7jVeaSVvuuUqTLy-YDu_WMKrVXtikB0xQJJLaPeJcjMVL2NgULUC58WSqbPdn_w7DjJ9CV3dwOCGVPWKSwm5YXoKHxJKHU9BLGbHJ4mcJ8VseJ5zn3UKNB-e_YkKIiAGNSrwVq7BS1ekvUMTCLG3ZxNKVkBskalqxJHHLjrPbcXEBhkzIcpzlv8xMAVK9eZ3RP2ouS_SEC-xO-oGzm8PFz4yKyQyDbYsFV-7iSz8VWTXp09jw2QCVNz-IFVz1aaAAnT9fAAzl-5g4S385TtXdZO-Fb5UcW8SWtKqjDwvDT1xrnXBbr8xwdDnJcidAKgrgtQev4w7V4mvKoFQIuEQeYsG6- -iWNEL_a2quMYa9AmRO-2gPC7kuHuztqDhuvvWIpCo5_HV0x2LSk0OfEKqrQOLkKOYJyJJGAUlNFl07DEUOQGklOlRwp-oATbX7UQ2AjJMwGi0]--></g></svg>