<?xml version="1.0" encoding="us-ascii" standalone="no"?><svg xmlns="http://www.w3.org/2000/svg" xmlns:xlink="http://www.w3.org/1999/xlink" contentStyleType="text/css" height="496px" preserveAspectRatio="none" style="width:1521px;height:496px;background:#FFFFFF;" version="1.1" viewBox="0 0 1521 496" width="1521px" zoomAndPan="magnify"><defs/><g><text fill="#000000" font-family="Arial" font-size="14" font-weight="bold" lengthAdjust="spacing" textLength="428" x="539.5" y="23.1318">FIG-24-01. Discovery Evidence and Recommended Model Set</text><!--entity Start--><g id="elem_Start"><rect fill="#DCEAF7" height="52.1973" rx="5" ry="5" style="stroke:#333333;stroke-width:0.5;" width="185" x="7" y="222.5654"/><text fill="#111111" font-family="Arial" font-size="14" lengthAdjust="spacing" textLength="165" x="17" y="245.6973">Problem, desired outcome</text><text fill="#111111" font-family="Arial" font-size="14" lengthAdjust="spacing" textLength="145" x="17" y="261.7959">and available evidence</text></g><!--entity Stake--><g id="elem_Stake"><rect fill="#F5F7FA" height="52.1973" rx="5" ry="5" style="stroke:#333333;stroke-width:0.5;" width="106" x="501.5" y="90.5654"/><text fill="#111111" font-family="Arial" font-size="14" lengthAdjust="spacing" textLength="83" x="511.5" y="113.6973">Stakeholders</text><text fill="#111111" font-family="Arial" font-size="14" lengthAdjust="spacing" textLength="86" x="511.5" y="129.7959">and concerns</text></g><!--entity Context--><g id="elem_Context"><rect fill="#F5F7FA" height="52.1973" rx="5" ry="5" style="stroke:#333333;stroke-width:0.5;" width="104" x="502.5" y="177.5654"/><text fill="#111111" font-family="Arial" font-size="14" lengthAdjust="spacing" textLength="84" x="512.5" y="200.6973">Current-state</text><text fill="#111111" font-family="Arial" font-size="14" lengthAdjust="spacing" textLength="45" x="512.5" y="216.7959">context</text></g><!--entity Cap--><g id="elem_Cap"><rect fill="#F5F7FA" height="52.1973" rx="5" ry="5" style="stroke:#333333;stroke-width:0.5;" width="95" x="507" y="264.5654"/><text fill="#111111" font-family="Arial" font-size="14" lengthAdjust="spacing" textLength="62" x="517" y="287.6973">Capability</text><text fill="#111111" font-family="Arial" font-size="14" lengthAdjust="spacing" textLength="75" x="517" y="303.7959">assessment</text></g><!--entity Process--><g id="elem_Process"><rect fill="#F5F7FA" height="52.1973" rx="5" ry="5" style="stroke:#333333;stroke-width:0.5;" width="80" x="514.5" y="351.5654"/><text fill="#111111" font-family="Arial" font-size="14" lengthAdjust="spacing" textLength="51" x="524.5" y="374.6973">Process</text><text fill="#111111" font-family="Arial" font-size="14" lengthAdjust="spacing" textLength="60" x="524.5" y="390.7959">discovery</text></g><!--entity Limits--><g id="elem_Limits"><rect fill="#F5F7FA" height="52.1973" rx="5" ry="5" style="stroke:#333333;stroke-width:0.5;" width="179" x="465" y="438.5654"/><text fill="#111111" font-family="Arial" font-size="14" lengthAdjust="spacing" textLength="159" x="475" y="461.6973">Constraints, assumptions</text><text fill="#111111" font-family="Arial" font-size="14" lengthAdjust="spacing" textLength="117" x="475" y="477.7959">and dependencies</text></g><!--entity Synth--><g id="elem_Synth"><rect fill="#E2F0D9" height="52.1973" rx="5" ry="5" style="stroke:#333333;stroke-width:0.5;" width="177" x="940" y="217.5654"/><text fill="#111111" font-family="Arial" font-size="14" lengthAdjust="spacing" textLength="157" x="950" y="240.6973">Synthesis: findings, gaps</text><text fill="#111111" font-family="Arial" font-size="14" lengthAdjust="spacing" textLength="155" x="950" y="256.7959">and candidate directions</text></g><!--entity Gate--><g id="elem_Gate"><rect fill="#FFF2CC" height="68.2959" rx="5" ry="5" style="stroke:#333333;stroke-width:0.5;" width="162" x="1316" y="54.5654"/><text fill="#111111" font-family="Arial" font-size="14" lengthAdjust="spacing" textLength="127" x="1326" y="77.6973">Readiness decision:</text><text fill="#111111" font-family="Arial" font-size="14" lengthAdjust="spacing" textLength="142" x="1326" y="93.7959">proceed, loop, narrow,</text><text fill="#111111" font-family="Arial" font-size="14" lengthAdjust="spacing" textLength="87" x="1326" y="109.8945">pause or stop</text></g><g id="elem_GMN23"><path d="M1280,157.5654 L1280,199.7627 A0,0 0 0 0 1280,199.7627 L1514,199.7627 A0,0 0 0 0 1514,199.7627 L1514,167.5654 L1504,157.5654 L1401,157.5654 L1397,122.7454 L1393,157.5654 L1280,157.5654 A0,0 0 0 0 1280,157.5654 " fill="#FEFFDD" style="stroke:#181818;stroke-width:0.5;"/><path d="M1504,157.5654 L1504,167.5654 L1514,167.5654 L1504,157.5654 " fill="#FEFFDD" style="stroke:#181818;stroke-width:0.5;"/><text fill="#000000" font-family="Arial" font-size="14" lengthAdjust="spacing" textLength="205" x="1286" y="175.6973">This is an iterative learning loop,</text><text fill="#000000" font-family="Arial" font-size="14" lengthAdjust="spacing" textLength="213" x="1286" y="191.7959">not one mandatory linear method.</text></g><!--link Start to Stake--><g id="link_Start_Stake"><path d="M148.51,222.5654 C170.44,211.4954 197.03,199.1854 222,190.5654 C318.15,157.3654 429.3191,136.2766 495.4691,125.4266 " fill="none" id="Start-to-Stake" style="stroke:#333333;stroke-width:1.0;"/><polygon fill="#333333" points="501.39,124.4554,491.8612,121.9649,496.4559,125.2647,493.1561,129.8594,501.39,124.4554" style="stroke:#333333;stroke-width:1.0;"/><text fill="#000000" font-family="Arial" font-size="14" lengthAdjust="spacing" textLength="88" x="284.5" y="133.6973">Who matters?</text></g><!--link Start to Context--><g id="link_Start_Context"><path d="M192.17,239.4554 C285.63,230.1754 421.2694,216.6987 496.4494,209.2287 " fill="none" id="Start-to-Context" style="stroke:#333333;stroke-width:1.0;"/><polygon fill="#333333" points="502.42,208.6354,493.0686,205.5449,497.4445,209.1298,493.8596,213.5057,502.42,208.6354" style="stroke:#333333;stroke-width:1.0;"/><text fill="#000000" font-family="Arial" font-size="14" lengthAdjust="spacing" textLength="151" x="253" y="212.6973">What surrounds scope?</text></g><!--link Start to Cap--><g id="link_Start_Cap"><path d="M192.08,270.6854 C202.13,272.5854 212.25,274.2754 222,275.5654 C322.94,288.9654 436.52,291.0064 500.88,290.9964 " fill="none" id="Start-to-Cap" style="stroke:#333333;stroke-width:1.0;"/><polygon fill="#333333" points="506.88,290.9954,497.88,286.9954,501.88,290.9954,497.88,294.9954,506.88,290.9954" style="stroke:#333333;stroke-width:1.0;"/><text fill="#000000" font-family="Arial" font-size="14" lengthAdjust="spacing" textLength="142" x="257.5" y="271.6973">Which abilities matter?</text></g><!--link Start to Process--><g id="link_Start_Process"><path d="M139.42,274.6954 C162.52,289.0654 192.89,306.0654 222,316.5654 C323.7,353.2454 445.2851,368.2074 508.4151,373.9974 " fill="none" id="Start-to-Process" style="stroke:#333333;stroke-width:1.0;"/><polygon fill="#333333" points="514.39,374.5454,505.7929,369.7402,509.4109,374.0888,505.0623,377.7067,514.39,374.5454" style="stroke:#333333;stroke-width:1.0;"/><text fill="#000000" font-family="Arial" font-size="14" lengthAdjust="spacing" textLength="154" x="251.5" y="312.6973">How does work happen?</text></g><!--link Start to Limits--><g id="link_Start_Limits"><path d="M115.3,274.7554 C135.2,307.4154 173.71,362.5154 222,391.5654 C296.23,436.2254 388.5476,453.0906 458.7876,459.8506 " fill="none" id="Start-to-Limits" style="stroke:#333333;stroke-width:1.0;"/><polygon fill="#333333" points="464.76,460.4254,456.1846,455.5816,459.783,459.9464,455.4182,463.5448,464.76,460.4254" style="stroke:#333333;stroke-width:1.0;"/><text fill="#000000" font-family="Arial" font-size="14" lengthAdjust="spacing" textLength="211" x="223" y="387.6973">What limits confidence or choice?</text></g><!--link Stake to Synth--><g id="link_Stake_Synth"><path d="M607.57,123.1854 C677.58,132.9854 805.35,153.9954 910,188.5654 C933.2,196.2354 952.4674,204.6245 973.1574,214.8145 " fill="none" id="Stake-to-Synth" style="stroke:#333333;stroke-width:1.0;"/><polygon fill="#333333" points="978.54,217.4654,972.2334,209.9006,974.0545,215.2563,968.6988,217.0774,978.54,217.4654" style="stroke:#333333;stroke-width:1.0;"/><text fill="#000000" font-family="Arial" font-size="14" lengthAdjust="spacing" textLength="58" x="763" y="130.6973">concerns</text></g><!--link Context to Synth--><g id="link_Context_Synth"><path d="M606.91,207.9254 C686.83,214.6954 835.8614,227.3291 933.7414,235.6191 " fill="none" id="Context-to-Synth" style="stroke:#333333;stroke-width:1.0;"/><polygon fill="#333333" points="939.72,236.1254,931.0897,231.3802,934.7378,235.7035,930.4145,239.3516,939.72,236.1254" style="stroke:#333333;stroke-width:1.0;"/><text fill="#000000" font-family="Arial" font-size="14" lengthAdjust="spacing" textLength="181" x="701.5" y="210.6973">boundary and dependencies</text></g><!--link Cap to Synth--><g id="link_Cap_Synth"><path d="M602.02,287.2154 C669.85,282.1654 799.79,271.8854 910,259.5654 C919.72,258.4754 923.9284,258.0063 934.0184,256.7163 " fill="none" id="Cap-to-Synth" style="stroke:#333333;stroke-width:1.0;"/><polygon fill="#333333" points="939.97,255.9554,930.5354,253.1291,935.0104,256.5895,931.5499,261.0645,939.97,255.9554" style="stroke:#333333;stroke-width:1.0;"/><text fill="#000000" font-family="Arial" font-size="14" lengthAdjust="spacing" textLength="122" x="731" y="255.6973">strengths and gaps</text></g><!--link Process to Synth--><g id="link_Process_Synth"><path d="M594.57,373.7754 C661,366.4654 799.53,347.4954 910,307.5654 C936.87,297.8554 959.885,285.7655 981.915,272.6455 " fill="none" id="Process-to-Synth" style="stroke:#333333;stroke-width:1.0;"/><polygon fill="#333333" points="987.07,269.5754,977.2907,270.7439,982.7741,272.1338,981.3842,277.6173,987.07,269.5754" style="stroke:#333333;stroke-width:1.0;"/><text fill="#000000" font-family="Arial" font-size="14" lengthAdjust="spacing" textLength="125" x="729.5" y="303.6973">flow and pain points</text></g><!--link Limits to Synth--><g id="link_Limits_Synth"><path d="M644.26,462.1854 C719.91,456.4954 828.92,439.3654 910,389.5654 C958.24,359.9354 992.2543,308.3682 1010.9643,275.0182 " fill="none" id="Limits-to-Synth" style="stroke:#333333;stroke-width:1.0;"/><polygon fill="#333333" points="1013.9,269.7854,1006.008,275.6774,1011.4536,274.1461,1012.985,279.5917,1013.9,269.7854" style="stroke:#333333;stroke-width:1.0;"/><text fill="#000000" font-family="Arial" font-size="14" lengthAdjust="spacing" textLength="133" x="725.5" y="385.6973">uncertainty and limits</text></g><!--link Synth to Gate--><g id="link_Synth_Gate"><path d="M1091.26,217.4454 C1152.97,191.3454 1242.6138,153.4323 1310.1538,124.8723 " fill="none" id="Synth-to-Gate" style="stroke:#333333;stroke-width:1.0;"/><polygon fill="#333333" points="1315.68,122.5354,1305.8328,122.3565,1311.0748,124.4828,1308.9485,129.7248,1315.68,122.5354" style="stroke:#333333;stroke-width:1.0;"/><text fill="#000000" font-family="Arial" font-size="14" lengthAdjust="spacing" textLength="101" x="1148" y="148.6973">review evidence</text></g><!--reverse link Start to Gate--><g id="link_Start_Gate"><path d="M118.8759,217.4174 C138.8959,185.6074 174.07,137.8854 222,111.5654 C317.88,58.9154 355.96,81.2554 465,72.5654 C779.03,47.5254 1154.45,69.8754 1315.82,81.9854 " fill="none" id="Start-backto-Gate" style="stroke:#333333;stroke-width:1.0;"/><polygon fill="#333333" points="115.68,222.4954,123.8592,217.009,118.3433,218.2638,117.0885,212.7478,115.68,222.4954" style="stroke:#333333;stroke-width:1.0;"/><text fill="#000000" font-family="Arial" font-size="14" lengthAdjust="spacing" textLength="234" x="675" y="57.6973">uncertainty remains; gather evidence</text></g><!--SRC=[RLHDRzD04BtxLupQQr8rfQWYIA2GDWK944gGkFGoyKxYLTOxgzrnGa7yTsPjftKAFaJEpfkFz-PvnOeZM7ow7rzTZoyd5t1hKybxYezmjxU6V4c0ti2IIgvhyeOCV6533bOaHTfP7p1Y3MiiTzl8ZJTpTXpXVD4-0uIX3JPE5kpbAzO4isZH_J- -ihy89jU3OAhGyC7wBMpG9Hf4PZ7oeU_vgdq6mKYbeDygmzy5m8T_Pdozk5dCSeIZeNXQ1I2FqfzDsaVFbbrwz1HXSbdyAHnj18GXscqbO6nkQTaNpwtFlaLUEwf7IZ5ft00techIWy_AuXwjGmK0zOAV0IPO2KQ1yzlvtMnnCwocWHrLx7JWr5KeMPEYJyUy7GtnyoP6yZ9EWg8j5IpqKrhil7i_GMF0jNLM7hLsIfIIBhr7OtZ1gjJmWpT7nxIe_lYa9lia4QsND598QkgG9UgdDnIohNnfgMFmsTPMJWgi7hrKgbsQmiPgFx_LGbiCH_xwOusoUvQ_roBdmVdTrUBozismu99Gg-YOshsqIHEc3pxaoScCm3674NZCpXhfEJQ9G5sGX4DRzpxtoWw_ci-BRb7ZyRjEUfZ2ZugXHX5TqFj1k5Ux1Q10qhraCoLG-GAT836qA5jMq6r3jUbB3d6zrehzo0SmhA03nnrK65JJ8RBJzDZQTV_K2fl-4rTsPSMsxCPG5YsVLhxfax-A8uDXS9qve5uNBtTPP1P3f7g0_5Qgr4Bp-eeZWI5iuvHBHWHr30JEjYdw-OUu9WybsLLTxuvKqOKpiDtILE-0lQN3qyTLjCVZ9dGBY_AYLAHQNz9R7L0z5v_pF6lUcaMu1jwqrVK- -5xP13PJ0glRGR5x0aSOVRwiMYSfIdE1FUaALIjXLSkf_J12JLAnkIXKjGoYlm00]--></g></svg>