<svg xmlns="http://www.w3.org/2000/svg" width="1200" height="830" viewBox="0 0 1200 830" role="img" aria-labelledby="ttl dsc">
  <title id="ttl">FIG-13-03. Horizon Bank Application Landscape Map</title>
  <desc id="dsc">FIG-13-03. Horizon Bank Application Landscape Map</desc>
  <rect x="0" y="0" width="1200" height="830" fill="#FFFFFF"/>
  <text x="600.0" y="32.6" text-anchor="middle" font-family="Arial, sans-serif" font-size="16" font-weight="bold" fill="#111827">FIG-13-03. Horizon Bank Application Landscape Map</text>
  <text x="600.0" y="58.2" text-anchor="middle" font-family="Arial, sans-serif" font-size="12" font-style="italic" fill="#111827">Deliberately mixed current and target estate. Every system carries one lifecycle marker.</text>
  <rect x="30.0" y="300.0" width="190.0" height="58.0" rx="8" ry="8" fill="#EAF2FB" stroke="#175CD3" stroke-width="1"/>
  <text x="125.0" y="325.7" text-anchor="middle" font-family="Arial, sans-serif" font-size="11" fill="#111827">Horizon Digital Channels</text>
  <text x="125.0" y="340.0" text-anchor="middle" font-family="Arial, sans-serif" font-size="11" fill="#111827">[Target]</text>
  <rect x="270.0" y="170.0" width="190.0" height="58.0" rx="8" ry="8" fill="#EAF2FB" stroke="#175CD3" stroke-width="1"/>
  <text x="365.0" y="195.7" text-anchor="middle" font-family="Arial, sans-serif" font-size="11" fill="#111827">Customer Onboarding Platform</text>
  <text x="365.0" y="210.0" text-anchor="middle" font-family="Arial, sans-serif" font-size="11" fill="#111827">[Target]</text>
  <rect x="270.0" y="430.0" width="190.0" height="58.0" rx="8" ry="8" fill="#EAF2FB" stroke="#175CD3" stroke-width="1"/>
  <text x="365.0" y="455.7" text-anchor="middle" font-family="Arial, sans-serif" font-size="11" fill="#111827">Payments Platform</text>
  <text x="365.0" y="470.0" text-anchor="middle" font-family="Arial, sans-serif" font-size="11" fill="#111827">[Target]</text>
  <rect x="510.0" y="90.0" width="190.0" height="58.0" rx="8" ry="8" fill="#EAF2FB" stroke="#175CD3" stroke-width="1"/>
  <text x="605.0" y="115.7" text-anchor="middle" font-family="Arial, sans-serif" font-size="11" fill="#111827">Party and Customer Platform</text>
  <text x="605.0" y="130.0" text-anchor="middle" font-family="Arial, sans-serif" font-size="11" fill="#111827">[Target]</text>
  <rect x="510.0" y="210.0" width="190.0" height="58.0" rx="8" ry="8" fill="#EAF2FB" stroke="#175CD3" stroke-width="1"/>
  <text x="605.0" y="235.7" text-anchor="middle" font-family="Arial, sans-serif" font-size="11" fill="#111827">Product Catalogue</text>
  <text x="605.0" y="250.0" text-anchor="middle" font-family="Arial, sans-serif" font-size="11" fill="#111827">[Target]</text>
  <rect x="510.0" y="330.0" width="190.0" height="58.0" rx="8" ry="8" fill="#FFF3E0" stroke="#B54708" stroke-width="1.5"/>
  <text x="605.0" y="355.7" text-anchor="middle" font-family="Arial, sans-serif" font-size="11" fill="#111827">Financial Crime Platform</text>
  <text x="605.0" y="370.0" text-anchor="middle" font-family="Arial, sans-serif" font-size="11" fill="#111827">[Mixed]</text>
  <rect x="750.0" y="330.0" width="190.0" height="58.0" rx="8" ry="8" fill="#F3EEFB" stroke="#6941C6" stroke-width="1.5" stroke-dasharray="6 4"/>
  <text x="845.0" y="355.7" text-anchor="middle" font-family="Arial, sans-serif" font-size="11" fill="#111827">Enterprise Integration Platform</text>
  <text x="845.0" y="370.0" text-anchor="middle" font-family="Arial, sans-serif" font-size="11" fill="#111827">[Transitional]</text>
  <rect x="750.0" y="470.0" width="190.0" height="58.0" rx="8" ry="8" fill="#EAF2FB" stroke="#175CD3" stroke-width="1"/>
  <text x="845.0" y="495.7" text-anchor="middle" font-family="Arial, sans-serif" font-size="11" fill="#111827">Event Platform</text>
  <text x="845.0" y="510.0" text-anchor="middle" font-family="Arial, sans-serif" font-size="11" fill="#111827">[Target]</text>
  <rect x="990.0" y="430.0" width="190.0" height="58.0" rx="8" ry="8" fill="#ECECEC" stroke="#111111" stroke-width="3"/>
  <text x="1085.0" y="455.7" text-anchor="middle" font-family="Arial, sans-serif" font-size="11" fill="#111827">Core Deposit System</text>
  <text x="1085.0" y="470.0" text-anchor="middle" font-family="Arial, sans-serif" font-size="11" fill="#111827">[Legacy retained initially]</text>
  <rect x="990.0" y="560.0" width="190.0" height="58.0" rx="8" ry="8" fill="#EAF2FB" stroke="#175CD3" stroke-width="1"/>
  <text x="1085.0" y="585.7" text-anchor="middle" font-family="Arial, sans-serif" font-size="11" fill="#111827">Enterprise Data Platform</text>
  <text x="1085.0" y="600.0" text-anchor="middle" font-family="Arial, sans-serif" font-size="11" fill="#111827">[Target]</text>
  <rect x="30.0" y="660.0" width="560.0" height="150.0" rx="8" ry="8" fill="#FFFFFF" stroke="#666666" stroke-width="1"/>
  <text x="36.0" y="677.0" text-anchor="start" font-family="Arial, sans-serif" font-size="11" fill="#111827">Lifecycle legend (marker text is the primary meaning; border style supports it):</text>
  <text x="36.0" y="691.3" text-anchor="start" font-family="Arial, sans-serif" font-size="11" fill="#111827">Target: solid blue border, light blue fill.</text>
  <text x="36.0" y="705.6" text-anchor="start" font-family="Arial, sans-serif" font-size="11" fill="#111827">Mixed: solid amber border, light amber fill.</text>
  <text x="36.0" y="719.9" text-anchor="start" font-family="Arial, sans-serif" font-size="11" fill="#111827">Transitional: dashed purple border, light purple fill.</text>
  <text x="36.0" y="734.2" text-anchor="start" font-family="Arial, sans-serif" font-size="11" fill="#111827">Legacy retained initially: thick black border, grey fill.</text>
  <rect x="610.0" y="660.0" width="570.0" height="150.0" rx="8" ry="8" fill="#FFF8DC" stroke="#8A6D3B" stroke-width="1"/>
  <text x="616.0" y="677.0" text-anchor="start" font-family="Arial, sans-serif" font-size="11" fill="#111827">Limitation: this is a mixed-state landscape. It does not imply that every target system exists fully today. Relationship</text>
  <text x="616.0" y="691.3" text-anchor="start" font-family="Arial, sans-serif" font-size="11" fill="#111827">labels are high level. Detailed interface mechanisms (APIs, events, files, adapters) belong in an integration view or</text>
  <text x="616.0" y="705.6" text-anchor="start" font-family="Arial, sans-serif" font-size="11" fill="#111827">interface catalogue, not in this landscape map.</text>
  <path d="M178.5 300.0 L311.5 228.0" fill="none" stroke="#475467" stroke-width="1.2"/>
  <polygon points="311.5,228.0 305.6,236.1 301.5,228.5" fill="#475467"/>
  <rect x="165.5" y="241.5" width="159.0" height="17.0" rx="3" ry="3" fill="#FFFFFF" stroke="#B0B7C3" stroke-width="0.8"/>
  <text x="245.0" y="252.5" text-anchor="middle" font-family="Arial, sans-serif" font-size="10" fill="#1D2939">submits onboarding applications</text>
  <path d="M178.5 358.0 L311.5 430.0" fill="none" stroke="#475467" stroke-width="1.2"/>
  <polygon points="311.5,430.0 301.5,429.5 305.6,421.9" fill="#475467"/>
  <rect x="127.5" y="396.5" width="225.0" height="17.0" rx="3" ry="3" fill="#FFFFFF" stroke="#B0B7C3" stroke-width="0.8"/>
  <text x="240.0" y="407.5" text-anchor="middle" font-family="Arial, sans-serif" font-size="10" fill="#1D2939">initiates payments and obtains payment status</text>
  <path d="M452.0 170.0 L518.0 148.0" fill="none" stroke="#475467" stroke-width="1.2"/>
  <polygon points="518.0,148.0 510.8,155.0 508.1,146.7" fill="#475467"/>
  <rect x="374.5" y="141.5" width="191.0" height="17.0" rx="3" ry="3" fill="#FFFFFF" stroke="#B0B7C3" stroke-width="0.8"/>
  <text x="470.0" y="152.5" text-anchor="middle" font-family="Arial, sans-serif" font-size="10" fill="#1D2939">establishes party and customer records</text>
  <path d="M460.0 214.8 L510.0 223.2" fill="none" stroke="#475467" stroke-width="1.2"/>
  <polygon points="510.0,223.2 500.4,226.0 501.8,217.4" fill="#475467"/>
  <rect x="607.0" y="173.5" width="186.0" height="17.0" rx="3" ry="3" fill="#FFFFFF" stroke="#B0B7C3" stroke-width="0.8"/>
  <text x="700.0" y="184.5" text-anchor="middle" font-family="Arial, sans-serif" font-size="10" fill="#1D2939">reads product and eligibility definitions</text>
  <path d="M408.5 228.0 L561.5 330.0" fill="none" stroke="#475467" stroke-width="1.2"/>
  <polygon points="561.5,330.0 551.6,328.6 556.4,321.4" fill="#475467"/>
  <rect x="378.0" y="291.5" width="154.0" height="17.0" rx="3" ry="3" fill="#FFFFFF" stroke="#B0B7C3" stroke-width="0.8"/>
  <text x="455.0" y="302.5" text-anchor="middle" font-family="Arial, sans-serif" font-size="10" fill="#1D2939">requests onboarding screening</text>
  <path d="M434.6 430.0 L535.4 388.0" fill="none" stroke="#475467" stroke-width="1.2"/>
  <polygon points="535.4,388.0 528.8,395.5 525.4,387.5" fill="#475467"/>
  <rect x="384.5" y="406.5" width="141.0" height="17.0" rx="3" ry="3" fill="#FFFFFF" stroke="#B0B7C3" stroke-width="0.8"/>
  <text x="455.0" y="417.5" text-anchor="middle" font-family="Arial, sans-serif" font-size="10" fill="#1D2939">requests payment screening</text>
  <path d="M460.0 439.2 L750.0 378.8" fill="none" stroke="#475467" stroke-width="1.2"/>
  <polygon points="750.0,378.8 742.1,384.9 740.3,376.4" fill="#475467"/>
  <rect x="524.5" y="421.5" width="201.0" height="17.0" rx="3" ry="3" fill="#FFFFFF" stroke="#B0B7C3" stroke-width="0.8"/>
  <text x="625.0" y="432.5" text-anchor="middle" font-family="Arial, sans-serif" font-size="10" fill="#1D2939">invokes retained-core integration services</text>
  <path d="M914.6 388.0 L1015.4 430.0" fill="none" stroke="#475467" stroke-width="1.2"/>
  <polygon points="1015.4,430.0 1005.4,430.5 1008.8,422.5" fill="#475467"/>
  <rect x="851.0" y="391.5" width="228.0" height="17.0" rx="3" ry="3" fill="#FFFFFF" stroke="#B0B7C3" stroke-width="0.8"/>
  <text x="965.0" y="402.5" text-anchor="middle" font-family="Arial, sans-serif" font-size="10" fill="#1D2939">mediates posting and account-access requests</text>
  <path d="M460.0 466.9 L750.0 491.1" fill="none" stroke="#475467" stroke-width="1.2"/>
  <polygon points="750.0,491.1 740.7,494.7 741.4,486.0" fill="#475467"/>
  <rect x="455.5" y="491.5" width="209.0" height="17.0" rx="3" ry="3" fill="#FFFFFF" stroke="#B0B7C3" stroke-width="0.8"/>
  <text x="560.0" y="502.5" text-anchor="middle" font-family="Arial, sans-serif" font-size="10" fill="#1D2939">publishes governed payment-status events</text>
  <path d="M922.3 528.0 L1007.7 560.0" fill="none" stroke="#475467" stroke-width="1.2"/>
  <polygon points="1007.7,560.0 997.7,560.9 1000.8,552.8" fill="#475467"/>
  <rect x="891.0" y="536.5" width="188.0" height="17.0" rx="3" ry="3" fill="#FFFFFF" stroke="#B0B7C3" stroke-width="0.8"/>
  <text x="985.0" y="547.5" text-anchor="middle" font-family="Arial, sans-serif" font-size="10" fill="#1D2939">supplies governed events for data use</text>
</svg>
