<?xml version="1.0" encoding="us-ascii" standalone="no"?><svg xmlns="http://www.w3.org/2000/svg" xmlns:xlink="http://www.w3.org/1999/xlink" contentStyleType="text/css" height="776px" preserveAspectRatio="none" style="width:1767px;height:776px;background:#FFFFFF;" version="1.1" viewBox="0 0 1767 776" width="1767px" zoomAndPan="magnify"><defs/><g><text fill="#000000" font-family="Arial" font-size="14" font-weight="bold" lengthAdjust="spacing" textLength="345" x="704.25" y="23.1318">FIG-11-05. Horizon Bank Payment Resilience View</text><!--cluster Primary--><g id="cluster_Primary"><rect fill="#F7F9FB" height="261" rx="2.5" ry="2.5" style="stroke:#333333;stroke-width:1.0;" width="662" x="666.5" y="408.5986"/><text fill="#000000" font-family="Arial" font-size="14" font-weight="bold" lengthAdjust="spacing" textLength="187" x="904" y="423.7305">Primary Production Region</text><text fill="#000000" font-family="Arial" font-size="14" font-weight="bold" lengthAdjust="spacing" textLength="141" x="927" y="439.8291">Normal service path</text></g><!--cluster Secondary--><g id="cluster_Secondary"><rect fill="#F7F9FB" height="226" rx="2.5" ry="2.5" style="stroke:#333333;stroke-width:1.0;" width="598.5" x="1141" y="150.5986"/><text fill="#000000" font-family="Arial" font-size="14" font-weight="bold" lengthAdjust="spacing" textLength="199" x="1340.75" y="165.7305">Secondary Recovery Region</text><text fill="#000000" font-family="Arial" font-size="14" font-weight="bold" lengthAdjust="spacing" textLength="98" x="1391.25" y="181.8291">Warm standby</text></g><!--entity PrimaryPayments--><g id="elem_PrimaryPayments"><rect fill="#FFFFFF" height="62.1973" rx="2.5" ry="2.5" style="stroke:#333333;stroke-width:0.5;" width="158" x="693" y="564.5986"/><rect fill="#FFFFFF" height="10" style="stroke:#333333;stroke-width:0.5;" width="15" x="831" y="569.5986"/><rect fill="#FFFFFF" height="2" style="stroke:#333333;stroke-width:0.5;" width="4" x="829" y="571.5986"/><rect fill="#FFFFFF" height="2" style="stroke:#333333;stroke-width:0.5;" width="4" x="829" y="575.5986"/><text fill="#000000" font-family="Arial" font-size="14" lengthAdjust="spacing" textLength="118" x="708" y="597.7305">Payments Platform</text><text fill="#000000" font-family="Arial" font-size="14" lengthAdjust="spacing" textLength="88" x="708" y="613.8291">active runtime</text></g><!--entity PrimaryStore--><g id="elem_PrimaryStore"><path d="M1172.5,478.0986 C1172.5,468.0986 1238.5,468.0986 1238.5,468.0986 C1238.5,468.0986 1304.5,468.0986 1304.5,478.0986 L1304.5,519.2959 C1304.5,529.2959 1238.5,529.2959 1238.5,529.2959 C1238.5,529.2959 1172.5,529.2959 1172.5,519.2959 L1172.5,478.0986 " fill="#F2F5F7" style="stroke:#333333;stroke-width:0.5;"/><path d="M1172.5,478.0986 C1172.5,488.0986 1238.5,488.0986 1238.5,488.0986 C1238.5,488.0986 1304.5,488.0986 1304.5,478.0986 " fill="none" style="stroke:#333333;stroke-width:0.5;"/><text fill="#000000" font-family="Arial" font-size="14" lengthAdjust="spacing" textLength="112" x="1182.5" y="505.2305">Payment Records</text><text fill="#000000" font-family="Arial" font-size="14" lengthAdjust="spacing" textLength="83" x="1182.5" y="521.3291">primary store</text></g><!--entity PrimaryEvents--><g id="elem_PrimaryEvents"><path d="M1187.5,564.5986 L1289.5,564.5986 C1294.5,564.5986 1294.5,585.6973 1294.5,585.6973 C1294.5,585.6973 1294.5,606.7959 1289.5,606.7959 L1187.5,606.7959 C1182.5,606.7959 1182.5,585.6973 1182.5,585.6973 C1182.5,585.6973 1182.5,564.5986 1187.5,564.5986 " fill="#F1F1F1" style="stroke:#181818;stroke-width:0.5;"/><path d="M1289.5,564.5986 C1284.5,564.5986 1284.5,585.6973 1284.5,585.6973 C1284.5,606.7959 1289.5,606.7959 1289.5,606.7959 " fill="none" style="stroke:#181818;stroke-width:0.5;"/><text fill="#000000" font-family="Arial" font-size="14" lengthAdjust="spacing" textLength="92" x="1187.5" y="582.7305">Event Platform</text><text fill="#000000" font-family="Arial" font-size="14" lengthAdjust="spacing" textLength="47" x="1187.5" y="598.8291">primary</text></g><!--entity PrimaryTelemetry--><g id="elem_PrimaryTelemetry"><rect fill="#FFFFFF" height="62.1973" rx="2.5" ry="2.5" style="stroke:#333333;stroke-width:0.5;" width="163" x="690.5" y="467.5986"/><rect fill="#FFFFFF" height="10" style="stroke:#333333;stroke-width:0.5;" width="15" x="833.5" y="472.5986"/><rect fill="#FFFFFF" height="2" style="stroke:#333333;stroke-width:0.5;" width="4" x="831.5" y="474.5986"/><rect fill="#FFFFFF" height="2" style="stroke:#333333;stroke-width:0.5;" width="4" x="831.5" y="478.5986"/><text fill="#000000" font-family="Arial" font-size="14" lengthAdjust="spacing" textLength="123" x="705.5" y="500.7305">Telemetry Collector</text><text fill="#000000" font-family="Arial" font-size="14" lengthAdjust="spacing" textLength="47" x="705.5" y="516.8291">primary</text></g><!--entity SecondaryPayments--><g id="elem_SecondaryPayments"><rect fill="#FFFFFF" height="62.1973" rx="2.5" ry="2.5" style="stroke:#333333;stroke-width:0.5;" width="158" x="1159.5" y="298.5986"/><rect fill="#FFFFFF" height="10" style="stroke:#333333;stroke-width:0.5;" width="15" x="1297.5" y="303.5986"/><rect fill="#FFFFFF" height="2" style="stroke:#333333;stroke-width:0.5;" width="4" x="1295.5" y="305.5986"/><rect fill="#FFFFFF" height="2" style="stroke:#333333;stroke-width:0.5;" width="4" x="1295.5" y="309.5986"/><text fill="#000000" font-family="Arial" font-size="14" lengthAdjust="spacing" textLength="118" x="1174.5" y="331.7305">Payments Platform</text><text fill="#000000" font-family="Arial" font-size="14" lengthAdjust="spacing" textLength="101" x="1174.5" y="347.8291">standby runtime</text></g><!--entity SecondaryStore--><g id="elem_SecondaryStore"><path d="M1591.5,232.0986 C1591.5,222.0986 1657.5,222.0986 1657.5,222.0986 C1657.5,222.0986 1723.5,222.0986 1723.5,232.0986 L1723.5,273.2959 C1723.5,283.2959 1657.5,283.2959 1657.5,283.2959 C1657.5,283.2959 1591.5,283.2959 1591.5,273.2959 L1591.5,232.0986 " fill="#F2F5F7" style="stroke:#333333;stroke-width:0.5;"/><path d="M1591.5,232.0986 C1591.5,242.0986 1657.5,242.0986 1657.5,242.0986 C1657.5,242.0986 1723.5,242.0986 1723.5,232.0986 " fill="none" style="stroke:#333333;stroke-width:0.5;"/><text fill="#000000" font-family="Arial" font-size="14" lengthAdjust="spacing" textLength="112" x="1601.5" y="259.2305">Payment Records</text><text fill="#000000" font-family="Arial" font-size="14" lengthAdjust="spacing" textLength="78" x="1601.5" y="275.3291">replica store</text></g><!--entity SecondaryEvents--><g id="elem_SecondaryEvents"><path d="M1606.5,318.5986 L1708.5,318.5986 C1713.5,318.5986 1713.5,339.6973 1713.5,339.6973 C1713.5,339.6973 1713.5,360.7959 1708.5,360.7959 L1606.5,360.7959 C1601.5,360.7959 1601.5,339.6973 1601.5,339.6973 C1601.5,339.6973 1601.5,318.5986 1606.5,318.5986 " fill="#F1F1F1" style="stroke:#181818;stroke-width:0.5;"/><path d="M1708.5,318.5986 C1703.5,318.5986 1703.5,339.6973 1703.5,339.6973 C1703.5,360.7959 1708.5,360.7959 1708.5,360.7959 " fill="none" style="stroke:#181818;stroke-width:0.5;"/><text fill="#000000" font-family="Arial" font-size="14" lengthAdjust="spacing" textLength="92" x="1606.5" y="336.7305">Event Platform</text><text fill="#000000" font-family="Arial" font-size="14" lengthAdjust="spacing" textLength="42" x="1606.5" y="352.8291">replica</text></g><!--entity SecondaryTelemetry--><g id="elem_SecondaryTelemetry"><rect fill="#FFFFFF" height="62.1973" rx="2.5" ry="2.5" style="stroke:#333333;stroke-width:0.5;" width="163" x="1157" y="201.5986"/><rect fill="#FFFFFF" height="10" style="stroke:#333333;stroke-width:0.5;" width="15" x="1300" y="206.5986"/><rect fill="#FFFFFF" height="2" style="stroke:#333333;stroke-width:0.5;" width="4" x="1298" y="208.5986"/><rect fill="#FFFFFF" height="2" style="stroke:#333333;stroke-width:0.5;" width="4" x="1298" y="212.5986"/><text fill="#000000" font-family="Arial" font-size="14" lengthAdjust="spacing" textLength="123" x="1172" y="234.7305">Telemetry Collector</text><text fill="#000000" font-family="Arial" font-size="14" lengthAdjust="spacing" textLength="66" x="1172" y="250.8291">secondary</text></g><!--entity Customer--><g id="elem_Customer"><ellipse cx="56.5" cy="443.0986" fill="#FFFFFF" rx="8" ry="8" style="stroke:#333333;stroke-width:0.5;"/><path d="M56.5,451.0986 L56.5,478.0986 M43.5,459.0986 L69.5,459.0986 M56.5,478.0986 L43.5,493.0986 M56.5,478.0986 L69.5,493.0986 " fill="none" style="stroke:#333333;stroke-width:0.5;"/><text fill="#000000" font-family="Arial" font-size="14" lengthAdjust="spacing" textLength="101" x="6" y="507.7305">Retail Customer</text></g><!--entity Channels--><g id="elem_Channels"><rect fill="#FFFFFF" height="62.1973" rx="2.5" ry="2.5" style="stroke:#333333;stroke-width:0.5;" width="130" x="268" y="441.5986"/><rect fill="#FFFFFF" height="10" style="stroke:#333333;stroke-width:0.5;" width="15" x="378" y="446.5986"/><rect fill="#FFFFFF" height="2" style="stroke:#333333;stroke-width:0.5;" width="4" x="376" y="448.5986"/><rect fill="#FFFFFF" height="2" style="stroke:#333333;stroke-width:0.5;" width="4" x="376" y="452.5986"/><text fill="#000000" font-family="Arial" font-size="14" lengthAdjust="spacing" textLength="90" x="283" y="474.7305">Horizon Digital</text><text fill="#000000" font-family="Arial" font-size="14" lengthAdjust="spacing" textLength="60" x="283" y="490.8291">Channels</text></g><!--entity CoreDeposit--><g id="elem_CoreDeposit"><path d="M1564.5,523.0986 C1564.5,513.0986 1657.5,513.0986 1657.5,513.0986 C1657.5,513.0986 1750.5,513.0986 1750.5,523.0986 L1750.5,564.2959 C1750.5,574.2959 1657.5,574.2959 1657.5,574.2959 C1657.5,574.2959 1564.5,574.2959 1564.5,564.2959 L1564.5,523.0986 " fill="#F2F5F7" style="stroke:#333333;stroke-width:0.5;"/><path d="M1564.5,523.0986 C1564.5,533.0986 1657.5,533.0986 1657.5,533.0986 C1657.5,533.0986 1750.5,533.0986 1750.5,523.0986 " fill="none" style="stroke:#333333;stroke-width:0.5;"/><text fill="#000000" font-family="Arial" font-size="14" lengthAdjust="spacing" textLength="133" x="1574.5" y="550.2305">Core Deposit System</text><text fill="#000000" font-family="Arial" font-size="14" lengthAdjust="spacing" textLength="166" x="1574.5" y="566.3291">retained core dependency</text></g><!--entity Observability--><g id="elem_Observability"><rect fill="#FFFFFF" height="62.1973" rx="2.5" ry="2.5" style="stroke:#333333;stroke-width:0.5;" width="150" x="1163.5" y="69.5986"/><rect fill="#FFFFFF" height="10" style="stroke:#333333;stroke-width:0.5;" width="15" x="1293.5" y="74.5986"/><rect fill="#FFFFFF" height="2" style="stroke:#333333;stroke-width:0.5;" width="4" x="1291.5" y="76.5986"/><rect fill="#FFFFFF" height="2" style="stroke:#333333;stroke-width:0.5;" width="4" x="1291.5" y="80.5986"/><text fill="#000000" font-family="Arial" font-size="14" lengthAdjust="spacing" textLength="110" x="1178.5" y="102.7305">Observability and</text><text fill="#000000" font-family="Arial" font-size="14" lengthAdjust="spacing" textLength="104" x="1178.5" y="118.8291">Alerting Platform</text></g><!--entity Ops--><g id="elem_Ops"><ellipse cx="1657.5" cy="51.0986" fill="#FFFFFF" rx="8" ry="8" style="stroke:#333333;stroke-width:0.5;"/><path d="M1657.5,59.0986 L1657.5,86.0986 M1644.5,67.0986 L1670.5,67.0986 M1657.5,86.0986 L1644.5,101.0986 M1657.5,86.0986 L1670.5,101.0986 " fill="none" style="stroke:#333333;stroke-width:0.5;"/><text fill="#000000" font-family="Arial" font-size="14" lengthAdjust="spacing" textLength="98" x="1599" y="115.7305">Operations and</text><text fill="#000000" font-family="Arial" font-size="14" lengthAdjust="spacing" textLength="117" x="1599" y="131.8291">Incident Response</text></g><g id="elem_GMN32"><path d="M600,238.5986 L600,280.7959 L944,280.7959 L944,248.5986 L934,238.5986 L600,238.5986 " fill="#FFF8DC" style="stroke:#666666;stroke-width:0.5;"/><path d="M934,238.5986 L934,248.5986 L944,248.5986 L934,238.5986 " fill="#FFF8DC" style="stroke:#666666;stroke-width:1.0;"/><text fill="#000000" font-family="Arial" font-size="14" lengthAdjust="spacing" textLength="249" x="606" y="256.7305">RTO and RPO are modelled objectives.</text><text fill="#000000" font-family="Arial" font-size="14" lengthAdjust="spacing" textLength="323" x="606" y="272.8291">They are not guarantees without tested operations.</text></g><!--link Customer to Channels--><g id="link_Customer_Channels"><path d="M107.21,472.5986 C152.25,472.5986 212.87,472.5986 261.89,472.5986 " fill="none" id="Customer-to-Channels" style="stroke:#333333;stroke-width:1.3;"/><polygon fill="#333333" points="267.89,472.5986,258.89,468.5986,262.89,472.5986,258.89,476.5986,267.89,472.5986" style="stroke:#333333;stroke-width:1.3;"/><text fill="#000000" font-family="Arial" font-size="14" lengthAdjust="spacing" textLength="99" x="138" y="468.7305">submit payment</text></g><!--link Channels to PrimaryPayments--><g id="link_Channels_PrimaryPayments"><path d="M398.01,490.6186 C476.25,512.6386 602.8045,548.2528 686.9945,571.9528 " fill="none" id="Channels-to-PrimaryPayments" style="stroke:#333333;stroke-width:1.3;"/><polygon fill="#333333" points="692.77,573.5786,685.1906,567.2895,687.9571,572.2238,683.0228,574.9902,692.77,573.5786" style="stroke:#333333;stroke-width:1.3;"/><text fill="#000000" font-family="Arial" font-size="14" lengthAdjust="spacing" textLength="140" x="429" y="495.7305">normal payment traffic</text></g><!--link PrimaryPayments to PrimaryStore--><g id="link_PrimaryPayments_PrimaryStore"><path d="M851.01,579.3086 C941.19,560.4786 1082.1367,531.045 1166.4767,513.435 " fill="none" id="PrimaryPayments-to-PrimaryStore" style="stroke:#333333;stroke-width:1.3;"/><polygon fill="#333333" points="1172.35,512.2086,1162.7224,510.1326,1167.4556,513.2306,1164.3576,517.9637,1172.35,512.2086" style="stroke:#333333;stroke-width:1.3;"/><text fill="#000000" font-family="Arial" font-size="14" lengthAdjust="spacing" textLength="141" x="979" y="521.7305">record payment status</text></g><!--link PrimaryPayments to PrimaryEvents--><g id="link_PrimaryPayments_PrimaryEvents"><path d="M851.01,593.9186 C944.81,591.8986 1093.8814,588.6876 1176.1914,586.9176 " fill="none" id="PrimaryPayments-to-PrimaryEvents" style="stroke:#333333;stroke-width:1.3;"/><polygon fill="#333333" points="1182.19,586.7886,1173.1061,582.983,1177.1912,586.8961,1173.2781,590.9812,1182.19,586.7886" style="stroke:#333333;stroke-width:1.3;"/><text fill="#000000" font-family="Arial" font-size="14" lengthAdjust="spacing" textLength="149" x="975" y="584.7305">publish payment events</text></g><!--link PrimaryPayments to CoreDeposit--><g id="link_PrimaryPayments_CoreDeposit"><path d="M851.15,610.2486 C961.24,628.9886 1168.26,657.2386 1344.5,641.5986 C1429.95,634.0086 1453.35,635.4086 1534.5,607.5986 C1559.28,599.1086 1579.9412,589.0934 1601.4712,577.0734 " fill="none" id="PrimaryPayments-to-CoreDeposit" style="stroke:#333333;stroke-width:1.3;"/><polygon fill="#333333" points="1606.71,574.1486,1596.9019,575.0433,1602.3443,576.586,1600.8016,582.0284,1606.71,574.1486" style="stroke:#333333;stroke-width:1.3;"/><text fill="#000000" font-family="Arial" font-size="14" lengthAdjust="spacing" textLength="128" x="1174.5" y="637.7305">posting dependency</text></g><!--link PrimaryStore to SecondaryStore--><g id="link_PrimaryStore_SecondaryStore"><path d="M1304.75,517.8386 C1370.98,532.9786 1472.36,543.4586 1534.5,488.5986 C1597.93,432.5986 1515.06,369.2586 1564.5,300.5986 C1571.45,290.9486 1575.8331,286.2543 1586.0731,279.8943 " fill="none" id="PrimaryStore-to-SecondaryStore" style="stroke:#666666;stroke-width:1.3;stroke-dasharray:7.0,7.0;"/><polygon fill="#666666" points="1591.17,276.7286,1581.4142,278.0792,1586.9226,279.3667,1585.6351,284.8751,1591.17,276.7286" style="stroke:#666666;stroke-width:1.3;"/><text fill="#000000" font-family="Arial" font-size="14" lengthAdjust="spacing" textLength="97" x="1395" y="468.7305">data replication</text><text fill="#000000" font-family="Arial" font-size="14" lengthAdjust="spacing" textLength="90" x="1398.5" y="484.8291">RPO objective</text></g><!--link PrimaryEvents to SecondaryEvents--><g id="link_PrimaryEvents_SecondaryEvents"><path d="M1294.63,595.0886 C1358.28,602.9286 1463.33,605.9086 1534.5,556.5986 C1559.34,539.3886 1550.15,522.1886 1564.5,495.5986 C1591.01,446.4886 1621.8391,395.5847 1640.1791,365.8647 " fill="none" id="PrimaryEvents-to-SecondaryEvents" style="stroke:#666666;stroke-width:1.3;stroke-dasharray:7.0,7.0;"/><polygon fill="#666666" points="1643.33,360.7586,1635.1996,366.3171,1640.7042,365.0137,1642.0077,370.5183,1643.33,360.7586" style="stroke:#666666;stroke-width:1.3;"/><text fill="#000000" font-family="Arial" font-size="14" lengthAdjust="spacing" textLength="104" x="1391.5" y="552.7305">event replication</text></g><!--link Channels to SecondaryPayments--><g id="link_Channels_SecondaryPayments"><path d="M398.25,462.4286 C560.02,436.8286 977.7538,370.7066 1153.4638,342.8966 " fill="none" id="Channels-to-SecondaryPayments" style="stroke:#666666;stroke-width:1.3;stroke-dasharray:7.0,7.0;"/><polygon fill="#666666" points="1159.39,341.9586,1149.8753,339.4147,1154.4515,342.7403,1151.126,347.3164,1159.39,341.9586" style="stroke:#666666;stroke-width:1.3;"/><text fill="#000000" font-family="Arial" font-size="14" lengthAdjust="spacing" textLength="83" x="730.5" y="356.7305">failover route</text><text fill="#000000" font-family="Arial" font-size="14" lengthAdjust="spacing" textLength="90" x="727" y="372.8291">RTO objective</text></g><!--link SecondaryPayments to SecondaryStore--><g id="link_SecondaryPayments_SecondaryStore"><path d="M1317.56,313.4486 C1329.26,311.0986 1341.19,308.7486 1352.5,306.5986 C1434.78,290.9186 1523.9569,275.286 1585.5669,264.686 " fill="none" id="SecondaryPayments-to-SecondaryStore" style="stroke:#666666;stroke-width:1.3;stroke-dasharray:7.0,7.0;"/><polygon fill="#666666" points="1591.48,263.6686,1581.9321,261.2526,1586.5524,264.5164,1583.2886,269.1367,1591.48,263.6686" style="stroke:#666666;stroke-width:1.3;"/><text fill="#000000" font-family="Arial" font-size="14" lengthAdjust="spacing" textLength="154" x="1366.5" y="270.7305">recovered status access</text></g><!--link SecondaryPayments to SecondaryEvents--><g id="link_SecondaryPayments_SecondaryEvents"><path d="M1317.93,331.4786 C1400.63,333.4586 1522.7717,336.3949 1595.3817,338.1349 " fill="none" id="SecondaryPayments-to-SecondaryEvents" style="stroke:#666666;stroke-width:1.3;stroke-dasharray:7.0,7.0;"/><polygon fill="#666666" points="1601.38,338.2786,1592.4784,334.0642,1596.3814,338.1588,1592.2868,342.0619,1601.38,338.2786" style="stroke:#666666;stroke-width:1.3;"/><text fill="#000000" font-family="Arial" font-size="14" lengthAdjust="spacing" textLength="128" x="1379.5" y="328.7305">publish after failover</text></g><!--link SecondaryPayments to CoreDeposit--><g id="link_SecondaryPayments_CoreDeposit"><path d="M1317.53,353.5186 C1378.72,373.9186 1464.88,406.3086 1534.5,446.5986 C1566.94,465.3686 1595.4768,488.2537 1618.9868,508.9537 " fill="none" id="SecondaryPayments-to-CoreDeposit" style="stroke:#666666;stroke-width:1.3;stroke-dasharray:7.0,7.0;"/><polygon fill="#666666" points="1623.49,512.9186,1619.3785,503.969,1619.7373,509.6145,1614.0919,509.9733,1623.49,512.9186" style="stroke:#666666;stroke-width:1.3;"/><text fill="#000000" font-family="Arial" font-size="14" lengthAdjust="spacing" textLength="159" x="1364" y="363.7305">dependency still required</text></g><!--link PrimaryTelemetry to Observability--><g id="link_PrimaryTelemetry_Observability"><path d="M831.9,467.4686 C866.18,448.0686 909.33,421.3786 944,392.5986 C1039.85,313.0286 1042.43,271.1386 1133,185.5986 C1152.98,166.7286 1171.9135,150.9874 1191.6635,135.4574 " fill="none" id="PrimaryTelemetry-to-Observability" style="stroke:#333333;stroke-width:1.3;"/><polygon fill="#333333" points="1196.38,131.7486,1186.8328,134.1674,1192.4496,134.8392,1191.7777,140.456,1196.38,131.7486" style="stroke:#333333;stroke-width:1.3;"/><text fill="#000000" font-family="Arial" font-size="14" lengthAdjust="spacing" textLength="126" x="986.5" y="192.7305">traces, metrics, logs</text></g><!--link SecondaryTelemetry to Observability--><g id="link_SecondaryTelemetry_Observability"><path d="M1238.5,201.3186 C1238.5,180.2786 1238.5,158.6486 1238.5,137.6586 " fill="none" id="SecondaryTelemetry-to-Observability" style="stroke:#333333;stroke-width:1.3;"/><polygon fill="#333333" points="1238.5,131.6586,1234.5,140.6586,1238.5,136.6586,1242.5,140.6586,1238.5,131.6586" style="stroke:#333333;stroke-width:1.3;"/><text fill="#000000" font-family="Arial" font-size="14" lengthAdjust="spacing" textLength="117" x="1168" y="171.7305">recovery telemetry</text></g><!--link Observability to Ops--><g id="link_Observability_Ops"><path d="M1313.57,98.4686 C1395.13,96.1186 1518.5425,92.5713 1592.8825,90.4313 " fill="none" id="Observability-to-Ops" style="stroke:#333333;stroke-width:1.3;"/><polygon fill="#333333" points="1598.88,90.2586,1589.7686,86.5193,1593.8821,90.4025,1589.9988,94.5159,1598.88,90.2586" style="stroke:#333333;stroke-width:1.3;"/><text fill="#000000" font-family="Arial" font-size="14" lengthAdjust="spacing" textLength="151" x="1368" y="88.7305">alerts and runbook links</text></g><!--link Ops to SecondaryPayments--><g id="link_Ops_SecondaryPayments"><path d="M1598.74,103.3686 C1529.63,124.0686 1415.39,168.4986 1352.5,248.5986 C1343.45,260.1286 1353.83,269.2886 1344.5,280.5986 C1337.14,289.5186 1332.9255,293.8059 1322.8455,299.8959 " fill="none" id="Ops-to-SecondaryPayments" style="stroke:#333333;stroke-width:1.3;"/><polygon fill="#333333" points="1317.71,302.9986,1327.4817,301.7683,1321.9896,300.4131,1323.3448,294.9209,1317.71,302.9986" style="stroke:#333333;stroke-width:1.3;"/><text fill="#000000" font-family="Arial" font-size="14" lengthAdjust="spacing" textLength="180" x="1353.5" y="123.7305">declare and manage failover</text></g><!--link Primary to GMN32--><g id="link_Primary_GMN32"><path d="M737.5602,669.6343 C737.2555,669.6936 736.9492,669.753 736.6413,669.8124 C736.0255,669.9312 735.4032,670.05 734.7747,670.1689 C714.6619,673.9736 688.1238,677.7949 659.5575,678.6786 C602.425,680.4461 537.18,670.4636 499,625.0986 C413.14,523.0886 416.45,429.7986 499,325.0986 C523.82,293.6186 560.87,275.6086 599.74,265.6586 " fill="none" id="Primary-GMN32" style="stroke:#333333;stroke-width:1.3;stroke-dasharray:7.0,7.0;"/></g><rect fill="none" height="58.2959" id="_legend" rx="7.5" ry="7.5" style="stroke:#000000;stroke-width:1.0;" width="460" x="646.75" y="698.4461"/><text fill="#000000" font-family="Arial" font-size="14" lengthAdjust="spacing" textLength="274" x="651.75" y="716.578">Solid arrows show normal production traffic.</text><text fill="#000000" font-family="Arial" font-size="14" lengthAdjust="spacing" textLength="319" x="651.75" y="732.6766">Dashed arrows show replication or recovery paths.</text><text fill="#000000" font-family="Arial" font-size="14" lengthAdjust="spacing" textLength="450" x="651.75" y="748.7752">Core Deposit System remains an external dependency during recovery.</text><!--SRC=[bLPDRzms4BtpLqoTQtPJ8sYBvb0WjkisbzgmZUQGxO4IPoLsAL8XHtQtHVzxPwZln7KSOO6LblFUpBpvq7vZVUawWx3Tlk9FegF3zAfrsbFNk0tLsE2svLkb7Eu9A42qLKrWRCIIRF2AB3c4otU_R4vFDzz-juLVGxH_1mzdsX_WMXyRz0GtcAopw4k4toq-A9KErhSwwWQ4IFkAIVvH06SX6epdmOK8BrxdItxLvQ6AeVDcEBdyuVB7opFrxuAd34qRl3Zx6fvyhNZUnXWUxcfR7Zoc1AVRrqhfajZwv0P9MmVdNQBGO3m1dQO7DVi_6IMui9KbxNR-lDRUeqizOdXGQaxzv3hQHiSZNCTWkgmiQrRnryx_5cAZ7IICzvRrQpNLcMU4IBeBvuFaVEuqxHcxyno-lKU8dIVRu18y6ZE5qQGBdN1Yu01ALZ7jV3juuapZ2duhFp3sOuST0t- -5zZiTy0j4TaahIE-GyTzHko0g-9Gj7uKEzbnlPRQtNAStaY04l4zvfjUk_SwDXoszgRegMRRByisu5QwJVZdAHUnTRRK2-KcWYzeDo3Nc6UhbqR46hzIS0xxd2E12sn3iWItnqIO0-1czsZO5vyQRD4R7k2UKH03ODduLuLqgIvurka8hDxEltKOoVfgIYtZLuRZU5sr6BMqVkgXxtnfpR0zs4Fg1RngUNB6gOFDvgTfeE0DfAveE8UshuEQJiJiavPdQzzFrc0D5FL-RqlrgU42d8l6o9WBF26vKwXBJm7xoZ6oxGfdKpr1iI_fOz25o08CAUiuLqAfLLIR3o- -pzTBerEDvW-cM7SRiqZHOUWjoYDoStq5eVWJyuvGwt2Vf9nIoYaiIHUwFqMmgCIUzwfCBl1o9kIWxfP1VOvuLgwntmRSmdrzG9Sbh_IlfVkiT7fF7EaOyZFfriMSYyYnMUSureyTlrFDLDDvhAKLreFrHbgLKta9Oc5Bld6XMYJsD3YEMvAcTR0soQ1MKjOolNaSPGiM8Hp0MNz8Ieut_rDCWwNJN051DThh2cUnb0-4K0JYyOMm7yT3IS75NhfHi4qmoDlCp5sGjkgkncC-PHAeEdvTUq9Cy62fvhxXV7XrCMJQ8rl5AeiroX-OIXvwr-esE6kOYz_r2L8T7gPbCB-0XtsmLHUvYYlhHRS3xwv9Kdaxizj7DYhRDBnGHKp0lxY3F7jRz87feepto9H3xsF-3m00]--></g></svg>